<svg width="170" height="124" viewBox="0 0 170 124" fill="none" xmlns="http://www.w3.org/2000/svg">
<g clip-path="url(#clip0_1183_5373)">
<path d="M127.634 106.758C127.144 107.548 127.986 108.877 129.547 109.873C129.721 109.984 129.901 110.091 130.091 110.193C131.994 111.211 133.982 111.325 134.53 110.447C135.077 109.568 133.979 108.03 132.073 107.008C131.478 106.691 130.873 106.46 130.306 106.323C129.065 106.016 128.011 106.149 127.634 106.755V106.758Z" fill="#4D1111"/>
<path d="M117.849 85.7571C118.419 85.8522 118.941 86.6547 119.384 87.9742C120.191 90.3753 120.717 94.4828 120.717 99.1454C120.717 103.158 120.328 106.764 119.704 109.219C119.178 111.29 118.488 112.546 117.732 112.546C117.732 112.546 121.559 114.151 127.02 115.985C128.147 114.021 128.964 111.956 129.54 109.873C127.979 108.873 127.137 107.548 127.628 106.758C128.005 106.152 129.056 106.019 130.3 106.323C131.845 96.4398 128.85 87.1305 128.85 87.1305C122.559 86.1314 118.558 85.811 117.846 85.7603L117.849 85.7571Z" fill="white"/>
<path d="M100.079 49.4077C101.447 52.2497 105.078 58.3301 110.017 55.3327C115.645 51.9135 115.234 37.4499 110.001 32.4796C108.101 30.6748 105.569 30.1229 102.457 31.7977C103.666 32.394 105.306 32.9459 107.455 33.1838C106.392 36.4412 101.57 49.7915 94.849 46.6831C94.8426 44.9957 93.5731 43.5525 92.158 42.4677C91.5343 43.1592 91.1544 44.3169 90.9866 45.703C90.3503 51.0063 92.883 59.6337 97.1759 58.2635C100.899 57.0772 100.114 49.6995 100.082 49.4077H100.079Z" fill="white"/>
<path d="M117.735 85.7476C117.14 85.7476 116.595 86.5151 116.127 87.8473C117.203 87.8695 118.292 87.9139 119.388 87.9742C118.944 86.6547 118.419 85.8522 117.852 85.7571C117.776 85.7507 117.738 85.7476 117.738 85.7476H117.735Z" fill="#4D1111"/>
<path d="M0.367378 77.3358L14.4459 123.632H72.7451L58.6666 77.3358H0.367378Z" fill="#FF5635"/>
<path d="M0.367203 77.3359H58.6664L61.2402 74.9666H2.94104L0.367203 77.3359Z" fill="#937F7F"/>
<path d="M66.939 93.7153L61.2405 74.9666L58.6666 77.3359L72.7452 123.632H117.935V120.701H89.6572H80.8972H75.1354L66.939 93.7153Z" fill="#6D4949"/>
<path d="M86.4595 19.9604C85.4433 21.9967 84.2118 25.5524 84.2181 30.8589C81.1314 30.3545 76.3193 30.4751 72.4063 34.627V34.6334C75.0182 44.0157 80.723 51.6217 87.0991 47.8568C89.0302 46.7149 90.0021 44.6564 90.2491 41.3355C90.3947 39.4038 90.2934 37.0471 89.999 34.1956C89.5114 29.5267 89.7172 26.7133 89.9515 25.2288C90.1193 24.1631 90.5277 23.1291 91.221 22.2537C93.5479 19.3229 97.7142 19.123 99.7118 21.6764C100.855 23.1386 101.434 24.8863 101.228 26.5452C107.617 10.4639 104.438 0.294991 87.6056 0.367944C68.0944 0.450412 62.2724 8.36416 63.2538 13.4169C63.8174 16.3065 66.9959 17.794 69.5096 16.3255C69.7628 16.1796 70.0098 16.002 70.2472 15.7926C72.1657 14.0925 73.3846 12.1006 74.7586 14.6698C76.0091 16.9947 78.9818 15.1741 81.3119 13.1663C81.3783 13.7214 82.0368 18.1588 86.4595 19.9636V19.9604Z" fill="white"/>
<path d="M80.1025 64.3471C85.4274 51.0825 86.4564 51.0349 90.8854 45.6903L90.9835 45.703C90.3472 51.0063 92.8799 59.6338 97.1728 58.2635C100.896 57.0772 100.111 49.6995 100.079 49.4077C101.447 52.2497 105.078 58.3301 110.017 55.3327C115.646 51.9135 115.234 37.4499 110.001 32.4796C128.857 34.2876 153.379 36.7331 165.989 74.9664C167.695 80.1492 170.712 95.5105 168.161 107.208C167.008 112.489 164.726 117.019 160.677 119.534C160.677 119.534 160.677 119.534 160.67 119.534C157.869 121.126 153.766 121.482 149.194 121.114C141.878 120.53 133.352 118.107 127.027 115.985C128.154 114.021 128.971 111.956 129.547 109.873C129.721 109.987 129.901 110.091 130.091 110.193C131.994 111.211 133.982 111.325 134.53 110.447C135.078 109.568 133.979 108.03 132.073 107.008C131.478 106.691 130.873 106.46 130.307 106.323C131.852 96.4366 128.857 87.1273 128.857 87.1273C122.566 86.1282 118.564 85.8078 117.852 85.757C117.776 85.7507 117.738 85.7475 117.738 85.7475C117.143 85.7475 116.598 86.5151 116.13 87.8473C107.734 87.676 99.9397 88.7703 95.4917 92.4338C92.4461 94.9491 90.2617 98.2065 88.4382 101.626C87.8177 102.79 87.2352 103.97 86.6811 105.15C85.247 108.182 83.8255 112.064 84.3321 113.844C84.4682 114.326 84.7974 114.732 85.2185 114.992L80.8971 120.701H75.1384L66.942 93.7152C67.0782 93.4678 72.0644 84.3614 80.1056 64.3503L80.1025 64.3471ZM104.071 75.3217C105.977 76.343 107.962 76.4572 108.51 75.5786C109.057 74.7 107.959 73.1617 106.053 72.1403C104.147 71.119 102.162 71.008 101.614 71.8834C101.067 72.762 102.165 74.3035 104.071 75.3217ZM103.34 65.7618C105.243 66.7799 107.231 66.8941 107.778 66.0155C108.326 65.1401 107.224 63.5986 105.322 62.5804C103.419 61.5591 101.431 61.4449 100.883 62.3235C100.339 63.2021 101.437 64.7404 103.34 65.7618Z" fill="#E4F0F2"/>
<path d="M68.2242 29.2C65.9859 31.8422 69.3227 32.1213 72.4063 34.6239C76.3192 30.4719 81.1313 30.3514 84.2181 30.8557C84.2117 25.5524 85.4432 21.9936 86.4595 19.9573C82.0368 18.1493 81.3783 13.7151 81.3118 13.16C78.9817 15.1678 76.009 16.9884 74.7585 14.6635C73.3813 12.0943 72.1625 14.0894 70.2471 15.7863C70.0097 15.9957 69.7628 16.1733 69.5095 16.3192L69.5158 16.335H69.5222C69.5348 16.5951 69.5601 16.8521 69.6045 17.1185C70.5067 23.2148 71.6876 25.5746 68.2273 29.2H68.2242Z" fill="#F68C5C"/>
<path d="M74.9233 23.3923C74.1698 23.5477 73.7583 24.6547 74.0084 25.8695C74.2585 27.0812 75.0721 27.9407 75.8256 27.7853C76.579 27.6299 76.9874 26.5197 76.7405 25.3081C76.4935 24.0965 75.6768 23.2369 74.9264 23.3923H74.9233Z" fill="#4D1111"/>
<path d="M110.887 104.563C111.701 104.722 113.195 105.527 115.272 106.707C116.542 107.427 118.029 108.287 119.711 109.222C120.334 106.767 120.724 103.161 120.724 99.1486C120.724 94.486 120.195 90.3785 119.391 87.9774C118.295 87.9171 117.21 87.8727 116.13 87.8505C107.734 87.6792 99.9398 88.7735 95.4918 92.437C92.4462 94.9522 90.2618 98.2097 88.4383 101.629C87.8177 102.793 87.2352 103.973 86.6812 105.153C85.2471 108.185 83.8256 112.068 84.3321 113.847C84.4683 114.329 84.7975 114.735 85.2186 114.995C85.7346 115.315 86.3899 115.42 87.001 115.182C87.9349 114.824 88.7358 113.958 89.4577 112.914C90.4454 111.487 91.2812 109.724 92.0917 108.445C92.06 109.137 92.1993 109.844 92.6678 110.444C92.8736 110.707 93.149 110.926 93.4751 111.084C95.4665 112.071 97.7934 110.754 97.7934 110.754L97.8092 110.748C97.901 111.024 98.0403 111.29 98.2334 111.541C98.4392 111.804 98.7146 112.023 99.0375 112.185C101.029 113.171 103.356 111.855 103.356 111.855L103.406 111.817C103.419 111.833 103.432 111.849 103.444 111.865C103.653 112.128 103.929 112.347 104.252 112.505C106.243 113.492 107.63 112.677 108.57 112.175C110.416 111.189 114.721 107.516 110.89 104.566L110.887 104.563Z" fill="#F68C5C"/>
<path d="M89.6572 120.701H117.935V123.635H160.677V119.534C160.677 119.534 160.677 119.534 160.67 119.534C153.379 123.677 137.306 119.433 127.027 115.985C121.563 114.155 117.738 112.547 117.738 112.547C116.713 112.547 115.807 110.231 115.272 106.707C113.195 105.527 111.701 104.722 110.887 104.563C114.715 107.51 110.412 111.186 108.567 112.172C107.627 112.673 106.24 113.489 104.249 112.502C103.926 112.344 103.65 112.121 103.441 111.861C103.429 111.846 103.416 111.83 103.403 111.814L103.353 111.852C103.353 111.852 101.026 113.168 99.0344 112.182C98.7115 112.02 98.4361 111.801 98.2303 111.538C98.034 111.287 97.8947 111.021 97.8061 110.745L97.7902 110.751C97.7902 110.751 95.4633 112.068 93.472 111.081C93.1459 110.923 92.8705 110.701 92.6647 110.44C92.1962 109.844 92.0569 109.137 92.0885 108.442C91.2812 109.724 90.4423 111.484 89.4546 112.911C89.6413 115.845 89.7236 118.513 89.6572 120.701Z" fill="#E4F0F2"/>
<path d="M99.642 29.7139C100.589 28.7813 101.095 27.6839 101.231 26.5452C101.437 24.8832 100.858 23.1355 99.7148 21.6732C97.7172 19.1199 93.5509 19.3197 91.224 22.2505C90.5307 23.126 90.1223 24.16 89.9545 25.2257C89.7234 26.7101 89.5176 29.5236 90.002 34.1925C90.2964 37.044 90.3977 39.4007 90.2521 41.3323H90.2711C90.6351 41.4751 90.9834 41.6527 91.3158 41.8684C91.5944 42.0523 91.8793 42.249 92.1547 42.4647C93.573 43.5494 94.8426 44.9926 94.8457 46.6801C101.567 49.7885 106.388 36.4382 107.452 33.1807C105.303 32.9428 103.663 32.3909 102.453 31.7946C100.462 30.8113 99.6388 29.7107 99.6388 29.7107L99.642 29.7139Z" fill="#F68C5C"/>
<path d="M100.883 62.3235C100.339 63.2021 101.437 64.7404 103.34 65.7617C105.243 66.7799 107.231 66.8941 107.778 66.0155C108.326 65.1401 107.224 63.5985 105.322 62.5804C103.419 61.5591 101.431 61.4449 100.883 62.3235Z" fill="#4D1111"/>
<path d="M101.618 71.8835C101.07 72.7621 102.169 74.3036 104.074 75.3217C105.98 76.3431 107.965 76.4572 108.513 75.5786C109.061 74.7 107.962 73.1617 106.056 72.1404C104.15 71.119 102.165 71.008 101.618 71.8835Z" fill="#4D1111"/>
<path d="M115.269 106.707C115.8 110.231 116.709 112.547 117.735 112.547C118.488 112.547 119.181 111.29 119.707 109.222C118.029 108.284 116.538 107.427 115.269 106.707Z" fill="#4D1111"/>
<path d="M149.194 121.114C153.766 121.482 157.868 121.129 160.67 119.534C160.677 119.534 160.677 119.534 160.677 119.534C164.726 117.019 167.008 112.489 168.161 107.208C162.361 108.017 152.183 110.9 149.194 121.114Z" fill="#FFCB00"/>
<path d="M57.3368 65.6254C50.3955 65.6254 44.7684 60.8895 44.7684 55.0473C44.7684 49.2052 50.3955 44.4692 57.3368 44.4692C64.2782 44.4692 69.9053 49.2052 69.9053 55.0473C69.9053 60.8895 64.2782 65.6254 57.3368 65.6254Z" fill="white"/>
<path d="M55.6685 55.0473C55.6685 56.2463 56.4093 57.2169 57.3242 57.2169C58.2392 57.2169 58.98 56.2463 58.98 55.0473C58.98 53.8484 58.2392 52.8778 57.3242 52.8778C56.4093 52.8778 55.6685 53.8484 55.6685 55.0473Z" fill="#4D1111"/>
<path d="M61.3384 55.0473C61.3384 56.2463 62.0792 57.2169 62.9942 57.2169C63.9091 57.2169 64.6499 56.2463 64.6499 55.0473C64.6499 53.8484 63.9091 52.8778 62.9942 52.8778C62.0792 52.8778 61.3384 53.8484 61.3384 55.0473Z" fill="#4D1111"/>
<path d="M50.2862 55.0473C50.2862 56.2463 51.027 57.2169 51.9419 57.2169C52.8568 57.2169 53.5977 56.2463 53.5977 55.0473C53.5977 53.8484 52.8568 52.8778 51.9419 52.8778C51.027 52.8778 50.2862 53.8484 50.2862 55.0473Z" fill="#4D1111"/>
<path d="M86.3045 115.677C86.5831 115.677 86.8648 115.626 87.1308 115.525C88.0299 115.182 88.8625 114.418 89.7553 113.121C90.3409 112.271 90.8665 111.325 91.3762 110.406C91.7307 109.768 92.0663 109.162 92.3956 108.642C92.4937 108.496 92.4779 108.296 92.3481 108.173C92.2025 108.03 91.9714 108.033 91.8289 108.179C91.8131 108.195 91.7972 108.214 91.7846 108.236C91.7846 108.239 91.7814 108.242 91.7782 108.246C91.4363 108.785 91.0976 109.4 90.7367 110.05C90.2365 110.951 89.7204 111.884 89.1537 112.702C88.3591 113.853 87.612 114.554 86.868 114.837C86.3963 115.017 85.8644 114.96 85.4117 114.678C85.054 114.459 84.7912 114.117 84.6836 113.742C84.2973 112.391 85.1901 109.156 87.0105 105.305C87.631 103.986 88.204 102.841 88.758 101.797C90.9266 97.734 93.1396 94.8476 95.7229 92.7162C99.5916 89.5316 106.455 88.0187 116.12 88.2153C117.143 88.2375 118.235 88.2788 119.365 88.3422C119.565 88.3549 119.739 88.1995 119.752 87.9965C119.764 87.7935 119.609 87.6222 119.407 87.6095C118.267 87.5461 117.168 87.5017 116.133 87.4826C106.287 87.2828 99.2623 88.8529 95.2543 92.1516C92.595 94.3497 90.3251 97.3026 88.109 101.455C87.5486 102.508 86.9693 103.665 86.3425 104.994C85.418 106.948 83.3412 111.728 83.9744 113.948C84.1327 114.507 84.5031 114.989 85.0223 115.309C85.418 115.557 85.8613 115.68 86.3013 115.68L86.3045 115.677Z" fill="#4D1111"/>
<path d="M95.1244 111.814C96.6282 111.814 97.8977 111.11 97.9705 111.068C98.1478 110.97 98.2079 110.745 98.1098 110.567C98.0117 110.39 97.7869 110.329 97.6096 110.428C97.5874 110.44 95.4252 111.636 93.6364 110.748C93.361 110.615 93.1267 110.428 92.9558 110.209C92.5917 109.746 92.4239 109.156 92.4556 108.455C92.5221 106.986 93.4402 105.553 93.4497 105.54C93.5605 105.369 93.5098 105.143 93.342 105.032C93.1711 104.921 92.9463 104.972 92.8355 105.14C92.7943 105.207 91.8003 106.758 91.7243 108.423C91.6831 109.305 91.9047 110.06 92.3796 110.666C92.617 110.97 92.94 111.227 93.3135 111.411C93.915 111.709 94.5387 111.817 95.1276 111.817L95.1244 111.814Z" fill="#4D1111"/>
<path d="M100.687 112.918C102.191 112.918 103.46 112.213 103.533 112.172C103.71 112.074 103.77 111.849 103.672 111.671C103.574 111.493 103.349 111.433 103.172 111.532C103.15 111.544 100.984 112.74 99.1958 111.852C98.9172 111.712 98.6892 111.532 98.5183 111.313C98.3537 111.103 98.2334 110.875 98.151 110.631C97.5749 108.908 98.9963 106.663 99.0122 106.641C99.123 106.469 99.0723 106.244 98.9014 106.133C98.7304 106.022 98.5056 106.073 98.3948 106.241C98.3283 106.346 96.7644 108.804 97.4546 110.859C97.559 111.183 97.7237 111.487 97.9389 111.763C98.1764 112.068 98.4866 112.318 98.8665 112.508C99.468 112.807 100.095 112.914 100.684 112.914L100.687 112.918Z" fill="#4D1111"/>
<path d="M106.091 113.336C107.17 113.336 108.013 112.886 108.643 112.546L108.738 112.496C109.795 111.931 112.578 109.936 112.78 107.497C112.882 106.288 112.321 105.204 111.115 104.274C110.973 104.16 110.764 104.166 110.631 104.296C110.485 104.439 110.482 104.671 110.624 104.813C110.637 104.826 110.653 104.839 110.666 104.852C111.663 105.619 112.128 106.488 112.052 107.433C111.891 109.375 109.52 111.243 108.396 111.842L108.301 111.893C107.402 112.375 106.167 113.035 104.413 112.166C104.141 112.033 103.906 111.845 103.732 111.627L103.717 111.608C103.717 111.608 103.704 111.589 103.701 111.589C102.4 109.847 104.21 106.986 104.229 106.958C104.34 106.786 104.29 106.561 104.119 106.45C103.948 106.339 103.723 106.39 103.612 106.561C103.527 106.694 101.507 109.879 103.112 112.029L103.134 112.058C103.134 112.058 103.153 112.083 103.156 112.087C103.397 112.391 103.72 112.648 104.087 112.829C104.831 113.197 105.499 113.333 106.091 113.333V113.336Z" fill="#4D1111"/>
<path d="M119.707 109.587C119.837 109.587 119.961 109.521 120.027 109.397C120.125 109.219 120.062 108.997 119.885 108.899C118.694 108.236 117.586 107.605 116.608 107.046C116.203 106.815 115.816 106.596 115.449 106.387C113.176 105.096 111.786 104.363 110.957 104.201C110.837 104.176 110.71 104.217 110.624 104.306C109.235 105.746 108.462 106.542 108.462 106.542C108.32 106.688 108.323 106.92 108.469 107.062C108.614 107.205 108.845 107.202 108.988 107.056C108.988 107.056 109.71 106.317 111.008 104.969C111.866 105.213 113.429 106.082 115.092 107.027C115.459 107.237 115.845 107.456 116.247 107.687C117.225 108.245 118.337 108.88 119.53 109.543C119.587 109.574 119.647 109.59 119.707 109.59V109.587Z" fill="#4D1111"/>
<path d="M137.68 89.1002C137.712 89.1002 137.74 89.097 137.772 89.0875C137.968 89.0368 138.085 88.8369 138.035 88.6403C137.031 84.7643 132.371 69.4665 132.323 69.3111C132.263 69.1176 132.061 69.0066 131.864 69.0668C131.671 69.1271 131.56 69.3301 131.621 69.5268C131.668 69.6822 136.325 84.9673 137.325 88.8274C137.37 88.9923 137.515 89.1034 137.68 89.1034V89.1002Z" fill="#4D1111"/>
<path d="M72.7451 124H117.935C118.137 124 118.302 123.835 118.302 123.632V120.698C118.302 120.495 118.137 120.33 117.935 120.33H75.4108L67.2935 93.6043L61.595 74.8555C61.5348 74.662 61.3322 74.551 61.1391 74.6113C60.946 74.6715 60.8352 74.8745 60.8953 75.068L66.5939 93.8168L74.7903 120.803C74.8378 120.958 74.9802 121.063 75.1417 121.063H117.57V123.261H72.7483C72.5457 123.261 72.3811 123.426 72.3811 123.629C72.3811 123.832 72.5457 123.997 72.7483 123.997L72.7451 124Z" fill="#4D1111"/>
<path d="M14.4459 124H72.7451C72.9477 124 73.1123 123.835 73.1123 123.632C73.1123 123.429 72.9477 123.264 72.7451 123.264H14.7181L0.78521 77.4468L3.08362 75.3312H61.2435C61.4461 75.3312 61.6108 75.1663 61.6108 74.9633C61.6108 74.7603 61.4461 74.5953 61.2435 74.5953H2.94115C2.84934 74.5953 2.76071 74.6302 2.69423 74.6937L0.120384 77.063C0.0159149 77.1582 -0.0220795 77.3041 0.0190811 77.4405L14.0976 123.737C14.1451 123.892 14.2876 123.997 14.449 123.997L14.4459 124Z" fill="#4D1111"/>
<path d="M117.934 124H169.633C169.835 124 170 123.835 170 123.632C170 123.429 169.835 123.264 169.633 123.264H117.931C117.729 123.264 117.564 123.429 117.564 123.632C117.564 123.835 117.729 124 117.931 124H117.934Z" fill="#4D1111"/>
<path d="M0.367003 124H13.4008C13.6034 124 13.7681 123.835 13.7681 123.632C13.7681 123.429 13.6034 123.264 13.4008 123.264H0.367003C0.16439 123.264 -0.000226974 123.429 -0.000226974 123.632C-0.000226974 123.835 0.16439 124 0.367003 124Z" fill="#4D1111"/>
<path d="M117.735 112.914C118.672 112.914 119.454 111.703 120.062 109.314C120.062 109.308 120.065 109.302 120.065 109.292C120.714 106.726 121.084 103.031 121.084 99.1454C121.084 94.6001 120.578 90.3784 119.733 87.8568C119.213 86.3185 118.618 85.5128 117.909 85.3955C117.71 85.3606 117.52 85.497 117.488 85.6968C117.453 85.8966 117.589 86.0869 117.789 86.1186C117.934 86.144 118.454 86.3565 119.039 88.0915C119.862 90.5434 120.353 94.6763 120.353 99.1454C120.353 102.98 119.989 106.618 119.35 109.127C119.35 109.134 119.346 109.14 119.346 109.146C118.777 111.382 118.121 112.175 117.735 112.175C117.124 112.175 116.206 110.447 115.633 106.647C115.601 106.447 115.418 106.307 115.215 106.339C115.016 106.371 114.876 106.558 114.908 106.758C115.256 109.054 116.086 112.911 117.735 112.911V112.914Z" fill="#4D1111"/>
<path d="M116.127 88.2153C116.279 88.2153 116.421 88.1201 116.472 87.971C117.076 86.2487 117.589 86.1155 117.735 86.1155C117.937 86.1155 118.102 85.9506 118.102 85.7476C118.102 85.5446 117.937 85.3796 117.735 85.3796C116.975 85.3796 116.336 86.1472 115.781 87.7268C115.715 87.9171 115.816 88.1265 116.006 88.1962C116.047 88.2089 116.089 88.2184 116.127 88.2184V88.2153Z" fill="#4D1111"/>
<path d="M152.277 121.624C155.668 121.624 158.638 121.107 160.847 119.851C161.025 119.75 161.085 119.528 160.987 119.35C160.889 119.173 160.664 119.112 160.487 119.211C153.164 123.372 136.451 118.754 127.141 115.633C121.755 113.828 117.915 112.22 117.877 112.204C117.691 112.125 117.475 112.213 117.399 112.401C117.32 112.588 117.409 112.803 117.596 112.883C117.634 112.899 121.496 114.516 126.91 116.331C134.884 119.004 144.645 121.624 152.281 121.624H152.277Z" fill="#4D1111"/>
<path d="M153.082 92.8049C153.243 92.8049 153.389 92.6971 153.433 92.5353C153.487 92.3387 153.373 92.1388 153.177 92.0817C148.076 90.6607 142.888 89.411 137.752 88.3707C134.799 87.768 131.823 87.2288 128.913 86.7657C122.423 85.7349 118.324 85.424 117.877 85.3923C117.801 85.386 117.76 85.3828 117.76 85.3828C117.561 85.3701 117.383 85.5255 117.371 85.7254C117.358 85.9284 117.51 86.1028 117.713 86.1155C117.716 86.1155 117.751 86.1155 117.814 86.125C118.267 86.1567 122.338 86.4676 128.796 87.4921C131.699 87.9552 134.663 88.4944 137.607 89.0939C142.726 90.1342 147.899 91.3776 152.98 92.7954C153.012 92.8049 153.047 92.8081 153.078 92.8081L153.082 92.8049Z" fill="#4D1111"/>
<path d="M107.455 33.5485C107.639 33.5485 107.797 33.409 107.82 33.2218C107.842 33.0188 107.696 32.838 107.497 32.8158C105.664 32.6128 104.024 32.1593 102.618 31.4646C100.744 30.5384 99.9429 29.5013 99.9334 29.4886C99.8099 29.3268 99.582 29.2951 99.4205 29.4188C99.2591 29.5393 99.2274 29.7709 99.3477 29.9326C99.3826 29.9802 100.247 31.1126 102.292 32.1244C103.774 32.8571 105.496 33.3328 107.414 33.5454C107.427 33.5454 107.443 33.5454 107.455 33.5454V33.5485Z" fill="#4D1111"/>
<path d="M72.4096 34.9981C72.6122 34.9981 72.7769 34.8364 72.7769 34.6334C72.7769 34.535 72.7389 34.4431 72.6724 34.3733C72.6629 34.3638 72.6502 34.3511 72.6376 34.3416C71.7005 33.5803 70.7602 33.0316 69.9276 32.5463C68.8322 31.9088 67.9679 31.4044 67.8698 30.8176C67.8096 30.4624 68.0154 30.012 68.503 29.4379C71.5263 26.2756 71.1243 23.9443 70.3961 19.713C70.26 18.9264 70.108 18.0351 69.9656 17.0645C69.9244 16.8108 69.8991 16.5666 69.8864 16.3192C69.8801 16.1859 69.8041 16.0686 69.6838 16.0083C69.5034 15.9163 69.2818 15.9893 69.1899 16.1701C69.152 16.243 69.1425 16.3255 69.1551 16.4016C69.1678 16.6617 69.1963 16.9155 69.2406 17.1756C69.3831 18.1493 69.5382 19.0438 69.6743 19.8336C70.4056 24.087 70.7412 26.0282 67.9584 28.9399C67.2999 29.717 67.0467 30.345 67.148 30.935C67.3063 31.858 68.3003 32.4385 69.5603 33.1743C70.3613 33.6438 71.2699 34.1735 72.1595 34.8903C72.226 34.9506 72.3115 34.9886 72.4096 34.9886V34.9981Z" fill="#4D1111"/>
<path d="M94.8458 47.048C95.0485 47.048 95.2131 46.883 95.2099 46.68C95.2068 45.1258 94.2507 43.6097 92.3733 42.1729C92.12 41.9762 91.8383 41.7732 91.5154 41.5607C91.164 41.3323 90.7904 41.1388 90.401 40.9898C90.211 40.9168 89.9989 41.012 89.9293 41.2023C89.8565 41.3926 89.9514 41.6051 90.1414 41.6749C90.4801 41.8049 90.8094 41.973 91.1165 42.1729C91.4204 42.3727 91.6895 42.563 91.9301 42.7533C93.6207 44.0474 94.4786 45.3669 94.4818 46.68C94.4818 46.883 94.6464 47.0448 94.849 47.0448L94.8458 47.048Z" fill="#4D1111"/>
<path d="M98.0688 31.2236C98.1258 31.2236 98.1827 31.2109 98.2366 31.1824C98.7969 30.8969 99.3193 30.5258 99.7878 30.0849C99.829 30.0468 99.8733 30.0056 99.9113 29.9612C100.858 29.0287 101.447 27.8583 101.599 26.5864C101.624 26.3865 101.478 26.2026 101.279 26.1772C101.079 26.1518 100.896 26.2977 100.871 26.4975C100.738 27.6172 100.237 28.61 99.3858 29.4474C99.3478 29.4886 99.3161 29.5171 99.2845 29.5457C98.8666 29.939 98.4012 30.2689 97.901 30.5258C97.7205 30.6178 97.6509 30.8398 97.7427 31.0206C97.806 31.1475 97.9358 31.2204 98.0688 31.2204V31.2236Z" fill="#4D1111"/>
<path d="M83.759 49.208C84.9367 49.208 86.1175 48.8622 87.2889 48.1708C89.3024 46.9813 90.3598 44.8181 90.6162 41.3608C90.7555 39.4958 90.6732 37.1391 90.363 34.1544C89.8881 29.5901 90.0717 26.8084 90.3123 25.2828C90.4801 24.2234 90.8948 23.2528 91.509 22.4789C92.617 21.0833 94.2665 20.2554 95.9475 20.2617C97.35 20.2681 98.6163 20.8644 99.4268 21.8984C100.548 23.3289 101.057 24.9624 100.867 26.4944C100.842 26.6942 100.984 26.8782 101.187 26.9036C101.386 26.929 101.57 26.7862 101.595 26.5832C101.811 24.8546 101.244 23.0276 100.003 21.4417C99.0532 20.23 97.5779 19.529 95.9507 19.5227C95.9444 19.5227 95.938 19.5227 95.9285 19.5227C94.0417 19.5227 92.177 20.4552 90.936 22.0158C90.2427 22.888 89.7773 23.976 89.5905 25.1622C89.3435 26.7323 89.1536 29.5806 89.638 34.2242C89.9419 37.1645 90.0242 39.4768 89.8881 41.3006C89.6475 44.539 88.7325 46.4612 86.9185 47.5332C85.1551 48.5736 83.3728 48.7449 81.6252 48.0376C78.0794 46.6071 74.6856 41.4306 72.764 34.5287C72.7576 34.5065 72.7513 34.4875 72.7418 34.4684C72.6848 34.3416 72.555 34.2559 72.4094 34.2559C72.2068 34.2559 72.0422 34.4208 72.0422 34.6238C72.0422 34.6651 72.0485 34.7063 72.0643 34.7444C74.0778 41.9603 77.5476 47.1843 81.3529 48.7227C82.1539 49.0462 82.958 49.208 83.7622 49.208H83.759Z" fill="#4D1111"/>
<path d="M92.8007 27.3666C92.8893 27.3666 92.9811 27.3349 93.0508 27.2683L96.8941 23.6429C97.0429 23.5033 97.0493 23.2718 96.91 23.1227C96.7707 22.9736 96.5396 22.9673 96.3908 23.1068L92.5474 26.7322C92.3986 26.8718 92.3923 27.1033 92.5316 27.2524C92.6044 27.3285 92.7026 27.3666 92.7975 27.3666H92.8007Z" fill="#4D1111"/>
<path d="M97.6603 26.0186C97.7775 26.0186 97.8946 25.9615 97.9674 25.8537C98.0782 25.6856 98.0339 25.4572 97.8661 25.3462L95.8526 24.0077C95.6849 23.8966 95.4569 23.941 95.3461 24.1092C95.2353 24.2773 95.2796 24.5056 95.4474 24.6167L97.4609 25.9552C97.5242 25.9964 97.5939 26.0154 97.6635 26.0154L97.6603 26.0186Z" fill="#4D1111"/>
<path d="M78.1398 35.5468C78.0606 35.6261 78.0195 35.7403 78.0353 35.8608C78.0638 36.0606 78.2506 36.2002 78.45 36.1716C78.5671 36.1558 81.2898 35.7308 81.7742 33.2631C81.8121 33.0632 81.6823 32.8698 81.4861 32.8317C81.2866 32.7936 81.0935 32.9237 81.0555 33.1203C80.6724 35.0774 78.4405 35.4294 78.3455 35.4453C78.2632 35.458 78.1936 35.496 78.1398 35.55V35.5468Z" fill="#4D1111"/>
<path d="M78.1426 22.3774C78.2407 22.3774 78.3357 22.3393 78.4085 22.2632C78.5478 22.1173 78.5415 21.8826 78.3927 21.743C75.3123 18.8249 72.8904 20.1539 72.7891 20.211C72.6118 20.3125 72.5517 20.5345 72.653 20.7122C72.7543 20.8866 72.9759 20.95 73.15 20.8517C73.2387 20.801 75.2268 19.7574 77.8893 22.2759C77.959 22.3425 78.0508 22.3774 78.1426 22.3774Z" fill="#4D1111"/>
<path d="M96.8593 47.5141C97.54 47.5141 98.2207 47.3682 98.895 47.0733C103.656 44.9957 106.914 36.0035 107.801 33.298C107.946 32.8444 108.022 32.5843 108.022 32.5843C108.079 32.3908 107.968 32.1846 107.775 32.1275C107.582 32.0704 107.376 32.1815 107.319 32.3749C107.319 32.3749 107.243 32.6319 107.101 33.0696C106.24 35.7022 103.083 44.4438 98.6006 46.4008C97.3912 46.9274 96.2103 46.9115 94.9947 46.3501C94.6622 46.1978 94.3203 45.998 93.9721 45.7506C93.8075 45.6332 93.5795 45.6745 93.4624 45.8394C93.3453 46.0044 93.3864 46.2327 93.551 46.3501C93.9373 46.6229 94.3203 46.8481 94.6907 47.0162C95.4094 47.3492 96.1344 47.5141 96.8562 47.5141H96.8593Z" fill="#4D1111"/>
<path d="M84.2181 31.2267C84.4207 31.2267 84.5854 31.065 84.5854 30.862C84.579 25.6475 85.7789 22.1457 86.7856 20.1253C86.8774 19.9445 86.8015 19.7225 86.621 19.6336C86.4405 19.5417 86.2189 19.6178 86.1303 19.7986C85.0856 21.8888 83.8445 25.5079 83.8509 30.862C83.8509 31.065 84.0155 31.2299 84.2181 31.2299V31.2267Z" fill="#4D1111"/>
<path d="M72.4061 34.9918C72.5042 34.9918 72.5992 34.9538 72.672 34.8776C76.4077 30.9128 80.9792 30.7003 84.1577 31.2205C85.9717 31.5155 87.1843 32.042 87.1969 32.0452C87.3805 32.1276 87.599 32.042 87.6781 31.8549C87.7604 31.6677 87.675 31.452 87.4882 31.3727C87.4344 31.3505 86.1838 30.8082 84.2717 30.4941C80.919 29.9454 76.0911 30.1738 72.1338 34.3733C71.9945 34.5192 72.0008 34.7539 72.1496 34.8935C72.2193 34.9601 72.3111 34.995 72.3997 34.995L72.4061 34.9918Z" fill="#4D1111"/>
<path d="M88.1692 20.8454C88.3401 20.8454 88.4921 20.7249 88.5269 20.5536C88.5681 20.3537 88.4414 20.1603 88.242 20.119C87.6563 19.9985 87.1023 19.8304 86.5957 19.621C82.3567 17.8892 81.7298 13.6041 81.6728 13.1188L81.6665 13.0553C81.6412 12.8555 81.4576 12.7128 81.2549 12.7382C81.0555 12.7635 80.913 12.9475 80.9384 13.1505L80.9447 13.2076C81.008 13.7309 81.6887 18.4094 86.3172 20.2998C86.8648 20.525 87.46 20.7058 88.09 20.8359C88.1153 20.8422 88.1407 20.8422 88.166 20.8422L88.1692 20.8454Z" fill="#4D1111"/>
<path d="M101.231 26.9131C101.396 26.9131 101.535 26.8052 101.579 26.6562C105.309 17.2548 105.651 10.2102 102.593 5.71566C100.016 1.92214 95.0293 0 87.7764 0C87.7194 0 87.6592 0 87.6023 0C72.843 0.0634368 66.9736 4.54842 64.7891 7.21594C63.165 9.19834 62.4907 11.425 62.8928 13.4835C63.1872 14.9996 64.1528 16.2271 65.5394 16.8552C66.8944 17.4673 68.4077 17.3912 69.693 16.6395C69.9748 16.4777 70.2407 16.2842 70.4908 16.0622C70.8264 15.7672 71.1335 15.4659 71.4311 15.1773C72.232 14.4002 72.919 13.7277 73.4477 13.8102C73.7643 13.861 74.0999 14.2067 74.4386 14.8379C74.8122 15.5357 75.3536 15.9512 76.0406 16.0812C77.3765 16.3286 79.2317 15.4405 81.5555 13.4391C83.3284 11.9134 84.7087 10.3148 84.7688 10.2482C84.9018 10.096 84.8828 9.86126 84.7308 9.73121C84.5789 9.59799 84.3478 9.61703 84.2148 9.76927C84.2021 9.78513 82.8092 11.3964 81.0806 12.884C78.9658 14.7047 77.2689 15.5611 76.1799 15.3612C75.7145 15.2756 75.3599 14.9901 75.0908 14.4921C74.6254 13.6231 74.141 13.1758 73.568 13.087C72.6784 12.9506 71.868 13.7404 70.9277 14.6539C70.6364 14.9362 70.3357 15.2312 70.0128 15.5167C69.8007 15.7038 69.5727 15.8687 69.3353 16.0083C68.2557 16.6395 66.9862 16.7061 65.8497 16.1923C64.6846 15.6626 63.871 14.6285 63.6209 13.3503C63.2632 11.5106 63.8837 9.49967 65.3653 7.68855C67.4674 5.11935 73.1565 0.802476 87.6149 0.739039C87.6719 0.739039 87.7289 0.739039 87.7859 0.739039C94.7824 0.739039 99.5597 2.55333 101.994 6.13434C104.91 10.4195 104.54 17.2421 100.896 26.4151C100.88 26.4595 100.87 26.5039 100.87 26.5515C100.87 26.7545 101.035 26.9194 101.238 26.9194L101.231 26.9131Z" fill="#4D1111"/>
<path d="M159.486 60.2777C159.546 60.2777 159.61 60.2618 159.667 60.2301C159.844 60.1318 159.904 59.9066 159.806 59.729C153.797 49.024 145.962 41.7415 135.85 37.4658C127.049 33.7421 118.01 32.8762 110.033 32.1117C109.833 32.0927 109.653 32.2418 109.634 32.4416C109.615 32.6446 109.763 32.8222 109.963 32.8413C125.928 34.3701 145.797 36.2732 159.163 60.0874C159.23 60.2079 159.357 60.2745 159.483 60.2745L159.486 60.2777Z" fill="#4D1111"/>
<path d="M165.989 75.3313C166.027 75.3313 166.065 75.325 166.103 75.3123C166.296 75.2488 166.4 75.0395 166.337 74.8492C165.397 71.9977 164.361 69.2636 163.257 66.7198C163.177 66.5326 162.959 66.447 162.775 66.5295C162.589 66.6087 162.503 66.8276 162.585 67.0116C163.681 69.5364 164.71 72.2515 165.64 75.0807C165.691 75.2362 165.834 75.3313 165.989 75.3313Z" fill="#4D1111"/>
<path d="M160.67 119.902C160.711 119.902 160.756 119.896 160.797 119.88C160.822 119.87 160.848 119.858 160.87 119.845C173.628 111.922 168.8 85.4019 167.702 80.1652C167.66 79.9654 167.467 79.8385 167.268 79.8829C167.068 79.9241 166.942 80.1208 166.986 80.3174C168.066 85.4653 172.821 111.522 160.509 119.207C160.385 119.268 160.303 119.391 160.303 119.537C160.303 119.74 160.468 119.905 160.67 119.905V119.902Z" fill="#4D1111"/>
<path d="M66.9356 94.0864C67.078 94.0864 67.2015 94.0039 67.2616 93.8834C67.4326 93.5757 72.4536 84.3615 80.4411 64.4836C84.9968 53.1347 86.4024 51.5012 89.4764 47.917C89.9766 47.3366 90.5402 46.6768 91.1638 45.9251C91.2936 45.7697 91.2715 45.5381 91.1164 45.4081C90.9612 45.2781 90.7301 45.3003 90.6003 45.4557C89.9798 46.2042 89.4163 46.8608 88.9193 47.4381C85.7882 51.0857 84.3604 52.7509 79.7573 64.2108C71.6875 84.2917 66.6633 93.4457 66.6126 93.5345C66.581 93.5916 66.5652 93.655 66.5652 93.7184C66.5652 93.9214 66.7298 94.0864 66.9324 94.0864H66.9356Z" fill="#4D1111"/>
<path d="M160.677 124C160.879 124 161.044 123.835 161.044 123.632V119.531C161.044 119.328 160.879 119.163 160.677 119.163C160.474 119.163 160.309 119.328 160.309 119.531V123.632C160.309 123.835 160.474 124 160.677 124Z" fill="#4D1111"/>
<path d="M88.4349 101.994C88.4349 101.994 88.4634 101.994 88.4761 101.994C88.6787 101.972 88.8212 101.791 88.799 101.588C87.4947 89.7916 85.5983 78.04 85.5793 77.9226C85.5477 77.7228 85.3577 77.5864 85.1583 77.6181C84.9588 77.6498 84.8227 77.8401 84.8543 78.04C84.8733 78.1573 86.7665 89.89 88.0708 101.667C88.093 101.854 88.2513 101.994 88.4349 101.994Z" fill="#4D1111"/>
<path d="M89.6569 120.701H90.0242C90.0875 118.64 90.0178 116.007 89.8216 112.886C89.8089 112.683 89.6348 112.531 89.4322 112.543C89.2295 112.556 89.0776 112.73 89.0902 112.933C89.2865 116.032 89.353 118.64 89.2929 120.689L89.6601 120.701H89.6569Z" fill="#4D1111"/>
<path d="M80.894 121.066C81.0048 121.066 81.1156 121.015 81.1853 120.92L85.5066 115.211C85.6301 115.049 85.5985 114.818 85.437 114.697C85.2755 114.573 85.0444 114.605 84.9241 114.767L80.6027 120.476C80.4793 120.638 80.5109 120.869 80.6724 120.99C80.7389 121.041 80.818 121.066 80.894 121.066Z" fill="#4D1111"/>
<path d="M131.972 60.2776C132.146 60.2776 132.301 60.1539 132.333 59.9763C133.346 54.3114 135.498 50.4513 138.728 48.5038C144.015 45.3065 150.508 48.3388 150.574 48.3705C150.758 48.4594 150.976 48.3801 151.062 48.1961C151.15 48.0121 151.071 47.7933 150.888 47.7076C150.609 47.5744 143.977 44.4692 138.348 47.8726C134.929 49.9374 132.662 53.9657 131.608 59.8463C131.573 60.0461 131.706 60.2364 131.905 60.2713C131.927 60.2745 131.949 60.2776 131.972 60.2776Z" fill="#4D1111"/>
<path d="M140.133 49.8582C140.241 49.8582 140.346 49.8106 140.418 49.7218C140.545 49.5664 140.523 49.3349 140.368 49.2048L136.819 46.2962C136.661 46.1694 136.433 46.1916 136.303 46.347C136.176 46.5024 136.198 46.734 136.353 46.864L139.902 49.7726C139.969 49.8297 140.051 49.855 140.133 49.855V49.8582Z" fill="#4D1111"/>
<path d="M107.357 56.5096C108.307 56.5096 109.26 56.221 110.206 55.6469C112.423 54.2988 113.885 51.3014 114.322 47.2066C114.958 41.2594 113.284 35.0933 110.251 32.2133C108.709 30.7479 106.075 29.4316 102.279 31.4743C102.102 31.5694 102.035 31.7914 102.13 31.9722C102.225 32.1499 102.447 32.2165 102.627 32.1213C105.366 30.6496 107.759 30.8589 109.747 32.7462C112.581 35.4359 114.199 41.4846 113.594 47.1305C113.186 50.9367 111.815 53.8135 109.827 55.022C108.605 55.7642 107.382 55.9577 106.192 55.6056C103.428 54.7841 101.383 51.2697 100.408 49.2493C100.319 49.0653 100.101 48.9892 99.9174 49.078C99.7338 49.1668 99.6578 49.3856 99.7465 49.5696C100.772 51.7011 102.944 55.409 105.98 56.3098C106.436 56.4462 106.895 56.5128 107.354 56.5128L107.357 56.5096Z" fill="#4D1111"/>
<path d="M100.079 49.763C100.133 49.763 100.187 49.7503 100.237 49.7281C100.421 49.6393 100.497 49.4204 100.408 49.2397C100.035 48.4594 99.8321 47.9265 99.829 47.9202C99.7562 47.7299 99.5472 47.6347 99.3573 47.7077C99.1673 47.7806 99.0723 47.9899 99.1451 48.1803C99.1546 48.2025 99.3604 48.748 99.7498 49.5568C99.8131 49.6869 99.9429 49.7662 100.079 49.7662V49.763Z" fill="#4D1111"/>
<path d="M96.2801 58.7742C96.6125 58.7742 96.9481 58.7203 97.2837 58.6124C101.194 57.3659 100.532 50.1817 100.443 49.3665C100.443 49.3507 100.437 49.3348 100.434 49.3158C100.399 49.1508 100.25 49.0271 100.076 49.0271C99.8734 49.0271 99.7087 49.1921 99.7087 49.3951C99.7087 49.4141 99.7087 49.4395 99.7151 49.4617C99.7657 49.9374 100.427 56.8394 97.0589 57.9115C96.182 58.1906 95.3399 58.0066 94.5611 57.3596C92.1613 55.3708 90.8855 49.5854 91.3446 45.7443C91.5092 44.3582 91.8828 43.3115 92.4241 42.7088C92.5602 42.5566 92.5476 42.325 92.3956 42.1886C92.2468 42.0522 92.0126 42.0649 91.8796 42.2172C91.2369 42.9308 90.8032 44.1203 90.6164 45.6555C90.132 49.6932 91.4395 55.7261 94.0925 57.9241C94.77 58.4856 95.5108 58.771 96.277 58.771L96.2801 58.7742Z" fill="#4D1111"/>
</g>
<defs>
<clipPath id="clip0_1183_5373">
<rect width="170" height="124" fill="white" transform="matrix(-1 0 0 1 170 0)"/>
</clipPath>
</defs>
</svg>
