<svg width="141" height="140" viewBox="0 0 141 140" fill="none" xmlns="http://www.w3.org/2000/svg">
<g clip-path="url(#clip0_1183_5137)">
<path d="M30.8345 49.9893L21.2549 52.8545V69.223L26.3675 69.3963L34.0422 67.2618L30.8345 49.9893Z" fill="white"/>
<path d="M140.666 16.5967V96.0013L93.8486 79.7397V41.7401C95.8343 39.3774 97.3877 37.4479 97.3877 37.4479C97.3877 37.4479 95.9236 37.0436 93.8486 36.4977V0.335083L140.666 16.5967ZM134.36 48.8051V37.9014L126.792 35.273V42.1647L125.867 40.3508L123.717 41.3906L127.689 49.1863L129.115 46.9854L134.363 48.8079L134.36 48.8051ZM134.357 82.7494V71.8486L126.789 69.2202V80.1209L134.357 82.7494ZM134.357 65.7743V54.8736L126.789 52.2451V63.1459L134.357 65.7743ZM134.357 31.83V20.9293L126.789 18.3008V29.2016L134.357 31.83ZM121.046 27.2057V16.3021L113.478 13.6736V21.9229L113.132 22.4543L111.483 19.2193L109.333 20.2563L113.305 28.0549L115.178 25.1665L121.049 27.2028L121.046 27.2057ZM121.043 78.1251V67.2243L113.475 64.5959V75.4966L121.043 78.1251ZM121.043 61.1529V50.2521L113.475 47.6237V58.5245L121.043 61.1529ZM121.043 44.1808V33.28L113.475 30.6487V41.5494L121.043 44.1808ZM107.728 73.5007V62.5971L100.16 59.9687V66.3029L99.2321 67.7326L97.5865 64.4977L95.4366 65.5375L99.4079 73.3361L100.846 71.1121L107.725 73.5007H107.728ZM107.728 56.5257V45.625L100.16 42.9965V53.8973L107.728 56.5257ZM107.728 39.5536V28.6528L100.16 26.0244V36.9251L107.728 39.5536ZM107.728 22.5814V11.6807L100.16 9.05223V19.953L107.728 22.5814Z" fill="#FFCB00"/>
<path d="M134.36 37.9014V48.805L129.112 46.9825L133.164 40.7233L130.907 38.3404L127.512 43.5857L126.789 42.1646V35.2729L134.36 37.9014Z" fill="white"/>
<path d="M134.357 71.8514V82.7493L126.789 80.1238V69.223L134.357 71.8514Z" fill="white"/>
<path d="M134.357 54.8764V65.7743L126.789 63.1488V52.248L134.357 54.8764Z" fill="white"/>
<path d="M134.357 20.9292V31.83L126.789 29.2015V18.3008L134.357 20.9292Z" fill="white"/>
<path d="M130.907 38.3404L133.164 40.7233L129.112 46.9824L127.685 49.1834L123.714 41.3876L125.864 40.3507L126.789 42.1646L127.512 43.5857L130.907 38.3404Z" fill="#FF5635"/>
<path d="M121.046 16.3049V27.2057L115.175 25.1694L118.783 19.5977L116.527 17.2148L113.478 21.9257V13.6765L121.046 16.3049Z" fill="white"/>
<path d="M121.043 67.2243V78.125L113.478 75.4966V64.5958L121.043 67.2243Z" fill="white"/>
<path d="M121.043 50.2521V61.1528L113.478 58.5244V47.6237L121.043 50.2521Z" fill="white"/>
<path d="M121.043 33.2799V44.1807L113.478 41.5494V30.6486L121.043 33.2799Z" fill="white"/>
<path d="M116.526 17.2148L118.783 19.5977L115.175 25.1694L113.301 28.0578L109.333 20.262L111.483 19.2251L113.131 22.4601L113.477 21.9286V21.9257L116.526 17.2148Z" fill="#FF5635"/>
<path d="M107.727 62.6V73.5007L100.848 71.1121L104.886 64.876L102.629 62.4931L100.162 66.3029V59.9716L107.727 62.6Z" fill="white"/>
<path d="M107.727 45.6249V56.5257L100.162 53.8973V42.9994L107.727 45.6249Z" fill="white"/>
<path d="M107.727 28.6528V39.5535L100.162 36.9251V26.0244L107.727 28.6528Z" fill="white"/>
<path d="M107.727 11.6806V22.5814L100.162 19.9529V9.05219L107.727 11.6806Z" fill="white"/>
<path d="M102.63 62.4931L104.887 64.876L100.849 71.112L99.4079 73.3361L95.4395 65.5403L97.5894 64.5005L99.235 67.7355L100.163 66.3029L102.63 62.4931Z" fill="#FF5635"/>
<path d="M93.8514 36.5005C95.9264 37.0435 97.3904 37.4508 97.3904 37.4508C97.3904 37.4508 95.8371 39.3802 93.8514 41.7429C92.9292 42.8376 91.9176 44.0248 90.9176 45.157C90.0299 43.8948 89.1999 42.2109 88.5832 40.2843C87.9635 38.3578 87.6609 36.5063 87.6494 34.9581C89.8022 35.4578 92.0559 36.0297 93.8514 36.5005Z" fill="#4D1111"/>
<path d="M90.4592 60.3903V60.4048C90.4534 60.942 89.8424 61.4561 88.7674 61.9096C88.2256 62.1378 87.5714 62.3515 86.8135 62.5451C87.0873 60.9333 87.3207 59.5614 87.5224 58.5129C89.3496 59.0241 90.4447 59.6711 90.4534 60.3932L90.4592 60.3903Z" fill="#4D1111"/>
<path d="M85.6458 50.3186C84.6083 50.6161 83.3085 49.6889 82.1125 47.9905C81.222 46.7283 80.392 45.0415 79.7781 43.1149C78.3256 38.5859 78.5994 34.4411 80.3833 33.8259L80.4121 33.8172C81.1758 33.5746 84.2913 34.1754 87.6516 34.9552C87.6632 36.5034 87.9686 38.3577 88.5854 40.2843C89.2021 42.2109 90.0321 43.8948 90.9198 45.157C90.4471 45.7 89.9716 46.2286 89.5162 46.7283C87.7899 48.6288 86.2942 50.1135 85.6919 50.307C85.6775 50.3128 85.6631 50.3157 85.6487 50.3186H85.6458Z" fill="white"/>
<path d="M89.5137 46.7283C89.6837 49.2325 88.6664 52.9672 87.6462 57.9035C87.6087 58.0912 87.5684 58.2934 87.5252 58.51C87.3234 59.5585 87.09 60.9305 86.8162 62.5422C84.7066 63.0881 81.8217 63.4838 78.568 63.6311C78.8994 62.883 79.3029 62.0714 79.8015 61.2049C82.646 56.2513 78.7842 54.4836 76.6717 56.7596L76.6602 56.7481C77.0579 55.792 77.3864 54.8909 77.5593 54.0186C77.6314 53.6546 77.6227 53.282 77.5305 52.9297L85.6432 50.3157C85.6576 50.3157 85.6721 50.3099 85.6865 50.3041C86.2888 50.1106 87.7845 48.6231 89.5108 46.7254L89.5137 46.7283Z" fill="#EFBC83"/>
<path d="M90.4586 60.4019C90.398 62.6 89.9571 65.6299 89.228 69.0931L89.1934 69.0873C83.4756 70.9474 76.9883 70.4015 76.9883 70.4015C77.0891 69.6447 77.0517 68.8793 77.1756 68.1283C77.2938 67.412 77.5013 66.456 77.9076 65.292C78.0863 64.7778 78.3025 64.2261 78.5618 63.634C81.8184 63.4838 84.7004 63.091 86.81 62.5451C87.5651 62.3516 88.2222 62.1378 88.764 61.9097C89.8389 61.4562 90.4499 60.942 90.4557 60.4048L90.4586 60.4019Z" fill="white"/>
<path d="M89.1965 69.0873L89.2311 69.0931C86.3319 82.8707 78.8301 103.514 72.2218 105.908C71.4955 98.26 69.9594 91.2614 69.9277 91.1141C73.7146 84.0491 76.1585 76.7819 76.9972 70.4015C76.9972 70.4015 83.4816 70.9474 89.2023 69.0873H89.1965Z" fill="#84D2E6"/>
<path d="M85.6464 50.3185L77.5337 52.9325C77.4386 52.5483 77.2455 52.1931 76.963 51.9071C76.2771 51.2139 75.2022 50.9569 73.9053 52.0053C74.0263 51.6298 74.1272 51.2572 74.2021 50.8875C74.2252 50.7662 74.2396 50.6449 74.2453 50.5236L82.1131 47.9905C83.3091 49.6888 84.6118 50.616 85.6464 50.3185Z" fill="#E77725"/>
<path d="M82.1104 47.9905L74.2426 50.5236C74.2743 49.8795 74.0524 49.2354 73.5971 48.7704C72.574 47.7334 70.6777 47.6786 68.4758 51.4768C68.5969 51.032 68.6949 50.5929 68.7554 50.1683C68.8649 49.4029 68.6142 48.6086 68.0407 48.0887C66.9542 47.1038 65.0434 47.1558 63.0347 51.1533C62.3949 52.4213 61.8848 53.5969 61.4755 54.6453L61.4525 54.6367L29.6385 64.876C28.7509 63.6167 27.918 61.927 27.3041 60.0004C25.8458 55.4483 26.1283 51.2833 27.9324 50.7056L47.3799 44.4465L59.4409 40.5645L80.3841 33.8259C78.6002 34.4411 78.3264 38.5859 79.7789 43.1149C80.3956 45.0415 81.2256 46.7283 82.1133 47.9905H82.1104Z" fill="#FF5635"/>
<path d="M76.6721 56.7596C78.7845 54.4836 82.6464 56.2513 79.8019 61.2048C79.3033 62.0714 78.8998 62.883 78.5684 63.6311C78.309 64.2232 78.0929 64.7778 77.9142 65.289C77.5107 66.453 77.3003 67.4091 77.1822 68.1254C77.0582 68.8764 77.0957 69.6447 76.9948 70.3986C76.1562 76.779 73.7123 84.0491 69.9254 91.1083C69.5017 91.9055 69.055 92.7027 68.5939 93.4912C67.9858 94.5368 67.3431 95.5766 66.6774 96.602C64.4439 95.3196 61.0662 92.0672 57.7837 87.8589C54.6395 83.8238 52.3598 79.9216 51.5615 77.4145C52.3858 76.6288 53.1063 75.875 53.6999 75.1789C54.3945 74.3528 54.9075 73.6018 55.1755 72.9548C57.6194 67.0596 56.6338 59.6538 56.6338 59.6538L60.2333 58.4955C60.4697 57.5539 60.8587 56.2426 61.4812 54.6424C61.8905 53.5911 62.4035 52.4184 63.0404 51.1504C65.0491 47.15 66.9627 47.1009 68.0463 48.0858C68.6199 48.6057 68.8706 49.4 68.7611 50.1654C68.7006 50.59 68.6026 51.0291 68.4815 51.4739C70.6862 47.6757 72.5797 47.7305 73.6028 48.7675C74.0581 49.2325 74.28 49.8766 74.2483 50.5207C74.2426 50.642 74.2282 50.7633 74.2051 50.8846C74.1331 51.2515 74.0322 51.6241 73.9083 52.0025C75.2051 50.954 76.2801 51.211 76.966 51.9042C77.2484 52.1902 77.4387 52.5455 77.5366 52.9296C77.6289 53.282 77.6375 53.6546 77.5655 54.0185C77.3954 54.8937 77.064 55.792 76.6663 56.7481L76.6778 56.7596H76.6721Z" fill="#EFBC83"/>
<path d="M31.6553 126.653C24.6175 126.474 20.4185 125.705 20.4185 125.705L20.3061 127.655C11.9109 126.702 13.7525 115.206 13.7871 115.013C19.6605 121.113 27.4793 124.359 37.2866 121.07C46.5175 117.973 54.6821 111.847 62.0052 104.522C64.3915 102.133 66.6884 99.6146 68.9046 97.0353C69.4753 96.5876 69.3225 95.2965 68.5934 93.4999C69.0545 92.7114 69.4983 91.9142 69.9248 91.1199C69.9594 91.2672 71.4955 98.2657 72.2189 105.914C73.1065 115.238 72.7866 125.532 67.0573 125.532V122.384C65.8526 122.71 64.6566 123.011 63.475 123.288C60.9447 123.889 58.4748 124.394 56.0857 124.81C48.5119 130.728 37.5143 128.501 31.6553 126.659V126.653Z" fill="#84D2E6"/>
<path d="M68.5903 93.4941C69.3195 95.2907 69.4722 96.5818 68.9016 97.0295C68.4751 97.3646 67.694 97.1913 66.6738 96.6049C67.3424 95.5767 67.9822 94.5397 68.5903 93.4941Z" fill="#4D1111"/>
<path d="M66.6746 96.6078C67.6948 97.1912 68.4758 97.3645 68.9024 97.0324C66.6861 99.6146 64.3892 102.13 62.003 104.519C60.0259 103.263 58.242 101.896 56.6454 100.47C56.9826 100.172 57.3169 99.8197 57.631 99.4297C59.0662 97.6447 59.5533 95.6546 58.7204 94.9816C57.8875 94.3115 56.0546 95.2156 54.6222 96.9977C54.383 97.2923 54.1755 97.5927 53.9911 97.8902C46.743 90.2273 44.1953 82.0445 44.1953 82.0445C48.0485 78.486 50.8065 75.641 51.4492 74.9709C51.1322 75.4041 51.1898 76.262 51.5587 77.4116C52.3599 79.9187 54.6367 83.8238 57.7809 87.856C61.0634 92.0644 64.4411 95.3167 66.6746 96.5991V96.6078Z" fill="white"/>
<path d="M67.0548 127.655L68.4238 139.665H17.6724C17.6004 133.533 20.1336 130.722 20.1336 130.722C20.1336 130.722 34.8057 134.414 56.2187 130.298C56.4579 130.841 56.8671 131.358 57.4175 131.765C58.8067 132.788 60.5877 132.727 61.3918 131.632C61.8961 130.945 61.899 130.009 61.484 129.157C62.1411 128.995 62.8039 128.831 63.4726 128.654C64.6484 128.348 65.8444 128.016 67.0519 127.658L67.0548 127.655Z" fill="#1C1B62"/>
<path d="M67.055 127.652C65.8474 128.013 64.6514 128.345 63.4756 128.652V128.64V123.282C64.6572 123.005 65.8503 122.701 67.0579 122.378V127.655L67.055 127.652Z" fill="#4295AA"/>
<path d="M63.4757 128.64V128.652C62.807 128.828 62.1471 128.995 61.49 129.154C61.245 128.649 60.856 128.169 60.3372 127.788C58.9481 126.765 57.1642 126.823 56.3601 127.921C55.8759 128.582 55.8558 129.472 56.2218 130.298C34.8088 134.414 20.1367 130.722 20.1367 130.722L20.3096 127.652L20.422 125.702C20.422 125.702 24.6211 126.471 31.6588 126.653C37.5178 128.493 48.5154 130.72 56.0892 124.801C58.4783 124.385 60.9482 123.88 63.4785 123.279V128.637L63.4757 128.64Z" fill="#4295AA"/>
<path d="M44.1922 82.0504C44.1922 82.0504 46.7398 90.2332 53.988 97.896C53.06 99.4095 52.8352 100.888 53.5297 101.449C54.1782 101.972 55.4405 101.535 56.6422 100.47C58.2388 101.894 60.0228 103.263 61.9998 104.516C54.6767 111.844 46.5121 117.97 37.2812 121.067C27.4739 124.357 19.658 121.11 13.7817 115.01C3.43257 104.25 -0.87596 84.6268 0.628424 76.3342C2.89653 63.8304 13.5713 60.321 13.5713 60.321L13.6664 60.3095C13.8019 61.4966 14.0785 62.7935 14.5051 64.1222C15.9605 68.6743 18.6119 71.8919 20.416 71.3142L29.0186 68.5443L33.1975 67.2012L33.2119 67.1954L56.6278 59.6596C56.6278 59.6596 57.6163 67.0683 55.1696 72.9635C54.9015 73.6105 54.3857 74.3644 53.694 75.1876C52.7343 74.6561 51.9965 74.5117 51.5844 74.8323C51.5844 74.8323 51.5844 74.8323 51.5786 74.8381C51.5268 74.8785 51.4835 74.9247 51.4461 74.9796C50.8034 75.6497 48.0453 78.4948 44.1922 82.0532V82.0504Z" fill="#84D2E6"/>
<path d="M61.4865 129.154C61.9015 130.009 61.8986 130.942 61.3943 131.629C60.5902 132.727 58.8092 132.788 57.4201 131.762C56.8696 131.358 56.4604 130.838 56.2212 130.295C55.8552 129.469 55.8753 128.582 56.3595 127.918C57.1636 126.82 58.9475 126.76 60.3366 127.785C60.8554 128.166 61.2444 128.646 61.4894 129.151L61.4865 129.154Z" fill="#4D1111"/>
<path d="M61.4546 54.6396L61.4776 54.6483C60.8551 56.2455 60.466 57.5597 60.2297 58.5014L56.6302 59.6596L33.2142 67.1954L33.1998 67.2012C32.1623 67.5247 30.8452 66.5946 29.6377 64.8818L61.4517 54.6425L61.4546 54.6396Z" fill="#EA3F28"/>
<path d="M51.5868 74.8294C51.9989 74.5117 52.7338 74.6561 53.6964 75.1846C53.1027 75.8836 52.3793 76.6346 51.558 77.4174C51.1891 76.2678 51.1314 75.4099 51.4485 74.9767C51.5205 74.9016 51.5666 74.8525 51.581 74.8351C51.5868 74.8294 51.5868 74.8294 51.5868 74.8294Z" fill="#4D1111"/>
<path d="M26.9468 47.8547C23.8343 47.7796 21.7679 45.1801 21.3097 42.0635C20.8169 38.7072 23.7046 35.4174 27.6299 36.6045C32.4975 32.3008 28.6068 26.0677 28.6068 26.0677C30.2611 25.3802 32.607 24.014 32.7425 21.7813C32.777 21.2094 32.6502 20.6577 32.4053 20.1696C33.6993 19.7161 35.3189 18.8814 37.2988 17.5036C37.466 17.7029 37.6303 17.908 37.7859 18.1333C38.6476 19.3233 39.3537 20.3747 39.9906 21.2845C42.0627 24.2422 43.4288 25.7644 47.0802 25.9637C50.8124 26.3969 47.7748 29.5337 48.1206 34.4064C48.3685 37.884 50.0659 41.405 47.3799 44.4465L27.9325 50.7056L26.6039 51.1331C26.7739 50.5265 26.8719 49.9864 26.9267 49.5271C27.0506 48.4786 26.9468 47.8547 26.9468 47.8547Z" fill="#EFBC83"/>
<path d="M40.4227 27.2721C41.0222 28.1848 41.051 29.2275 40.4832 29.603C39.9155 29.9785 38.9702 29.5424 38.3679 28.6297C37.7684 27.7169 37.7425 26.6742 38.3073 26.3016C38.8751 25.9261 39.8204 26.3623 40.4198 27.2721H40.4227Z" fill="#4D1111"/>
<path d="M28.6065 26.0677C28.6065 26.0677 32.4972 32.3037 27.6295 36.6045C23.7072 35.4174 20.8166 38.7073 21.3094 42.0636C21.7647 45.1801 23.834 47.7797 26.9465 47.8548C26.9465 47.8548 27.0503 48.4787 26.9263 49.5271C21.2575 50.8442 12.9748 49.6398 11.6779 42.1069C11.2571 39.6575 11.7499 37.988 12.6174 36.9193C14.9172 38.5802 18.0009 38.4213 17.8683 36.359C17.7847 35.0592 14.4042 34.7039 12.6174 36.9193C11.113 35.8304 9.94293 33.9616 10.2369 31.3361C10.5626 28.4419 12.1909 27.0497 13.5944 26.3796C13.5828 26.1514 13.1621 17.2783 16.4302 14.5719C17.0297 14.0751 17.5945 13.9018 18.0989 13.9538C17.2026 17.0097 17.949 20.0685 19.4534 19.6237C21.4564 19.0316 20.3727 14.1906 18.0989 13.9538C18.658 12.0475 19.854 10.1411 21.9002 9.08975C27.2289 6.34868 29.5201 10.9643 29.5201 10.9643C29.5201 10.9643 33.7249 5.8461 37.9585 8.22035C41.5696 10.2422 43.1287 16.8306 39.9903 21.2845C39.3533 20.3718 38.6473 19.3233 37.7856 18.1333C37.6299 17.9109 37.4657 17.7029 37.2985 17.5065C35.3186 18.8814 33.6989 19.7161 32.4049 20.1696C32.0332 19.4331 31.3847 18.8352 30.5922 18.4943C27.2376 17.0588 26.7938 22.1453 32.4049 20.1696C32.6528 20.6577 32.7796 21.2094 32.7421 21.7813C32.6067 24.014 30.2608 25.3802 28.6065 26.0677Z" fill="#844317"/>
<path d="M30.5918 18.4944C31.3843 18.8323 32.0328 19.4331 32.4045 20.1696C26.7934 22.1482 27.2372 17.0588 30.5918 18.4944Z" fill="#844317"/>
<path d="M29.0215 68.5414L20.4189 71.3113C18.6119 71.8919 15.9634 68.6742 14.508 64.1221C14.0814 62.7906 13.8048 61.4937 13.6693 60.3095C13.3436 57.4442 13.8595 55.2375 15.1391 54.8244L23.7792 52.0429C21.9809 52.635 21.6985 56.7943 23.1567 61.3377C24.6035 65.8494 27.2174 69.0497 29.0215 68.5414Z" fill="#FFBA00"/>
<path d="M18.099 13.9538C20.3728 14.1906 21.4565 19.0316 19.4535 19.6237C17.9491 20.0685 17.2027 17.0097 18.099 13.9538Z" fill="#844317"/>
<path d="M17.8681 36.3561C18.0007 38.4213 14.917 38.5773 12.6172 36.9165C14.404 34.6982 17.7845 35.0563 17.8681 36.3561Z" fill="#844317"/>
<path d="M34.0419 53.1579C33.5635 53.1579 33.1225 52.8459 32.9756 52.3635C32.7998 51.7743 33.1341 51.1533 33.722 50.9771L59.9277 43.1149C60.5156 42.9388 61.1352 43.2738 61.311 43.863C61.4868 44.4523 61.1525 45.0733 60.5646 45.2495L34.3589 53.1116C34.2523 53.1434 34.1456 53.1579 34.039 53.1579H34.0419Z" fill="white"/>
<path d="M1.73177 50.6507C1.64531 50.6507 1.56173 50.6189 1.49545 50.5525L0.123633 49.1776C-0.00605489 49.0476 -0.00605489 48.8339 0.123633 48.7039C0.253322 48.574 0.463705 48.574 0.596275 48.7039L1.96809 50.0788C2.09778 50.2088 2.09778 50.4196 1.96809 50.5525C1.9018 50.6189 1.81823 50.6507 1.73177 50.6507Z" fill="#4D1111"/>
<path d="M5.06575 53.9926C4.97929 53.9926 4.89572 53.9608 4.82943 53.8944L3.45762 52.5195C3.32793 52.3895 3.32793 52.1787 3.45762 52.0458C3.58731 51.9158 3.79769 51.9158 3.93026 52.0458L5.30207 53.4207C5.43176 53.5506 5.43176 53.7615 5.30207 53.8944C5.23579 53.9608 5.15221 53.9926 5.06575 53.9926Z" fill="#4D1111"/>
<path d="M3.69394 50.6507C3.60748 50.6507 3.5239 50.6189 3.45762 50.5525C3.32793 50.4225 3.32793 50.2088 3.45762 50.0788L4.82943 48.7039C4.95912 48.574 5.1695 48.574 5.30207 48.7039C5.43176 48.8339 5.43176 49.0476 5.30207 49.1776L3.93026 50.5525C3.86397 50.6189 3.7804 50.6507 3.69394 50.6507Z" fill="#4D1111"/>
<path d="M0.359954 53.9926C0.273495 53.9926 0.189919 53.9608 0.123633 53.8944C-0.00605489 53.7644 -0.00605489 53.5506 0.123633 53.4207L1.49545 52.0458C1.62514 51.9158 1.83552 51.9158 1.96809 52.0458C2.09778 52.1758 2.09778 52.3895 1.96809 52.5195L0.596275 53.8944C0.52999 53.9608 0.446413 53.9926 0.359954 53.9926Z" fill="#4D1111"/>
<path d="M26.6035 51.4681C26.5747 51.4681 26.543 51.4652 26.5113 51.4566C26.3355 51.4075 26.2317 51.2226 26.2807 51.0435C26.4277 50.5179 26.5343 49.9951 26.5919 49.4896C26.7072 48.5104 26.615 47.9183 26.615 47.9096C26.5862 47.7277 26.7072 47.5544 26.8888 47.5255C27.0704 47.4966 27.2404 47.6179 27.2721 47.7999C27.2779 47.8259 27.3816 48.4844 27.2548 49.5676C27.1914 50.1106 27.079 50.6681 26.9234 51.2255C26.883 51.3728 26.7476 51.4681 26.6035 51.4681Z" fill="#4D1111"/>
<path d="M47.3763 44.7815C47.2985 44.7815 47.2178 44.7526 47.1544 44.6978C47.0161 44.5764 47.0046 44.3627 47.1256 44.2269C49.0277 42.0693 48.6041 39.6489 48.1574 37.0869C48.0046 36.2203 47.849 35.3221 47.7856 34.4324C47.6501 32.5348 48.0133 30.9028 48.3043 29.5915C48.5781 28.361 48.7943 27.3906 48.4283 26.8764C48.2121 26.5703 47.7568 26.3825 47.0363 26.2959C43.3387 26.0966 41.9006 24.6004 39.7132 21.478C39.523 21.2036 39.3241 20.9177 39.1166 20.6173C38.644 19.9327 38.1108 19.1587 37.5114 18.3297C37.3731 18.1333 37.2203 17.934 37.0416 17.7231C36.9898 17.6625 36.9609 17.5845 36.9609 17.5065C36.9609 17.3216 37.1108 17.1714 37.2952 17.1714C37.4076 17.1714 37.5056 17.2263 37.5662 17.3101C37.7506 17.5296 37.912 17.7347 38.0561 17.9398C38.6584 18.7716 39.1945 19.5486 39.6671 20.236C39.8717 20.5335 40.0706 20.8195 40.2608 21.0939C42.3675 24.1036 43.6529 25.4438 47.0939 25.6315C48.045 25.7413 48.6358 26.0128 48.973 26.4894C49.509 27.2461 49.264 28.3466 48.9557 29.7359C48.6732 31.0039 48.3216 32.5839 48.4513 34.3833C48.5118 35.2412 48.6675 36.1193 48.8145 36.9713C49.2698 39.5766 49.7424 42.2715 47.6271 44.6689C47.5608 44.744 47.4686 44.7815 47.3763 44.7815Z" fill="#4D1111"/>
<path d="M27.0844 48.1927C27.0325 48.1927 26.9806 48.1927 26.9288 48.1927C23.8941 48.1176 21.4991 45.6769 20.9775 42.1155C20.7095 40.2843 21.3896 38.4155 22.7557 37.2313C24.0871 36.0788 25.897 35.7351 27.7213 36.2868C28.2026 36.4341 28.6868 36.6391 29.168 36.902C29.3294 36.9915 29.39 37.1937 29.3006 37.3555C29.2113 37.5172 29.0095 37.5779 28.8481 37.4883C28.4072 37.2486 27.9634 37.058 27.5282 36.9251C25.9028 36.4341 24.3638 36.7229 23.1909 37.7367C21.9948 38.7708 21.4012 40.4114 21.6375 42.0173C22.0294 44.7035 23.8249 47.4475 26.9518 47.5226C27.0008 47.5226 27.0412 47.5226 27.0844 47.5226C27.6291 47.5226 28.1594 47.4417 28.6637 47.2857C28.8395 47.2309 29.0268 47.3291 29.0816 47.5052C29.1363 47.6814 29.0384 47.8692 28.8626 47.9241C28.2948 48.1003 27.6954 48.1898 27.0844 48.1898V48.1927Z" fill="#4D1111"/>
<path d="M29.5197 41.5321H24.4964C24.312 41.5321 24.1621 41.3819 24.1621 41.1971C24.1621 41.0122 24.312 40.862 24.4964 40.862H29.5197C29.7041 40.862 29.854 41.0122 29.854 41.1971C29.854 41.3819 29.7041 41.5321 29.5197 41.5321Z" fill="#4D1111"/>
<path d="M25.4136 43.8803C25.3963 43.8803 25.3761 43.8803 25.3588 43.8746C25.1773 43.8457 25.0533 43.6724 25.085 43.4904L25.4712 41.1422C25.5 40.9602 25.673 40.836 25.8545 40.8678C26.0361 40.8966 26.16 41.0699 26.1283 41.2519L25.7421 43.6002C25.7162 43.7648 25.575 43.8803 25.4136 43.8803Z" fill="#4D1111"/>
<path d="M42.1254 40.0503C42.1254 40.0503 42.1024 40.0503 42.088 40.0503C41.9064 40.0301 41.7738 39.8655 41.794 39.6835C41.8055 39.568 42.1226 36.8615 44.4627 36.4543C44.6443 36.4225 44.8172 36.5438 44.8489 36.7258C44.8806 36.9077 44.7596 37.0811 44.578 37.1128C42.7364 37.4334 42.4684 39.6604 42.4569 39.7557C42.4367 39.9261 42.2926 40.0532 42.1254 40.0532V40.0503Z" fill="#4D1111"/>
<path d="M35.6127 27.8643C35.4283 27.8643 35.2813 27.7169 35.2784 27.5321C35.2583 23.3179 37.7685 22.6218 37.8751 22.5958C38.0538 22.5496 38.2353 22.6565 38.2814 22.8356C38.3276 23.0147 38.2209 23.1966 38.0422 23.2428C37.95 23.2688 35.9269 23.8696 35.9442 27.5292C35.9442 27.7141 35.7972 27.8643 35.6127 27.8643Z" fill="#4D1111"/>
<path d="M27.6291 36.9395C27.5369 36.9395 27.4447 36.902 27.3784 36.8269C27.2573 36.6883 27.2689 36.4774 27.4072 36.3561C32.0097 32.2892 28.3582 26.3074 28.3208 26.2467C28.2228 26.0908 28.2718 25.8828 28.4274 25.7846C28.583 25.6864 28.7905 25.7355 28.8885 25.8915C28.9289 25.955 32.8714 32.4192 27.851 36.8558C27.7876 36.9107 27.7098 36.9395 27.6291 36.9395Z" fill="#4D1111"/>
<path d="M32.405 20.5047C32.2667 20.5047 32.137 20.418 32.0909 20.2794C32.0303 20.1061 32.1226 19.9154 32.2955 19.8519C33.6903 19.3609 35.31 18.4799 37.1083 17.2263C37.7712 16.7671 38.4715 16.2443 39.192 15.6782C39.3361 15.5626 39.5465 15.5886 39.6618 15.733C39.777 15.8775 39.7511 16.0883 39.607 16.2039C38.8779 16.7786 38.166 17.3072 37.4917 17.7751C35.6443 19.0605 33.9699 19.9732 32.5174 20.4816C32.4799 20.4931 32.4425 20.5018 32.4079 20.5018L32.405 20.5047Z" fill="#4D1111"/>
<path d="M30.0989 20.9668C28.7674 20.9668 28.2112 20.3776 28.0383 20.1292C27.6838 19.6266 27.7011 18.968 28.0844 18.4943C28.5023 17.9773 29.413 17.6249 30.7243 18.1882C31.5918 18.5608 32.295 19.2106 32.7042 20.0194C32.7474 20.106 32.7532 20.2071 32.7157 20.2938C32.6811 20.3833 32.6062 20.4527 32.5169 20.4844C31.5168 20.8368 30.7243 20.9668 30.1018 20.9668H30.0989ZM29.462 18.5694C29.047 18.5694 28.7588 18.7196 28.6003 18.916C28.4014 19.1615 28.3957 19.4793 28.5801 19.745C28.9432 20.2591 30.0009 20.5711 31.903 19.9818C31.5572 19.4706 31.0528 19.0576 30.4563 18.8034C30.0672 18.6387 29.7358 18.5694 29.4591 18.5694H29.462Z" fill="#4D1111"/>
<path d="M26.9865 26.9573C26.8366 26.9573 26.7012 26.8562 26.6637 26.7031C26.6205 26.524 26.73 26.3421 26.9087 26.2987C26.9145 26.2987 27.6004 26.1254 28.4794 25.7586C29.8915 25.1694 32.2836 23.8696 32.4104 21.7611C32.4421 21.2701 32.3354 20.7733 32.1078 20.3198C32.0242 20.1551 32.0905 19.953 32.2547 19.8692C32.419 19.7854 32.6207 19.8519 32.7043 20.0165C32.9868 20.574 33.1164 21.1921 33.079 21.7986C32.9378 24.144 30.638 25.5824 28.7359 26.3738C27.8079 26.7609 27.0989 26.9371 27.0701 26.9457C27.0441 26.9515 27.0153 26.9544 26.9894 26.9544L26.9865 26.9573Z" fill="#4D1111"/>
<path d="M39.9867 21.6196C39.9205 21.6196 39.8542 21.5993 39.7936 21.5589C39.6438 21.452 39.6063 21.2441 39.713 21.0939C41.2029 18.9796 41.7044 16.2067 41.0877 13.4859C40.5804 11.2445 39.3498 9.38726 37.7936 8.51785C33.8568 6.30824 29.8163 11.1347 29.7759 11.1838C29.7039 11.2705 29.5915 11.3167 29.4791 11.3023C29.3667 11.2907 29.2687 11.2214 29.2197 11.1203C29.2111 11.103 28.3321 9.38726 26.4732 8.77781C25.1648 8.35033 23.6777 8.55829 22.0523 9.39592C19.7294 10.5917 18.7784 12.8302 18.4181 14.0578C18.3663 14.234 18.1818 14.3379 18.0031 14.2831C17.8273 14.2311 17.7236 14.0462 17.7783 13.8671C18.4527 11.568 19.862 9.76852 21.7468 8.80091C23.5423 7.87663 25.2052 7.65711 26.6894 8.14525C28.237 8.65361 29.1679 9.79741 29.5742 10.4126C30.6549 9.27461 34.3756 5.83454 38.1192 7.9344C39.8628 8.91067 41.1828 10.8805 41.739 13.3386C42.3961 16.2443 41.8571 19.2135 40.2605 21.4809C40.1942 21.5733 40.0934 21.6225 39.9867 21.6225V21.6196Z" fill="#4D1111"/>
<path d="M19.1684 19.9992C18.8312 19.9992 18.5171 19.8634 18.2519 19.5977C17.3009 18.6474 17.0992 16.1807 17.7793 13.8585C17.8254 13.7025 17.9753 13.6043 18.1338 13.6216C19.618 13.7747 20.6641 15.6059 20.8198 17.2841C20.9466 18.6561 20.4595 19.6757 19.5488 19.9443C19.422 19.9818 19.2952 20.002 19.1713 20.002L19.1684 19.9992ZM18.3384 14.3437C17.7793 16.51 18.0877 18.4856 18.7246 19.124C18.9177 19.3175 19.1194 19.3724 19.3615 19.3002C20.0618 19.0951 20.2318 18.1535 20.1569 17.3447C20.0416 16.0796 19.3298 14.6585 18.3413 14.3437H18.3384Z" fill="#4D1111"/>
<path d="M13.5946 26.3854L13.2603 26.3796C13.2142 25.4467 12.9087 17.053 16.2172 14.3148C16.8541 13.7892 17.4967 13.5552 18.1337 13.6216C18.3181 13.6418 18.4507 13.8065 18.4305 13.9885C18.4103 14.1733 18.2461 14.3062 18.0645 14.286C17.6149 14.2369 17.1365 14.4217 16.6437 14.829C13.5341 17.4025 13.9116 25.9984 13.9289 26.3623L13.5946 26.3825V26.3854Z" fill="#4D1111"/>
<path d="M22.8251 50.3243C20.2429 50.3243 17.4791 49.7813 15.2542 48.3025C13.1187 46.8814 11.8045 44.8162 11.3491 42.1646C10.8563 39.2907 11.6258 37.6125 12.3607 36.7085C12.476 36.5641 12.6864 36.5438 12.8305 36.6594C12.9746 36.7749 12.9947 36.9858 12.8795 37.1302C11.9544 38.2711 11.6517 39.9724 12.0091 42.0491C12.4328 44.5129 13.6489 46.4279 15.626 47.7421C18.9662 49.9633 23.6148 49.9517 26.8541 49.2007C27.0328 49.1603 27.2143 49.2701 27.2547 49.452C27.295 49.6311 27.1855 49.8102 27.004 49.8535C25.7647 50.1424 24.3266 50.3243 22.828 50.3243H22.8251Z" fill="#4D1111"/>
<path d="M15.8393 38.3866C14.7586 38.3866 13.4963 37.9649 12.4213 37.1908C12.3464 37.1359 12.2974 37.0551 12.2859 36.9626C12.2744 36.8702 12.3003 36.7807 12.3579 36.7085C13.6346 35.1256 15.7269 34.7184 17.0469 35.1372C17.7443 35.3596 18.1651 35.7957 18.1997 36.3359C18.2487 37.0926 17.9259 37.7021 17.289 38.0545C16.8855 38.2798 16.384 38.3866 15.8365 38.3866H15.8393ZM13.1188 36.8558C14.577 37.7772 16.1852 37.9043 16.9662 37.4681C17.3754 37.2428 17.5656 36.876 17.5339 36.3792C17.5109 36.0239 17.044 35.8391 16.8451 35.7755C15.8134 35.4462 14.2139 35.7293 13.1188 36.8558Z" fill="#4D1111"/>
<path d="M12.6177 37.2544C12.5514 37.2544 12.4822 37.2342 12.4217 37.1909C11.3237 36.3965 9.53685 34.5769 9.90574 31.2986C10.2545 28.2166 12.0269 26.758 13.4506 26.0792C14.6466 25.5102 15.6812 25.4438 15.7244 25.4409C15.906 25.4294 16.0674 25.5709 16.076 25.7557C16.0876 25.9406 15.9463 26.0995 15.7619 26.111C15.7417 26.111 14.8022 26.1803 13.733 26.6858C12.462 27.2924 10.8798 28.5979 10.5657 31.3765C10.2343 34.3169 11.828 35.9431 12.8079 36.6507C12.9577 36.7576 12.9923 36.9684 12.8828 37.1186C12.8165 37.2082 12.7157 37.2573 12.6119 37.2573L12.6177 37.2544Z" fill="#4D1111"/>
<path d="M19.9891 71.7128C18.0409 71.7128 15.5913 68.6165 14.1878 64.2232C13.767 62.909 13.4788 61.6064 13.3347 60.3441C12.9773 57.1958 13.6287 54.9573 15.0351 54.5038C15.2109 54.4461 15.3982 54.5443 15.4558 54.7205C15.5135 54.8966 15.4155 55.0844 15.2397 55.1422C14.1878 55.4801 13.6892 57.5424 13.9975 60.269C14.1359 61.485 14.4154 62.7473 14.8218 64.0182C16.3377 68.758 18.8882 71.4529 20.3148 70.9936C20.4906 70.9358 20.6779 71.034 20.7356 71.2102C20.7903 71.3864 20.6952 71.5742 20.5194 71.6319C20.3494 71.6868 20.1707 71.7128 19.9891 71.7128Z" fill="#4D1111"/>
<path d="M32.7795 67.594C31.7305 67.594 30.5172 66.7043 29.3644 65.0724C28.4133 63.7235 27.592 62.0049 26.9839 60.1044C26.2663 57.863 25.9377 55.639 26.0588 53.8424C26.1885 51.9389 26.8167 50.7143 27.8283 50.3879C28.0041 50.333 28.1914 50.4283 28.2491 50.6045C28.3067 50.7807 28.2087 50.9684 28.0329 51.0262C27.3095 51.2573 26.8311 52.3029 26.7245 53.8886C26.6092 55.6043 26.9262 57.7388 27.6179 59.9022C28.1972 61.7132 29.0099 63.4116 29.9091 64.6883C31.0619 66.3231 32.255 67.1434 33.0994 66.8805C33.2752 66.8257 33.4625 66.9239 33.5173 67.1001C33.572 67.2763 33.4741 67.464 33.2983 67.5189C33.1311 67.5709 32.9582 67.5969 32.7795 67.5969V67.594Z" fill="#4D1111"/>
<path d="M85.2538 50.7085C84.2048 50.7085 82.9886 49.8189 81.8387 48.184C80.8906 46.8381 80.0663 45.1224 79.4582 43.2189C77.9308 38.4589 78.291 34.1956 80.2709 33.511C80.2796 33.5082 80.2882 33.5053 80.2969 33.5024C80.2997 33.5024 80.3055 33.5024 80.3084 33.4995C80.7666 33.3522 82.0347 33.3117 87.7237 34.6289C90.0062 35.1603 92.3608 35.764 93.9343 36.177C95.9892 36.7143 97.4618 37.1244 97.4762 37.1273C97.5858 37.1562 97.6693 37.24 97.7039 37.3468C97.7385 37.4537 97.7155 37.5721 97.6463 37.6588C97.6319 37.679 96.0698 39.6171 94.1043 41.9567C93.0294 43.2333 92.0409 44.3829 91.1647 45.3765C90.6892 45.9224 90.2137 46.451 89.7584 46.9536C87.0003 49.9893 86.1732 50.5034 85.7899 50.6276C85.7611 50.6363 85.738 50.6421 85.7207 50.6449C85.568 50.6883 85.4124 50.7085 85.2538 50.7085ZM80.4928 34.1436C80.4928 34.1436 80.4928 34.1436 80.49 34.1436C79.0807 34.6289 78.585 38.3087 80.0951 43.0138C80.6831 44.8537 81.4756 46.5088 82.3863 47.797C83.5275 49.4174 84.712 50.2406 85.5564 49.9951C85.5709 49.9922 85.5853 49.9864 85.6026 49.9864C85.8619 49.9026 86.6977 49.3336 89.2713 46.5001C89.7267 46.0033 90.1964 45.4747 90.6719 44.9346C91.5452 43.9439 92.5308 42.7972 93.6 41.5234C95.0352 39.8135 96.2572 38.3202 96.8134 37.6357C96.2168 37.471 95.1188 37.1764 93.77 36.8211C92.2023 36.411 89.8535 35.8073 87.5767 35.2787C82.2076 34.0367 80.8473 34.0281 80.513 34.1349C80.5072 34.1349 80.5015 34.1378 80.4957 34.1407L80.4928 34.1436Z" fill="#4D1111"/>
<path d="M90.9169 45.4892C90.8132 45.4892 90.7094 45.4401 90.6431 45.3477C89.695 43.9988 88.8736 42.2831 88.2655 40.3854C87.6545 38.4877 87.326 36.6103 87.3145 34.961C87.3145 34.7762 87.4614 34.626 87.6459 34.6231C87.8246 34.6144 87.9802 34.7704 87.9831 34.9552C87.9946 36.5381 88.3116 38.3462 88.9024 40.1803C89.4903 42.0145 90.28 43.6695 91.1907 44.9635C91.2973 45.1137 91.2599 45.3217 91.11 45.4285C91.0524 45.469 90.9832 45.4892 90.9169 45.4892Z" fill="#4D1111"/>
<path d="M20.4185 71.6463C20.2773 71.6463 20.1476 71.5568 20.1015 71.4153C20.0439 71.2391 20.1419 71.0513 20.3177 70.9936L60.1291 58.1836C60.302 58.1287 60.4951 58.2182 60.5556 58.3887C60.6161 58.5591 60.5354 58.7439 60.3683 58.8075L60.351 58.8133L20.5252 71.629C20.4906 71.6406 20.456 71.6463 20.4243 71.6463H20.4185Z" fill="#4D1111"/>
<path d="M77.5308 53.2647C77.3896 53.2647 77.2599 53.1751 77.2138 53.0336C77.1562 52.8574 77.2542 52.6697 77.43 52.6119L85.5946 49.9835C85.7704 49.9315 85.9577 50.0297 86.0096 50.2088C86.0614 50.385 85.9634 50.5727 85.7848 50.6247L85.7415 50.6391L77.6346 53.2502C77.6 53.2618 77.5654 53.2676 77.5337 53.2676L77.5308 53.2647Z" fill="#4D1111"/>
<path d="M15.1392 55.1595C14.998 55.1595 14.8683 55.0699 14.8222 54.9284C14.7646 54.7522 14.8626 54.5644 15.0384 54.5067L23.6785 51.7252C23.6785 51.7252 23.7015 51.7194 23.7073 51.7165L59.337 40.2496C59.5128 40.1918 59.7001 40.29 59.7578 40.4662C59.8154 40.6424 59.7174 40.8302 59.5416 40.8879L23.8917 52.3606C23.8917 52.3606 23.8687 52.3664 23.8629 52.3693L15.243 55.145C15.2084 55.1566 15.1738 55.1623 15.1421 55.1623L15.1392 55.1595Z" fill="#4D1111"/>
<path d="M59.4381 40.8995C59.2968 40.8995 59.1671 40.81 59.121 40.6685C59.0634 40.4923 59.1614 40.3045 59.3372 40.2467L64.1385 38.7015C64.3143 38.6466 64.5017 38.7419 64.5593 38.9181C64.6169 39.0943 64.5189 39.282 64.3431 39.3398L59.5418 40.8851C59.5072 40.8966 59.4726 40.9024 59.4409 40.9024L59.4381 40.8995Z" fill="#4D1111"/>
<path d="M69.2476 37.7425C69.1064 37.7425 68.9767 37.6529 68.9306 37.5114C68.873 37.3352 68.971 37.1475 69.1468 37.0897L80.3115 33.4995C80.4873 33.4446 80.6746 33.5457 80.7294 33.7219C80.7841 33.898 80.6833 34.0858 80.5075 34.1407L80.4786 34.1493L69.3514 37.7309C69.3168 37.7425 69.2822 37.7483 69.2505 37.7483L69.2476 37.7425Z" fill="#4D1111"/>
<path d="M51.5554 77.7524C51.466 77.7524 51.3796 77.7178 51.3133 77.6484C51.1865 77.5156 51.1922 77.3018 51.3248 77.1747C52.1462 76.3949 52.858 75.6526 53.4402 74.968C54.1405 74.1362 54.6189 73.417 54.8639 72.8306C57.2444 67.0885 56.3077 59.7751 56.2991 59.7029C56.276 59.5209 56.4028 59.3505 56.5844 59.3274C56.7688 59.3043 56.936 59.4314 56.9591 59.6134C56.9994 59.9195 57.9303 67.1752 55.4806 73.0877C55.2097 73.7376 54.6967 74.5145 53.9503 75.3984C53.3508 76.1032 52.6246 76.8628 51.7859 77.66C51.7225 77.7207 51.639 77.7524 51.5554 77.7524Z" fill="#4D1111"/>
<path d="M59.8897 60.4568C59.8753 60.4568 59.8609 60.4568 59.8465 60.4539C59.665 60.4308 59.5353 60.2633 59.5583 60.0784C59.5612 60.0553 59.639 59.4661 59.9042 58.4176C60.1145 57.5771 60.5036 56.2224 61.1636 54.5269C61.6189 53.3543 62.1492 52.17 62.7342 51.006C63.864 48.756 65.0744 47.4966 66.3309 47.2627C67.0226 47.1327 67.7085 47.3406 68.2618 47.8432C68.9045 48.4238 69.21 49.3134 69.0832 50.2175C69.0256 50.6305 68.9305 51.0724 68.795 51.5664C68.746 51.7454 68.5616 51.8494 68.3858 51.8003C68.2071 51.7512 68.1033 51.5664 68.1523 51.3902C68.282 50.9222 68.3685 50.5063 68.4232 50.1222C68.5212 49.4376 68.2935 48.7704 67.8151 48.3371C67.5356 48.083 67.0716 47.8028 66.452 47.9183C65.7372 48.0512 64.6133 48.7473 63.3279 51.3035C62.7515 52.4502 62.2299 53.6171 61.7803 54.7667C61.1319 56.4304 60.7514 57.7562 60.5468 58.5794C60.2932 59.5845 60.2154 60.1593 60.2154 60.1651C60.1924 60.3326 60.0511 60.4568 59.884 60.4568H59.8897Z" fill="#4D1111"/>
<path d="M65.2333 59.3188C65.1987 59.3188 65.1641 59.313 65.1295 59.3014C64.9537 59.2437 64.8586 59.0559 64.9162 58.8797C65.5705 56.8954 66.6598 53.9839 68.1412 51.3902L68.1786 51.3266C68.1786 51.3266 68.1844 51.3151 68.1873 51.3093C69.4265 49.1748 70.6917 48.0108 71.9454 47.849C72.6399 47.7595 73.3114 48.005 73.8359 48.5336C74.3431 49.0506 74.614 49.7813 74.5766 50.5381C74.5679 50.6912 74.5506 50.824 74.5247 50.9511C74.4527 51.3151 74.3489 51.705 74.2192 52.1036C74.1616 52.2798 73.9743 52.3751 73.7985 52.3173C73.6227 52.2596 73.5275 52.0718 73.5852 51.8956C73.7062 51.5201 73.8042 51.1562 73.8705 50.8154C73.8907 50.7201 73.9022 50.6161 73.908 50.5005C73.9368 49.9315 73.735 49.3856 73.3575 49.0015C73.0924 48.7328 72.6457 48.4296 72.026 48.5104C71.3142 48.6 70.1701 49.2181 68.7665 51.6328C68.7665 51.6328 68.7665 51.6357 68.7665 51.6386L68.7233 51.7137C67.265 54.2641 66.193 57.1294 65.5503 59.0848C65.5042 59.2264 65.3745 59.3159 65.2333 59.3159V59.3188Z" fill="#4D1111"/>
<path d="M68.5853 62.4757C68.5507 62.4757 68.5161 62.47 68.4816 62.4584C68.3058 62.4006 68.2107 62.21 68.2712 62.0367C69.2338 59.1252 70.3231 56.5979 71.5076 54.5298C72.2281 53.2705 72.963 52.3346 73.6979 51.7454C74.94 50.7402 76.2513 50.7142 77.2024 51.6732C77.5194 51.9938 77.7471 52.4011 77.8595 52.8545C77.9603 53.2474 77.9719 53.6748 77.8912 54.0879C77.6981 55.0699 77.3177 56.052 76.9718 56.8838C76.8998 57.0542 76.7067 57.1351 76.5366 57.0629C76.3666 56.9907 76.2859 56.7972 76.358 56.6268C76.6923 55.8267 77.0554 54.8851 77.237 53.9608C77.2975 53.646 77.2888 53.3225 77.211 53.0221C77.1274 52.6841 76.9603 52.3837 76.7269 52.1469C76.0208 51.4363 75.0928 51.4797 74.1158 52.2711C73.4472 52.8083 72.767 53.6835 72.0869 54.8677C70.9226 56.8983 69.8534 59.3823 68.9052 62.2533C68.8591 62.3949 68.7294 62.4815 68.5882 62.4815L68.5853 62.4757Z" fill="#4D1111"/>
<path d="M78.5685 63.9691C78.5223 63.9691 78.4762 63.9604 78.433 63.9402C78.2658 63.8651 78.188 63.6687 78.263 63.4983C78.6232 62.6809 79.044 61.8548 79.5137 61.0403C80.9374 58.562 80.5801 57.037 79.7674 56.4362C78.9777 55.8527 77.7529 56.0896 76.9171 56.9907C76.8018 57.112 76.7009 57.2391 76.6087 57.3691C75.1015 59.6365 73.9804 61.5255 73.185 63.143C73.1043 63.3076 72.9025 63.377 72.7382 63.2961C72.574 63.2152 72.5048 63.013 72.5855 62.8484C73.3925 61.2049 74.5308 59.2899 76.0583 56.9936C76.1707 56.829 76.2975 56.6759 76.4329 56.5315C77.4964 55.3848 79.1045 55.1104 80.1651 55.8989C81.2083 56.6701 81.7357 58.5129 80.093 61.3753C79.6377 62.1696 79.2255 62.9755 78.8739 63.7727C78.8192 63.8969 78.6981 63.972 78.5685 63.972V63.9691Z" fill="#4D1111"/>
<path d="M69.9222 91.4462C69.8675 91.4462 69.8156 91.4347 69.7637 91.4058C69.6023 91.3191 69.5418 91.117 69.6283 90.9523C73.3229 84.0635 75.8216 76.7472 76.6631 70.3552C76.7064 70.0231 76.7237 69.688 76.741 69.3385C76.7611 68.9255 76.7813 68.498 76.8534 68.0705C77.009 67.1289 77.2597 66.1555 77.5998 65.1793C77.7871 64.6362 78.0119 64.0701 78.2626 63.4953C78.3376 63.3249 78.5335 63.2498 78.7036 63.3249C78.8736 63.4 78.9485 63.5964 78.8736 63.7668C78.6286 64.3243 78.4125 64.876 78.228 65.4017C77.8995 66.3433 77.6603 67.2791 77.5104 68.1803C77.447 68.5673 77.4269 68.9573 77.4067 69.3703C77.3894 69.7198 77.3721 70.0837 77.3231 70.4448C76.4729 76.9148 73.9483 84.309 70.2162 91.27C70.1557 91.3827 70.0404 91.4462 69.9222 91.4462Z" fill="#4D1111"/>
<path d="M66.6738 96.9399C66.6104 96.9399 66.547 96.9226 66.4922 96.8851C66.3366 96.784 66.2934 96.576 66.3942 96.4229C67.06 95.3947 67.7027 94.352 68.3021 93.3237C68.7632 92.5352 69.207 91.738 69.6249 90.9552C69.7114 90.7935 69.9131 90.7299 70.0774 90.8195C70.2388 90.9061 70.3022 91.1083 70.2128 91.2729C69.7892 92.0644 69.3396 92.8702 68.8756 93.6645C68.2704 94.7014 67.622 95.7528 66.9505 96.7898C66.8871 96.888 66.7804 96.9428 66.6709 96.9428L66.6738 96.9399Z" fill="#4D1111"/>
<path d="M29.7072 122.704C27.7417 122.704 25.8252 122.43 23.9692 121.878C20.2256 120.766 16.7211 118.534 13.5481 115.241C13.4213 115.108 13.4241 114.897 13.5567 114.767C13.6893 114.64 13.8997 114.643 14.0294 114.776C20.6665 121.667 28.4565 123.675 37.183 120.749C45.411 117.988 53.4546 112.604 61.7719 104.282C64.0314 102.021 66.2822 99.5771 68.6541 96.8129C68.7751 96.6742 68.9855 96.6569 69.1238 96.7782C69.2622 96.8995 69.2795 97.1104 69.1584 97.249C66.775 100.025 64.5127 102.483 62.2417 104.756C53.8494 113.15 45.7223 118.588 37.3934 121.384C34.7651 122.265 32.1972 122.707 29.7072 122.707V122.704Z" fill="#4D1111"/>
<path d="M13.787 115.342C13.7006 115.342 13.6112 115.307 13.5478 115.241C8.87042 110.383 4.9279 103.141 2.44076 94.8459C0.325403 87.7809 -0.495956 80.6668 0.299465 76.2765C1.48972 69.717 4.99995 65.6443 7.73781 63.3827C10.7033 60.9305 13.3548 60.0409 13.4671 60.0033C13.6429 59.9456 13.8303 60.0409 13.8879 60.2171C13.9456 60.3932 13.8505 60.581 13.6747 60.6388C13.5709 60.6734 3.16125 64.2435 0.956552 76.3949C-0.550714 84.7048 3.89615 104.253 14.0291 114.776C14.1559 114.909 14.1531 115.119 14.0205 115.249C13.9571 115.313 13.8735 115.342 13.7899 115.342H13.787Z" fill="#4D1111"/>
<path d="M34.0418 91.0015C33.9208 91.0015 33.8055 90.935 33.745 90.8224C30.5431 84.6759 27.3413 75.3638 27.3096 75.2713C27.2491 75.098 27.3413 74.9074 27.5171 74.8467C27.69 74.7861 27.8802 74.8785 27.9407 75.0547C27.9724 75.1471 31.1599 84.4131 34.3387 90.5133C34.4251 90.678 34.3617 90.8801 34.1975 90.9639C34.1485 90.9899 34.0966 91.0015 34.0447 91.0015H34.0418Z" fill="#4D1111"/>
<path d="M67.055 125.861C66.8706 125.861 66.7207 125.711 66.7207 125.526C66.7207 125.341 66.8706 125.191 67.055 125.191C68.1617 125.191 69.0666 124.787 69.8217 123.958C72.0581 121.491 72.7728 115.261 71.8852 105.94C71.156 98.2455 69.6113 91.2556 69.5969 91.1892C69.5911 91.1661 69.5883 91.1401 69.5883 91.1141C69.5883 90.9292 69.7381 90.7791 69.9226 90.7791C70.0897 90.7791 70.2252 90.9004 70.2511 91.0592C70.3404 91.4607 71.8333 98.338 72.548 105.88C73.4674 115.527 72.7152 121.763 70.3145 124.409C69.4413 125.373 68.3432 125.861 67.055 125.861Z" fill="#4D1111"/>
<path d="M20.3061 127.987C20.3061 127.987 20.2802 127.987 20.2687 127.987C18.1331 127.745 16.4501 126.82 15.2656 125.24C12.4441 121.48 13.4154 115.218 13.4586 114.963C13.4816 114.802 13.62 114.677 13.79 114.677C13.9745 114.677 14.1243 114.825 14.1243 115.01C14.1243 115.03 14.1243 115.05 14.1186 115.067C14.107 115.128 13.107 121.246 15.8016 124.839C16.8708 126.266 18.4011 127.1 20.3465 127.323C20.5309 127.343 20.6606 127.511 20.6404 127.693C20.6203 127.863 20.4762 127.99 20.309 127.99L20.3061 127.987Z" fill="#4D1111"/>
<path d="M20.1338 131.058C20.1338 131.058 20.1223 131.058 20.1136 131.058C19.9292 131.046 19.788 130.89 19.7995 130.705L20.0848 125.688C20.0906 125.593 20.1367 125.503 20.2116 125.445C20.2865 125.385 20.3845 125.362 20.4767 125.379C20.52 125.388 24.7363 126.144 31.6616 126.324C31.8461 126.329 31.9902 126.482 31.9873 126.667C31.9815 126.852 31.8374 126.997 31.6444 126.994C25.8343 126.843 21.9091 126.289 20.7275 126.101L20.4652 130.746C20.4566 130.925 20.3067 131.06 20.1338 131.06V131.058Z" fill="#4D1111"/>
<path d="M67.055 127.987C66.8706 127.987 66.7207 127.837 66.7207 127.652V122.811C65.6774 123.088 64.614 123.354 63.5505 123.606C61.1009 124.189 58.608 124.703 56.1439 125.131C55.945 125.165 55.752 125.006 55.752 124.801C55.752 124.628 55.8816 124.486 56.0488 124.469C58.4956 124.042 60.9683 123.533 63.4007 122.953C64.5996 122.67 65.8014 122.366 66.9714 122.052C67.0723 122.026 67.1789 122.046 67.2625 122.109C67.3461 122.173 67.3922 122.271 67.3922 122.375V127.652C67.3922 127.837 67.2423 127.987 67.0579 127.987H67.055Z" fill="#4D1111"/>
<path d="M78.842 140H13.7874C13.603 140 13.4531 139.85 13.4531 139.665C13.4531 139.48 13.603 139.33 13.7874 139.33H78.842C79.0264 139.33 79.1763 139.48 79.1763 139.665C79.1763 139.85 79.0264 140 78.842 140Z" fill="#4D1111"/>
<path d="M72.2193 106.243C72.0838 106.243 71.9541 106.16 71.9051 106.024C71.8417 105.851 71.9311 105.66 72.1069 105.596C78.5337 103.268 85.9922 82.862 88.9058 69.0266C89.6465 65.5028 90.0702 62.5191 90.1278 60.3961C90.1336 60.2113 90.2863 60.0669 90.4707 60.0697C90.6552 60.0755 90.7993 60.2286 90.7964 60.4135C90.7359 62.5769 90.3094 65.6039 89.56 69.1653C87.9951 76.6029 85.3264 85.1034 82.4272 91.9026C79.9718 97.6592 76.2281 104.814 72.3374 106.223C72.3 106.238 72.2625 106.243 72.225 106.243H72.2193Z" fill="#4D1111"/>
<path d="M86.8161 62.8773C86.7988 62.8773 86.7787 62.8773 86.7585 62.8715C86.5769 62.8397 86.4559 62.6693 86.4847 62.4844C86.7441 60.9565 86.9891 59.5152 87.1966 58.4436C87.2398 58.227 87.2801 58.0219 87.3176 57.8341C87.5424 56.7452 87.7643 55.7285 87.9804 54.7465C88.724 51.3439 89.3119 48.6549 89.1793 46.7485C89.1678 46.5637 89.3061 46.4048 89.4906 46.3933C89.675 46.3817 89.8335 46.5203 89.8451 46.7052C89.9805 48.704 89.3868 51.4335 88.6318 54.8909C88.4185 55.8729 88.1966 56.8868 87.9718 57.9699C87.9343 58.1548 87.894 58.3569 87.8536 58.5736C87.649 59.6336 87.4041 61.0749 87.1447 62.5971C87.1159 62.7588 86.9746 62.8744 86.8161 62.8744V62.8773Z" fill="#4D1111"/>
<path d="M68.3544 97.5321C67.8645 97.5321 67.2477 97.3212 66.51 96.8966C64.1583 95.5449 60.7114 92.1626 57.5182 88.0697C54.4317 84.1126 52.0857 80.1671 51.2413 77.5214C51.2413 77.5156 51.2384 77.5069 51.2356 77.5011C50.8177 76.1898 50.8004 75.2973 51.1808 74.7774C51.2298 74.7052 51.299 74.633 51.3768 74.5694C51.5209 74.4568 51.7313 74.4799 51.8436 74.6272C51.956 74.7716 51.933 74.9825 51.786 75.098C51.7601 75.1182 51.7399 75.1384 51.7226 75.1644C51.6044 75.3262 51.3969 75.8345 51.8725 77.3163C51.8725 77.3221 51.8753 77.3307 51.8782 77.3365C52.6938 79.8725 55.0542 83.8267 58.0399 87.6596C61.1841 91.6889 64.556 95.0076 66.8385 96.319C67.7319 96.8302 68.4092 96.9948 68.6974 96.7695C69.0144 96.5211 69.072 95.5651 68.2824 93.6241C68.2132 93.4537 68.2939 93.2573 68.4668 93.188C68.6368 93.1186 68.8328 93.1995 68.902 93.3728C69.7378 95.4293 69.8069 96.7522 69.1095 97.2981C68.9078 97.457 68.6541 97.535 68.3544 97.535V97.5321Z" fill="#4D1111"/>
<path d="M53.6964 75.5197C53.6417 75.5197 53.5869 75.5053 53.535 75.4793C52.705 75.02 52.0681 74.8785 51.7915 75.0951C51.6445 75.2078 51.437 75.1818 51.3246 75.0345C51.2122 74.8872 51.2381 74.6792 51.3851 74.5665C51.9039 74.1651 52.7367 74.2748 53.8578 74.8958C54.0192 74.9854 54.0769 75.1875 53.9904 75.3493C53.9299 75.4591 53.8146 75.5226 53.6964 75.5226V75.5197Z" fill="#4D1111"/>
<path d="M78.5827 63.9662L78.5654 63.6311V63.2961C81.6952 63.1516 84.6003 62.7675 86.7329 62.2158C87.4707 62.0281 88.1105 61.8172 88.6408 61.5948C89.5832 61.1962 90.125 60.7601 90.1279 60.3961C90.1279 60.1997 89.9261 59.5209 87.4419 58.8277C87.2632 58.7786 87.1594 58.5938 87.2113 58.4147C87.2603 58.2356 87.4448 58.1316 87.6234 58.1836C89.7186 58.77 90.7878 59.5094 90.7994 60.3817C90.7936 61.072 90.1567 61.6815 88.9059 62.2129C88.3468 62.4469 87.6753 62.6664 86.9058 62.8628C84.7299 63.426 81.7759 63.816 78.5885 63.9633L78.5827 63.9662Z" fill="#4D1111"/>
<path d="M32.0334 92.5063C31.9297 92.5063 31.8288 92.4601 31.7625 92.3676C31.653 92.2174 31.6876 92.0095 31.8346 91.8997C32.509 91.4058 33.1833 90.9003 33.8375 90.3977C37.0192 87.9542 40.4257 85.06 43.9676 81.8019C47.7142 78.3416 50.4578 75.5255 51.2071 74.7427L51.259 74.6878C51.2936 74.6503 51.3166 74.6243 51.3282 74.6127C51.3339 74.607 51.3397 74.6012 51.3426 74.5954L51.8296 75.0518C51.8296 75.0518 51.7864 75.098 51.7432 75.1442L51.6884 75.202C50.9305 75.9905 48.1782 78.8182 44.4172 82.2929C40.8609 85.5684 37.44 88.4712 34.2439 90.9292C33.5868 91.4347 32.9095 91.9459 32.2294 92.4398C32.1689 92.4832 32.1026 92.5034 32.0334 92.5034V92.5063ZM51.6538 74.8987L51.6711 74.9131L51.5904 74.8294L51.6567 74.8987H51.6538Z" fill="#4D1111"/>
<path d="M113.301 28.3928C113.301 28.3928 113.29 28.3928 113.284 28.3928C113.166 28.3871 113.059 28.3177 113.005 28.2109L109.033 20.4122C108.993 20.3313 108.984 20.2389 109.013 20.1523C109.042 20.0656 109.102 19.9963 109.186 19.9587L111.336 18.9218C111.5 18.8438 111.696 18.9103 111.777 19.072L113.163 21.7929L113.177 21.7698C113.177 21.7698 113.186 21.7524 113.192 21.7467L116.244 17.0357C116.299 16.949 116.391 16.8942 116.495 16.8855C116.596 16.8768 116.696 16.9144 116.768 16.9895L119.025 19.3724C119.132 19.485 119.146 19.6555 119.062 19.7854L113.581 28.2455C113.52 28.3408 113.414 28.3986 113.301 28.3986V28.3928ZM109.785 20.4151L113.339 27.3934L118.362 19.641L116.578 17.7578L113.771 22.0904C113.771 22.0904 113.763 22.1077 113.757 22.1164L113.411 22.6478C113.345 22.7489 113.232 22.8038 113.114 22.798C112.996 22.7922 112.889 22.7229 112.835 22.6161L111.336 19.6728L109.785 20.4209V20.4151Z" fill="#4D1111"/>
<path d="M127.685 49.5185C127.685 49.5185 127.674 49.5185 127.668 49.5185C127.55 49.5127 127.443 49.4434 127.388 49.3365L123.417 41.5407C123.377 41.4599 123.368 41.3674 123.397 41.2808C123.426 41.1941 123.486 41.1248 123.567 41.0873L125.717 40.0474C125.881 39.9695 126.077 40.0359 126.158 40.1976L127.544 42.9156L130.625 38.1584C130.68 38.0718 130.772 38.0169 130.873 38.0082C130.974 37.9996 131.074 38.0371 131.146 38.1122L133.403 40.4951C133.51 40.6078 133.524 40.7782 133.44 40.9082L129.388 47.1644L127.962 49.3654C127.901 49.4607 127.795 49.5185 127.682 49.5185H127.685ZM124.166 41.5407L127.72 48.5162L132.743 40.7638L130.959 38.8805L127.795 43.7677C127.728 43.8688 127.616 43.9237 127.498 43.9208C127.38 43.915 127.273 43.8457 127.218 43.7388L125.72 40.7955L124.169 41.5436L124.166 41.5407Z" fill="#4D1111"/>
<path d="M99.4079 73.6711C99.4079 73.6711 99.3963 73.6711 99.3906 73.6711C99.2724 73.6653 99.1658 73.596 99.111 73.4892L95.1397 65.6905C95.0993 65.6096 95.0907 65.5172 95.1195 65.4306C95.1483 65.3439 95.2089 65.2746 95.2896 65.237L97.4395 64.1972C97.6038 64.1192 97.7997 64.1857 97.8804 64.3474L99.2638 67.0654L102.345 62.3082C102.399 62.2216 102.492 62.1667 102.595 62.158C102.696 62.1494 102.797 62.1869 102.869 62.262L105.126 64.6478C105.232 64.7605 105.247 64.9309 105.163 65.0609L101.126 71.2969C101.126 71.2969 101.111 71.3171 101.105 71.3258L99.6845 73.5209C99.624 73.6162 99.5174 73.674 99.405 73.674L99.4079 73.6711ZM95.8919 65.6934L99.4453 72.6689L100.569 70.9301C100.569 70.9301 100.584 70.9098 100.589 70.9012L104.466 64.9164L102.682 63.0303L99.5174 67.9175C99.454 68.0186 99.3387 68.0763 99.2205 68.0705C99.1024 68.0648 98.9958 67.9954 98.941 67.8886L97.4424 64.9453L95.8919 65.6934Z" fill="#4D1111"/>
<path d="M140.665 61.4071C140.481 61.4071 140.331 61.2569 140.331 61.072V16.8335L94.1823 0.802994V36.4977C94.1823 36.6825 94.0324 36.8327 93.848 36.8327C93.6635 36.8327 93.5137 36.6854 93.5137 36.5005V0.335076C93.5137 0.228206 93.5655 0.124224 93.6549 0.0635676C93.7442 2.31344e-05 93.8566 -0.0144188 93.9575 0.0202418L140.775 16.2818C140.91 16.3281 141 16.4551 141 16.5967V61.072C141 61.2569 140.85 61.4071 140.665 61.4071Z" fill="#4D1111"/>
<path d="M140.665 73.2465C140.481 73.2465 140.331 73.0963 140.331 72.9115V68.1312C140.331 67.9463 140.481 67.7961 140.665 67.7961C140.85 67.7961 141 67.9463 141 68.1312V72.9115C141 73.0963 140.85 73.2465 140.665 73.2465Z" fill="#4D1111"/>
<path d="M140.665 96.3363C140.628 96.3363 140.591 96.3305 140.556 96.319L93.7385 80.0574C93.603 80.0112 93.5137 79.8841 93.5137 79.7425V41.743C93.5137 41.5581 93.6635 41.4079 93.848 41.4079C94.0324 41.4079 94.1823 41.5581 94.1823 41.743V79.5028L140.331 95.5333V78.1597C140.331 77.9748 140.481 77.8246 140.665 77.8246C140.85 77.8246 141 77.9748 141 78.1597V96.0012C141 96.1081 140.948 96.2121 140.859 96.2728C140.801 96.3132 140.735 96.3334 140.665 96.3334V96.3363Z" fill="#4D1111"/>
<path d="M17.6719 140C17.4903 140 17.3405 139.853 17.3376 139.671C17.2626 133.478 19.7786 130.619 19.8852 130.5C20.0092 130.364 20.2195 130.353 20.3579 130.477C20.4933 130.601 20.5049 130.812 20.3809 130.948C20.3579 130.974 17.9341 133.755 18.0033 139.662C18.0033 139.847 17.8592 139.997 17.6748 140H17.6719Z" fill="#4D1111"/>
<path d="M68.424 140C68.2568 140 68.1127 139.873 68.0926 139.702L66.7236 127.693C66.7236 127.693 66.7236 127.667 66.7236 127.655C66.7236 127.47 66.8735 127.32 67.0579 127.32C67.2424 127.32 67.3778 127.456 67.3894 127.629L68.7554 139.627C68.7756 139.812 68.6459 139.977 68.4615 139.997C68.4499 139.997 68.4355 139.997 68.424 139.997V140Z" fill="#4D1111"/>
<path d="M43.5463 128.975C38.964 128.975 34.5834 127.927 31.5545 126.97C29.0904 126.196 27.5514 125.497 27.4851 125.469C27.318 125.393 27.243 125.194 27.3209 125.027C27.3958 124.859 27.5946 124.784 27.7618 124.859C27.7762 124.865 29.3325 125.57 31.7533 126.332C37.5662 128.16 48.4312 130.361 55.8782 124.538C56.8696 123.761 57.7803 122.857 58.5844 121.852C58.6997 121.708 58.91 121.685 59.0541 121.8C59.1982 121.916 59.2213 122.127 59.106 122.271C58.2702 123.317 57.3221 124.258 56.2875 125.067C52.5236 128.007 47.9384 128.975 43.5434 128.975H43.5463Z" fill="#4D1111"/>
</g>
<defs>
<clipPath id="clip0_1183_5137">
<rect width="141" height="140" fill="white"/>
</clipPath>
</defs>
</svg>
