<svg width="20" height="20" viewBox="0 0 20 20" fill="none" xmlns="http://www.w3.org/2000/svg">
<path d="M17.5834 2.41668C17.3508 2.1811 17.0738 1.99405 16.7684 1.86638C16.463 1.73871 16.1352 1.67297 15.8042 1.67297C15.4732 1.67297 15.1455 1.73871 14.84 1.86638C14.5346 1.99405 14.2576 2.1811 14.025 2.41668L12.425 4.04168L15.9584 7.57501L17.5584 5.97501C17.7956 5.74412 17.9846 5.46841 18.1144 5.16389C18.2442 4.85937 18.3123 4.5321 18.3146 4.20107C18.3169 3.87004 18.2535 3.54185 18.128 3.23553C18.0024 2.92922 17.8173 2.65088 17.5834 2.41668Z" fill="#FF5635"/>
<path d="M11.2417 5.22498L4.25006 12.2166C4.18738 12.2811 4.13408 12.354 4.09173 12.4333L1.77506 17.1083C1.70785 17.2345 1.67424 17.3759 1.67746 17.5188C1.68067 17.6617 1.72061 17.8014 1.79343 17.9245C1.86625 18.0475 1.9695 18.1497 2.09325 18.2213C2.21701 18.2929 2.3571 18.3315 2.50006 18.3333C2.62703 18.3338 2.75245 18.3053 2.86673 18.25L7.54173 15.9333C7.62102 15.891 7.69395 15.8377 7.75839 15.775L14.7501 8.78331L11.2417 5.22498Z" fill="#FF5635"/>
<path d="M17.5001 18.3333H10.0001C9.77907 18.3333 9.56711 18.2455 9.41083 18.0892C9.25455 17.9329 9.16675 17.721 9.16675 17.5C9.16675 17.2789 9.25455 17.067 9.41083 16.9107C9.56711 16.7544 9.77907 16.6666 10.0001 16.6666H17.5001C17.7211 16.6666 17.9331 16.7544 18.0893 16.9107C18.2456 17.067 18.3334 17.2789 18.3334 17.5C18.3334 17.721 18.2456 17.9329 18.0893 18.0892C17.9331 18.2455 17.7211 18.3333 17.5001 18.3333Z" fill="#FF5635"/>
</svg>
