<svg width="40" height="40" viewBox="0 0 40 40" fill="none" xmlns="http://www.w3.org/2000/svg">
<path d="M31.0387 12.8061C30.7722 12.5472 30.3984 12.4296 30.0326 12.4897C29.6662 12.5497 29.3497 12.7797 29.1797 13.1099C28.595 14.2458 27.8523 15.2896 26.9786 16.2123C27.0657 15.5458 27.1095 14.8752 27.1095 14.2029C27.1095 12.9128 26.9366 11.5852 26.5954 10.2565C25.4737 5.89239 22.5323 2.20169 18.5257 0.130829C18.1769 -0.049405 17.7612 -0.0430769 17.418 0.147704C17.0748 0.338564 16.8501 0.688486 16.8193 1.07989C16.5069 5.04583 14.4641 8.65395 11.2115 10.9815C11.1685 11.0125 11.1258 11.0439 11.083 11.0751C10.9945 11.1399 10.9111 11.2011 10.8331 11.2525C10.8209 11.2607 10.8088 11.269 10.7969 11.2775C8.75131 12.7421 7.06342 14.6944 5.91553 16.924C4.74912 19.1919 4.15771 21.6256 4.15771 24.1572C4.15771 25.4469 4.33061 26.7745 4.67162 28.1034C6.47123 35.1079 12.7747 39.9999 20.0005 39.9999C28.7357 39.9999 35.8422 32.8929 35.8422 24.1572C35.8422 19.8494 34.1363 15.8182 31.0387 12.8061Z" fill="#FF8B49"/>
</svg>
