<svg width="200" height="31" viewBox="0 0 200 31" fill="none" xmlns="http://www.w3.org/2000/svg">
<g clip-path="url(#clip0_35_633)">
<path d="M10.8156 22.3206L10.6341 21.7377C10.5689 21.499 10.3921 21.2925 10.1035 21.1181C9.81501 20.9391 9.48458 20.8014 9.11227 20.705C8.42816 20.705 7.88831 20.4984 7.50204 20.0854C7.11577 19.6677 6.9203 19.0251 6.9203 18.153V11.5252H8.19546C8.56777 11.5252 8.87027 11.383 9.10762 11.103C9.34031 10.823 9.45666 10.4696 9.45666 10.0381V9.65258C9.45666 9.22113 9.31704 8.86771 9.03316 8.58773C8.74927 8.30774 8.38627 8.16546 7.95346 8.16546H6.9203V4.95714C6.9203 4.48438 6.75742 4.09883 6.42234 3.80049C6.09191 3.50674 5.68237 3.37822 5.20302 3.42412L3.8441 3.56641C3.46248 3.6123 3.15067 3.76377 2.90401 4.02998C2.65736 4.2916 2.53636 4.6129 2.53636 4.98927V8.16546H1.27516C0.907504 8.16546 0.600349 8.30774 0.363002 8.58773C0.121001 8.86771 0 9.22113 0 9.65258V10.0381C0 10.4696 0.14427 10.823 0.428156 11.103C0.707388 11.383 1.07039 11.5252 1.50785 11.5252H2.53636V18.8002C2.53636 20.4021 3.08086 21.7056 4.17452 22.7062C5.27283 23.7068 6.75276 24.2071 8.605 24.2071C9.03316 24.2071 9.44735 24.1566 9.85224 24.0602C10.178 23.9867 10.4293 23.8215 10.6108 23.5691C10.7923 23.3166 10.8807 23.0412 10.8807 22.7383C10.8807 22.5868 10.8575 22.4491 10.8156 22.3206Z" fill="white"/>
<path d="M27.2438 10.0059C26.1641 8.78961 24.5864 8.18374 22.5154 8.18374C21.7941 8.18374 21.11 8.30767 20.4677 8.55552C19.8255 8.80338 19.1181 9.244 18.3409 9.87741V1.48712C18.3409 1.05567 18.2013 0.702251 17.9174 0.422268C17.6335 0.142286 17.2705 0 16.8377 0H15.4927C15.0599 0 14.6969 0.142286 14.413 0.422268C14.1291 0.702251 13.9895 1.05567 13.9895 1.48712V22.7199C13.9895 23.1513 14.1291 23.5047 14.413 23.7847C14.6969 24.0647 15.0599 24.207 15.4927 24.207H16.8377C17.2705 24.207 17.6335 24.0647 17.9174 23.7847C18.2013 23.5047 18.3409 23.1513 18.3409 22.7199V13.2647C19.0855 12.31 19.9651 11.796 20.9936 11.7317C22.1571 11.7638 23.0413 12.0943 23.6323 12.7231C24.228 13.3565 24.5259 14.2378 24.5259 15.3807V22.7199C24.5259 23.1513 24.6655 23.5047 24.9494 23.7847C25.2333 24.0647 25.5963 24.207 26.0337 24.207H27.3741C27.8069 24.207 28.1699 24.0647 28.4538 23.7847C28.7376 23.5047 28.8773 23.1513 28.8773 22.7199V14.2194C28.8773 12.6267 28.3328 11.2222 27.2438 10.0059Z" fill="white"/>
<path d="M45.0262 10.3273C43.5974 8.82183 41.694 8.06909 39.3159 8.06909C36.9378 8.06909 34.9366 8.82183 33.4101 10.3273C31.8837 11.8374 31.1204 13.7697 31.1204 16.1381C31.1204 18.5065 31.8837 20.4434 33.4101 21.9489C34.9366 23.4543 36.9052 24.2071 39.3159 24.2071C41.7266 24.2071 43.402 23.794 44.7004 22.9632C44.8959 22.8347 45.0448 22.6787 45.1425 22.4951C45.2403 22.3115 45.2868 22.1187 45.2868 21.9167C45.2868 21.4945 45.1193 21.1181 44.7795 20.7876L44.2071 20.2185C43.9465 19.9615 43.63 19.8329 43.2577 19.8329C43.0297 19.8329 42.797 19.8926 42.555 20.0119C41.5404 20.5076 40.4607 20.7509 39.3159 20.7509C38.3665 20.7509 37.5521 20.4939 36.8633 19.9798C36.5236 19.7411 36.2583 19.4382 36.0628 19.0664C35.8627 18.6946 35.7138 18.2081 35.6021 17.6068H45.6498C46.0826 17.6068 46.4456 17.4692 46.7295 17.1892C47.0134 16.9092 47.153 16.5558 47.153 16.1381C47.153 13.7605 46.4456 11.8236 45.0262 10.3273ZM35.7976 14.6693C35.8208 14.0772 35.9186 13.5953 36.0954 13.2235C36.2676 12.8563 36.5236 12.5442 36.8633 12.2964C37.5521 11.7823 38.3665 11.5253 39.3159 11.5253C40.2653 11.5253 41.0518 11.7823 41.7406 12.2964C42.0896 12.5442 42.3502 12.8563 42.5224 13.2235C42.6992 13.5953 42.797 14.0772 42.8202 14.6693H35.7976Z" fill="white"/>
<path d="M64.8424 10.4419C63.3904 8.84922 61.3985 8.05518 58.8668 8.05518C58.3223 8.05518 57.7545 8.16533 57.1588 8.39483C56.5631 8.61973 55.8511 9.00069 55.0227 9.53771V8.79415C55.0227 8.62432 54.9017 8.48662 54.655 8.38565C54.4084 8.28467 54.0966 8.22959 53.715 8.22959C53.5381 8.22959 53.4031 8.23877 53.3054 8.24795L51.9977 8.39483C51.6161 8.43614 51.2996 8.5876 51.0576 8.85381C50.8109 9.11544 50.6899 9.43673 50.6899 9.8131V29.5128C50.6899 29.9443 50.8249 30.3023 51.1041 30.5823C51.3834 30.8577 51.7417 31 52.1745 31H53.5195C53.9523 31 54.3153 30.8577 54.5992 30.5823C54.8831 30.3023 55.0227 29.9443 55.0227 29.5128V22.4949C55.7022 23.087 56.3537 23.5001 56.9773 23.7388C57.6056 23.9729 58.3223 24.0922 59.1321 24.0922C61.4636 24.0922 63.3671 23.2936 64.8424 21.6871C66.313 20.0852 67.0483 18.2126 67.0483 16.0737C67.0483 13.9348 66.313 12.0575 64.8424 10.4419ZM58.6899 20.6544C56.4747 20.3101 55.2507 19.181 55.0227 17.267V14.5912C55.2647 12.87 56.4887 11.8281 58.7039 11.4746C61.6917 11.6031 63.2554 13.2509 63.3857 16.4133C63.046 18.9928 61.4823 20.4065 58.6899 20.6544Z" fill="white"/>
<path d="M79.7301 8.81265C79.5113 8.53267 79.2507 8.28482 78.9436 8.06909C78.1385 8.06909 77.3752 8.22515 76.6632 8.53726C75.9465 8.84937 75.1693 9.39097 74.3316 10.1667V9.12017C74.3316 8.85855 74.1966 8.64742 73.9314 8.48218C73.6614 8.31694 73.3217 8.22974 72.9075 8.22974C72.7772 8.22974 72.6795 8.23892 72.6097 8.2481L71.2554 8.39497C70.8738 8.43628 70.562 8.59234 70.32 8.85855C70.0826 9.12935 69.9616 9.45064 69.9616 9.82701V22.72C69.9616 23.1514 70.1012 23.5048 70.3851 23.7848C70.669 24.0648 71.032 24.2071 71.4648 24.2071H72.8237C73.2612 24.2071 73.6196 24.0648 73.9034 23.7848C74.1873 23.5048 74.3316 23.1514 74.3316 22.72V14.2195C75.146 12.5947 76.1699 11.7272 77.3892 11.6217C77.8127 11.64 78.2036 11.6997 78.5526 11.7961C78.6597 11.819 78.7435 11.8282 78.7947 11.8282C79.0692 11.8282 79.3112 11.7043 79.516 11.4564C79.7254 11.2132 79.865 10.8781 79.9442 10.4604L80.0419 9.79488C80.0512 9.76275 80.0559 9.71686 80.0559 9.6526C80.0559 9.37262 79.9488 9.09263 79.7301 8.81265Z" fill="white"/>
<path d="M96.3863 10.3273C94.9575 8.82183 93.0541 8.06909 90.676 8.06909C88.2978 8.06909 86.2967 8.82183 84.7702 10.3273C83.2391 11.8374 82.4759 13.7697 82.4759 16.1381C82.4759 18.5065 83.2391 20.4434 84.7702 21.9489C86.2967 23.4543 88.2653 24.2071 90.676 24.2071C93.0867 24.2071 94.7574 23.794 96.0558 22.9632C96.256 22.8347 96.4002 22.6787 96.498 22.4951C96.5957 22.3115 96.6469 22.1187 96.6469 21.9167C96.6469 21.4945 96.4794 21.1181 96.1396 20.7876L95.5672 20.2185C95.3066 19.9615 94.9901 19.8329 94.6178 19.8329C94.3898 19.8329 94.1524 19.8926 93.9151 20.0119C92.9005 20.5076 91.8208 20.7509 90.676 20.7509C89.7266 20.7509 88.9075 20.4939 88.2187 19.9798C87.8837 19.7411 87.6137 19.4382 87.4183 19.0664C87.2228 18.6946 87.0692 18.2081 86.9622 17.6068H97.0052C97.4427 17.6068 97.801 17.4692 98.0849 17.1892C98.3688 16.9092 98.5131 16.5558 98.5131 16.1381C98.5131 13.7605 97.8011 11.8236 96.3863 10.3273ZM87.1577 14.6693C87.1809 14.0772 87.2787 13.5953 87.4508 13.2235C87.6277 12.8563 87.8837 12.5442 88.2187 12.2964C88.9075 11.7823 89.7266 11.5253 90.676 11.5253C91.6254 11.5253 92.4072 11.7823 93.096 12.2964C93.445 12.5442 93.7056 12.8563 93.8825 13.2235C94.0547 13.5953 94.1524 14.0772 94.1757 14.6693H87.1577Z" fill="white"/>
<path d="M116.198 10.4419C114.746 8.84922 112.759 8.05518 110.227 8.05518C109.682 8.05518 109.11 8.16533 108.519 8.39483C107.923 8.61973 107.211 9.00069 106.383 9.53771V8.79415C106.383 8.62432 106.257 8.48662 106.015 8.38565C105.768 8.28467 105.457 8.22959 105.075 8.22959C104.898 8.22959 104.763 8.23877 104.666 8.24795L103.353 8.39483C102.971 8.43614 102.66 8.5876 102.413 8.85381C102.166 9.11544 102.045 9.43673 102.045 9.8131V29.5128C102.045 29.9443 102.185 30.3023 102.464 30.5823C102.743 30.8577 103.097 31 103.535 31H104.875C105.312 31 105.671 30.8577 105.955 30.5823C106.239 30.3023 106.383 29.9443 106.383 29.5128V22.4949C107.058 23.087 107.709 23.5001 108.337 23.7388C108.966 23.9729 109.682 24.0922 110.487 24.0922C112.824 24.0922 114.727 23.2936 116.198 21.6871C117.673 20.0852 118.408 18.2126 118.408 16.0737C118.408 13.9348 117.673 12.0575 116.198 10.4419ZM110.045 20.6544C107.83 20.3101 106.611 19.181 106.383 17.267V14.5912C106.62 12.87 107.849 11.8281 110.064 11.4746C113.052 11.6031 114.611 13.2509 114.741 16.4133C114.406 18.9928 112.838 20.4065 110.045 20.6544Z" fill="white"/>
<path d="M131.086 8.81265C130.867 8.53267 130.606 8.28482 130.304 8.06909C129.494 8.06909 128.735 8.22515 128.019 8.53726C127.307 8.84937 126.529 9.39097 125.687 10.1667V9.12017C125.687 8.85855 125.552 8.64742 125.287 8.48218C125.022 8.31694 124.677 8.22974 124.263 8.22974C124.133 8.22974 124.035 8.23892 123.97 8.2481L122.611 8.39497C122.229 8.43628 121.917 8.59234 121.68 8.85855C121.438 9.12935 121.322 9.45064 121.322 9.82701V22.72C121.322 23.1514 121.461 23.5048 121.745 23.7848C122.029 24.0648 122.387 24.2071 122.825 24.2071H124.184C124.617 24.2071 124.98 24.0648 125.264 23.7848C125.547 23.5048 125.687 23.1514 125.687 22.72V14.2195C126.506 12.5947 127.525 11.7272 128.749 11.6217C129.173 11.64 129.559 11.6997 129.908 11.7961C130.02 11.819 130.099 11.8282 130.155 11.8282C130.425 11.8282 130.667 11.7043 130.876 11.4564C131.081 11.2132 131.225 10.8781 131.3 10.4604L131.397 9.79488C131.407 9.76275 131.416 9.71686 131.416 9.6526C131.416 9.37262 131.304 9.09263 131.086 8.81265Z" fill="white"/>
<path d="M148.054 10.2631C146.462 8.69332 144.475 7.90845 142.097 7.90845C139.718 7.90845 137.736 8.69332 136.144 10.2631C134.548 11.8374 133.752 13.7927 133.752 16.1381C133.752 18.4835 134.548 20.4204 136.144 22.0131C137.736 23.5829 139.718 24.3677 142.097 24.3677C144.475 24.3677 146.462 23.5829 148.054 22.0131C149.645 20.4434 150.441 18.4835 150.441 16.1381C150.441 13.7927 149.645 11.8374 148.054 10.2631ZM145.289 19.4153C144.493 20.2965 143.423 20.7371 142.083 20.7371C140.742 20.7371 139.672 20.2965 138.876 19.4153C138.048 18.534 137.634 17.4462 137.634 16.1564C137.634 14.8667 138.048 13.7559 138.876 12.893C139.672 12.0118 140.733 11.5712 142.064 11.5712C143.395 11.5712 144.493 12.0118 145.289 12.893C146.118 13.7559 146.532 14.8437 146.532 16.1564C146.532 17.4692 146.118 18.534 145.289 19.4153Z" fill="white"/>
<path d="M167.572 8.47285C167.288 8.19287 166.93 8.05518 166.492 8.05518H165.152C164.714 8.05518 164.356 8.19287 164.072 8.47285C163.788 8.75284 163.644 9.10626 163.644 9.53771V18.5752C162.927 19.8557 162.038 20.5442 160.977 20.6406C159.823 20.5993 158.948 20.2596 158.353 19.6217C157.757 18.9883 157.464 18.0978 157.464 16.9458V9.53771C157.464 9.10626 157.319 8.75284 157.035 8.47285C156.752 8.19287 156.393 8.05518 155.956 8.05518H154.615C154.178 8.05518 153.82 8.19287 153.536 8.47285C153.252 8.75284 153.108 9.10626 153.108 9.53771V18.0886C153.108 19.6951 153.657 21.1134 154.746 22.3526C155.825 23.5781 157.403 24.1886 159.474 24.1886C160.195 24.1886 160.875 24.0647 161.517 23.8122C162.164 23.5598 162.871 23.1145 163.644 22.4811V23.3349C163.644 23.5827 163.788 23.7893 164.072 23.9545C164.356 24.1243 164.714 24.2069 165.152 24.2069H166.492C166.93 24.2069 167.288 24.0647 167.572 23.7847C167.856 23.5047 168 23.1513 168 22.7198V9.53771C168 9.10626 167.856 8.75284 167.572 8.47285Z" fill="white"/>
<path d="M181.659 22.3206L181.478 21.7377C181.412 21.499 181.236 21.2925 180.947 21.1181C180.659 20.9391 180.328 20.8014 179.96 20.705C179.272 20.705 178.732 20.4984 178.346 20.0854C177.959 19.6677 177.764 19.0251 177.764 18.153V11.5252H179.044C179.411 11.5252 179.714 11.383 179.951 11.103C180.184 10.823 180.3 10.4696 180.3 10.0381V9.65258C180.3 9.22113 180.161 8.86771 179.877 8.58773C179.593 8.30774 179.234 8.16546 178.797 8.16546H177.764V4.95714C177.764 4.48438 177.601 4.09883 177.266 3.80049C176.935 3.50674 176.526 3.37822 176.047 3.42412L174.688 3.56641C174.306 3.6123 173.994 3.76377 173.748 4.02998C173.506 4.2916 173.38 4.6129 173.38 4.98927V8.16546H172.123C171.751 8.16546 171.444 8.30774 171.207 8.58773C170.965 8.86771 170.844 9.22113 170.844 9.65258V10.0381C170.844 10.4696 170.988 10.823 171.272 11.103C171.556 11.383 171.914 11.5252 172.351 11.5252H173.38V18.8002C173.38 20.4021 173.924 21.7056 175.018 22.7062C176.121 23.7068 177.596 24.2071 179.453 24.2071C179.877 24.2071 180.291 24.1566 180.696 24.0602C181.022 23.9867 181.277 23.8215 181.454 23.5691C181.636 23.3166 181.724 23.0412 181.724 22.7383C181.724 22.5868 181.706 22.4491 181.659 22.3206Z" fill="white"/>
<path d="M197.873 10.3273C196.444 8.82183 194.541 8.06909 192.163 8.06909C189.785 8.06909 187.784 8.82183 186.257 10.3273C184.731 11.8374 183.967 13.7697 183.967 16.1381C183.967 18.5065 184.731 20.4434 186.257 21.9489C187.784 23.4543 189.752 24.2071 192.163 24.2071C194.574 24.2071 196.249 23.794 197.547 22.9632C197.743 22.8347 197.892 22.6787 197.99 22.4951C198.087 22.3115 198.134 22.1187 198.134 21.9167C198.134 21.4945 197.966 21.1181 197.627 20.7876L197.054 20.2185C196.793 19.9615 196.477 19.8329 196.105 19.8329C195.877 19.8329 195.644 19.8926 195.402 20.0119C194.387 20.5076 193.308 20.7509 192.163 20.7509C191.213 20.7509 190.394 20.4939 189.71 19.9798C189.371 19.7411 189.105 19.4382 188.91 19.0664C188.71 18.6946 188.561 18.2081 188.449 17.6068H198.497C198.93 17.6068 199.293 17.4692 199.576 17.1892C199.86 16.9092 200 16.5558 200 16.1381C200 13.7605 199.293 11.8236 197.873 10.3273ZM188.645 14.6693C188.668 14.0772 188.766 13.5953 188.942 13.2235C189.115 12.8563 189.371 12.5442 189.71 12.2964C190.394 11.7823 191.213 11.5253 192.163 11.5253C193.112 11.5253 193.899 11.7823 194.583 12.2964C194.932 12.5442 195.197 12.8563 195.369 13.2235C195.546 13.5953 195.644 14.0772 195.667 14.6693H188.645Z" fill="white"/>
</g>
<defs>
<clipPath id="clip0_35_633">
<rect width="200" height="31" fill="white"/>
</clipPath>
</defs>
</svg>
