<svg width="12" height="12" viewBox="0 0 12 12" fill="none" xmlns="http://www.w3.org/2000/svg">
<g clip-path="url(#clip0_947_530)">
<path d="M10.8094 7.35977C10.2797 8.00195 7.95 9.92383 6.73828 10.9082C6.30703 11.2598 5.69063 11.2598 5.25938 10.9082C4.04766 9.92383 1.72031 8.00195 1.18828 7.35977C0.377344 6.38242 0 5.45195 0 4.43945C0 3.45039 0.3375 2.54102 0.951563 1.87539C1.575 1.20273 2.42578 0.830078 3.35156 0.830078C4.04531 0.830078 4.67813 1.05039 5.23594 1.48164C5.52656 1.70898 5.78438 1.97617 5.99766 2.27852C6.21328 1.97852 6.46875 1.70898 6.75938 1.48164C7.31719 1.04805 7.95234 0.830078 8.64609 0.830078C9.57422 0.830078 10.425 1.20273 11.0461 1.87539C11.6578 2.54102 11.9977 3.44805 11.9977 4.43945C12 5.45195 11.6227 6.38242 10.8094 7.35977Z" fill="white"/>
</g>
<defs>
<clipPath id="clip0_947_530">
<rect width="12" height="12" fill="white"/>
</clipPath>
</defs>
</svg>
