<svg width="138" height="123" viewBox="0 0 138 123" fill="none" xmlns="http://www.w3.org/2000/svg">
<g clip-path="url(#clip0_479_475)">
<path d="M45.3634 69.7611C45.8383 69.8052 46.1853 70.2302 46.1227 70.7018C46.0731 71.0568 45.8279 71.3522 45.4887 71.4662L45.1782 71.5699L45.2304 71.5854C45.8487 71.7435 46.1149 72.495 45.7026 72.977C45.7 72.9796 45.6974 72.9848 45.6922 72.9874C45.3478 73.2854 44.9877 73.5393 44.612 73.7544C43.1587 74.5966 41.5018 74.8609 39.7772 74.9231C38.9292 72.7515 37.9246 70.7251 36.727 68.8905C36.6618 68.7894 36.5835 68.6987 36.4922 68.6261C38.1647 65.8275 39.2892 65.4051 41.2122 64.6225C41.5723 64.4722 42.0106 64.55 42.2507 64.8584C42.6368 65.3533 42.3759 66.0866 41.3609 67.0973L43.5709 65.8301C43.7849 65.7109 44.0275 65.6876 44.2467 65.742C44.5833 65.8275 44.8651 66.0996 44.8912 66.4779C44.8912 66.4857 44.8938 66.4987 44.8938 66.5064C44.9042 66.7578 44.7894 66.9988 44.6015 67.1672L44.2363 67.4963L44.3824 67.4575C45.1912 67.2372 45.987 67.9472 45.7835 68.7557C45.7809 68.7635 45.7783 68.7764 45.7757 68.7868C45.7261 68.9734 45.6191 69.1392 45.4782 69.274L45.0086 69.73L45.3634 69.7586V69.7611Z" fill="#FFC9A6"/>
<path d="M42.1279 120.947H20.4116C21.2883 120.359 21.8728 119.408 21.9824 118.343C22.7155 111.118 22.7625 103.057 22.0867 94.1063C23.9471 93.2071 25.6926 92.1032 27.2712 90.8567L33.1627 90.0923C32.8053 98.9935 33.8098 107.954 35.9389 116.962C36.2729 118.387 37.34 119.535 38.7412 119.983C39.8892 120.351 41.0216 120.675 42.1305 120.95L42.1279 120.947Z" fill="white"/>
<path d="M22.0841 94.1064C22.7599 103.054 22.7129 111.119 21.9797 118.343C21.8701 119.408 21.2883 120.359 20.409 120.947H20.4064C20.242 121.061 20.062 121.16 19.8793 121.243C16.1639 122.901 12.0466 123.145 7.67355 122.481C6.34025 122.282 5.35137 121.17 5.31745 119.828C5.26005 117.333 5.35137 114.902 5.60968 112.546L5.58359 112.528C4.50078 111.733 4.02851 110.354 4.34944 109.056C5.49488 104.42 6.45506 99.9577 6.94559 95.9411C7.71791 96.2158 8.53719 96.4049 9.3904 96.4905C13.8521 96.9465 18.2225 95.9696 22.0867 94.1064H22.0841Z" fill="#727EA3"/>
<path d="M58.4668 118.509C58.5398 119.716 57.7754 120.823 56.6117 121.183C52.3221 122.507 47.4299 122.266 42.128 120.947C41.0165 120.673 39.8868 120.349 38.7387 119.981C37.3402 119.532 36.273 118.384 35.9364 116.959C33.8073 107.949 32.8028 98.9884 33.1603 90.0924L45.2773 88.5194L44.6068 73.7566C44.9825 73.539 45.3426 73.285 45.687 72.987C45.6922 72.9844 45.6948 72.9792 45.6974 72.9766C46.1097 72.4921 45.8409 71.7406 45.2252 71.5851L45.173 71.5695L45.4835 71.4659C45.8227 71.3519 46.0679 71.0565 46.1175 70.7014C46.1801 70.2324 45.8357 69.8048 45.3582 69.7608L45.0034 69.7323L45.473 69.2762C45.6139 69.1415 45.7209 68.9756 45.7705 68.789C45.7731 68.7787 45.7757 68.7657 45.7783 68.7579C45.9792 67.9495 45.1834 67.2394 44.3772 67.4597L44.2311 67.4986L44.5963 67.1695C44.7842 67.001 44.899 66.76 44.8886 66.5087C44.8886 66.5009 44.886 66.4879 44.886 66.4802C44.8599 66.1018 44.5807 65.8298 44.2415 65.7442L43.6518 52.8187L42.0993 52.9742H42.0967C41.935 52.9534 41.7862 52.912 41.6427 52.8446L41.554 51.3468L37.408 51.7251C38.0603 49.722 38.5352 47.6879 38.8248 45.6226C38.9422 44.7726 39.0257 43.9175 39.0805 43.0572C39.091 42.8524 39.1849 42.6762 39.3206 42.5493C39.5136 42.3653 39.8006 42.2823 40.0824 42.3627C44.7164 43.6661 49.3268 45.8791 53.9138 48.9187C57.0657 51.0048 59.6435 53.8449 61.4308 57.1592C74.3541 81.1523 72.8773 108.854 67.3041 109.367C67.0536 111.774 66.6857 113.73 66.2343 115.371C66.0778 115.936 65.7047 116.423 65.1881 116.708C63.2468 117.786 60.9899 118.366 58.4616 118.511L58.4668 118.509Z" fill="#727EA3"/>
<path d="M27.2686 90.8568C25.6901 92.1032 23.9445 93.2072 22.0842 94.1063C18.22 95.9695 13.8496 96.9464 9.38786 96.4904C8.53727 96.4048 7.71798 96.2157 6.94305 95.941C2.84663 94.4795 -0.0026074 90.5407 1.79054e-06 86.0318C0.00782936 64.5807 7.60057 51.4246 24.4351 43.3215C24.7325 43.179 25.0665 43.3111 25.2074 43.5728C25.2543 43.6558 25.2804 43.7542 25.2778 43.8605C25.2491 45.2132 25.3091 46.5917 25.4526 47.9988C25.6118 49.551 25.8701 51.1369 26.225 52.7461L18.0295 53.4976L19.4463 73.5105C23.2322 71.3078 26.7155 69.6079 30.1727 70.5978C31.9208 69.5639 33.6351 68.7554 35.2841 68.3408C35.7146 68.2293 36.1634 68.3434 36.4843 68.6284C36.573 68.7035 36.6513 68.7942 36.7191 68.8953C37.9167 70.73 38.9213 72.7564 39.7693 74.9279C39.7953 74.9875 39.8188 75.0471 39.8423 75.1093C39.978 75.4669 39.9493 75.8712 39.7614 76.2029C38.7725 77.9857 37.1992 79.2736 35.1823 80.1857C33.9273 84.0131 31.0702 87.8561 27.266 90.8594L27.2686 90.8568Z" fill="#727EA3"/>
<path d="M39.764 76.2005C39.9518 75.8688 39.9805 75.4645 39.8448 75.1069C39.8214 75.0473 39.7979 74.9877 39.7718 74.9255C41.4965 74.8633 43.1533 74.599 44.6066 73.7568L45.2772 88.5222L33.1601 90.0926L27.2686 90.857C31.0754 87.8537 33.9298 84.0107 35.1848 80.1833C37.2017 79.2712 38.7751 77.9833 39.764 76.2005Z" fill="#FF5635"/>
<path d="M19.1251 54.1352L20.1584 55.1407L42.1017 52.9717H42.1043L43.6567 52.8163L44.2464 65.7418C44.0272 65.6874 43.7846 65.7107 43.5706 65.8299L41.3606 67.0971C42.373 66.089 42.6365 65.3557 42.2504 64.8582C42.0103 64.5524 41.572 64.4747 41.2119 64.6224C39.2863 65.4049 38.1644 65.8247 36.4919 68.6234C36.171 68.3409 35.7222 68.2243 35.2917 68.3357C33.6401 68.7503 31.9284 69.5588 30.1803 70.5928C26.7205 69.6003 23.2372 71.3002 19.4539 73.5054L18.0371 53.4926L26.2326 52.7411L33.1652 52.1088L37.4182 51.7201L41.5642 51.3418L41.6529 52.8396C41.3841 52.723 41.1467 52.5312 40.938 52.2773L19.1304 54.1301L19.1251 54.1352Z" fill="#FF5635"/>
<path d="M42.102 52.9715L20.1587 55.1405L19.1255 54.135L40.9331 52.2822C41.1444 52.5336 41.3793 52.7253 41.648 52.8445C41.7889 52.9093 41.9402 52.9534 42.102 52.9741V52.9715Z" fill="white"/>
<path d="M27.1983 41.2718L27.4801 40.9453L27.9446 41.4843L31.3208 45.3894L32.1166 46.312C32.5733 46.8432 32.8472 47.504 32.8916 48.1984L33.1577 52.1139L26.2251 52.7462C25.8703 51.137 25.6093 49.5511 25.4528 47.9989C25.3093 46.5918 25.2467 45.2132 25.278 43.8606C25.2806 43.7543 25.2545 43.6558 25.2075 43.5729L27.1983 41.2718Z" fill="white"/>
<path d="M38.8299 45.6201C38.5403 47.6853 38.0654 49.7195 37.4131 51.7226L33.1601 52.1113L32.894 48.1958C32.847 47.5014 32.573 46.8406 32.119 46.3093L31.3232 45.3868L37.0191 40.2793L37.4131 39.9243L38.0602 40.808L39.3256 42.5441C39.1899 42.6711 39.0986 42.8473 39.0856 43.052C39.0308 43.9124 38.9473 44.7649 38.8299 45.6149V45.6201Z" fill="white"/>
<path d="M26.9218 10.7771C25.4581 12.1816 24.5997 14.3506 24.3466 17.2917C24.31 15.3586 24.4823 13.5757 25.0824 12.0961C22.3532 15.1668 21.3304 19.2818 21.2286 23.9592C13.5732 21.1036 17.1844 33.1973 22.1731 29.1419C23.3499 31.8135 25.7634 33.4486 28.4639 34.0913C28.4639 34.3375 28.4639 34.5836 28.4587 34.8298C28.4378 37.0506 28.2708 39.2662 27.9499 41.4844L27.4854 40.9454L27.2036 41.2719C22.361 41.6761 17.5001 42.3395 12.6209 43.2594C7.98696 36.2136 15.3971 31.1735 18.9586 15.3223C19.7701 11.7152 23.1046 9.19899 26.8123 9.52809C26.8436 9.53068 26.8749 9.53327 26.9114 9.53586C33.0404 6.2967 38.1414 7.88 42.2013 14.3298C43.318 16.1023 44.0616 18.0769 44.5104 20.124C44.7296 21.1321 45.0061 22.0727 45.3245 22.9512L45.134 23.016C44.5652 21.4637 42.9449 20.7745 40.26 23.428C39.8817 16.3511 36.4663 12.2257 30.6112 10.4791C33.5544 11.6893 35.6887 13.9022 37.0951 17.0274C34.1415 12.5003 30.7626 10.3547 26.9271 10.7719L26.9218 10.7771Z" fill="black"/>
<path d="M45.3191 22.9562C48.257 31.1318 54.6261 34.327 51.2915 41.4842C46.9003 41.0281 42.4881 40.8079 38.0603 40.8105L37.4133 39.9268L37.0193 40.2818C36.6853 39.2272 36.3905 38.0999 36.1348 36.9053C35.9104 35.8377 35.7147 34.7105 35.5503 33.5288C38.0551 32.4638 40.0172 30.4244 40.4817 27.4573C44.4372 29.7248 45.9949 25.3739 45.1338 23.0184L45.3243 22.9536L45.3191 22.9562Z" fill="black"/>
<path d="M28.4613 34.83H28.4561C28.4613 34.5838 28.4613 34.3376 28.4613 34.0915C30.8122 34.6512 33.3796 34.4543 35.5478 33.5317C35.7122 34.7134 35.9079 35.838 36.1323 36.9082C32.9439 36.5662 30.3503 35.8976 28.4613 34.83Z" fill="#E8A376"/>
<path d="M28.4608 34.0914C25.7603 33.4487 23.3494 31.8136 22.1701 29.1419C17.1813 33.1974 13.5728 21.101 21.2256 23.9593C21.3299 19.2819 22.3501 15.1669 25.0793 12.0962C24.4792 13.5758 24.307 15.3561 24.3435 17.2918C24.5966 14.3506 25.4577 12.1817 26.9188 10.7772C30.7543 10.36 34.1332 12.5056 37.0868 17.0327C35.6805 13.9101 33.5461 11.6945 30.603 10.4844C36.458 12.2335 39.8734 16.3563 40.2518 23.4332C42.934 20.7797 44.5569 21.4664 45.1257 23.0212C45.9894 25.3767 44.4291 29.7276 40.4735 27.4602C40.0091 30.4298 38.047 32.4666 35.5422 33.5316C33.3765 34.4542 30.8065 34.6485 28.4556 34.0914H28.4608Z" fill="#FFC9A6"/>
<path d="M37.0194 40.2847L31.3236 45.3922L27.9473 41.4871C28.2682 39.2689 28.4352 37.0533 28.4561 34.8325H28.4613C30.3503 35.8976 32.9439 36.5687 36.1323 36.9108C36.388 38.1054 36.6828 39.2326 37.0168 40.2873L37.0194 40.2847Z" fill="#FFC9A6"/>
<path d="M11.5565 96.7445C10.8233 96.7445 10.0953 96.7082 9.37521 96.6331C8.52722 96.5476 7.69228 96.3584 6.89387 96.0733C6.8182 96.0474 6.77907 95.9645 6.80777 95.8894C6.83386 95.8142 6.91735 95.7779 6.99302 95.8038C7.76795 96.0811 8.57941 96.2651 9.40391 96.348C13.5603 96.7704 17.9229 95.9516 22.0193 93.977C22.0924 93.9433 22.1785 93.9718 22.2124 94.0443C22.2463 94.1169 22.2176 94.2024 22.1446 94.2361C18.7109 95.892 15.0893 96.7445 11.5565 96.7445Z" fill="#E8A376"/>
<path d="M11.465 78.0583C11.4102 78.0583 11.358 78.0272 11.3345 77.9727C11.3006 77.9002 11.3345 77.8147 11.4076 77.7836C13.6462 76.7859 15.7466 75.5369 17.7792 74.3293C18.3193 74.008 18.8516 73.6919 19.376 73.3861C19.4439 73.3472 19.5326 73.3679 19.5743 73.4379C19.6135 73.5053 19.5926 73.5934 19.5221 73.6349C18.9951 73.9406 18.4654 74.2568 17.9253 74.5755C15.8875 75.7882 13.7793 77.0399 11.525 78.0453C11.5067 78.0531 11.4858 78.0583 11.465 78.0583Z" fill="#E8A376"/>
<path d="M34.2274 79.5201C34.1856 79.5201 34.1413 79.5019 34.1126 79.4656C32.3514 77.2164 30.9815 74.7676 30.0396 72.184C30.0135 72.1089 30.0501 72.0285 30.1257 72C30.2014 71.9741 30.2823 72.0104 30.311 72.0855C31.2425 74.6406 32.5992 77.0635 34.3422 79.2894C34.3918 79.3516 34.3787 79.4423 34.3161 79.4916C34.29 79.5123 34.2587 79.5226 34.2274 79.5226V79.5201Z" fill="#E8A376"/>
<path d="M39.7746 75.068C39.6963 75.068 39.6337 75.0084 39.6311 74.9306C39.6285 74.8503 39.6911 74.7855 39.7694 74.7829C41.5332 74.7181 43.7901 74.446 45.5957 72.8809C45.747 72.6995 45.794 72.4559 45.7183 72.2201C45.64 71.9739 45.4417 71.7873 45.1912 71.7225L45.1391 71.7096C45.0764 71.694 45.0321 71.6396 45.0295 71.5774C45.0295 71.5126 45.066 71.4556 45.1286 71.4349L45.4417 71.3287C45.7314 71.2302 45.9375 70.984 45.9792 70.6834C46.0053 70.4943 45.9531 70.3103 45.8331 70.16C45.7131 70.0123 45.5435 69.9216 45.353 69.9034L44.9982 69.8723C44.9434 69.8672 44.8938 69.8309 44.8755 69.7765C44.8573 69.7246 44.8703 69.665 44.9095 69.6262L45.3791 69.1727C45.507 69.0483 45.5957 68.9032 45.6374 68.7503L45.7835 68.7555L45.6426 68.7218C45.7209 68.4056 45.6244 68.0791 45.3817 67.8459C45.126 67.5997 44.7555 67.5039 44.4163 67.5971L44.2702 67.636C44.205 67.6542 44.1371 67.6257 44.1058 67.5661C44.0745 67.509 44.0849 67.4365 44.1345 67.3898L44.4998 67.0607C44.6616 66.9156 44.7529 66.7109 44.7451 66.5114C44.7268 66.2548 44.5937 66.0579 44.3798 65.9439C44.1476 65.8221 43.8658 65.8247 43.6414 65.9542L41.4314 67.2188C41.3688 67.2551 41.2879 67.2395 41.2462 67.1825C41.2018 67.1255 41.207 67.0452 41.2592 66.9934C42.1829 66.0709 42.4777 65.3842 42.1359 64.9462C41.9454 64.7026 41.588 64.6223 41.267 64.7545L41.1757 64.7907C39.3441 65.5345 38.2378 65.9853 36.6148 68.6959C36.5757 68.7632 36.4844 68.7866 36.4165 68.7451C36.3487 68.7036 36.3252 68.6181 36.367 68.5482C38.0369 65.7547 39.1771 65.2909 41.0661 64.5238L41.1574 64.4876C41.5984 64.3088 42.0941 64.4228 42.3655 64.7674C42.7125 65.2105 42.6082 65.8014 42.0524 66.5321L43.5031 65.7029C43.8136 65.5267 44.2024 65.5215 44.5207 65.6873C44.8234 65.848 45.0112 66.1305 45.0373 66.4622V66.4958C45.053 66.7835 44.9303 67.0659 44.7007 67.2706C45.0269 67.2758 45.3478 67.4028 45.5878 67.636C45.9036 67.9418 46.0314 68.372 45.927 68.7866H45.7783L45.9166 68.8203C45.8618 69.0224 45.747 69.2141 45.58 69.3748L45.3348 69.6106H45.3765C45.6452 69.6365 45.8879 69.7661 46.0575 69.976C46.2271 70.1859 46.3002 70.4502 46.2636 70.7145C46.2114 71.1084 45.9505 71.4349 45.58 71.5774C45.7731 71.7044 45.9192 71.8962 45.9949 72.1242C46.0992 72.4507 46.0314 72.8031 45.8122 73.0597C45.807 73.0649 45.7914 73.083 45.7861 73.0882C43.9101 74.7103 41.5906 74.9954 39.7798 75.0602H39.7746V75.068Z" fill="#E8A376"/>
<path d="M20.9389 27.7373C20.9389 27.7373 20.9285 27.7373 20.9233 27.7373C20.0257 27.6388 19.6239 26.9573 19.6917 26.3354C19.7491 25.8171 20.1327 25.3299 20.7746 25.2366C19.7309 24.4929 18.7603 24.5733 17.821 25.4776C17.7636 25.5321 17.6722 25.5321 17.6174 25.475C17.5626 25.418 17.5626 25.3273 17.62 25.2729C18.7629 24.1716 19.9944 24.169 21.2755 25.2677C21.3225 25.3092 21.3381 25.3766 21.3147 25.4336C21.2912 25.4906 21.2312 25.5243 21.1659 25.5191C20.4223 25.4388 20.0283 25.9026 19.9761 26.3691C19.924 26.8355 20.2084 27.3745 20.952 27.4548C21.0303 27.4626 21.0877 27.5351 21.0798 27.6129C21.072 27.6854 21.0094 27.7399 20.9363 27.7399L20.9389 27.7373Z" fill="#E8A376"/>
<path d="M41.0243 26.1774C40.9486 26.1774 40.886 26.1204 40.8808 26.0453C40.8755 25.9675 40.9329 25.8976 41.0138 25.8924C41.8096 25.8302 42.1384 25.3922 42.1097 25.0113C42.081 24.6304 41.687 24.2495 40.8912 24.3117C40.8286 24.3168 40.7686 24.2806 40.7451 24.2236C40.7216 24.1665 40.7373 24.0992 40.7868 24.0603C42.2923 22.8165 43.4195 22.5418 44.231 23.2207C44.291 23.2725 44.2988 23.3606 44.2492 23.4228C44.197 23.4824 44.1083 23.4928 44.0457 23.441C43.4117 22.9123 42.5063 23.1067 41.2852 24.0344C42.0001 24.1121 42.3628 24.5527 42.3967 24.9932C42.4385 25.5114 42.0288 26.1049 41.0373 26.1826C41.0321 26.1826 41.0295 26.1826 41.0269 26.1826L41.0243 26.1774Z" fill="#E8A376"/>
<path d="M33.1605 52.2568C33.0849 52.2568 33.0222 52.1997 33.017 52.122L32.7509 48.2091C32.7065 47.5483 32.443 46.9083 32.0099 46.4081L31.2115 45.4856C31.1593 45.426 31.1671 45.3353 31.2271 45.2835C31.2871 45.2317 31.3785 45.2394 31.4306 45.299L32.229 46.2216C32.7039 46.7709 32.9909 47.468 33.0405 48.191L33.3066 52.1039C33.3119 52.1816 33.2518 52.2516 33.1736 52.2568C33.171 52.2568 33.1657 52.2568 33.1631 52.2568H33.1605Z" fill="#D2D3D4"/>
<path d="M58.4671 118.652C58.3914 118.652 58.3288 118.592 58.3235 118.517C58.1383 115.413 57.5851 112.658 56.6302 110.098C56.6093 110.041 56.625 109.979 56.6719 109.94C57.1885 109.499 57.5225 108.882 57.6921 108.058C57.773 107.662 57.8017 107.229 57.7808 106.737C57.5199 100.619 56.3562 95.7003 55.1247 90.4943C52.9591 81.3314 50.7178 71.8575 52.6929 54.2131C52.7007 54.1354 52.7686 54.0784 52.8521 54.0862C52.9304 54.0939 52.9878 54.1665 52.9799 54.2442C51.01 71.8394 53.2461 81.2899 55.4065 90.4295C56.6406 95.6485 57.8069 100.58 58.0705 106.726C58.0913 107.242 58.0626 107.698 57.9765 108.118C57.8043 108.955 57.4547 109.618 56.9381 110.093C57.8826 112.655 58.4305 115.407 58.6158 118.504C58.621 118.582 58.561 118.652 58.4801 118.654C58.4775 118.654 58.4749 118.654 58.4723 118.654L58.4671 118.652Z" fill="#E8A376"/>
<path d="M57.7653 110.253C57.6922 110.253 57.6296 110.198 57.6218 110.123C57.614 110.046 57.674 109.976 57.7522 109.968L66.1512 109.188C66.2347 109.183 66.2999 109.24 66.3078 109.317C66.3156 109.395 66.2556 109.465 66.1773 109.473L57.7783 110.253C57.7783 110.253 57.7679 110.253 57.7653 110.253Z" fill="#E8A376"/>
<path d="M36.5498 113.129C36.4715 113.129 36.4062 113.065 36.4062 112.987C36.4062 112.906 36.4689 112.844 36.5498 112.842C44.4008 112.795 50.3445 111.984 54.7201 110.364C54.7932 110.336 54.8767 110.375 54.9054 110.45C54.9341 110.525 54.895 110.605 54.8193 110.634C50.4098 112.266 44.4347 113.083 36.5498 113.129Z" fill="#E8A376"/>
<path d="M16.9652 113.412C13.4323 113.412 10.0065 113.21 6.73975 112.805C6.66147 112.795 6.60407 112.725 6.61451 112.645C6.62494 112.567 6.69539 112.51 6.77628 112.52C11.1258 113.057 15.7623 113.238 20.5528 113.057C20.6441 113.064 20.6989 113.116 20.7015 113.194C20.7041 113.274 20.6415 113.339 20.5632 113.342C19.3526 113.388 18.1523 113.412 16.9652 113.412Z" fill="#E8A376"/>
<path d="M26.5254 49.6313C26.5254 49.6313 26.5175 49.6313 26.5149 49.6313C26.4706 49.6287 26.4314 49.6054 26.408 49.5717L25.3382 48.0817C25.2912 48.0169 25.3069 47.9288 25.3721 47.8822C25.4373 47.8355 25.526 47.8511 25.573 47.9158L26.541 49.2633L29.9564 45.6821C30.0112 45.6251 30.1026 45.6225 30.16 45.6769C30.2174 45.7314 30.22 45.8221 30.1652 45.8791L26.6297 49.5873C26.6036 49.6158 26.5645 49.6313 26.5254 49.6313Z" fill="#D2D3D4"/>
<path d="M36.1011 48.9968C36.0593 48.9968 36.0202 48.9786 35.9915 48.9475L32.9805 45.4855C32.9283 45.4259 32.9361 45.3352 32.9962 45.2834C33.0562 45.2316 33.1475 45.2367 33.1997 45.2989L36.0985 48.634L38.7181 45.527C38.7703 45.4674 38.8616 45.4596 38.9216 45.5088C38.9816 45.5607 38.9895 45.6488 38.9399 45.711L36.2107 48.9475C36.182 48.9786 36.1455 48.9942 36.1011 48.9993V48.9968Z" fill="#D2D3D4"/>
<path d="M81.5812 20.3834C80.3158 17.0483 79.6322 13.6045 79.6583 10.0233C78.1841 8.41663 77.3413 6.44204 77.0073 4.16945C77.6022 5.12824 78.5807 5.89786 79.7339 6.58457C78.4998 5.14379 77.8631 3.4361 77.6701 1.53666C80.5376 3.7367 83.7912 4.08912 87.3945 2.7805C86.356 1.90463 85.889 0.963974 85.6255 0C89.6228 5.1386 102.846 -1.99273 102.348 6.80483C105.487 5.80198 107.952 6.6027 109.789 9.07224C108.949 8.54879 108.07 8.25597 107.138 8.28707C107.671 12.2855 107.11 15.8304 105.254 18.839C105.581 23.7806 81.9126 25.3251 81.5864 20.3834H81.5812Z" fill="black"/>
<path d="M102.345 6.80489C104.665 5.7839 105.502 4.2291 103.613 1.68701C104.036 3.78599 103.613 5.49108 102.345 6.80489Z" fill="black"/>
<path d="M113.52 87.496C113.672 86.9311 113.716 86.2729 113.774 85.5214C113.001 84.0573 112.573 82.5103 112.362 80.9088C113.155 80.5849 113.7 79.7868 113.646 78.8772C112.839 65.4697 115.141 55.8222 120.625 50.0254C121.275 50.5126 121.904 51.0282 122.509 51.5646C125.184 53.9383 127.425 56.7654 129.126 59.9217C133.272 67.6076 136.327 75.6795 137.692 84.3501C138.323 88.3693 137.241 92.4817 134.699 95.6742C134.415 96.0318 134.117 96.3868 133.807 96.7419C128.724 102.603 120.651 107.931 114.282 108.716C112.346 108.957 110.567 108.773 109.074 108.061H109.072C106.888 104.309 105.422 100.339 104.675 96.1433C105.08 93.3343 107.454 90.8932 111.227 88.7113C111.942 88.2993 112.706 87.8951 113.518 87.4986L113.52 87.496Z" fill="#FF5635"/>
<path d="M133.809 96.7393C133.84 104.752 132.465 111.992 129.428 118.32C128.807 119.616 127.49 120.429 126.047 120.453C121.596 120.528 117.423 120.323 113.564 119.799C113.703 118.571 113.75 117.33 113.684 116.073C115.44 115.617 115.347 112.79 114.282 108.714C120.651 107.929 128.724 102.601 133.807 96.7393H133.809Z" fill="#727EA3"/>
<path d="M122.514 48.5202C122.684 49.3235 122.697 50.3264 122.512 51.5624C121.906 51.026 121.278 50.5103 120.628 50.0232C115.143 55.82 112.845 65.4675 113.648 78.875C113.703 79.7846 113.158 80.5827 112.365 80.904C112.101 81.0103 111.811 81.0647 111.504 81.0492C110.622 81.0129 109.818 80.8548 109.093 80.5827C108.986 80.5438 108.884 80.4972 108.787 80.4454C107.95 80.0048 107.405 79.1342 107.334 78.1754C106.309 64.7212 107.887 53.423 113.828 45.7501C113.881 45.6775 113.935 45.6076 113.993 45.535C114.488 44.9079 115.36 44.7265 116.072 45.0971C117.299 45.7293 118.653 46.1854 120.182 46.3901C121.332 46.543 122.277 47.3904 122.517 48.5202H122.514Z" fill="#727EA3"/>
<path d="M109.074 108.058H109.077C110.569 108.771 112.349 108.955 114.285 108.714C115.349 112.788 115.446 115.617 113.687 116.073C113.75 117.328 113.706 118.569 113.567 119.8C113.52 120.217 113.463 120.634 113.398 121.049C113.233 122.062 112.385 122.832 111.355 122.909C106.789 123.246 102.05 122.619 97.2363 121.559C96.4379 121.38 95.7934 120.813 95.5116 120.067C95.4777 119.968 95.4464 119.867 95.4229 119.763C94.601 116.195 93.9722 112.445 93.5052 108.6C92.7746 102.606 92.4328 96.3792 92.3389 90.2404L93.0486 90.3596L92.6676 88.7089C92.7276 88.0974 92.9572 87.561 93.4634 87.1412L96.8058 87.3096L94.8593 78.6753C95.2794 78.3928 95.6812 78.0948 96.0648 77.7787C96.3283 77.5636 96.4483 77.2138 96.3675 76.8873L96.3596 76.8536C96.1979 76.2731 95.4829 76.0477 94.9768 76.3846L94.3819 76.7758H94.3793C94.9637 76.325 95.4725 75.8352 95.8848 75.2962C95.9969 75.1459 96.057 74.9645 96.0544 74.7779V74.7417C96.0309 74.042 95.1907 73.6818 94.635 74.112L94.0035 74.5991C94.6532 74.0498 95.2142 73.4304 95.6421 72.7023C95.7987 72.438 95.8143 72.114 95.6891 71.8342C95.6865 71.829 95.6838 71.8238 95.6812 71.8186C95.4516 71.3263 94.8019 71.2045 94.4053 71.5802C94.1992 71.772 93.9748 71.956 93.727 72.1296L93.954 71.8938C94.2436 71.5984 94.301 71.1527 94.0949 70.7925C93.92 70.4841 93.6122 70.3131 93.2964 70.3131C93.1921 70.3131 93.0851 70.3312 92.9859 70.3675L92.8398 69.7197C93.239 62.793 93.7896 56.6024 94.2305 51.7903C94.3479 50.4713 94.9428 49.2508 95.8691 48.2971C97.4163 46.7061 98.7157 44.9284 99.7594 42.9512C100.477 41.5934 101.072 40.1422 101.544 38.5952C104.333 38.6341 105.883 40.3884 106.979 42.7724C109.241 43.4954 111.524 44.5034 113.826 45.7447H113.828C107.887 53.4202 106.308 64.721 107.334 78.1726C107.407 79.1288 107.952 80.0021 108.787 80.4426C109.197 83.4692 110.047 86.2005 111.232 88.7037C107.459 90.8882 105.085 93.3293 104.68 96.1357C105.427 100.331 106.893 104.304 109.077 108.053L109.074 108.058Z" fill="#FF5635"/>
<path d="M113.776 85.5216C113.718 86.2731 113.672 86.9313 113.523 87.4962C112.711 87.8926 111.947 88.2969 111.232 88.7089C110.05 86.2057 109.197 83.4744 108.787 80.4478C108.886 80.4996 108.985 80.5462 109.092 80.5851C109.82 80.8572 110.621 81.0153 111.503 81.0515C111.809 81.0671 112.101 81.0127 112.364 80.9064C112.576 82.5104 113.001 84.0575 113.776 85.5216Z" fill="#727EA3"/>
<path d="M104.041 23.9958C104.333 27.9035 102.402 30.6866 99.6418 32.2466C96.5578 33.9854 92.4379 34.1953 89.2286 32.7312C86.5463 31.5055 84.5007 29.1085 84.2268 25.4625C78.9405 30.329 75.5199 18.6758 81.5836 20.3809C82.1759 20.5468 82.8569 20.8396 83.6371 21.2905C81.4271 9.66059 93.1371 5.04803 99.0339 10.6816C102.16 10.6608 103.347 14.1902 103.308 19.9741C104.015 19.3755 104.667 19.0153 105.252 18.8365C109.909 17.4242 110.52 27.6366 104.044 23.9984L104.041 23.9958Z" fill="#FFC9A6"/>
<path d="M100.884 36.4006L101.542 38.5981C101.069 40.1451 100.474 41.5962 99.7569 42.9541C95.2273 45.2241 91.5327 45.4236 88.7748 43.3065C88.7644 43.2728 88.7487 43.2417 88.7383 43.2055L88.9757 38.1524L89.1949 33.4595C92.005 34.921 96.0284 35.8461 100.887 36.4006H100.884Z" fill="#FFC9A6"/>
<path d="M100.884 36.4006C96.0258 35.8487 92.0025 34.921 89.1924 33.4595L89.2263 32.7287C92.4356 34.1928 96.5555 33.9829 99.6396 32.2441L100.884 36.398V36.4006Z" fill="#E8A376"/>
<path d="M99.7542 42.9541C98.7132 44.9313 97.4112 46.7115 95.8639 48.3C94.9377 49.2536 94.3428 50.4741 94.2253 51.7931C93.7844 56.6052 93.2338 62.7959 92.8346 69.7225L91.0734 61.9278C91.7492 58.655 92.2789 55.4314 92.5241 52.3062C92.652 50.6763 92.2032 49.0515 91.2404 47.7247C90.1811 46.2632 89.3253 44.7888 88.7695 43.3065C91.5274 45.4236 95.2221 45.2241 99.7516 42.9541H99.7542Z" fill="white"/>
<path d="M94.8568 78.6753L96.8033 87.3096L93.4609 87.1412C93.8941 86.781 94.5333 86.5115 95.4517 86.3586L93.8367 79.4553L93.7714 79.3387C94.1472 79.1288 94.5072 78.9085 94.8568 78.6779V78.6753Z" fill="#727EA3"/>
<path d="M94.3766 76.7734H94.3792L94.9741 76.3847C95.4803 76.0504 96.1952 76.2733 96.357 76.8537L96.3648 76.8874C96.4457 77.2139 96.3257 77.5638 96.0622 77.7789C95.6786 78.095 95.2768 78.393 94.8567 78.6754C94.5071 78.9087 94.147 79.1289 93.7713 79.3362C92.8555 79.8519 91.8666 80.295 90.8073 80.6811C88.5816 81.487 86.0559 82.0079 83.2797 82.3007H83.2771C83.2458 82.223 83.2015 82.1478 83.1571 82.0779C81.9673 80.2717 81.3542 78.3412 81.1219 76.3277C81.1063 76.2007 81.0724 76.0841 81.0176 75.9753C82.7423 72.1842 85.0696 69.8623 88.0989 69.256C88.1198 69.2534 88.1381 69.2508 88.1563 69.2482C88.5581 69.199 88.9312 69.484 88.9834 69.8883C88.986 69.9142 88.9886 69.9427 88.9913 69.9712C89.0147 70.264 88.8321 70.5283 88.566 70.6579C88.5399 70.6683 88.5138 70.6838 88.4903 70.6968C87.9502 70.9844 87.5014 71.4068 87.0839 71.8939C86.9561 72.0442 87.0605 72.2749 87.2561 72.2852C87.7858 72.3163 88.3155 72.293 88.8399 72.2101C89.8601 72.0546 90.8751 71.6789 91.8692 71.0777C92.1588 70.9067 92.4432 70.7149 92.7302 70.505C92.8085 70.448 92.892 70.4013 92.9781 70.3702C93.0799 70.334 93.1868 70.3158 93.2886 70.3158C93.6069 70.3158 93.9122 70.4843 94.087 70.7952C94.2931 71.1528 94.2331 71.6011 93.9461 71.8965L93.7191 72.1323C93.967 71.9587 94.1914 71.7747 94.3975 71.583C94.7915 71.2072 95.4412 71.329 95.6734 71.8214C95.676 71.824 95.6786 71.8292 95.6812 71.8369C95.8091 72.1168 95.7908 72.4407 95.6343 72.705C95.2063 73.4332 94.6454 74.0525 93.9957 74.6019L94.6271 74.1147C95.1829 73.6846 96.023 74.0448 96.0465 74.7444V74.7807C96.0491 74.9673 95.9891 75.1512 95.8769 75.2989C95.4647 75.8379 94.9559 76.3277 94.3714 76.7734H94.3766Z" fill="#FFC9A6"/>
<path d="M95.5115 120.066L73.897 119.911C73.9883 119.771 74.0692 119.621 74.1318 119.46C75.4834 115.91 76.6679 112.29 77.6881 108.602C83.6814 109.206 89.1164 109.354 93.4581 108.602L93.5024 108.597C93.9695 112.443 94.5983 116.195 95.4202 119.761C95.4437 119.864 95.475 119.968 95.5089 120.064L95.5115 120.066Z" fill="#3781A5"/>
<path d="M93.4636 87.1414C92.9548 87.5586 92.7278 88.0976 92.6678 88.7091L90.8101 80.6838C91.8694 80.3002 92.8583 79.8545 93.7741 79.3389L93.8393 79.4555L95.4544 86.3588C94.536 86.5117 93.8967 86.7812 93.4636 87.1414Z" fill="white"/>
<path d="M93.5028 108.597L93.4584 108.603C89.1167 109.354 83.6792 109.206 77.6885 108.603C79.4914 102.083 80.7856 95.3531 81.5631 88.4058L92.3365 90.2378C92.4278 96.3767 92.7722 102.604 93.5028 108.597Z" fill="white"/>
<path d="M81.5629 88.4085L77.4561 87.7088C77.4743 87.6337 77.49 87.5637 77.5082 87.4886C80.3549 86.211 82.3274 84.9802 83.1519 83.8167C83.4702 83.3684 83.5015 82.7931 83.2798 82.3007C86.0559 82.0079 88.5816 81.4871 90.8073 80.6812L92.665 88.7065L93.046 90.3572L92.3363 90.238L81.5629 88.4059V88.4085Z" fill="#727EA3"/>
<path d="M71.0063 51.0649L89.2915 54.0216L91.0762 61.9303L92.8374 69.725L92.9835 70.3728C92.8974 70.4039 92.8139 70.4506 92.7357 70.5076C92.4513 70.7175 92.1642 70.9092 91.8746 71.0803L88.0861 54.8974L67.8022 51.8733C66.2446 52.1869 65.5897 53.1405 65.4462 54.4569L85.5343 57.9215L88.1565 69.243C88.1383 69.2456 88.12 69.2482 88.0991 69.2508C85.0699 69.8572 82.7451 72.179 81.0178 75.9701C80.8534 75.6358 80.5168 75.4026 80.1228 75.3974C77.3414 75.3534 75.0532 76.3277 72.8536 77.4886C71.2203 75.7006 69.4617 75.1668 67.617 75.4415L63.938 58.064L63.064 53.9412L66.6725 50.3574L71.0037 51.0597L71.0063 51.0649Z" fill="#727EA3"/>
<path d="M88.7748 43.3063C89.3279 44.7886 90.1863 46.2631 91.2457 47.7246C92.2084 49.0513 92.6572 50.6761 92.5294 52.306C92.2841 55.4312 91.7544 58.6548 91.0787 61.9276L89.294 54.0189L71.0088 51.0622C74.5077 48.3361 78.5702 46.0842 83.2798 44.4491C84.1043 41.5753 85.9881 39.466 88.9757 38.1548L88.7382 43.2079C88.7487 43.2416 88.7643 43.2727 88.7748 43.3089V43.3063Z" fill="#FF5635"/>
<path d="M88.0885 54.8973L91.877 71.0802C90.8803 71.6813 89.868 72.0571 88.8478 72.2126L88.4955 70.6966C88.519 70.6811 88.5451 70.6681 88.5712 70.6578C88.8373 70.5256 89.0174 70.2613 88.9965 69.9711C88.9939 69.9426 88.9913 69.9141 88.9887 69.8882C88.9365 69.4839 88.5608 69.2015 88.1616 69.2481L85.5393 57.9266L65.4512 54.462C65.5947 53.143 66.2496 52.1894 67.8073 51.8784L88.0911 54.9025L88.0885 54.8973Z" fill="white"/>
<path d="M88.4956 70.6968L88.8478 72.2127C88.3234 72.2956 87.7937 72.3189 87.264 72.2878C87.0683 72.2775 86.964 72.0443 87.0918 71.8966C87.5067 71.4094 87.9581 70.9844 88.4982 70.6994L88.4956 70.6968Z" fill="#727EA3"/>
<path d="M81.0177 75.9749C81.0724 76.0838 81.1064 76.2004 81.122 76.3273C81.3516 78.3408 81.9674 80.2739 83.1572 82.0775C83.2041 82.1501 83.2459 82.2226 83.2772 82.3004H83.2798C83.5016 82.7927 83.4703 83.368 83.152 83.8163C82.3275 84.9798 80.3549 86.2081 77.5083 87.4882C77.49 87.5633 77.4744 87.6333 77.4561 87.7085C76.0837 93.4716 72.0316 97.001 67.2516 98.193C63.4813 99.131 59.2518 98.618 55.5207 96.5967C52.6323 95.0341 51.1085 91.7743 51.6434 88.5506C53.4646 77.5712 57.0966 66.6358 63.9405 58.0688L67.6195 75.4463C69.4642 75.1716 71.2228 75.7054 72.8561 77.4934C75.0557 76.3325 77.3439 75.3582 80.1253 75.4022C80.5167 75.4074 80.8559 75.6406 81.0203 75.9749H81.0177Z" fill="#FF5635"/>
<path d="M77.4587 87.7085L81.5656 88.4082C80.7854 95.3529 79.4939 102.085 77.6909 108.605C76.6707 112.292 75.4836 115.913 74.1346 119.463C74.0746 119.623 73.9937 119.771 73.8998 119.914C73.498 120.502 72.83 120.88 72.0968 120.898C70.5861 120.937 69.1693 120.89 67.9326 120.67C67.1368 120.528 66.5236 119.895 66.4062 119.105C66.1635 117.485 66.0696 115.687 66.0409 113.808C63.4604 113.326 65.2607 105.91 67.2568 98.193C72.0368 97.001 76.0889 93.4716 77.4613 87.7085H77.4587Z" fill="#FF5635"/>
<path d="M83.2486 24.5271C82.6432 24.5271 82.1579 24.312 81.9361 23.9414C81.7796 23.6823 81.7796 23.3869 81.9335 23.1303C82.1292 22.8064 82.531 22.6017 83.0711 22.5395L82.9485 22.4695C81.6596 21.7284 80.882 21.5704 80.4567 21.5704C80.0706 21.5704 79.9688 21.6999 79.9297 21.7466C79.8801 21.8088 79.7888 21.8191 79.7262 21.7699C79.6635 21.7207 79.6531 21.63 79.7027 21.5678C79.8018 21.446 79.9845 21.2827 80.4541 21.2827C80.9238 21.2827 81.7457 21.446 83.0894 22.2182L83.6504 22.5421C83.7078 22.5758 83.7339 22.6432 83.7156 22.7054C83.6973 22.7675 83.6347 22.809 83.5695 22.809C82.8885 22.7779 82.3693 22.9541 82.1762 23.2754C82.077 23.4413 82.077 23.6253 82.1788 23.7937C82.3614 24.0969 82.7998 24.2627 83.3477 24.2368C83.426 24.2316 83.4938 24.2938 83.499 24.3742C83.5017 24.4545 83.4416 24.5193 83.3608 24.5245C83.3216 24.5245 83.2825 24.5271 83.2433 24.5271H83.2486Z" fill="#E8A376"/>
<path d="M104.592 22.9462C104.537 22.9462 104.488 22.9151 104.462 22.8659C104.428 22.7934 104.456 22.7078 104.53 22.6742C105.145 22.3813 105.312 21.9304 105.205 21.6376C105.088 21.3189 104.626 21.0831 103.856 21.2774C103.791 21.2956 103.723 21.2645 103.692 21.2049C103.661 21.1453 103.676 21.0727 103.726 21.0312L104.002 20.798C104.999 19.9584 105.698 19.7822 106.108 19.7822C106.567 19.7822 106.969 20.0206 107.269 20.4689C107.314 20.5337 107.295 20.6244 107.227 20.6685C107.16 20.7125 107.071 20.6944 107.026 20.627C106.779 20.2564 106.471 20.0673 106.108 20.0673C105.745 20.0673 105.169 20.2176 104.3 20.925C104.939 20.9017 105.346 21.1893 105.474 21.5443C105.625 21.9564 105.43 22.5679 104.652 22.9385C104.631 22.9488 104.61 22.9514 104.59 22.9514L104.592 22.9462Z" fill="#E8A376"/>
<path d="M87.8019 23.283C85.4849 23.283 83.6011 21.4121 83.6011 19.111C83.6011 16.8099 85.4849 14.939 87.8019 14.939C90.1188 14.939 92.0027 16.8099 92.0027 19.111C92.0027 21.4121 90.1188 23.283 87.8019 23.283ZM87.8019 15.2266C85.6441 15.2266 83.8881 16.9706 83.8881 19.1136C83.8881 21.2566 85.6441 23.0006 87.8019 23.0006C89.9597 23.0006 91.7157 21.2566 91.7157 19.1136C91.7157 16.9706 89.9597 15.2266 87.8019 15.2266Z" fill="white"/>
<path d="M97.8395 21.7777C95.5225 21.7777 93.6387 19.9067 93.6387 17.6056C93.6387 15.3045 95.5225 13.4336 97.8395 13.4336C100.156 13.4336 102.04 15.3045 102.04 17.6056C102.04 19.9067 100.156 21.7777 97.8395 21.7777ZM97.8395 13.7186C95.6817 13.7186 93.9257 15.4626 93.9257 17.6056C93.9257 19.7487 95.6817 21.4926 97.8395 21.4926C99.9973 21.4926 101.753 19.7487 101.753 17.6056C101.753 15.4626 99.9973 13.7186 97.8395 13.7186Z" fill="white"/>
<path d="M91.8251 18.7586C91.7572 18.7586 91.6946 18.7094 91.6842 18.6394C91.645 18.4192 91.752 18.2093 91.9842 18.0434C92.1669 17.9138 92.4252 17.8128 92.7096 17.7635C92.994 17.7143 93.2706 17.7169 93.4871 17.7765C93.7637 17.8517 93.9385 18.0123 93.9777 18.23C93.9907 18.3077 93.9385 18.3829 93.8602 18.3958C93.782 18.4114 93.7063 18.357 93.6933 18.2792C93.6489 18.0253 93.1792 17.9683 92.7618 18.0434C92.3443 18.1186 91.9242 18.3336 91.9686 18.5876C91.9816 18.6653 91.9294 18.7405 91.8512 18.7534C91.8433 18.7534 91.8329 18.7534 91.8251 18.7534V18.7586Z" fill="white"/>
<path d="M91.4912 76.3978C91.439 76.3978 91.3895 76.3719 91.3634 76.3226C91.3242 76.2527 91.3503 76.1672 91.4208 76.1283C93.482 75.0166 94.7423 73.9386 95.512 72.63C95.6451 72.4045 95.6607 72.1299 95.5511 71.8915C95.4546 71.6867 95.2824 71.5546 95.0737 71.5157C94.8623 71.4769 94.6536 71.5365 94.4996 71.6842C93.6934 72.4486 92.4932 73.1249 90.8285 73.752C90.7554 73.7779 90.6719 73.7417 90.6432 73.6691C90.6145 73.5966 90.6537 73.5136 90.7267 73.4851C92.3549 72.871 93.5238 72.2128 94.3013 71.4768C94.5231 71.2644 94.8258 71.1763 95.1284 71.2333C95.4311 71.2903 95.679 71.4794 95.8068 71.7567C95.9608 72.0936 95.9425 72.4693 95.7625 72.7751C94.7397 74.5113 92.9785 75.6126 91.5591 76.3796C91.5382 76.3926 91.5147 76.3978 91.4912 76.3978Z" fill="#7D5623"/>
<path d="M91.4728 78.6107C91.418 78.6107 91.3658 78.5796 91.3424 78.5277C91.3084 78.4552 91.3424 78.3697 91.4128 78.3386C93.448 77.4083 94.8726 76.3873 95.7675 75.2134C95.8615 75.0916 95.911 74.9387 95.9084 74.7833V74.747C95.898 74.4827 95.7467 74.2572 95.5014 74.1432C95.2431 74.024 94.9457 74.0551 94.7213 74.2261L94.082 74.7211C94.0194 74.7703 93.9281 74.7574 93.8785 74.6952C93.8289 74.633 93.842 74.5423 93.9046 74.493L94.5438 73.9981C94.8517 73.7597 95.2666 73.7156 95.6214 73.8815C95.9685 74.0421 96.1824 74.3635 96.1928 74.7366V74.7755C96.1981 74.9958 96.125 75.2108 95.9945 75.3845C95.0709 76.5946 93.6097 77.6467 91.5302 78.5977C91.5093 78.6055 91.4911 78.6107 91.4702 78.6107H91.4728Z" fill="#7D5623"/>
<path d="M94.8572 78.8208C94.8102 78.8208 94.7658 78.7974 94.7371 78.7586C94.6928 78.6938 94.711 78.6031 94.7763 78.559C95.1937 78.2818 95.5956 77.9812 95.9713 77.6728C96.1931 77.4888 96.2922 77.196 96.2244 76.9265L96.2166 76.8954C96.1565 76.6777 95.9948 76.5041 95.7756 76.4238C95.5356 76.3357 95.2668 76.3642 95.0555 76.5041L94.4606 76.898C94.3953 76.942 94.304 76.9239 94.2597 76.8591C94.2153 76.7943 94.2336 76.7036 94.2988 76.6596L94.8937 76.2657C95.1833 76.074 95.5486 76.0325 95.8748 76.1543C96.1826 76.2683 96.4096 76.5093 96.4931 76.8177L96.5036 76.8565C96.5975 77.2349 96.4592 77.6417 96.1539 77.8931C95.7704 78.2092 95.3607 78.515 94.9354 78.7974C94.912 78.813 94.8833 78.8208 94.8546 78.8208H94.8572Z" fill="#7D5623"/>
<path d="M93.717 72.285C93.6805 72.285 93.6439 72.2721 93.6178 72.2436C93.5604 72.1892 93.5578 72.0985 93.6152 72.0415L93.8527 71.7979C94.0953 71.5491 94.1423 71.1656 93.9727 70.8676C93.777 70.5255 93.3908 70.3778 93.036 70.5074C92.9603 70.5359 92.8794 70.497 92.8507 70.4219C92.822 70.3467 92.8612 70.2664 92.9368 70.2379C93.43 70.0565 93.9596 70.2586 94.2258 70.7251C94.4606 71.1345 94.3928 71.6579 94.0614 71.9974L93.824 72.241C93.7953 72.2695 93.7587 72.285 93.7196 72.285H93.717Z" fill="#7D5623"/>
<path d="M67.2729 98.3305C67.2077 98.3305 67.1503 98.2865 67.132 98.2217C67.1138 98.1439 67.1581 98.0662 67.2364 98.048C72.3765 96.7602 76.0502 92.9794 77.3183 87.675C77.3366 87.5972 77.4148 87.548 77.4931 87.5687C77.5714 87.5869 77.6183 87.6646 77.6001 87.7423C76.3085 93.153 72.5565 97.0115 67.3094 98.3279C67.2964 98.3305 67.286 98.3331 67.2729 98.3331V98.3305Z" fill="#7D5623"/>
<path d="M112.73 108.961C111.329 108.961 110.084 108.704 109.015 108.188C108.944 108.155 108.913 108.069 108.947 107.997C108.981 107.927 109.067 107.895 109.14 107.929C110.544 108.603 112.271 108.818 114.267 108.574C114.348 108.564 114.418 108.621 114.429 108.699C114.439 108.777 114.382 108.849 114.303 108.859C113.761 108.927 113.236 108.961 112.73 108.961Z" fill="#7D5623"/>
<path d="M110.588 110.598C110.541 110.598 110.497 110.575 110.468 110.536C106.959 105.395 104.845 99.7354 104.182 93.7184C104.175 93.6406 104.232 93.5681 104.31 93.5603C104.386 93.5525 104.462 93.6095 104.469 93.6873C105.127 99.6603 107.225 105.276 110.708 110.375C110.752 110.44 110.737 110.531 110.669 110.575C110.645 110.59 110.617 110.601 110.588 110.601V110.598Z" fill="#7D5623"/>
<path d="M91.1572 50.0156C91.1572 50.0156 91.1415 50.0156 91.1337 50.0156C88.3001 49.5362 85.6492 47.9192 83.4705 45.3356C83.4183 45.276 83.4262 45.1853 83.4888 45.1335C83.5514 45.0817 83.6401 45.092 83.6923 45.1516C85.8579 47.717 88.3784 49.2589 91.1833 49.7331C91.2615 49.7461 91.3137 49.8212 91.3007 49.8989C91.2876 49.9689 91.2276 50.0181 91.1598 50.0181L91.1572 50.0156Z" fill="#7D5623"/>
<path d="M95.9866 49.7925C95.9214 49.7925 95.864 49.7485 95.8457 49.6837C95.8275 49.6059 95.8744 49.5282 95.9501 49.5101C99.209 48.6964 102.538 46.587 105.842 43.239C105.896 43.182 105.988 43.182 106.045 43.239C106.102 43.2935 106.102 43.3842 106.045 43.4412C102.705 46.828 99.329 48.9633 96.0179 49.7899C96.0075 49.7925 95.9945 49.7951 95.984 49.7951L95.9866 49.7925Z" fill="#7D5623"/>
<path d="M76.59 86.8072C76.5482 86.8072 76.5065 86.789 76.4778 86.7528C74.7818 84.6408 73.4511 81.8655 72.5222 78.5046C72.5014 78.4294 72.5457 78.3491 72.624 78.3284C72.6997 78.3076 72.7805 78.3517 72.8014 78.4294C73.7172 81.7515 75.0323 84.4931 76.7048 86.574C76.7543 86.6362 76.7439 86.7269 76.6813 86.7761C76.6552 86.7968 76.6239 86.8072 76.5926 86.8072H76.59Z" fill="#7D5623"/>
<path d="M104.678 96.2863C104.678 96.2863 104.665 96.2863 104.657 96.2863C104.579 96.2759 104.524 96.2033 104.534 96.123C105.08 92.3345 109.158 88.9606 117.004 85.8069C117.077 85.7784 117.163 85.8121 117.192 85.8873C117.22 85.9624 117.186 86.0453 117.111 86.0738C109.369 89.186 105.349 92.4848 104.819 96.1645C104.808 96.237 104.746 96.2889 104.675 96.2889L104.678 96.2863Z" fill="#7D5623"/>
<path d="M113.52 87.6413C113.52 87.6413 113.494 87.6413 113.484 87.6361C113.406 87.6154 113.361 87.5376 113.382 87.4599C113.523 86.9338 113.57 86.3223 113.625 85.6123C113.646 85.3298 113.669 85.0344 113.698 84.726C113.875 82.9095 115.195 81.3754 116.983 80.9064C118.019 80.6343 119.141 80.3907 120.419 80.1627C120.497 80.1497 120.573 80.199 120.586 80.2793C120.599 80.3571 120.547 80.4322 120.469 80.4452C119.198 80.6732 118.081 80.9142 117.053 81.1837C115.381 81.6216 114.147 83.0572 113.98 84.7545C113.951 85.0603 113.927 85.3557 113.907 85.6356C113.852 86.3586 113.805 86.9831 113.656 87.535C113.638 87.5998 113.58 87.6413 113.518 87.6413H113.52Z" fill="#7D5623"/>
<path d="M116.002 81.6039C116.002 81.6039 115.992 81.6039 115.986 81.6039C115.908 81.5961 115.851 81.5236 115.858 81.4458C116.127 79.0903 115.999 76.7659 115.864 74.3041C115.511 67.8725 115.146 61.2231 122.254 54.1306C122.311 54.0736 122.402 54.0736 122.457 54.1306C122.512 54.1877 122.514 54.2784 122.457 54.3328C115.441 61.3371 115.801 67.9217 116.151 74.2886C116.281 76.6545 116.414 79.0981 116.143 81.4795C116.135 81.5521 116.072 81.6065 115.999 81.6065L116.002 81.6039Z" fill="#7D5623"/>
<path d="M133.809 96.8693C133.778 96.8693 133.749 96.8589 133.723 96.8382C133.669 96.7915 133.663 96.7086 133.71 96.6542C134.029 96.2862 134.321 95.939 134.597 95.5892C137.107 92.4381 138.188 88.3464 137.564 84.3661C136.288 76.2579 133.491 68.2817 129.011 59.9791C127.315 56.8333 125.1 54.032 122.423 51.6584C122.368 51.6117 122.366 51.5288 122.412 51.4744C122.459 51.42 122.543 51.4174 122.598 51.464C125.298 53.8584 127.532 56.683 129.241 59.8547C133.734 68.1833 136.541 76.1879 137.822 84.3247C138.459 88.3775 137.358 92.5418 134.804 95.7498C134.522 96.1023 134.229 96.4521 133.909 96.8226C133.882 96.8512 133.846 96.8667 133.809 96.8667V96.8693Z" fill="#7D5623"/>
<path d="M113.826 45.8798C113.8 45.8798 113.774 45.872 113.75 45.8565C111.389 44.5841 109.095 43.5891 106.937 42.9024C106.904 42.892 106.875 42.8661 106.859 42.8324C105.57 40.0286 103.929 38.764 101.539 38.7303C101.466 38.7303 101.409 38.6707 101.411 38.5982C101.411 38.5256 101.476 38.4764 101.544 38.4712C104.759 38.5178 106.238 40.8759 107.073 42.6717C109.234 43.3662 111.527 44.3639 113.888 45.6362C113.899 45.6414 113.909 45.6492 113.92 45.6595C113.972 45.7114 113.972 45.7943 113.92 45.8435C113.894 45.8694 113.86 45.8824 113.826 45.8824V45.8798Z" fill="#7D5623"/>
<path d="M71.0064 51.1942C70.9672 51.1942 70.9307 51.1761 70.9046 51.145C70.8603 51.088 70.8707 51.0076 70.9255 50.9636C74.534 48.152 78.6539 45.9286 83.1704 44.3505C84.0184 41.4638 85.9518 39.3415 88.9211 38.0355C88.9863 38.0069 89.0646 38.0355 89.0933 38.1002C89.122 38.165 89.0933 38.2428 89.028 38.2713C86.1136 39.5514 84.2219 41.6426 83.4052 44.4853C83.3948 44.5267 83.3635 44.5578 83.3217 44.5708C78.8079 46.1385 74.6932 48.3567 71.0873 51.1631C71.0638 51.1813 71.0351 51.1916 71.0064 51.1916V51.1942Z" fill="#7D5623"/>
<path d="M63.5363 98.771C60.7732 98.771 57.9631 98.0687 55.4583 96.7135C52.549 95.1405 50.9652 91.8521 51.5132 88.5326C53.611 75.874 57.757 65.5994 63.8364 57.9938C63.8807 57.9368 63.9616 57.9291 64.019 57.9731C64.0764 58.0172 64.0842 58.1001 64.0399 58.1545C57.9892 65.7264 53.8614 75.9621 51.7689 88.5767C51.2366 91.7874 52.7682 94.9669 55.5809 96.488C59.1816 98.4367 63.4241 99.0146 67.2179 98.0713C67.2883 98.0532 67.3588 98.0973 67.377 98.1646C67.3953 98.2346 67.3509 98.3046 67.2831 98.3227C66.0672 98.6259 64.807 98.7736 63.5363 98.7736V98.771Z" fill="#7D5623"/>
<path d="M67.9303 120.798C67.9303 120.798 67.9147 120.798 67.9068 120.798C67.0562 120.645 66.4013 119.974 66.2735 119.124C66.0595 117.693 65.9421 116.035 65.9082 113.913C65.5742 113.824 65.3029 113.62 65.0993 113.301C63.8574 111.363 65.282 105.296 67.1241 98.1625C67.1423 98.0925 67.2128 98.0511 67.2832 98.0692C67.3537 98.0873 67.3954 98.1573 67.3772 98.2273C65.5481 105.304 64.1313 111.313 65.3185 113.164C65.5038 113.454 65.7464 113.625 66.0595 113.682C66.1195 113.692 66.1639 113.747 66.1665 113.806C66.2004 115.965 66.3152 117.644 66.5318 119.085C66.6414 119.823 67.2128 120.409 67.9512 120.541C68.0216 120.554 68.0686 120.622 68.0555 120.691C68.0451 120.754 67.9903 120.798 67.9277 120.798H67.9303Z" fill="#7D5623"/>
<path d="M112.104 116.146C112.104 116.146 112.088 116.146 112.083 116.146L96.0233 113.708C95.945 113.695 95.8902 113.622 95.9033 113.544C95.9163 113.467 95.9868 113.412 96.0677 113.425L112.127 115.864C112.205 115.877 112.26 115.949 112.247 116.027C112.237 116.097 112.174 116.149 112.104 116.149V116.146Z" fill="#7D5623"/>
<path d="M68.1492 113.707C68.0814 113.707 68.0188 113.658 68.0083 113.588C67.9953 113.51 68.0475 113.435 68.1258 113.422L74.7557 112.3C74.834 112.287 74.9096 112.339 74.9227 112.417C74.9357 112.495 74.8836 112.57 74.8053 112.583L68.1753 113.705C68.1753 113.705 68.1597 113.705 68.1519 113.705L68.1492 113.707Z" fill="#7D5623"/>
<path d="M111.47 81.1059C110.538 81.1059 109.623 80.9297 108.733 80.5799C108.66 80.5514 108.623 80.4684 108.652 80.3933C108.681 80.3207 108.764 80.2845 108.84 80.313C109.972 80.7587 111.151 80.909 112.346 80.7664C112.427 80.7535 112.498 80.8131 112.508 80.8908C112.519 80.9686 112.461 81.0411 112.383 81.0515C112.078 81.0878 111.775 81.1059 111.472 81.1059H111.47Z" fill="#7D5623"/>
</g>
<defs>
<clipPath id="clip0_479_475">
<rect width="138" height="123" fill="white"/>
</clipPath>
</defs>
</svg>
