<svg width="72" height="72" viewBox="0 0 72 72" fill="none" xmlns="http://www.w3.org/2000/svg">
<g clip-path="url(#clip0_1151_1862)">
<path d="M64.5019 0H7.49813C3.36375 0 0 3.36375 0 7.49813V23.58C0 27.7144 3.36375 31.0781 7.49813 31.0781H11.3456C13.1541 31.0781 14.625 32.5491 14.625 34.3575V41.8612C14.625 45.9956 17.9888 49.3594 22.1231 49.3594H49.8769C54.0112 49.3594 57.375 45.9956 57.375 41.8612V34.3575C57.375 32.5491 58.8459 31.0781 60.6544 31.0781H64.5019C68.6362 31.0781 72 27.7144 72 23.58V7.49813C72 3.36375 68.6362 0 64.5019 0ZM14.9611 23.2903C13.5098 23.2987 12.5241 23.3016 11.8477 23.3016C10.4681 23.3016 10.3866 23.2875 10.2839 23.2706C9.60891 23.1539 9.11531 22.5689 9.11531 21.8841V9.23906C9.11531 8.46141 9.74531 7.83281 10.5216 7.83281C11.2978 7.83281 11.9278 8.46141 11.9278 9.23906V20.4891C12.7716 20.4877 13.898 20.4834 14.9456 20.4778H14.9541C15.7261 20.4778 16.3547 21.1022 16.3589 21.8756C16.3645 22.6533 15.7373 23.2861 14.9611 23.2903ZM20.5748 23.3016C19.7972 23.3016 19.1686 22.6716 19.1686 21.8953V9.23906C19.1686 8.46141 19.7972 7.83281 20.5748 7.83281H25.9073C26.6836 7.83281 27.3136 8.46141 27.3136 9.23906C27.3136 10.0153 26.6836 10.6453 25.9073 10.6453H21.9811V14.1609H25.5136C26.2898 14.1609 26.9198 14.7895 26.9198 15.5672C26.9198 16.3434 26.2898 16.9734 25.5136 16.9734H21.9811V20.4891H25.9073C26.6836 20.4891 27.3136 21.1177 27.3136 21.8953C27.3136 22.6716 26.6836 23.3016 25.9073 23.3016H20.5748ZM35.4234 36.2194C35.4234 37.6538 34.875 39.638 32.265 40.9542C31.4367 41.3705 30.5227 41.5828 29.5481 41.5828H29.5397C28.4105 41.58 27.3713 41.2819 26.4516 40.6941C24.6783 39.5606 23.8162 38.1009 23.8162 36.2292V27.5203C23.8162 26.7427 24.4463 26.1141 25.2225 26.1141C26.0002 26.1141 26.6287 26.7427 26.6287 27.5203V36.2292C26.6287 37.1109 27.0169 37.717 27.9661 38.3231C28.8165 38.8936 30.1026 38.9019 30.9994 38.4412C32.4281 37.7227 32.6109 36.8761 32.6109 36.2194V27.5203C32.6109 26.7427 33.2409 26.1141 34.0172 26.1141C34.7934 26.1141 35.4234 26.7427 35.4234 27.5203V36.2194ZM36.0366 23.3016H36.0253C36.0169 23.3016 36.0098 23.3016 36.0014 23.3002C35.2955 23.2917 34.6669 22.8431 34.4306 22.1752L30.0994 9.70031C29.8448 8.96625 30.233 8.16469 30.967 7.91016C31.7011 7.65562 32.5027 8.04375 32.7572 8.77781L36.0014 18.1252L39.0938 8.81859C39.3384 8.08172 40.1344 7.68234 40.8713 7.92703C41.6081 8.17172 42.0075 8.96766 41.7628 9.70453L37.6298 22.1442C37.395 22.8347 36.7566 23.2959 36.0366 23.3016ZM43.1353 36.0689C42.6502 36.0689 41.7712 36.0731 41.0175 36.0773V40.1766C41.0175 40.9528 40.3875 41.5828 39.6112 41.5828C38.835 41.5828 38.205 40.9528 38.205 40.1766V27.5203C38.1923 26.7652 38.8561 26.0986 39.6112 26.1141H43.1353C45.9183 26.1141 48.1838 28.3472 48.1838 31.0908C48.1838 33.8358 45.9183 36.0689 43.1353 36.0689ZM51.1073 14.1609C51.8836 14.1609 52.5136 14.7895 52.5136 15.5672C52.5136 16.3434 51.8836 16.9734 51.1073 16.9734H47.5748V20.4891H51.5011C52.2773 20.4891 52.9073 21.1177 52.9073 21.8953C52.9073 22.6716 52.2773 23.3016 51.5011 23.3016H46.1686C45.3909 23.3016 44.7623 22.6716 44.7623 21.8953V9.23906C44.7623 8.46141 45.3909 7.83281 46.1686 7.83281H51.5011C52.2773 7.83281 52.9073 8.46141 52.9073 9.23906C52.9073 10.0153 52.2773 10.6453 51.5011 10.6453H47.5748V14.1609H51.1073ZM61.4869 23.2355C60.0356 23.2439 56.9109 23.2327 56.8097 23.2144C56.1347 23.0991 55.6411 22.5141 55.6411 21.8292V9.18281C55.6411 8.40656 56.2697 7.77656 57.0473 7.77656C57.8236 7.77656 58.4536 8.40656 58.4536 9.18281V20.4328C59.2973 20.4328 60.4223 20.4286 61.47 20.423C62.2477 20.4173 62.8805 21.0445 62.8847 21.8208C62.8889 22.5984 62.2631 23.2312 61.4869 23.2355ZM43.1353 28.9266H41.0217C41.0245 29.7352 41.0302 32.49 41.0344 33.2648C41.7853 33.2606 42.6516 33.2564 43.1353 33.2564C44.3475 33.2564 45.3713 32.265 45.3713 31.0908C45.3713 29.918 44.3475 28.9266 43.1353 28.9266Z" fill="white"/>
<path d="M27.9293 54.223C27.1435 53.4073 25.7314 53.4074 24.9456 54.223L20.0508 59.1178C19.227 59.9416 19.227 61.2771 20.0508 62.1009C20.8745 62.9246 22.2101 62.9246 23.0339 62.1009L24.3282 60.8067V69.8906C24.3282 71.0556 25.2726 72 26.4376 72C27.6025 72 28.547 71.0556 28.547 69.8906V60.8067L29.8413 62.1009C30.2532 62.5127 30.793 62.7188 31.3327 62.7188C31.8725 62.7188 32.4125 62.5129 32.8242 62.1009C33.648 61.2771 33.648 59.9416 32.8242 59.1178L27.9293 54.223Z" fill="white"/>
<path d="M51.9492 59.1179L47.0545 54.2232C46.2695 53.4068 44.8555 53.4068 44.0707 54.2232L39.1759 59.1179C38.3522 59.9417 38.3522 61.2772 39.1759 62.101C39.9996 62.9248 41.3352 62.9248 42.159 62.101L43.4532 60.8068V69.8906C43.4532 71.0556 44.3976 72 45.5626 72C46.7275 72 47.6719 71.0556 47.6719 69.8906V60.8067L48.9661 62.1008C49.378 62.5127 49.9179 62.7188 50.4576 62.7188C50.9973 62.7188 51.5373 62.5127 51.949 62.1008C52.773 61.2772 52.773 59.9416 51.9492 59.1179Z" fill="white"/>
<path d="M69.8906 47.4609H68.8359V45.5625C68.8359 44.3976 67.8915 43.4531 66.7266 43.4531C65.5616 43.4531 64.6172 44.3976 64.6172 45.5625V47.4609H63.5625C62.3976 47.4609 61.4531 48.4054 61.4531 49.5703C61.4531 50.7352 62.3976 51.6797 63.5625 51.6797H64.6172V53.5781C64.6172 54.7431 65.5616 55.6875 66.7266 55.6875C67.8915 55.6875 68.8359 54.7431 68.8359 53.5781V51.6797H69.8906C71.0556 51.6797 72 50.7352 72 49.5703C72 48.4054 71.0556 47.4609 69.8906 47.4609Z" fill="white"/>
<path d="M63.8438 39.6567C65.0087 39.6567 65.9531 38.7123 65.9531 37.5473C65.9531 36.3823 65.0087 35.4379 63.8438 35.4379C62.6788 35.4379 61.7344 36.3823 61.7344 37.5473C61.7344 38.7123 62.6788 39.6567 63.8438 39.6567Z" fill="white"/>
<path d="M2.10938 47.4609H3.16406V45.5625C3.16406 44.3976 4.1085 43.4531 5.27344 43.4531C6.43837 43.4531 7.38281 44.3976 7.38281 45.5625V47.4609H8.4375C9.60244 47.4609 10.5469 48.4054 10.5469 49.5703C10.5469 50.7352 9.60244 51.6797 8.4375 51.6797H7.38281V53.5781C7.38281 54.7431 6.43837 55.6875 5.27344 55.6875C4.1085 55.6875 3.16406 54.7431 3.16406 53.5781V51.6797H2.10938C0.944437 51.6797 0 50.7352 0 49.5703C0 48.4054 0.944437 47.4609 2.10938 47.4609Z" fill="white"/>
<path d="M8.15625 39.6567C9.32123 39.6567 10.2656 38.7123 10.2656 37.5473C10.2656 36.3823 9.32123 35.4379 8.15625 35.4379C6.99127 35.4379 6.04688 36.3823 6.04688 37.5473C6.04688 38.7123 6.99127 39.6567 8.15625 39.6567Z" fill="white"/>
</g>
<defs>
<clipPath id="clip0_1151_1862">
<rect width="72" height="72" fill="white"/>
</clipPath>
</defs>
</svg>
