<svg width="20" height="20" viewBox="0 0 20 20" fill="none" xmlns="http://www.w3.org/2000/svg">
<path d="M15.0133 7.87327V5.51336C15.0133 2.75004 12.7667 0.5 9.99996 0.5C7.23664 0.5 4.9866 2.75004 4.9866 5.51336V7.87327C3.82992 7.96993 2.91992 8.9466 2.91992 10.1265V12.94C2.91992 16.5566 5.85989 19.5 9.47655 19.5H10.5232C14.1399 19.5 17.0798 16.5566 17.0798 12.94V10.1265C17.0798 8.94651 16.17 7.96991 15.0133 7.87327ZM7.15664 5.51336C7.31247 1.74587 12.6876 1.74673 12.8433 5.51336V7.86345H7.15664L7.15664 5.51336ZM9.20666 13.9435C8.03665 13.1802 8.60748 11.3144 10 11.3267C11.3925 11.3151 11.9642 13.1792 10.7934 13.9435C10.7034 14.0035 10.6467 14.1102 10.6467 14.2202V15.3902C10.625 16.2418 9.37585 16.2435 9.35334 15.3902V14.2202C9.35334 14.1102 9.29666 14.0035 9.20666 13.9435Z" fill="#727EA3"/>
</svg>
