<svg width="22" height="22" viewBox="0 0 22 22" fill="none" xmlns="http://www.w3.org/2000/svg">
<path d="M20.1667 5.72884V10.4038C20.1667 11.568 19.7817 12.5488 19.0942 13.2272C18.4158 13.9147 17.435 14.2997 16.2708 14.2997V15.9588C16.2708 16.5821 15.5742 16.958 15.0608 16.6097L14.1717 16.023C14.2542 15.7388 14.2908 15.4271 14.2908 15.0971V11.3664C14.2908 9.49636 13.0442 8.24967 11.1742 8.24967H4.95C4.82167 8.24967 4.70251 8.25886 4.58334 8.26803V5.72884C4.58334 3.39134 6.14168 1.83301 8.47918 1.83301H16.2708C18.6083 1.83301 20.1667 3.39134 20.1667 5.72884Z" stroke="#292D32" stroke-width="1.5" stroke-miterlimit="10" stroke-linecap="round" stroke-linejoin="round"/>
<path d="M14.2908 11.3667V15.0975C14.2908 15.4275 14.2542 15.7391 14.1717 16.0233C13.8325 17.3708 12.7142 18.2142 11.1742 18.2142H8.68084L5.91251 20.0567C5.50001 20.3408 4.95 20.0383 4.95 19.5433V18.2142C4.015 18.2142 3.23585 17.9025 2.69501 17.3617C2.14501 16.8117 1.83334 16.0325 1.83334 15.0975V11.3667C1.83334 9.62502 2.91501 8.42418 4.58334 8.26835C4.70251 8.25918 4.82167 8.25 4.95 8.25H11.1742C13.0442 8.25 14.2908 9.49669 14.2908 11.3667Z" stroke="#292D32" stroke-width="1.5" stroke-miterlimit="10" stroke-linecap="round" stroke-linejoin="round"/>
</svg>
