<?xml version="1.0" encoding="UTF-8"?>
<svg id="Layer_1" xmlns="http://www.w3.org/2000/svg" version="1.1" viewBox="0 0 1280 420">
  <!-- Generator: Adobe Illustrator 30.1.0, SVG Export Plug-In . SVG Version: 2.1.1 Build 136)  -->
  <defs>
    <style>
      .st0 {
        font-size: 36px;
      }

      .st0, .st1, .st2 {
        fill: #f8f7f3;
      }

      .st3, .st4 {
        fill: #ffcb00;
      }

      .st4, .st5 {
        font-family: ArtegraSoft-Regular, ArtegraSoft-Regular;
      }

      .st4, .st6 {
        font-size: 18px;
      }

      .st7 {
        stroke-width: 1.7px;
      }

      .st7, .st8, .st9, .st6, .st10 {
        fill: #fff;
      }

      .st7, .st1, .st11, .st12, .st2, .st10, .st13 {
        font-family: ArtegraSoft-SemiBold, ArtegraSoft-SemiBold;
        font-weight: 600;
      }

      .st7, .st14 {
        stroke: #ffcb00;
        stroke-miterlimit: 10;
      }

      .st8 {
        font-family: ArtegraSoft-RegularItalic, ArtegraSoft-RegularItalic;
        font-style: italic;
      }

      .st1, .st11, .st15, .st10, .st13 {
        font-size: 24px;
      }

      .st16 {
        font-family: ArtegraSoft-Medium, ArtegraSoft-Medium;
        font-size: 20px;
        font-weight: 500;
      }

      .st15, .st17, .st13 {
        fill: #ff5635;
      }

      .st18 {
        font-size: 17px;
      }

      .st6 {
        font-family: ArtegraSoft-Light, ArtegraSoft-Light;
        font-weight: 300;
      }

      .st2 {
        font-size: 28px;
      }

      .st14 {
        fill: none;
      }
    </style>
  </defs>
  <rect y="0" width="1280" height="420" rx="30" ry="30"/>
  <rect class="st3" x="884.2" y="151.7" width="335.6" height="207.7" rx="14" ry="14"/>
  <g>
    <path class="st9" d="M885,211V77.9c0-7.3,5.9-13.2,13.2-13.2h307.6c7.3,0,13.2,5.9,13.2,13.2v133.1h-333.9Z"/>
    <path class="st3" d="M1205.8,65.6c6.8,0,12.3,5.5,12.3,12.3v132.3h-332.3V77.9c0-6.8,5.5-12.3,12.3-12.3h307.6M1205.8,63.9h-307.6c-7.7,0-14,6.3-14,14v133.9h335.6V77.9c0-7.7-6.3-14-14-14h0Z"/>
  </g>
  <text class="st12" transform="translate(62.7 74.6)"><tspan class="st15"><tspan x="0" y="0">Ultimate Series </tspan></tspan><tspan class="st0"><tspan x="0" y="43.2">IPMAT 2026 </tspan></tspan><tspan class="st0"><tspan x="0" y="86.4">Full Access</tspan></tspan></text>
  <rect class="st17" x="62.7" y="279.4" width="218" height="80" rx="10" ry="10"/>
  <text class="st2" transform="translate(96.6 327.7)"><tspan x="0" y="0">Enroll Now</tspan></text>
  <text class="st18" transform="translate(904.6 240.3)"><tspan class="st8" x="0" y="0">✓</tspan><tspan class="st7" x="13.4" y="0"> </tspan><tspan class="st5" x="17.9" y="0">Past Year Papers</tspan><tspan class="st8" x="0" y="25">✓</tspan><tspan class="st7" x="13.4" y="25"> </tspan><tspan class="st5" x="17.9" y="25">Difficulty-Level Based Questions</tspan><tspan class="st8" x="0" y="50">✓</tspan><tspan class="st7" x="13.4" y="50"> </tspan><tspan class="st5" x="17.9" y="50">Bookmark Questions</tspan><tspan class="st8" x="0" y="75">✓</tspan><tspan class="st7" x="13.4" y="75"> </tspan><tspan class="st5" x="17.9" y="75">Interview Preparation Support </tspan><tspan class="st8" x="0" y="100">✓</tspan><tspan class="st7" x="13.4" y="100"> </tspan><tspan class="st5" x="17.9" y="100">Community Access</tspan></text>
  <text transform="translate(380 109.9)"><tspan><tspan class="st13" x="0" y="0">25 Mocks</tspan><tspan class="st10" x="113.6" y="0"> </tspan><tspan class="st6" x="120.1" y="0">(Each)</tspan></tspan><tspan class="st1"><tspan x="0" y="32">IPMAT-Rohtak</tspan></tspan><tspan class="st1"><tspan x="0" y="64">IPMAT-Indore</tspan></tspan><tspan class="st1"><tspan x="0" y="96">JIPMAT</tspan></tspan></text>
  <text transform="translate(616 109.9)"><tspan><tspan class="st13" x="0" y="0">10 Mocks</tspan><tspan class="st10" x="108.9" y="0"> </tspan><tspan class="st6" x="115.4" y="0">(Each)</tspan></tspan><tspan class="st1"><tspan x="0" y="32">SET</tspan></tspan><tspan class="st1"><tspan x="0" y="64">NPAT</tspan></tspan><tspan class="st1"><tspan x="0" y="96">CHRIST</tspan></tspan><tspan class="st1"><tspan x="0" y="128">St. Xavier&apos;s</tspan></tspan><tspan class="st1"><tspan x="0" y="160">IIM-B DBE</tspan></tspan></text>
  <text class="st4" transform="translate(380 344.7)"><tspan x="0" y="0">Target every top B-School with dedicated mocks.</tspan></text>
  <line class="st14" x1="349.7" y1="63.9" x2="349.7" y2="359.4"/>
  <text transform="translate(904.6 107.3)"><tspan class="st11"><tspan class="st17" x="0" y="0">✓ </tspan><tspan x="26.2" y="0">Daily Practice</tspan></tspan><tspan class="st11"><tspan class="st17" x="0" y="30">✓ </tspan><tspan x="26.2" y="30">Topic-wise Test</tspan></tspan><tspan class="st11"><tspan class="st17" x="0" y="60">✓ </tspan><tspan x="26.2" y="60">Sectional Tests </tspan></tspan><tspan><tspan class="st11" x="0" y="82" xml:space="preserve">    </tspan><tspan class="st16" x="25.9" y="82">(QA, LRDI, VARC)</tspan></tspan></text>
</svg>