<svg width="28" height="28" viewBox="0 0 28 28" fill="none" xmlns="http://www.w3.org/2000/svg">
<path d="M14 17.6743C12.7453 17.6743 11.5188 17.3023 10.4756 16.6052C9.43238 15.9081 8.61929 14.9174 8.13914 13.7582C7.659 12.599 7.53337 11.3235 7.77815 10.093C8.02292 8.8624 8.6271 7.73205 9.51429 6.84486C10.4015 5.95767 11.5318 5.35349 12.7624 5.10871C13.993 4.86394 15.2685 4.98957 16.4276 5.46971C17.5868 5.94985 18.5776 6.76295 19.2746 7.80617C19.9717 8.8494 20.3438 10.0759 20.3438 11.3306C20.3418 13.0124 19.6728 14.6249 18.4836 15.8141C17.2943 17.0034 15.6819 17.6724 14 17.6743ZM14 5.86182C12.9184 5.86182 11.8611 6.18256 10.9617 6.78347C10.0624 7.38438 9.36145 8.23849 8.94754 9.23777C8.53362 10.2371 8.42532 11.3366 8.63633 12.3975C8.84735 13.4583 9.36819 14.4327 10.133 15.1976C10.8978 15.9624 11.8723 16.4832 12.9331 16.6942C13.9939 16.9053 15.0935 16.797 16.0928 16.383C17.0921 15.9691 17.9462 15.2682 18.5471 14.3688C19.148 13.4695 19.4688 12.4122 19.4688 11.3306C19.4671 9.88067 18.8904 8.49062 17.8652 7.46538C16.84 6.44014 15.4499 5.86345 14 5.86182Z" fill="#FF5635"/>
<path d="M22.6834 12.4775C23.0223 12.1846 23.2393 11.7754 23.2916 11.3306C23.2392 10.8856 23.0222 10.4763 22.6834 10.1832C22.5293 10.0396 22.4048 9.86737 22.3168 9.67605C22.3229 9.4565 22.3729 9.24039 22.464 9.04052C22.6609 8.64817 22.7046 8.19652 22.5864 7.77373C22.3687 7.38628 22.0141 7.09416 21.5922 6.9547C21.3912 6.88 21.2071 6.76615 21.0504 6.61974C20.9733 6.41719 20.9376 6.20124 20.9453 5.98465C20.9768 5.54422 20.8432 5.10784 20.5704 4.76059C20.2232 4.48784 19.7868 4.35419 19.3464 4.38568C19.1296 4.39323 18.9136 4.35743 18.7108 4.28036C18.5645 4.12361 18.4508 3.9394 18.3761 3.7384C18.2365 3.31652 17.9444 2.96196 17.5571 2.7442C17.1344 2.62584 16.6828 2.66941 16.2905 2.86639C16.0907 2.95778 15.8744 3.00784 15.6548 3.01358C15.4633 2.92567 15.291 2.80114 15.1474 2.647C14.8543 2.30815 14.445 2.0912 14 2.03882C13.5551 2.0912 13.1458 2.30815 12.8527 2.647C12.7092 2.80112 12.5369 2.92566 12.3455 3.01358C12.1259 3.00765 11.9097 2.9576 11.7098 2.86639C11.3175 2.66947 10.8659 2.6259 10.4432 2.7442C10.0557 2.96189 9.76357 3.31659 9.62418 3.73864C9.5495 3.93945 9.4358 4.12349 9.28964 4.28015C9.08696 4.35704 8.87098 4.39277 8.65433 4.38525C8.21383 4.35376 7.77738 4.48741 7.43005 4.76016C7.15728 5.10748 7.02362 5.54393 7.05515 5.98443C7.06262 6.20099 7.02696 6.41688 6.95026 6.61954C6.79349 6.76572 6.60938 6.87948 6.40851 6.95428C5.98641 7.09367 5.63165 7.38579 5.41388 7.77331C5.29565 8.19622 5.33922 8.648 5.53607 9.04052C5.62713 9.24032 5.67717 9.45636 5.68325 9.67584C5.59535 9.86727 5.47082 10.0396 5.31668 10.1832C4.97783 10.4763 4.76088 10.8856 4.7085 11.3306C4.7608 11.7754 4.97777 12.1846 5.31668 12.4775C5.47072 12.6212 5.59524 12.7935 5.68325 12.9849C5.67721 13.2044 5.62709 13.4206 5.53586 13.6204C5.33911 14.0128 5.29555 14.4644 5.41366 14.8872C5.63132 15.2746 5.98591 15.5667 6.40786 15.7062C6.60884 15.7809 6.79298 15.8947 6.94962 16.0412C7.02672 16.2437 7.06246 16.4597 7.05472 16.6763C7.02325 17.1167 7.15682 17.553 7.42941 17.9003C7.77675 18.1732 8.2133 18.307 8.6539 18.2754C8.75715 18.281 8.86445 18.2878 8.96461 18.2986C8.7805 18.8987 8.58543 19.4988 8.37491 20.0874C7.93378 21.3217 7.42706 22.5505 6.86887 23.7397C6.8319 23.8184 6.81925 23.9064 6.83253 23.9924C6.84581 24.0783 6.88442 24.1584 6.94342 24.2223C7.00242 24.2862 7.07914 24.3311 7.16376 24.3512C7.24839 24.3712 7.33708 24.3657 7.41852 24.3351L10.1243 23.3206L11.6098 25.7518C11.6489 25.8158 11.7038 25.8686 11.7692 25.9053C11.8346 25.9419 11.9083 25.9612 11.9832 25.9612L11.9954 25.961C12.0724 25.9588 12.1474 25.9364 12.2129 25.896C12.2785 25.8556 12.3322 25.7985 12.3686 25.7307C12.9132 24.7162 13.4026 23.6729 13.8347 22.6056C13.8693 22.5202 13.8993 22.431 13.9334 22.3448C13.9674 22.4311 13.9974 22.52 14.0321 22.6056C14.4642 23.6729 14.9536 24.7161 15.4982 25.7307C15.5346 25.7985 15.5883 25.8556 15.6538 25.896C15.7193 25.9364 15.7944 25.9589 15.8714 25.961L15.8835 25.9612C15.9585 25.9612 16.0321 25.942 16.0975 25.9053C16.1629 25.8686 16.2177 25.8158 16.2567 25.7518L17.7427 23.3206L20.4484 24.3351C20.5299 24.3657 20.6186 24.3712 20.7032 24.3511C20.7879 24.331 20.8646 24.2861 20.9236 24.2222C20.9826 24.1583 21.0212 24.0782 21.0345 23.9922C21.0478 23.9062 21.0351 23.8182 20.9981 23.7395C20.4405 22.5526 19.9338 21.3239 19.492 20.0874C19.2839 19.5053 19.0901 18.9114 18.9077 18.3179C19.0527 18.2952 19.199 18.2811 19.3457 18.2757C19.7862 18.3072 20.2227 18.1735 20.57 17.9008C20.8428 17.5534 20.9764 17.117 20.9449 16.6765C20.9373 16.46 20.9731 16.2441 21.05 16.0416C21.2067 15.8952 21.3909 15.7814 21.592 15.7066C22.0139 15.5672 22.3684 15.2752 22.5862 14.8878C22.7044 14.4648 22.6608 14.013 22.464 13.6204C22.3729 13.4206 22.3229 13.2046 22.3168 12.9851C22.4047 12.7936 22.5293 12.6212 22.6834 12.4775ZM11.9529 24.635L10.6825 22.5558C10.6294 22.469 10.5478 22.4035 10.4516 22.3703C10.3554 22.3372 10.2507 22.3386 10.1555 22.3743L8.09976 23.1452C8.4986 22.2365 8.8671 21.3108 9.19907 20.3818C9.36169 19.9265 9.51481 19.4643 9.66266 19.0007C9.79956 19.3926 10.0778 19.7193 10.443 19.9167C10.8658 20.0342 11.3171 19.9906 11.7096 19.7945C11.9096 19.7037 12.1257 19.6537 12.3453 19.6474C12.5367 19.7353 12.7091 19.8598 12.8527 20.0139C13.0811 20.2482 13.3538 20.4346 13.655 20.5625C13.6097 20.6968 13.5689 20.8276 13.5209 20.9639C13.3651 21.405 13.1979 21.847 13.0236 22.2775C12.7016 23.0736 12.3427 23.8638 11.9529 24.635ZM19.7672 23.1452L17.7115 22.3742C17.6163 22.3385 17.5116 22.3371 17.4154 22.3702C17.3193 22.4034 17.2377 22.469 17.1847 22.5558L15.9139 24.635C15.5247 23.8647 15.1658 23.0745 14.8432 22.2774C14.6868 21.8912 14.5391 21.4952 14.3976 21.1002C14.4761 20.874 14.5507 20.6508 14.6215 20.4305C14.8092 20.308 14.9852 20.1686 15.1474 20.0139C15.2909 19.8598 15.4632 19.7352 15.6545 19.6473C15.8742 19.6534 16.0903 19.7034 16.2903 19.7945C16.6828 19.9906 17.1341 20.0342 17.5568 19.9167C17.8728 19.7586 18.121 19.4917 18.2557 19.1651C18.3878 19.5735 18.5244 19.9804 18.6679 20.3818C19.0003 21.3119 19.3686 22.2377 19.7672 23.1452ZM22.0331 11.8924C21.7618 12.1425 21.5632 12.4614 21.4585 12.8152C21.4204 13.1902 21.4827 13.5686 21.639 13.9116C21.7345 14.1115 21.782 14.3311 21.7778 14.5526C21.7281 14.6725 21.4439 14.8079 21.2156 14.9166C20.8666 15.0463 20.5585 15.2665 20.3228 15.5547C20.145 15.8844 20.0582 16.2554 20.0712 16.6297C20.0832 16.8536 20.0422 17.0771 19.9513 17.2821C19.7463 17.373 19.5227 17.414 19.2987 17.402C18.9244 17.3889 18.5534 17.4758 18.2238 17.6536C18.1905 17.6792 18.1589 17.7068 18.1289 17.7362C18.1082 17.7511 18.089 17.7678 18.0714 17.7862C17.8665 18.0092 17.7022 18.2664 17.5859 18.5461C17.4772 18.7745 17.3417 19.0586 17.2219 19.1084C17.0005 19.1129 16.7811 19.0653 16.5815 18.9695C16.2384 18.8127 15.8597 18.7503 15.4845 18.789C15.1309 18.8939 14.8122 19.0923 14.5621 19.3635C14.3722 19.5344 14.1357 19.7471 14 19.7471C13.8644 19.7471 13.6279 19.5344 13.438 19.3635C13.1878 19.0923 12.8691 18.8939 12.5154 18.789C12.4416 18.7747 12.3666 18.7676 12.2915 18.7679C11.9912 18.7858 11.6961 18.854 11.4184 18.9695C11.2188 19.0653 10.9995 19.1129 10.7782 19.1084C10.6581 19.0586 10.5227 18.7745 10.414 18.5461C10.2843 18.1972 10.0641 17.8891 9.77608 17.6534C9.44641 17.4755 9.07529 17.3886 8.70092 17.4018C8.47695 17.4138 8.25331 17.3726 8.04828 17.2817C7.95756 17.0767 7.9165 16.8533 7.92844 16.6295C7.94158 16.2551 7.85471 15.884 7.67679 15.5543C7.44116 15.2661 7.13302 15.0459 6.78406 14.9162C6.55591 14.8075 6.27179 14.6721 6.22201 14.5522C6.21792 14.3308 6.26553 14.1115 6.36108 13.9118C6.51739 13.5687 6.57969 13.1902 6.54159 12.8151C6.43682 12.4613 6.23825 12.1425 5.96695 11.8924C5.79627 11.7025 5.5835 11.466 5.5835 11.3306C5.5835 11.1949 5.79627 10.9585 5.96718 10.7685C6.23837 10.5183 6.43685 10.1995 6.54162 9.84569C6.57971 9.47071 6.51741 9.09235 6.36111 8.74938C6.2656 8.54947 6.21805 8.33003 6.22225 8.10851C6.27203 7.98845 6.55636 7.85301 6.78472 7.74428C7.13353 7.61458 7.44156 7.39442 7.67722 7.10641C7.855 6.77677 7.94186 6.40576 7.92887 6.03147C7.91681 5.80752 7.95787 5.5839 8.04871 5.37885C8.25376 5.28801 8.47739 5.24695 8.70133 5.25901C9.07563 5.27205 9.44665 5.18519 9.77627 5.00736C10.0643 4.7717 10.2844 4.46367 10.4141 4.11486C10.5229 3.88649 10.6583 3.60238 10.7781 3.55261C10.9995 3.54892 11.2187 3.59645 11.4186 3.69146C11.7618 3.8476 12.1404 3.90989 12.5155 3.87197C12.8692 3.76714 13.1879 3.56866 13.438 3.29754C13.6279 3.12664 13.8644 2.91387 14 2.91387C14.1357 2.91387 14.3721 3.12664 14.562 3.29754C14.8122 3.56867 15.131 3.76714 15.4847 3.87197C15.8599 3.91047 16.2386 3.84816 16.5816 3.69146C16.7811 3.59526 17.0005 3.54767 17.2219 3.55261C17.3419 3.60238 17.4774 3.8865 17.5861 4.11486C17.7157 4.46377 17.9359 4.77189 18.224 5.00759C18.5537 5.18546 18.9249 5.27239 19.2993 5.25945C19.5232 5.2475 19.7467 5.28856 19.9518 5.3793C20.0425 5.58423 20.0835 5.80769 20.0716 6.03149C20.0585 6.40587 20.1453 6.77699 20.3232 7.10665C20.5589 7.39485 20.867 7.6151 21.216 7.74475C21.4441 7.85348 21.7282 7.98891 21.778 8.10875C21.7821 8.33021 21.7345 8.54957 21.6389 8.7494C21.4826 9.09244 21.4203 9.47088 21.4584 9.84593C21.5633 10.1996 21.7617 10.5184 22.0329 10.7686C22.2038 10.9585 22.4165 11.195 22.4165 11.3306C22.4166 11.466 22.2038 11.7025 22.0331 11.8924Z" fill="#FF5635"/>
<path d="M16.1348 15.0068C16.0533 15.0066 15.9732 14.9858 15.902 14.9463L14.0001 13.8957L12.0988 14.9461C12.0192 14.9898 11.9288 15.0102 11.8381 15.0049C11.7474 14.9997 11.66 14.9691 11.5858 14.9165C11.5117 14.864 11.4538 14.7917 11.4188 14.7079C11.3838 14.624 11.3731 14.532 11.3879 14.4424L11.756 12.1869L10.2012 10.5946C10.1387 10.5307 10.095 10.4508 10.0749 10.3636C10.0549 10.2765 10.0592 10.1855 10.0874 10.1007C10.1156 10.0159 10.1666 9.94041 10.2348 9.88265C10.303 9.82488 10.3859 9.78702 10.4742 9.77322L12.6055 9.44765L13.5623 7.4099C13.6012 7.32661 13.663 7.25614 13.7405 7.20676C13.818 7.15737 13.908 7.13113 13.9999 7.1311C14.0918 7.13108 14.1818 7.15728 14.2593 7.20663C14.3368 7.25598 14.3987 7.32642 14.4376 7.40969L15.3946 9.44765L17.5263 9.77322C17.6146 9.7871 17.6974 9.82502 17.7656 9.88282C17.8337 9.94061 17.8847 10.0161 17.9128 10.1009C17.941 10.1857 17.9452 10.2766 17.9251 10.3637C17.905 10.4508 17.8614 10.5307 17.7989 10.5946L16.2442 12.187L16.612 14.4411C16.6235 14.5105 16.6198 14.5816 16.6011 14.6494C16.5824 14.7173 16.5493 14.7803 16.5039 14.834C16.4585 14.8878 16.402 14.9311 16.3383 14.9609C16.2746 14.9908 16.2052 15.0064 16.1348 15.0068ZM13.9791 12.9077L14.2342 13.0254L15.6193 13.7906L15.3491 12.1352C15.337 12.0604 15.3425 11.9838 15.365 11.9115C15.3875 11.8391 15.4264 11.773 15.4788 11.7182L16.6451 10.5239L15.0562 10.2812C14.978 10.2695 14.9039 10.2387 14.8404 10.1916C14.777 10.1444 14.7261 10.0823 14.6924 10.0108L14.0001 8.53655L13.309 10.0082C13.2749 10.0809 13.2232 10.144 13.1586 10.1918C13.094 10.2396 13.0185 10.2705 12.939 10.2819L11.355 10.5239L12.519 11.7159C12.572 11.7707 12.6115 11.8371 12.6345 11.9098C12.6574 11.9825 12.6632 12.0595 12.6513 12.1348L12.3808 13.7906L13.9791 12.9077Z" fill="#FF5635"/>
</svg>
