<svg width="20" height="20" viewBox="0 0 20 20" fill="none" xmlns="http://www.w3.org/2000/svg">
<path d="M12.8158 18.125H7.18417C6.68717 18.1236 6.21079 17.9262 5.85833 17.5758L2.42417 14.1417C2.07377 13.7892 1.87645 13.3128 1.875 12.8158V7.18417C1.87645 6.68717 2.07377 6.21079 2.42417 5.85833L5.85833 2.42417C6.21079 2.07377 6.68717 1.87645 7.18417 1.875H12.8158C13.3128 1.87645 13.7892 2.07377 14.1417 2.42417L17.5758 5.85833C17.9262 6.21079 18.1236 6.68717 18.125 7.18417V12.8158C18.1236 13.3128 17.9262 13.7892 17.5758 14.1417L14.1417 17.5758C13.7892 17.9262 13.3128 18.1236 12.8158 18.125ZM7.18417 3.125C7.01852 3.12542 6.85975 3.19132 6.7425 3.30833L3.30833 6.7425C3.19132 6.85975 3.12542 7.01852 3.125 7.18417V12.8158C3.12542 12.9815 3.19132 13.1402 3.30833 13.2575L6.7425 16.6917C6.85975 16.8087 7.01852 16.8746 7.18417 16.875H12.8158C12.9815 16.8746 13.1402 16.8087 13.2575 16.6917L16.6917 13.2575C16.8087 13.1402 16.8746 12.9815 16.875 12.8158V7.18417C16.8746 7.01852 16.8087 6.85975 16.6917 6.7425L13.2575 3.30833C13.1402 3.19132 12.9815 3.12542 12.8158 3.125H7.18417ZM10.85 12.5C10.85 12.279 10.7622 12.067 10.6059 11.9107C10.4496 11.7545 10.2377 11.6667 10.0167 11.6667H10.0083C9.84388 11.6683 9.68359 11.7186 9.54765 11.8111C9.41171 11.9037 9.3062 12.0344 9.2444 12.1868C9.1826 12.3392 9.16728 12.5065 9.20037 12.6676C9.23346 12.8287 9.31348 12.9764 9.43035 13.0921C9.54722 13.2078 9.69571 13.2864 9.85713 13.3179C10.0186 13.3494 10.1857 13.3324 10.3375 13.2691C10.4893 13.2058 10.6189 13.099 10.7101 12.9621C10.8013 12.8252 10.85 12.6645 10.85 12.5ZM10.625 10V6.66667C10.625 6.50091 10.5592 6.34194 10.4419 6.22472C10.3247 6.10751 10.1658 6.04167 10 6.04167C9.83424 6.04167 9.67527 6.10751 9.55806 6.22472C9.44085 6.34194 9.375 6.50091 9.375 6.66667V10C9.375 10.1658 9.44085 10.3247 9.55806 10.4419C9.67527 10.5592 9.83424 10.625 10 10.625C10.1658 10.625 10.3247 10.5592 10.4419 10.4419C10.5592 10.3247 10.625 10.1658 10.625 10Z" fill="#A3A3C7"/>
</svg>
