<svg width="397" height="324" viewBox="0 0 397 324" fill="none" xmlns="http://www.w3.org/2000/svg">
<rect width="397" height="36" rx="18" fill="#6C667A"/>
<g clip-path="url(#clip0_699_3613)">
<path d="M388.24 105.26L392.27 95.22L349.86 107.89L362.16 110.84L315.27 152.43L309.85 134.2L253.25 186.68L267.09 196.67L302.18 164.64L308.84 188.4L373.82 131.56L376.55 145.11L393.16 103.79L388.24 105.26ZM374.36 129.95L309.3 186.87L302.62 163.08L267.89 194.79L267.64 186.22L302.24 154.64L308.91 178.4L373.93 121.52L376.52 134.4L387.83 106.27L391.71 105.11L376.82 142.14L374.36 129.95Z" fill="#DFE1E7"/>
<path d="M391.71 105.11L376.82 142.14L374.36 129.95L309.3 186.87L302.62 163.08L267.89 194.79L267.64 186.22L302.24 154.64L308.91 178.4L373.93 121.52L376.52 134.4L387.83 106.27L391.71 105.11Z" fill="#F0F9FF"/>
<path d="M248.15 173.8C248.15 173.8 254.67 149.75 244.32 131.25H248.15C248.15 131.25 241.5 107.4 226.14 98.63L233.66 96.76C233.66 96.76 217.48 81.09 191.55 78.74L184.58 103.65C184.58 103.65 206.96 104.61 220.94 124.67L221.91 120.28C221.91 120.28 243.95 142.11 241 177.28L248.15 173.8Z" fill="#F0F9FF"/>
<path d="M271.86 220.49V230.18V315.49H280.52V231.03V220.49H271.86Z" fill="#F0F9FF"/>
<path opacity="0.2" d="M271.86 220.49V230.18V315.49H280.52V231.03V220.49H271.86Z" fill="#8F97AA"/>
<path d="M331.68 217.39H242.79V227.53H331.68V217.39Z" fill="#F0F9FF"/>
<path opacity="0.2" d="M331.68 217.39H242.79V227.53H331.68V217.39Z" fill="#8F97AA"/>
<path d="M198.75 201.93H211.85C213.07 201.93 214.24 202.36 215.17 203.14L223.37 210.04C224.1 210.66 223.67 211.85 222.71 211.85H213.91C213.91 211.85 211.1 213.44 208.67 213.44C206.24 213.44 197.06 210.77 197.06 210.77L198.75 201.93Z" fill="#F0F9FF"/>
<path d="M214.51 210.38C214.04 209.28 213.1 208.78 211.92 208.62C211.85 208.62 211.78 208.62 211.71 208.61C211.52 208.55 211.32 208.48 211.14 208.39C210.6 208.12 210.09 207.75 209.74 207.25C209.67 207.15 209.54 207.24 209.59 207.34C209.78 207.77 210.13 208.25 210.55 208.62C210.12 208.66 209.68 208.71 209.25 208.73C207.92 208.81 206.62 208.67 205.34 208.29C205.24 208.26 205.18 208.41 205.27 208.45C206.48 209.07 207.5 209.61 208.89 209.64C210.82 209.69 212.66 209.21 214.32 210.52C214.43 210.6 214.56 210.5 214.51 210.38Z" fill="#8F97AA"/>
<path d="M218.92 208.11C216.82 206.93 215.47 204.78 213.36 203.71C213.3 203.68 213.26 203.76 213.31 203.79C214.92 204.87 215.77 206.73 217.33 207.9C218.89 209.07 220.98 209.48 222.22 211.05C222.25 211.08 222.31 211.05 222.3 211.02C222.17 209.2 220.26 208.87 218.91 208.12L218.92 208.11Z" fill="#8F97AA"/>
<path d="M184.92 211.69H268.66V217.4H184.92C184.24 217.4 183.68 216.84 183.68 216.16V212.93C183.68 212.25 184.24 211.69 184.92 211.69Z" fill="#ACB5CC"/>
<path d="M268.43 215.5H211.9C210.54 215.5 209.59 214.16 210.03 212.88L224.96 169.32C225.26 168.45 226.08 167.86 227 167.86H283.14C284.62 167.86 285.66 169.32 285.18 170.72L270.29 214.16C270.02 214.96 269.26 215.5 268.42 215.5H268.43Z" fill="#ACB5CC"/>
<path d="M248.58 189.84C248.45 189.84 248.33 189.87 248.2 189.88C248.43 190.33 248.58 190.82 248.58 191.36C248.58 193.14 247.14 194.59 245.35 194.59C245.04 194.59 244.75 194.53 244.47 194.45C244.7 196.53 246.44 198.16 248.58 198.16C250.88 198.16 252.74 196.3 252.74 194C252.74 191.7 250.88 189.84 248.58 189.84Z" fill="#6C667A"/>
<path d="M135.61 263.54H129.81V279.67C131.75 280.37 133.68 281.07 135.61 281.77V263.54Z" fill="#ACB5CC"/>
<path d="M157.91 318.11H135.61V281.77C133.68 281.07 131.75 280.37 129.81 279.67V318.11H107.9C106.37 318.11 105.13 319.36 105.13 320.88C105.13 322.4 106.38 323.65 107.9 323.65H157.9C159.43 323.65 160.67 322.4 160.67 320.88C160.67 319.36 159.42 318.11 157.9 318.11H157.91Z" fill="#ACB5CC"/>
<path opacity="0.2" d="M135.61 263.54H129.81V279.67C131.75 280.37 133.68 281.07 135.61 281.77V263.54Z" fill="#8F97AA"/>
<path d="M99.9899 222.94C101.64 226.24 99.9899 232.01 102.46 235.31C108.36 243.35 116.7 242.33 124.3 238.36L129.81 172.89C129.81 172.89 87.1299 166.03 80.4399 178.94C87.4099 188.23 84.2799 203.35 87.6099 214.69C89.2599 220.46 97.5099 217.99 99.9799 222.94H99.9899Z" fill="#F0F9FF"/>
<path d="M124.45 238.74L124.31 238.36C116.7 242.33 108.37 243.35 102.47 235.31C100 232.01 101.65 226.24 100 222.94C97.53 217.99 89.28 220.47 87.63 214.69C84.29 203.35 87.43 188.23 80.46 178.94C79.51 180.78 78.67 183.04 78 185.8C72.66 207.86 78.9 241.22 95.42 257.74C111.95 274.27 163.69 270.11 167.45 261.11C171.21 252.11 124.46 238.73 124.46 238.73L124.45 238.74Z" fill="#D5DFEB"/>
<path opacity="0.2" d="M99.9899 222.94C101.64 226.24 99.9899 232.01 102.46 235.31C108.36 243.35 116.7 242.33 124.3 238.36L129.81 172.89C129.81 172.89 87.1299 166.03 80.4399 178.94C87.4099 188.23 84.2799 203.35 87.6099 214.69C89.2599 220.46 97.5099 217.99 99.9799 222.94H99.9899Z" fill="#8F97AA"/>
<path d="M150.31 268.34C155.61 267.23 157.25 260.35 152.85 257.2C150.69 255.65 147.27 254.32 141.97 253.59C122.52 250.92 110.44 243.63 103.78 236.97C97.12 230.31 90.7 234.89 90.7 244.69C90.7 254.49 116.81 275.35 150.31 268.35V268.34Z" fill="#D5DFEB"/>
<path d="M233.881 274.944L217.091 286.671L229.567 304.535L246.358 292.809L233.881 274.944Z" fill="#F0F9FF"/>
<path d="M249.03 286.76L244.39 288.06L244.11 287.07C243.74 285.75 242.37 284.98 241.05 285.35L237.5 286.35L237.03 290.24L235.8 289.26L225.26 294.63C223.8 295.37 223.27 297.19 224.1 298.6L226.02 301.86L231.56 312.72L246.46 305.13L244.68 301.63L250.49 300L251.74 302.45L263.98 296.21L263.62 294.94C261.85 288.65 255.32 284.99 249.03 286.76Z" fill="#6C667A"/>
<path d="M250.171 284.988L249.818 285.061C249.537 285.119 249.356 285.394 249.414 285.675L250.282 289.887C250.339 290.168 250.614 290.349 250.896 290.291L251.248 290.219C251.53 290.161 251.711 289.886 251.653 289.604L250.785 285.393C250.727 285.112 250.452 284.931 250.171 284.988Z" fill="#ACB5CC"/>
<path d="M245.969 286.114L246.322 286.042C246.606 285.984 246.877 286.163 246.936 286.447L247.801 290.659C247.859 290.943 247.68 291.214 247.396 291.273L247.044 291.345C246.76 291.403 246.488 291.224 246.43 290.94L245.564 286.728C245.506 286.444 245.685 286.173 245.969 286.114Z" fill="#ACB5CC"/>
<path d="M208.81 229.47C214.92 235.5 238.59 274.36 238.59 274.36L215.9 291.68L196.75 263.37L172.18 224.2C172.18 224.2 202.69 223.45 208.8 229.48L208.81 229.47Z" fill="#F0F9FF"/>
<path d="M205.185 285.772L185.555 291.609L191.765 312.495L211.396 306.658L205.185 285.772Z" fill="#F0F9FF"/>
<path d="M215.85 301.76L211.04 301.54L211.09 300.52C211.15 299.15 210.1 297.99 208.73 297.93L205.05 297.76L203.38 301.3L202.52 299.98L190.83 301.75C189.21 302 188.14 303.55 188.48 305.15L189.27 308.85L191.1 320.91L207.64 318.4L207.05 314.52L213.07 314.8L213.48 317.51L227.06 315.45L227.12 314.14C227.42 307.61 222.38 302.08 215.86 301.78L215.85 301.76Z" fill="#6C667A"/>
<path d="M217.443 300.461L217.086 300.419C216.801 300.385 216.542 300.589 216.509 300.874L216.005 305.145C215.972 305.43 216.176 305.688 216.461 305.722L216.819 305.764C217.104 305.798 217.362 305.594 217.396 305.308L217.899 301.038C217.933 300.753 217.729 300.494 217.443 300.461Z" fill="#ACB5CC"/>
<path d="M213.455 300.256L213.098 300.214C212.813 300.181 212.554 300.385 212.521 300.67L212.017 304.94C211.984 305.225 212.188 305.484 212.473 305.517L212.831 305.56C213.116 305.593 213.374 305.389 213.408 305.104L213.911 300.834C213.945 300.548 213.741 300.29 213.455 300.256Z" fill="#ACB5CC"/>
<path d="M148.95 204.57L150.88 217.11C150.88 217.11 181.7 223.61 189.7 231.61C197.7 239.61 211.41 293.26 211.41 293.26C202.39 296.5 192.7 298.54 182.59 299.8L167.42 256.07L145.12 254.29C145.12 254.29 109.58 247.13 106.98 235.57C104.38 224.01 110.86 213.42 110.86 213.42L148.95 204.59V204.57Z" fill="#F0F9FF"/>
<path opacity="0.2" d="M187.23 293.47C193.26 290.96 199.87 289.63 206.15 287.89C206.35 287.84 206.43 288.13 206.23 288.19C200.01 290.15 193.75 292.64 187.32 293.82C187.08 293.86 187.01 293.56 187.22 293.47H187.23Z" fill="#8F97AA"/>
<path opacity="0.2" d="M172.33 235.62C168.81 240 166.73 245.05 167.65 250.74C167.67 250.83 167.79 250.8 167.8 250.72C168.35 245.53 169.54 240.12 172.41 235.68C172.44 235.63 172.37 235.57 172.33 235.62Z" fill="#8F97AA"/>
<path opacity="0.2" d="M177.91 246.11C175.05 247.32 172.5 249.2 171.02 251.98C170.96 252.09 171.1 252.21 171.2 252.12C173.32 249.97 175.41 247.83 177.95 246.17C177.99 246.15 177.95 246.1 177.92 246.11H177.91Z" fill="#8F97AA"/>
<path d="M148.41 209.31C145.45 209.52 142.53 210.01 139.64 210.63C138.2 210.95 136.76 211.31 135.34 211.75C133.92 212.18 132.51 212.69 131.21 213.41C132.62 212.96 134.06 212.65 135.49 212.31L139.8 211.36C142.67 210.72 145.55 210.1 148.41 209.31Z" fill="#ACB5CC"/>
<path d="M147.93 218.02C140.48 216.66 131.83 216.21 125.08 220.18C124.93 220.27 125.03 220.54 125.2 220.47C132.65 217.69 140.1 217.87 147.9 218.15C147.97 218.15 147.99 218.03 147.92 218.02H147.93Z" fill="#ACB5CC"/>
<path opacity="0.2" d="M116.22 217.45C116.17 217.38 116.02 217.42 116.06 217.52C118.52 223.41 117.64 228.82 114.84 234.4C114.77 234.54 114.94 234.69 115.06 234.57C119.53 230.34 119.6 222.36 116.22 217.45Z" fill="#8F97AA"/>
<path opacity="0.2" d="M207.37 278.37C206.61 275.53 205.85 272.69 205.04 269.86C204.25 267.03 203.44 264.21 202.57 261.4C200.84 255.79 199.06 250.19 196.84 244.77C195.75 242.06 194.59 239.36 193.16 236.83C192.46 235.56 191.65 234.35 190.74 233.25C189.85 232.15 188.66 231.31 187.51 230.39C185.19 228.62 182.21 227.87 179.65 226.45C177.09 225.02 173.76 223.53 171 222.53C176.65 224.2 183.14 226.36 187.95 229.8C188.56 230.22 189.13 230.69 189.73 231.13C190.31 231.6 190.89 232.13 191.37 232.71C192.35 233.86 193.19 235.11 193.92 236.4C195.42 238.97 196.61 241.68 197.74 244.41C199.9 249.91 201.7 255.52 203.28 261.2C204.85 266.88 206.25 272.6 207.38 278.37H207.37Z" fill="#8F97AA"/>
<path d="M160.81 168.1C160.81 168.1 157.48 163.26 151.73 163.26C145.98 163.26 129.18 160.38 121.46 168.1C113.74 175.82 114.8 193.53 113.29 198.68C111.78 203.83 108.45 216.24 108.45 216.24C108.45 216.24 125.71 224.72 139.63 224.72C139.63 224.72 153.56 231.08 172.02 224.72L174.14 212.83L151.74 206.56C151.74 206.56 152.6 199.43 156.89 195.15C156.89 195.15 173.84 212.84 180.5 212.84H200.35L202.6 200.81C202.6 200.81 177.7 188.79 176.26 187.35C174.82 185.91 160.82 168.12 160.82 168.12L160.81 168.1Z" fill="#ACB5CC"/>
<path opacity="0.2" d="M118.61 193.6C118.61 193.6 114.27 206.17 121.76 217.85C118.73 216.1 116.02 213.97 114.41 210.72C114.37 210.64 114.25 210.7 114.27 210.78C115.68 215.15 119.19 217.87 123.16 219.84C124.45 221.51 126.01 223.15 127.89 224.72H139.62C139.62 224.72 120.64 221.35 118.61 193.61V193.6Z" fill="#8F97AA"/>
<path opacity="0.2" d="M150.39 205.39C148.82 202.35 147.32 199.29 145.8 196.24L141.24 187.09C139.71 184.05 138.17 181.01 136.57 178.01C135.76 176.52 134.95 175.02 134.06 173.57C133.22 172.09 132.26 170.69 131.2 169.35C133.65 171.76 135.44 174.74 137.21 177.64C138.97 180.58 140.54 183.61 142.1 186.65C143.62 189.71 145.09 192.79 146.47 195.92C147.85 199.04 149.19 202.18 150.39 205.38V205.39Z" fill="#8F97AA"/>
<path opacity="0.2" d="M157.24 194.38C157.95 193.72 158.44 192.88 158.8 192.01C159.17 191.14 159.41 190.23 159.56 189.3C159.69 188.37 159.81 187.42 159.76 186.51C159.71 185.59 159.58 184.66 159.35 183.74C158.94 181.89 158.32 180.08 157.66 178.28C156.97 176.49 156.26 174.69 155.5 172.91C156.59 174.52 157.54 176.22 158.36 177.99C159.17 179.76 159.85 181.61 160.3 183.53C160.51 184.49 160.66 185.49 160.68 186.49C160.68 187.52 160.53 188.49 160.3 189.46C159.84 191.36 158.9 193.32 157.24 194.39V194.38Z" fill="#8F97AA"/>
<path opacity="0.2" d="M149.98 206.39C144.59 205.81 139.48 208.77 137.15 213.64C137.08 213.8 137.28 213.91 137.38 213.77C140.54 209.56 144.44 206.34 149.98 206.49C150.05 206.49 150.05 206.39 149.98 206.38V206.39Z" fill="#8F97AA"/>
<path opacity="0.2" d="M149.56 207.28C147.34 208.9 146.25 211.55 146.11 214.26C146.11 214.42 146.33 214.44 146.38 214.3C147.12 211.76 147.63 209.29 149.66 207.41C149.72 207.35 149.64 207.23 149.56 207.29V207.28Z" fill="#8F97AA"/>
<path opacity="0.2" d="M175.64 187.9C171.91 190.25 170.29 194.41 169.75 198.63C169.75 198.69 169.83 198.69 169.85 198.64C170.99 194.56 172.46 190.84 175.7 187.98C175.74 187.94 175.69 187.87 175.64 187.9Z" fill="#8F97AA"/>
<path opacity="0.2" d="M175.84 190.05C175.86 189.92 175.63 189.89 175.6 190.02C175.09 192.56 175.09 194.91 176.04 197.36C176.08 197.47 176.24 197.43 176.22 197.31C175.78 194.94 175.52 192.45 175.83 190.05H175.84Z" fill="#8F97AA"/>
<path opacity="0.2" d="M127.68 168.45C124.15 168.8 121.51 171.1 119.85 174.15C117.94 177.65 116.5 182.05 117.48 186.01C117.52 186.16 117.78 186.13 117.76 185.97C117.32 182.46 118.76 178.48 120.24 175.32C121.74 172.1 124.1 169.34 127.7 168.58C127.78 168.56 127.76 168.43 127.68 168.44V168.45Z" fill="#8F97AA"/>
<path d="M174.03 213.39C174.03 213.39 178.78 210.38 180.86 209.77C182.94 209.16 194.5 211.95 194.5 213.1C194.5 214.25 185.48 216.74 185.48 216.74C185.48 216.74 178.54 224.41 176.4 224.41C174.26 224.41 172.09 224.2 172.09 224.2L174.02 213.4L174.03 213.39Z" fill="#F0F9FF"/>
<path d="M189.36 214.5C187.95 213.42 185.45 212.73 183.7 213.22C181.65 213.79 180.07 215.85 178.68 217.33C178.65 217.36 178.68 217.41 178.73 217.39C180.17 216.4 181.57 215.03 183.18 214.32C185.45 213.33 187.13 214.78 189.3 214.71C189.42 214.71 189.44 214.56 189.36 214.5Z" fill="#8F97AA"/>
<path d="M191.62 213.08C187.62 210.54 182.85 210.29 179.24 213.46C179.18 213.52 179.26 213.62 179.33 213.58C181.4 212.29 183.34 211.47 185.87 211.76C187.86 211.99 189.6 212.87 191.54 213.29C191.67 213.32 191.74 213.15 191.63 213.08H191.62Z" fill="#8F97AA"/>
<path d="M147.48 124.82C147.37 124.82 147.35 124.99 147.46 125.01C152.61 126.24 157.31 127.95 159.62 133.16C161.97 138.44 160.38 146.23 154.59 148.57C154.53 148.59 154.55 148.68 154.62 148.67C160.48 147.54 162.28 139.64 160.9 134.66C159.17 128.41 153.57 125.31 147.48 124.82Z" fill="#8F97AA"/>
<path d="M134.34 151.9C131.83 154.62 128.98 157.03 125.58 158.54C121.25 160.47 117.68 159.66 113.5 157.75C111.55 156.86 109.39 156.02 107.21 156.51C104.03 157.23 102.8 162.15 99.28 161.44C99.08 161.4 98.94 161.68 99.13 161.79C101.83 163.32 103.22 160.73 104.95 159.08C109.15 155.06 113.6 159.7 118.07 160.55C124.56 161.79 131.21 157.36 134.49 152.02C134.55 151.92 134.41 151.81 134.33 151.9H134.34Z" fill="#8F97AA"/>
<path d="M129.44 128.95C129.44 128.95 137.73 121.23 148.48 124.52C159.24 127.82 163.67 143.44 153.15 149.17C142.63 154.9 129.44 128.95 129.44 128.95Z" fill="#8F97AA"/>
<path d="M129.44 128.95C129.44 128.95 123.82 129.91 120.4 134.85C119.24 135.84 118.27 137.05 117.53 138.42C116.21 140.85 115.36 143.32 112.06 143.32C109.63 143.32 108.07 141.76 105.94 140.96C101.06 139.15 94.47 141.43 96.18 147.5C96.19 147.55 96.26 147.53 96.26 147.49C96.21 141.21 102.43 140.21 107.06 142.68C109.07 143.75 110.75 144.75 113.13 144.4C113.99 144.28 114.75 144.02 115.42 143.63C113.27 145.82 110.77 145.98 107.66 144.28C102.72 141.56 96.65 143.64 97.13 148.38C97.62 153.12 93.01 147.49 89.08 151.82C85.33 155.95 86.3 168.41 95.37 171.3C95.03 171.29 94.69 171.27 94.37 171.24C90.7 170.87 87.68 169.03 85.99 165.7C85.94 165.61 85.79 165.68 85.82 165.77C87.28 170.27 91.68 172.74 96.29 172.6C97.64 172.56 99.26 172.28 100.71 171.71C107.1 170.4 107.45 161.99 113.03 163.78C119.57 165.88 125.19 166.33 131.47 160.35C137.74 154.37 137.3 150.02 137.3 150.02L129.45 128.94L129.44 128.95Z" fill="#8F97AA"/>
<path d="M135.5 152.14V152.02L148.92 154.59L149.17 161.52C143.21 161 137.7 157.4 135.5 152.14Z" fill="#F0F9FF"/>
<path d="M149.17 161.52L149.46 169.49C142.87 169.73 135.96 164.75 135.96 164.75L135.5 152.14C137.7 157.4 143.21 161 149.17 161.52Z" fill="#F0F9FF"/>
<path opacity="0.2" d="M135.5 152.14V152.02L148.92 154.59L149.17 161.52C143.21 161 137.7 157.4 135.5 152.14Z" fill="#8F97AA"/>
<path opacity="0.2" d="M135.43 165.66C137.71 167.3 140.18 168.66 142.67 169.95C145.24 171.28 148.1 172.45 151.04 172.08C151.14 172.07 151.17 172.23 151.07 172.25C145.41 173.61 139.47 169.19 135.38 165.72C135.34 165.69 135.39 165.63 135.44 165.66H135.43Z" fill="#8F97AA"/>
<path d="M148.96 131.51C148.96 131.51 159.62 144.93 154.89 152.95C152.7 156.67 137.82 161.44 131.28 151.32C131.28 151.32 127.32 144.69 127.14 138.62C126.96 132.55 140.47 120.95 148.96 131.51Z" fill="#F0F9FF"/>
<path d="M135.16 142.69C135.1 140.95 136.81 136.91 142.07 138.55C139.37 138.71 136.56 139.77 135.16 142.69Z" fill="#8F97AA"/>
<path d="M151.42 135.83C150.45 134.75 147.1 133.33 144.88 137.35C146.6 135.89 148.9 134.9 151.42 135.83Z" fill="#8F97AA"/>
<path d="M148.01 146.35C148.01 146.35 148.03 146.35 148.04 146.34C149.85 145.59 150.37 144.12 150.39 144.05C150.43 143.94 150.42 143.82 150.36 143.72C150.3 143.62 150.21 143.55 150.09 143.53C149.24 143.35 148.06 142.46 147.67 142.13C147.5 141.99 147.25 142.01 147.11 142.17C146.97 142.34 146.99 142.59 147.15 142.73C147.2 142.78 148.35 143.75 149.44 144.17C149.2 144.57 148.68 145.21 147.73 145.6C147.53 145.68 147.43 145.92 147.51 146.12C147.59 146.31 147.81 146.41 148 146.35H148.01Z" fill="#8F97AA"/>
<path d="M149.61 148.56C149.61 148.56 148.91 151.49 145.94 152.04C142.91 152.59 142.26 149.03 142.26 149.03L149.61 148.57V148.56Z" fill="#8F97AA"/>
<path d="M142.57 149.21L143.08 150C143.08 150 147.04 150.27 148.58 149L142.57 149.21Z" fill="#ACB5CC"/>
<path d="M144.39 143.47C143.04 142.76 141.4 141.96 139.91 142.72C138.66 143.35 138.16 144.5 138.18 145.84C138.18 145.99 138.39 145.99 138.45 145.88C138.92 145.03 139.57 143.99 140.43 143.51C141.7 142.81 143.07 143.21 144.36 143.59C144.44 143.61 144.46 143.5 144.4 143.46L144.39 143.47Z" fill="#8F97AA"/>
<path d="M151.18 139.19C149.9 139.32 148.89 140.25 148.43 141.4C148.38 141.53 148.56 141.62 148.63 141.49C149.34 140.2 151.95 139.11 152.73 140.87C152.8 141.03 153.05 141.02 153.08 140.83C153.26 139.72 152.2 139.08 151.19 139.19H151.18Z" fill="#8F97AA"/>
<path d="M145.28 126.69C145.28 126.69 146.83 131.88 141.54 135.19C136.24 138.51 132.75 139.82 134.21 148.11C135.67 156.39 125.41 157.4 125.41 157.4C125.41 157.4 121.35 149.29 121.88 148.32C122.41 147.35 129.44 128.96 129.44 128.96C129.44 128.96 141.62 126.12 141.42 125.44C141.22 124.76 145.28 126.7 145.28 126.7V126.69Z" fill="#8F97AA"/>
<path d="M135.44 148.2C136.17 150.43 134.95 152.83 132.72 153.56C130.49 154.29 128.09 153.07 127.36 150.84C126.63 148.61 127.85 146.21 130.08 145.48C132.31 144.75 134.71 145.97 135.44 148.2Z" fill="#F0F9FF"/>
<path opacity="0.2" d="M130.72 150.28C130.37 149.21 130.96 148.06 132.03 147.71C132.08 147.69 132.13 147.71 132.18 147.69C131.79 147.57 131.37 147.52 130.95 147.66C129.88 148.01 129.29 149.16 129.64 150.23C129.97 151.25 131.04 151.81 132.06 151.56C131.45 151.37 130.93 150.93 130.72 150.28Z" fill="#8F97AA"/>
<path d="M197.06 220.49H188.39V231.01C191.25 231.38 194.14 231.68 197.06 231.94V220.49Z" fill="#F0F9FF"/>
<path d="M188.4 231.01V323.66H197.07V231.94C194.16 231.68 191.26 231.38 188.4 231.01Z" fill="#F0F9FF"/>
<path opacity="0.2" d="M197.06 220.49H188.39V231.01C191.25 231.38 194.14 231.68 197.06 231.94V220.49Z" fill="#8F97AA"/>
<path d="M265.08 220.49H256.41V231.01C259.27 231.38 262.16 231.68 265.08 231.94V220.49Z" fill="#F0F9FF"/>
<path d="M256.41 231.01V323.66H265.08V231.94C262.17 231.68 259.27 231.38 256.41 231.01Z" fill="#F0F9FF"/>
<path opacity="0.2" d="M265.08 220.49H256.41V231.01C259.27 231.38 262.16 231.68 265.08 231.94V220.49Z" fill="#8F97AA"/>
<path d="M326.92 220.49H318.25V230.18C321.11 230.52 324 230.79 326.92 231.04V220.49Z" fill="#F0F9FF"/>
<path d="M318.26 230.18V315.5H326.93V231.04C324.02 230.8 321.12 230.53 318.26 230.18Z" fill="#F0F9FF"/>
<path opacity="0.2" d="M326.92 220.49H318.25V230.18C321.11 230.52 324 230.79 326.92 231.04V220.49Z" fill="#8F97AA"/>
<path d="M267.62 217.39H178.73V227.53H267.62V217.39Z" fill="#F0F9FF"/>
<path d="M213.15 70.6299C201.86 63.1899 191.29 66.8199 185.78 69.8199C183.27 71.1799 181.82 72.4199 181.82 72.4199L194.15 84.4199C195.93 81.5799 198.1 79.4399 200.36 77.8099C204.74 74.6699 209.51 73.4799 212.62 73.0399C213.82 72.8699 214.16 71.2999 213.15 70.6299Z" fill="#6C667A"/>
<path d="M196.36 120.3C194.65 118.52 192.42 115.76 190.8 112.16C189.29 108.79 188.31 104.69 188.8 99.97L171.7 101.84C171.7 101.84 172.23 104.36 173.84 107.64C176.66 113.4 182.82 121.53 195.3 122.53C196.51 122.63 197.21 121.18 196.37 120.3H196.36Z" fill="#6C667A"/>
<path d="M195.76 85.9199C191.88 78.0099 180.32 69.4699 165.26 64.2899C158.3 61.8999 151.49 60.5299 145.39 60.1299L135.28 89.5099C140.33 92.9499 146.54 96.0599 153.5 98.4499C174.11 105.54 193.45 103.64 196.7 94.2099C196.78 93.9899 196.84 93.7699 196.9 93.5399L182.24 88.4899L195.76 85.9099V85.9199Z" fill="#ACB5CC"/>
<path d="M122.06 68.5299C119.91 74.7799 125.36 82.7699 135.28 89.5099L145.39 60.1299C133.42 59.3399 124.21 62.2799 122.06 68.5299Z" fill="#F0F9FF"/>
<path d="M195.76 85.9199L182.24 88.4999L196.9 93.5499C197.5 91.1799 197.07 88.5899 195.76 85.9299V85.9199Z" fill="#ACB5CC"/>
<path d="M163.73 82.87C165.32 78.26 162.87 73.24 158.26 71.66C157.5 71.4 156.73 71.25 155.97 71.2L163.06 84.37C163.33 83.9 163.55 83.4 163.74 82.88L163.73 82.87Z" fill="#ACB5CC"/>
<path d="M147.05 77.1301C145.46 81.7401 147.91 86.7601 152.52 88.3401C153.93 88.8201 155.37 88.9301 156.75 88.7101C154.53 84.9001 150.76 78.2101 148.6 74.3601C147.94 75.1601 147.4 76.0901 147.05 77.1201V77.1301Z" fill="#ACB5CC"/>
<path d="M150.53 72.63L158.95 88.06C160.1 87.55 161.13 86.81 161.98 85.85L154.16 71.25C152.86 71.43 151.62 71.91 150.53 72.62V72.63Z" fill="#ACB5CC"/>
<path d="M148.6 74.3601C150.76 78.2101 154.53 84.9001 156.75 88.7101C157.51 88.5901 158.25 88.3701 158.95 88.0601L150.53 72.6301C149.81 73.1001 149.16 73.6801 148.6 74.3601Z" fill="#ACB5CC"/>
<path d="M161.98 85.8601C162.38 85.4101 162.74 84.9001 163.05 84.3601L155.96 71.1901C155.35 71.1501 154.75 71.1701 154.15 71.2601L161.97 85.8601H161.98Z" fill="#ACB5CC"/>
<path d="M164.79 83.2299C163.01 88.4099 157.34 91.1799 152.16 89.3899C146.98 87.6099 144.21 81.9399 146 76.7599C147.78 71.5799 153.45 68.8099 158.63 70.5999C163.81 72.3799 166.58 78.0499 164.79 83.2299ZM148.11 77.4899C146.73 81.5099 148.87 85.8999 152.89 87.2799C156.91 88.6599 161.3 86.5199 162.68 82.4999C164.06 78.4799 161.92 74.0899 157.9 72.7099C153.88 71.3299 149.49 73.4699 148.11 77.4899Z" fill="#F0F9FF"/>
<path d="M180.347 87.9562L180.416 87.7576C180.604 87.2092 181.205 86.9082 181.763 87.1002L207.265 95.8764C207.813 96.0651 208.114 96.6657 207.922 97.2236L207.854 97.4222C207.665 97.9706 207.065 98.2715 206.507 98.0795L181.005 89.3034C180.456 89.1147 180.155 88.5141 180.347 87.9562Z" fill="#6C667A"/>
<path d="M63.6499 268.5L78.2899 323.21H82.5699L74.2199 271.93C70.7099 270.72 67.1699 269.6 63.6499 268.5Z" fill="#F0F9FF"/>
<path d="M72.3899 260.74L61.8999 261.99L63.6399 268.5C67.1499 269.6 70.6999 270.72 74.2099 271.93L72.3899 260.74Z" fill="#F0F9FF"/>
<path d="M54.7799 206.39C54.7799 206.39 53.3799 199.4 54.7799 195.65C56.1799 191.89 59.1699 191.77 59.1699 187.16C59.1699 182.55 59.0499 179.09 63.2799 176.84C67.5099 174.59 67.6399 178.82 72.3699 173.09C77.0999 167.36 90.0499 171.35 91.4199 176.33C92.7899 181.31 80.3399 179.2 79.7099 185.99C79.0899 192.77 73.4699 194.14 68.2499 194.64C63.0299 195.14 61.9899 204.94 54.7699 206.4L54.7799 206.39Z" fill="#ACB5CC"/>
<path d="M86.4399 204.89C78.9699 203.85 84.1399 201.14 79.9599 196.97C75.7799 192.8 69.4399 196.66 66.0099 200.08C62.5899 203.5 62.0199 202.32 59.9099 205.86C57.7899 209.4 58.6599 212.43 58.6599 212.43C58.6599 212.43 68.8699 212.65 73.9799 209.14C79.0899 205.63 80.4599 212.65 86.6799 211.53C92.9099 210.41 93.8999 205.93 86.4299 204.88L86.4399 204.89Z" fill="#ACB5CC"/>
<path d="M43.38 210.59C43.38 210.59 41.04 197.12 31.74 195.87C22.44 194.62 23.68 198.98 19.45 197.12C15.22 195.25 7.98996 198.75 8.98996 203.41C9.98996 208.07 0.26996 207.2 5.62996 212.56C10.98 217.91 18.37 213.93 23.52 210.69C28.67 207.45 28.17 211.4 33.65 211.4C39.13 211.4 43.39 210.59 43.39 210.59H43.38Z" fill="#ACB5CC"/>
<path d="M48.1899 208.77C48.1899 208.77 54.1899 195.75 51.5699 191.27C48.9499 186.79 51.8599 185.04 49.4099 178.82C46.9599 172.59 43.9699 167.36 37.2499 168.61C30.5299 169.86 30.6499 161.51 22.4299 163.5C14.2099 165.49 14.0899 173.96 22.4299 178.82C30.7699 183.68 25.0499 185.3 28.0299 189.65C31.0199 194.01 38.7399 189.53 39.8599 196.13C40.9799 202.73 48.1899 208.78 48.1899 208.78V208.77Z" fill="#ACB5CC"/>
<path d="M48.19 208.77C47.34 202.76 46.51 196.63 44.62 190.84C41.77 182.1 35.89 173.93 26.48 171.85C26.41 171.84 26.39 171.93 26.45 171.95C36.45 174.6 42.05 184.03 44.56 193.42C45.96 198.65 46.69 204.07 47.39 209.43C48.11 214.94 48.12 220.48 48.7 225.99C48.72 226.15 48.97 226.22 49 226.03C49.98 220.41 48.98 214.36 48.19 208.76V208.77Z" fill="#F0F9FF"/>
<path d="M43.99 210.69C42.64 207.52 41.2 204.25 38.32 202.17C31.43 197.19 22.9 200.28 15.91 203.21C15.82 203.25 15.86 203.39 15.95 203.35C22.65 200.92 31.02 198.36 37.5 202.79C40.79 205.04 42.35 209.21 43.76 212.77C45.09 216.14 45.88 219.66 47.1 223.06C47.19 223.32 47.65 223.31 47.63 222.99C47.26 218.77 45.65 214.55 44 210.68L43.99 210.69Z" fill="#F0F9FF"/>
<path d="M82.01 176.83C58.74 181.22 50.31 208.3 53.13 229.07C53.15 229.25 53.43 229.2 53.44 229.03C54.01 217.55 54.14 206.04 59.58 195.58C64.2 186.7 72.06 179.14 82.03 176.91C82.08 176.9 82.06 176.82 82.01 176.83Z" fill="#F0F9FF"/>
<path d="M80.1099 205.44C74.7599 202.06 67.1399 200.57 62.3399 205.75C60.0299 208.24 58.6899 211.77 57.5899 214.94C56.2099 218.93 55.5099 222.86 55.6499 227.08C55.6499 227.25 55.9299 227.31 55.9699 227.12C57.1599 220.95 58.5599 214.5 61.6999 208.99C65.6699 202.03 73.6799 202.32 80.0699 205.52C80.1199 205.55 80.1599 205.47 80.1099 205.44Z" fill="#F0F9FF"/>
<path d="M55.25 219.07L51.03 219.18L46.81 219.07C46.81 219.07 32.85 235.02 36.09 245.82C39.34 256.63 43.88 259.14 43.88 259.14H58.17C58.17 259.14 62.72 256.63 65.96 245.82C69.21 235.01 55.24 219.07 55.24 219.07H55.25Z" fill="#ACB5CC"/>
<path d="M62.18 216.7H39.87C38.8869 216.7 38.09 217.497 38.09 218.48V220.03C38.09 221.013 38.8869 221.81 39.87 221.81H62.18C63.163 221.81 63.96 221.013 63.96 220.03V218.48C63.96 217.497 63.163 216.7 62.18 216.7Z" fill="#ACB5CC"/>
<path d="M39 268.5L24.36 323.21H20.08L28.43 271.93C31.94 270.72 35.48 269.6 39 268.5Z" fill="#F0F9FF"/>
<path d="M30.2499 260.74L40.7399 261.99L38.9999 268.5C35.4899 269.6 31.9399 270.72 28.4299 271.93L30.2499 260.74Z" fill="#F0F9FF"/>
<path opacity="0.2" d="M30.2499 260.74L40.7399 261.99L38.9999 268.5C35.4899 269.6 31.9399 270.72 28.4299 271.93L30.2499 260.74Z" fill="#8F97AA"/>
<path opacity="0.2" d="M72.3899 260.74L61.8999 261.99L63.6399 268.5C67.1499 269.6 70.6999 270.72 74.2099 271.93L72.3899 260.74Z" fill="#8F97AA"/>
<path d="M78.76 257.99H23.88C22.4938 257.99 21.37 259.114 21.37 260.5V260.99C21.37 262.376 22.4938 263.5 23.88 263.5H78.76C80.1462 263.5 81.27 262.376 81.27 260.99V260.5C81.27 259.114 80.1462 257.99 78.76 257.99Z" fill="#F0F9FF"/>
<path d="M283.64 89.6499L275.63 106.25L293.66 102.4C293.27 100.58 292.6 98.7999 291.63 97.0999C291.63 97.0999 288.05 90.4499 283.64 89.6499Z" fill="#F0F9FF"/>
<path d="M285.46 79.86C283.38 78.86 281.13 78.22 278.83 77.99L274.89 105.85L285.46 79.87V79.86Z" fill="#ACB5CC"/>
<path d="M276.15 87.5799C272.16 87.1699 268.01 87.9599 264.27 90.0999C254.73 95.5499 251.42 107.7 256.87 117.24C262.05 126.3 273.28 129.74 282.56 125.38L274.13 107.37L276.14 87.5899L276.15 87.5799Z" fill="#F0F9FF"/>
<path d="M283.58 124.77L283.75 124.69C284.26 124.45 284.71 124.22 285.12 123.98C292.29 119.88 295.95 111.7 294.23 103.63L294.19 103.44L275.47 107.43L283.58 124.76V124.77Z" fill="#F0F9FF"/>
<path d="M175.9 156.14L166.8 169.37L184.24 159.61L175.9 156.14Z" fill="#ACB5CC"/>
<path d="M209.6 136.65H178.52C174.941 136.65 172.04 139.551 172.04 143.13V164.94C172.04 168.519 174.941 171.42 178.52 171.42H209.6C213.179 171.42 216.08 168.519 216.08 164.94V143.13C216.08 139.551 213.179 136.65 209.6 136.65Z" fill="#ACB5CC"/>
<path d="M207.52 139.65H204.38V166.73H207.52V139.65Z" fill="#8F97AA"/>
<path d="M202.66 153.19H199.52V166.73H202.66V153.19Z" fill="#F0F9FF"/>
<path d="M198.1 150.84H194.96V166.73H198.1V150.84Z" fill="#8F97AA"/>
<path d="M193.65 147.38H190.51V166.73H193.65V147.38Z" fill="#F0F9FF"/>
<path d="M188.78 153.19H185.64V166.73H188.78V153.19Z" fill="#8F97AA"/>
<path d="M184.23 158.78H181.09V166.73H184.23V158.78Z" fill="#F0F9FF"/>
<path d="M101.59 82.7798H104.28C107.16 82.7798 109.49 85.1198 109.49 87.9898V132.04H96.3799V87.9898C96.3799 85.1098 98.7199 82.7798 101.59 82.7798Z" fill="#F0F9FF"/>
<path d="M86.0099 107.41H88.6999C91.5799 107.41 93.9099 109.75 93.9099 112.62V132.04H80.7999V112.62C80.7999 109.74 83.1399 107.41 86.0099 107.41Z" fill="#ACB5CC"/>
<path d="M70.44 99.74H73.13C76.01 99.74 78.34 102.08 78.34 104.95V132.04H65.23V104.95C65.23 102.07 67.57 99.74 70.44 99.74Z" fill="#F0F9FF"/>
<path d="M54.8699 94.6099H57.5599C60.4399 94.6099 62.7699 96.9499 62.7699 99.8199V132.04H49.6499V99.8199C49.6499 96.9399 51.9899 94.6099 54.8599 94.6099H54.8699Z" fill="#ACB5CC"/>
<path d="M39.29 107.41H41.98C44.86 107.41 47.19 109.75 47.19 112.62V132.04H34.08V112.62C34.08 109.74 36.42 107.41 39.29 107.41Z" fill="#F0F9FF"/>
<path d="M82.8799 96.1098L56.3199 79.6298L38.1899 95.4698L36.6899 93.7598L56.0899 76.8098L82.3799 93.1198L99.5199 72.0398L101.29 73.4698L82.8799 96.1098Z" fill="#ACB5CC"/>
<path d="M106.14 72.6199C106.14 74.9599 104.24 76.8599 101.9 76.8599C99.5599 76.8599 97.6699 74.9599 97.6699 72.6199C97.6699 70.2799 99.5699 68.3899 101.9 68.3899C104.23 68.3899 106.14 70.2899 106.14 72.6199Z" fill="#ACB5CC"/>
<path d="M56.94 82.9998C59.2761 82.9998 61.17 81.106 61.17 78.7698C61.17 76.4336 59.2761 74.5398 56.94 74.5398C54.6038 74.5398 52.71 76.4336 52.71 78.7698C52.71 81.106 54.6038 82.9998 56.94 82.9998Z" fill="#ACB5CC"/>
<path d="M86.81 94.6099C86.81 96.9499 84.91 98.8399 82.57 98.8399C80.23 98.8399 78.34 96.9399 78.34 94.6099C78.34 92.2799 80.24 90.3699 82.57 90.3699C84.9 90.3699 86.81 92.2699 86.81 94.6099Z" fill="#ACB5CC"/>
<path d="M43.8999 92.5098C43.8999 94.8498 41.9999 96.7498 39.6599 96.7498C37.3199 96.7498 35.4199 94.8498 35.4199 92.5098C35.4199 90.1698 37.3199 88.2698 39.6599 88.2698C41.9999 88.2698 43.8999 90.1698 43.8999 92.5098Z" fill="#ACB5CC"/>
</g>
<path d="M27.2195 25.216C26.2955 25.216 25.4915 25.048 24.8075 24.712C24.1235 24.376 23.5955 23.908 23.2235 23.308C22.8515 22.708 22.6655 22.012 22.6655 21.22H24.2495C24.2495 21.712 24.3635 22.168 24.5915 22.588C24.8195 22.996 25.1495 23.326 25.5815 23.578C26.0255 23.818 26.5715 23.938 27.2195 23.938C27.7835 23.938 28.2635 23.848 28.6595 23.668C29.0675 23.476 29.3735 23.218 29.5775 22.894C29.7935 22.57 29.9015 22.204 29.9015 21.796C29.9015 21.304 29.7935 20.908 29.5775 20.608C29.3735 20.296 29.0915 20.044 28.7315 19.852C28.3715 19.66 27.9515 19.492 27.4715 19.348C27.0035 19.192 26.5115 19.03 25.9955 18.862C24.9995 18.526 24.2675 18.106 23.7995 17.602C23.3315 17.098 23.0975 16.444 23.0975 15.64C23.0975 14.956 23.2535 14.356 23.5655 13.84C23.8895 13.324 24.3455 12.922 24.9335 12.634C25.5335 12.334 26.2415 12.184 27.0575 12.184C27.8615 12.184 28.5575 12.334 29.1455 12.634C29.7455 12.934 30.2135 13.348 30.5495 13.876C30.8855 14.392 31.0535 14.992 31.0535 15.676H29.4695C29.4695 15.328 29.3795 14.986 29.1995 14.65C29.0195 14.314 28.7435 14.038 28.3715 13.822C28.0115 13.594 27.5555 13.48 27.0035 13.48C26.5475 13.468 26.1395 13.546 25.7795 13.714C25.4315 13.87 25.1555 14.098 24.9515 14.398C24.7595 14.698 24.6635 15.064 24.6635 15.496C24.6635 15.904 24.7475 16.234 24.9155 16.486C25.0955 16.738 25.3475 16.954 25.6715 17.134C26.0075 17.302 26.3975 17.458 26.8415 17.602C27.2855 17.746 27.7775 17.908 28.3175 18.088C28.9295 18.292 29.4695 18.544 29.9375 18.844C30.4175 19.132 30.7895 19.504 31.0535 19.96C31.3295 20.416 31.4675 20.998 31.4675 21.706C31.4675 22.306 31.3055 22.876 30.9815 23.416C30.6695 23.944 30.2015 24.376 29.5775 24.712C28.9535 25.048 28.1675 25.216 27.2195 25.216ZM37.5349 25.216C36.6829 25.216 35.9269 25.018 35.2669 24.622C34.6189 24.226 34.1089 23.674 33.7369 22.966C33.3649 22.246 33.1789 21.412 33.1789 20.464C33.1789 19.504 33.3589 18.67 33.7189 17.962C34.0909 17.254 34.6069 16.702 35.2669 16.306C35.9389 15.91 36.7069 15.712 37.5709 15.712C38.4589 15.712 39.2089 15.91 39.8209 16.306C40.4449 16.702 40.9189 17.224 41.2429 17.872C41.5789 18.508 41.7469 19.21 41.7469 19.978C41.7469 20.098 41.7469 20.224 41.7469 20.356C41.7469 20.488 41.7409 20.638 41.7289 20.806H34.3129V19.636H40.2709C40.2349 18.808 39.9589 18.16 39.4429 17.692C38.9389 17.224 38.3029 16.99 37.5349 16.99C37.0189 16.99 36.5389 17.11 36.0949 17.35C35.6629 17.578 35.3149 17.92 35.0509 18.376C34.7869 18.82 34.6549 19.378 34.6549 20.05V20.554C34.6549 21.298 34.7869 21.922 35.0509 22.426C35.3269 22.93 35.6809 23.308 36.1129 23.56C36.5569 23.812 37.0309 23.938 37.5349 23.938C38.1709 23.938 38.6929 23.8 39.1009 23.524C39.5209 23.236 39.8209 22.852 40.0009 22.372H41.4949C41.3509 22.912 41.0989 23.398 40.7389 23.83C40.3789 24.262 39.9289 24.604 39.3889 24.856C38.8609 25.096 38.2429 25.216 37.5349 25.216ZM43.7873 25V12.04H45.2993V25H43.7873ZM51.7732 25.216C50.9212 25.216 50.1652 25.018 49.5052 24.622C48.8572 24.226 48.3472 23.674 47.9752 22.966C47.6032 22.246 47.4172 21.412 47.4172 20.464C47.4172 19.504 47.5972 18.67 47.9572 17.962C48.3292 17.254 48.8452 16.702 49.5052 16.306C50.1772 15.91 50.9452 15.712 51.8092 15.712C52.6972 15.712 53.4472 15.91 54.0592 16.306C54.6832 16.702 55.1572 17.224 55.4812 17.872C55.8172 18.508 55.9852 19.21 55.9852 19.978C55.9852 20.098 55.9852 20.224 55.9852 20.356C55.9852 20.488 55.9792 20.638 55.9672 20.806H48.5512V19.636H54.5092C54.4732 18.808 54.1972 18.16 53.6812 17.692C53.1772 17.224 52.5412 16.99 51.7732 16.99C51.2572 16.99 50.7772 17.11 50.3332 17.35C49.9012 17.578 49.5532 17.92 49.2892 18.376C49.0252 18.82 48.8932 19.378 48.8932 20.05V20.554C48.8932 21.298 49.0252 21.922 49.2892 22.426C49.5652 22.93 49.9192 23.308 50.3512 23.56C50.7952 23.812 51.2692 23.938 51.7732 23.938C52.4092 23.938 52.9312 23.8 53.3392 23.524C53.7592 23.236 54.0592 22.852 54.2392 22.372H55.7332C55.5892 22.912 55.3372 23.398 54.9772 23.83C54.6172 24.262 54.1672 24.604 53.6272 24.856C53.0992 25.096 52.4812 25.216 51.7732 25.216ZM62.1116 25.216C61.2596 25.216 60.4916 25.018 59.8076 24.622C59.1356 24.226 58.6076 23.674 58.2236 22.966C57.8396 22.246 57.6476 21.418 57.6476 20.482C57.6476 19.522 57.8396 18.688 58.2236 17.98C58.6076 17.272 59.1356 16.72 59.8076 16.324C60.4916 15.916 61.2596 15.712 62.1116 15.712C63.1916 15.712 64.0916 15.994 64.8116 16.558C65.5316 17.11 65.9876 17.854 66.1796 18.79H64.6316C64.5116 18.226 64.2176 17.788 63.7496 17.476C63.2816 17.164 62.7296 17.008 62.0936 17.008C61.5776 17.008 61.0976 17.14 60.6536 17.404C60.2096 17.656 59.8556 18.04 59.5916 18.556C59.3276 19.072 59.1956 19.708 59.1956 20.464C59.1956 21.028 59.2736 21.532 59.4296 21.976C59.5856 22.408 59.7956 22.768 60.0596 23.056C60.3236 23.344 60.6296 23.566 60.9776 23.722C61.3376 23.866 61.7096 23.938 62.0936 23.938C62.5256 23.938 62.9156 23.872 63.2636 23.74C63.6116 23.596 63.9056 23.386 64.1456 23.11C64.3856 22.834 64.5476 22.51 64.6316 22.138H66.1796C65.9876 23.05 65.5256 23.794 64.7936 24.37C64.0736 24.934 63.1796 25.216 62.1116 25.216ZM71.6443 25C71.1043 25 70.6363 24.916 70.2403 24.748C69.8443 24.58 69.5383 24.298 69.3223 23.902C69.1183 23.494 69.0163 22.948 69.0163 22.264V17.206H67.4323V15.928H69.0163L69.2143 13.732H70.5283V15.928H73.1563V17.206H70.5283V22.264C70.5283 22.828 70.6423 23.212 70.8703 23.416C71.0983 23.608 71.5003 23.704 72.0763 23.704H73.0483V25H71.6443ZM83.4744 25C82.9344 25 82.4664 24.916 82.0704 24.748C81.6744 24.58 81.3684 24.298 81.1524 23.902C80.9484 23.494 80.8464 22.948 80.8464 22.264V17.206H79.2624V15.928H80.8464L81.0444 13.732H82.3584V15.928H84.9864V17.206H82.3584V22.264C82.3584 22.828 82.4724 23.212 82.7004 23.416C82.9284 23.608 83.3304 23.704 83.9064 23.704H84.8784V25H83.4744ZM86.9592 25V12.04H88.4712V17.458C88.7712 16.918 89.1912 16.492 89.7312 16.18C90.2832 15.868 90.8832 15.712 91.5312 15.712C92.2272 15.712 92.8332 15.856 93.3492 16.144C93.8652 16.42 94.2612 16.846 94.5372 17.422C94.8132 17.998 94.9512 18.724 94.9512 19.6V25H93.4572V19.762C93.4572 18.85 93.2652 18.166 92.8812 17.71C92.4972 17.242 91.9392 17.008 91.2072 17.008C90.6912 17.008 90.2232 17.134 89.8032 17.386C89.3952 17.638 89.0712 17.998 88.8312 18.466C88.5912 18.934 88.4712 19.51 88.4712 20.194V25H86.9592ZM101.291 25.216C100.439 25.216 99.6827 25.018 99.0227 24.622C98.3747 24.226 97.8647 23.674 97.4927 22.966C97.1207 22.246 96.9347 21.412 96.9347 20.464C96.9347 19.504 97.1147 18.67 97.4747 17.962C97.8467 17.254 98.3627 16.702 99.0227 16.306C99.6947 15.91 100.463 15.712 101.327 15.712C102.215 15.712 102.965 15.91 103.577 16.306C104.201 16.702 104.675 17.224 104.999 17.872C105.335 18.508 105.503 19.21 105.503 19.978C105.503 20.098 105.503 20.224 105.503 20.356C105.503 20.488 105.497 20.638 105.485 20.806H98.0687V19.636H104.027C103.991 18.808 103.715 18.16 103.199 17.692C102.695 17.224 102.059 16.99 101.291 16.99C100.775 16.99 100.295 17.11 99.8507 17.35C99.4187 17.578 99.0707 17.92 98.8067 18.376C98.5427 18.82 98.4107 19.378 98.4107 20.05V20.554C98.4107 21.298 98.5427 21.922 98.8067 22.426C99.0827 22.93 99.4367 23.308 99.8687 23.56C100.313 23.812 100.787 23.938 101.291 23.938C101.927 23.938 102.449 23.8 102.857 23.524C103.277 23.236 103.577 22.852 103.757 22.372H105.251C105.107 22.912 104.855 23.398 104.495 23.83C104.135 24.262 103.685 24.604 103.145 24.856C102.617 25.096 101.999 25.216 101.291 25.216ZM116.302 25.216C115.45 25.216 114.694 25.018 114.034 24.622C113.386 24.226 112.876 23.674 112.504 22.966C112.132 22.246 111.946 21.412 111.946 20.464C111.946 19.504 112.126 18.67 112.486 17.962C112.858 17.254 113.374 16.702 114.034 16.306C114.706 15.91 115.474 15.712 116.338 15.712C117.226 15.712 117.976 15.91 118.588 16.306C119.212 16.702 119.686 17.224 120.01 17.872C120.346 18.508 120.514 19.21 120.514 19.978C120.514 20.098 120.514 20.224 120.514 20.356C120.514 20.488 120.508 20.638 120.496 20.806H113.08V19.636H119.038C119.002 18.808 118.726 18.16 118.21 17.692C117.706 17.224 117.07 16.99 116.302 16.99C115.786 16.99 115.306 17.11 114.862 17.35C114.43 17.578 114.082 17.92 113.818 18.376C113.554 18.82 113.422 19.378 113.422 20.05V20.554C113.422 21.298 113.554 21.922 113.818 22.426C114.094 22.93 114.448 23.308 114.88 23.56C115.324 23.812 115.798 23.938 116.302 23.938C116.938 23.938 117.46 23.8 117.868 23.524C118.288 23.236 118.588 22.852 118.768 22.372H120.262C120.118 22.912 119.866 23.398 119.506 23.83C119.146 24.262 118.696 24.604 118.156 24.856C117.628 25.096 117.01 25.216 116.302 25.216ZM121.233 25L124.311 20.464L121.233 15.928H122.889L125.337 19.636L127.821 15.928H129.441L126.363 20.464L129.441 25H127.821L125.337 21.274L122.889 25H121.233ZM133.962 25.216C133.23 25.216 132.618 25.09 132.126 24.838C131.634 24.574 131.268 24.232 131.028 23.812C130.788 23.38 130.668 22.912 130.668 22.408C130.668 21.796 130.824 21.28 131.136 20.86C131.46 20.428 131.91 20.104 132.486 19.888C133.074 19.66 133.764 19.546 134.556 19.546H136.95C136.95 18.982 136.86 18.514 136.68 18.142C136.512 17.758 136.26 17.47 135.924 17.278C135.6 17.086 135.192 16.99 134.7 16.99C134.124 16.99 133.626 17.134 133.206 17.422C132.786 17.71 132.528 18.136 132.432 18.7H130.884C130.956 18.052 131.172 17.512 131.532 17.08C131.904 16.636 132.372 16.3 132.936 16.072C133.5 15.832 134.088 15.712 134.7 15.712C135.54 15.712 136.236 15.868 136.788 16.18C137.352 16.48 137.772 16.906 138.048 17.458C138.324 17.998 138.462 18.64 138.462 19.384V25H137.112L137.022 23.398C136.902 23.65 136.746 23.89 136.554 24.118C136.374 24.334 136.158 24.526 135.906 24.694C135.654 24.85 135.366 24.976 135.042 25.072C134.73 25.168 134.37 25.216 133.962 25.216ZM134.196 23.938C134.616 23.938 134.994 23.854 135.33 23.686C135.678 23.506 135.972 23.266 136.212 22.966C136.452 22.654 136.632 22.312 136.752 21.94C136.884 21.568 136.95 21.178 136.95 20.77V20.716H134.682C134.094 20.716 133.62 20.788 133.26 20.932C132.9 21.064 132.642 21.256 132.486 21.508C132.33 21.748 132.252 22.024 132.252 22.336C132.252 22.66 132.324 22.942 132.468 23.182C132.624 23.422 132.846 23.608 133.134 23.74C133.434 23.872 133.788 23.938 134.196 23.938ZM140.801 25V15.928H142.169L142.259 17.224C142.547 16.756 142.931 16.39 143.411 16.126C143.903 15.85 144.437 15.712 145.013 15.712C145.481 15.712 145.901 15.778 146.273 15.91C146.657 16.03 146.993 16.222 147.281 16.486C147.569 16.738 147.803 17.062 147.983 17.458C148.295 16.906 148.721 16.48 149.261 16.18C149.813 15.868 150.401 15.712 151.025 15.712C151.721 15.712 152.327 15.856 152.843 16.144C153.371 16.42 153.773 16.846 154.049 17.422C154.337 17.986 154.481 18.706 154.481 19.582V25H152.987V19.744C152.987 18.832 152.801 18.148 152.429 17.692C152.057 17.236 151.535 17.008 150.863 17.008C150.395 17.008 149.975 17.134 149.603 17.386C149.231 17.626 148.937 17.98 148.721 18.448C148.505 18.916 148.397 19.492 148.397 20.176V25H146.885V19.744C146.885 18.832 146.699 18.148 146.327 17.692C145.955 17.236 145.427 17.008 144.743 17.008C144.287 17.008 143.873 17.134 143.501 17.386C143.141 17.626 142.853 17.98 142.637 18.448C142.421 18.916 142.313 19.492 142.313 20.176V25H140.801ZM165.61 25.216C164.734 25.216 163.966 25.012 163.306 24.604C162.646 24.184 162.136 23.614 161.776 22.894C161.416 22.174 161.236 21.358 161.236 20.446C161.236 19.534 161.416 18.724 161.776 18.016C162.136 17.296 162.646 16.732 163.306 16.324C163.978 15.916 164.752 15.712 165.628 15.712C166.372 15.712 167.02 15.862 167.572 16.162C168.136 16.462 168.568 16.882 168.868 17.422V12.04H170.38V25H169.012L168.886 23.506C168.694 23.806 168.448 24.088 168.148 24.352C167.848 24.604 167.488 24.814 167.068 24.982C166.648 25.138 166.162 25.216 165.61 25.216ZM165.79 23.902C166.39 23.902 166.918 23.758 167.374 23.47C167.83 23.182 168.184 22.786 168.436 22.282C168.688 21.766 168.814 21.16 168.814 20.464C168.814 19.78 168.688 19.18 168.436 18.664C168.184 18.148 167.83 17.746 167.374 17.458C166.918 17.17 166.39 17.026 165.79 17.026C165.202 17.026 164.68 17.17 164.224 17.458C163.768 17.746 163.414 18.148 163.162 18.664C162.91 19.18 162.784 19.78 162.784 20.464C162.784 21.16 162.91 21.766 163.162 22.282C163.414 22.786 163.768 23.182 164.224 23.47C164.68 23.758 165.202 23.902 165.79 23.902ZM176.877 25.216C176.025 25.216 175.269 25.018 174.609 24.622C173.961 24.226 173.451 23.674 173.079 22.966C172.707 22.246 172.521 21.412 172.521 20.464C172.521 19.504 172.701 18.67 173.061 17.962C173.433 17.254 173.949 16.702 174.609 16.306C175.281 15.91 176.049 15.712 176.913 15.712C177.801 15.712 178.551 15.91 179.163 16.306C179.787 16.702 180.261 17.224 180.585 17.872C180.921 18.508 181.089 19.21 181.089 19.978C181.089 20.098 181.089 20.224 181.089 20.356C181.089 20.488 181.083 20.638 181.071 20.806H173.655V19.636H179.613C179.577 18.808 179.301 18.16 178.785 17.692C178.281 17.224 177.645 16.99 176.877 16.99C176.361 16.99 175.881 17.11 175.437 17.35C175.005 17.578 174.657 17.92 174.393 18.376C174.129 18.82 173.997 19.378 173.997 20.05V20.554C173.997 21.298 174.129 21.922 174.393 22.426C174.669 22.93 175.023 23.308 175.455 23.56C175.899 23.812 176.373 23.938 176.877 23.938C177.513 23.938 178.035 23.8 178.443 23.524C178.863 23.236 179.163 22.852 179.343 22.372H180.837C180.693 22.912 180.441 23.398 180.081 23.83C179.721 24.262 179.271 24.604 178.731 24.856C178.203 25.096 177.585 25.216 176.877 25.216ZM186.394 25C185.854 25 185.386 24.916 184.99 24.748C184.594 24.58 184.288 24.298 184.072 23.902C183.868 23.494 183.766 22.948 183.766 22.264V17.206H182.182V15.928H183.766L183.964 13.732H185.278V15.928H187.906V17.206H185.278V22.264C185.278 22.828 185.392 23.212 185.62 23.416C185.848 23.608 186.25 23.704 186.826 23.704H187.798V25H186.394ZM192.831 25.216C192.099 25.216 191.487 25.09 190.995 24.838C190.503 24.574 190.137 24.232 189.897 23.812C189.657 23.38 189.537 22.912 189.537 22.408C189.537 21.796 189.693 21.28 190.005 20.86C190.329 20.428 190.779 20.104 191.355 19.888C191.943 19.66 192.633 19.546 193.425 19.546H195.819C195.819 18.982 195.729 18.514 195.549 18.142C195.381 17.758 195.129 17.47 194.793 17.278C194.469 17.086 194.061 16.99 193.569 16.99C192.993 16.99 192.495 17.134 192.075 17.422C191.655 17.71 191.397 18.136 191.301 18.7H189.753C189.825 18.052 190.041 17.512 190.401 17.08C190.773 16.636 191.241 16.3 191.805 16.072C192.369 15.832 192.957 15.712 193.569 15.712C194.409 15.712 195.105 15.868 195.657 16.18C196.221 16.48 196.641 16.906 196.917 17.458C197.193 17.998 197.331 18.64 197.331 19.384V25H195.981L195.891 23.398C195.771 23.65 195.615 23.89 195.423 24.118C195.243 24.334 195.027 24.526 194.775 24.694C194.523 24.85 194.235 24.976 193.911 25.072C193.599 25.168 193.239 25.216 192.831 25.216ZM193.065 23.938C193.485 23.938 193.863 23.854 194.199 23.686C194.547 23.506 194.841 23.266 195.081 22.966C195.321 22.654 195.501 22.312 195.621 21.94C195.753 21.568 195.819 21.178 195.819 20.77V20.716H193.551C192.963 20.716 192.489 20.788 192.129 20.932C191.769 21.064 191.511 21.256 191.355 21.508C191.199 21.748 191.121 22.024 191.121 22.336C191.121 22.66 191.193 22.942 191.337 23.182C191.493 23.422 191.715 23.608 192.003 23.74C192.303 23.872 192.657 23.938 193.065 23.938ZM199.814 25V15.928H201.326V25H199.814ZM200.57 14.002C200.27 14.002 200.018 13.906 199.814 13.714C199.622 13.51 199.526 13.258 199.526 12.958C199.526 12.658 199.622 12.418 199.814 12.238C200.018 12.046 200.27 11.95 200.57 11.95C200.858 11.95 201.104 12.046 201.308 12.238C201.512 12.418 201.614 12.658 201.614 12.958C201.614 13.258 201.512 13.51 201.308 13.714C201.104 13.906 200.858 14.002 200.57 14.002ZM203.994 25V12.04H205.506V25H203.994ZM211.422 25.216C210.666 25.216 210.006 25.09 209.442 24.838C208.89 24.586 208.446 24.238 208.11 23.794C207.786 23.338 207.588 22.804 207.516 22.192H209.064C209.124 22.504 209.25 22.792 209.442 23.056C209.634 23.32 209.892 23.536 210.216 23.704C210.552 23.86 210.96 23.938 211.44 23.938C211.86 23.938 212.208 23.878 212.484 23.758C212.76 23.626 212.964 23.452 213.096 23.236C213.24 23.02 213.312 22.786 213.312 22.534C213.312 22.162 213.222 21.88 213.042 21.688C212.874 21.496 212.622 21.346 212.286 21.238C211.95 21.118 211.542 21.016 211.062 20.932C210.666 20.86 210.276 20.764 209.892 20.644C209.508 20.524 209.166 20.368 208.866 20.176C208.566 19.972 208.326 19.726 208.146 19.438C207.978 19.15 207.894 18.796 207.894 18.376C207.894 17.86 208.026 17.404 208.29 17.008C208.554 16.6 208.932 16.282 209.424 16.054C209.928 15.826 210.51 15.712 211.17 15.712C212.142 15.712 212.928 15.946 213.528 16.414C214.128 16.882 214.482 17.56 214.59 18.448H213.096C213.036 17.992 212.838 17.638 212.502 17.386C212.178 17.122 211.728 16.99 211.152 16.99C210.588 16.99 210.156 17.104 209.856 17.332C209.568 17.56 209.424 17.86 209.424 18.232C209.424 18.472 209.502 18.688 209.658 18.88C209.826 19.06 210.066 19.216 210.378 19.348C210.702 19.48 211.098 19.588 211.566 19.672C212.166 19.78 212.712 19.924 213.204 20.104C213.696 20.284 214.092 20.554 214.392 20.914C214.704 21.262 214.86 21.76 214.86 22.408C214.86 22.972 214.716 23.464 214.428 23.884C214.152 24.304 213.756 24.634 213.24 24.874C212.724 25.102 212.118 25.216 211.422 25.216ZM225.383 25C224.843 25 224.375 24.916 223.979 24.748C223.583 24.58 223.277 24.298 223.061 23.902C222.857 23.494 222.755 22.948 222.755 22.264V17.206H221.171V15.928H222.755L222.953 13.732H224.267V15.928H226.895V17.206H224.267V22.264C224.267 22.828 224.381 23.212 224.609 23.416C224.837 23.608 225.239 23.704 225.815 23.704H226.787V25H225.383ZM232.671 25.216C231.831 25.216 231.075 25.024 230.403 24.64C229.731 24.244 229.203 23.692 228.819 22.984C228.435 22.264 228.243 21.43 228.243 20.482C228.243 19.51 228.435 18.67 228.819 17.962C229.215 17.242 229.749 16.69 230.421 16.306C231.105 15.91 231.867 15.712 232.707 15.712C233.571 15.712 234.333 15.91 234.993 16.306C235.665 16.69 236.193 17.242 236.577 17.962C236.973 18.67 237.171 19.504 237.171 20.464C237.171 21.424 236.973 22.264 236.577 22.984C236.181 23.692 235.647 24.244 234.975 24.64C234.303 25.024 233.535 25.216 232.671 25.216ZM232.689 23.92C233.205 23.92 233.685 23.794 234.129 23.542C234.573 23.278 234.933 22.888 235.209 22.372C235.485 21.856 235.623 21.22 235.623 20.464C235.623 19.696 235.485 19.06 235.209 18.556C234.945 18.04 234.591 17.656 234.147 17.404C233.715 17.14 233.235 17.008 232.707 17.008C232.203 17.008 231.723 17.14 231.267 17.404C230.823 17.656 230.463 18.04 230.187 18.556C229.923 19.06 229.791 19.696 229.791 20.464C229.791 21.22 229.923 21.856 230.187 22.372C230.463 22.888 230.817 23.278 231.249 23.542C231.693 23.794 232.173 23.92 232.689 23.92ZM246.683 25L243.245 15.928H244.829L247.564 23.542L250.319 15.928H251.867L248.429 25H246.683ZM253.709 25V15.928H255.221V25H253.709ZM254.465 14.002C254.165 14.002 253.913 13.906 253.709 13.714C253.517 13.51 253.421 13.258 253.421 12.958C253.421 12.658 253.517 12.418 253.709 12.238C253.913 12.046 254.165 11.95 254.465 11.95C254.753 11.95 254.999 12.046 255.203 12.238C255.407 12.418 255.509 12.658 255.509 12.958C255.509 13.258 255.407 13.51 255.203 13.714C254.999 13.906 254.753 14.002 254.465 14.002ZM261.867 25.216C261.015 25.216 260.259 25.018 259.599 24.622C258.951 24.226 258.441 23.674 258.069 22.966C257.697 22.246 257.511 21.412 257.511 20.464C257.511 19.504 257.691 18.67 258.051 17.962C258.423 17.254 258.939 16.702 259.599 16.306C260.271 15.91 261.039 15.712 261.903 15.712C262.791 15.712 263.541 15.91 264.153 16.306C264.777 16.702 265.251 17.224 265.575 17.872C265.911 18.508 266.079 19.21 266.079 19.978C266.079 20.098 266.079 20.224 266.079 20.356C266.079 20.488 266.073 20.638 266.061 20.806H258.645V19.636H264.603C264.567 18.808 264.291 18.16 263.775 17.692C263.271 17.224 262.635 16.99 261.867 16.99C261.351 16.99 260.871 17.11 260.427 17.35C259.995 17.578 259.647 17.92 259.383 18.376C259.119 18.82 258.987 19.378 258.987 20.05V20.554C258.987 21.298 259.119 21.922 259.383 22.426C259.659 22.93 260.013 23.308 260.445 23.56C260.889 23.812 261.363 23.938 261.867 23.938C262.503 23.938 263.025 23.8 263.433 23.524C263.853 23.236 264.153 22.852 264.333 22.372H265.827C265.683 22.912 265.431 23.398 265.071 23.83C264.711 24.262 264.261 24.604 263.721 24.856C263.193 25.096 262.575 25.216 261.867 25.216ZM269.604 25L266.94 15.928H268.452L270.522 23.578H270.252L272.502 15.928H274.212L276.498 23.56L276.21 23.578L278.262 15.928H279.792L277.146 25H275.598L273.222 17.008H273.528L271.152 25H269.604ZM287.268 28.96L289.482 23.992H288.96L285.396 15.928H287.034L289.986 22.858L293.082 15.928H294.648L288.852 28.96H287.268ZM299.486 25.216C298.646 25.216 297.89 25.024 297.218 24.64C296.546 24.244 296.018 23.692 295.634 22.984C295.25 22.264 295.058 21.43 295.058 20.482C295.058 19.51 295.25 18.67 295.634 17.962C296.03 17.242 296.564 16.69 297.236 16.306C297.92 15.91 298.682 15.712 299.522 15.712C300.386 15.712 301.148 15.91 301.808 16.306C302.48 16.69 303.008 17.242 303.392 17.962C303.788 18.67 303.986 19.504 303.986 20.464C303.986 21.424 303.788 22.264 303.392 22.984C302.996 23.692 302.462 24.244 301.79 24.64C301.118 25.024 300.35 25.216 299.486 25.216ZM299.504 23.92C300.02 23.92 300.5 23.794 300.944 23.542C301.388 23.278 301.748 22.888 302.024 22.372C302.3 21.856 302.438 21.22 302.438 20.464C302.438 19.696 302.3 19.06 302.024 18.556C301.76 18.04 301.406 17.656 300.962 17.404C300.53 17.14 300.05 17.008 299.522 17.008C299.018 17.008 298.538 17.14 298.082 17.404C297.638 17.656 297.278 18.04 297.002 18.556C296.738 19.06 296.606 19.696 296.606 20.464C296.606 21.22 296.738 21.856 297.002 22.372C297.278 22.888 297.632 23.278 298.064 23.542C298.508 23.794 298.988 23.92 299.504 23.92ZM309.4 25.216C308.704 25.216 308.092 25.078 307.564 24.802C307.048 24.526 306.646 24.1 306.358 23.524C306.082 22.948 305.944 22.228 305.944 21.364V15.928H307.456V21.202C307.456 22.102 307.654 22.78 308.05 23.236C308.446 23.692 309.004 23.92 309.724 23.92C310.228 23.92 310.684 23.8 311.092 23.56C311.5 23.308 311.818 22.954 312.046 22.498C312.286 22.03 312.406 21.46 312.406 20.788V15.928H313.918V25H312.55L312.46 23.416C312.184 23.98 311.776 24.424 311.236 24.748C310.696 25.06 310.084 25.216 309.4 25.216ZM316.424 25V15.928H317.792L317.9 17.656C318.104 17.248 318.362 16.9 318.674 16.612C318.998 16.324 319.382 16.102 319.826 15.946C320.282 15.79 320.798 15.712 321.374 15.712V17.296H320.816C320.432 17.296 320.066 17.35 319.718 17.458C319.37 17.554 319.058 17.716 318.782 17.944C318.518 18.172 318.308 18.484 318.152 18.88C318.008 19.264 317.936 19.744 317.936 20.32V25H316.424ZM327.867 25V15.928H329.235L329.343 17.656C329.547 17.248 329.805 16.9 330.117 16.612C330.441 16.324 330.825 16.102 331.269 15.946C331.725 15.79 332.241 15.712 332.817 15.712V17.296H332.259C331.875 17.296 331.509 17.35 331.161 17.458C330.813 17.554 330.501 17.716 330.225 17.944C329.961 18.172 329.751 18.484 329.595 18.88C329.451 19.264 329.379 19.744 329.379 20.32V25H327.867ZM338.174 25.216C337.322 25.216 336.566 25.018 335.906 24.622C335.258 24.226 334.748 23.674 334.376 22.966C334.004 22.246 333.818 21.412 333.818 20.464C333.818 19.504 333.998 18.67 334.358 17.962C334.73 17.254 335.246 16.702 335.906 16.306C336.578 15.91 337.346 15.712 338.21 15.712C339.098 15.712 339.848 15.91 340.46 16.306C341.084 16.702 341.558 17.224 341.882 17.872C342.218 18.508 342.386 19.21 342.386 19.978C342.386 20.098 342.386 20.224 342.386 20.356C342.386 20.488 342.38 20.638 342.368 20.806H334.952V19.636H340.91C340.874 18.808 340.598 18.16 340.082 17.692C339.578 17.224 338.942 16.99 338.174 16.99C337.658 16.99 337.178 17.11 336.734 17.35C336.302 17.578 335.954 17.92 335.69 18.376C335.426 18.82 335.294 19.378 335.294 20.05V20.554C335.294 21.298 335.426 21.922 335.69 22.426C335.966 22.93 336.32 23.308 336.752 23.56C337.196 23.812 337.67 23.938 338.174 23.938C338.81 23.938 339.332 23.8 339.74 23.524C340.16 23.236 340.46 22.852 340.64 22.372H342.134C341.99 22.912 341.738 23.398 341.378 23.83C341.018 24.262 340.568 24.604 340.028 24.856C339.5 25.096 338.882 25.216 338.174 25.216ZM347.846 25.216C347.09 25.216 346.43 25.09 345.866 24.838C345.314 24.586 344.87 24.238 344.534 23.794C344.21 23.338 344.012 22.804 343.94 22.192H345.488C345.548 22.504 345.674 22.792 345.866 23.056C346.058 23.32 346.316 23.536 346.64 23.704C346.976 23.86 347.384 23.938 347.864 23.938C348.284 23.938 348.632 23.878 348.908 23.758C349.184 23.626 349.388 23.452 349.52 23.236C349.664 23.02 349.736 22.786 349.736 22.534C349.736 22.162 349.646 21.88 349.466 21.688C349.298 21.496 349.046 21.346 348.71 21.238C348.374 21.118 347.966 21.016 347.486 20.932C347.09 20.86 346.7 20.764 346.316 20.644C345.932 20.524 345.59 20.368 345.29 20.176C344.99 19.972 344.75 19.726 344.57 19.438C344.402 19.15 344.318 18.796 344.318 18.376C344.318 17.86 344.45 17.404 344.714 17.008C344.978 16.6 345.356 16.282 345.848 16.054C346.352 15.826 346.934 15.712 347.594 15.712C348.566 15.712 349.352 15.946 349.952 16.414C350.552 16.882 350.906 17.56 351.014 18.448H349.52C349.46 17.992 349.262 17.638 348.926 17.386C348.602 17.122 348.152 16.99 347.576 16.99C347.012 16.99 346.58 17.104 346.28 17.332C345.992 17.56 345.848 17.86 345.848 18.232C345.848 18.472 345.926 18.688 346.082 18.88C346.25 19.06 346.49 19.216 346.802 19.348C347.126 19.48 347.522 19.588 347.99 19.672C348.59 19.78 349.136 19.924 349.628 20.104C350.12 20.284 350.516 20.554 350.816 20.914C351.128 21.262 351.284 21.76 351.284 22.408C351.284 22.972 351.14 23.464 350.852 23.884C350.576 24.304 350.18 24.634 349.664 24.874C349.148 25.102 348.542 25.216 347.846 25.216ZM356.755 25.216C356.059 25.216 355.447 25.078 354.919 24.802C354.403 24.526 354.001 24.1 353.713 23.524C353.437 22.948 353.299 22.228 353.299 21.364V15.928H354.811V21.202C354.811 22.102 355.009 22.78 355.405 23.236C355.801 23.692 356.359 23.92 357.079 23.92C357.583 23.92 358.039 23.8 358.447 23.56C358.855 23.308 359.173 22.954 359.401 22.498C359.641 22.03 359.761 21.46 359.761 20.788V15.928H361.273V25H359.905L359.815 23.416C359.539 23.98 359.131 24.424 358.591 24.748C358.051 25.06 357.439 25.216 356.755 25.216ZM363.78 25V12.04H365.292V25H363.78ZM371.351 25C370.811 25 370.343 24.916 369.947 24.748C369.551 24.58 369.245 24.298 369.029 23.902C368.825 23.494 368.723 22.948 368.723 22.264V17.206H367.139V15.928H368.723L368.921 13.732H370.235V15.928H372.863V17.206H370.235V22.264C370.235 22.828 370.349 23.212 370.577 23.416C370.805 23.608 371.207 23.704 371.783 23.704H372.755V25H371.351ZM375.376 25.09C375.076 25.09 374.824 24.994 374.62 24.802C374.428 24.598 374.332 24.352 374.332 24.064C374.332 23.776 374.428 23.536 374.62 23.344C374.824 23.14 375.076 23.038 375.376 23.038C375.676 23.038 375.922 23.14 376.114 23.344C376.306 23.536 376.402 23.776 376.402 24.064C376.402 24.352 376.306 24.598 376.114 24.802C375.922 24.994 375.676 25.09 375.376 25.09Z" fill="white"/>
<defs>
<clipPath id="clip0_699_3613">
<rect width="389.16" height="263.66" fill="white" transform="translate(4 60)"/>
</clipPath>
</defs>
</svg>
