<svg width="100" height="100" viewBox="0 0 100 100" fill="none" xmlns="http://www.w3.org/2000/svg">
<path d="M93.8383 31.3131H75.3963L54.551 20.8904C54.5801 20.6818 54.5963 20.4691 54.5963 20.2527C54.5963 17.7183 52.5344 15.6566 50.0002 15.6566C47.466 15.6566 45.4041 17.7185 45.4041 20.2527C45.4041 20.4691 45.4203 20.682 45.4494 20.8906L24.6043 31.3133H6.16172C2.76406 31.3131 0 34.0771 0 37.4748V78.1816C0 81.5793 2.76406 84.3433 6.16172 84.3433H93.8381C97.2357 84.3433 99.9998 81.5793 99.9998 78.1816V37.4748C100 34.0771 97.2359 31.3131 93.8383 31.3131ZM50 18.5861C50.9189 18.5861 51.6664 19.3338 51.6664 20.2525C51.6664 21.1713 50.9188 21.9189 50 21.9189C49.0812 21.9189 48.3336 21.1713 48.3336 20.2525C48.3336 19.3338 49.0811 18.5861 50 18.5861ZM97.0703 78.1818C97.0703 79.964 95.6205 81.4138 93.8383 81.4138H6.16172C4.37949 81.4138 2.92969 79.964 2.92969 78.1818V37.4748C2.92969 35.6926 4.37949 34.2427 6.16172 34.2427H59.3938C60.2027 34.2427 60.8586 33.5869 60.8586 32.7779C60.8586 31.9689 60.2027 31.3131 59.3938 31.3131H31.1547L46.7609 23.5099C47.5924 24.3369 48.7375 24.8488 50 24.8488C51.2625 24.8488 52.4076 24.3369 53.2391 23.5099L68.8453 31.3131H65.6564C64.8475 31.3131 64.1916 31.9689 64.1916 32.7779C64.1916 33.5869 64.8475 34.2427 65.6564 34.2427H93.8383C95.6205 34.2427 97.0703 35.6926 97.0703 37.4748V78.1818Z" fill="#D2D0CE"/>
<path d="M74.5588 60.7363C74.5541 60.7363 74.5492 60.7363 74.5443 60.7363C73.7353 60.7441 73.0859 61.4062 73.0937 62.2152L73.1486 67.8936L68.6561 61.3879C68.2918 60.8604 67.6268 60.6311 67.0148 60.8219C66.4027 61.0127 65.9859 61.5793 65.9859 62.2203V72.4814C65.9859 73.2904 66.6418 73.9463 67.4508 73.9463C68.2598 73.9463 68.9156 73.2904 68.9156 72.4814V66.9193L73.1838 73.1C73.6072 73.7117 74.3162 73.9707 74.99 73.7604C75.6762 73.5461 76.1195 72.908 76.1195 72.1209L76.0234 62.1871C76.0156 61.3828 75.3613 60.7363 74.5588 60.7363Z" fill="#D2D0CE"/>
<path d="M71.2586 55.3953C71.9447 55.1808 72.3879 54.543 72.3879 53.7559L72.2918 43.8219C72.284 43.0178 71.6297 42.3713 70.8273 42.3713C70.8226 42.3713 70.8178 42.3713 70.8129 42.3713C70.0039 42.3791 69.3545 43.0412 69.3623 43.8502L69.4172 49.5285L64.9246 43.0228C64.5603 42.4953 63.8951 42.2662 63.2834 42.4568C62.6713 42.6476 62.2545 43.2142 62.2545 43.8553V54.1164C62.2545 54.9254 62.9103 55.5812 63.7193 55.5812C64.5283 55.5812 65.1842 54.9254 65.1842 54.1164V48.5543L69.4525 54.7351C69.876 55.3469 70.585 55.6057 71.2586 55.3953Z" fill="#D2D0CE"/>
<path d="M51.3533 54.3111C51.5051 55.1059 52.2732 55.627 53.067 55.475C53.8617 55.323 54.3826 54.5559 54.2308 53.7613L52.3135 43.7299C52.1599 42.9752 51.5156 42.4176 50.7467 42.374C49.9773 42.3293 49.2742 42.8117 49.0365 43.5441C49.031 43.5609 49.0258 43.5779 49.0209 43.5951L47.3494 49.4588L45.6152 43.5805C45.6101 43.5631 45.6047 43.5459 45.599 43.5287C45.3537 42.7982 44.6473 42.325 43.8767 42.3756C43.1078 42.4271 42.4693 42.9916 42.3207 43.7648L40.5139 53.776C40.3701 54.5721 40.899 55.334 41.6953 55.4777C42.4904 55.6211 43.2535 55.0926 43.3971 54.2963L44.2797 49.4059L45.7449 54.3725C45.75 54.3898 45.7555 54.407 45.7611 54.4242C45.9937 55.117 46.6394 55.5811 47.3697 55.5811H47.3783C48.1121 55.5773 48.7574 55.1059 48.984 54.408C48.9894 54.3912 48.9947 54.3742 48.9996 54.3572L50.4139 49.3955L51.3533 54.3111Z" fill="#D2D0CE"/>
<path d="M58.0949 55.5814C58.9039 55.5814 59.5598 54.9256 59.5598 54.1166V43.8361C59.5598 43.0271 58.9039 42.3713 58.0949 42.3713C57.2859 42.3713 56.6301 43.0271 56.6301 43.8361V54.1166C56.6301 54.9256 57.2859 55.5814 58.0949 55.5814Z" fill="#D2D0CE"/>
<path d="M85.6061 47.5115H82.5307C81.7217 47.5115 81.0658 48.1674 81.0658 48.9764C81.0658 49.7854 81.7217 50.4412 82.5307 50.4412H83.9471C83.5988 51.6611 82.7518 52.6518 81.1687 52.6518C79.1422 52.6518 77.4934 51.0029 77.4934 48.9764C77.4934 46.9498 79.1422 45.301 81.1687 45.301C81.9053 45.301 82.6156 45.5178 83.2227 45.9277C83.8934 46.3807 84.8037 46.2041 85.2564 45.5338C85.7094 44.8633 85.533 43.9527 84.8625 43.5C83.7691 42.7615 82.4918 42.3711 81.1686 42.3711C77.5266 42.3711 74.5635 45.334 74.5635 48.9762C74.5635 52.6184 77.5264 55.5812 81.1686 55.5812C84.6436 55.5812 87.0705 52.8652 87.0705 48.9762C87.0709 48.1674 86.415 47.5115 85.6061 47.5115Z" fill="#D2D0CE"/>
<path d="M24.4029 53.6064C24.9227 52.9865 24.8414 52.0626 24.2215 51.5427C23.6016 51.023 22.6775 51.1041 22.1578 51.7242C22.074 51.8242 21.9836 51.9173 21.8889 52.0017C21.4047 52.433 20.7834 52.6515 20.042 52.6515C18.0154 52.6515 16.3668 51.0027 16.3668 48.9761C16.3668 46.9496 18.0154 45.3007 20.042 45.3007C20.7785 45.3007 21.4889 45.5175 22.0959 45.9275C22.7664 46.3804 23.6768 46.2041 24.1297 45.5335C24.5826 44.863 24.4063 43.9527 23.7357 43.4998C22.6426 42.7613 21.3652 42.3708 20.0418 42.3708C16.3998 42.3708 13.4369 45.3337 13.4369 48.9759C13.4369 52.6181 16.3998 55.581 20.0418 55.581C21.5025 55.581 22.815 55.0998 23.8367 54.1898C24.0373 54.0117 24.2277 53.8154 24.4029 53.6064Z" fill="#D2D0CE"/>
<path d="M30.0141 66.048C28.782 65.5935 27.6328 65.0994 27.2484 64.9314C27.0648 64.7714 27.0619 64.5607 27.0789 64.4423C27.1 64.2951 27.2098 63.9341 27.7705 63.7652C29.1199 63.3591 30.3891 64.3507 30.434 64.3865C31.0533 64.8992 31.9713 64.8171 32.4893 64.2005C33.0098 63.5814 32.9297 62.6572 32.3104 62.1367C32.2102 62.0525 29.826 60.0863 26.9254 60.9601C25.4385 61.408 24.3861 62.5828 24.1789 64.0259C23.9838 65.3845 24.5729 66.6914 25.7162 67.4367C25.7811 67.4789 25.8488 67.5158 25.9195 67.5474C25.9793 67.574 27.4004 68.2066 29.0002 68.7966C29.3188 68.9142 30.349 69.3478 30.2332 69.9959C30.1455 70.4867 29.5018 71.0166 28.6143 71.0166C27.6424 71.0166 26.709 70.6267 26.1172 69.9738C25.5738 69.3744 24.6475 69.3289 24.048 69.872C23.4486 70.4154 23.4031 71.3418 23.9463 71.9412C25.1012 73.2154 26.8025 73.9463 28.6141 73.9463C30.8678 73.9463 32.7615 72.5015 33.117 70.5109C33.3861 69.006 32.7121 67.0431 30.0141 66.048Z" fill="#D2D0CE"/>
<path d="M32.5504 55.5814C36.1924 55.5814 39.1555 52.6185 39.1555 48.9764C39.1555 45.3342 36.1926 42.3713 32.5504 42.3713C28.9084 42.3713 25.9455 45.3342 25.9455 48.9764C25.9455 52.6185 28.9084 55.5814 32.5504 55.5814ZM32.5504 45.301C34.5769 45.301 36.2258 46.9498 36.2258 48.9764C36.2258 51.0029 34.5769 52.6517 32.5504 52.6517C30.5238 52.6517 28.8752 51.0029 28.8752 48.9764C28.8752 46.9498 30.5238 45.301 32.5504 45.301Z" fill="#D2D0CE"/>
<path d="M41.6182 60.7363C37.9762 60.7363 35.0131 63.6992 35.0131 67.3412C35.0131 70.9832 37.976 73.9463 41.6182 73.9463C45.2602 73.9463 48.2231 70.9834 48.2231 67.3412C48.2231 63.6994 45.2602 60.7363 41.6182 60.7363ZM41.6182 71.0166C39.5916 71.0166 37.9428 69.3678 37.9428 67.3412C37.9428 65.3146 39.5916 63.666 41.6182 63.666C43.6447 63.666 45.2934 65.3146 45.2934 67.3412C45.2934 69.3678 43.6447 71.0166 41.6182 71.0166Z" fill="#D2D0CE"/>
<path d="M56.9676 60.7363C53.3256 60.7363 50.3625 63.6992 50.3625 67.3412C50.3625 70.9832 53.3254 73.9463 56.9676 73.9463C60.6096 73.9463 63.5725 70.9834 63.5725 67.3412C63.5726 63.6994 60.6096 60.7363 56.9676 60.7363ZM56.9676 71.0166C54.941 71.0166 53.2922 69.3678 53.2922 67.3412C53.2922 65.3146 54.941 63.666 56.9676 63.666C58.9941 63.666 60.6428 65.3146 60.6428 67.3412C60.6428 69.3678 58.9941 71.0166 56.9676 71.0166Z" fill="#D2D0CE"/>
</svg>
