<svg width="40" height="40" viewBox="0 0 40 40" fill="none" xmlns="http://www.w3.org/2000/svg">
<path fill-rule="evenodd" clip-rule="evenodd" d="M33.0308 18.9498V7.92355H36.038V18.9498C36.038 19.7801 35.3648 20.4533 34.5344 20.4533C33.704 20.4533 33.0308 19.7801 33.0308 18.9498Z" fill="#89DA94"/>
<path d="M28.019 15.9426V9.92831H11.9808V15.9426C11.9808 20.3713 15.5711 23.9617 19.9999 23.9617C24.4286 23.9617 28.019 20.3713 28.019 15.9426Z" fill="#89DA94"/>
<path d="M4.01862 7.00759L17.5578 0.990128C19.1129 0.298986 20.8882 0.298986 22.4433 0.990128L35.9824 7.00759C36.7761 7.36035 36.7761 8.48681 35.9824 8.83956L22.4433 14.857C20.8882 15.5482 19.1129 15.5482 17.5578 14.857L4.01862 8.83956C3.22491 8.48681 3.22491 7.36035 4.01862 7.00759Z" fill="#89DA94"/>
<path d="M24.61 26.7675L21.4252 29.9878C20.6406 30.7813 19.3591 30.7813 18.5745 29.9878L15.3898 26.7675C14.8978 26.2702 14.1796 26.0581 13.5084 26.2555C7.88478 27.9093 3.96173 31.6457 3.96173 35.9905C3.96173 38.2047 5.75686 40 7.97126 40H32.0284C34.2429 40 36.038 38.2047 36.038 35.9905C36.038 31.6457 32.1148 27.9093 26.4913 26.2555C25.8201 26.0581 25.1018 26.2702 24.61 26.7675Z" fill="#89DA94"/>
</svg>
