<svg width="24" height="24" viewBox="0 0 24 24" fill="none" xmlns="http://www.w3.org/2000/svg">
<g clip-path="url(#clip0_372_1521)">
<path d="M4.22113 18.5601C3.88513 18.5601 3.56213 18.644 3.27557 18.8015C1.76605 16.8664 0.9375 14.4626 0.9375 12C0.9375 5.90002 5.90002 0.9375 12 0.9375C12.7416 0.9375 13.4828 1.01129 14.2031 1.15686C14.4565 1.20813 14.7041 1.04407 14.7554 0.790283C14.8066 0.536499 14.6426 0.289307 14.3888 0.237854C13.6075 0.0800171 12.8038 0 12 0C8.79474 0 5.78119 1.24823 3.51471 3.51471C1.24823 5.78119 0 8.79474 0 12C0 14.6962 0.915527 17.3275 2.58234 19.4368C2.36774 19.7574 2.25238 20.1343 2.25238 20.5289C2.25238 21.0547 2.45728 21.5491 2.82916 21.9208C3.20087 22.2927 3.69525 22.4976 4.22113 22.4976C4.74701 22.4976 5.24139 22.2927 5.61328 21.9208C5.98517 21.5491 6.18988 21.0546 6.18988 20.5287C6.18988 20.003 5.98517 19.5084 5.61328 19.1367C5.24139 18.7648 4.74701 18.5601 4.22113 18.5601ZM4.95026 21.258C4.75562 21.4528 4.49652 21.5601 4.22113 21.5601C3.94574 21.5601 3.68683 21.4528 3.492 21.258C3.29718 21.0632 3.18988 20.8043 3.18988 20.5289C3.18988 20.2533 3.29718 19.9944 3.492 19.7996C3.68665 19.6047 3.94574 19.4976 4.22113 19.4976C4.49652 19.4976 4.75543 19.6049 4.95026 19.7996C5.14508 19.9944 5.25238 20.2533 5.25238 20.5289C5.25238 20.8043 5.14508 21.0632 4.95026 21.258Z" fill="#FF5635"/>
<path d="M21.4173 4.56268C21.9269 3.79822 21.8451 2.75305 21.171 2.07904C20.7992 1.70734 20.3048 1.50244 19.7789 1.50244C19.253 1.50244 18.7586 1.70734 18.3867 2.07904C18.0149 2.45093 17.8101 2.94531 17.8101 3.47119C17.8101 3.99707 18.0149 4.49146 18.3867 4.86334C18.7586 5.23523 19.253 5.43994 19.7789 5.43994C20.1149 5.43994 20.4379 5.35608 20.7244 5.19861C22.234 7.13385 23.0625 9.53748 23.0625 12.0001C23.0625 18.1 18.1 23.0626 12 23.0626C11.2658 23.0626 10.5315 22.9902 9.81795 22.8474C9.56417 22.7967 9.31716 22.9613 9.26626 23.2151C9.21554 23.4691 9.38015 23.7159 9.63393 23.7668C10.4079 23.9215 11.2041 24.0001 12 24.0001C15.2053 24.0001 18.2188 22.7518 20.4853 20.4854C22.7518 18.2189 24 15.2053 24 12.0001C24 9.30365 23.0843 6.67224 21.4173 4.56268ZM19.0498 4.2005C18.8549 4.00568 18.7476 3.74677 18.7476 3.47119C18.7476 3.1958 18.8549 2.93689 19.0498 2.74207C19.2444 2.54724 19.5035 2.43994 19.7789 2.43994C20.0543 2.43994 20.3134 2.54724 20.5082 2.74207C20.9101 3.14417 20.9101 3.7984 20.5082 4.2005C20.3134 4.39514 20.0543 4.50244 19.7789 4.50244C19.5033 4.50244 19.2444 4.39514 19.0498 4.2005Z" fill="#FF5635"/>
<path d="M10.0657 20.0625C10.0657 20.3214 10.2757 20.5312 10.5344 20.5312H13.4654C13.7243 20.5312 13.9341 20.3214 13.9341 20.0625V19.1537C14.5505 18.9879 15.1397 18.7436 15.6934 18.4246L16.335 19.0662C16.4229 19.1541 16.5421 19.2036 16.6666 19.2036C16.7908 19.2036 16.9102 19.1541 16.998 19.066L19.0697 16.9929C19.2526 16.8098 19.2526 16.513 19.0697 16.3301L18.4288 15.6892C18.7478 15.1355 18.9921 14.5463 19.158 13.9299H20.0632C20.3221 13.9299 20.532 13.7201 20.532 13.4612V10.5302C20.532 10.2713 20.3221 10.0615 20.0632 10.0615H19.1578C18.9919 9.44531 18.7478 8.85608 18.4288 8.30237L19.0662 7.66498C19.1541 7.57709 19.2036 7.4577 19.2036 7.33337C19.2034 7.20905 19.1539 7.08966 19.066 7.00177L16.9927 4.93011C16.8098 4.74719 16.513 4.74719 16.3299 4.9303L15.6934 5.56696C15.1397 5.24799 14.5505 5.00372 13.9341 4.83783V3.9375C13.9341 3.67859 13.7243 3.46875 13.4654 3.46875H10.5344C10.2757 3.46875 10.0657 3.67859 10.0657 3.9375V4.83801C9.44952 5.00372 8.86029 5.24799 8.30658 5.56696L7.66992 4.9303C7.487 4.74738 7.19019 4.74719 7.00708 4.93011L4.93396 7.00195C4.84589 7.08984 4.79645 7.20905 4.79645 7.33337C4.79645 7.4577 4.84589 7.57709 4.93378 7.66498L5.57117 8.30237C5.2522 8.85608 5.00794 9.44513 4.84204 10.0615H3.93842C3.6795 10.0615 3.46967 10.2713 3.46967 10.53L3.46802 13.461C3.46783 13.5853 3.51727 13.7047 3.60516 13.7926C3.69305 13.8805 3.81226 13.9299 3.93677 13.9299H4.84204C5.00794 14.5463 5.2522 15.1355 5.57117 15.6892L4.9303 16.3301C4.74738 16.513 4.74719 16.8098 4.9303 16.9929L7.00195 19.066C7.08984 19.1539 7.20905 19.2036 7.33337 19.2036H7.33356C7.45789 19.2036 7.57709 19.1541 7.66498 19.0662L8.3064 18.4246C8.86029 18.7436 9.44952 18.9879 10.0657 19.1537V20.0625ZM8.49023 17.4388C8.30475 17.3188 8.06067 17.3448 7.9043 17.501L7.33356 18.0718L5.92456 16.6617L6.49475 16.0913C6.65094 15.9351 6.67694 15.691 6.55701 15.5056C6.13202 14.8478 5.83319 14.127 5.66913 13.3627C5.62262 13.1468 5.43182 12.9924 5.21082 12.9924H4.4057L4.4068 10.999H5.21082C5.43182 10.999 5.62262 10.8448 5.66913 10.6287C5.83319 9.86462 6.13202 9.14374 6.55701 8.48602C6.67694 8.30054 6.65094 8.05646 6.49475 7.90027L5.92822 7.33356L7.33832 5.92456L7.9043 6.49072C8.06067 6.64691 8.30457 6.67273 8.49023 6.55298C9.14777 6.12799 9.86865 5.82916 10.6329 5.6651C10.8488 5.61859 11.0032 5.42761 11.0032 5.20679V4.40625H12.9966V5.2066C12.9966 5.42761 13.1508 5.61859 13.3669 5.66492C14.131 5.82916 14.8521 6.12781 15.5096 6.5528C15.6951 6.67273 15.9391 6.64691 16.0953 6.49054L16.6615 5.92456L18.0716 7.33356L17.5051 7.90009C17.3487 8.05646 17.3229 8.30054 17.4428 8.48602C17.8678 9.14374 18.1664 9.86462 18.3307 10.6287C18.377 10.8448 18.568 10.999 18.789 10.999H19.5945V12.9924H18.789C18.568 12.9924 18.3772 13.1468 18.3307 13.3627C18.1666 14.1268 17.8678 14.8478 17.4428 15.5054C17.3229 15.691 17.3489 15.9351 17.5051 16.0913L18.0753 16.6615L16.6663 18.0716L16.0955 17.501C15.9391 17.3447 15.6951 17.3188 15.5096 17.4388C14.8519 17.8638 14.131 18.1624 13.3669 18.3267C13.1508 18.3732 12.9966 18.564 12.9966 18.785V19.5938H11.0032V18.785C11.0032 18.5641 10.8488 18.3732 10.6329 18.3267C9.86884 18.1626 9.14795 17.8638 8.49023 17.4388Z" fill="#FF5635"/>
<path d="M15.8732 12.0002C15.8732 9.86444 14.1357 8.12695 11.9999 8.12695C9.8642 8.12695 8.12671 9.86444 8.12671 12.0002C8.12671 14.1359 9.8642 15.8734 11.9999 15.8734C14.1357 15.8734 15.8732 14.1359 15.8732 12.0002ZM9.06421 12.0002C9.06421 10.3813 10.3811 9.06445 11.9999 9.06445C13.6188 9.06445 14.9357 10.3815 14.9357 12.0002C14.9357 13.6188 13.6188 14.9359 11.9999 14.9359C10.3811 14.9359 9.06421 13.619 9.06421 12.0002Z" fill="#FF5635"/>
<path d="M16.3162 1.77301C16.4396 1.77301 16.5604 1.72284 16.6476 1.63568C16.7347 1.54797 16.7849 1.42712 16.7849 1.30371C16.7849 1.18103 16.7349 1.06 16.6476 0.97229C16.5604 0.885132 16.4396 0.834961 16.3162 0.834961C16.1924 0.834961 16.0721 0.885132 15.9849 0.97229C15.8976 1.06 15.8474 1.18048 15.8474 1.30371C15.8474 1.42749 15.8976 1.54797 15.9849 1.63568C16.0721 1.72284 16.1924 1.77301 16.3162 1.77301Z" fill="#FF5635"/>
<path d="M7.70435 22.2354C7.58112 22.2354 7.46008 22.2855 7.37292 22.3727C7.28577 22.4598 7.2356 22.5809 7.2356 22.7041C7.2356 22.8279 7.28577 22.9484 7.37292 23.0355C7.46008 23.1227 7.58112 23.1729 7.70435 23.1729C7.82758 23.1729 7.94861 23.1227 8.03577 23.0355C8.12292 22.9484 8.1731 22.8273 8.1731 22.7041C8.1731 22.5809 8.12292 22.4598 8.03577 22.3727C7.94861 22.2855 7.82758 22.2354 7.70435 22.2354Z" fill="#FF5635"/>
</g>
<defs>
<clipPath id="clip0_372_1521">
<rect width="24" height="24" fill="white"/>
</clipPath>
</defs>
</svg>
