<svg width="40" height="40" viewBox="0 0 40 40" fill="none" xmlns="http://www.w3.org/2000/svg">
<path d="M20.0082 1.66178C9.90275 1.66178 1.66187 9.90266 1.66187 20.0081C1.66187 30.1136 9.90275 38.3382 20.0082 38.3382C30.1137 38.3382 38.3383 30.1136 38.3383 20.0081C38.3396 19.7879 38.2972 19.5696 38.2136 19.3658C38.13 19.1621 38.0069 18.9769 37.8513 18.821C37.6957 18.6651 37.5108 18.5416 37.3072 18.4576C37.1036 18.3736 36.8854 18.3308 36.6651 18.3317C36.446 18.3326 36.2291 18.3766 36.0271 18.4614C35.825 18.5461 35.6416 18.6699 35.4874 18.8256C35.3332 18.9813 35.2112 19.1659 35.1284 19.3688C35.0456 19.5717 35.0037 19.789 35.005 20.0081C35.005 28.3121 28.3122 35.0049 20.0082 35.0049C11.7042 35.0049 4.9952 28.3121 4.9952 20.0081C4.9952 11.7041 11.7042 4.99512 20.0082 4.99512C20.448 4.9934 20.8693 4.81794 21.1802 4.50697C21.4912 4.196 21.6667 3.77473 21.6684 3.33496C21.6692 3.11609 21.627 2.89919 21.544 2.69666C21.461 2.49412 21.339 2.30991 21.1848 2.15454C21.0307 1.99917 20.8474 1.87568 20.6455 1.79114C20.4436 1.70659 20.2271 1.66263 20.0082 1.66178ZM26.3331 2.91503C25.6825 2.92133 25.0681 3.30987 24.8064 3.95019C24.4551 4.80295 24.8606 5.77898 25.7146 6.12793C25.7341 6.13612 25.7467 6.14683 25.7631 6.15376C26.6158 6.5147 27.6001 6.11092 27.9539 5.25532C28.3066 4.40596 27.9041 3.43134 27.0554 3.07758C27.0315 3.0675 27.005 3.05049 26.9838 3.04167C26.7706 2.95386 26.55 2.91283 26.3331 2.91503ZM31.7563 6.52181C31.317 6.52543 30.8972 6.70171 30.5876 7.01333C29.9333 7.6648 29.9333 8.72516 30.5876 9.37662C30.6015 9.39047 30.6097 9.39866 30.6236 9.41252C31.2716 10.0703 32.332 10.0765 32.9868 9.42575C33.6412 8.77429 33.6412 7.71393 32.9868 7.06247C32.9698 7.04546 32.9553 7.03034 32.9383 7.01396C32.6258 6.69932 32.1998 6.52218 31.7563 6.52181ZM20.0082 8.3317C19.788 8.33041 19.5697 8.37278 19.3659 8.45637C19.1621 8.53996 18.977 8.6631 18.8211 8.81868C18.6652 8.97427 18.5417 9.15921 18.4577 9.36281C18.3737 9.56641 18.3309 9.78464 18.3318 10.0049V20.0081C18.3327 20.3175 18.4196 20.6204 18.5829 20.8832C18.7462 21.1459 18.9793 21.358 19.2563 21.4958L25.9229 24.8291C26.1191 24.9274 26.3327 24.986 26.5515 25.0016C26.7704 25.0172 26.9901 24.9894 27.1982 24.9198C27.4063 24.8502 27.5986 24.7403 27.764 24.5962C27.9295 24.4522 28.0649 24.2769 28.1625 24.0804C28.2608 23.8843 28.3194 23.6707 28.335 23.4518C28.3506 23.233 28.3228 23.0132 28.2532 22.8051C28.1837 22.5971 28.0737 22.4048 27.9297 22.2393C27.7856 22.0738 27.6103 21.9384 27.4138 21.8408L21.6684 18.973V10.0049C21.6692 9.78601 21.627 9.56911 21.544 9.36658C21.461 9.16404 21.339 8.97983 21.1848 8.82446C21.0307 8.66909 20.8474 8.5456 20.6455 8.46106C20.4437 8.37651 20.2271 8.33256 20.0082 8.3317ZM35.3988 11.9157C35.1806 11.9144 34.9586 11.956 34.7445 12.0459C33.8888 12.3997 33.4851 13.3839 33.8461 14.2366C33.8543 14.2568 33.865 14.2681 33.8719 14.2852C34.2209 15.1389 35.1969 15.5479 36.0497 15.1966C36.9034 14.8477 37.3125 13.8716 36.9611 13.0189C36.9517 12.9962 36.9435 12.9773 36.9353 12.9571C36.6736 12.3118 36.0534 11.9195 35.3988 11.9157Z" fill="#FF5635"/>
</svg>
