<svg width="42" height="42" viewBox="0 0 42 42" fill="none" xmlns="http://www.w3.org/2000/svg">
<circle cx="21" cy="21" r="21" fill="#FF5635"/>
<path d="M27.3334 31.6666H14.6668C13.8001 31.6666 12.9334 31.1999 12.4668 30.4666C11.9334 29.7333 11.8668 28.7999 12.2001 27.9333C13.5334 24.5333 17.0668 22.2666 21.0001 22.2666C24.9334 22.2666 28.4668 24.5333 29.8001 27.9333C30.1334 28.7333 30.0668 29.7333 29.5334 30.4666C29.0668 31.1999 28.2001 31.6666 27.3334 31.6666ZM21.0001 20.9999C18.0668 20.9999 15.6668 18.5999 15.6668 15.6666C15.6668 12.7333 18.0668 10.3333 21.0001 10.3333C23.9334 10.3333 26.3334 12.7333 26.3334 15.6666C26.3334 18.5999 23.9334 20.9999 21.0001 20.9999Z" fill="white"/>
</svg>
