<svg width="80" height="80" viewBox="0 0 80 80" fill="none" xmlns="http://www.w3.org/2000/svg">
<path d="M61.1109 75.5555H18.8887C15.9998 75.5555 13.1109 73.9999 11.5553 71.5555C9.77757 69.111 9.55535 65.9999 10.6665 63.111C15.1109 51.7777 26.8887 44.2221 39.9998 44.2221C53.1109 44.2221 64.8887 51.7777 69.3331 63.111C70.4442 65.7777 70.222 69.111 68.4442 71.5555C66.8887 73.9999 63.9998 75.5555 61.1109 75.5555ZM39.9998 39.9999C30.222 39.9999 22.222 31.9999 22.222 22.2221C22.222 12.4443 30.222 4.44434 39.9998 4.44434C49.7776 4.44434 57.7776 12.4443 57.7776 22.2221C57.7776 31.9999 49.7776 39.9999 39.9998 39.9999Z" fill="#727EA3"/>
</svg>
