<svg width="200" height="31" viewBox="0 0 200 31" fill="none" xmlns="http://www.w3.org/2000/svg">
<g clip-path="url(#clip0_103_2048)">
<path d="M10.8156 22.3206L10.6341 21.7376C10.5689 21.499 10.3921 21.2924 10.1035 21.118C9.81501 20.939 9.48458 20.8013 9.11227 20.7049C8.42816 20.7049 7.88831 20.4984 7.50204 20.0853C7.11577 19.6676 6.9203 19.025 6.9203 18.1529V11.5252H8.19546C8.56777 11.5252 8.87027 11.3829 9.10762 11.1029C9.34031 10.8229 9.45666 10.4695 9.45666 10.0381V9.6525C9.45666 9.22106 9.31704 8.86764 9.03316 8.58765C8.74927 8.30767 8.38627 8.16539 7.95346 8.16539H6.9203V4.95706C6.9203 4.48431 6.75742 4.09876 6.42234 3.80042C6.09191 3.50666 5.68237 3.37815 5.20302 3.42405L3.8441 3.56633C3.46248 3.61223 3.15067 3.7637 2.90401 4.02991C2.65736 4.29153 2.53636 4.61282 2.53636 4.98919V8.16539H1.27516C0.907504 8.16539 0.600349 8.30767 0.363002 8.58765C0.121001 8.86764 0 9.22106 0 9.6525V10.0381C0 10.4695 0.14427 10.8229 0.428156 11.1029C0.707388 11.3829 1.07039 11.5252 1.50785 11.5252H2.53636V18.8001C2.53636 20.402 3.08086 21.7055 4.17452 22.7061C5.27283 23.7067 6.75276 24.207 8.605 24.207C9.03316 24.207 9.44735 24.1565 9.85224 24.0601C10.178 23.9867 10.4293 23.8214 10.6108 23.569C10.7923 23.3166 10.8807 23.0412 10.8807 22.7382C10.8807 22.5868 10.8575 22.4491 10.8156 22.3206Z" fill="black"/>
<path d="M27.2438 10.0059C26.1641 8.78961 24.5864 8.18374 22.5154 8.18374C21.7941 8.18374 21.11 8.30767 20.4677 8.55552C19.8255 8.80338 19.1181 9.244 18.3409 9.87741V1.48712C18.3409 1.05567 18.2013 0.702251 17.9174 0.422268C17.6335 0.142286 17.2705 0 16.8377 0H15.4927C15.0599 0 14.6969 0.142286 14.413 0.422268C14.1291 0.702251 13.9895 1.05567 13.9895 1.48712V22.7199C13.9895 23.1513 14.1291 23.5047 14.413 23.7847C14.6969 24.0647 15.0599 24.207 15.4927 24.207H16.8377C17.2705 24.207 17.6335 24.0647 17.9174 23.7847C18.2013 23.5047 18.3409 23.1513 18.3409 22.7199V13.2647C19.0855 12.31 19.9651 11.796 20.9936 11.7317C22.1571 11.7638 23.0413 12.0943 23.6323 12.7231C24.228 13.3565 24.5259 14.2378 24.5259 15.3807V22.7199C24.5259 23.1513 24.6655 23.5047 24.9494 23.7847C25.2333 24.0647 25.5963 24.207 26.0337 24.207H27.3741C27.8069 24.207 28.1699 24.0647 28.4538 23.7847C28.7376 23.5047 28.8773 23.1513 28.8773 22.7199V14.2194C28.8773 12.6267 28.3328 11.2222 27.2438 10.0059Z" fill="black"/>
<path d="M45.0262 10.3272C43.5974 8.82174 41.694 8.069 39.3159 8.069C36.9378 8.069 34.9366 8.82174 33.4101 10.3272C31.8837 11.8373 31.1204 13.7696 31.1204 16.138C31.1204 18.5064 31.8837 20.4433 33.4101 21.9488C34.9366 23.4542 36.9052 24.207 39.3159 24.207C41.7266 24.207 43.402 23.7939 44.7004 22.9631C44.8959 22.8346 45.0448 22.6786 45.1425 22.495C45.2403 22.3114 45.2868 22.1186 45.2868 21.9166C45.2868 21.4944 45.1193 21.118 44.7795 20.7875L44.2071 20.2184C43.9465 19.9614 43.63 19.8328 43.2577 19.8328C43.0297 19.8328 42.797 19.8925 42.555 20.0118C41.5404 20.5076 40.4607 20.7508 39.3159 20.7508C38.3665 20.7508 37.5521 20.4938 36.8633 19.9797C36.5236 19.741 36.2583 19.4381 36.0628 19.0663C35.8627 18.6946 35.7138 18.208 35.6021 17.6068H45.6498C46.0826 17.6068 46.4456 17.4691 46.7295 17.1891C47.0134 16.9091 47.153 16.5557 47.153 16.138C47.153 13.7604 46.4456 11.8235 45.0262 10.3272ZM35.7976 14.6692C35.8208 14.0771 35.9186 13.5952 36.0954 13.2234C36.2676 12.8562 36.5236 12.5441 36.8633 12.2963C37.5521 11.7822 38.3665 11.5252 39.3159 11.5252C40.2653 11.5252 41.0518 11.7822 41.7406 12.2963C42.0896 12.5441 42.3502 12.8562 42.5224 13.2234C42.6992 13.5952 42.797 14.0771 42.8202 14.6692H35.7976Z" fill="black"/>
<path d="M64.8424 10.442C63.3904 8.84927 61.3985 8.05523 58.8668 8.05523C58.3223 8.05523 57.7545 8.16538 57.1588 8.39488C56.5631 8.61978 55.8511 9.00074 55.0227 9.53775V8.7942C55.0227 8.62437 54.9017 8.48667 54.655 8.3857C54.4084 8.28472 54.0966 8.22964 53.715 8.22964C53.5381 8.22964 53.4031 8.23882 53.3054 8.248L51.9977 8.39488C51.6161 8.43619 51.2996 8.58765 51.0576 8.85386C50.8109 9.11549 50.6899 9.43678 50.6899 9.81315V29.5129C50.6899 29.9443 50.8249 30.3023 51.1041 30.5823C51.3834 30.8577 51.7417 31 52.1745 31H53.5195C53.9523 31 54.3153 30.8577 54.5992 30.5823C54.8831 30.3023 55.0227 29.9443 55.0227 29.5129V22.495C55.7022 23.0871 56.3537 23.5001 56.9773 23.7388C57.6056 23.9729 58.3223 24.0922 59.1321 24.0922C61.4636 24.0922 63.3671 23.2936 64.8424 21.6871C66.313 20.0853 67.0483 18.2126 67.0483 16.0737C67.0483 13.9349 66.313 12.0576 64.8424 10.442ZM58.6899 20.6544C56.4747 20.3102 55.2507 19.1811 55.0227 17.2671V14.5912C55.2647 12.87 56.4887 11.8281 58.7039 11.4747C61.6917 11.6032 63.2554 13.251 63.3857 16.4134C63.046 18.9929 61.4823 20.4066 58.6899 20.6544Z" fill="#FF5635"/>
<path d="M79.7301 8.81256C79.5113 8.53257 79.2507 8.28472 78.9436 8.069C78.1385 8.069 77.3752 8.22505 76.6632 8.53716C75.9465 8.84927 75.1693 9.39088 74.3316 10.1666V9.12008C74.3316 8.85845 74.1966 8.64732 73.9314 8.48208C73.6614 8.31685 73.3217 8.22964 72.9075 8.22964C72.7772 8.22964 72.6795 8.23882 72.6097 8.248L71.2554 8.39488C70.8738 8.43619 70.562 8.59224 70.32 8.85845C70.0826 9.12926 69.9616 9.45055 69.9616 9.82692V22.7199C69.9616 23.1513 70.1012 23.5047 70.3851 23.7847C70.669 24.0647 71.032 24.207 71.4648 24.207H72.8237C73.2612 24.207 73.6196 24.0647 73.9034 23.7847C74.1873 23.5047 74.3316 23.1513 74.3316 22.7199V14.2194C75.146 12.5946 76.1699 11.7271 77.3892 11.6216C77.8127 11.6399 78.2036 11.6996 78.5526 11.796C78.6597 11.8189 78.7435 11.8281 78.7947 11.8281C79.0692 11.8281 79.3112 11.7042 79.516 11.4563C79.7254 11.2131 79.865 10.878 79.9442 10.4603L80.0419 9.79479C80.0512 9.76266 80.0559 9.71676 80.0559 9.6525C80.0559 9.37252 79.9488 9.09254 79.7301 8.81256Z" fill="#FF5635"/>
<path d="M96.3863 10.3272C94.9575 8.82174 93.0541 8.069 90.676 8.069C88.2978 8.069 86.2967 8.82174 84.7702 10.3272C83.2391 11.8373 82.4759 13.7696 82.4759 16.138C82.4759 18.5064 83.2391 20.4433 84.7702 21.9488C86.2967 23.4542 88.2653 24.207 90.676 24.207C93.0867 24.207 94.7574 23.7939 96.0558 22.9631C96.256 22.8346 96.4002 22.6786 96.498 22.495C96.5957 22.3114 96.6469 22.1186 96.6469 21.9166C96.6469 21.4944 96.4794 21.118 96.1396 20.7875L95.5672 20.2184C95.3066 19.9614 94.9901 19.8328 94.6178 19.8328C94.3898 19.8328 94.1524 19.8925 93.9151 20.0118C92.9005 20.5076 91.8208 20.7508 90.676 20.7508C89.7266 20.7508 88.9075 20.4938 88.2187 19.9797C87.8837 19.741 87.6137 19.4381 87.4183 19.0663C87.2228 18.6946 87.0692 18.208 86.9622 17.6068H97.0052C97.4427 17.6068 97.801 17.4691 98.0849 17.1891C98.3688 16.9091 98.5131 16.5557 98.5131 16.138C98.5131 13.7604 97.8011 11.8235 96.3863 10.3272ZM87.1577 14.6692C87.1809 14.0771 87.2787 13.5952 87.4508 13.2234C87.6277 12.8562 87.8837 12.5441 88.2187 12.2963C88.9075 11.7822 89.7266 11.5252 90.676 11.5252C91.6254 11.5252 92.4072 11.7822 93.096 12.2963C93.445 12.5441 93.7056 12.8562 93.8825 13.2234C94.0547 13.5952 94.1524 14.0771 94.1757 14.6692H87.1577Z" fill="#FF5635"/>
<path d="M116.198 10.442C114.746 8.84927 112.759 8.05523 110.227 8.05523C109.682 8.05523 109.11 8.16538 108.519 8.39488C107.923 8.61978 107.211 9.00074 106.383 9.53775V8.7942C106.383 8.62437 106.257 8.48667 106.015 8.3857C105.768 8.28472 105.457 8.22964 105.075 8.22964C104.898 8.22964 104.763 8.23882 104.666 8.248L103.353 8.39488C102.971 8.43619 102.66 8.58765 102.413 8.85386C102.166 9.11549 102.045 9.43678 102.045 9.81315V29.5129C102.045 29.9443 102.185 30.3023 102.464 30.5823C102.743 30.8577 103.097 31 103.535 31H104.875C105.312 31 105.671 30.8577 105.955 30.5823C106.239 30.3023 106.383 29.9443 106.383 29.5129V22.495C107.058 23.0871 107.709 23.5001 108.337 23.7388C108.966 23.9729 109.682 24.0922 110.487 24.0922C112.824 24.0922 114.727 23.2936 116.198 21.6871C117.673 20.0853 118.408 18.2126 118.408 16.0737C118.408 13.9349 117.673 12.0576 116.198 10.442ZM110.045 20.6544C107.83 20.3102 106.611 19.1811 106.383 17.2671V14.5912C106.62 12.87 107.849 11.8281 110.064 11.4747C113.052 11.6032 114.611 13.251 114.741 16.4134C114.406 18.9929 112.838 20.4066 110.045 20.6544Z" fill="#FF5635"/>
<path d="M131.086 8.81256C130.867 8.53257 130.606 8.28472 130.304 8.069C129.494 8.069 128.735 8.22505 128.019 8.53716C127.307 8.84927 126.529 9.39088 125.687 10.1666V9.12008C125.687 8.85845 125.552 8.64732 125.287 8.48208C125.022 8.31685 124.677 8.22964 124.263 8.22964C124.133 8.22964 124.035 8.23882 123.97 8.248L122.611 8.39488C122.229 8.43619 121.917 8.59224 121.68 8.85845C121.438 9.12926 121.322 9.45055 121.322 9.82692V22.7199C121.322 23.1513 121.461 23.5047 121.745 23.7847C122.029 24.0647 122.387 24.207 122.825 24.207H124.184C124.617 24.207 124.98 24.0647 125.264 23.7847C125.547 23.5047 125.687 23.1513 125.687 22.7199V14.2194C126.506 12.5946 127.525 11.7271 128.749 11.6216C129.173 11.6399 129.559 11.6996 129.908 11.796C130.02 11.8189 130.099 11.8281 130.155 11.8281C130.425 11.8281 130.667 11.7042 130.876 11.4563C131.081 11.2131 131.225 10.878 131.3 10.4603L131.397 9.79479C131.407 9.76266 131.416 9.71676 131.416 9.6525C131.416 9.37252 131.304 9.09254 131.086 8.81256Z" fill="black"/>
<path d="M148.054 10.263C146.462 8.69322 144.475 7.90835 142.097 7.90835C139.718 7.90835 137.736 8.69322 136.144 10.263C134.548 11.8373 133.752 13.7926 133.752 16.138C133.752 18.4834 134.548 20.4203 136.144 22.013C137.736 23.5828 139.718 24.3676 142.097 24.3676C144.475 24.3676 146.462 23.5828 148.054 22.013C149.645 20.4433 150.441 18.4834 150.441 16.138C150.441 13.7926 149.645 11.8373 148.054 10.263ZM145.289 19.4152C144.493 20.2964 143.423 20.737 142.083 20.737C140.742 20.737 139.672 20.2964 138.876 19.4152C138.048 18.5339 137.634 17.4461 137.634 16.1564C137.634 14.8666 138.048 13.7558 138.876 12.893C139.672 12.0117 140.733 11.5711 142.064 11.5711C143.395 11.5711 144.493 12.0117 145.289 12.893C146.118 13.7558 146.532 14.8436 146.532 16.1564C146.532 17.4691 146.118 18.5339 145.289 19.4152Z" fill="black"/>
<path d="M167.572 8.4729C167.288 8.19292 166.93 8.05523 166.492 8.05523H165.152C164.714 8.05523 164.356 8.19292 164.072 8.4729C163.788 8.75289 163.644 9.10631 163.644 9.53775V18.5752C162.927 19.8558 162.038 20.5443 160.977 20.6407C159.823 20.5993 158.948 20.2597 158.353 19.6217C157.757 18.9883 157.464 18.0979 157.464 16.9458V9.53775C157.464 9.10631 157.319 8.75289 157.035 8.4729C156.752 8.19292 156.393 8.05523 155.956 8.05523H154.615C154.178 8.05523 153.82 8.19292 153.536 8.4729C153.252 8.75289 153.108 9.10631 153.108 9.53775V18.0887C153.108 19.6951 153.657 21.1134 154.746 22.3527C155.825 23.5782 157.403 24.1886 159.474 24.1886C160.195 24.1886 160.875 24.0647 161.517 23.8123C162.164 23.5598 162.871 23.1146 163.644 22.4812V23.3349C163.644 23.5828 163.788 23.7893 164.072 23.9545C164.356 24.1244 164.714 24.207 165.152 24.207H166.492C166.93 24.207 167.288 24.0647 167.572 23.7847C167.856 23.5047 168 23.1513 168 22.7199V9.53775C168 9.10631 167.856 8.75289 167.572 8.4729Z" fill="black"/>
<path d="M181.659 22.3206L181.478 21.7376C181.412 21.499 181.236 21.2924 180.947 21.118C180.659 20.939 180.328 20.8013 179.96 20.7049C179.272 20.7049 178.732 20.4984 178.346 20.0853C177.959 19.6676 177.764 19.025 177.764 18.1529V11.5252H179.044C179.411 11.5252 179.714 11.3829 179.951 11.1029C180.184 10.8229 180.3 10.4695 180.3 10.0381V9.6525C180.3 9.22106 180.161 8.86764 179.877 8.58765C179.593 8.30767 179.234 8.16539 178.797 8.16539H177.764V4.95706C177.764 4.48431 177.601 4.09876 177.266 3.80042C176.935 3.50666 176.526 3.37815 176.047 3.42405L174.688 3.56633C174.306 3.61223 173.994 3.7637 173.748 4.02991C173.506 4.29153 173.38 4.61282 173.38 4.98919V8.16539H172.123C171.751 8.16539 171.444 8.30767 171.207 8.58765C170.965 8.86764 170.844 9.22106 170.844 9.6525V10.0381C170.844 10.4695 170.988 10.8229 171.272 11.1029C171.556 11.3829 171.914 11.5252 172.351 11.5252H173.38V18.8001C173.38 20.402 173.924 21.7055 175.018 22.7061C176.121 23.7067 177.596 24.207 179.453 24.207C179.877 24.207 180.291 24.1565 180.696 24.0601C181.022 23.9867 181.277 23.8214 181.454 23.569C181.636 23.3166 181.724 23.0412 181.724 22.7382C181.724 22.5868 181.706 22.4491 181.659 22.3206Z" fill="black"/>
<path d="M197.873 10.3272C196.444 8.82174 194.541 8.069 192.163 8.069C189.785 8.069 187.784 8.82174 186.257 10.3272C184.731 11.8373 183.967 13.7696 183.967 16.138C183.967 18.5064 184.731 20.4433 186.257 21.9488C187.784 23.4542 189.752 24.207 192.163 24.207C194.574 24.207 196.249 23.7939 197.547 22.9631C197.743 22.8346 197.892 22.6786 197.99 22.495C198.087 22.3114 198.134 22.1186 198.134 21.9166C198.134 21.4944 197.966 21.118 197.627 20.7875L197.054 20.2184C196.793 19.9614 196.477 19.8328 196.105 19.8328C195.877 19.8328 195.644 19.8925 195.402 20.0118C194.387 20.5076 193.308 20.7508 192.163 20.7508C191.213 20.7508 190.394 20.4938 189.71 19.9797C189.371 19.741 189.105 19.4381 188.91 19.0663C188.71 18.6946 188.561 18.208 188.449 17.6068H198.497C198.93 17.6068 199.293 17.4691 199.576 17.1891C199.86 16.9091 200 16.5557 200 16.138C200 13.7604 199.293 11.8235 197.873 10.3272ZM188.645 14.6692C188.668 14.0771 188.766 13.5952 188.942 13.2234C189.115 12.8562 189.371 12.5441 189.71 12.2963C190.394 11.7822 191.213 11.5252 192.163 11.5252C193.112 11.5252 193.899 11.7822 194.583 12.2963C194.932 12.5441 195.197 12.8562 195.369 13.2234C195.546 13.5952 195.644 14.0771 195.667 14.6692H188.645Z" fill="black"/>
</g>
<defs>
<clipPath id="clip0_103_2048">
<rect width="200" height="31" fill="white"/>
</clipPath>
</defs>
</svg>
