<?xml version="1.0" encoding="UTF-8"?>
<svg id="Layer_1" xmlns="http://www.w3.org/2000/svg" version="1.1" viewBox="0 0 1280 420">
  <!-- Generator: Adobe Illustrator 30.2.1, SVG Export Plug-In . SVG Version: 2.1.1 Build 1)  -->
  <defs>
    <style>
      .st0 {
        fill: #f8f7f3;
      }

      .st1 {
        fill: #ffcb00;
      }

      .st2 {
        fill: #fff;
      }

      .st3 {
        fill: #ff5635;
      }

      .st4 {
        fill: #191919;
      }
    </style>
  </defs>
  <path class="st4" d="M1280,255.6v134.4c0,16.6-13.5,30.1-30.1,30.1H160.4c-8,0-15.6-3.2-21.3-8.8L8.8,280.9c-5.6-5.6-8.8-13.3-8.8-21.3V30.1C0,13.5,13.5,0,30.1,0h247.9c8,0,15.6,3.2,21.3,8.8l70.1,70.1c5.8,5.8,15.3,5.8,21.1,0L460.7,8.8c5.6-5.6,13.3-8.8,21.3-8.8h542.5c8,0,15.6,3.2,21.3,8.8l225.5,225.5c5.6,5.6,8.8,13.3,8.8,21.3h0Z"/>
  <g>
    <path class="st2" d="M985.4,339c-5.2,0-9.5-4.2-9.5-9.5V90.5c0-5.2,4.2-9.5,9.5-9.5h239.1c5.2,0,9.5,4.2,9.5,9.5v214.7l-33.8,33.8h-214.7Z"/>
    <path class="st1" d="M1224.5,82c4.7,0,8.5,3.8,8.5,8.5v214.3h-.2c0,.1-33.1,33.2-33.1,33.2h-214.3c-4.7,0-8.5-3.8-8.5-8.5V90.5c0-4.7,3.8-8.5,8.5-8.5h239.1M1224.5,80h-239.1c-5.8,0-10.5,4.7-10.5,10.5v239.1c0,5.8,4.7,10.5,10.5,10.5h215.1l33.7-33.7.7-.7V90.5c0-5.8-4.7-10.5-10.5-10.5h0Z"/>
  </g>
  <path class="st1" d="M1234.2,236.2v70.1l-33.7,33.7h0c0,0-214.8,0-214.8,0-5.8,0-10.5-4.7-10.5-10.5v-93.4h259Z"/>
  <path class="st3" d="M655.2,302.5v39.9c0,1.9-.8,3.8-2.1,5.1l-29.5,29.5c-1.4,1.4-3.2,2.1-5.1,2.1h-154.9c-4,0-7.3-3.2-7.3-7.3v-69.3c0-4,3.2-7.3,7.3-7.3h184.4c4,0,7.3,3.2,7.3,7.3h0Z"/>
  <g>
    <path class="st0" d="M484.2,329.4v4.9h6.6v3.1h-6.6v5.2h7.4v3.2h-11.3v-19.6h11.3v3.2h-7.4Z"/>
    <path class="st0" d="M508.2,331.8c1.1,1.2,1.7,2.8,1.7,4.9v9.1h-3.9v-8.6c0-1.2-.3-2.2-.9-2.8-.6-.7-1.5-1-2.5-1s-1.9.3-2.6,1c-.6.7-.9,1.6-.9,2.8v8.6h-3.9v-15.5h3.9v1.9c.5-.7,1.2-1.2,2-1.6.8-.4,1.7-.6,2.7-.6,1.9,0,3.3.6,4.5,1.8Z"/>
    <path class="st0" d="M519.5,330.8c.8-.5,1.7-.7,2.8-.7v4.1h-1c-1.2,0-2.2.3-2.8.9s-.9,1.6-.9,3v7.7h-3.9v-15.5h3.9v2.4c.5-.8,1.2-1.5,2-1.9h0Z"/>
    <path class="st0" d="M527.8,345.1c-1.2-.7-2.1-1.6-2.8-2.8s-1-2.6-1-4.2.3-3,1-4.2c.7-1.2,1.7-2.1,2.9-2.8s2.6-1,4.1-1,2.8.3,4.1,1,2.2,1.6,2.9,2.8,1,2.6,1,4.2-.4,3-1.1,4.2c-.7,1.2-1.7,2.1-2.9,2.8s-2.6,1-4.1,1-2.8-.3-4-1h0ZM533.8,342.1c.6-.3,1.1-.9,1.5-1.5.4-.7.6-1.5.6-2.5,0-1.5-.4-2.6-1.2-3.4-.8-.8-1.7-1.2-2.8-1.2s-2.1.4-2.8,1.2c-.8.8-1.1,1.9-1.1,3.4s.4,2.6,1.1,3.4,1.7,1.2,2.8,1.2,1.4-.2,2-.5h0Z"/>
    <path class="st0" d="M546.7,325.1v20.7h-3.9v-20.7h3.9Z"/>
    <path class="st0" d="M554.5,325.1v20.7h-3.9v-20.7h3.9Z"/>
    <path class="st0" d="M581.8,345.8h-3.9l-8.9-13.4v13.4h-3.9v-19.6h3.9l8.9,13.4v-13.4h3.9v19.6Z"/>
    <path class="st0" d="M588.5,345.1c-1.2-.7-2.1-1.6-2.8-2.8s-1-2.6-1-4.2.3-3,1-4.2c.7-1.2,1.7-2.1,2.9-2.8s2.6-1,4.1-1,2.8.3,4.1,1,2.2,1.6,2.9,2.8,1,2.6,1,4.2-.4,3-1.1,4.2c-.7,1.2-1.7,2.1-2.9,2.8s-2.6,1-4.1,1-2.8-.3-4-1h0ZM594.5,342.1c.6-.3,1.1-.9,1.5-1.5.4-.7.6-1.5.6-2.5,0-1.5-.4-2.6-1.2-3.4-.8-.8-1.7-1.2-2.8-1.2s-2.1.4-2.8,1.2c-.8.8-1.1,1.9-1.1,3.4s.4,2.6,1.1,3.4,1.7,1.2,2.8,1.2,1.4-.2,2-.5h0Z"/>
    <path class="st0" d="M625,330.3l-4.5,15.5h-4.2l-2.8-10.8-2.8,10.8h-4.3l-4.6-15.5h4l2.7,11.8,3-11.8h4.1l2.9,11.8,2.7-11.8h3.8Z"/>
  </g>
  <g>
    <path class="st4" d="M1017.9,259.3c1.3.7,2.4,1.7,3.1,2.9s1.1,2.8,1.1,4.4-.4,3.1-1.1,4.4c-.7,1.3-1.8,2.2-3.1,2.9-1.3.7-2.9,1-4.6,1h-5.9v-16.8h5.9c1.8,0,3.3.3,4.6,1ZM1017.2,270.7c1-1,1.4-2.3,1.4-4.1s-.5-3.1-1.4-4.1-2.3-1.5-4.1-1.5h-2.4v11.1h2.4c1.8,0,3.1-.5,4.1-1.4h0Z"/>
    <path class="st4" d="M1024.5,264.7c.5-1,1.3-1.8,2.2-2.4s1.9-.8,3.1-.8,1.9.2,2.6.6,1.3.9,1.8,1.5v-1.9h3.4v13.3h-3.4v-1.9c-.4.6-1,1.1-1.8,1.5s-1.6.6-2.6.6-2.1-.3-3.1-.9c-.9-.6-1.7-1.4-2.2-2.4s-.8-2.2-.8-3.6.3-2.5.8-3.6h0ZM1033.7,266.2c-.3-.6-.8-1-1.3-1.3-.5-.3-1.1-.5-1.8-.5s-1.2.1-1.7.5c-.5.3-1,.8-1.3,1.3s-.5,1.3-.5,2.1.2,1.5.5,2.1.8,1.1,1.3,1.4,1.1.5,1.7.5,1.2-.2,1.8-.5,1-.8,1.3-1.3c.3-.6.5-1.3.5-2.1s-.2-1.5-.5-2.1h0Z"/>
    <path class="st4" d="M1041.1,259.5c-.4-.4-.6-.8-.6-1.4s.2-1,.6-1.4.9-.6,1.5-.6,1.1.2,1.5.6c.4.4.6.8.6,1.4s-.2,1-.6,1.4c-.4.4-.9.6-1.5.6s-1.1-.2-1.5-.6ZM1044.2,261.7v13.3h-3.4v-13.3h3.4Z"/>
    <path class="st4" d="M1050.9,257.2v17.8h-3.4v-17.8h3.4Z"/>
    <path class="st4" d="M1066.9,261.7l-8.2,19.6h-3.6l2.9-6.6-5.3-13h3.8l3.4,9.3,3.5-9.3h3.6,0Z"/>
    <path class="st4" d="M1086,265.9c-.4.8-1.1,1.4-2,1.9-.9.5-2,.7-3.4.7h-2.8v6.4h-3.4v-16.8h6.2c1.3,0,2.4.2,3.3.7s1.6,1.1,2.1,1.9c.5.8.7,1.7.7,2.7s-.2,1.7-.6,2.5h0ZM1082.5,265.2c.4-.4.7-1,.7-1.8,0-1.6-.9-2.5-2.7-2.5h-2.7v4.9h2.7c.9,0,1.6-.2,2.1-.6h0Z"/>
    <path class="st4" d="M1094.1,262.1c.7-.4,1.5-.6,2.4-.6v3.5h-.9c-1.1,0-1.8.2-2.4.7-.5.5-.8,1.4-.8,2.6v6.6h-3.4v-13.3h3.4v2.1c.4-.7,1-1.3,1.7-1.7h0Z"/>
    <path class="st4" d="M1098.7,264.7c.5-1,1.3-1.8,2.2-2.4s1.9-.8,3.1-.8,1.9.2,2.6.6,1.3.9,1.8,1.5v-1.9h3.4v13.3h-3.4v-1.9c-.4.6-1,1.1-1.8,1.5s-1.6.6-2.6.6-2.1-.3-3.1-.9c-.9-.6-1.7-1.4-2.2-2.4s-.8-2.2-.8-3.6.3-2.5.8-3.6h0ZM1107.8,266.2c-.3-.6-.8-1-1.3-1.3-.5-.3-1.1-.5-1.8-.5s-1.2.1-1.7.5c-.5.3-1,.8-1.3,1.3s-.5,1.3-.5,2.1.2,1.5.5,2.1.8,1.1,1.3,1.4,1.1.5,1.7.5,1.2-.2,1.8-.5,1-.8,1.3-1.3c.3-.6.5-1.3.5-2.1s-.2-1.5-.5-2.1h0Z"/>
    <path class="st4" d="M1115,264.7c.6-1,1.3-1.8,2.3-2.4s2.1-.9,3.4-.9,3,.4,4.1,1.2,1.8,2,2.2,3.5h-3.6c-.2-.6-.5-1-1-1.4s-1-.5-1.7-.5c-1,0-1.7.4-2.3,1-.6.7-.8,1.7-.8,3s.3,2.2.8,2.9c.6.7,1.3,1,2.3,1,1.4,0,2.2-.6,2.7-1.8h3.6c-.4,1.4-1.1,2.6-2.2,3.4-1.1.9-2.4,1.3-4.1,1.3s-2.4-.3-3.4-.9-1.8-1.4-2.3-2.4c-.6-1-.8-2.2-.8-3.6s.3-2.6.8-3.6h0Z"/>
    <path class="st4" d="M1133.4,264.5v6.4c0,.5.1.8.3,1,.2.2.6.3,1.1.3h1.6v2.8h-2.1c-2.8,0-4.2-1.4-4.2-4.1v-6.4h-1.6v-2.8h1.6v-3.3h3.4v3.3h3v2.8h-3,0Z"/>
    <path class="st4" d="M1139,259.5c-.4-.4-.6-.8-.6-1.4s.2-1,.6-1.4.9-.6,1.5-.6,1.1.2,1.5.6c.4.4.6.8.6,1.4s-.2,1-.6,1.4c-.4.4-.9.6-1.5.6s-1.1-.2-1.5-.6ZM1142.1,261.7v13.3h-3.4v-13.3h3.4Z"/>
    <path class="st4" d="M1145.4,264.7c.6-1,1.3-1.8,2.3-2.4s2.1-.9,3.4-.9,3,.4,4.1,1.2,1.8,2,2.2,3.5h-3.6c-.2-.6-.5-1-1-1.4s-1-.5-1.7-.5c-1,0-1.7.4-2.3,1-.6.7-.8,1.7-.8,3s.3,2.2.8,2.9c.6.7,1.3,1,2.3,1,1.4,0,2.2-.6,2.7-1.8h3.6c-.4,1.4-1.1,2.6-2.2,3.4-1.1.9-2.4,1.3-4.1,1.3s-2.4-.3-3.4-.9-1.8-1.4-2.3-2.4c-.6-1-.8-2.2-.8-3.6s.3-2.6.8-3.6h0Z"/>
    <path class="st4" d="M1172.1,269.4h-9.7c0,1,.4,1.7,1,2.3s1.3.8,2.2.8c1.2,0,2.1-.5,2.7-1.6h3.6c-.4,1.3-1.1,2.3-2.2,3.2-1.1.8-2.4,1.2-4,1.2s-2.4-.3-3.4-.9c-1-.6-1.8-1.4-2.4-2.4s-.8-2.2-.8-3.6.3-2.6.8-3.6c.6-1,1.3-1.8,2.3-2.4s2.2-.8,3.5-.8,2.4.3,3.4.8c1,.5,1.8,1.3,2.3,2.3.6,1,.8,2.1.8,3.4s0,.9,0,1.3h0ZM1168.8,267.1c0-.9-.3-1.6-.9-2.1s-1.3-.8-2.2-.8-1.5.2-2.1.8c-.6.5-.9,1.2-1,2.1h6.3,0Z"/>
  </g>
  <g>
    <path class="st3" d="M55.8,98.8v9.2c0,1.5.3,2.5,1,3.2.7.7,1.6,1.1,2.8,1.1s2.2-.3,2.8-1c.7-.7,1-1.8,1-3.2v-9.2h1.5v9.2c0,1.9-.5,3.3-1.5,4.2-1,.9-2.3,1.4-3.8,1.4s-2.9-.5-3.8-1.4c-1-.9-1.5-2.3-1.5-4.2v-9.2h1.5,0Z"/>
    <path class="st3" d="M69.7,98v15.5h-1.5v-15.5h1.5Z"/>
    <path class="st3" d="M74.9,103.3v7.1c0,.7.1,1.2.4,1.4.3.3.7.4,1.4.4h1.3v1.3h-1.6c-1,0-1.8-.2-2.3-.7s-.8-1.3-.8-2.4v-7.1h-1.6v-1.2h1.6v-2.9h1.5v2.9h3.2v1.2h-3.2,0Z"/>
    <path class="st3" d="M80.5,99.6c-.2-.2-.3-.5-.3-.8s0-.6.3-.8.5-.3.8-.3.6,0,.8.3.3.5.3.8,0,.6-.3.8-.5.3-.8.3-.6,0-.8-.3ZM82,102.1v11.5h-1.5v-11.5h1.5Z"/>
    <path class="st3" d="M102.3,103.1c.8.8,1.3,2.1,1.3,3.7v6.7h-1.4v-6.6c0-1.2-.3-2.2-.9-2.9s-1.4-1-2.5-1-1.9.4-2.6,1.1-1,1.8-1,3.1v6.2h-1.4v-6.6c0-1.2-.3-2.2-.9-2.9s-1.4-1-2.5-1-1.9.4-2.6,1.1-1,1.8-1,3.1v6.2h-1.5v-11.5h1.5v2c.4-.7.9-1.3,1.6-1.6.7-.4,1.4-.6,2.2-.6s1.9.2,2.6.7,1.3,1.2,1.6,2.1c.3-.9.8-1.6,1.6-2.1.8-.5,1.6-.7,2.6-.7s2.4.4,3.3,1.3h0Z"/>
    <path class="st3" d="M106.8,104.7c.5-.9,1.1-1.6,1.9-2.1.8-.5,1.8-.7,2.8-.7s2,.2,2.8.8,1.4,1.2,1.7,1.9v-2.5h1.5v11.5h-1.5v-2.5c-.4.8-.9,1.4-1.7,1.9s-1.7.8-2.8.8-2-.2-2.8-.7c-.8-.5-1.5-1.2-1.9-2.1-.5-.9-.7-1.9-.7-3.1s.2-2.2.7-3.1h0ZM115.6,105.3c-.4-.7-.9-1.2-1.5-1.6s-1.4-.6-2.2-.6-1.5.2-2.2.6c-.6.4-1.2.9-1.5,1.6-.4.7-.6,1.5-.6,2.5s.2,1.8.6,2.5c.4.7.9,1.2,1.5,1.6s1.4.6,2.2.6,1.5-.2,2.2-.6,1.2-.9,1.5-1.6.6-1.5.6-2.4-.2-1.7-.6-2.4Z"/>
    <path class="st3" d="M122.9,103.3v7.1c0,.7.1,1.2.4,1.4.3.3.7.4,1.4.4h1.3v1.3h-1.6c-1,0-1.8-.2-2.3-.7s-.8-1.3-.8-2.4v-7.1h-1.6v-1.2h1.6v-2.9h1.5v2.9h3.2v1.2h-3.2,0Z"/>
    <path class="st3" d="M138.8,108.4h-9.5c0,.9.2,1.6.6,2.2s.9,1.1,1.5,1.4c.6.3,1.3.5,2,.5s1.8-.2,2.4-.7,1.1-1.1,1.3-1.9h1.6c-.3,1.1-.9,2-1.8,2.7s-2.1,1.1-3.4,1.1-2-.2-2.9-.7-1.5-1.2-2-2.1-.7-1.9-.7-3.1.2-2.2.7-3.1c.5-.9,1.1-1.6,2-2.1s1.8-.7,2.9-.7,2.1.2,2.9.7,1.4,1.1,1.9,1.9c.4.8.7,1.7.7,2.7s0,.9,0,1.2h0ZM136.8,105c-.4-.6-.8-1.1-1.5-1.4s-1.3-.5-2-.5c-1.1,0-2,.3-2.8,1.1-.8.7-1.2,1.7-1.3,3h8.1c0-.8-.2-1.6-.5-2.2Z"/>
    <path class="st3" d="M149.1,113.2c-.7-.3-1.3-.8-1.7-1.4-.4-.6-.6-1.3-.7-2h1.6c0,.7.4,1.3.9,1.9s1.4.8,2.5.8,1.8-.3,2.4-.8c.6-.5.9-1.2.9-1.9s-.2-1.1-.5-1.5c-.3-.4-.7-.7-1.2-.9s-1.1-.4-2-.6c-1-.3-1.8-.5-2.3-.8s-1.1-.6-1.5-1.2c-.4-.5-.6-1.2-.6-2.2s.2-1.4.6-2,.9-1.1,1.7-1.4c.7-.3,1.5-.5,2.5-.5,1.4,0,2.4.3,3.3,1,.8.7,1.3,1.5,1.4,2.6h-1.6c-.1-.6-.4-1.1-1-1.6s-1.3-.7-2.3-.7-1.6.2-2.2.7c-.6.5-.9,1.1-.9,1.9s.2,1.1.5,1.5c.3.4.7.7,1.2.9.5.2,1.1.4,2,.6.9.3,1.7.5,2.3.8s1.1.7,1.5,1.2c.4.5.6,1.2.6,2.1s-.2,1.3-.6,1.9c-.4.6-.9,1.1-1.6,1.5-.7.4-1.6.6-2.6.6s-1.8-.2-2.6-.5h0Z"/>
    <path class="st3" d="M169.6,108.4h-9.5c0,.9.2,1.6.6,2.2s.9,1.1,1.5,1.4c.6.3,1.3.5,2,.5s1.8-.2,2.4-.7,1.1-1.1,1.3-1.9h1.6c-.3,1.1-.9,2-1.8,2.7s-2.1,1.1-3.4,1.1-2-.2-2.9-.7-1.5-1.2-2-2.1-.7-1.9-.7-3.1.2-2.2.7-3.1c.5-.9,1.1-1.6,2-2.1s1.8-.7,2.9-.7,2.1.2,2.9.7,1.4,1.1,1.9,1.9c.4.8.7,1.7.7,2.7s0,.9,0,1.2h0ZM167.6,105c-.4-.6-.8-1.1-1.5-1.4s-1.3-.5-2-.5c-1.1,0-2,.3-2.8,1.1-.8.7-1.2,1.7-1.3,3h8.1c0-.8-.2-1.6-.5-2.2Z"/>
    <path class="st3" d="M175.3,102.4c.7-.4,1.5-.6,2.4-.6v1.5h-.4c-1.1,0-1.9.3-2.6.9s-1,1.5-1,2.9v6.4h-1.5v-11.5h1.5v2c.3-.7.8-1.3,1.5-1.7h0Z"/>
    <path class="st3" d="M179.9,99.6c-.2-.2-.3-.5-.3-.8s.1-.6.3-.8.5-.3.8-.3.6,0,.8.3.3.5.3.8-.1.6-.3.8-.5.3-.8.3-.6,0-.8-.3ZM181.4,102.1v11.5h-1.5v-11.5h1.5Z"/>
    <path class="st3" d="M195.1,108.4h-9.5c0,.9.2,1.6.6,2.2s.9,1.1,1.5,1.4c.6.3,1.3.5,2,.5s1.8-.2,2.4-.7,1.1-1.1,1.3-1.9h1.6c-.3,1.1-.9,2-1.8,2.7s-2.1,1.1-3.4,1.1-2-.2-2.9-.7-1.5-1.2-2-2.1-.7-1.9-.7-3.1.2-2.2.7-3.1c.5-.9,1.1-1.6,2-2.1s1.8-.7,2.9-.7,2.1.2,2.9.7,1.4,1.1,1.9,1.9c.4.8.7,1.7.7,2.7s0,.9,0,1.2h0ZM193.1,105c-.4-.6-.8-1.1-1.5-1.4s-1.3-.5-2-.5c-1.1,0-2,.3-2.8,1.1-.8.7-1.2,1.7-1.3,3h8.1c0-.8-.2-1.6-.5-2.2Z"/>
    <path class="st3" d="M198.5,112.8c-.8-.6-1.3-1.4-1.4-2.5h1.5c0,.6.4,1.2.9,1.6.5.4,1.3.6,2.2.6s1.4-.2,1.9-.6.7-.8.7-1.4-.1-.7-.4-1c-.2-.2-.6-.4-1-.6s-.9-.3-1.6-.5c-.9-.2-1.6-.4-2.1-.7s-1-.6-1.4-1-.6-1-.6-1.8.2-1.1.5-1.6c.3-.5.8-.8,1.4-1.1s1.3-.4,2.1-.4c1.2,0,2.2.3,3,.9.8.6,1.2,1.5,1.2,2.6h-1.5c0-.7-.3-1.2-.8-1.6s-1.1-.6-2-.6-1.3.2-1.8.5c-.5.3-.7.8-.7,1.3s.1.8.4,1.1.6.5,1,.7c.4.2.9.3,1.6.5.8.2,1.5.4,2,.7s.9.5,1.3.9c.4.4.5.9.6,1.6,0,.6-.2,1.2-.5,1.7-.3.5-.8.9-1.4,1.1s-1.3.4-2.1.4c-1.3,0-2.4-.3-3.2-.9h0Z"/>
    <path class="st0" d="M63.8,131.8v33.7h-8.2v-33.7h8.2Z"/>
    <path class="st0" d="M94.1,148c-.9,1.6-2.3,2.9-4.1,3.9s-4.2,1.5-6.9,1.5h-5.1v12.1h-8.2v-33.7h13.3c2.7,0,5,.5,6.8,1.4s3.2,2.2,4.2,3.8c.9,1.6,1.4,3.5,1.4,5.6s-.4,3.7-1.3,5.4h0ZM86,145.8c.8-.7,1.2-1.8,1.2-3.1s-.4-2.4-1.2-3.1c-.8-.7-1.9-1.1-3.5-1.1h-4.5v8.4h4.5c1.6,0,2.7-.4,3.5-1.1h0Z"/>
    <path class="st0" d="M137.9,131.8v33.7h-8.2v-20.2l-7.5,20.2h-6.6l-7.6-20.3v20.3h-8.2v-33.7h9.7l9.5,23.3,9.4-23.3h9.6,0Z"/>
    <path class="st0" d="M164.8,159.6h-12.6l-2,5.9h-8.6l12.2-33.7h9.5l12.2,33.7h-8.7l-2-5.9h0ZM162.7,153.2l-4.2-12.3-4.1,12.3h8.3Z"/>
    <path class="st0" d="M203.4,131.8v6.6h-8.9v27.1h-8.2v-27.1h-8.9v-6.6h26.1Z"/>
    <path class="st0" d="M218.1,157.8c3.1-2.6,5.6-4.7,7.4-6.4s3.3-3.4,4.6-5.2c1.2-1.8,1.9-3.6,1.9-5.3s-.3-2.3-.9-3.1c-.6-.7-1.5-1.1-2.7-1.1s-2.2.5-2.9,1.4c-.7.9-1,2.2-1,3.9h-7.9c0-2.7.6-5,1.8-6.8,1.1-1.8,2.6-3.2,4.4-4s3.8-1.3,6-1.3c3.8,0,6.7,1,8.6,2.9s2.9,4.5,2.9,7.6-1.2,6.6-3.5,9.5-5.3,5.8-8.9,8.6h13v6.7h-24.1v-6.1c1.1-.9,1.6-1.3,1.5-1.2h0Z"/>
    <path class="st0" d="M247.5,134.5c2.1-3.2,5.6-4.8,10.3-4.8s8.2,1.6,10.3,4.8c2.1,3.2,3.2,7.5,3.2,13s-1.1,9.9-3.2,13.1c-2.1,3.2-5.6,4.8-10.3,4.8s-8.2-1.6-10.3-4.8-3.2-7.5-3.2-13.1,1.1-9.8,3.2-13ZM262.2,140.1c-.7-1.7-2.2-2.6-4.4-2.6s-3.7.9-4.4,2.6c-.7,1.7-1.1,4.2-1.1,7.5s.1,4,.4,5.4.8,2.6,1.6,3.5,1.9,1.3,3.5,1.3,2.7-.4,3.5-1.3,1.3-2,1.6-3.5c.2-1.4.4-3.2.4-5.4,0-3.2-.4-5.7-1.1-7.5h0Z"/>
    <path class="st0" d="M276.8,157.8c3.1-2.6,5.6-4.7,7.4-6.4,1.8-1.7,3.3-3.4,4.6-5.2,1.2-1.8,1.9-3.6,1.9-5.3s-.3-2.3-.9-3.1c-.6-.7-1.5-1.1-2.7-1.1s-2.2.5-2.9,1.4c-.7.9-1,2.2-1,3.9h-7.9c0-2.7.6-5,1.8-6.8,1.1-1.8,2.6-3.2,4.4-4s3.8-1.3,6-1.3c3.8,0,6.7,1,8.6,2.9s2.9,4.5,2.9,7.6-1.2,6.6-3.5,9.5c-2.3,2.9-5.3,5.8-8.9,8.6h13v6.7h-24.1v-6.1c1.1-.9,1.6-1.3,1.5-1.2h0Z"/>
    <path class="st0" d="M319,137.3c-.6-.6-1.5-.9-2.7-.9-1.8,0-3.1.8-3.9,2.4-.8,1.6-1.2,4.1-1.2,7.5.7-1.1,1.7-2,3-2.6s2.8-1,4.4-1c3.1,0,5.7,1,7.6,3,1.9,2,2.9,4.8,2.9,8.3s-.5,4.4-1.4,6.1c-.9,1.8-2.3,3.1-4.1,4.1s-3.9,1.5-6.4,1.5c-4.9,0-8.4-1.5-10.3-4.6-1.9-3.1-2.9-7.5-2.9-13.3s1-10.6,3-13.6c2-3,5.3-4.4,9.8-4.4s4.4.5,6.1,1.4c1.6.9,2.9,2.2,3.7,3.7.9,1.5,1.4,3.2,1.5,5h-7.6c-.3-1.2-.7-2.1-1.3-2.7h0ZM313.1,150.4c-.9.8-1.4,2-1.4,3.5s.4,2.7,1.3,3.6c.9.9,2.1,1.3,3.6,1.3s2.5-.4,3.3-1.3,1.2-2,1.2-3.5-.4-2.7-1.2-3.6c-.8-.9-2-1.3-3.5-1.3s-2.5.4-3.4,1.2h0Z"/>
    <path class="st3" d="M80,197c-.9,1.6-2.3,2.9-4.1,3.9s-4.2,1.5-6.9,1.5h-5.1v12.1h-8.2v-33.7h13.3c2.7,0,5,.5,6.8,1.4s3.2,2.2,4.2,3.8c.9,1.6,1.4,3.5,1.4,5.6s-.4,3.7-1.3,5.4h0ZM71.8,194.8c.8-.7,1.2-1.8,1.2-3.1s-.4-2.4-1.2-3.1c-.8-.7-1.9-1.1-3.5-1.1h-4.5v8.4h4.5c1.6,0,2.7-.4,3.5-1.1h0Z"/>
    <path class="st3" d="M97.4,188.7c1.4-.9,3-1.3,4.8-1.3v8.7h-2.3c-2.1,0-3.6.4-4.6,1.3-1,.9-1.5,2.4-1.5,4.6v12.4h-8.2v-26.8h8.2v4.5c1-1.5,2.2-2.6,3.6-3.5h0Z"/>
    <path class="st3" d="M111.2,213.2c-2.1-1.1-3.7-2.7-4.9-4.8-1.2-2.1-1.8-4.5-1.8-7.3s.6-5.2,1.8-7.3c1.2-2.1,2.9-3.7,5-4.8,2.1-1.1,4.5-1.7,7.1-1.7s5,.6,7.1,1.7,3.8,2.7,5,4.8c1.2,2.1,1.8,4.5,1.8,7.3s-.6,5.2-1.9,7.3c-1.2,2.1-2.9,3.7-5,4.8-2.1,1.1-4.5,1.7-7.1,1.7s-5-.6-7.1-1.7h0ZM122.3,206.1c1.1-1.1,1.7-2.8,1.7-4.9s-.5-3.8-1.6-4.9c-1.1-1.1-2.4-1.7-4-1.7s-2.9.6-4,1.7c-1.1,1.1-1.6,2.8-1.6,5s.5,3.8,1.6,4.9c1,1.1,2.3,1.7,3.9,1.7s2.9-.6,4-1.7h0Z"/>
    <path class="st3" d="M171.2,197c-.9,1.6-2.3,2.9-4.1,3.9s-4.2,1.5-6.9,1.5h-5.1v12.1h-8.2v-33.7h13.3c2.7,0,5,.5,6.8,1.4s3.2,2.2,4.2,3.8c.9,1.6,1.4,3.5,1.4,5.6s-.4,3.7-1.3,5.4h0ZM163.1,194.8c.8-.7,1.1-1.8,1.1-3.1s-.4-2.4-1.1-3.1c-.8-.7-1.9-1.1-3.5-1.1h-4.5v8.4h4.5c1.6,0,2.7-.4,3.5-1.1h0Z"/>
    <path class="st3" d="M185.1,179v35.5h-8.2v-35.5h8.2Z"/>
    <path class="st3" d="M190.9,193.8c1-2.1,2.5-3.7,4.2-4.8,1.8-1.1,3.8-1.7,6-1.7s3.5.4,5,1.1c1.4.8,2.5,1.8,3.3,3v-3.8h8.2v26.8h-8.2v-3.8c-.8,1.2-1.9,2.3-3.3,3-1.4.8-3.1,1.1-5,1.1s-4.2-.6-5.9-1.7c-1.8-1.1-3.2-2.8-4.2-4.9s-1.6-4.5-1.6-7.3.5-5.2,1.6-7.2h0ZM207.7,196.3c-1.1-1.2-2.5-1.8-4.1-1.8s-3,.6-4.1,1.8c-1.1,1.2-1.7,2.8-1.7,4.8s.6,3.7,1.7,4.9c1.1,1.2,2.5,1.8,4.1,1.8s3-.6,4.1-1.8c1.1-1.2,1.7-2.8,1.7-4.9s-.6-3.7-1.7-4.9h0Z"/>
    <path class="st3" d="M247.4,190.5c1.9,2,2.8,4.8,2.8,8.4v15.6h-8.2v-14.5c0-1.8-.5-3.2-1.4-4.2-.9-1-2.2-1.5-3.7-1.5s-2.8.5-3.7,1.5c-.9,1-1.4,2.4-1.4,4.2v14.5h-8.2v-26.8h8.2v3.6c.8-1.2,1.9-2.1,3.4-2.8s3-1,4.8-1c3.1,0,5.6,1,7.5,3.1h0Z"/>
  </g>
  <g>
    <path class="st3" d="M457.2,92.9v-3.3h6.3v18.9h-3.7v-15.6h-2.5Z"/>
    <path class="st3" d="M479.8,92.7h-8.4v4.4c.4-.4.9-.8,1.6-1.1.7-.3,1.4-.4,2.2-.4,1.4,0,2.5.3,3.4.9.9.6,1.5,1.4,1.9,2.3.4.9.6,1.9.6,3,0,2-.6,3.6-1.7,4.8-1.1,1.2-2.8,1.8-4.9,1.8s-3.5-.5-4.7-1.5c-1.2-1-1.9-2.3-2-3.9h3.5c.2.7.5,1.2,1,1.7s1.2.6,2.1.6,1.8-.3,2.3-1,.8-1.5.8-2.6-.3-1.9-.8-2.5c-.5-.6-1.3-.8-2.3-.8s-1.3.2-1.8.6c-.5.4-.8.8-1,1.5h-3.5v-11.1h11.8v3.2h0Z"/>
    <path class="st3" d="M510.2,90.3v18.2h-3.6v-11.8l-4.9,11.8h-2.8l-4.9-11.8v11.8h-3.6v-18.2h4.1l5.8,13.5,5.8-13.5h4.1Z"/>
    <path class="st3" d="M516.5,107.8c-1.1-.6-2-1.5-2.6-2.6-.6-1.1-1-2.4-1-3.9s.3-2.8,1-3.9c.7-1.1,1.5-2,2.7-2.6,1.1-.6,2.4-.9,3.8-.9s2.6.3,3.8.9c1.1.6,2,1.5,2.7,2.6.7,1.1,1,2.4,1,3.9s-.3,2.8-1,3.9c-.7,1.1-1.6,2-2.7,2.6s-2.4.9-3.8.9-2.6-.3-3.7-.9h0ZM522.1,105.1c.6-.3,1-.8,1.4-1.4s.5-1.4.5-2.3c0-1.4-.4-2.4-1.1-3.2s-1.6-1.1-2.6-1.1-1.9.4-2.6,1.1-1,1.8-1,3.2.3,2.4,1,3.2c.7.7,1.5,1.1,2.6,1.1s1.3-.2,1.9-.5h0Z"/>
    <path class="st3" d="M530.4,97.3c.6-1.1,1.5-2,2.5-2.6,1.1-.6,2.3-.9,3.7-.9s3.3.4,4.4,1.3,2,2.2,2.3,3.8h-3.9c-.2-.6-.6-1.1-1-1.5-.5-.3-1.1-.5-1.8-.5-1,0-1.9.4-2.5,1.1s-.9,1.8-.9,3.2.3,2.4.9,3.2,1.4,1.1,2.5,1.1,2.4-.7,2.9-2h3.9c-.4,1.6-1.2,2.8-2.4,3.7s-2.7,1.4-4.4,1.4-2.6-.3-3.7-.9c-1.1-.6-1.9-1.5-2.5-2.6-.6-1.1-.9-2.4-.9-3.9s.3-2.8.9-3.9h0Z"/>
    <path class="st3" d="M554.6,108.5l-4.9-6.1v6.1h-3.6v-19.2h3.6v10.9l4.8-6.1h4.7l-6.3,7.2,6.4,7.2h-4.7Z"/>
    <path class="st3" d="M563.6,108.1c-.9-.4-1.7-1-2.2-1.7s-.8-1.5-.9-2.4h3.7c0,.6.3,1,.8,1.4.5.4,1.1.6,1.8.6s1.2-.1,1.6-.4c.4-.3.6-.6.6-1.1s-.2-.8-.7-1.1-1.2-.5-2.3-.8c-1.1-.3-2-.5-2.6-.8s-1.3-.7-1.8-1.3c-.5-.6-.7-1.3-.7-2.3s.2-1.5.7-2.2c.5-.7,1.1-1.2,2-1.6s1.9-.6,3-.6c1.7,0,3.1.4,4.1,1.3s1.6,2,1.7,3.5h-3.5c0-.6-.3-1-.7-1.4-.4-.3-1-.5-1.7-.5s-1.2.1-1.5.4c-.4.2-.5.6-.5,1s.2.8.7,1.1c.5.2,1.2.5,2.3.8,1,.3,1.9.5,2.6.8.7.3,1.3.7,1.8,1.3s.8,1.3.8,2.3c0,.8-.2,1.6-.7,2.2-.5.7-1.1,1.2-2,1.6s-1.9.6-3,.6-2.2-.2-3.2-.6h0Z"/>
    <path class="st2" d="M582.2,107.4c-.7-1.9-1.1-4-1.1-6.3s.4-4.4,1.1-6.4,1.8-3.6,3.2-4.9h1.9v.2c-1.5,1.4-2.6,3.1-3.4,5.1s-1.1,4-1.1,6.1.4,4,1.1,5.9,1.8,3.5,3.1,4.9v.2h-1.9c-1.3-1.2-2.3-2.8-3-4.8Z"/>
    <path class="st2" d="M591.4,96v4.7h5.1v1.5h-5.1v4.8h5.7v1.5h-7.5v-14h7.5v1.5h-5.7Z"/>
    <path class="st2" d="M599.8,100c.5-.8,1.1-1.5,1.9-2s1.7-.7,2.7-.7,1.8.2,2.5.6,1.2.9,1.6,1.6v-2h1.8v11h-1.8v-2c-.4.6-.9,1.2-1.6,1.6-.7.4-1.5.6-2.5.6s-1.8-.2-2.6-.7-1.4-1.2-1.9-2c-.5-.9-.7-1.8-.7-3s.2-2.1.7-2.9h0ZM607.9,100.8c-.3-.6-.8-1.1-1.3-1.4-.6-.3-1.2-.5-1.9-.5s-1.3.2-1.9.5-1,.8-1.3,1.4-.5,1.3-.5,2.2.2,1.6.5,2.2.8,1.1,1.3,1.4,1.2.5,1.9.5,1.3-.2,1.9-.5c.6-.3,1-.8,1.3-1.4.3-.6.5-1.3.5-2.2s-.2-1.6-.5-2.2Z"/>
    <path class="st2" d="M613.3,100c.5-.8,1.1-1.5,1.9-2s1.7-.7,2.8-.7,2.5.3,3.3,1,1.5,1.6,1.7,2.7h-2c-.2-.7-.5-1.2-1.1-1.6s-1.2-.6-2-.6-1.9.4-2.5,1.1-1,1.7-1,3,.3,2.3,1,3.1,1.5,1.1,2.5,1.1,1.5-.2,2-.6c.5-.4.9-.9,1.1-1.6h2c-.3,1.1-.9,2-1.8,2.7-.9.7-2,1-3.3,1s-2-.2-2.8-.7c-.8-.5-1.4-1.1-1.9-2-.5-.8-.7-1.8-.7-3s.2-2.1.7-3h0Z"/>
    <path class="st2" d="M633.2,97.8c.7.3,1.2.9,1.6,1.6s.6,1.6.6,2.6v6.5h-1.8v-6.2c0-1.1-.3-1.9-.8-2.5s-1.3-.9-2.2-.9-1.7.3-2.3.9-.8,1.5-.8,2.6v6.1h-1.8v-14.8h1.8v5.4c.4-.6.9-1,1.5-1.3.6-.3,1.3-.5,2.1-.5s1.6.2,2.2.5h0Z"/>
    <path class="st2" d="M637.7,112.2v-.2c1.4-1.4,2.4-3.1,3.1-4.9.7-1.9,1.1-3.8,1.1-5.9s-.4-4.2-1.1-6.1-1.9-3.7-3.4-5.1v-.2h1.9c1.4,1.3,2.5,2.9,3.2,4.9s1.1,4.1,1.1,6.4-.4,4.3-1.1,6.3-1.7,3.5-3,4.8h-1.9Z"/>
    <g>
      <path class="st0" d="M461.2,162.4v18.1h-3v-18.1h3Z"/>
      <path class="st0" d="M477.1,170.4c-.4.8-1.1,1.5-2.1,2-1,.5-2.2.8-3.7.8h-3.3v7.3h-3v-18.1h6.2c1.4,0,2.6.2,3.5.7,1,.5,1.7,1.1,2.2,1.9.5.8.7,1.7.7,2.7s-.2,1.8-.6,2.6h0ZM473.9,169.9c.5-.5.8-1.2.8-2.2,0-2-1.1-3-3.4-3h-3.3v5.9h3.3c1.1,0,2-.3,2.5-.8h0Z"/>
      <path class="st0" d="M499.6,162.4v18.1h-3v-12.4l-5.5,12.4h-2l-5.5-12.4v12.4h-3v-18.1h3.2l6.3,14.2,6.3-14.2h3.2,0Z"/>
      <path class="st0" d="M514.4,176.8h-7.6l-1.3,3.7h-3.1l6.5-18.1h3.4l6.5,18.1h-3.1l-1.3-3.7h0ZM513.6,174.4l-2.9-8.4-3,8.4h5.9Z"/>
      <path class="st0" d="M533.3,162.4v2.4h-4.8v15.6h-3v-15.6h-4.8v-2.4h12.6Z"/>
      <path class="st0" d="M547.3,169.8v2.5h-10.7v-2.5h10.7Z"/>
      <path class="st0" d="M560.9,180.5l-4.2-7.2h-2.3v7.2h-3v-18.1h6.2c1.4,0,2.6.2,3.5.7s1.7,1.1,2.2,1.9.7,1.7.7,2.7-.3,2.2-1,3.2-1.7,1.6-3.2,2l4.5,7.5h-3.5,0ZM554.5,170.9h3.3c1.1,0,2-.3,2.5-.8s.8-1.3.8-2.2-.3-1.7-.8-2.2-1.4-.8-2.5-.8h-3.3v6.1Z"/>
      <path class="st0" d="M570.5,179.8c-1.1-.6-2-1.5-2.6-2.6s-.9-2.4-.9-3.9.3-2.8,1-3.9c.6-1.1,1.5-2,2.6-2.6s2.3-.9,3.7-.9,2.6.3,3.7.9,2,1.5,2.6,2.6c.6,1.1,1,2.4,1,3.9s-.3,2.8-1,3.9c-.7,1.1-1.6,2-2.7,2.6s-2.4.9-3.8.9-2.6-.3-3.7-.9h0ZM576.3,177.6c.7-.4,1.2-.9,1.6-1.6s.6-1.6.6-2.6-.2-1.9-.6-2.6c-.4-.7-.9-1.3-1.6-1.6-.7-.4-1.4-.6-2.1-.6s-1.5.2-2.1.6c-.7.4-1.2.9-1.5,1.6-.4.7-.6,1.6-.6,2.6,0,1.5.4,2.7,1.2,3.6.8.8,1.8,1.3,3,1.3s1.5-.2,2.2-.6h0Z"/>
      <path class="st0" d="M594.9,166.6c.9.5,1.5,1.2,2,2.1.5.9.7,2,.7,3.3v8.4h-2.9v-8c0-1.3-.3-2.3-1-2.9s-1.5-1-2.6-1-2,.3-2.6,1-1,1.7-1,2.9v8h-3v-19.2h3v6.6c.5-.6,1.1-1.1,1.9-1.4.8-.3,1.6-.5,2.5-.5s2.1.2,2.9.7h0Z"/>
      <path class="st0" d="M604.9,168.6v7.9c0,.5.1.9.4,1.2.2.2.7.4,1.3.4h1.8v2.5h-2.3c-1.3,0-2.4-.3-3.1-.9-.7-.6-1.1-1.6-1.1-3v-7.9h-1.7v-2.4h1.7v-3.6h3v3.6h3.5v2.4h-3.5,0Z"/>
      <path class="st0" d="M611,169.4c.6-1.1,1.4-2,2.4-2.6,1-.6,2.2-.9,3.4-.9s2.1.2,3,.7,1.5,1,2,1.6v-2.1h3v14.3h-3v-2.1c-.5.7-1.2,1.2-2,1.7-.9.4-1.8.7-3,.7s-2.4-.3-3.4-.9c-1-.6-1.8-1.5-2.4-2.6-.6-1.1-.9-2.4-.9-3.9s.3-2.7.9-3.8h0ZM621.2,170.7c-.4-.7-.9-1.3-1.6-1.7s-1.4-.6-2.1-.6-1.5.2-2.1.6-1.2.9-1.6,1.6-.6,1.6-.6,2.6.2,1.9.6,2.6.9,1.3,1.6,1.7,1.4.6,2.1.6,1.5-.2,2.1-.6c.7-.4,1.2-.9,1.6-1.7.4-.7.6-1.6.6-2.6s-.2-1.9-.6-2.6h0Z"/>
      <path class="st0" d="M634.4,173.3l6.6,7.1h-4l-5.3-6.2v6.2h-3v-19.2h3v11.2l5.2-6.3h4.1l-6.6,7.2h0Z"/>
    </g>
    <g>
      <path class="st0" d="M461.2,126.4v18.1h-3v-18.1h3Z"/>
      <path class="st0" d="M477.1,134.4c-.4.8-1.1,1.5-2.1,2-1,.5-2.2.8-3.7.8h-3.3v7.3h-3v-18.1h6.2c1.4,0,2.6.2,3.5.7,1,.5,1.7,1.1,2.2,1.9.5.8.7,1.7.7,2.7s-.2,1.8-.6,2.6h0ZM473.9,134c.5-.5.8-1.2.8-2.2,0-2-1.1-3-3.4-3h-3.3v5.9h3.3c1.1,0,2-.3,2.5-.8h0Z"/>
      <path class="st0" d="M499.6,126.4v18.1h-3v-12.4l-5.5,12.4h-2l-5.5-12.4v12.4h-3v-18.1h3.2l6.3,14.2,6.3-14.2h3.2,0Z"/>
      <path class="st0" d="M514.4,140.8h-7.6l-1.3,3.7h-3.1l6.5-18.1h3.4l6.5,18.1h-3.1l-1.3-3.7h0ZM513.6,138.4l-2.9-8.4-3,8.4h5.9Z"/>
      <path class="st0" d="M533.3,126.4v2.4h-4.8v15.6h-3v-15.6h-4.8v-2.4h12.6Z"/>
      <path class="st0" d="M547.3,133.8v2.5h-10.7v-2.5h10.7Z"/>
      <path class="st0" d="M554.5,126.4v18.1h-3v-18.1h3Z"/>
      <path class="st0" d="M568.6,130.6c.9.5,1.6,1.2,2.1,2.1s.8,2,.8,3.3v8.4h-2.9v-8c0-1.3-.3-2.3-1-2.9s-1.5-1-2.6-1-2,.3-2.6,1-1,1.7-1,2.9v8h-3v-14.3h3v1.6c.5-.6,1.1-1.1,1.9-1.4.8-.3,1.6-.5,2.4-.5s2.1.2,3,.7h0Z"/>
      <path class="st0" d="M575.2,133.4c.6-1.1,1.4-2,2.4-2.6,1-.6,2.2-.9,3.4-.9s1.9.2,2.8.6c.9.4,1.6.9,2.2,1.6v-6.9h3v19.2h-3v-2.2c-.5.7-1.2,1.3-2,1.7-.9.4-1.8.7-3,.7s-2.4-.3-3.4-.9c-1-.6-1.8-1.5-2.4-2.6-.6-1.1-.9-2.4-.9-3.9s.3-2.7.9-3.8h0ZM585.4,134.7c-.4-.7-.9-1.3-1.6-1.7s-1.4-.6-2.1-.6-1.5.2-2.1.6-1.2.9-1.6,1.6-.6,1.6-.6,2.6.2,1.9.6,2.6.9,1.3,1.6,1.7,1.4.6,2.1.6,1.5-.2,2.1-.6c.7-.4,1.2-.9,1.6-1.7.4-.7.6-1.6.6-2.6s-.2-1.9-.6-2.6h0Z"/>
      <path class="st0" d="M595.4,143.8c-1.1-.6-2-1.5-2.6-2.6s-.9-2.4-.9-3.9.3-2.8,1-3.9c.6-1.1,1.5-2,2.6-2.6s2.3-.9,3.7-.9,2.6.3,3.7.9,2,1.5,2.6,2.6c.6,1.1,1,2.4,1,3.9s-.3,2.8-1,3.9-1.6,2-2.7,2.6c-1.1.6-2.4.9-3.8.9s-2.6-.3-3.7-.9h0ZM601.2,141.6c.7-.4,1.2-.9,1.6-1.6.4-.7.6-1.6.6-2.6s-.2-1.9-.6-2.6c-.4-.7-.9-1.3-1.6-1.6-.7-.4-1.4-.6-2.1-.6s-1.5.2-2.1.6c-.7.4-1.2.9-1.5,1.6-.4.7-.6,1.6-.6,2.6,0,1.5.4,2.7,1.2,3.6.8.8,1.8,1.3,3,1.3s1.5-.2,2.2-.6h0Z"/>
      <path class="st0" d="M614.2,130.5c.7-.4,1.6-.6,2.6-.6v3.1h-.8c-1.2,0-2,.3-2.6.9s-.9,1.6-.9,3.1v7.5h-3v-14.3h3v2.1c.4-.7,1-1.3,1.7-1.7h0Z"/>
      <path class="st0" d="M632.5,138.4h-11c0,1.1.5,2.1,1.3,2.8.8.7,1.7,1,2.8,1,1.6,0,2.7-.7,3.4-2h3.2c-.4,1.3-1.2,2.4-2.3,3.2-1.1.8-2.5,1.3-4.2,1.3s-2.6-.3-3.7-.9-1.9-1.5-2.5-2.6-.9-2.4-.9-3.9.3-2.8.9-3.9c.6-1.1,1.4-2,2.5-2.6s2.3-.9,3.7-.9,2.6.3,3.6.9c1.1.6,1.9,1.4,2.5,2.5s.9,2.3.9,3.7,0,1,0,1.5h0ZM629.5,136c0-1.1-.4-2-1.2-2.6s-1.7-1-2.8-1-1.9.3-2.6,1-1.2,1.5-1.3,2.6h7.9Z"/>
    </g>
    <path class="st0" d="M468.1,198.4v13c0,1.6-.5,2.9-1.5,3.8-1,.9-2.3,1.4-3.9,1.4s-2.9-.5-3.9-1.4c-1-.9-1.5-2.2-1.5-3.8h3c0,.8.2,1.4.6,1.9.4.5,1,.7,1.7.7s1.3-.2,1.7-.7c.4-.5.6-1.1.6-1.9v-13h3Z"/>
    <path class="st0" d="M475.9,198.4v18.1h-3v-18.1h3Z"/>
    <path class="st0" d="M491.8,206.4c-.4.8-1.1,1.5-2.1,2-1,.5-2.2.8-3.7.8h-3.3v7.3h-3v-18.1h6.2c1.4,0,2.6.2,3.5.7,1,.5,1.7,1.1,2.2,1.9.5.8.7,1.7.7,2.7s-.2,1.8-.6,2.6h0ZM488.5,205.9c.5-.5.8-1.2.8-2.2,0-2-1.1-3-3.4-3h-3.3v5.9h3.3c1.1,0,2-.3,2.5-.8h0Z"/>
    <path class="st0" d="M514.3,198.4v18.1h-3v-12.4l-5.5,12.4h-2l-5.5-12.4v12.4h-3v-18.1h3.2l6.3,14.2,6.3-14.2h3.2,0Z"/>
    <path class="st0" d="M529.1,212.8h-7.6l-1.3,3.7h-3.1l6.5-18.1h3.4l6.5,18.1h-3.1l-1.3-3.7h0ZM528.2,210.4l-2.9-8.4-3,8.4h5.9Z"/>
    <path class="st0" d="M548,198.4v2.4h-4.8v15.6h-3v-15.6h-4.8v-2.4h12.6Z"/>
  </g>
  <g>
    <path class="st3" d="M733.1,92.7h-8.4v4.4c.4-.4.9-.8,1.6-1.1.7-.3,1.4-.4,2.2-.4,1.4,0,2.5.3,3.4.9s1.5,1.4,1.9,2.3c.4.9.6,1.9.6,3,0,2-.6,3.6-1.7,4.8-1.1,1.2-2.8,1.8-4.8,1.8s-3.5-.5-4.7-1.5c-1.2-1-1.8-2.3-2-3.9h3.5c.2.7.5,1.2,1,1.7s1.2.6,2.1.6,1.8-.3,2.3-1,.8-1.5.8-2.6-.3-1.9-.8-2.5c-.5-.6-1.3-.8-2.3-.8s-1.3.2-1.8.6c-.5.4-.8.8-1,1.5h-3.5v-11.1h11.8v3.2h0Z"/>
    <path class="st3" d="M763.5,90.3v18.2h-3.6v-11.8l-4.9,11.8h-2.8l-4.9-11.8v11.8h-3.6v-18.2h4.1l5.8,13.5,5.8-13.5h4.1Z"/>
    <path class="st3" d="M769.8,107.8c-1.1-.6-2-1.5-2.6-2.6-.6-1.1-1-2.4-1-3.9s.3-2.8,1-3.9c.7-1.1,1.5-2,2.7-2.6s2.4-.9,3.8-.9,2.6.3,3.8.9,2,1.5,2.7,2.6c.7,1.1,1,2.4,1,3.9s-.3,2.8-1,3.9c-.7,1.1-1.6,2-2.7,2.6-1.1.6-2.4.9-3.8.9s-2.6-.3-3.7-.9h0ZM775.4,105.1c.6-.3,1-.8,1.4-1.4s.5-1.4.5-2.3c0-1.4-.4-2.4-1.1-3.2-.7-.7-1.6-1.1-2.6-1.1s-1.9.4-2.6,1.1-1,1.8-1,3.2.3,2.4,1,3.2c.7.7,1.5,1.1,2.6,1.1s1.3-.2,1.9-.5h0Z"/>
    <path class="st3" d="M783.7,97.3c.6-1.1,1.5-2,2.5-2.6,1.1-.6,2.3-.9,3.7-.9s3.3.4,4.4,1.3,2,2.2,2.3,3.8h-3.9c-.2-.6-.6-1.1-1-1.5-.5-.3-1.1-.5-1.8-.5-1,0-1.9.4-2.5,1.1s-.9,1.8-.9,3.2.3,2.4.9,3.2c.6.8,1.4,1.1,2.5,1.1s2.4-.7,2.9-2h3.9c-.4,1.6-1.2,2.8-2.4,3.7s-2.7,1.4-4.4,1.4-2.6-.3-3.7-.9c-1.1-.6-1.9-1.5-2.5-2.6s-.9-2.4-.9-3.9.3-2.8.9-3.9h0Z"/>
    <path class="st3" d="M807.9,108.5l-4.9-6.1v6.1h-3.6v-19.2h3.6v10.9l4.8-6.1h4.7l-6.3,7.2,6.4,7.2h-4.7Z"/>
    <path class="st3" d="M816.9,108.1c-.9-.4-1.7-1-2.2-1.7s-.8-1.5-.9-2.4h3.7c0,.6.3,1,.8,1.4.5.4,1.1.6,1.8.6s1.2-.1,1.6-.4c.4-.3.6-.6.6-1.1s-.2-.8-.7-1.1-1.2-.5-2.3-.8c-1.1-.3-2-.5-2.6-.8s-1.3-.7-1.8-1.3c-.5-.6-.7-1.3-.7-2.3s.2-1.5.7-2.2c.5-.7,1.1-1.2,2-1.6s1.9-.6,3-.6c1.7,0,3.1.4,4.1,1.3,1,.9,1.6,2,1.7,3.5h-3.5c0-.6-.3-1-.7-1.4s-1-.5-1.7-.5-1.2.1-1.5.4c-.4.2-.5.6-.5,1s.2.8.7,1.1c.5.2,1.2.5,2.3.8,1,.3,1.9.5,2.6.8.7.3,1.3.7,1.8,1.3s.8,1.3.8,2.3c0,.8-.2,1.6-.7,2.2-.5.7-1.1,1.2-2,1.6-.9.4-1.9.6-3,.6s-2.2-.2-3.2-.6h0Z"/>
    <path class="st2" d="M835.5,107.4c-.7-1.9-1.1-4-1.1-6.3s.4-4.4,1.1-6.4,1.8-3.6,3.2-4.9h1.9v.2c-1.5,1.4-2.6,3.1-3.4,5.1s-1.1,4-1.1,6.1.4,4,1.1,5.9,1.8,3.5,3.1,4.9v.2h-1.9c-1.3-1.2-2.3-2.8-3-4.8Z"/>
    <path class="st2" d="M844.7,96v4.7h5.1v1.5h-5.1v4.8h5.7v1.5h-7.5v-14h7.5v1.5h-5.7Z"/>
    <path class="st2" d="M853.1,100c.5-.8,1.1-1.5,1.9-2s1.7-.7,2.7-.7,1.8.2,2.5.6,1.2.9,1.6,1.6v-2h1.8v11h-1.8v-2c-.4.6-.9,1.2-1.6,1.6-.7.4-1.5.6-2.5.6s-1.8-.2-2.6-.7c-.8-.5-1.4-1.2-1.9-2s-.7-1.8-.7-3,.2-2.1.7-2.9h0ZM861.2,100.8c-.3-.6-.8-1.1-1.3-1.4s-1.2-.5-1.9-.5-1.3.2-1.9.5-1,.8-1.3,1.4-.5,1.3-.5,2.2.2,1.6.5,2.2.8,1.1,1.3,1.4,1.2.5,1.9.5,1.3-.2,1.9-.5c.6-.3,1-.8,1.3-1.4.3-.6.5-1.3.5-2.2s-.2-1.6-.5-2.2Z"/>
    <path class="st2" d="M866.7,100c.5-.8,1.1-1.5,1.9-2s1.7-.7,2.8-.7,2.5.3,3.3,1,1.5,1.6,1.7,2.7h-2c-.2-.7-.5-1.2-1.1-1.6s-1.2-.6-2-.6-1.9.4-2.5,1.1-1,1.7-1,3,.3,2.3,1,3.1,1.5,1.1,2.5,1.1,1.5-.2,2-.6c.5-.4.9-.9,1.1-1.6h2c-.3,1.1-.9,2-1.8,2.7-.9.7-2,1-3.3,1s-2-.2-2.8-.7c-.8-.5-1.4-1.1-1.9-2-.5-.8-.7-1.8-.7-3s.2-2.1.7-3h0Z"/>
    <path class="st2" d="M886.5,97.8c.7.3,1.2.9,1.6,1.6s.6,1.6.6,2.6v6.5h-1.8v-6.2c0-1.1-.3-1.9-.8-2.5s-1.3-.9-2.2-.9-1.7.3-2.3.9-.8,1.5-.8,2.6v6.1h-1.8v-14.8h1.8v5.4c.4-.6.9-1,1.5-1.3.6-.3,1.3-.5,2.1-.5s1.6.2,2.2.5h0Z"/>
    <path class="st2" d="M891,112.2v-.2c1.4-1.4,2.4-3.1,3.1-4.9.7-1.9,1.1-3.8,1.1-5.9s-.4-4.2-1.1-6.1-1.9-3.7-3.4-5.1v-.2h1.9c1.4,1.3,2.5,2.9,3.2,4.9s1.1,4.1,1.1,6.4-.4,4.3-1.1,6.3-1.7,3.5-3,4.8h-1.9Z"/>
    <path class="st0" d="M735.8,144.5h-3l-8.9-13.5v13.5h-3v-18.1h3l8.9,13.5v-13.5h3v18.1Z"/>
    <path class="st0" d="M751.7,134.4c-.4.8-1.1,1.5-2.1,2-1,.5-2.2.8-3.7.8h-3.3v7.3h-3v-18.1h6.2c1.4,0,2.6.2,3.5.7,1,.5,1.7,1.1,2.2,1.9.5.8.7,1.7.7,2.7s-.2,1.8-.7,2.6h0ZM748.5,133.9c.5-.5.8-1.2.8-2.2,0-2-1.1-3-3.3-3h-3.3v5.9h3.3c1.1,0,2-.3,2.5-.8h0Z"/>
    <path class="st0" d="M766.1,140.8h-7.6l-1.3,3.7h-3.1l6.5-18.1h3.4l6.5,18.1h-3.1l-1.3-3.7h0ZM765.2,138.4l-2.9-8.4-3,8.4h5.9Z"/>
    <path class="st0" d="M785,126.4v2.4h-4.8v15.6h-3v-15.6h-4.8v-2.4h12.6Z"/>
    <path class="st0" d="M723.6,180c-1-.4-1.7-1-2.3-1.8-.5-.8-.8-1.7-.8-2.7h3.2c0,.8.4,1.4.9,1.9.5.5,1.3.8,2.3.8s1.8-.2,2.4-.7.9-1.1.9-1.9-.2-1.1-.5-1.5c-.4-.4-.8-.7-1.3-.9-.5-.2-1.3-.4-2.2-.7-1.2-.3-2.1-.6-2.9-.9-.7-.3-1.4-.8-1.9-1.5s-.8-1.6-.8-2.7.3-1.9.8-2.7,1.2-1.4,2.2-1.8c.9-.4,2-.6,3.2-.6,1.8,0,3.2.4,4.3,1.3,1.1.9,1.7,2.1,1.9,3.6h-3.3c0-.7-.4-1.2-.9-1.7-.6-.5-1.3-.7-2.3-.7s-1.5.2-2.1.6-.8,1.1-.8,1.9.2,1,.5,1.4c.3.4.8.6,1.3.9.5.2,1.2.4,2.1.7,1.2.3,2.2.7,2.9,1s1.4.8,1.9,1.5c.5.7.8,1.6.8,2.7s-.2,1.8-.7,2.6c-.5.8-1.2,1.5-2.2,2-.9.5-2.1.7-3.3.7s-2.3-.2-3.3-.6h0Z"/>
    <path class="st0" d="M739.6,164.8v5.3h6.2v2.4h-6.2v5.5h7v2.4h-10v-18.1h10v2.4h-7Z"/>
    <path class="st0" d="M762,162.4v2.4h-4.8v15.6h-3v-15.6h-4.8v-2.4h12.6Z"/>
    <path class="st0" d="M723.9,198.4v18.1h-3v-18.1h3Z"/>
    <path class="st0" d="M730.8,198.4v18.1h-3v-18.1h3Z"/>
    <path class="st0" d="M753.7,198.4v18.1h-3v-12.4l-5.5,12.4h-2l-5.5-12.4v12.4h-3v-18.1h3.2l6.3,14.2,6.3-14.2h3.2,0Z"/>
    <path class="st0" d="M768.6,205.8v2.5h-10.7v-2.5h10.7Z"/>
    <path class="st0" d="M785,208.7c.7.9,1,1.8,1,2.9s-.2,1.8-.7,2.5c-.5.7-1.2,1.3-2.1,1.7s-2,.6-3.2.6h-7.2v-18.1h6.9c1.2,0,2.3.2,3.2.6.9.4,1.5,1,2,1.7s.7,1.5.7,2.4-.3,1.9-.8,2.6-1.3,1.2-2.2,1.5c1,.2,1.8.7,2.5,1.5h0ZM775.8,206h3.7c1,0,1.7-.2,2.3-.7.5-.4.8-1.1.8-1.9s-.3-1.4-.8-1.9-1.3-.7-2.3-.7h-3.7v5.2h0ZM782.2,213.3c.6-.5.9-1.2.9-2s-.3-1.6-.9-2.1-1.4-.8-2.4-.8h-3.9v5.6h4c1,0,1.8-.2,2.4-.7h0Z"/>
    <path class="st0" d="M806.9,199.5c1.5.7,2.6,1.8,3.3,3.2.8,1.4,1.2,3,1.2,4.8s-.4,3.4-1.2,4.8-1.9,2.4-3.3,3.1c-1.5.7-3.1,1.1-5.1,1.1h-5.9v-18.1h5.9c1.9,0,3.6.4,5.1,1.1h0ZM806.7,212.3c1.1-1.1,1.7-2.8,1.7-4.8s-.6-3.7-1.7-4.9-2.8-1.8-4.9-1.8h-2.9v13.2h2.9c2.1,0,3.7-.6,4.9-1.7h0Z"/>
    <path class="st0" d="M826.5,208.7c.7.9,1,1.8,1,2.9s-.2,1.8-.7,2.5c-.5.7-1.2,1.3-2.1,1.7s-2,.6-3.2.6h-7.2v-18.1h6.9c1.2,0,2.3.2,3.2.6s1.5,1,2,1.7.7,1.5.7,2.4-.3,1.9-.8,2.6-1.3,1.2-2.2,1.5c1,.2,1.8.7,2.5,1.5h0ZM817.4,206h3.7c1,0,1.7-.2,2.3-.7.5-.4.8-1.1.8-1.9s-.3-1.4-.8-1.9-1.3-.7-2.3-.7h-3.7v5.2h0ZM823.7,213.3c.6-.5.9-1.2.9-2s-.3-1.6-.9-2.1-1.4-.8-2.4-.8h-3.9v5.6h4c1,0,1.8-.2,2.4-.7h0Z"/>
    <path class="st0" d="M833.8,200.8v5.3h6.2v2.4h-6.2v5.5h7v2.4h-10v-18.1h10v2.4h-7Z"/>
  </g>
  <g>
    <path class="st1" d="M61.1,248.6c-.7.7-1.8,1-3.2,1h-2.5v5.4h-1.3v-12.6h3.8c1.4,0,2.5.3,3.2,1,.7.7,1.1,1.5,1.1,2.6s-.3,1.9-1.1,2.6h0ZM60.9,246c0-.8-.2-1.5-.7-1.9-.5-.4-1.2-.6-2.2-.6h-2.5v5.1h2.5c2,0,3-.8,3-2.5Z"/>
    <path class="st1" d="M66.8,245.4c.6-.3,1.3-.5,2.1-.5v1.3h-.3c-.9,0-1.6.2-2.2.7s-.8,1.3-.8,2.5v5.5h-1.3v-9.8h1.3v1.8c.3-.6.7-1.1,1.3-1.4h0Z"/>
    <path class="st1" d="M79.6,250.5h-8.2c0,.7.2,1.4.5,1.9s.8.9,1.3,1.2,1.1.4,1.7.4,1.5-.2,2.1-.6c.6-.4.9-.9,1.1-1.6h1.3c-.2,1-.8,1.7-1.5,2.4s-1.8.9-3,.9-1.8-.2-2.5-.6c-.7-.4-1.3-1-1.7-1.8s-.6-1.6-.6-2.7.2-1.9.6-2.7c.4-.8,1-1.4,1.7-1.8.7-.4,1.6-.6,2.5-.6s1.8.2,2.5.6c.7.4,1.2,1,1.6,1.6s.6,1.5.6,2.3,0,.8,0,1h0ZM77.9,247.6c-.3-.5-.7-.9-1.2-1.2s-1.1-.4-1.7-.4c-.9,0-1.7.3-2.4.9-.7.6-1,1.4-1.1,2.5h6.9c0-.7-.1-1.4-.4-1.9Z"/>
    <path class="st1" d="M84.7,245.6c.7-.4,1.5-.7,2.4-.7s1.7.2,2.4.6c.7.4,1.3,1,1.7,1.8s.6,1.6.6,2.7-.2,1.9-.6,2.7c-.4.8-1,1.4-1.7,1.8s-1.5.6-2.4.6-1.7-.2-2.4-.7-1.2-1-1.5-1.6v6.8h-1.2v-14.5h1.2v2.2c.3-.7.8-1.2,1.5-1.6h0ZM90.1,247.9c-.3-.6-.8-1.1-1.3-1.4-.6-.3-1.2-.5-1.9-.5s-1.3.2-1.8.5c-.6.3-1,.8-1.3,1.4s-.5,1.3-.5,2.1.2,1.5.5,2.1c.3.6.8,1.1,1.3,1.4.6.3,1.2.5,1.8.5s1.3-.2,1.9-.5c.6-.3,1-.8,1.3-1.4s.5-1.3.5-2.1-.2-1.5-.5-2.1h0Z"/>
    <path class="st1" d="M94.2,247.4c.4-.8,1-1.4,1.7-1.8.7-.4,1.5-.6,2.4-.6s1.7.2,2.4.6,1.2,1,1.5,1.7v-2.2h1.3v9.8h-1.3v-2.2c-.3.7-.8,1.2-1.5,1.7s-1.5.7-2.4.7-1.7-.2-2.4-.6-1.3-1-1.7-1.8-.6-1.7-.6-2.7.2-1.9.6-2.7h0ZM101.7,247.9c-.3-.6-.8-1.1-1.3-1.4-.6-.3-1.2-.5-1.8-.5s-1.3.2-1.9.5-1,.8-1.3,1.4c-.3.6-.5,1.3-.5,2.1s.2,1.5.5,2.1c.3.6.8,1.1,1.3,1.4.6.3,1.2.5,1.9.5s1.3-.2,1.8-.5c.6-.3,1-.8,1.3-1.4s.5-1.3.5-2.1-.2-1.5-.5-2.1h0Z"/>
    <path class="st1" d="M108.8,245.4c.6-.3,1.3-.5,2.1-.5v1.3h-.3c-.9,0-1.6.2-2.2.7s-.8,1.3-.8,2.5v5.5h-1.3v-9.8h1.3v1.8c.3-.6.7-1.1,1.3-1.4h0Z"/>
    <path class="st1" d="M121.6,250.5h-8.2c0,.7.2,1.4.5,1.9s.8.9,1.3,1.2,1.1.4,1.7.4,1.5-.2,2.1-.6c.6-.4.9-.9,1.1-1.6h1.3c-.2,1-.8,1.7-1.5,2.4s-1.8.9-3,.9-1.8-.2-2.5-.6c-.7-.4-1.3-1-1.7-1.8s-.6-1.6-.6-2.7.2-1.9.6-2.7c.4-.8,1-1.4,1.7-1.8.7-.4,1.6-.6,2.5-.6s1.8.2,2.5.6c.7.4,1.2,1,1.6,1.6s.6,1.5.6,2.3,0,.8,0,1h0ZM120,247.6c-.3-.5-.7-.9-1.2-1.2s-1.1-.4-1.7-.4c-.9,0-1.7.3-2.4.9-.7.6-1,1.4-1.1,2.5h6.9c0-.7-.1-1.4-.4-1.9Z"/>
    <path class="st1" d="M132.8,246.2h-2.3v8.8h-1.3v-8.8h-1.4v-1.1h1.4v-.7c0-1.1.3-1.9.8-2.4.6-.5,1.4-.8,2.6-.8v1.1c-.8,0-1.4.2-1.7.5s-.5.8-.5,1.6v.7h2.3v1.1h0Z"/>
    <path class="st1" d="M136.6,254.5c-.7-.4-1.3-1-1.8-1.8s-.6-1.6-.6-2.7.2-1.9.6-2.7,1-1.4,1.8-1.8,1.6-.6,2.5-.6,1.8.2,2.5.6c.8.4,1.3,1,1.8,1.8.4.8.6,1.6.6,2.7s-.2,1.9-.6,2.7c-.4.8-1,1.4-1.8,1.8-.8.4-1.6.6-2.5.6s-1.8-.2-2.5-.6h0ZM140.9,253.6c.6-.3,1-.7,1.3-1.3s.5-1.3.5-2.2-.2-1.6-.5-2.2c-.3-.6-.8-1-1.3-1.3-.6-.3-1.1-.4-1.8-.4s-1.2.1-1.8.4c-.6.3-1,.7-1.3,1.3s-.5,1.3-.5,2.2.2,1.6.5,2.2c.3.6.8,1,1.3,1.3.6.3,1.1.4,1.8.4s1.2-.1,1.8-.4h0Z"/>
    <path class="st1" d="M148.9,245.4c.6-.3,1.3-.5,2.1-.5v1.3h-.3c-.9,0-1.6.2-2.2.7s-.8,1.3-.8,2.5v5.5h-1.3v-9.8h1.3v1.8c.3-.6.7-1.1,1.3-1.4h0Z"/>
    <path class="st1" d="M166.6,250.5h-8.1c0,.7.2,1.4.5,1.9.3.5.8.9,1.3,1.2s1.1.4,1.7.4,1.5-.2,2.1-.6c.6-.4.9-.9,1.1-1.6h1.3c-.2,1-.8,1.7-1.5,2.4s-1.8.9-3,.9-1.8-.2-2.5-.6c-.7-.4-1.3-1-1.7-1.8s-.6-1.6-.6-2.7.2-1.9.6-2.7c.4-.8,1-1.4,1.7-1.8.7-.4,1.6-.6,2.5-.6s1.8.2,2.5.6c.7.4,1.2,1,1.6,1.6s.6,1.5.6,2.3,0,.8,0,1h0ZM164.9,247.6c-.3-.5-.7-.9-1.2-1.2s-1.1-.4-1.7-.4c-.9,0-1.7.3-2.4.9-.7.6-1,1.4-1.1,2.5h6.9c0-.7-.1-1.4-.4-1.9Z"/>
    <path class="st1" d="M172.5,253.7l3.3-8.6h1.3l-3.9,9.8h-1.4l-3.9-9.8h1.4l3.3,8.6Z"/>
    <path class="st1" d="M187.7,250.5h-8.1c0,.7.2,1.4.5,1.9.3.5.8.9,1.3,1.2s1.1.4,1.7.4,1.5-.2,2.1-.6c.6-.4.9-.9,1.1-1.6h1.3c-.2,1-.8,1.7-1.5,2.4s-1.8.9-3,.9-1.8-.2-2.5-.6c-.7-.4-1.3-1-1.7-1.8s-.6-1.6-.6-2.7.2-1.9.6-2.7c.4-.8,1-1.4,1.7-1.8.7-.4,1.6-.6,2.5-.6s1.8.2,2.5.6c.7.4,1.2,1,1.6,1.6s.6,1.5.6,2.3,0,.8,0,1h0ZM186,247.6c-.3-.5-.7-.9-1.2-1.2s-1.1-.4-1.7-.4c-.9,0-1.7.3-2.4.9-.7.6-1,1.4-1.1,2.5h6.9c0-.7-.1-1.4-.4-1.9Z"/>
    <path class="st1" d="M192.5,245.4c.6-.3,1.3-.5,2.1-.5v1.3h-.3c-.9,0-1.6.2-2.2.7s-.8,1.3-.8,2.5v5.5h-1.3v-9.8h1.3v1.8c.3-.6.7-1.1,1.3-1.4h0Z"/>
    <path class="st1" d="M204.6,245.1l-5.8,14.5h-1.3l1.9-4.7-4-9.8h1.4l3.4,8.4,3.2-8.4h1.3,0Z"/>
    <path class="st1" d="M212.5,242.4v12.6h-1.3v-12.6h1.3Z"/>
    <path class="st1" d="M216.6,242.4v12.6h-1.3v-12.6h1.3Z"/>
    <path class="st1" d="M231.8,242.5v12.4h-1.3v-9.9l-4.4,9.9h-.9l-4.4-9.9v9.9h-1.3v-12.4h1.3l4.8,10.8,4.8-10.8h1.4,0Z"/>
    <path class="st1" d="M252.6,245.1l-3.1,9.8h-1.3l-2.7-8.2-2.7,8.2h-1.3l-3.1-9.8h1.3l2.4,8.6,2.8-8.6h1.3l2.7,8.6,2.4-8.6h1.3Z"/>
    <path class="st1" d="M254.2,243c-.2-.2-.3-.4-.3-.7s0-.5.3-.7c.2-.2.4-.3.6-.3s.5,0,.6.3.3.4.3.7,0,.5-.3.7c-.2.2-.4.3-.6.3s-.5,0-.6-.3ZM255.5,245.1v9.8h-1.3v-9.8h1.3Z"/>
    <path class="st1" d="M260,246.2v6.1c0,.6.1,1,.3,1.2s.6.3,1.2.3h1.1v1.1h-1.4c-.9,0-1.5-.2-2-.6-.4-.4-.6-1.1-.6-2v-6.1h-1.4v-1.1h1.4v-2.5h1.3v2.5h2.7v1.1h-2.7,0Z"/>
    <path class="st1" d="M271.5,245.4c.6.3,1.1.8,1.4,1.4s.5,1.4.5,2.4v5.8h-1.2v-5.6c0-1.1-.3-1.9-.8-2.4-.5-.6-1.3-.9-2.2-.9s-1.7.3-2.3.9c-.6.6-.9,1.5-.9,2.6v5.4h-1.3v-13.3h1.3v5.2c.3-.6.8-1,1.4-1.4.6-.3,1.3-.5,2-.5s1.4.2,2,.5h0Z"/>
    <path class="st1" d="M54.1,269c-.2-.2-.3-.4-.3-.7s0-.5.3-.7c.2-.2.4-.3.7-.3s.5,0,.7.3.3.4.3.7,0,.5-.3.7c-.2.2-.4.3-.7.3s-.5,0-.7-.3ZM55.4,271.1v9.8h-1.3v-9.8h1.3Z"/>
    <path class="st1" d="M65.7,272c.7.7,1.1,1.8,1.1,3.2v5.8h-1.2v-5.6c0-1.1-.3-1.9-.8-2.5-.5-.6-1.3-.9-2.2-.9s-1.7.3-2.3.9c-.6.6-.8,1.5-.8,2.6v5.4h-1.3v-9.8h1.3v1.7c.3-.6.8-1.1,1.3-1.4s1.2-.5,2-.5c1.2,0,2.1.4,2.9,1.1h0Z"/>
    <path class="st1" d="M70.2,280.3c-.7-.5-1.1-1.2-1.2-2.1h1.3c0,.5.3,1,.8,1.3s1.1.5,1.9.5,1.2-.2,1.6-.5c.4-.3.6-.7.6-1.2s-.1-.6-.3-.8c-.2-.2-.5-.4-.8-.5s-.8-.3-1.3-.4c-.7-.2-1.3-.4-1.8-.6-.5-.2-.8-.5-1.2-.9-.3-.4-.5-.9-.5-1.5s.1-.9.4-1.3c.3-.4.7-.7,1.2-1,.5-.2,1.1-.4,1.8-.4,1.1,0,1.9.3,2.6.8s1,1.3,1,2.2h-1.3c0-.6-.3-1-.7-1.4-.4-.4-1-.5-1.7-.5s-1.2.1-1.6.5c-.4.3-.6.7-.6,1.1s.1.7.3,1,.5.4.9.6c.3.1.8.3,1.4.5.7.2,1.3.4,1.7.6s.8.4,1.1.8.5.8.5,1.4c0,.5-.1,1-.4,1.4s-.7.7-1.2,1c-.5.2-1.1.4-1.8.4-1.1,0-2.1-.3-2.8-.8h0Z"/>
    <path class="st1" d="M80.4,272.2v6.1c0,.6.1,1,.3,1.2s.6.3,1.2.3h1.2v1.1h-1.3c-.9,0-1.6-.2-2-.6s-.7-1.1-.7-2v-6.1h-1.4v-1.1h1.4v-2.5h1.3v2.5h2.7v1.1h-2.7,0Z"/>
    <path class="st1" d="M85.2,269c-.2-.2-.3-.4-.3-.7s0-.5.3-.7c.2-.2.4-.3.7-.3s.5,0,.7.3.3.4.3.7,0,.5-.3.7c-.2.2-.4.3-.7.3s-.5,0-.7-.3ZM86.5,271.1v9.8h-1.3v-9.8h1.3Z"/>
    <path class="st1" d="M91,272.2v6.1c0,.6.1,1,.3,1.2s.6.3,1.2.3h1.2v1.1h-1.3c-.9,0-1.6-.2-2-.6s-.7-1.1-.7-2v-6.1h-1.4v-1.1h1.4v-2.5h1.3v2.5h2.7v1.1h-2.7,0Z"/>
    <path class="st1" d="M104.3,271.1v9.8h-1.3v-1.7c-.3.6-.7,1.1-1.3,1.4s-1.3.5-2,.5c-1.2,0-2.1-.4-2.9-1.1s-1.1-1.8-1.1-3.2v-5.7h1.2v5.6c0,1.1.3,1.9.8,2.5.5.6,1.3.9,2.2.9s1.7-.3,2.3-.9c.6-.6.8-1.5.8-2.6v-5.4h1.3Z"/>
    <path class="st1" d="M108.8,272.2v6.1c0,.6.1,1,.3,1.2s.6.3,1.2.3h1.2v1.1h-1.3c-.9,0-1.6-.2-2-.6s-.7-1.1-.7-2v-6.1h-1.4v-1.1h1.4v-2.5h1.3v2.5h2.7v1.1h-2.7,0Z"/>
    <path class="st1" d="M122.4,276.5h-8.2c0,.7.2,1.4.5,1.9s.8.9,1.3,1.2c.5.3,1.1.4,1.7.4s1.5-.2,2.1-.6c.6-.4.9-.9,1.1-1.6h1.3c-.2,1-.8,1.7-1.5,2.4-.8.6-1.8.9-3,.9s-1.8-.2-2.5-.6-1.3-1-1.7-1.8-.6-1.6-.6-2.7.2-1.9.6-2.7,1-1.4,1.7-1.8c.7-.4,1.6-.6,2.5-.6s1.8.2,2.5.6c.7.4,1.2,1,1.6,1.6s.6,1.5.6,2.3,0,.8,0,1h0ZM120.7,273.6c-.3-.5-.7-.9-1.2-1.2s-1.1-.4-1.7-.4c-.9,0-1.7.3-2.4.9-.7.6-1,1.5-1.1,2.5h6.9c0-.7-.1-1.4-.4-1.9Z"/>
    <path class="st1" d="M130.8,273.8v1.1h-7v-1.1h7Z"/>
    <path class="st1" d="M134.7,280.3c-.7-.5-1.1-1.2-1.2-2.1h1.3c0,.5.3,1,.8,1.3.5.3,1.1.5,1.9.5s1.2-.2,1.6-.5c.4-.3.6-.7.6-1.2s-.1-.6-.3-.8c-.2-.2-.5-.4-.8-.5s-.8-.3-1.3-.4c-.7-.2-1.3-.4-1.8-.6-.5-.2-.8-.5-1.2-.9-.3-.4-.5-.9-.5-1.5s.1-.9.4-1.3c.3-.4.7-.7,1.2-1,.5-.2,1.1-.4,1.8-.4,1.1,0,1.9.3,2.6.8s1,1.3,1,2.2h-1.3c0-.6-.3-1-.7-1.4-.4-.4-1-.5-1.7-.5s-1.1.1-1.6.5c-.4.3-.6.7-.6,1.1s.1.7.4,1,.5.4.9.6c.4.1.8.3,1.4.5.7.2,1.3.4,1.7.6s.8.4,1.1.8.5.8.5,1.4c0,.5-.1,1-.4,1.4s-.7.7-1.2,1c-.5.2-1.1.4-1.8.4-1.1,0-2.1-.3-2.8-.8h0Z"/>
    <path class="st1" d="M146,271.6c.7-.4,1.5-.7,2.4-.7s1.7.2,2.4.6c.7.4,1.3,1,1.7,1.8s.6,1.6.6,2.7-.2,1.9-.6,2.7c-.4.8-1,1.4-1.7,1.8-.7.4-1.5.6-2.4.6s-1.7-.2-2.4-.7c-.7-.4-1.2-1-1.5-1.6v6.8h-1.2v-14.5h1.2v2.2c.3-.7.8-1.2,1.5-1.6h0ZM151.3,273.9c-.3-.6-.8-1-1.3-1.4-.6-.3-1.2-.5-1.9-.5s-1.3.2-1.8.5c-.6.3-1,.8-1.3,1.4s-.5,1.3-.5,2.1.2,1.5.5,2.1c.3.6.8,1.1,1.3,1.4.6.3,1.2.5,1.8.5s1.3-.2,1.9-.5c.6-.3,1-.8,1.3-1.4.3-.6.5-1.3.5-2.1s-.2-1.5-.5-2.1h0Z"/>
    <path class="st1" d="M164.3,276.5h-8.1c0,.7.2,1.4.5,1.9.3.5.8.9,1.3,1.2.5.3,1.1.4,1.7.4s1.5-.2,2.1-.6c.6-.4.9-.9,1.1-1.6h1.3c-.2,1-.8,1.7-1.5,2.4-.8.6-1.8.9-3,.9s-1.8-.2-2.5-.6-1.3-1-1.7-1.8-.6-1.6-.6-2.7.2-1.9.6-2.7,1-1.4,1.7-1.8c.7-.4,1.6-.6,2.5-.6s1.8.2,2.5.6c.7.4,1.2,1,1.6,1.6s.6,1.5.6,2.3,0,.8,0,1h0ZM162.6,273.6c-.3-.5-.7-.9-1.2-1.2s-1.1-.4-1.7-.4c-.9,0-1.7.3-2.4.9s-1,1.5-1.1,2.5h6.9c0-.7-.1-1.4-.4-1.9Z"/>
    <path class="st1" d="M166.6,273.4c.4-.8,1-1.4,1.7-1.8s1.5-.6,2.5-.6,2.2.3,3,.9,1.3,1.4,1.5,2.5h-1.4c-.2-.7-.5-1.3-1.1-1.7-.6-.4-1.2-.6-2.1-.6s-1.2.1-1.8.5c-.5.3-.9.8-1.2,1.3s-.5,1.3-.5,2.2.1,1.6.5,2.2c.3.6.7,1,1.2,1.4.5.3,1.1.5,1.8.5s1.5-.2,2.1-.6.9-1,1.1-1.7h1.4c-.2,1-.7,1.8-1.5,2.4s-1.8.9-3,.9-1.8-.2-2.5-.6-1.3-1-1.7-1.8-.6-1.6-.6-2.7.2-1.9.6-2.7h0Z"/>
    <path class="st1" d="M177.6,269c-.2-.2-.3-.4-.3-.7s0-.5.3-.7c.2-.2.4-.3.6-.3s.5,0,.6.3.3.4.3.7,0,.5-.3.7c-.2.2-.4.3-.6.3s-.5,0-.6-.3ZM178.9,271.1v9.8h-1.3v-9.8h1.3Z"/>
    <path class="st1" d="M185.6,272.2h-2.3v8.8h-1.3v-8.8h-1.4v-1.1h1.4v-.7c0-1.1.3-1.9.8-2.4.6-.5,1.4-.8,2.6-.8v1.1c-.8,0-1.4.2-1.7.5s-.5.8-.5,1.6v.7h2.3v1.1h0Z"/>
    <path class="st1" d="M187.6,269c-.2-.2-.3-.4-.3-.7s0-.5.3-.7c.2-.2.4-.3.6-.3s.5,0,.6.3.3.4.3.7,0,.5-.3.7c-.2.2-.4.3-.6.3s-.5,0-.6-.3ZM188.9,271.1v9.8h-1.3v-9.8h1.3Z"/>
    <path class="st1" d="M191.8,273.4c.4-.8,1-1.4,1.7-1.8s1.5-.6,2.5-.6,2.2.3,3,.9,1.3,1.4,1.5,2.5h-1.4c-.2-.7-.5-1.3-1.1-1.7-.6-.4-1.2-.6-2.1-.6s-1.2.1-1.8.5c-.5.3-.9.8-1.2,1.3s-.5,1.3-.5,2.2.1,1.6.5,2.2c.3.6.7,1,1.2,1.4.5.3,1.1.5,1.8.5s1.5-.2,2.1-.6.9-1,1.1-1.7h1.4c-.2,1-.7,1.8-1.5,2.4s-1.8.9-3,.9-1.8-.2-2.5-.6-1.3-1-1.7-1.8-.6-1.6-.6-2.7.2-1.9.6-2.7h0Z"/>
    <path class="st1" d="M222.2,272c.7.7,1.1,1.8,1.1,3.2v5.8h-1.2v-5.6c0-1.1-.3-1.9-.8-2.5-.5-.6-1.2-.9-2.1-.9s-1.7.3-2.2.9c-.6.6-.8,1.5-.8,2.7v5.3h-1.2v-5.6c0-1.1-.3-1.9-.8-2.5-.5-.6-1.2-.9-2.1-.9s-1.7.3-2.2.9c-.6.6-.8,1.5-.8,2.7v5.3h-1.3v-9.8h1.3v1.7c.3-.6.8-1.1,1.3-1.4.6-.3,1.2-.5,1.9-.5s1.6.2,2.2.6c.6.4,1.1,1,1.4,1.8.3-.8.7-1.4,1.4-1.8s1.4-.6,2.2-.6,2.1.4,2.8,1.1h0Z"/>
    <path class="st1" d="M227.9,280.5c-.7-.4-1.3-1-1.8-1.8s-.6-1.6-.6-2.7.2-1.9.6-2.7,1-1.4,1.8-1.8,1.6-.6,2.5-.6,1.8.2,2.5.6,1.3,1,1.8,1.8c.4.8.6,1.6.6,2.7s-.2,1.9-.6,2.7c-.4.8-1,1.4-1.8,1.8-.8.4-1.6.6-2.5.6s-1.8-.2-2.5-.6h0ZM232.2,279.6c.6-.3,1-.7,1.3-1.3s.5-1.3.5-2.2-.2-1.6-.5-2.2c-.3-.6-.8-1-1.3-1.3-.6-.3-1.1-.4-1.8-.4s-1.2.1-1.8.4-1,.7-1.3,1.3-.5,1.3-.5,2.2.2,1.6.5,2.2c.3.6.8,1,1.3,1.3.6.3,1.1.4,1.8.4s1.2-.1,1.8-.4h0Z"/>
    <path class="st1" d="M237.7,273.4c.4-.8,1-1.4,1.7-1.8s1.5-.6,2.5-.6,2.2.3,3,.9,1.3,1.4,1.5,2.5h-1.4c-.2-.7-.5-1.3-1.1-1.7-.6-.4-1.2-.6-2.1-.6s-1.2.1-1.8.5c-.5.3-.9.8-1.2,1.3s-.5,1.3-.5,2.2.1,1.6.5,2.2c.3.6.7,1,1.2,1.4.5.3,1.1.5,1.8.5s1.5-.2,2.1-.6.9-1,1.1-1.7h1.4c-.2,1-.7,1.8-1.5,2.4s-1.8.9-3,.9-1.8-.2-2.5-.6-1.3-1-1.7-1.8-.6-1.6-.6-2.7.2-1.9.6-2.7h0Z"/>
    <path class="st1" d="M254,281l-4.1-4.4v4.4h-1.3v-13.3h1.3v7.9l4-4.4h1.8l-4.7,4.9,4.7,4.9h-1.7,0Z"/>
    <path class="st1" d="M258,280.3c-.7-.5-1.1-1.2-1.2-2.1h1.3c0,.5.3,1,.8,1.3s1.1.5,1.9.5,1.2-.2,1.6-.5c.4-.3.6-.7.6-1.2s-.1-.6-.3-.8c-.2-.2-.5-.4-.8-.5s-.8-.3-1.3-.4c-.7-.2-1.3-.4-1.8-.6-.5-.2-.8-.5-1.2-.9-.3-.4-.5-.9-.5-1.5s.1-.9.4-1.3c.3-.4.7-.7,1.2-1,.5-.2,1.1-.4,1.8-.4,1.1,0,1.9.3,2.6.8s1,1.3,1,2.2h-1.3c0-.6-.3-1-.7-1.4-.4-.4-1-.5-1.7-.5s-1.1.1-1.5.5c-.4.3-.6.7-.6,1.1s.1.7.4,1,.5.4.9.6c.4.1.8.3,1.4.5.7.2,1.3.4,1.7.6s.8.4,1.1.8.5.8.5,1.4c0,.5-.1,1-.4,1.4s-.7.7-1.2,1c-.5.2-1.1.4-1.8.4-1.1,0-2-.3-2.8-.8h0Z"/>
    <path class="st1" d="M266.1,280.8c-.2-.2-.3-.4-.3-.7s0-.5.3-.7c.2-.2.4-.3.7-.3s.5,0,.6.3.3.4.3.7,0,.5-.3.7c-.2.2-.4.3-.6.3s-.5,0-.7-.3Z"/>
  </g>
  <g>
    <path class="st4" d="M1019,108.4c-.4.8-1.1,1.4-2,1.9-.9.5-2,.7-3.4.7h-2.8v6.4h-3.4v-16.8h6.2c1.3,0,2.4.2,3.3.7s1.6,1.1,2,1.8c.5.8.7,1.7.7,2.7s-.2,1.7-.6,2.5h0ZM1015.5,107.7c.5-.4.7-1,.7-1.8,0-1.6-.9-2.4-2.7-2.4h-2.7v4.9h2.7c.9,0,1.6-.2,2.1-.6h0Z"/>
    <path class="st4" d="M1021.9,107.2c.5-1,1.3-1.8,2.2-2.4.9-.6,1.9-.8,3.1-.8s1.9.2,2.6.6,1.3.9,1.8,1.5v-1.9h3.4v13.3h-3.4v-1.9c-.4.6-1,1.1-1.8,1.6s-1.6.6-2.6.6-2.1-.3-3.1-.9c-.9-.6-1.7-1.4-2.2-2.4-.5-1.1-.8-2.2-.8-3.6s.3-2.5.8-3.6h0ZM1031.1,108.7c-.3-.6-.8-1-1.3-1.3-.5-.3-1.1-.5-1.8-.5s-1.2.2-1.7.5c-.5.3-1,.8-1.3,1.3s-.5,1.3-.5,2.1.2,1.5.5,2.1.8,1.1,1.3,1.4,1.1.5,1.7.5,1.2-.2,1.8-.5,1-.8,1.3-1.3c.3-.6.5-1.3.5-2.1s-.2-1.5-.5-2.1h0Z"/>
    <path class="st4" d="M1040.4,117.1c-.9-.4-1.6-.9-2.1-1.6-.5-.7-.8-1.4-.8-2.2h3.4c0,.5.3.9.8,1.3.4.3,1,.5,1.6.5s1.1-.1,1.5-.4c.4-.3.5-.6.5-1s-.2-.8-.7-1c-.4-.2-1.1-.4-2.1-.7-1-.2-1.8-.5-2.4-.7-.6-.3-1.2-.7-1.6-1.2-.5-.5-.7-1.2-.7-2.1s.2-1.4.6-2c.4-.6,1-1.1,1.8-1.4s1.7-.5,2.8-.5c1.6,0,2.8.4,3.8,1.2s1.5,1.9,1.6,3.2h-3.2c0-.5-.3-.9-.7-1.3-.4-.3-.9-.5-1.6-.5s-1.1.1-1.4.3c-.3.2-.5.5-.5.9s.2.8.7,1c.4.2,1.1.5,2.1.7,1,.2,1.8.5,2.4.7.6.3,1.2.7,1.6,1.2s.7,1.2.7,2.1c0,.8-.2,1.5-.6,2.1-.4.6-1,1.1-1.8,1.4-.8.3-1.7.5-2.8.5s-2.1-.2-2.9-.6h0Z"/>
    <path class="st4" d="M1055.2,106.9v6.4c0,.4.1.8.3,1,.2.2.6.3,1.1.3h1.6v2.8h-2.1c-2.8,0-4.2-1.4-4.2-4.1v-6.4h-1.6v-2.8h1.6v-3.3h3.4v3.3h3v2.8h-3,0Z"/>
    <path class="st4" d="M1079.7,100.7l-5.7,10.9v5.8h-3.4v-5.8l-5.7-10.9h3.8l3.6,7.7,3.6-7.7s3.7,0,3.7,0Z"/>
    <path class="st4" d="M1093.9,111.8h-9.7c0,1,.4,1.7,1,2.3s1.3.8,2.2.8c1.2,0,2.1-.5,2.7-1.6h3.6c-.4,1.3-1.1,2.3-2.2,3.2-1.1.8-2.4,1.2-4,1.2s-2.4-.3-3.4-.8c-1-.6-1.8-1.4-2.4-2.4s-.8-2.2-.8-3.6.3-2.6.8-3.6c.6-1,1.3-1.8,2.3-2.4,1-.6,2.2-.8,3.5-.8s2.4.3,3.4.8c1,.5,1.8,1.3,2.3,2.3.6,1,.8,2.2.8,3.4s0,.9,0,1.3h0ZM1090.5,109.6c0-.9-.3-1.6-.9-2.1-.6-.5-1.3-.8-2.2-.8s-1.5.2-2.1.8c-.6.5-.9,1.2-1,2.1h6.3,0Z"/>
    <path class="st4" d="M1096.4,107.2c.5-1,1.3-1.8,2.2-2.4.9-.6,1.9-.8,3.1-.8s1.9.2,2.6.6,1.3.9,1.8,1.5v-1.9h3.4v13.3h-3.4v-1.9c-.4.6-1,1.1-1.8,1.6s-1.6.6-2.6.6-2.1-.3-3.1-.9c-.9-.6-1.7-1.4-2.2-2.4-.5-1.1-.8-2.2-.8-3.6s.3-2.5.8-3.6h0ZM1105.5,108.7c-.3-.6-.8-1-1.3-1.3-.5-.3-1.1-.5-1.8-.5s-1.2.2-1.7.5c-.5.3-1,.8-1.3,1.3s-.5,1.3-.5,2.1.2,1.5.5,2.1.8,1.1,1.3,1.4,1.1.5,1.7.5,1.2-.2,1.8-.5,1-.8,1.3-1.3c.3-.6.5-1.3.5-2.1s-.2-1.5-.5-2.1h0Z"/>
    <path class="st4" d="M1117.7,104.6c.7-.4,1.5-.6,2.4-.6v3.5h-.9c-1.1,0-1.8.2-2.4.7-.5.5-.8,1.4-.8,2.6v6.6h-3.4v-13.3h3.4v2.1c.4-.7,1-1.3,1.7-1.7h0Z"/>
    <path class="st4" d="M1139.7,108.4c-.4.8-1.1,1.4-2,1.9s-2,.7-3.4.7h-2.8v6.4h-3.4v-16.8h6.2c1.3,0,2.4.2,3.3.7s1.6,1.1,2.1,1.8c.5.8.7,1.7.7,2.7s-.2,1.7-.6,2.5h0ZM1136.2,107.7c.4-.4.7-1,.7-1.8,0-1.6-.9-2.4-2.7-2.4h-2.7v4.9h2.7c.9,0,1.6-.2,2.1-.6h0Z"/>
    <path class="st4" d="M1142.6,107.2c.5-1,1.3-1.8,2.2-2.4.9-.6,1.9-.8,3.1-.8s1.9.2,2.6.6,1.3.9,1.8,1.5v-1.9h3.4v13.3h-3.4v-1.9c-.4.6-1,1.1-1.8,1.6s-1.6.6-2.6.6-2.1-.3-3.1-.9c-.9-.6-1.7-1.4-2.2-2.4-.5-1.1-.8-2.2-.8-3.6s.3-2.5.8-3.6h0ZM1151.8,108.7c-.3-.6-.8-1-1.3-1.3-.5-.3-1.1-.5-1.8-.5s-1.2.2-1.7.5c-.5.3-1,.8-1.3,1.3s-.5,1.3-.5,2.1.2,1.5.5,2.1.8,1.1,1.3,1.4,1.1.5,1.7.5,1.2-.2,1.8-.5,1-.8,1.3-1.3c.3-.6.5-1.3.5-2.1s-.2-1.5-.5-2.1h0Z"/>
    <path class="st4" d="M1164.1,104.6c.8-.4,1.6-.6,2.6-.6s2.2.3,3.1.8c.9.6,1.7,1.4,2.2,2.4.5,1,.8,2.2.8,3.6s-.3,2.6-.8,3.6c-.5,1.1-1.3,1.9-2.2,2.4s-1.9.9-3.1.9-1.8-.2-2.6-.6-1.3-.9-1.8-1.5v8.2h-3.4v-19.6h3.4v1.9c.4-.6,1-1.1,1.8-1.5h0ZM1168.9,108.7c-.3-.6-.8-1-1.3-1.3s-1.1-.5-1.7-.5-1.2.2-1.7.5-1,.8-1.3,1.4-.5,1.3-.5,2.1.2,1.5.5,2.1.8,1,1.3,1.4,1.1.5,1.7.5,1.2-.2,1.7-.5,1-.8,1.3-1.4c.3-.6.5-1.3.5-2.1s-.2-1.5-.5-2.1h0Z"/>
    <path class="st4" d="M1187.5,111.8h-9.7c0,1,.4,1.7,1,2.3s1.3.8,2.2.8c1.2,0,2.1-.5,2.7-1.6h3.6c-.4,1.3-1.1,2.3-2.2,3.2-1.1.8-2.4,1.2-4,1.2s-2.4-.3-3.4-.8c-1-.6-1.8-1.4-2.4-2.4s-.8-2.2-.8-3.6.3-2.6.8-3.6c.6-1,1.3-1.8,2.3-2.4,1-.6,2.2-.8,3.5-.8s2.4.3,3.4.8c1,.5,1.8,1.3,2.3,2.3.6,1,.8,2.2.8,3.4s0,.9,0,1.3h0ZM1184.1,109.6c0-.9-.3-1.6-.9-2.1-.6-.5-1.3-.8-2.2-.8s-1.5.2-2.1.8c-.6.5-.9,1.2-1,2.1h6.3,0Z"/>
    <path class="st4" d="M1195.1,104.6c.7-.4,1.5-.6,2.4-.6v3.5h-.9c-1.1,0-1.8.2-2.4.7-.5.5-.8,1.4-.8,2.6v6.6h-3.4v-13.3h3.4v2.1c.4-.7,1-1.3,1.7-1.7h0Z"/>
    <path class="st4" d="M1201.9,117.1c-.9-.4-1.6-.9-2.1-1.6-.5-.7-.8-1.4-.8-2.2h3.4c0,.5.3.9.8,1.3.4.3,1,.5,1.6.5s1.1-.1,1.5-.4c.4-.3.5-.6.5-1s-.2-.8-.7-1c-.4-.2-1.1-.4-2.1-.7-1-.2-1.8-.5-2.4-.7-.6-.3-1.2-.7-1.6-1.2-.5-.5-.7-1.2-.7-2.1s.2-1.4.6-2c.4-.6,1-1.1,1.8-1.4s1.7-.5,2.8-.5c1.6,0,2.8.4,3.8,1.2s1.5,1.9,1.6,3.2h-3.2c0-.5-.3-.9-.7-1.3-.4-.3-.9-.5-1.6-.5s-1.1.1-1.4.3c-.3.2-.5.5-.5.9s.2.8.7,1c.4.2,1.1.5,2.1.7,1,.2,1.8.5,2.4.7.6.3,1.2.7,1.6,1.2s.7,1.2.7,2.1c0,.8-.2,1.5-.6,2.1-.4.6-1,1.1-1.8,1.4-.8.3-1.7.5-2.8.5s-2.1-.2-2.9-.6h0Z"/>
    <path class="st4" d="M1018.8,136.7v2.7h-4.5v14h-3.4v-14h-4.5v-2.7h12.3,0Z"/>
    <path class="st4" d="M1023.7,152.9c-1-.6-1.8-1.4-2.4-2.4-.6-1-.9-2.2-.9-3.6s.3-2.6.9-3.6c.6-1,1.4-1.8,2.5-2.4,1-.6,2.2-.9,3.5-.9s2.4.3,3.5.9,1.9,1.4,2.5,2.4c.6,1,.9,2.2.9,3.6s-.3,2.6-.9,3.6c-.6,1-1.4,1.8-2.5,2.4s-2.2.9-3.5.9-2.4-.3-3.5-.9h0ZM1028.8,150.3c.5-.3,1-.7,1.3-1.3.3-.6.5-1.3.5-2.2,0-1.3-.3-2.2-1-2.9-.7-.7-1.5-1-2.4-1s-1.8.3-2.4,1c-.7.7-1,1.6-1,2.9s.3,2.2.9,2.9,1.4,1,2.4,1,1.2-.1,1.7-.4h0Z"/>
    <path class="st4" d="M1041.7,140.6c.8-.4,1.6-.6,2.6-.6s2.2.3,3.1.8c.9.6,1.7,1.4,2.2,2.4.5,1,.8,2.2.8,3.6s-.3,2.6-.8,3.6c-.5,1.1-1.3,1.9-2.2,2.4s-1.9.9-3.1.9-1.8-.2-2.6-.6c-.7-.4-1.3-.9-1.8-1.5v8.2h-3.4v-19.6h3.4v1.9c.4-.6,1-1.1,1.8-1.5h0ZM1046.4,144.7c-.3-.6-.8-1-1.3-1.3s-1.1-.5-1.7-.5-1.2.2-1.7.5-1,.8-1.3,1.4-.5,1.3-.5,2.1.2,1.5.5,2.1.8,1,1.3,1.4,1.1.5,1.7.5,1.2-.2,1.7-.5c.5-.3,1-.8,1.3-1.4.3-.6.5-1.3.5-2.1s-.2-1.5-.5-2.1h0Z"/>
    <path class="st4" d="M1053,138c-.4-.4-.6-.8-.6-1.4s.2-1,.6-1.4.9-.6,1.5-.6,1.1.2,1.5.6c.4.4.6.8.6,1.4s-.2,1-.6,1.4c-.4.4-.9.6-1.5.6s-1.1-.2-1.5-.6ZM1056.2,140.2v13.3h-3.4v-13.3h3.4Z"/>
    <path class="st4" d="M1059.5,143.2c.6-1,1.3-1.8,2.3-2.4,1-.6,2.1-.9,3.4-.9s3,.4,4.1,1.2,1.8,2,2.2,3.5h-3.6c-.2-.6-.5-1-1-1.4-.5-.3-1-.5-1.7-.5-1,0-1.7.4-2.3,1-.6.7-.8,1.7-.8,3s.3,2.2.8,2.9c.6.7,1.3,1,2.3,1,1.4,0,2.2-.6,2.7-1.8h3.6c-.4,1.4-1.1,2.6-2.2,3.4-1.1.9-2.4,1.3-4.1,1.3s-2.4-.3-3.4-.9-1.8-1.4-2.3-2.4c-.6-1-.8-2.2-.8-3.6s.3-2.6.8-3.6h0Z"/>
    <path class="st4" d="M1084.2,143.5v2.8h-10.2v-2.8h10.2Z"/>
    <path class="st4" d="M1106.3,140.2l-3.9,13.3h-3.6l-2.4-9.3-2.4,9.3h-3.7l-3.9-13.3h3.4l2.3,10.1,2.5-10.1h3.6l2.5,10.1,2.3-10.1h3.2,0Z"/>
    <path class="st4" d="M1108.4,138c-.4-.4-.6-.8-.6-1.4s.2-1,.6-1.4.9-.6,1.5-.6,1.1.2,1.5.6c.4.4.6.8.6,1.4s-.2,1-.6,1.4c-.4.4-.9.6-1.5.6s-1.1-.2-1.5-.6ZM1111.5,140.2v13.3h-3.4v-13.3h3.4Z"/>
    <path class="st4" d="M1117,153.1c-.9-.4-1.6-.9-2.1-1.6-.5-.7-.8-1.4-.8-2.2h3.4c0,.5.3.9.8,1.3.4.3,1,.5,1.6.5s1.1-.1,1.5-.4c.4-.3.5-.6.5-1s-.2-.8-.7-1c-.4-.2-1.1-.4-2.1-.7-1-.2-1.8-.5-2.4-.7-.6-.3-1.2-.6-1.6-1.2-.5-.5-.7-1.2-.7-2.1s.2-1.4.6-2c.4-.6,1-1.1,1.8-1.4s1.7-.5,2.8-.5c1.6,0,2.8.4,3.8,1.2s1.5,1.9,1.6,3.2h-3.2c0-.5-.3-.9-.7-1.3s-.9-.5-1.6-.5-1.1.1-1.4.3c-.3.2-.5.5-.5.9s.2.8.7,1c.4.2,1.1.5,2.1.7,1,.2,1.8.5,2.4.7.6.3,1.2.6,1.6,1.2.5.5.7,1.2.7,2.1,0,.8-.2,1.5-.6,2.1-.4.6-1,1.1-1.8,1.4-.8.3-1.7.5-2.8.5s-2.1-.2-2.9-.6h0Z"/>
    <path class="st4" d="M1140.2,147.8h-9.7c0,1,.4,1.7,1,2.3s1.3.8,2.2.8c1.2,0,2.1-.5,2.7-1.6h3.6c-.4,1.3-1.1,2.3-2.2,3.2-1.1.8-2.4,1.2-4,1.2s-2.4-.3-3.4-.9c-1-.6-1.8-1.4-2.4-2.4-.6-1-.8-2.2-.8-3.6s.3-2.6.8-3.6c.6-1,1.3-1.8,2.3-2.4s2.2-.8,3.5-.8,2.4.3,3.4.8c1,.5,1.8,1.3,2.3,2.3.6,1,.8,2.1.8,3.4s0,.9,0,1.3h0ZM1136.8,145.6c0-.9-.3-1.6-.9-2.1s-1.3-.8-2.2-.8-1.5.2-2.1.8c-.6.5-.9,1.2-1,2.1h6.3,0Z"/>
    <path class="st4" d="M1159.8,136.7v2.7h-4.5v14h-3.4v-14h-4.5v-2.7h12.3,0Z"/>
    <path class="st4" d="M1174.6,147.8h-9.7c0,1,.4,1.7,1,2.3s1.3.8,2.2.8c1.2,0,2.1-.5,2.7-1.6h3.6c-.4,1.3-1.1,2.3-2.2,3.2-1.1.8-2.4,1.2-4,1.2s-2.4-.3-3.4-.9c-1-.6-1.8-1.4-2.4-2.4-.6-1-.8-2.2-.8-3.6s.3-2.6.8-3.6c.6-1,1.3-1.8,2.3-2.4s2.2-.8,3.5-.8,2.4.3,3.4.8c1,.5,1.8,1.3,2.3,2.3.6,1,.8,2.1.8,3.4s0,.9,0,1.3h0ZM1171.2,145.6c0-.9-.3-1.6-.9-2.1s-1.3-.8-2.2-.8-1.5.2-2.1.8c-.6.5-.9,1.2-1,2.1h6.3,0Z"/>
    <path class="st4" d="M1179.3,153.1c-.9-.4-1.6-.9-2.1-1.6-.5-.7-.8-1.4-.8-2.2h3.4c0,.5.3.9.8,1.3.4.3,1,.5,1.6.5s1.1-.1,1.5-.4c.4-.3.5-.6.5-1s-.2-.8-.7-1c-.4-.2-1.1-.4-2.1-.7-1-.2-1.8-.5-2.4-.7-.6-.3-1.2-.6-1.6-1.2-.5-.5-.7-1.2-.7-2.1s.2-1.4.6-2c.4-.6,1-1.1,1.8-1.4s1.7-.5,2.8-.5c1.6,0,2.8.4,3.8,1.2s1.5,1.9,1.6,3.2h-3.2c0-.5-.3-.9-.7-1.3s-.9-.5-1.6-.5-1.1.1-1.4.3c-.3.2-.5.5-.5.9s.2.8.7,1c.4.2,1.1.5,2.1.7,1,.2,1.8.5,2.4.7.6.3,1.2.6,1.6,1.2.5.5.7,1.2.7,2.1,0,.8-.2,1.5-.6,2.1-.4.6-1,1.1-1.8,1.4-.8.3-1.7.5-2.8.5s-2.1-.2-2.9-.6h0Z"/>
    <path class="st4" d="M1194.1,142.9v6.4c0,.4.1.8.3,1,.2.2.6.3,1.1.3h1.6v2.8h-2.1c-2.8,0-4.2-1.4-4.2-4.1v-6.4h-1.6v-2.8h1.6v-3.3h3.4v3.3h3v2.8h-3,0Z"/>
    <path class="st4" d="M1010,189.1c-.9-.4-1.7-1-2.2-1.7s-.8-1.6-.8-2.7h3.6c0,.7.3,1.2.7,1.6.4.4,1,.6,1.8.6s1.4-.2,1.8-.6c.5-.4.7-.9.7-1.5s-.2-.9-.5-1.2c-.3-.3-.7-.6-1.1-.8s-1.1-.4-1.9-.6c-1.1-.3-2-.6-2.7-.9s-1.3-.8-1.8-1.4c-.5-.6-.7-1.5-.7-2.5s.2-1.9.7-2.6,1.2-1.3,2.1-1.7,1.9-.6,3.1-.6c1.7,0,3.1.4,4.2,1.3s1.7,2,1.8,3.5h-3.7c0-.6-.3-1.1-.7-1.4-.5-.4-1.1-.6-1.8-.6s-1.2.2-1.6.5c-.4.3-.6.8-.6,1.5s.2.8.4,1.1c.3.3.7.5,1.1.7.4.2,1.1.4,1.9.6,1.1.3,2,.6,2.7,1,.7.3,1.3.8,1.8,1.4s.7,1.5.7,2.5-.2,1.7-.7,2.5c-.5.8-1.1,1.4-2,1.8s-2,.7-3.2.7-2.2-.2-3.2-.6h0Z"/>
    <path class="st4" d="M1034.3,183.8h-9.7c0,1,.4,1.7,1,2.3s1.3.8,2.2.8c1.2,0,2.1-.5,2.7-1.6h3.6c-.4,1.3-1.1,2.3-2.2,3.2s-2.4,1.2-4,1.2-2.4-.3-3.4-.9c-1-.6-1.8-1.4-2.4-2.4-.6-1-.8-2.2-.8-3.6s.3-2.6.8-3.6,1.3-1.8,2.4-2.4,2.2-.8,3.5-.8,2.4.3,3.4.8c1,.5,1.8,1.3,2.3,2.3.6,1,.8,2.1.8,3.4s0,.9,0,1.3h0ZM1030.9,181.6c0-.9-.3-1.6-.9-2.1s-1.3-.8-2.2-.8-1.5.2-2.1.8c-.6.5-.9,1.2-1,2.1h6.3,0Z"/>
    <path class="st4" d="M1036.8,179.2c.6-1,1.3-1.8,2.3-2.4,1-.6,2.1-.9,3.4-.9s3,.4,4.1,1.2,1.8,2,2.2,3.5h-3.6c-.2-.6-.5-1-1-1.4-.5-.3-1-.5-1.7-.5-1,0-1.7.4-2.3,1-.6.7-.8,1.7-.8,3s.3,2.2.8,2.9c.6.7,1.3,1,2.3,1,1.4,0,2.2-.6,2.7-1.8h3.6c-.4,1.4-1.1,2.6-2.2,3.4-1.1.9-2.4,1.3-4.1,1.3s-2.4-.3-3.4-.9-1.8-1.4-2.3-2.4c-.6-1-.8-2.2-.8-3.6s.3-2.6.8-3.6h0Z"/>
    <path class="st4" d="M1055.2,178.9v6.4c0,.4.1.8.3,1,.2.2.6.3,1.1.3h1.6v2.8h-2.1c-2.8,0-4.2-1.4-4.2-4.1v-6.4h-1.6v-2.8h1.6v-3.3h3.4v3.3h3v2.8h-3,0Z"/>
    <path class="st4" d="M1060.8,174c-.4-.4-.6-.8-.6-1.4s.2-1,.6-1.4.9-.6,1.5-.6,1.1.2,1.5.6c.4.4.6.8.6,1.4s-.2,1-.6,1.4c-.4.4-.9.6-1.5.6s-1.1-.2-1.5-.6ZM1063.9,176.2v13.3h-3.4v-13.3h3.4Z"/>
    <path class="st4" d="M1069.7,188.9c-1-.6-1.8-1.4-2.4-2.4-.6-1-.9-2.2-.9-3.6s.3-2.6.9-3.6c.6-1,1.4-1.8,2.5-2.4,1-.6,2.2-.9,3.5-.9s2.4.3,3.5.9,1.9,1.4,2.5,2.4c.6,1,.9,2.2.9,3.6s-.3,2.6-.9,3.6c-.6,1-1.4,1.8-2.5,2.4s-2.2.9-3.5.9-2.4-.3-3.5-.9h0ZM1074.9,186.3c.5-.3,1-.7,1.3-1.3.3-.6.5-1.3.5-2.2,0-1.3-.3-2.2-1-2.9-.7-.7-1.5-1-2.4-1s-1.8.3-2.4,1c-.7.7-1,1.6-1,2.9s.3,2.2.9,2.9,1.4,1,2.4,1,1.2-.1,1.7-.4h0Z"/>
    <path class="st4" d="M1093.8,177.5c1,1,1.5,2.4,1.5,4.2v7.8h-3.4v-7.3c0-1.1-.3-1.9-.8-2.4s-1.2-.9-2.2-.9-1.7.3-2.2.9c-.5.6-.8,1.4-.8,2.4v7.3h-3.4v-13.3h3.4v1.7c.4-.6,1-1,1.7-1.4s1.5-.5,2.3-.5c1.6,0,2.9.5,3.8,1.5h0Z"/>
    <path class="st4" d="M1098.3,179.2c.5-1,1.3-1.8,2.2-2.4s1.9-.8,3.1-.8,1.9.2,2.6.6c.7.4,1.3.9,1.8,1.5v-1.9h3.4v13.3h-3.4v-1.9c-.4.6-1,1.1-1.8,1.6s-1.6.6-2.6.6-2.1-.3-3.1-.9c-.9-.6-1.7-1.4-2.2-2.4s-.8-2.2-.8-3.6.3-2.5.8-3.6h0ZM1107.5,180.7c-.3-.6-.8-1-1.3-1.3-.5-.3-1.1-.5-1.8-.5s-1.2.1-1.7.5c-.5.3-1,.8-1.3,1.3s-.5,1.3-.5,2.1.2,1.5.5,2.1.8,1.1,1.3,1.4,1.1.5,1.7.5,1.2-.2,1.8-.5,1-.8,1.3-1.3c.3-.6.5-1.3.5-2.1s-.2-1.5-.5-2.1h0Z"/>
    <path class="st4" d="M1118,171.7v17.8h-3.4v-17.8h3.4Z"/>
    <path class="st4" d="M1138.5,172.7v2.7h-4.5v14h-3.4v-14h-4.5v-2.7h12.3,0Z"/>
    <path class="st4" d="M1153.2,183.8h-9.7c0,1,.4,1.7,1,2.3s1.3.8,2.2.8c1.2,0,2.1-.5,2.7-1.6h3.6c-.4,1.3-1.1,2.3-2.2,3.2s-2.4,1.2-4,1.2-2.4-.3-3.4-.9c-1-.6-1.8-1.4-2.4-2.4-.6-1-.8-2.2-.8-3.6s.3-2.6.8-3.6c.6-1,1.3-1.8,2.3-2.4s2.2-.8,3.5-.8,2.4.3,3.4.8c1,.5,1.8,1.3,2.3,2.3.6,1,.8,2.1.8,3.4s0,.9,0,1.3h0ZM1149.8,181.6c0-.9-.3-1.6-.9-2.1s-1.3-.8-2.2-.8-1.5.2-2.1.8c-.6.5-.9,1.2-1,2.1h6.3,0Z"/>
    <path class="st4" d="M1157.9,189.1c-.9-.4-1.6-.9-2.1-1.6s-.8-1.4-.8-2.2h3.4c0,.5.3.9.8,1.3.4.3,1,.5,1.6.5s1.1-.1,1.5-.4c.4-.3.5-.6.5-1s-.2-.8-.7-1c-.4-.2-1.1-.4-2.1-.7-1-.2-1.8-.5-2.4-.7-.6-.3-1.2-.6-1.6-1.2-.5-.5-.7-1.2-.7-2.1s.2-1.4.6-2c.4-.6,1-1.1,1.8-1.4s1.7-.5,2.8-.5c1.6,0,2.8.4,3.8,1.2s1.5,1.9,1.6,3.2h-3.2c0-.5-.3-.9-.7-1.3s-.9-.5-1.6-.5-1.1.1-1.4.3c-.3.2-.5.5-.5.9s.2.8.7,1c.4.2,1.1.5,2.1.7,1,.2,1.8.5,2.4.7.6.3,1.2.6,1.6,1.2.5.5.7,1.2.7,2.1,0,.8-.2,1.5-.6,2.1-.4.6-1,1.1-1.8,1.4s-1.7.5-2.8.5-2.1-.2-2.9-.6h0Z"/>
    <path class="st4" d="M1172.7,178.9v6.4c0,.4.1.8.3,1,.2.2.6.3,1.1.3h1.6v2.8h-2.1c-2.8,0-4.2-1.4-4.2-4.1v-6.4h-1.6v-2.8h1.6v-3.3h3.4v3.3h3v2.8h-3,0Z"/>
    <path class="st4" d="M1180.3,189.1c-.9-.4-1.6-.9-2.1-1.6s-.8-1.4-.8-2.2h3.4c0,.5.3.9.8,1.3.4.3,1,.5,1.6.5s1.1-.1,1.5-.4c.4-.3.5-.6.5-1s-.2-.8-.7-1c-.4-.2-1.1-.4-2.1-.7-1-.2-1.8-.5-2.4-.7-.6-.3-1.2-.6-1.6-1.2-.5-.5-.7-1.2-.7-2.1s.2-1.4.6-2c.4-.6,1-1.1,1.8-1.4s1.7-.5,2.8-.5c1.6,0,2.8.4,3.8,1.2s1.5,1.9,1.6,3.2h-3.2c0-.5-.3-.9-.7-1.3s-.9-.5-1.6-.5-1.1.1-1.4.3c-.3.2-.5.5-.5.9s.2.8.7,1c.4.2,1.1.5,2.1.7,1,.2,1.8.5,2.4.7.6.3,1.2.6,1.6,1.2.5.5.7,1.2.7,2.1,0,.8-.2,1.5-.6,2.1-.4.6-1,1.1-1.8,1.4s-1.7.5-2.8.5-2.1-.2-2.9-.6h0Z"/>
    <path class="st4" d="M1008.9,210.5c-.6-1.7-.9-3.6-.9-5.6s.3-4,1-5.8,1.7-3.3,3-4.5h2.1v.2c-1.4,1.3-2.4,2.8-3.1,4.6-.7,1.8-1,3.6-1,5.5s.3,3.6,1,5.3c.7,1.7,1.6,3.2,2.8,4.4v.2h-2.1c-1.2-1.1-2.1-2.6-2.7-4.3h0Z"/>
    <path class="st4" d="M1025.6,213.8l-2.2-2.4c-.5.2-1.1.2-1.8.2-1.2,0-2.2-.3-3.2-.8-1-.6-1.8-1.3-2.3-2.3s-.9-2.1-.9-3.3.3-2.3.9-3.3c.6-1,1.3-1.7,2.3-2.3s2-.8,3.2-.8,2.2.3,3.2.8c1,.6,1.8,1.3,2.3,2.3.6,1,.8,2.1.8,3.3s-.2,2.2-.8,3.1-1.2,1.7-2.1,2.2l3,3.2h-2.6ZM1017.9,207.6c.4.7.9,1.2,1.5,1.6.7.4,1.4.6,2.2.6s1.6-.2,2.2-.6c.7-.4,1.2-.9,1.5-1.6s.6-1.5.6-2.4-.2-1.7-.6-2.4-.9-1.2-1.5-1.6c-.7-.4-1.4-.6-2.2-.6s-1.6.2-2.2.6c-.7.4-1.2.9-1.5,1.6-.4.7-.5,1.5-.5,2.4s.2,1.7.5,2.4Z"/>
    <path class="st4" d="M1037.6,208.9h-5.2l-.9,2.6h-2.1l4.5-12.5h2.4l4.5,12.5h-2.2l-.9-2.6h0ZM1037.1,207.2l-2-5.8-2.1,5.8h4.1,0Z"/>
    <path class="st4" d="M1044.9,209l-2.2,5h-1.3l1.3-5h2.2Z"/>
    <path class="st4" d="M1053.4,209.8h4.2v1.7h-6.3v-12.5h2.1v10.9h0Z"/>
    <path class="st4" d="M1065.9,211.5l-2.9-5h-1.6v5h-2.1v-12.5h4.3c1,0,1.8.2,2.4.5s1.2.8,1.5,1.4c.3.6.5,1.2.5,1.9s-.2,1.6-.7,2.2c-.5.7-1.2,1.1-2.2,1.4l3.1,5.2h-2.4ZM1061.4,204.8h2.3c.8,0,1.3-.2,1.7-.6.4-.4.6-.9.6-1.6s-.2-1.2-.6-1.5-1-.6-1.8-.6h-2.3v4.2h0Z"/>
    <path class="st4" d="M1078.3,199.7c1,.5,1.8,1.2,2.3,2.2s.8,2.1.8,3.3-.3,2.4-.8,3.3c-.6.9-1.3,1.6-2.3,2.1s-2.2.8-3.5.8h-4.1v-12.5h4.1c1.3,0,2.5.2,3.5.8h0ZM1078.2,208.6c.8-.8,1.2-1.9,1.2-3.4s-.4-2.6-1.2-3.4c-.8-.8-1.9-1.2-3.4-1.2h-2v9.2h2c1.5,0,2.6-.4,3.4-1.2Z"/>
    <path class="st4" d="M1085.6,199v12.5h-2.1v-12.5h2.1Z"/>
    <path class="st4" d="M1090.5,209l-2.2,5h-1.3l1.3-5h2.2Z"/>
    <path class="st4" d="M1107.8,199l-4.7,12.5h-2.4l-4.7-12.5h2.2l3.7,10.4,3.7-10.4h2.2Z"/>
    <path class="st4" d="M1117,208.9h-5.2l-.9,2.6h-2.1l4.5-12.5h2.4l4.5,12.5h-2.2l-.9-2.6h0ZM1116.4,207.2l-2-5.8-2.1,5.8h4.1,0Z"/>
    <path class="st4" d="M1128.5,211.5l-2.9-5h-1.6v5h-2.1v-12.5h4.3c1,0,1.8.2,2.4.5s1.2.8,1.5,1.4c.3.6.5,1.2.5,1.9s-.2,1.6-.7,2.2c-.5.7-1.2,1.1-2.2,1.4l3.1,5.2h-2.4ZM1124.1,204.8h2.3c.8,0,1.3-.2,1.7-.6.4-.4.6-.9.6-1.6s-.2-1.2-.6-1.5-1-.6-1.8-.6h-2.3v4.2h0Z"/>
    <path class="st4" d="M1133.6,201.9c.6-1,1.3-1.7,2.3-2.3s2.1-.8,3.2-.8,2.5.3,3.6,1,1.8,1.6,2.3,2.8h-2.5c-.3-.7-.8-1.1-1.3-1.5s-1.2-.5-2-.5-1.6.2-2.2.6c-.7.4-1.2.9-1.5,1.6-.4.7-.6,1.5-.6,2.4s.2,1.7.6,2.4.9,1.2,1.5,1.6,1.4.6,2.2.6,1.4-.2,2-.5,1-.8,1.3-1.5h2.5c-.5,1.2-1.2,2.1-2.3,2.8-1,.6-2.2,1-3.6,1s-2.2-.3-3.2-.8-1.7-1.3-2.3-2.3c-.6-1-.9-2.1-.9-3.3s.3-2.3.9-3.3h0Z"/>
    <path class="st4" d="M1146.8,214.8v-.2c1.2-1.3,2.2-2.8,2.8-4.4.7-1.7,1-3.4,1-5.3s-.3-3.7-1-5.5c-.7-1.8-1.7-3.3-3.1-4.6v-.2h2.1c1.3,1.2,2.3,2.7,3,4.5s1,3.7,1,5.8-.3,3.9-.9,5.6-1.5,3.2-2.7,4.3h-2.1Z"/>
  </g>
  <path class="st1" d="M998.2,110.6c-.3-.4-.6-.9-.9-1.3,0,0,0-.2,0-.3.3-.4.6-.9.8-1.3.3-.5.2-1-.4-1.2-.5-.2-1-.4-1.5-.6,0,0-.1,0-.1-.2,0-.5,0-1.1,0-1.6,0-.6-.5-.9-1-.7-.5.1-1,.3-1.5.4-.1,0-.2,0-.3,0-.3-.4-.7-.8-1-1.2-.3-.4-.9-.4-1.3,0-.3.4-.7.8-1,1.2,0,.1-.2.1-.3,0-.5-.1-1-.3-1.3-.4-.7-.2-1.1.1-1.1.7,0,.5,0,1.1,0,1.6,0,.1,0,.2-.1.2-.5.2-1,.4-1.5.6-.5.2-.7.7-.4,1.2.3.4.6.9.9,1.3,0,0,0,.2,0,.3-.3.4-.6.9-.9,1.4-.3.4,0,.9.4,1.1.5.2,1,.4,1.5.6.1,0,.1,0,.1.2,0,.5,0,1,0,1.5s.5,1,1.1.8c.5-.2,1-.3,1.5-.4,0,0,.2,0,.2,0,.3.4.7.8,1,1.2.4.4.9.4,1.3,0,.3-.4.7-.8,1-1.2,0,0,.1-.1.2,0,.5.1,1,.3,1.5.4.5.1,1-.2,1-.7,0-.5,0-1.1,0-1.6,0-.1,0-.2.2-.2.5-.2,1-.4,1.5-.6.5-.3.7-.8.4-1.2h0ZM994.4,108l-3.2,3.2c0,0-.2.1-.3.2,0,0,0,0-.1,0-.1,0-.3,0-.4-.2l-1.3-1.3c-.2-.2-.2-.6,0-.8.2-.2.6-.2.8,0l.9.9,2.8-2.8c.2-.2.6-.2.8,0,.3.2.3.6,0,.8h0Z"/>
  <path class="st1" d="M998.2,147.1c-.3-.4-.6-.9-.9-1.3,0-.1,0-.2,0-.3.3-.4.6-.9.8-1.3.3-.5.2-1-.4-1.2-.5-.2-1-.4-1.5-.6,0,0-.1-.1-.1-.2,0-.5,0-1.1,0-1.6,0-.6-.5-.9-1-.7-.5.1-1,.3-1.5.4-.1,0-.2,0-.3,0-.3-.4-.7-.8-1-1.2-.3-.4-.9-.4-1.3,0-.3.4-.7.8-1,1.2,0,.1-.2.1-.3.1-.5-.1-1-.3-1.3-.4-.7-.2-1.1.1-1.1.7,0,.5,0,1.1,0,1.6,0,.1,0,.2-.1.2-.5.2-1,.4-1.5.6-.5.2-.7.7-.4,1.2.3.4.6.9.9,1.3,0,.1,0,.2,0,.3-.3.4-.6.9-.9,1.4-.3.4,0,.9.4,1.1.5.2,1,.4,1.5.6.1,0,.1.1.1.2,0,.5,0,1,0,1.5s.5,1,1.1.8c.5-.2,1-.3,1.5-.4,0,0,.2,0,.2,0,.3.4.7.8,1,1.2.4.4.9.4,1.3,0,.3-.4.7-.8,1-1.2,0,0,.1-.1.2,0,.5.1,1,.3,1.5.4.5.1,1-.2,1-.7,0-.5,0-1.1,0-1.6,0-.1,0-.2.2-.2.5-.2,1-.4,1.5-.6.5-.3.7-.8.4-1.2h0ZM994.4,144.5l-3.2,3.2c0,0-.2.1-.3.2,0,0,0,0-.1,0-.1,0-.3,0-.4-.2l-1.3-1.3c-.2-.2-.2-.6,0-.8.2-.2.6-.2.8,0l.9.9,2.8-2.8c.2-.2.6-.2.8,0,.3.2.3.6,0,.8h0Z"/>
  <path class="st1" d="M998.2,182.3c-.3-.4-.6-.9-.9-1.3,0-.1,0-.2,0-.3.3-.4.6-.9.8-1.3.3-.5.2-1-.4-1.2-.5-.2-1-.4-1.5-.6,0,0-.1-.1-.1-.2,0-.5,0-1.1,0-1.6,0-.6-.5-.9-1-.7-.5.1-1,.3-1.5.4-.1,0-.2,0-.3,0-.3-.4-.7-.8-1-1.2-.3-.4-.9-.4-1.3,0-.3.4-.7.8-1,1.2,0,.1-.2.1-.3.1-.5-.1-1-.3-1.3-.4-.7-.2-1.1.1-1.1.7,0,.5,0,1.1,0,1.6,0,.1,0,.2-.1.2-.5.2-1,.4-1.5.6-.5.2-.7.7-.4,1.2.3.4.6.9.9,1.3,0,.1,0,.2,0,.3-.3.4-.6.9-.9,1.4-.3.4,0,.9.4,1.1.5.2,1,.4,1.5.6.1,0,.1.1.1.2,0,.5,0,1,0,1.5s.5,1,1.1.8c.5-.2,1-.3,1.5-.4,0,0,.2,0,.2,0,.3.4.7.8,1,1.2.4.4.9.4,1.3,0,.3-.4.7-.8,1-1.2,0,0,.1-.1.2,0,.5.1,1,.3,1.5.4.5.1,1-.2,1-.7,0-.5,0-1.1,0-1.6,0-.1,0-.2.2-.2.5-.2,1-.4,1.5-.6.5-.3.7-.8.4-1.2h0ZM994.4,179.6l-3.2,3.2c0,0-.2.1-.3.2,0,0,0,0-.1,0-.1,0-.3,0-.4-.2l-1.3-1.3c-.2-.2-.2-.6,0-.8.2-.2.6-.2.8,0l.9.9,2.8-2.8c.2-.2.6-.2.8,0,.3.2.3.6,0,.8h0Z"/>
  <path class="st2" d="M998.2,268.4c-.3-.5-.6-.9-.9-1.3,0-.1,0-.2,0-.3.3-.4.6-.9.8-1.3.3-.5.2-1-.4-1.2-.5-.2-1-.4-1.5-.5,0,0-.1-.1-.1-.2,0-.5,0-1.1,0-1.6,0-.6-.5-.9-1-.7-.5.1-1,.3-1.5.4-.1,0-.2,0-.3,0-.3-.4-.7-.8-1-1.2-.3-.5-.9-.5-1.3,0-.3.4-.7.8-1,1.2,0,.1-.2.1-.3.1-.5-.1-1-.3-1.3-.4-.7-.2-1.1.1-1.1.7,0,.5,0,1.1,0,1.6,0,.1,0,.2-.1.2-.5.2-1,.4-1.5.6-.5.2-.7.7-.4,1.2.3.5.6.9.9,1.3,0,.1,0,.2,0,.3-.3.5-.6.9-.9,1.4-.3.4,0,1,.4,1.1.5.2,1,.4,1.5.6.1,0,.1.1.1.2,0,.5,0,1,0,1.5s.5,1,1.1.8c.5-.2,1-.3,1.5-.4,0,0,.2,0,.2,0,.3.4.7.8,1,1.2.4.5.9.5,1.3,0,.3-.4.7-.8,1-1.2,0,0,.1-.1.2,0,.5.1,1,.3,1.5.4.5.1,1-.2,1-.7,0-.5,0-1.1,0-1.6,0-.1,0-.2.2-.2.5-.2,1-.4,1.5-.6.5-.3.7-.8.4-1.2h0ZM994.4,265.7l-3.2,3.2c0,0-.2.1-.3.2,0,0,0,0-.1,0-.1,0-.3,0-.4-.2l-1.3-1.3c-.2-.2-.2-.6,0-.8.2-.2.6-.2.8,0l.9.9,2.8-2.8c.2-.2.6-.2.8,0,.3.2.3.6,0,.8h0Z"/>
  <g>
    <path class="st2" d="M730,303.4v11.6c0,1.4-.4,2.6-1.3,3.4-.9.8-2,1.3-3.4,1.3s-2.6-.4-3.4-1.3c-.9-.8-1.3-2-1.3-3.4h2.7c0,.7.2,1.3.5,1.7.3.4.9.6,1.5.6s1.2-.2,1.6-.6c.4-.4.5-1,.5-1.7v-11.6h2.7Z"/>
    <path class="st2" d="M745.9,306.8v12.8h-2.6v-1.5c-.4.5-1,.9-1.6,1.2-.7.3-1.4.5-2.1.5s-1.9-.2-2.7-.6c-.8-.4-1.4-1-1.9-1.9-.5-.8-.7-1.8-.7-3v-7.5h2.6v7.1c0,1.1.3,2,.9,2.6.6.6,1.4.9,2.3.9s1.8-.3,2.4-.9c.6-.6.9-1.5.9-2.6v-7.1h2.6Z"/>
    <path class="st2" d="M751.3,319.2c-.8-.4-1.4-.9-1.9-1.5-.5-.6-.7-1.3-.7-2.1h2.7c0,.5.3,1,.8,1.4.5.4,1.1.5,1.8.5s1.3-.1,1.7-.4.6-.7.6-1.1-.2-.8-.7-1.1c-.5-.2-1.2-.5-2.2-.8-1-.3-1.7-.5-2.3-.8-.6-.2-1.1-.6-1.6-1.1-.4-.5-.7-1.2-.7-2s.2-1.3.6-1.9,1-1,1.7-1.3,1.6-.5,2.6-.5c1.5,0,2.6.4,3.5,1.1.9.7,1.4,1.7,1.4,3h-2.6c0-.6-.3-1-.7-1.4-.4-.3-1-.5-1.7-.5s-1.2.1-1.6.4-.6.6-.6,1,.1.6.4.9c.2.2.5.4.9.5.4.1.9.3,1.6.5.9.2,1.7.5,2.3.8.6.3,1.1.6,1.5,1.1.4.5.7,1.2.7,2,0,.7-.2,1.4-.6,1.9s-1,1-1.7,1.3c-.7.3-1.6.5-2.6.5s-1.9-.2-2.7-.5Z"/>
    <path class="st2" d="M764.8,308.9v7.1c0,.5.1.8.3,1s.6.3,1.1.3h1.6v2.2h-2.1c-1.2,0-2.1-.3-2.7-.8-.6-.6-.9-1.5-.9-2.7v-7.1h-1.5v-2.2h1.5v-3.2h2.7v3.2h3.1v2.2h-3.1Z"/>
    <path class="st2" d="M781.7,308.9h-2.4v10.6h-2.7v-10.6h-1.5v-2.2h1.5v-.9c0-1.5.4-2.5,1.2-3.2.8-.7,2-1,3.7-1v2.2c-.8,0-1.4.2-1.7.5s-.5.8-.5,1.6v.9h2.4v2.2Z"/>
    <path class="st2" d="M786.3,318.9c-1-.5-1.7-1.3-2.3-2.3s-.8-2.1-.8-3.5.3-2.4.9-3.5c.6-1,1.4-1.8,2.3-2.3,1-.5,2.1-.8,3.3-.8s2.3.3,3.3.8c1,.5,1.8,1.3,2.3,2.3.6,1,.9,2.2.9,3.5s-.3,2.4-.9,3.4c-.6,1-1.4,1.8-2.4,2.3-1,.5-2.1.8-3.3.8s-2.3-.3-3.3-.8ZM791.5,317c.6-.3,1.1-.8,1.4-1.5.4-.6.6-1.4.6-2.4s-.2-1.7-.5-2.4-.8-1.1-1.4-1.4c-.6-.3-1.2-.5-1.9-.5s-1.3.2-1.9.5c-.6.3-1,.8-1.4,1.4-.3.6-.5,1.4-.5,2.4,0,1.4.4,2.4,1.1,3.2.7.7,1.6,1.1,2.7,1.1s1.3-.2,1.9-.5Z"/>
    <path class="st2" d="M803,307.1c.6-.4,1.4-.5,2.3-.5v2.7h-.7c-1,0-1.8.3-2.4.8-.5.5-.8,1.4-.8,2.7v6.7h-2.6v-12.8h2.6v1.9c.4-.6.9-1.2,1.5-1.5Z"/>
    <path class="st1" d="M736.7,348.7v.5h4.3v3h-4.5c-.3,1.6-.8,2.9-1.5,3.9-.7,1-1.8,1.7-3.2,2.1-1.4.4-3.1.6-5.3.6v2.3c0,1.3.3,2.4.9,3.2.6.8,1.5,1.2,2.9,1.2,2.5,0,3.7-1.4,3.7-4.2h3.9c0,2.5-.7,4.3-2,5.6-1.3,1.3-3.2,1.9-5.7,1.9s-4.4-.7-5.7-2.1c-1.3-1.4-2-3.3-2-5.8v-5c2.7,0,4.7,0,6-.2s2.2-.5,2.8-1c.6-.5,1-1.3,1.2-2.5h-11.6v-3h11.8v-3.3h-11.8v-3h20v3h-4.3v2.8Z"/>
    <path class="st1" d="M757.9,360.6c3.2-2.8,5.8-5.1,7.6-6.9,1.9-1.8,3.4-3.7,4.7-5.6s1.9-3.9,1.9-5.9-.5-3.6-1.4-4.7c-1-1.1-2.5-1.7-4.5-1.7s-3.5.6-4.6,1.9c-1.1,1.3-1.7,3-1.7,5.1h-5.5c.1-3.8,1.3-6.8,3.5-8.8,2.2-2,5-3.1,8.4-3.1s6.5,1,8.6,3c2.1,2,3.1,4.7,3.1,8.1s-.6,4.8-1.8,7c-1.2,2.2-2.7,4.2-4.4,6-1.7,1.8-3.9,3.8-6.5,6.1l-2.3,2h16v4.8h-24.5v-4.2l3.6-3.1Z"/>
    <path class="st1" d="M793.1,362.3c1.1.9,2.6,1.3,4.5,1.3s4.1-.9,5.2-2.8c1.1-1.9,1.7-5.1,1.7-9.6-.8,1.1-1.9,2-3.4,2.6-1.5.6-3.1.9-4.8.9s-4.2-.4-6-1.3c-1.8-.9-3.2-2.2-4.2-4-1-1.8-1.5-3.9-1.5-6.4,0-3.7,1.1-6.7,3.3-8.9,2.2-2.2,5.2-3.3,9-3.3s7.8,1.5,9.8,4.6c1.9,3,2.9,7.7,2.9,14s-.4,7.9-1.1,10.6c-.7,2.8-2,4.8-3.8,6.3-1.8,1.4-4.3,2.1-7.4,2.1s-6.4-.9-8.3-2.8c-2-1.9-3-4.3-3.3-7.1h5.3c.3,1.7,1.1,3,2.2,3.8ZM802.1,348c1.2-1.3,1.7-2.9,1.7-5s-.6-4.1-1.8-5.4c-1.2-1.3-2.9-1.9-5-1.9s-3.8.7-5,2c-1.2,1.3-1.8,3.1-1.8,5.2s.6,3.7,1.8,5.1c1.2,1.3,3,2,5.4,2s3.6-.6,4.8-1.9Z"/>
    <path class="st1" d="M825.2,362.3c1.1.9,2.6,1.3,4.5,1.3s4.1-.9,5.2-2.8c1.1-1.9,1.7-5.1,1.7-9.6-.8,1.1-1.9,2-3.4,2.6-1.5.6-3.1.9-4.8.9s-4.2-.4-6-1.3c-1.8-.9-3.2-2.2-4.2-4-1-1.8-1.5-3.9-1.5-6.4,0-3.7,1.1-6.7,3.3-8.9,2.2-2.2,5.2-3.3,9-3.3s7.8,1.5,9.8,4.6c1.9,3,2.9,7.7,2.9,14s-.4,7.9-1.1,10.6c-.7,2.8-2,4.8-3.8,6.3-1.8,1.4-4.3,2.1-7.4,2.1s-6.4-.9-8.3-2.8c-2-1.9-3-4.3-3.3-7.1h5.3c.3,1.7,1.1,3,2.2,3.8ZM834.2,348c1.2-1.3,1.7-2.9,1.7-5s-.6-4.1-1.8-5.4c-1.2-1.3-2.9-1.9-5-1.9s-3.8.7-5,2c-1.2,1.3-1.8,3.1-1.8,5.2s.6,3.7,1.8,5.1c1.2,1.3,3,2,5.4,2s3.6-.6,4.8-1.9Z"/>
    <path class="st1" d="M857.2,362.3c1.1.9,2.6,1.3,4.5,1.3s4.1-.9,5.2-2.8c1.1-1.9,1.7-5.1,1.7-9.6-.8,1.1-1.9,2-3.4,2.6-1.5.6-3.1.9-4.8.9s-4.2-.4-6-1.3c-1.8-.9-3.2-2.2-4.2-4-1-1.8-1.5-3.9-1.5-6.4,0-3.7,1.1-6.7,3.3-8.9,2.2-2.2,5.2-3.3,9-3.3s7.8,1.5,9.8,4.6c1.9,3,2.9,7.7,2.9,14s-.4,7.9-1.1,10.6c-.7,2.8-2,4.8-3.8,6.3-1.8,1.4-4.3,2.1-7.4,2.1s-6.4-.9-8.3-2.8c-2-1.9-3-4.3-3.3-7.1h5.3c.3,1.7,1.1,3,2.2,3.8ZM866.2,348c1.2-1.3,1.7-2.9,1.7-5s-.6-4.1-1.8-5.4c-1.2-1.3-2.9-1.9-5-1.9s-3.8.7-5,2c-1.2,1.3-1.8,3.1-1.8,5.2s.6,3.7,1.8,5.1c1.2,1.3,3,2,5.4,2s3.6-.6,4.8-1.9Z"/>
  </g>
</svg>