<?xml version="1.0" encoding="UTF-8"?>
<svg id="Layer_1" xmlns="http://www.w3.org/2000/svg" version="1.1" viewBox="0 0 1280 420">
  <!-- Generator: Adobe Illustrator 30.1.0, SVG Export Plug-In . SVG Version: 2.1.1 Build 136)  -->
  <defs>
    <style>
      .st0, .st1, .st2 {
        font-family: Poppins-SemiBold, Poppins;
        font-weight: 600;
      }

      .st0, .st3 {
        font-size: 24px;
      }

      .st4 {
        font-size: 14px;
      }

      .st4, .st5, .st6 {
        font-family: Poppins-Regular, Poppins;
      }

      .st7, .st8 {
        fill: #ffcb00;
      }

      .st1, .st6, .st9 {
        fill: #ff5635;
      }

      .st1, .st10 {
        font-size: 26px;
      }

      .st11 {
        font-family: Poppins-Bold, Poppins;
        font-size: 48px;
        font-weight: 700;
      }

      .st11, .st2, .st10 {
        fill: #f8f7f3;
      }

      .st5 {
        font-size: 20px;
      }

      .st5, .st12 {
        fill: #fff;
      }

      .st8 {
        font-family: Poppins-Light, Poppins;
        font-weight: 300;
      }

      .st8, .st13 {
        font-size: 18px;
      }

      .st2 {
        font-size: 28px;
      }

      .st14 {
        font-size: 32px;
      }

      .st13, .st10 {
        font-family: Poppins-Medium, Poppins;
        font-weight: 500;
      }

      .st15 {
        fill: #191919;
      }
    </style>
  </defs>
  <path class="st15" d="M1280,255.6v134.4c0,16.6-13.5,30.1-30.1,30.1H160.4c-8,0-15.6-3.2-21.3-8.8L8.8,280.9c-5.6-5.6-8.8-13.3-8.8-21.3V30.1C0,13.5,13.5,0,30.1,0h247.9c8,0,15.6,3.2,21.3,8.8l70.1,70.1c5.8,5.8,15.3,5.8,21.1,0L460.7,8.8C466.3,3.2,474,0,482,0h542.5c8,0,15.6,3.2,21.3,8.8l225.5,225.5c5.6,5.6,8.8,13.3,8.8,21.3Z"/>
  <g>
    <path class="st12" d="M985.4,339c-5.2,0-9.5-4.2-9.5-9.5V90.5c0-5.2,4.2-9.5,9.5-9.5h239.1c5.2,0,9.5,4.2,9.5,9.5v214.7l-33.8,33.8h-214.7Z"/>
    <path class="st7" d="M1224.5,82c4.7,0,8.5,3.8,8.5,8.5v214.3l-.2.2-33.1,33.1h-214.3c-4.7,0-8.5-3.8-8.5-8.5V90.5c0-4.7,3.8-8.5,8.5-8.5h239.1M1224.5,80h-239.1c-5.8,0-10.5,4.7-10.5,10.5v239.1c0,5.8,4.7,10.5,10.5,10.5h215.1l33.7-33.7.7-.7V90.5c0-5.8-4.7-10.5-10.5-10.5h0Z"/>
  </g>
  <path class="st7" d="M1234.2,236.2v70.1l-33.7,33.7h0c0,0-214.8,0-214.8,0-5.8,0-10.5-4.7-10.5-10.5v-93.4h259Z"/>
  <path class="st9" d="M655.2,302.5v39.8c0,1.9-.8,3.8-2.1,5.1l-29.5,29.5c-1.4,1.4-3.2,2.1-5.1,2.1h-154.9c-4,0-7.3-3.2-7.3-7.3v-69.3c0-4,3.2-7.3,7.3-7.3h184.4c4,0,7.3,3.2,7.3,7.3Z"/>
  <text class="st2" transform="translate(478.3 345.8)"><tspan x="0" y="0">Enroll Now</tspan></text>
  <text class="st4" transform="translate(998.7 267.6)"><tspan x="0" y="0">Daily Practice</tspan><tspan x="0" y="25">Community Access</tspan><tspan x="0" y="50">Interview Preparation Support</tspan></text>
  <text transform="translate(52.7 113.5)"><tspan class="st6"><tspan class="st14" x="0" y="0">Ultimate Series</tspan><tspan class="st3" x="238.6" y="0"> </tspan></tspan><tspan class="st11"><tspan x="0" y="52">IPMAT 2026 </tspan></tspan><tspan class="st11"><tspan x="0" y="101">Full Access</tspan></tspan></text>
  <text transform="translate(456.3 108.5)"><tspan><tspan class="st1" x="0" y="0">25 Mocks</tspan><tspan class="st5" x="122.8" y="0" xml:space="preserve"> (Each)</tspan></tspan><tspan class="st10"><tspan x="0" y="36">IPMAT-Rohtak</tspan></tspan><tspan class="st10"><tspan x="0" y="72">IPMAT-Indore</tspan></tspan><tspan class="st10"><tspan x="0" y="108">JIPMAT</tspan></tspan></text>
  <text transform="translate(719 108.5)"><tspan><tspan class="st1" x="0" y="0">10 Mocks</tspan><tspan class="st5" x="117.4" y="0" xml:space="preserve"> (Each)</tspan></tspan><tspan class="st10"><tspan x="0" y="36">IIM-B DBE</tspan></tspan><tspan class="st10"><tspan x="0" y="72">SET</tspan></tspan><tspan class="st10"><tspan x="0" y="108">NPAT</tspan></tspan><tspan class="st10"><tspan x="0" y="144">CHRIST</tspan></tspan><tspan class="st10"><tspan x="0" y="180">St. Xavier&apos;s</tspan></tspan></text>
  <text class="st8" transform="translate(52.7 255)"><tspan x="0" y="0">Target every top B-School with </tspan><tspan x="0" y="26">dedicated mocks.</tspan></text>
  <text class="st15" transform="translate(1005.7 117.5)"><tspan class="st0"><tspan x="0" y="0">Past Year Papers</tspan></tspan><tspan class="st0"><tspan x="0" y="36">Topic-wise Test</tspan></tspan><tspan class="st0"><tspan x="0" y="72">Sectional Tests </tspan></tspan><tspan class="st13"><tspan x="0" y="94">(QA, LRDI, VARC)</tspan></tspan></text>
  <path class="st7" d="M998.2,110.6c-.3-.5-.6-.9-.9-1.3,0,0,0-.2,0-.3.3-.4.6-.9.9-1.3.3-.5.2-1-.4-1.2-.5-.2-1-.4-1.4-.5,0,0-.1,0-.1-.2,0-.5,0-1.1,0-1.6,0-.6-.5-.9-1-.7-.5.1-1,.3-1.5.4-.1,0-.2,0-.3,0-.3-.4-.7-.8-1-1.2-.4-.5-.9-.5-1.3,0-.3.4-.7.8-1,1.2,0,.1-.2.1-.3,0-.5-.1-1-.3-1.4-.4-.7-.2-1.1.1-1.1.7,0,.5,0,1.1,0,1.6,0,.1,0,.2-.1.2-.5.2-1,.4-1.5.6-.5.2-.7.7-.4,1.2.3.5.6.9.9,1.3,0,0,0,.2,0,.3-.3.5-.6.9-.9,1.4-.3.4,0,.9.4,1.1.5.2,1,.4,1.5.6.1,0,.1,0,.1.2,0,.5,0,1,0,1.5s.5,1,1.1.8c.5-.2,1-.3,1.5-.4,0,0,.2,0,.2,0,.3.4.7.8,1,1.2.4.5.9.5,1.3,0,.3-.4.7-.8,1-1.2,0,0,.1-.1.2,0,.5.1,1,.3,1.5.4.5.1,1-.2,1-.7,0-.5,0-1.1,0-1.6,0-.1,0-.2.2-.2.5-.2,1-.4,1.5-.6.5-.3.7-.8.4-1.2ZM994.4,108l-3.2,3.2c0,0-.2.1-.3.2,0,0,0,0-.1,0-.1,0-.3,0-.4-.2l-1.3-1.3c-.2-.2-.2-.6,0-.8.2-.2.6-.2.8,0l.9.9,2.8-2.8c.2-.2.6-.2.8,0,.3.2.3.6,0,.8Z"/>
  <path class="st7" d="M998.2,147.1c-.3-.5-.6-.9-.9-1.3,0,0,0-.2,0-.3.3-.4.6-.9.9-1.3.3-.5.2-1-.4-1.2-.5-.2-1-.4-1.4-.5,0,0-.1,0-.1-.2,0-.5,0-1.1,0-1.6,0-.6-.5-.9-1-.7-.5.1-1,.3-1.5.4-.1,0-.2,0-.3,0-.3-.4-.7-.8-1-1.2-.4-.5-.9-.5-1.3,0-.3.4-.7.8-1,1.2,0,.1-.2.1-.3,0-.5-.1-1-.3-1.4-.4-.7-.2-1.1.1-1.1.7,0,.5,0,1.1,0,1.6,0,.1,0,.2-.1.2-.5.2-1,.4-1.5.6-.5.2-.7.7-.4,1.2.3.5.6.9.9,1.3,0,0,0,.2,0,.3-.3.5-.6.9-.9,1.4-.3.4,0,.9.4,1.1.5.2,1,.4,1.5.6.1,0,.1,0,.1.2,0,.5,0,1,0,1.5s.5,1,1.1.8c.5-.2,1-.3,1.5-.4,0,0,.2,0,.2,0,.3.4.7.8,1,1.2.4.5.9.5,1.3,0,.3-.4.7-.8,1-1.2,0,0,.1-.1.2,0,.5.1,1,.3,1.5.4.5.1,1-.2,1-.7,0-.5,0-1.1,0-1.6,0-.1,0-.2.2-.2.5-.2,1-.4,1.5-.6.5-.3.7-.8.4-1.2ZM994.4,144.5l-3.2,3.2c0,0-.2.1-.3.2,0,0,0,0-.1,0-.1,0-.3,0-.4-.2l-1.3-1.3c-.2-.2-.2-.6,0-.8.2-.2.6-.2.8,0l.9.9,2.8-2.8c.2-.2.6-.2.8,0,.3.2.3.6,0,.8Z"/>
  <path class="st7" d="M998.2,182.3c-.3-.5-.6-.9-.9-1.3,0,0,0-.2,0-.3.3-.4.6-.9.9-1.3.3-.5.2-1-.4-1.2-.5-.2-1-.4-1.4-.5,0,0-.1,0-.1-.2,0-.5,0-1.1,0-1.6,0-.6-.5-.9-1-.7-.5.1-1,.3-1.5.4-.1,0-.2,0-.3,0-.3-.4-.7-.8-1-1.2-.4-.5-.9-.5-1.3,0-.3.4-.7.8-1,1.2,0,.1-.2.1-.3,0-.5-.1-1-.3-1.4-.4-.7-.2-1.1.1-1.1.7,0,.5,0,1.1,0,1.6,0,.1,0,.2-.1.2-.5.2-1,.4-1.5.6-.5.2-.7.7-.4,1.2.3.5.6.9.9,1.3,0,0,0,.2,0,.3-.3.5-.6.9-.9,1.4-.3.4,0,.9.4,1.1.5.2,1,.4,1.5.6.1,0,.1,0,.1.2,0,.5,0,1,0,1.5s.5,1,1.1.8c.5-.2,1-.3,1.5-.4,0,0,.2,0,.2,0,.3.4.7.8,1,1.2.4.5.9.5,1.3,0,.3-.4.7-.8,1-1.2,0,0,.1-.1.2,0,.5.1,1,.3,1.5.4.5.1,1-.2,1-.7,0-.5,0-1.1,0-1.6,0-.1,0-.2.2-.2.5-.2,1-.4,1.5-.6.5-.3.7-.8.4-1.2ZM994.4,179.6l-3.2,3.2c0,0-.2.1-.3.2,0,0,0,0-.1,0-.1,0-.3,0-.4-.2l-1.3-1.3c-.2-.2-.2-.6,0-.8.2-.2.6-.2.8,0l.9.9,2.8-2.8c.2-.2.6-.2.8,0,.3.2.3.6,0,.8Z"/>
  <path class="st12" d="M992.8,264.4c-.2-.4-.5-.7-.7-1,0,0,0-.1,0-.2.2-.3.4-.7.7-1,.3-.4.1-.8-.3-1-.4-.1-.8-.3-1.1-.4,0,0-.1,0-.1-.2,0-.4,0-.8,0-1.2,0-.4-.4-.7-.8-.6-.4.1-.8.2-1.2.3,0,0-.1,0-.2,0-.3-.3-.5-.6-.8-1-.3-.4-.7-.4-1,0-.3.3-.5.6-.8.9,0,0-.1.1-.2,0-.4-.1-.8-.2-1.1-.3-.5-.1-.9,0-.9.5,0,.4,0,.8,0,1.3,0,0,0,.1-.1.2-.4.2-.8.3-1.2.5-.4.2-.5.6-.3.9.2.4.5.7.7,1,0,0,0,.1,0,.2-.2.4-.5.7-.7,1.1-.2.3,0,.7.3.9.4.2.8.3,1.2.5,0,0,.1,0,.1.2,0,.4,0,.8,0,1.2s.4.8.8.6c.4-.1.8-.2,1.2-.3,0,0,.1,0,.2,0,.3.3.5.6.8,1,.3.4.7.4,1,0,.3-.3.5-.6.8-1,0,0,0,0,.2,0,.4.1.8.2,1.2.3.4.1.8-.1.8-.6,0-.4,0-.8,0-1.3,0-.1,0-.1.1-.2.4-.1.8-.3,1.2-.4.4-.2.5-.6.3-1ZM989.8,262.3l-2.5,2.5c0,0-.2.1-.2.1,0,0,0,0,0,0-.1,0-.2,0-.3-.1l-1-1c-.2-.2-.2-.5,0-.6.2-.2.5-.2.6,0l.7.7,2.2-2.2c.2-.2.5-.2.6,0,.2.2.2.5,0,.6Z"/>
  <path class="st12" d="M992.8,288.3c-.2-.4-.5-.7-.7-1,0,0,0-.1,0-.2.2-.3.4-.7.7-1,.3-.4.1-.8-.3-1-.4-.1-.8-.3-1.1-.4,0,0-.1,0-.1-.2,0-.4,0-.8,0-1.2,0-.4-.4-.7-.8-.6-.4.1-.8.2-1.2.3,0,0-.1,0-.2,0-.3-.3-.5-.6-.8-1-.3-.4-.7-.4-1,0-.3.3-.5.6-.8.9,0,0-.1.1-.2,0-.4-.1-.8-.2-1.1-.3-.5-.1-.9,0-.9.5,0,.4,0,.8,0,1.3,0,0,0,.1-.1.2-.4.2-.8.3-1.2.5-.4.2-.5.6-.3.9.2.4.5.7.7,1,0,0,0,.1,0,.2-.2.4-.5.7-.7,1.1-.2.3,0,.7.3.9.4.2.8.3,1.2.5,0,0,.1,0,.1.2,0,.4,0,.8,0,1.2s.4.8.8.6c.4-.1.8-.2,1.2-.3,0,0,.1,0,.2,0,.3.3.5.6.8,1,.3.4.7.4,1,0,.3-.3.5-.6.8-1,0,0,0,0,.2,0,.4.1.8.2,1.2.3.4.1.8-.1.8-.6,0-.4,0-.8,0-1.3,0-.1,0-.1.1-.2.4-.1.8-.3,1.2-.4.4-.2.5-.6.3-1ZM989.8,286.2l-2.5,2.5c0,0-.2.1-.2.1,0,0,0,0,0,0-.1,0-.2,0-.3-.1l-1-1c-.2-.2-.2-.5,0-.6.2-.2.5-.2.6,0l.7.7,2.2-2.2c.2-.2.5-.2.6,0,.2.2.2.5,0,.6Z"/>
  <path class="st12" d="M992.8,313.5c-.2-.4-.5-.7-.7-1,0,0,0-.1,0-.2.2-.3.4-.7.7-1,.3-.4.1-.8-.3-1-.4-.1-.8-.3-1.1-.4,0,0-.1,0-.1-.2,0-.4,0-.8,0-1.2,0-.4-.4-.7-.8-.6-.4.1-.8.2-1.2.3,0,0-.1,0-.2,0-.3-.3-.5-.6-.8-1-.3-.4-.7-.4-1,0-.3.3-.5.6-.8.9,0,0-.1.1-.2,0-.4-.1-.8-.2-1.1-.3-.5-.1-.9,0-.9.5,0,.4,0,.8,0,1.3,0,0,0,.1-.1.2-.4.2-.8.3-1.2.5-.4.2-.5.6-.3.9.2.4.5.7.7,1,0,0,0,.1,0,.2-.2.4-.5.7-.7,1.1-.2.3,0,.7.3.9.4.2.8.3,1.2.5,0,0,.1,0,.1.2,0,.4,0,.8,0,1.2s.4.8.8.6c.4-.1.8-.2,1.2-.3,0,0,.1,0,.2,0,.3.3.5.6.8,1,.3.4.7.4,1,0,.3-.3.5-.6.8-1,0,0,0,0,.2,0,.4.1.8.2,1.2.3.4.1.8-.1.8-.6,0-.4,0-.8,0-1.3,0-.1,0-.1.1-.2.4-.1.8-.3,1.2-.4.4-.2.5-.6.3-1ZM989.8,311.4l-2.5,2.5c0,0-.2.1-.2.1,0,0,0,0,0,0-.1,0-.2,0-.3-.1l-1-1c-.2-.2-.2-.5,0-.6.2-.2.5-.2.6,0l.7.7,2.2-2.2c.2-.2.5-.2.6,0,.2.2.2.5,0,.6Z"/>
</svg>