<svg width="202" height="200" viewBox="0 0 202 200" fill="none" xmlns="http://www.w3.org/2000/svg">
<path d="M19.7309 49.7494C19.3508 49.8158 19.0449 49.7617 18.8105 49.5862C18.5753 49.4134 18.4276 49.1398 18.365 48.7647L17.2704 42.0357C17.2104 41.6615 17.2642 41.3561 17.4354 41.1177C17.6066 40.8794 17.8803 40.7323 18.2549 40.6728L25.001 39.5702C25.3802 39.5064 25.6871 39.5579 25.9233 39.7282C26.1596 39.8984 26.3089 40.1755 26.3644 40.554L27.4411 47.2911C27.5011 47.6653 27.4473 47.9708 27.2761 48.2091C27.1059 48.4448 26.8312 48.5946 26.4566 48.6541L19.7267 49.7449L19.7309 49.7494Z" fill="#FF5635"/>
<path d="M32.0648 26.2984C31.7629 25.9293 31.6304 25.5667 31.6683 25.2081C31.7053 24.8521 31.9076 24.5217 32.2794 24.2216L35.5057 21.5973C36.709 20.6199 37.8872 20.1184 39.0457 20.0947C40.2015 20.07 41.2209 20.5982 42.1037 21.6792C42.7109 22.4245 43.0261 23.1978 43.0476 24.0044C43.069 24.8109 42.8718 25.504 42.4564 26.0897L45.7024 27.3267C45.9992 27.4454 46.2322 27.6086 46.397 27.8116C46.468 27.8999 46.5536 28.0529 46.6529 28.273C46.7522 28.4932 46.7041 28.783 46.5108 29.1373C46.4151 29.3238 46.2851 29.4827 46.1164 29.6184C45.6921 29.9642 45.1718 30.0171 44.5589 29.7755L40.5174 28.2144L38.5883 29.7838L40.5221 32.156C40.8241 32.5251 40.9601 32.886 40.9312 33.2362C40.9024 33.5863 40.7091 33.9082 40.3535 34.1966C39.9979 34.4849 39.6431 34.6109 39.291 34.5694C38.939 34.5278 38.6115 34.3238 38.3096 33.9547L32.0657 26.2958L32.0648 26.2984ZM34.8667 25.2207L37.1702 28.0432L39.3277 26.2892C40.4561 25.37 40.6373 24.4403 39.866 23.4981C39.0999 22.5579 38.1526 22.5474 37.0242 23.4667L34.8667 25.2207Z" fill="black"/>
<path d="M45.4993 24.2168C45.1431 23.6502 44.9036 23.0646 44.7754 22.4581C44.6473 21.8517 44.6366 21.2562 44.7417 20.668C44.8469 20.0799 45.0981 19.5133 45.4911 18.9637C45.8842 18.4141 46.4113 17.9348 47.068 17.5213C48.2056 16.8095 49.3496 16.5526 50.5052 16.7526C51.6583 16.9517 52.6112 17.6032 53.3599 18.7026C53.3648 18.7133 53.3733 18.7223 53.3783 18.733C53.9075 19.5767 53.7706 20.2507 52.9605 20.7583L48.3742 23.6305C48.6441 24.038 49.0479 24.2762 49.5889 24.3434C50.1274 24.4096 50.7155 24.2457 51.3525 23.8456C51.985 23.4497 52.4978 22.9769 52.8908 22.4273C53.1114 22.1836 53.3024 22.0118 53.4639 21.9118C53.777 21.7142 54.0797 21.705 54.3739 21.8789C54.5362 21.9686 54.6584 22.0789 54.7403 22.2098C54.8088 22.3209 54.8587 22.4902 54.8849 22.7158C54.911 22.9414 54.7944 23.2325 54.5369 23.5838C53.9844 24.3879 53.2143 25.0997 52.2239 25.718C51.6722 26.0639 51.1228 26.3072 50.575 26.4505C50.0271 26.5938 49.5123 26.6398 49.0304 26.5887C48.5486 26.5375 48.0859 26.4106 47.6469 26.2038C47.2079 25.9969 46.808 25.7246 46.4522 25.3889C46.0965 25.0531 45.7795 24.6607 45.4993 24.2168ZM47.3967 22.0767L51.0347 19.797C50.7057 19.341 50.2826 19.0513 49.7672 18.9226C49.2509 18.7966 48.7155 18.906 48.1576 19.2526C47.6023 19.6002 47.2691 20.0359 47.1618 20.5581C47.0544 21.0804 47.1313 21.585 47.3977 22.0741L47.3967 22.0767Z" fill="black"/>
<path d="M55.4055 20.1726C55.2005 19.7418 55.1061 19.3164 55.1223 18.8964C55.1385 18.4765 55.2433 18.0894 55.4321 17.7393C55.621 17.3892 55.8869 17.0469 56.2281 16.7177C56.5702 16.3858 56.9391 16.0935 57.3359 15.8381C57.7326 15.5827 58.1685 15.3418 58.6425 15.1179C58.9916 14.9513 59.3836 14.7888 59.8159 14.6294C59.7006 14.3886 59.5888 14.2023 59.4806 14.0705C59.3713 13.9413 59.2314 13.8392 59.057 13.7658C58.8827 13.6924 58.6694 13.6844 58.4137 13.7347C58.1571 13.7876 57.8458 13.9002 57.4815 14.0759C56.953 14.3269 56.381 14.7275 55.7622 15.2704C55.5487 15.431 55.3585 15.5528 55.1898 15.6323C54.7648 15.8359 54.3985 15.8008 54.0889 15.5325C53.9864 15.4413 53.9095 15.3448 53.8576 15.2368C53.7909 15.0968 53.7724 14.9066 53.8047 14.6671C53.8371 14.4277 54.0315 14.1506 54.3889 13.8333C55.1166 13.1562 55.921 12.608 56.8057 12.1871C57.7949 11.7162 58.644 11.4715 59.3522 11.4556C60.0577 11.4387 60.6563 11.6307 61.1427 12.0296C61.6291 12.4285 62.0793 13.0536 62.4853 13.902L64.199 17.4852C64.4083 17.9206 64.4628 18.3016 64.3652 18.6293C64.2676 18.957 64.0185 19.2138 63.6221 19.4043C62.9275 19.7358 62.3844 19.6501 61.9917 19.1498L61.8223 18.815C61.8033 19.1067 61.7422 19.3917 61.6392 19.67C61.5361 19.9484 61.3331 20.2489 61.0297 20.5802C60.7263 20.9116 60.3332 21.1891 59.8547 21.4172C58.8905 21.8766 58.0118 22.001 57.2223 21.7886C56.4291 21.5778 55.8285 21.039 55.4143 20.1729L55.4055 20.1726ZM58.5258 19.4996C58.839 19.5741 59.2058 19.5117 59.6263 19.3124C60.2771 19.0032 60.6867 18.5928 60.856 18.0876C61.0226 17.5813 61.0018 17.1093 60.7919 16.6677L60.5094 16.0781C60.2592 16.1777 59.997 16.2937 59.7212 16.4223C58.0456 17.2189 57.4116 18.0431 57.8192 18.895C57.9799 19.2295 58.2133 19.4313 58.5258 19.4996Z" fill="black"/>
<path d="M61.9787 5.86442C62.1076 5.54831 62.3816 5.31252 62.7944 5.15773C63.2028 5.00718 63.5614 5.00683 63.8675 5.1645C64.1746 5.31957 64.4127 5.62069 64.5785 6.06951L67.8407 14.7633C67.933 15.0104 68.0183 15.1721 68.0993 15.2494C68.1803 15.3267 68.2977 15.3376 68.4552 15.2806C68.9641 15.0904 69.3286 15.2903 69.548 15.8744C69.6712 16.198 69.6356 16.5102 69.4449 16.8093C69.2542 17.1085 68.9399 17.3412 68.4968 17.5055C68.1285 17.6442 67.7844 17.7091 67.4699 17.7021C67.1555 17.6952 66.8892 17.638 66.6685 17.5297C66.4479 17.4214 66.2474 17.2585 66.0584 17.0407C65.872 16.8238 65.7175 16.6009 65.5974 16.3731C65.4773 16.1452 65.3592 15.8797 65.2459 15.5775L62.0321 7.01702C61.8654 6.57081 61.8444 6.18737 61.9726 5.86509L61.9787 5.86442Z" fill="black"/>
<path d="M75.1594 13.707L73.0531 4.05977C72.9503 3.59286 72.9969 3.2108 73.1912 2.91003C73.3855 2.60926 73.7156 2.40607 74.182 2.30661L80.6211 0.912893C81.0885 0.810832 81.4674 0.835742 81.7598 0.98242C82.0522 1.1291 82.2388 1.39339 82.3216 1.7701C82.4035 2.14941 82.3448 2.46787 82.1406 2.72353C81.9363 2.9792 81.6026 3.16033 81.1352 3.26239L76.0425 4.36474L76.6238 7.02898L81.3039 6.01647C81.7713 5.91441 82.1486 5.93575 82.4342 6.07693C82.7223 6.21908 82.9057 6.47624 82.9868 6.84939C83.068 7.22253 83.0087 7.53482 82.8063 7.78528C82.604 8.03574 82.2712 8.21427 81.8048 8.31373L77.1246 9.32624L77.7495 12.1929L82.9289 11.0724C83.3963 10.9704 83.7753 10.9953 84.0676 11.1419C84.36 11.2886 84.5466 11.5529 84.6294 11.9296C84.7122 12.3063 84.6527 12.6274 84.4484 12.8831C84.2458 13.1423 83.9104 13.3198 83.443 13.4219L76.9172 14.8338C76.4498 14.9359 76.0671 14.8889 75.7658 14.6945C75.4644 14.5001 75.2631 14.1713 75.1604 13.7044L75.1594 13.707Z" fill="black"/>
<path d="M85.9178 11.6109C85.9361 11.3692 86.039 11.1233 86.2264 10.8732L88.2652 7.99869L85.9963 5.87517C85.6443 5.56147 85.4502 5.22933 85.4183 4.88329C85.3863 4.53724 85.5071 4.227 85.7796 3.95517C85.9783 3.76253 86.2051 3.65421 86.4599 3.63021C86.8707 3.59298 87.3018 3.77325 87.7521 4.17361L89.8967 6.20082L91.6131 3.81325C91.9818 3.33746 92.3743 3.07753 92.7887 3.03867C93.0435 3.01467 93.2867 3.07808 93.5173 3.23148C93.836 3.43521 94.0117 3.71318 94.0469 4.06636C94.0795 4.41858 93.9499 4.7847 93.6548 5.1576L91.8239 7.6625L94.3662 10.112C94.5958 10.3242 94.7323 10.5078 94.7773 10.6665C94.8223 10.8251 94.8475 10.9409 94.8547 11.0175C94.8661 11.1548 94.8457 11.2981 94.7925 11.45C94.7366 11.6009 94.6333 11.7519 94.4792 11.896C94.2588 12.1072 94.0132 12.2264 93.7399 12.2524C93.3414 12.2882 92.9654 12.1432 92.6087 11.81L90.2029 9.46423L88.2762 12.2117C87.9894 12.6025 87.6457 12.8184 87.2498 12.8552C86.9703 12.8819 86.7037 12.8098 86.4489 12.6416C86.275 12.5269 86.1473 12.3998 86.0656 12.2601C85.984 12.1205 85.9358 11.9784 85.9205 11.8278C85.9139 11.7573 85.912 11.6827 85.9171 11.6047L85.9178 11.6109Z" fill="black"/>
<path d="M95.8497 9.25025C95.8598 8.77481 95.9666 8.34999 96.171 7.98197C96.3754 7.61394 96.6425 7.31648 96.9698 7.08862C97.2972 6.86075 97.6891 6.67454 98.141 6.53421C98.5939 6.39129 99.0559 6.29607 99.5268 6.24855C99.9951 6.20007 100.494 6.1807 101.02 6.19208C101.409 6.19974 101.832 6.23228 102.29 6.28353C102.294 6.01593 102.279 5.80037 102.24 5.6349C102.2 5.46943 102.121 5.3158 101.999 5.17304C101.877 5.03028 101.688 4.92479 101.438 4.85589C101.185 4.78603 100.855 4.74958 100.45 4.73873C99.8651 4.72626 99.1746 4.82265 98.374 5.03212C98.1106 5.07953 97.8856 5.10276 97.7012 5.09662C97.2313 5.08536 96.9176 4.89232 96.7645 4.51327C96.7132 4.38779 96.6882 4.26318 96.6912 4.14302C96.6953 3.98778 96.7634 3.81185 96.9 3.61099C97.0356 3.41273 97.3353 3.25154 97.7981 3.13001C98.7537 2.85372 99.7195 2.72613 100.698 2.74818C101.797 2.77337 102.664 2.93742 103.302 3.2387C103.939 3.54258 104.387 3.98062 104.645 4.55802C104.9 5.13185 105.019 5.89161 104.999 6.83373L104.914 10.8013C104.905 11.2829 104.782 11.6484 104.547 11.8986C104.313 12.1463 103.972 12.2657 103.531 12.2563C102.761 12.2403 102.314 11.9182 102.192 11.2961L102.192 10.9204C102.042 11.1726 101.86 11.4009 101.643 11.6018C101.427 11.8026 101.109 11.9807 100.686 12.1378C100.264 12.2949 99.7892 12.3678 99.2569 12.3571C98.1896 12.3347 97.347 12.0495 96.7369 11.5042C96.1233 10.9606 95.8303 10.2073 95.8497 9.25025ZM98.9401 10.051C99.1856 10.2602 99.5425 10.3687 100.007 10.378C100.73 10.3942 101.28 10.2133 101.659 9.83874C102.038 9.46163 102.231 9.03001 102.243 8.54059L102.256 7.8888C101.987 7.86317 101.702 7.84928 101.396 7.84261C99.5392 7.80007 98.6016 8.25165 98.5818 9.19377C98.5751 9.56399 98.6916 9.84965 98.9401 10.051Z" fill="black"/>
<path d="M106.26 10.7285L107.314 4.5495C107.394 4.07899 107.57 3.739 107.843 3.52952C108.116 3.32003 108.467 3.25185 108.905 3.32525C109.44 3.41681 109.77 3.68675 109.894 4.13767C109.91 4.18827 109.922 4.28434 109.929 4.4259C109.936 4.56746 109.942 4.6405 109.942 4.64667C110.05 4.51508 110.177 4.38765 110.325 4.26792C110.473 4.1482 110.656 4.03225 110.875 3.92104C111.094 3.80982 111.349 3.73582 111.646 3.69479C111.939 3.65539 112.247 3.66303 112.565 3.71576C113.973 3.95576 114.889 4.64992 115.317 5.79303C115.464 5.64343 115.622 5.50386 115.792 5.37432C115.961 5.24478 116.182 5.11343 116.45 4.9793C116.719 4.84517 117.033 4.75115 117.388 4.70503C117.743 4.65631 118.116 4.66696 118.503 4.7334C119.687 4.93785 120.527 5.47057 121.024 6.33513C121.522 7.19968 121.656 8.3023 121.427 9.64299L120.816 13.2209C120.737 13.6914 120.562 14.0288 120.292 14.2366C120.023 14.4444 119.672 14.5126 119.237 14.4376C118.803 14.3625 118.49 14.1818 118.303 13.8964C118.115 13.611 118.062 13.2336 118.141 12.7631L118.78 9.02728C118.885 8.41543 118.84 7.89862 118.647 7.47523C118.454 7.05184 118.073 6.79248 117.507 6.69552C116.936 6.59663 116.487 6.71421 116.161 7.04923C115.836 7.38425 115.619 7.85721 115.515 8.46646L114.876 12.2023C114.797 12.6728 114.622 13.0101 114.352 13.218C114.083 13.4258 113.731 13.494 113.297 13.419C112.862 13.3439 112.55 13.1632 112.362 12.8778C112.175 12.5924 112.122 12.215 112.201 11.7445L112.838 8.00772C112.943 7.39586 112.897 6.87906 112.698 6.45634C112.5 6.03102 112.119 5.77166 111.556 5.67566C110.99 5.5787 110.546 5.69821 110.218 6.03226C109.892 6.36729 109.675 6.84024 109.571 7.4495L108.932 11.1853C108.853 11.6558 108.678 11.9932 108.408 12.201C108.139 12.4089 107.788 12.4771 107.353 12.402C106.919 12.327 106.606 12.1463 106.419 11.8609C106.231 11.5755 106.178 11.198 106.257 10.7275L106.26 10.7285Z" fill="black"/>
<path d="M126.818 14.2266C127.166 13.959 127.546 13.9076 127.958 14.0688C128.195 14.1627 128.469 14.3351 128.772 14.5893C129.587 15.3107 130.412 15.8351 131.253 16.1642C132.037 16.4721 132.663 16.5974 133.127 16.5444C133.595 16.4897 133.921 16.2258 134.107 15.7475C134.27 15.3315 134.21 14.9336 133.926 14.5537C133.643 14.1739 133.104 13.717 132.315 13.1825C130.932 12.2621 129.996 11.3628 129.507 10.4836C129.017 9.60437 128.957 8.69469 129.325 7.75714C129.735 6.71389 130.45 6.02316 131.474 5.6807C132.498 5.34083 133.757 5.4609 135.245 6.04417C136.529 6.54603 137.607 7.16393 138.482 7.89883C138.865 8.21533 139.07 8.51009 139.099 8.77789C139.126 9.04829 139.114 9.25681 139.057 9.40152C138.995 9.56185 138.885 9.7074 138.732 9.84013C138.377 10.1434 137.949 10.195 137.449 10.001C137.232 9.91482 136.988 9.7803 136.716 9.58776C135.976 9.04168 135.225 8.61904 134.469 8.32437C133.868 8.09017 133.353 8.00277 132.918 8.06379C132.484 8.12481 132.183 8.36849 132.016 8.79483C131.864 9.18215 131.924 9.55017 132.196 9.89371C132.469 10.2372 132.969 10.6559 133.698 11.1533C134.404 11.6219 134.987 12.0653 135.446 12.4809C135.906 12.8965 136.282 13.3374 136.574 13.7975C136.868 14.2585 137.032 14.7362 137.067 15.228C137.1 15.7225 137.01 16.2453 136.793 16.8007C136.593 17.3068 136.337 17.7266 136.02 18.0645C135.703 18.3998 135.344 18.6486 134.949 18.8127C134.551 18.9733 134.112 19.0649 133.624 19.0855C133.139 19.1071 132.634 19.0622 132.115 18.9501C131.593 18.8397 131.048 18.6706 130.476 18.447C129.02 17.8753 127.812 17.1205 126.852 16.1826C126.626 15.96 126.475 15.7206 126.4 15.4679C126.327 15.2162 126.329 14.9863 126.409 14.7792C126.488 14.572 126.624 14.3887 126.817 14.2292L126.818 14.2266Z" fill="black"/>
<path d="M137.418 19.5937L140.223 14.0006C140.437 13.5741 140.705 13.3004 141.026 13.1768C141.347 13.0532 141.707 13.0915 142.101 13.2907C142.491 13.4854 142.731 13.7488 142.828 14.0804C142.925 14.4119 142.862 14.7882 142.651 15.2156L139.846 20.8087C139.631 21.2352 139.364 21.509 139.043 21.6326C138.722 21.7562 138.365 21.7189 137.976 21.5216C137.58 21.3249 137.335 21.0596 137.241 20.729C137.147 20.3984 137.207 20.0212 137.418 19.5937ZM142.816 9.62151C143.184 9.50033 143.542 9.5263 143.89 9.6994C144.237 9.8725 144.476 10.1473 144.604 10.5229C144.733 10.8959 144.711 11.2577 144.538 11.6048C144.361 11.9562 144.086 12.1946 143.712 12.3164C143.335 12.4373 142.971 12.412 142.622 12.2353C142.274 12.0622 142.038 11.7884 141.914 11.4173C141.791 11.0463 141.816 10.6828 141.993 10.3315C142.166 9.98435 142.443 9.74953 142.818 9.62508L142.816 9.62151Z" fill="black"/>
<path d="M141.402 21.3109L144.843 16.0743C145.102 15.6765 145.402 15.4354 145.735 15.3517C146.068 15.268 146.422 15.3456 146.791 15.5888C147.247 15.8875 147.438 16.2661 147.371 16.7291C147.363 16.7823 147.338 16.8737 147.289 17.0064C147.24 17.139 147.215 17.2067 147.213 17.2119C147.364 17.1318 147.532 17.0698 147.715 17.0162C147.898 16.9626 148.113 16.9329 148.358 16.9199C148.603 16.907 148.869 16.9405 149.154 17.0193C149.44 17.1017 149.719 17.2286 149.989 17.4053C151.181 18.1867 151.746 19.1887 151.681 20.4067C151.876 20.3281 152.077 20.2637 152.286 20.2135C152.494 20.1634 152.745 20.1323 153.048 20.1143C153.348 20.0979 153.671 20.1377 154.016 20.2361C154.362 20.3345 154.702 20.4898 155.03 20.7087C156.033 21.3672 156.591 22.1916 156.698 23.181C156.809 24.1713 156.489 25.236 155.743 26.3707L153.749 29.4039C153.487 29.8007 153.192 30.0437 152.863 30.1258C152.533 30.2079 152.183 30.1286 151.814 29.8855C151.444 29.6423 151.231 29.3534 151.175 29.0162C151.119 28.6791 151.22 28.3111 151.483 27.9143L153.565 24.7453C153.905 24.2265 154.072 23.7352 154.064 23.2705C154.055 22.8059 153.812 22.4142 153.332 22.1006C152.848 21.7825 152.388 21.7128 151.956 21.8871C151.523 22.0641 151.135 22.4084 150.795 22.9273L148.712 26.0962C148.45 26.493 148.156 26.736 147.826 26.8181C147.496 26.9002 147.146 26.8209 146.777 26.5778C146.408 26.3346 146.195 26.0457 146.139 25.7085C146.083 25.3713 146.184 25.0034 146.446 24.6066L148.529 21.4376C148.869 20.9188 149.033 20.4265 149.022 19.9609C149.011 19.4927 148.765 19.1026 148.285 18.789C147.806 18.4755 147.349 18.4041 146.916 18.5811C146.483 18.758 146.098 19.1033 145.755 19.6212L143.672 22.7901C143.41 23.187 143.115 23.43 142.786 23.512C142.456 23.5941 142.106 23.5149 141.737 23.2717C141.368 23.0285 141.155 22.7396 141.096 22.4015C141.04 22.0643 141.141 21.6963 141.403 21.2995L141.402 21.3109Z" fill="black"/>
<path d="M158.871 25.7095C159.189 25.354 159.518 25.1622 159.856 25.1278C160.194 25.096 160.528 25.2257 160.857 25.5219C161.186 25.8182 161.353 26.1345 161.36 26.4771C161.367 26.8196 161.209 27.1664 160.89 27.5218L158.455 30.2261C157.459 31.3332 157.454 32.3311 158.439 33.2162C159.415 34.0924 160.403 33.9786 161.399 32.8715L163.834 30.1673C164.152 29.8119 164.484 29.621 164.824 29.5902C165.164 29.5594 165.5 29.6926 165.828 29.9853C166.156 30.2815 166.324 30.5978 166.33 30.9404C166.337 31.283 166.179 31.6297 165.861 31.9852L161.668 36.6446C161.35 37 161.017 37.1935 160.676 37.2269C160.332 37.2593 159.998 37.1297 159.669 36.8335C159.357 36.5553 159.209 36.2756 159.218 35.995C159.229 35.7154 159.348 35.3867 159.577 35.0072C159.169 35.1753 158.689 35.2225 158.144 35.1508C157.597 35.0755 157.08 34.8222 156.596 34.3856C155.602 33.4913 155.101 32.5248 155.091 31.486C155.082 30.4447 155.532 29.4221 156.437 28.4173L158.872 25.713L158.871 25.7095Z" fill="black"/>
<path d="M171.574 30.1986C171.918 30.1986 172.237 30.3611 172.538 30.6854C172.834 31.0052 172.967 31.3352 172.941 31.6776C172.912 32.019 172.723 32.3542 172.375 32.6779L165.56 38.9784C165.367 39.1555 165.249 39.2981 165.208 39.4012C165.166 39.5043 165.201 39.6178 165.316 39.7402C165.685 40.1369 165.642 40.5498 165.18 40.9733C164.927 41.2081 164.625 41.2946 164.275 41.2329C163.924 41.1712 163.588 40.9669 163.269 40.6209C163.002 40.3329 162.811 40.0403 162.697 39.7469C162.584 39.4534 162.535 39.1841 162.554 38.9424C162.572 38.7007 162.644 38.4494 162.774 38.1957C162.903 37.9419 163.052 37.716 163.218 37.517C163.383 37.3179 163.584 37.1113 163.822 36.8919L170.532 30.6853C170.882 30.3625 171.23 30.1986 171.576 30.1934L171.574 30.1986Z" fill="black"/>
<path d="M167.185 40.5828C167.563 40.2908 167.959 40.1091 168.375 40.0351C168.789 39.9638 169.188 39.9815 169.574 40.0918C169.958 40.2011 170.347 40.3896 170.745 40.6522C171.142 40.9147 171.506 41.2122 171.842 41.5464C172.178 41.8806 172.505 42.2531 172.828 42.6686C173.067 42.9759 173.309 43.3228 173.559 43.7112C173.771 43.5471 173.93 43.3988 174.032 43.2652C174.135 43.1317 174.205 42.9743 174.239 42.7884C174.272 42.6026 174.237 42.3916 174.13 42.1536C174.022 41.9157 173.848 41.6351 173.599 41.3152C173.239 40.8538 172.728 40.3776 172.062 39.8885C171.857 39.7122 171.7 39.5534 171.585 39.4073C171.296 39.0343 171.25 38.6711 171.448 38.3125C171.516 38.1928 171.595 38.098 171.688 38.0229C171.809 37.9286 171.994 37.8698 172.233 37.8488C172.472 37.8278 172.787 37.9595 173.171 38.2435C173.99 38.8097 174.699 39.4803 175.299 40.2526C175.973 41.1204 176.391 41.8963 176.558 42.5821C176.725 43.268 176.666 43.8911 176.378 44.4529C176.094 45.0132 175.578 45.5824 174.831 46.1579L171.691 48.5894C171.309 48.8856 170.949 49.0185 170.606 48.9921C170.263 48.9658 169.959 48.7792 169.688 48.4305C169.216 47.824 169.183 47.2734 169.591 46.7883L169.883 46.5505C169.592 46.5935 169.3 46.5952 169.007 46.5547C168.714 46.5142 168.373 46.3791 167.987 46.1503C167.6 45.9215 167.242 45.5997 166.915 45.1797C166.261 44.3372 165.952 43.507 165.988 42.6892C166.024 41.8714 166.423 41.1701 167.183 40.5818L167.185 40.5828ZM168.509 43.4833C168.502 43.8061 168.641 44.1505 168.926 44.5164C169.37 45.0859 169.856 45.3988 170.386 45.456C170.916 45.5131 171.376 45.3906 171.762 45.0927L172.278 44.6921C172.127 44.4676 171.957 44.2363 171.771 43.9958C170.633 42.5305 169.693 42.0849 168.946 42.6631C168.654 42.8895 168.506 43.1628 168.504 43.4788L168.509 43.4833Z" fill="black"/>
<path d="M177.933 45.9364C178.217 45.7607 178.486 45.7064 178.742 45.7746C178.999 45.8429 179.217 46.0213 179.398 46.31L179.729 46.8407L180.731 46.2148C181.135 45.9623 181.505 45.8684 181.842 45.9341C182.177 45.9987 182.463 46.2172 182.697 46.5937C182.932 46.9676 183.003 47.3193 182.912 47.6463C182.82 47.9733 182.574 48.2636 182.169 48.5161L181.167 49.142L181.927 50.355C182.103 50.6391 182.168 50.9116 182.119 51.1742C182.069 51.4368 181.902 51.6559 181.619 51.8353C181.335 52.011 181.065 52.0679 180.805 52.0013C180.545 51.9347 180.326 51.7588 180.145 51.4702L179.385 50.2572L176.744 51.9029C176.046 52.3396 175.605 52.7059 175.419 53.0069C175.234 53.308 175.277 53.6728 175.547 54.1041L175.773 54.4689C176.054 54.9751 176.02 55.3795 175.667 55.6838C175.614 55.732 175.56 55.7715 175.51 55.8032C175.302 55.9332 175.072 55.9695 174.818 55.9136C174.563 55.8577 174.299 55.6804 174.022 55.3823C173.862 55.2286 173.717 55.0447 173.582 54.8322C173.285 54.3553 173.08 53.9157 172.964 53.5089C172.85 53.1031 172.815 52.7262 172.856 52.3835C172.897 52.0407 173.03 51.7054 173.253 51.3828C173.474 51.0566 173.752 50.7542 174.088 50.4731C174.42 50.191 174.841 49.8942 175.347 49.5758L177.943 47.9575L177.61 47.4259C177.429 47.1372 177.368 46.863 177.422 46.605C177.475 46.3408 177.643 46.119 177.925 45.9423L177.933 45.9364Z" fill="black"/>
<path d="M176.681 56.7867L182.214 53.8539C182.635 53.6309 183.013 53.561 183.345 53.6484C183.677 53.7358 183.948 53.9722 184.156 54.3627C184.361 54.7461 184.404 55.1022 184.291 55.4241C184.177 55.7486 183.909 56.0224 183.487 56.2444L177.953 59.1773C177.533 59.4003 177.155 59.4702 176.82 59.3818C176.488 59.2944 176.219 59.059 176.012 58.6746C175.804 58.2841 175.758 57.927 175.872 57.6025C175.987 57.278 176.254 57.0043 176.677 56.7822L176.681 56.7867ZM186.871 51.7916C187.244 51.9058 187.518 52.1344 187.703 52.475C187.884 52.8173 187.919 53.1792 187.808 53.5583C187.698 53.9373 187.469 54.2194 187.126 54.4002C186.779 54.5853 186.418 54.6171 186.04 54.501C185.663 54.3822 185.382 54.1507 185.198 53.8049C185.017 53.4627 184.984 53.1043 185.099 52.7298C185.214 52.3553 185.445 52.0742 185.791 51.8917C186.134 51.7109 186.495 51.679 186.874 51.7926L186.871 51.7916Z" fill="black"/>
<path d="M181.6 59.1399C182.953 58.5731 184.227 58.5742 185.423 59.1469C186.618 59.7196 187.526 60.7417 188.148 62.2144C188.768 63.686 188.864 65.0499 188.437 66.2997C188.01 67.5496 187.117 68.4582 185.763 69.025C184.41 69.5917 183.136 69.5906 181.942 69.0215C180.748 68.4524 179.841 67.4302 179.219 65.9576C178.599 64.4859 178.503 63.1195 178.934 61.868C179.358 60.6172 180.246 59.7066 181.6 59.1399ZM181.1 63.0752C180.816 63.6916 180.836 64.3822 181.157 65.1461C181.469 65.8886 181.948 66.3794 182.597 66.6196C183.246 66.8598 183.945 66.8199 184.699 66.5044C185.453 66.1889 185.972 65.7155 186.253 65.0858C186.533 64.4561 186.52 63.7709 186.208 63.0285C185.886 62.2646 185.407 61.7676 184.765 61.539C184.124 61.3017 183.42 61.3459 182.663 61.663C181.905 61.9827 181.384 62.4526 181.101 63.0726L181.1 63.0752Z" fill="black"/>
<path d="M183.189 71.29L189.233 69.6023C189.692 69.4736 190.075 69.4881 190.382 69.6432C190.689 69.7982 190.901 70.0897 191.023 70.5134C191.183 71.0814 191.057 71.5196 190.648 71.8237C190.385 71.966 190.21 72.0549 190.128 72.09C190.563 72.18 190.991 72.4005 191.412 72.7542C191.832 73.1079 192.131 73.5972 192.308 74.2219C192.671 75.5069 192.575 76.5922 192.023 77.4736C191.472 78.355 190.545 78.9789 189.24 79.3419L185.731 80.3206C185.271 80.4492 184.888 80.4347 184.587 80.2816C184.282 80.1275 184.072 79.8396 183.954 79.4143C183.835 78.989 183.864 78.6326 184.043 78.341C184.222 78.0494 184.54 77.8388 185.002 77.7111L188.511 76.7324C189.948 76.3326 190.486 75.4938 190.128 74.2196C189.771 72.9515 188.874 72.5161 187.439 72.9195L183.93 73.8981C183.471 74.0268 183.088 74.0123 182.786 73.8592C182.481 73.7051 182.271 73.4171 182.153 72.9918C182.035 72.5666 182.064 72.2076 182.242 71.9186C182.42 71.6296 182.739 71.4164 183.198 71.2877L183.189 71.29Z" fill="black"/>
<path d="M186.263 81.5172C186.64 81.6571 186.865 81.9297 186.932 82.3418C186.962 82.5184 186.967 82.7687 186.945 83.0919C186.861 83.9099 186.868 84.6132 186.962 85.1984C187.053 85.7465 187.196 86.1428 187.394 86.3934C187.593 86.6414 187.833 86.7451 188.114 86.6983C188.379 86.6545 188.558 86.4901 188.655 86.2037C188.75 85.9163 188.804 85.4572 188.815 84.8282C188.844 83.4931 189.035 82.4961 189.382 81.8318C189.731 81.1683 190.301 80.773 191.096 80.6441C191.921 80.5118 192.635 80.7349 193.242 81.3142C193.847 81.8962 194.248 82.79 194.447 83.9966C194.61 84.9975 194.649 85.9495 194.561 86.8516C194.524 87.3287 194.409 87.6471 194.215 87.8092C194.019 87.9703 193.849 88.0638 193.694 88.0894C193.559 88.1104 193.41 88.0966 193.251 88.0439C192.817 87.904 192.564 87.597 192.485 87.1274C192.457 86.9632 192.45 86.7743 192.464 86.5605C192.526 85.8261 192.507 85.1566 192.409 84.5494C192.265 83.6712 191.947 83.2752 191.452 83.3553C191.228 83.3908 191.072 83.5489 190.98 83.8311C190.888 84.1107 190.837 84.5119 190.819 85.0345C190.794 85.7026 190.747 86.2681 190.676 86.7327C190.605 87.1973 190.481 87.6278 190.311 88.0233C190.141 88.4187 189.898 88.7311 189.584 88.9612C189.271 89.1912 188.88 89.3424 188.417 89.4165C187.91 89.4979 187.454 89.4564 187.045 89.29C186.635 89.1236 186.292 88.8576 186.011 88.4875C185.73 88.12 185.499 87.6945 185.319 87.2135C185.138 86.7326 184.997 86.1925 184.9 85.5914C184.725 84.5269 184.714 83.5382 184.869 82.6251C184.936 82.1559 185.073 81.8489 185.276 81.702C185.478 81.5551 185.648 81.473 185.783 81.4521C185.941 81.4249 186.101 81.4486 186.265 81.5182L186.263 81.5172Z" fill="black"/>
<path d="M192.047 101.896C192.338 101.646 192.628 101.535 192.92 101.563C193.212 101.591 193.479 101.749 193.724 102.041L198.127 107.252C198.373 107.542 198.481 107.833 198.459 108.124C198.435 108.414 198.276 108.683 197.987 108.928L192.77 113.336C192.479 113.586 192.188 113.7 191.898 113.675C191.605 113.65 191.338 113.489 191.092 113.194L186.699 107.965C186.453 107.676 186.345 107.384 186.366 107.093C186.391 106.804 186.55 106.534 186.839 106.289L192.044 101.898L192.047 101.896Z" fill="#FF5635"/>
<path d="M17.4154 67.6124C17.786 67.7318 18.0289 67.94 18.1484 68.2416C18.2679 68.5432 18.2557 68.9202 18.111 69.3754L15.519 77.4905C15.3742 77.9457 15.1664 78.2592 14.8934 78.4362C14.6205 78.6132 14.2997 78.6394 13.9307 78.5235C13.5601 78.4041 13.3145 78.1949 13.1924 77.8923C13.0703 77.5898 13.0799 77.2118 13.2273 76.7576L14.0905 74.0572L5.56118 71.3319C5.10524 71.1868 4.79523 70.9597 4.62854 70.6495C4.46185 70.3394 4.44574 69.9666 4.58734 69.528C4.72537 69.0911 4.95479 68.7915 5.27367 68.6345C5.58994 68.4764 5.97784 68.4692 6.4302 68.6159L14.9595 71.3412L15.8228 68.6408C15.9676 68.1856 16.1781 67.8731 16.4536 67.6971C16.7291 67.521 17.05 67.4949 17.4215 67.6117L17.4154 67.6124Z" fill="black"/>
<path d="M15.1847 80.3069C15.3913 80.5815 15.4538 80.9329 15.3756 81.3684C15.3002 81.796 15.1154 82.1032 14.8256 82.2858C14.5358 82.4684 14.1552 82.5198 13.6833 82.4339L9.67279 81.7095C9.9917 81.9607 10.2585 82.3286 10.4758 82.8142C10.6905 83.2989 10.7445 83.8573 10.6283 84.4916C10.3908 85.8056 9.83241 86.7377 8.95225 87.2904C8.06949 87.8421 6.96305 87.9975 5.62935 87.7582L2.04353 87.1112C1.57422 87.0262 1.23714 86.8482 1.0287 86.5788C0.823833 86.3078 0.758718 85.9554 0.835963 85.5225C0.914171 85.0871 1.0964 84.7789 1.38361 84.5954C1.67082 84.4118 2.05134 84.3604 2.52064 84.4454L6.10648 85.0924C7.57557 85.3581 8.42564 84.8387 8.66191 83.536C8.89625 82.2384 8.27791 81.4594 6.80882 81.1937L3.22299 80.5467C2.75368 80.4617 2.41564 80.2863 2.20981 80.0178C2.0033 79.7432 1.94078 79.3918 2.01899 78.9563C2.0972 78.5209 2.27943 78.2127 2.56664 78.0292C2.85385 77.8456 3.23437 77.7942 3.70367 77.8792L14.164 79.7664C14.6333 79.8513 14.9756 80.0313 15.1857 80.3043L15.1847 80.3069Z" fill="black"/>
<path d="M4.83738 89.8816C6.30487 89.9516 7.45442 90.5043 8.28793 91.5345C9.12145 92.5647 9.50013 93.8792 9.42494 95.4752C9.34975 97.0712 8.84734 98.3405 7.92387 99.2823C6.99683 100.226 5.80135 100.662 4.33385 100.592C2.86636 100.522 1.71846 99.9728 0.88398 98.9452C0.0495009 97.9175 -0.327538 96.6067 -0.252348 95.0107C-0.177159 93.4146 0.325259 92.1454 1.25326 91.1993C2.17508 90.2538 3.37153 89.8153 4.83806 89.8878L4.83738 89.8816ZM2.69051 93.2161C2.16844 93.6499 1.88698 94.2822 1.84806 95.1078C1.81066 95.9133 2.03328 96.5606 2.514 97.0551C2.99472 97.5495 3.64537 97.817 4.46075 97.8555C5.27874 97.8951 5.94987 97.6909 6.47579 97.2467C7.00268 96.7999 7.28386 96.1763 7.32125 95.3709C7.36114 94.5427 7.1414 93.8875 6.66205 93.4054C6.18201 92.9172 5.533 92.6533 4.70884 92.6144C3.88467 92.5755 3.21286 92.7735 2.69051 93.2161Z" fill="black"/>
<path d="M7.54925 102.56C8.02608 102.52 8.39783 102.605 8.66807 102.811C8.93735 103.02 9.09044 103.343 9.12638 103.783C9.16233 104.222 9.06678 104.568 8.83713 104.82C8.60748 105.072 8.25376 105.219 7.77693 105.259L4.14465 105.562C2.65859 105.686 1.97077 106.408 2.08121 107.726C2.1929 109.034 2.99047 109.625 4.47654 109.5L8.10881 109.197C8.58564 109.158 8.95739 109.242 9.22571 109.454C9.49402 109.666 9.64972 109.99 9.68566 110.429C9.7216 110.868 9.62606 111.214 9.39641 111.466C9.16676 111.719 8.81304 111.866 8.33621 111.905L2.08088 112.426C1.60405 112.466 1.2297 112.38 0.957818 112.17C0.685937 111.96 0.531199 111.634 0.492648 111.194C0.456819 110.778 0.540534 110.472 0.737611 110.276C0.934688 110.079 1.25096 109.921 1.67668 109.804C1.26068 109.647 0.879803 109.355 0.532392 108.925C0.184017 108.497 -0.0166199 107.958 -0.0704789 107.311C-0.182278 105.98 0.116036 104.934 0.821861 104.172C1.53029 103.411 2.56058 102.973 3.90915 102.86L7.54144 102.557L7.54925 102.56Z" fill="black"/>
<path d="M2.79502 114.98C3.17963 115.102 3.41277 115.368 3.498 115.778C3.53364 115.954 3.5485 116.202 3.54065 116.528C3.48966 117.346 3.52232 118.05 3.64156 118.633C3.75149 119.176 3.91207 119.567 4.11875 119.809C4.32639 120.048 4.57039 120.142 4.85268 120.084C5.11548 120.03 5.28894 119.858 5.37304 119.566C5.45715 119.275 5.49134 118.814 5.47821 118.186C5.45615 116.852 5.60378 115.845 5.92534 115.168C6.24691 114.492 6.8019 114.073 7.59291 113.913C8.41054 113.746 9.13467 113.943 9.7646 114.498C10.3936 115.057 10.8313 115.931 11.0748 117.131C11.2792 118.123 11.3541 119.074 11.3012 119.977C11.284 120.456 11.1796 120.778 10.9921 120.948C10.8047 121.118 10.6345 121.218 10.4814 121.247C10.347 121.274 10.1996 121.264 10.0358 121.218C9.59592 121.094 9.3285 120.8 9.23194 120.332C9.19766 120.169 9.18439 119.98 9.18953 119.766C9.22206 119.03 9.17687 118.36 9.05299 117.758C8.87448 116.887 8.53965 116.503 8.04945 116.602C7.82823 116.648 7.67619 116.81 7.59758 117.095C7.51897 117.379 7.47962 117.782 7.48475 118.304C7.48604 118.973 7.46245 119.541 7.40781 120.009C7.35317 120.477 7.24862 120.911 7.09416 121.313C6.93873 121.716 6.71039 122.037 6.4046 122.279C6.09882 122.521 5.71723 122.687 5.2553 122.782C4.75276 122.883 4.29286 122.861 3.88014 122.711C3.46483 122.56 3.1108 122.308 2.81641 121.95C2.52203 121.593 2.27257 121.178 2.0716 120.705C1.87063 120.231 1.71033 119.695 1.58974 119.101C1.37327 118.044 1.32426 117.056 1.43915 116.137C1.48954 115.665 1.61126 115.352 1.80953 115.201C2.00519 115.048 2.17157 114.959 2.30702 114.929C2.46457 114.896 2.62659 114.915 2.79338 114.976L2.79502 114.98Z" fill="black"/>
<path d="M5.94462 124.658C6.39946 124.51 6.83403 124.473 7.24832 124.546C7.66358 124.617 8.03307 124.772 8.35872 125.005C8.68176 125.237 8.98565 125.544 9.2704 125.928C9.55612 126.309 9.79804 126.712 9.99878 127.138C10.1995 127.564 10.3832 128.029 10.5456 128.526C10.6664 128.897 10.7763 129.304 10.8796 129.753C11.1355 129.671 11.3334 129.584 11.477 129.492C11.6197 129.403 11.7381 129.275 11.8338 129.113C11.9296 128.95 11.9663 128.739 11.9465 128.48C11.9277 128.219 11.8546 127.896 11.7298 127.513C11.5473 126.957 11.2289 126.336 10.7648 125.653C10.6317 125.42 10.538 125.217 10.4796 125.038C10.3341 124.591 10.4133 124.233 10.7209 123.962C10.8222 123.873 10.9315 123.81 11.0461 123.772C11.1945 123.724 11.3841 123.732 11.6185 123.795C11.8529 123.858 12.1031 124.087 12.3691 124.481C12.9469 125.289 13.3865 126.159 13.6905 127.091C14.0305 128.133 14.1632 129.008 14.0879 129.707C14.0116 130.41 13.7454 130.977 13.2867 131.407C12.8281 131.838 12.1492 132.199 11.2538 132.489L7.47318 133.713C7.01216 133.862 6.62784 133.867 6.31597 133.725C6.00313 133.586 5.77838 133.305 5.64335 132.885C5.40407 132.154 5.56085 131.627 6.10655 131.305L6.46038 131.182C6.17299 131.126 5.89839 131.027 5.63564 130.888C5.37548 130.751 5.1002 130.51 4.81075 130.163C4.5213 129.816 4.29586 129.393 4.13278 128.889C3.80335 127.874 3.79321 126.988 4.10594 126.232C4.41866 125.475 5.03068 124.95 5.94394 124.652L5.94462 124.658ZM6.20876 127.835C6.09445 128.136 6.10796 128.508 6.25284 128.949C6.47598 129.635 6.82776 130.093 7.30982 130.328C7.78927 130.562 8.26355 130.601 8.72814 130.451L9.35084 130.249C9.28454 129.988 9.20549 129.713 9.1111 129.424C8.53677 127.662 7.79929 126.924 6.90388 127.214C6.55033 127.329 6.32045 127.533 6.21233 127.834L6.20876 127.835Z" fill="black"/>
<path d="M8.52351 136.471L14.2066 133.821C14.6394 133.621 15.019 133.572 15.3489 133.673C15.6778 133.777 15.9343 134.029 16.1219 134.427C16.3719 134.96 16.3195 135.414 15.9665 135.783C15.7294 135.968 15.5719 136.081 15.4974 136.13C15.9416 136.147 16.3992 136.295 16.8727 136.577C17.3472 136.856 17.72 137.29 17.9963 137.88C18.5621 139.089 18.6467 140.174 18.2465 141.135C17.8463 142.096 17.0332 142.86 15.8052 143.432L12.5041 144.969C12.0713 145.17 11.6943 145.22 11.367 145.119C11.0433 145.017 10.7868 144.765 10.5992 144.368C10.4126 143.967 10.3819 143.61 10.5108 143.294C10.6397 142.978 10.9197 142.718 11.3525 142.517L14.6536 140.979C16.0039 140.349 16.3991 139.433 15.8382 138.235C15.279 137.04 14.3246 136.761 12.9717 137.39L9.67057 138.928C9.23777 139.128 8.86081 139.178 8.53353 139.078C8.20982 138.976 7.95334 138.724 7.76575 138.326C7.57911 137.926 7.54844 137.568 7.67731 137.252C7.80617 136.936 8.08618 136.676 8.51898 136.475L8.52351 136.471Z" fill="black"/>
<path d="M16.3799 145.617C17.6014 144.839 18.8162 144.567 20.0208 144.803C21.2254 145.038 22.2315 145.787 23.0424 147.054C23.4257 147.651 23.6147 148.254 23.6163 148.858C23.6179 149.462 23.5142 150.006 23.3078 150.492L26.9084 148.201C27.3113 147.945 27.6819 147.848 28.0219 147.906C28.3611 147.967 28.6469 148.179 28.8812 148.547C29.1197 148.919 29.1936 149.272 29.1038 149.602C29.0167 149.934 28.7707 150.23 28.3677 150.486L19.4174 156.183C19.0145 156.439 18.6439 156.535 18.3039 156.478C17.9647 156.417 17.6772 156.201 17.4387 155.829C17.1006 155.302 17.1025 154.832 17.4393 154.418C17.526 154.32 17.7051 154.165 17.9775 153.949C17.4446 153.956 16.8915 153.825 16.3173 153.559C15.744 153.291 15.2623 152.855 14.8782 152.252C14.0699 150.985 13.8133 149.757 14.1099 148.572C14.4023 147.382 15.1611 146.396 16.3851 145.619L16.3799 145.617ZM16.5746 149.558C16.3801 150.22 16.4968 150.881 16.9211 151.544C17.3411 152.202 17.8922 152.586 18.5727 152.693C19.2531 152.8 19.928 152.642 20.5984 152.216C21.2688 151.789 21.6977 151.247 21.8869 150.584C22.0753 149.923 21.9612 149.262 21.5385 148.603C21.1142 147.94 20.5641 147.553 19.8863 147.447C19.2006 147.339 18.5231 147.496 17.8553 147.923C17.1849 148.349 16.7587 148.893 16.573 149.554L16.5746 149.558Z" fill="black"/>
<path d="M21.2695 158.119C21.6665 158.048 21.9991 158.174 22.2647 158.497C22.3799 158.634 22.5074 158.85 22.6554 159.138C22.9943 159.888 23.352 160.491 23.7318 160.953C24.0853 161.383 24.4089 161.654 24.7041 161.769C24.9992 161.884 25.2595 161.853 25.4807 161.672C25.6883 161.503 25.7601 161.269 25.6985 160.972C25.6359 160.676 25.4517 160.253 25.1434 159.701C24.4972 158.533 24.1589 157.574 24.125 156.825C24.0912 156.076 24.3866 155.446 25.0078 154.936C25.6543 154.407 26.3848 154.242 27.2003 154.441C28.0158 154.639 28.814 155.212 29.5905 156.156C30.2342 156.939 30.7454 157.743 31.124 158.57C31.3316 159.001 31.392 159.334 31.307 159.572C31.2194 159.809 31.1155 159.977 30.9963 160.075C30.8897 160.163 30.7551 160.223 30.5914 160.257C30.1444 160.352 29.7708 160.216 29.4663 159.846C29.3596 159.718 29.2593 159.557 29.1644 159.365C28.8484 158.698 28.4932 158.128 28.1033 157.653C27.5364 156.967 27.0624 156.782 26.6751 157.1C26.4998 157.246 26.4446 157.459 26.5065 157.748C26.5693 158.034 26.7269 158.409 26.974 158.87C27.289 159.46 27.5344 159.974 27.704 160.412C27.8762 160.852 27.9862 161.283 28.0374 161.713C28.0895 162.141 28.0365 162.532 27.8808 162.889C27.7252 163.245 27.465 163.572 27.1029 163.87C26.7065 164.196 26.2889 164.388 25.8545 164.449C25.4174 164.509 24.985 164.452 24.5591 164.274C24.1297 164.097 23.7168 163.844 23.3185 163.519C22.9203 163.194 22.5278 162.797 22.1395 162.325C21.4527 161.491 20.9465 160.641 20.6184 159.774C20.441 159.333 20.4043 159 20.5066 158.772C20.6089 158.543 20.7141 158.387 20.8197 158.302C20.9434 158.2 21.094 158.137 21.2705 158.117L21.2695 158.119Z" fill="black"/>
<path d="M33.3324 167.557C34.2895 166.444 35.4294 165.878 36.7531 165.856C38.0767 165.834 39.349 166.344 40.5627 167.388C41.7773 168.429 42.4708 169.605 42.6501 170.914C42.8294 172.223 42.437 173.435 41.4808 174.545C40.5247 175.655 39.3864 176.225 38.0618 176.249C36.7372 176.274 35.4711 175.764 34.2564 174.722C33.0418 173.681 32.3457 172.504 32.1683 171.19C31.9864 169.88 32.3753 168.669 33.3315 167.559L33.3324 167.557ZM34.6489 171.301C34.6701 171.98 34.9986 172.589 35.6281 173.13C36.2397 173.655 36.8882 173.88 37.5746 173.803C38.26 173.729 38.8689 173.38 39.4031 172.762C39.9347 172.142 40.1861 171.487 40.1565 170.798C40.1268 170.11 39.8062 169.503 39.1946 168.978C38.565 168.438 37.9123 168.208 37.2363 168.289C36.5561 168.365 35.9498 168.715 35.4137 169.339C34.8776 169.962 34.6235 170.617 34.6499 171.298L34.6489 171.301Z" fill="black"/>
<path d="M44.615 172.354C44.8032 172.078 45.0297 171.922 45.2965 171.882C45.5633 171.841 45.8316 171.917 46.1086 172.105L46.6478 172.474L46.7899 172.266C47.0934 171.822 47.393 171.445 47.6923 171.133C47.9916 170.821 48.3155 170.562 48.6614 170.356C49.0074 170.149 49.3631 170.021 49.7251 169.972C50.0871 169.922 50.4798 169.958 50.8979 170.077C51.3186 170.198 51.7521 170.411 52.202 170.717C52.3886 170.845 52.603 171.01 52.8381 171.215C53.2185 171.525 53.428 171.815 53.466 172.081C53.5031 172.349 53.457 172.577 53.3269 172.769C53.2807 172.838 53.2222 172.908 53.1533 172.974C52.7502 173.342 52.2869 173.345 51.7561 172.986C51.7156 172.959 51.6778 172.933 51.6374 172.907C51.5632 172.835 51.4861 172.771 51.4078 172.718C50.956 172.418 50.5655 172.344 50.2404 172.502C49.9128 172.659 49.5103 173.089 49.0279 173.792L48.8859 174L50.0995 174.828C50.3807 175.021 50.5493 175.246 50.6078 175.504C50.6662 175.762 50.5996 176.03 50.4114 176.307C50.2231 176.583 49.9956 176.742 49.7331 176.786C49.468 176.83 49.1961 176.756 48.9149 176.563L47.7012 175.735L44.5219 180.394C44.2516 180.788 43.9539 181.024 43.6226 181.103C43.2913 181.181 42.9443 181.094 42.577 180.846C42.2122 180.598 42.0037 180.305 41.9513 179.966C41.8989 179.628 42.0074 179.263 42.2777 178.869L45.457 174.21L44.9177 173.841C44.6365 173.649 44.468 173.424 44.4157 173.165C44.3565 172.9 44.4205 172.631 44.6088 172.355L44.615 172.354Z" fill="black"/>
<path d="M55.346 181.387C55.7245 180.524 56.2168 179.787 56.8222 179.168C57.4266 178.552 58.1089 178.085 58.8646 177.765C59.6204 177.444 60.4609 177.302 61.3846 177.337C62.3082 177.371 63.2494 177.598 64.2054 178.017C65.1615 178.436 65.9643 178.973 66.6139 179.627C67.2635 180.282 67.7248 180.997 68.0024 181.768C68.2799 182.539 68.3977 183.358 68.354 184.22C68.3104 185.082 68.1006 185.945 67.7221 186.808C67.2969 187.78 66.7283 188.596 66.0187 189.257C65.3082 189.919 64.5014 190.378 63.6009 190.633L63.7049 190.953C63.8151 191.295 63.8153 191.591 63.7079 191.841C63.7021 191.857 63.6609 191.936 63.5903 192.079C63.5198 192.221 63.3259 192.321 63.0117 192.385C62.7703 192.429 62.5556 192.408 62.364 192.326C62.0199 192.175 61.77 191.857 61.6167 191.375L61.4493 190.842C60.6081 190.785 59.7503 190.566 58.8731 190.182C57.917 189.763 57.1115 189.225 56.4603 188.567C55.8081 187.911 55.3442 187.195 55.0667 186.424C54.7891 185.653 54.6714 184.835 54.715 183.972C54.756 183.109 54.9684 182.247 55.3469 181.384L55.346 181.387ZM57.9949 182.548C57.4739 183.739 57.3653 184.817 57.6769 185.784C57.985 186.753 58.7068 187.485 59.8389 187.981C60.0911 188.092 60.3473 188.16 60.6083 188.192L60.4952 187.801C60.4182 187.544 60.4284 187.309 60.5242 187.09C60.5348 187.061 60.5787 186.983 60.6551 186.848C60.7279 186.715 60.9183 186.617 61.2201 186.555C61.4615 186.511 61.672 186.527 61.8522 186.608C62.1304 186.729 62.3389 186.998 62.4794 187.411L62.7332 188.126C63.733 187.763 64.5146 186.94 65.081 185.65C65.5991 184.466 65.7051 183.388 65.398 182.416C65.0909 181.445 64.3726 180.711 63.2474 180.221C62.1154 179.725 61.0906 179.692 60.1722 180.124C59.2495 180.551 58.5263 181.36 58.0027 182.551L57.9949 182.548Z" fill="black"/>
<path d="M70.2103 186.081C70.3385 185.623 70.5483 185.304 70.8372 185.124C71.126 184.944 71.4829 184.917 71.9072 185.035C72.3315 185.154 72.6235 185.366 72.7807 185.669C72.938 185.973 72.9512 186.354 72.822 186.815L71.8398 190.317C71.4367 191.75 71.8745 192.649 73.1499 193.005C74.4139 193.361 75.2479 192.821 75.651 191.387L76.6333 187.885C76.7615 187.427 76.9713 187.108 77.2628 186.929C77.5542 186.75 77.9137 186.723 78.338 186.842C78.7623 186.961 79.0543 187.172 79.2106 187.479C79.3678 187.782 79.381 188.163 79.2519 188.624L77.5577 194.658C77.4296 195.116 77.2188 195.437 76.9264 195.619C76.6339 195.8 76.2735 195.83 75.8492 195.711C75.4467 195.598 75.189 195.413 75.0733 195.158C74.9576 194.902 74.9204 194.554 74.9567 194.112C74.6647 194.444 74.2565 194.699 73.7332 194.872C73.2089 195.047 72.6349 195.045 72.0094 194.87C70.721 194.508 69.8435 193.861 69.375 192.933C68.9074 192.003 68.8555 190.886 69.2219 189.584L70.2042 186.082L70.2103 186.081Z" fill="black"/>
<path d="M80.5998 192.075C80.6958 191.415 80.8892 190.812 81.1854 190.268C81.4816 189.724 81.8595 189.264 82.3227 188.885C82.7858 188.506 83.3448 188.237 84.0015 188.072C84.6572 187.909 85.3692 187.883 86.1401 187.994C87.47 188.187 88.5099 188.732 89.2589 189.63C90.0104 190.53 90.314 191.639 90.1711 192.961C90.1673 192.972 90.1687 192.984 90.1664 192.998C90.0239 193.983 89.4794 194.406 88.5344 194.269L83.1719 193.491C83.1141 193.975 83.2694 194.42 83.6345 194.819C84.0023 195.218 84.5576 195.471 85.3021 195.581C86.0414 195.689 86.7394 195.66 87.3961 195.495C87.7227 195.454 87.9805 195.445 88.1695 195.471C88.5353 195.524 88.7736 195.712 88.8854 196.035C88.9519 196.207 88.9722 196.369 88.9505 196.523C88.9323 196.653 88.8586 196.812 88.732 197.001C88.6055 197.191 88.3301 197.335 87.904 197.437C86.9622 197.692 85.9121 197.735 84.7563 197.568C84.1124 197.474 83.535 197.305 83.0243 197.06C82.5136 196.814 82.0907 196.516 81.7548 196.167C81.4188 195.818 81.1502 195.422 80.9501 194.979C80.7489 194.537 80.6215 194.073 80.5678 193.586C80.514 193.099 80.5249 192.597 80.5988 192.077L80.5998 192.075ZM83.4362 191.672L87.6901 192.291C87.7346 191.731 87.6002 191.238 87.2888 190.806C86.9775 190.374 86.4963 190.113 85.8471 190.018C85.198 189.923 84.6623 190.041 84.2396 190.366C83.8194 190.693 83.5513 191.129 83.4362 191.672Z" fill="black"/>
<path d="M91.9289 196.41C92.1369 196.064 92.4473 195.898 92.8662 195.911C93.0454 195.915 93.2927 195.959 93.6066 196.04C94.3927 196.278 95.0856 196.407 95.6836 196.424C96.2378 196.44 96.6583 196.377 96.9382 196.229C97.2181 196.081 97.3656 195.867 97.374 195.58C97.3818 195.311 97.254 195.104 96.9889 194.955C96.7238 194.807 96.2835 194.668 95.6664 194.534C94.3614 194.249 93.4153 193.875 92.8274 193.406C92.2421 192.938 91.9594 192.301 91.9844 191.497C92.0087 190.663 92.3648 190.005 93.0502 189.522C93.7356 189.039 94.6895 188.816 95.9146 188.852C96.9289 188.882 97.87 189.029 98.7408 189.286C99.2034 189.413 99.494 189.588 99.617 189.808C99.7391 190.031 99.7972 190.218 99.7931 190.374C99.7895 190.511 99.7463 190.652 99.6651 190.799C99.443 191.199 99.0966 191.391 98.6189 191.376C98.452 191.371 98.2639 191.343 98.0565 191.287C97.3457 191.086 96.6838 190.977 96.0682 190.959C95.1777 190.931 94.7279 191.17 94.7118 191.669C94.7054 191.895 94.8321 192.081 95.0904 192.224C95.3486 192.366 95.7339 192.494 96.2443 192.612C96.897 192.762 97.444 192.917 97.888 193.079C98.3329 193.237 98.7326 193.439 99.0895 193.683C99.4464 193.928 99.7077 194.223 99.8739 194.574C100.04 194.925 100.117 195.335 100.102 195.806C100.088 196.318 99.9599 196.759 99.7195 197.129C99.479 197.498 99.1507 197.785 98.7371 197.989C98.3235 198.194 97.8608 198.339 97.3543 198.427C96.8478 198.515 96.2877 198.547 95.6808 198.529C94.5998 198.496 93.6254 198.319 92.7586 197.995C92.31 197.838 92.0314 197.646 91.9289 197.419C91.8263 197.191 91.775 197.01 91.7786 196.872C91.7846 196.712 91.8353 196.559 91.9341 196.412L91.9289 196.41Z" fill="black"/>
<path d="M101.453 190.219C101.429 189.885 101.509 189.621 101.69 189.428C101.871 189.235 102.131 189.124 102.469 189.101L103.095 189.058L103.013 187.88C102.979 187.403 103.068 187.034 103.285 186.768C103.499 186.501 103.827 186.353 104.267 186.324C104.707 186.295 105.052 186.396 105.298 186.629C105.544 186.862 105.684 187.218 105.719 187.692L105.801 188.871L107.23 188.773C107.563 188.748 107.834 188.822 108.045 188.988C108.255 189.158 108.37 189.407 108.396 189.739C108.42 190.074 108.34 190.337 108.16 190.536C107.979 190.736 107.72 190.844 107.379 190.868L105.95 190.967L106.17 194.071C106.228 194.891 106.348 195.456 106.526 195.758C106.707 196.062 107.048 196.197 107.556 196.163L107.985 196.133C108.563 196.122 108.905 196.343 109.01 196.796C109.028 196.868 109.038 196.931 109.042 196.991C109.058 197.234 108.983 197.455 108.815 197.653C108.647 197.851 108.366 198.001 107.971 198.106C107.76 198.173 107.53 198.218 107.28 198.235C106.721 198.274 106.236 198.248 105.822 198.157C105.408 198.066 105.061 197.923 104.777 197.723C104.495 197.524 104.261 197.251 104.076 196.901C103.894 196.553 103.756 196.165 103.663 195.737C103.569 195.309 103.503 194.799 103.46 194.204L103.244 191.154L102.617 191.197C102.277 191.219 102.008 191.146 101.804 190.976C101.595 190.804 101.478 190.553 101.456 190.22L101.453 190.219Z" fill="black"/>
<path d="M110.024 184.802C110.258 184.492 110.565 184.31 110.948 184.253C111.33 184.197 111.685 184.287 112.004 184.52C112.326 184.755 112.512 185.063 112.569 185.445C112.626 185.836 112.534 186.187 112.296 186.501C112.059 186.815 111.744 187 111.356 187.058C110.97 187.113 110.622 187.023 110.308 186.788C109.995 186.554 109.808 186.242 109.751 185.852C109.695 185.467 109.786 185.119 110.022 184.801L110.024 184.802ZM111.307 196.073L110.403 189.879C110.335 189.407 110.398 189.028 110.589 188.744C110.78 188.46 111.099 188.288 111.534 188.224C111.966 188.162 112.313 188.24 112.58 188.457C112.846 188.674 113.014 189.02 113.083 189.492L113.987 195.687C114.055 196.158 113.992 196.537 113.798 196.821C113.605 197.104 113.291 197.278 112.859 197.34C112.421 197.402 112.071 197.326 111.804 197.109C111.538 196.892 111.37 196.546 111.301 196.074L111.307 196.073Z" fill="black"/>
<path d="M115.737 192.359C115.388 190.934 115.592 189.679 116.344 188.591C117.096 187.503 118.25 186.77 119.803 186.393C121.357 186.015 122.719 186.138 123.887 186.76C125.056 187.381 125.815 188.405 126.162 189.829C126.511 191.254 126.31 192.51 125.557 193.598C124.808 194.687 123.655 195.417 122.101 195.794C120.548 196.172 119.184 196.048 118.013 195.426C116.842 194.809 116.082 193.788 115.734 192.361L115.737 192.359ZM119.549 193.477C120.114 193.855 120.8 193.946 121.607 193.751C122.389 193.561 122.95 193.165 123.289 192.563C123.626 191.963 123.698 191.265 123.505 190.472C123.31 189.678 122.926 189.092 122.348 188.716C121.77 188.339 121.091 188.245 120.307 188.434C119.503 188.63 118.935 189.026 118.606 189.62C118.273 190.216 118.204 190.915 118.399 191.715C118.595 192.515 118.979 193.103 119.551 193.478L119.549 193.477Z" fill="black"/>
<path d="M129.419 192.043L127.15 186.199C126.977 185.753 126.952 185.371 127.079 185.051C127.204 184.731 127.474 184.491 127.885 184.332C128.435 184.119 128.884 184.202 129.23 184.582C129.398 184.83 129.5 184.995 129.545 185.074C129.593 184.633 129.77 184.187 130.082 183.735C130.392 183.282 130.851 182.94 131.459 182.706C132.707 182.224 133.794 182.216 134.728 182.68C135.661 183.144 136.37 184.006 136.86 185.27L138.178 188.666C138.351 189.111 138.376 189.49 138.25 189.807C138.127 190.123 137.858 190.361 137.446 190.521C137.035 190.68 136.674 190.685 136.368 190.536C136.062 190.388 135.819 190.091 135.649 189.646L134.331 186.251C133.79 184.862 132.905 184.404 131.667 184.88C130.436 185.356 130.092 186.288 130.632 187.677L131.95 191.072C132.123 191.518 132.149 191.897 132.022 192.214C131.9 192.53 131.631 192.767 131.219 192.928C130.808 193.087 130.447 193.092 130.141 192.943C129.832 192.793 129.592 192.497 129.419 192.052L129.419 192.043Z" fill="black"/>
<path d="M140.422 187.26C140.432 186.859 140.62 186.558 140.991 186.365C141.149 186.281 141.385 186.197 141.697 186.114C142.498 185.935 143.164 185.705 143.693 185.427C144.183 185.168 144.517 184.907 144.69 184.64C144.863 184.373 144.885 184.114 144.748 183.86C144.623 183.621 144.409 183.503 144.105 183.506C143.803 183.507 143.35 183.602 142.749 183.791C141.474 184.186 140.466 184.325 139.724 184.207C138.983 184.089 138.426 183.673 138.049 182.96C137.659 182.221 137.643 181.472 138.001 180.714C138.358 179.957 139.078 179.291 140.16 178.722C141.058 178.25 141.948 177.911 142.832 177.708C143.296 177.59 143.636 177.601 143.851 177.733C144.065 177.866 144.211 178.003 144.282 178.138C144.346 178.26 144.379 178.405 144.379 178.571C144.385 179.028 144.177 179.366 143.754 179.588C143.607 179.666 143.429 179.73 143.221 179.787C142.504 179.962 141.874 180.193 141.329 180.479C140.542 180.892 140.267 181.323 140.501 181.764C140.608 181.964 140.808 182.064 141.102 182.061C141.397 182.057 141.796 181.98 142.296 181.831C142.937 181.643 143.491 181.507 143.953 181.427C144.418 181.348 144.865 181.327 145.296 181.362C145.727 181.398 146.099 181.529 146.416 181.753C146.734 181.977 147.003 182.299 147.222 182.714C147.463 183.167 147.568 183.614 147.541 184.054C147.515 184.493 147.369 184.904 147.111 185.288C146.851 185.67 146.521 186.025 146.123 186.348C145.724 186.673 145.256 186.976 144.719 187.259C143.762 187.763 142.828 188.086 141.912 188.232C141.445 188.316 141.109 188.287 140.906 188.138C140.703 187.991 140.572 187.857 140.507 187.735C140.433 187.592 140.403 187.433 140.417 187.258L140.422 187.26Z" fill="black"/>
<path d="M148.384 171.73C148.091 171.352 147.966 170.987 148.011 170.633C148.057 170.278 148.263 169.952 148.643 169.661L151.929 167.109C153.153 166.157 154.345 165.681 155.5 165.683C156.658 165.683 157.664 166.232 158.524 167.334C159.115 168.091 159.412 168.873 159.416 169.679C159.42 170.485 159.209 171.176 158.78 171.751L162 173.058C162.294 173.184 162.522 173.352 162.684 173.556C162.755 173.645 162.836 173.802 162.929 174.023C163.022 174.243 162.969 174.531 162.766 174.885C162.666 175.067 162.534 175.225 162.364 175.357C161.931 175.694 161.412 175.736 160.804 175.481L156.797 173.833L154.834 175.359L156.716 177.775C157.009 178.152 157.139 178.514 157.101 178.864C157.063 179.214 156.863 179.53 156.502 179.81C156.139 180.093 155.782 180.209 155.43 180.159C155.078 180.111 154.757 179.898 154.463 179.523L148.387 171.731L148.384 171.73ZM151.211 170.715L153.451 173.588L155.647 171.881C156.796 170.987 156.996 170.061 156.247 169.1C155.501 168.144 154.556 168.113 153.407 169.007L151.211 170.715Z" fill="black"/>
<path d="M162.275 169.282C161.8 168.81 161.431 168.295 161.168 167.733C160.905 167.171 160.761 166.592 160.729 165.997C160.698 165.4 160.814 164.79 161.072 164.166C161.329 163.543 161.734 162.953 162.278 162.403C163.223 161.452 164.281 160.941 165.449 160.873C166.618 160.806 167.693 161.225 168.672 162.125C168.68 162.135 168.689 162.144 168.698 162.15C169.407 162.853 169.425 163.54 168.754 164.217L164.942 168.056C165.297 168.392 165.746 168.532 166.286 168.474C166.826 168.417 167.361 168.124 167.891 167.589C168.415 167.062 168.806 166.485 169.067 165.86C169.227 165.573 169.374 165.361 169.506 165.227C169.766 164.965 170.06 164.884 170.385 164.99C170.562 165.04 170.707 165.121 170.815 165.229C170.908 165.322 170.993 165.475 171.071 165.69C171.148 165.905 171.1 166.213 170.93 166.614C170.577 167.522 169.986 168.389 169.163 169.22C168.705 169.68 168.224 170.043 167.724 170.305C167.223 170.569 166.731 170.73 166.249 170.791C165.767 170.853 165.289 170.832 164.814 170.73C164.339 170.629 163.889 170.453 163.467 170.208C163.043 169.96 162.647 169.653 162.271 169.283L162.275 169.282ZM163.636 166.766L166.659 163.72C166.236 163.351 165.758 163.162 165.226 163.157C164.695 163.15 164.198 163.38 163.736 163.845C163.274 164.31 163.05 164.81 163.063 165.344C163.075 165.878 163.267 166.351 163.635 166.768L163.636 166.766Z" fill="black"/>
<path d="M171.64 162.183C171.263 161.89 170.988 161.551 170.813 161.167C170.638 160.783 170.558 160.392 170.569 159.994C170.58 159.596 170.663 159.171 170.82 158.723C170.974 158.275 171.173 157.849 171.413 157.441C171.652 157.035 171.935 156.625 172.256 156.212C172.494 155.906 172.77 155.585 173.085 155.246C172.873 155.082 172.688 154.966 172.533 154.897C172.378 154.828 172.206 154.803 172.018 154.816C171.829 154.829 171.634 154.916 171.429 155.077C171.224 155.238 170.998 155.48 170.75 155.799C170.392 156.261 170.059 156.874 169.752 157.639C169.633 157.879 169.517 158.073 169.404 158.217C169.115 158.589 168.773 158.723 168.378 158.621C168.245 158.587 168.133 158.53 168.038 158.46C167.916 158.364 167.813 158.202 167.734 157.975C167.655 157.747 167.703 157.41 167.882 156.967C168.226 156.036 168.701 155.185 169.301 154.414C169.974 153.548 170.622 152.95 171.245 152.619C171.869 152.288 172.488 152.192 173.104 152.328C173.719 152.467 174.4 152.823 175.145 153.403L178.287 155.841C178.67 156.136 178.89 156.454 178.949 156.79C179.009 157.126 178.903 157.468 178.631 157.817C178.161 158.424 177.637 158.591 177.062 158.319L176.76 158.094C176.876 158.365 176.949 158.647 176.98 158.939C177.014 159.233 176.969 159.595 176.844 160.028C176.719 160.461 176.495 160.883 176.17 161.304C175.514 162.147 174.786 162.649 173.984 162.817C173.181 162.984 172.4 162.772 171.64 162.183ZM174.122 160.185C174.436 160.112 174.737 159.892 175.021 159.524C175.464 158.954 175.646 158.407 175.569 157.878C175.492 157.35 175.26 156.936 174.873 156.636L174.357 156.235C174.18 156.435 173.997 156.658 173.81 156.896C172.673 158.359 172.476 159.381 173.222 159.959C173.515 160.185 173.815 160.261 174.126 160.184L174.122 160.185Z" fill="black"/>
<path d="M177.12 152.126C175.869 151.391 175.074 150.434 174.735 149.258C174.395 148.08 174.607 146.844 175.367 145.55C175.727 144.937 176.176 144.494 176.716 144.221C177.255 143.947 177.787 143.792 178.314 143.753L174.631 141.592C174.219 141.35 173.964 141.064 173.863 140.736C173.763 140.407 173.822 140.056 174.043 139.682C174.266 139.303 174.546 139.075 174.883 139.005C175.22 138.935 175.596 139.017 176.006 139.261L185.163 144.638C185.574 144.879 185.83 145.166 185.933 145.494C186.034 145.824 185.974 146.178 185.75 146.559C185.432 147.098 185.012 147.312 184.49 147.199C184.363 147.167 184.144 147.08 183.827 146.933C184.077 147.404 184.213 147.957 184.237 148.587C184.261 149.22 184.09 149.843 183.728 150.46C182.967 151.755 181.99 152.538 180.795 152.812C179.599 153.091 178.376 152.863 177.125 152.128L177.12 152.126ZM180.547 150.167C181.226 150.04 181.762 149.638 182.162 148.958C182.557 148.285 182.648 147.621 182.434 146.967C182.219 146.314 181.77 145.784 181.086 145.383C180.401 144.982 179.72 144.845 179.044 144.976C178.367 145.107 177.83 145.509 177.436 146.182C177.037 146.86 176.945 147.524 177.157 148.176C177.372 148.835 177.822 149.366 178.506 149.767C179.19 150.168 179.87 150.301 180.545 150.166L180.547 150.167Z" fill="black"/>
<path d="M179.989 139.62C179.645 139.381 179.489 139.033 179.53 138.578C179.551 138.378 179.585 138.222 179.633 138.107C179.866 137.566 180.416 137.314 181.281 137.354L186.702 137.526L182.836 133.729C182.21 133.131 182.013 132.558 182.249 132.009C182.298 131.894 182.388 131.762 182.519 131.609C182.819 131.271 183.103 131.127 183.365 131.18C183.628 131.23 183.816 131.282 183.926 131.329C184.212 131.452 184.477 131.657 184.724 131.943L191.945 139.532C192.438 140.049 192.772 140.554 192.945 141.05C193.119 141.546 193.1 142.104 192.884 142.725C192.843 142.837 192.804 142.944 192.759 143.04C192.699 143.177 192.64 143.306 192.574 143.427C192.371 143.84 192.125 144.121 191.833 144.27C191.54 144.419 191.271 144.444 191.025 144.338C190.938 144.3 190.849 144.246 190.754 144.173C190.373 143.866 190.303 143.432 190.544 142.868C190.559 142.829 190.579 142.789 190.596 142.745C190.629 142.695 190.662 142.636 190.689 142.572C190.706 142.528 190.722 142.484 190.739 142.437C190.781 142.293 190.792 142.158 190.772 142.029C190.751 141.9 190.694 141.767 190.597 141.627C190.501 141.488 190.41 141.374 190.323 141.28C190.235 141.189 190.104 141.054 189.925 140.882L188.999 139.95L181.291 139.954C180.915 139.969 180.585 139.915 180.307 139.794C180.197 139.747 180.091 139.688 179.991 139.621L179.989 139.62Z" fill="black"/>
</svg>
