<svg width="295" height="236" viewBox="0 0 295 236" fill="none" xmlns="http://www.w3.org/2000/svg">
<g clip-path="url(#clip0_181_1585)">
<path d="M108.65 89.6679C108.596 88.8777 108.822 88.0713 109.347 87.4046C110.474 85.9799 112.54 85.7434 113.956 86.867C115.378 87.996 115.614 90.0604 114.493 91.4851C113.366 92.9097 111.306 93.1463 109.884 92.0227C109.133 91.4259 108.709 90.5604 108.65 89.6679Z" fill="white"/>
<path d="M26.888 67.578L13.3088 74.1435L16.2401 80.2297L29.8193 73.6642L26.888 67.578Z" fill="#F69282"/>
<path d="M213.758 43.0841L213.377 47.4387L193.24 45.6861L193.621 41.3261L213.758 43.0841Z" fill="#F69282"/>
<path d="M194.329 20.1335C193.975 21.3055 193.428 22.3968 192.693 23.3807C190.911 25.7515 188.169 27.2998 184.682 27.9342C184.977 22.1065 185.175 18.2196 185.175 18.2196C188.067 18.9454 191.147 19.5744 194.329 20.1281V20.1335Z" fill="white"/>
<path d="M173.891 53.433C176.729 55.1265 177.663 58.7984 175.978 61.6423C174.288 64.4863 170.623 65.4217 167.785 63.7283C164.946 62.0402 164.018 58.3629 165.703 55.519C167.393 52.675 171.058 51.7449 173.896 53.433H173.891Z" fill="#FF5635"/>
<path d="M197.624 27.0955C195.493 29.9395 191.501 33.3641 184.37 34.235C183.775 34.3103 183.152 34.364 182.508 34.4017C179.294 34.5791 175.082 35.3532 173.263 38.0305C171.536 40.5734 172.555 43.9872 172.566 44.0195C173.102 45.6377 172.228 47.3849 170.613 47.9226C169.727 48.2182 168.805 48.0892 168.064 47.643C167.452 47.2774 166.959 46.6968 166.712 45.9603C166.631 45.7076 164.689 39.6702 168.166 34.5468C170.768 30.719 175.479 28.5955 182.17 28.2245C183.045 28.1761 183.887 28.0794 184.682 27.9342C188.175 27.2998 190.916 25.7461 192.693 23.3807C193.428 22.3968 193.975 21.3001 194.329 20.1335C194.903 18.268 194.973 16.2251 194.506 14.2037C193.524 9.94042 189.623 6.82766 185.224 6.7954C179.59 6.75777 177.61 12.0747 177.588 12.1285C177.014 13.7359 175.243 14.5639 173.644 13.9886C172.045 13.4134 171.214 11.6393 171.788 10.0372C171.927 9.65011 175.318 0.553748 185.266 0.618261C192.483 0.666646 198.901 5.80082 200.516 12.8166C201.16 15.6068 201.122 18.4347 200.467 21.0797C199.931 23.2463 198.97 25.2892 197.624 27.0902V27.0955Z" fill="#FF5635"/>
<path d="M236.396 23.757L249.376 38.5681L235.049 39.2455L236.396 23.757Z" fill="#F7F7F5"/>
<path d="M49.5306 54.218L40.6021 60.1263L35.5691 49.6805H35.5745L49.5306 54.218Z" fill="#F7F7F5"/>
<path d="M60.938 74.1794C69.3943 86.8885 74.5346 102.415 74.5346 102.415C74.5346 102.415 67.8543 105.28 56.8064 110.984C45.7585 116.688 28.9156 124.462 28.9156 124.462C27.9605 117.634 20.8563 103.759 14.5624 92.0119C8.26305 80.2598 0.622314 65.7067 0.622314 65.7067C12.341 62.1907 26.6352 54.7179 35.5744 49.6805L40.6074 60.1263L49.5359 54.218C52.4656 59.879 55.642 66.2067 60.9433 74.1794H60.938ZM29.8224 73.6633L26.8927 67.5776L13.3122 74.1418L16.2418 80.2275L29.8224 73.6633Z" fill="white"/>
<path d="M235.049 39.2455L249.376 38.5628C248.882 47.0946 248.211 56.5566 248.877 69.3839C249.934 89.8292 245.239 111.242 245.239 111.242C245.239 111.242 235.575 109.968 218.952 108.952C202.324 107.941 177.604 105.345 177.604 105.345C181.183 96.8289 182.476 75.9589 183.254 58.1049C183.598 50.2074 184.022 41.4981 184.37 34.235C191.501 33.3641 195.493 29.9341 197.624 27.0955C198.976 25.2945 199.931 23.2516 200.467 21.0851C213.179 22.8538 226.732 23.515 236.391 23.7516L235.044 39.2455H235.049ZM213.377 47.4387L213.753 43.084L193.621 41.3261L193.24 45.6861L213.377 47.4387Z" fill="white"/>
<path d="M148.747 187.814C145.27 189.126 143.167 190.196 140.066 190.964C138.07 191.459 135.661 191.825 132.2 192.045C130.601 192.147 128.374 192.174 125.707 192.142C121.034 192.083 115.035 191.857 108.784 191.545C102.699 191.249 96.3837 190.878 90.8195 190.529C90.9697 189.018 91.179 187.212 91.4204 185.174C91.9946 180.309 92.7243 174.126 93.1911 167.465C94.5272 148.241 93.5989 125.118 79.954 118.78C74.7761 116.371 68.6216 116.876 63.8891 120.081C62.8482 120.785 61.8662 121.597 60.9326 122.516C61.0775 122.306 65.0052 116.871 75.8009 114.893C75.8439 114.882 75.8868 114.876 75.9351 114.866C78.0975 114.559 88.9898 113.721 98.2993 126.118C101.025 129.747 103.611 134.505 105.8 140.741C106.847 143.719 107.807 147.036 108.644 150.724C112.593 151.525 118.657 152.515 125.181 152.676C130.912 152.821 137.002 152.337 142.314 150.542C143.103 150.278 143.875 149.988 144.627 149.66C145.786 158.611 146.247 170.524 147.492 180.266C147.841 182.992 148.248 185.545 148.753 187.819L148.747 187.814Z" fill="#050914"/>
<path d="M98.9272 29.3965C98.9272 29.3965 98.7931 23.7516 101.438 23.757C104.084 23.757 104.03 32.4179 104.03 32.4179C104.03 32.4179 144.493 19.2196 140.678 63.1477C138.918 59.0081 136.863 54.8308 134.845 50.8203C134.657 50.4493 134.475 50.0784 134.292 49.7128C129.056 39.3584 122.016 37.8155 117.154 38.2563C117.332 42.4819 116.586 50.745 110.308 61.5348C108.628 64.4164 106.563 67.4754 104.003 70.6903C97.0439 69.4753 92.9445 75.7331 94.6025 81.2275C95.7024 84.8832 99.936 89.1303 105.506 89.7217L105.495 89.8024C108.65 108.882 106.702 115.21 86.9993 114.237C85.2018 114.151 83.517 114.145 81.9395 114.21C81.9395 114.21 84.5901 107.355 82.1755 73.0827C79.7663 38.8101 96.6522 36.8478 96.6522 36.8478C96.6522 36.8478 91.4099 27.7837 94.2322 26.3752C95.5576 25.7139 97.3765 27.4074 98.9272 29.3911V29.3965Z" fill="black"/>
<path d="M135.934 106.904V106.877C135.934 106.877 135.285 102.64 138.027 100.393C138.472 100.028 138.982 99.7697 139.518 99.6406C140.742 99.3449 141.933 99.6084 142.995 100.114C141.794 98.5063 140.109 96.6838 138.649 94.8129C136.938 92.6194 135.521 90.3615 135.521 88.3293C135.521 86.4423 137.356 85.0714 139.223 85.3295C140.645 85.523 142.518 86.6036 144.509 88.1089C146.827 89.8615 149.305 92.2055 151.393 94.3882C157.316 100.598 162.162 107.748 165.934 115.462C171.439 126.72 177.668 141.633 183.233 161.208C190.433 186.524 187.246 196.453 187.246 196.453L187.219 196.475C187.219 196.475 187.209 196.464 187.203 196.459C185.078 194.093 180.48 196.695 170.827 197.824C164.109 198.609 160.965 197.276 159.677 196.394L159.693 196.367C159.693 196.367 171.101 192.212 173.424 187.868C174.261 186.309 173.821 184.277 172.34 183.303C170.162 181.879 165.692 182.863 156.227 185.422C153.04 186.287 150.684 187.083 148.747 187.809C146.435 177.427 146.108 161.111 144.621 149.654C144.031 145.117 143.264 141.343 142.121 139.004C140.302 135.295 138.816 132.209 137.71 129.919C130.799 133.553 127.655 124.914 127.231 121.591C127.011 119.903 126.576 117.36 129.318 115.108C129.764 114.742 130.273 114.479 130.805 114.355C130.831 114.344 130.869 114.344 130.896 114.334L130.874 114.231C130.874 114.231 130.22 109.995 132.962 107.748C133.407 107.382 133.917 107.124 134.448 106.995C134.952 106.877 135.451 106.845 135.94 106.893L135.934 106.904Z" fill="white"/>
<path d="M165.928 115.462C165.928 115.462 183.356 115.753 183.227 161.208C177.663 141.633 171.434 126.715 165.928 115.462Z" fill="white"/>
<path d="M108.65 89.6679C108.709 90.5604 109.133 91.4259 109.884 92.0227C111.306 93.1463 113.366 92.9097 114.493 91.4851C115.62 90.0604 115.378 87.996 113.957 86.867C112.54 85.738 110.474 85.9799 109.347 87.4046C108.822 88.0659 108.596 88.8776 108.65 89.6679ZM110.303 61.5402C116.586 50.7504 117.332 42.4873 117.149 38.2617C122.016 37.8155 129.056 39.3638 134.287 49.7181C134.475 50.0837 134.657 50.4547 134.84 50.8256C136.863 54.8362 138.912 59.0134 140.672 63.153C144.6 72.3945 147.079 81.4586 144.498 88.1089C142.513 86.6089 140.635 85.5283 139.213 85.3348C137.346 85.0767 135.51 86.4477 135.51 88.3347C135.51 90.3615 136.927 92.6194 138.639 94.8182C137.254 95.587 135.741 96.1139 134.174 96.4257C134.148 96.6837 133.198 105.882 135.929 106.888V106.914C135.435 106.866 134.942 106.893 134.432 107.017C133.895 107.146 133.391 107.404 132.946 107.769C130.204 110.016 130.858 114.253 130.858 114.253L130.88 114.355C130.853 114.366 130.816 114.366 130.789 114.376C130.252 114.5 129.748 114.764 129.302 115.129C126.561 117.376 126.995 119.919 127.215 121.613C127.639 124.935 130.783 133.575 137.694 129.94C138.8 132.231 140.286 135.316 142.105 139.026C143.248 141.365 144.02 145.139 144.605 149.676C133.037 154.703 116.564 152.353 108.628 150.74C100.016 112.909 79.0098 114.441 75.9192 114.882C77.7221 114.554 79.7235 114.323 81.9288 114.231C83.5063 114.167 85.1911 114.167 86.9886 114.258C106.691 115.231 108.644 108.904 105.484 89.8238L105.495 89.7432C99.9253 89.1518 95.6864 84.9047 94.5918 81.249C92.9338 75.7492 97.0332 69.4968 103.992 70.7118C106.547 67.5023 108.618 64.4379 110.297 61.5563L110.303 61.5402Z" fill="white"/>
<path d="M134.893 57.4866C135.859 59.3737 135.693 61.3897 134.523 61.9972C133.353 62.5993 131.615 61.5617 130.649 59.6747C129.683 57.7877 129.85 55.7717 131.019 55.1695C132.194 54.562 133.928 55.605 134.899 57.4866H134.893Z" fill="#050914"/>
<path d="M120.588 64.0724C121.554 65.9594 121.388 67.9754 120.218 68.5775C119.048 69.1796 117.31 68.1421 116.344 66.2604C115.378 64.3734 115.545 62.3574 116.714 61.7499C117.889 61.1478 119.623 62.1853 120.594 64.0724H120.588Z" fill="#050914"/>
<path d="M101.299 176.325C101.299 181.244 97.3175 185.228 92.4133 185.228C92.0753 185.228 91.748 185.207 91.4207 185.169C91.9948 180.304 92.7245 174.121 93.1913 167.46C97.7361 167.853 101.304 171.67 101.304 176.32L101.299 176.325Z" fill="#F7F7F5"/>
<path d="M105.795 140.741C105.554 140.768 105.312 140.773 105.071 140.773C100.161 140.773 96.1907 136.784 96.1907 131.87C96.1907 129.677 96.9794 127.666 98.294 126.118C101.02 129.747 103.606 134.505 105.795 140.741Z" fill="#F7F7F5"/>
<path d="M142.888 153.703C142.888 158.622 138.907 162.605 134.003 162.605C129.098 162.605 125.117 158.616 125.117 153.703C125.117 153.353 125.138 153.015 125.181 152.676C130.912 152.821 137.002 152.337 142.314 150.542C142.69 151.525 142.893 152.59 142.893 153.703H142.888Z" fill="#F7F7F5"/>
<path d="M148.748 187.814C145.271 189.126 143.167 190.196 140.066 190.964C139.932 190.357 139.862 189.723 139.862 189.077C139.862 184.594 143.173 180.879 147.487 180.266C147.835 182.992 148.243 185.545 148.748 187.819V187.814Z" fill="#F7F7F5"/>
<path d="M125.707 192.142C121.034 192.083 115.035 191.857 108.784 191.545C110.013 188.104 113.296 185.642 117.154 185.642C121.227 185.642 124.666 188.395 125.707 192.142Z" fill="#F7F7F5"/>
<path d="M127.596 7.44053C127.596 6.61799 128.261 5.95135 129.082 5.95135C129.903 5.95135 130.569 6.61799 130.569 7.44053C130.569 8.26308 129.903 8.92971 129.082 8.92971C128.261 8.92971 127.596 8.26308 127.596 7.44053Z" fill="#050914"/>
<path d="M139.368 7.44053C139.368 6.61799 140.034 5.95135 140.854 5.95135C141.675 5.95135 142.341 6.61799 142.341 7.44053C142.341 8.26308 141.675 8.92971 140.854 8.92971C140.034 8.92971 139.368 8.26308 139.368 7.44053Z" fill="#050914"/>
<path d="M133.482 7.44053C133.482 6.61799 134.148 5.95135 134.968 5.95135C135.789 5.95135 136.455 6.61799 136.455 7.44053C136.455 8.26308 135.789 8.92971 134.968 8.92971C134.148 8.92971 133.482 8.26308 133.482 7.44053Z" fill="#050914"/>
<path d="M129.082 17.8057C129.903 17.8057 130.569 18.4723 130.569 19.2948C130.569 20.1174 129.903 20.784 129.082 20.784C128.261 20.784 127.596 20.1174 127.596 19.2948C127.596 18.4723 128.261 17.8057 129.082 17.8057Z" fill="#050914"/>
<path d="M129.082 11.9081C129.903 11.9081 130.569 12.5747 130.569 13.3973C130.569 14.2198 129.903 14.8864 129.082 14.8864C128.261 14.8864 127.596 14.2198 127.596 13.3973C127.596 12.5747 128.261 11.9081 129.082 11.9081Z" fill="#050914"/>
<path d="M134.968 17.8057C135.789 17.8057 136.455 18.4723 136.455 19.2948C136.455 20.1174 135.789 20.784 134.968 20.784C134.148 20.784 133.482 20.1174 133.482 19.2948C133.482 18.4723 134.148 17.8057 134.968 17.8057Z" fill="#050914"/>
<path d="M134.968 11.9081C135.789 11.9081 136.455 12.5747 136.455 13.3973C136.455 14.2198 135.789 14.8864 134.968 14.8864C134.148 14.8864 133.482 14.2198 133.482 13.3973C133.482 12.5747 134.148 11.9081 134.968 11.9081Z" fill="#050914"/>
<path d="M140.854 17.8057C141.675 17.8057 142.341 18.4723 142.341 19.2948C142.341 20.1174 141.675 20.784 140.854 20.784C140.034 20.784 139.368 20.1174 139.368 19.2948C139.368 18.4723 140.034 17.8057 140.854 17.8057Z" fill="#050914"/>
<path d="M140.854 11.9081C141.675 11.9081 142.341 12.5747 142.341 13.3973C142.341 14.2198 141.675 14.8864 140.854 14.8864C140.034 14.8864 139.368 14.2198 139.368 13.3973C139.368 12.5747 140.034 11.9081 140.854 11.9081Z" fill="#050914"/>
<path d="M206.053 153.434C205.892 153.434 205.737 153.375 205.613 153.251L203.059 150.692C202.818 150.45 202.818 150.052 203.059 149.81C203.3 149.568 203.692 149.568 203.939 149.81L206.493 152.369C206.735 152.611 206.735 153.009 206.493 153.251C206.37 153.375 206.214 153.434 206.053 153.434Z" fill="#050914"/>
<path d="M212.261 159.654C212.1 159.654 211.944 159.595 211.821 159.471L209.267 156.912C209.026 156.67 209.026 156.272 209.267 156.031C209.508 155.789 209.9 155.789 210.147 156.031L212.701 158.59C212.943 158.831 212.943 159.229 212.701 159.471C212.578 159.595 212.422 159.654 212.261 159.654Z" fill="#050914"/>
<path d="M209.707 153.434C209.546 153.434 209.39 153.375 209.267 153.251C209.026 153.009 209.026 152.611 209.267 152.369L211.821 149.81C212.063 149.568 212.454 149.568 212.701 149.81C212.943 150.052 212.943 150.45 212.701 150.692L210.147 153.251C210.024 153.375 209.868 153.434 209.707 153.434Z" fill="#050914"/>
<path d="M203.499 159.654C203.338 159.654 203.182 159.595 203.059 159.471C202.818 159.229 202.818 158.831 203.059 158.59L205.613 156.031C205.855 155.789 206.246 155.789 206.493 156.031C206.735 156.272 206.735 156.67 206.493 156.912L203.939 159.471C203.816 159.595 203.66 159.654 203.499 159.654Z" fill="#050914"/>
<path d="M50.078 145.235C50.0297 145.235 49.976 145.23 49.9277 145.219C49.5951 145.139 49.3912 144.8 49.4717 144.467C51.9721 134.322 55.6798 126.79 60.4874 122.075C60.7342 121.833 61.1259 121.839 61.3674 122.086C61.6088 122.333 61.6035 122.726 61.3566 122.968C56.7153 127.521 53.1203 134.854 50.6789 144.768C50.6092 145.053 50.357 145.241 50.078 145.241V145.235Z" fill="#050914"/>
<path d="M187.241 197.077C187.177 197.077 187.112 197.066 187.053 197.045C186.726 196.937 186.549 196.588 186.651 196.26C186.683 196.163 189.677 186.131 182.632 161.374C177.899 144.725 172.249 129.795 165.37 115.731C161.529 107.866 156.673 100.829 150.942 94.8129C148.581 92.3399 146.161 90.1357 144.133 88.6035C142.051 87.0283 140.323 86.109 139.138 85.9423C138.36 85.8348 137.544 86.0767 136.954 86.5928C136.428 87.0498 136.144 87.6627 136.144 88.3239C136.144 90.3238 137.743 92.6302 139.138 94.4204C139.814 95.286 140.543 96.1462 141.246 96.9795C142.067 97.9471 142.84 98.8665 143.495 99.732C143.698 100.006 143.645 100.399 143.371 100.603C143.097 100.807 142.706 100.753 142.502 100.479C141.874 99.6406 141.112 98.7374 140.302 97.7859C139.588 96.9418 138.853 96.0763 138.161 95.1892C136.643 93.2431 134.904 90.7002 134.904 88.3239C134.904 87.3025 135.344 86.3509 136.144 85.652C137.013 84.894 138.172 84.5445 139.315 84.7058C140.731 84.8994 142.604 85.8778 144.89 87.6035C146.966 89.1734 149.44 91.4259 151.844 93.9473C157.665 100.055 162.591 107.194 166.492 115.178C173.408 129.311 179.08 144.305 183.834 161.03C191.002 186.233 187.971 196.228 187.842 196.636C187.756 196.9 187.515 197.066 187.252 197.066L187.241 197.077Z" fill="#050914"/>
<path d="M135.94 107.5C135.639 107.5 135.376 107.28 135.328 106.974C135.301 106.785 134.652 102.356 137.635 99.9094C138.156 99.4847 138.757 99.1837 139.374 99.0331C140.608 98.7375 141.917 98.9095 143.264 99.5492C145.796 100.743 147.615 103.178 147.69 103.28C147.894 103.554 147.835 103.947 147.562 104.151C147.288 104.355 146.896 104.296 146.692 104.022C146.676 104.001 144.981 101.732 142.733 100.673C141.649 100.157 140.618 100.012 139.663 100.243C139.223 100.35 138.794 100.565 138.419 100.872C135.983 102.872 136.546 106.742 136.551 106.78C136.605 107.119 136.369 107.436 136.031 107.49C135.999 107.49 135.966 107.495 135.934 107.495L135.94 107.5Z" fill="#050914"/>
<path d="M130.869 114.86C130.569 114.86 130.306 114.64 130.257 114.333C130.231 114.145 129.581 109.715 132.565 107.269C133.074 106.85 133.675 106.544 134.298 106.393C134.856 106.259 135.43 106.221 135.999 106.28C139.61 106.613 142.496 110.473 142.62 110.635C142.824 110.909 142.765 111.301 142.491 111.506C142.217 111.71 141.826 111.651 141.622 111.377C141.595 111.339 138.939 107.802 135.881 107.517C135.446 107.474 135.011 107.5 134.587 107.603C134.147 107.71 133.718 107.925 133.353 108.226C130.912 110.226 131.481 114.097 131.486 114.135C131.54 114.473 131.304 114.79 130.966 114.844C130.933 114.844 130.901 114.85 130.869 114.85V114.86Z" fill="#050914"/>
<path d="M134.529 131.424C133.622 131.424 132.747 131.209 131.921 130.779C128.278 128.881 126.85 123.564 126.609 121.677L126.587 121.516C126.367 119.839 125.997 117.032 128.916 114.635C129.437 114.204 130.037 113.903 130.655 113.758C130.655 113.758 130.687 113.753 130.719 113.742C135.06 112.791 138.81 117.785 138.966 118C139.17 118.274 139.111 118.667 138.837 118.871C138.564 119.075 138.172 119.016 137.968 118.742C137.936 118.694 134.539 114.178 131.019 114.952C131.025 114.952 130.998 114.957 130.966 114.963C130.504 115.07 130.08 115.285 129.705 115.597C127.317 117.554 127.596 119.661 127.816 121.355L127.838 121.521C128.143 123.898 129.678 128.209 132.49 129.677C133.938 130.435 135.596 130.333 137.41 129.376C137.41 129.376 137.421 129.376 137.426 129.37C137.512 129.327 137.608 129.301 137.71 129.301C138.054 129.301 138.333 129.58 138.333 129.924C138.333 130.171 138.188 130.381 137.984 130.483C136.782 131.112 135.629 131.43 134.529 131.43V131.424Z" fill="#050914"/>
<path d="M148.748 188.438C148.436 188.438 148.184 188.212 148.136 187.916C146.714 181.502 146.038 172.868 145.389 164.519C144.97 159.181 144.578 154.144 144.004 149.735C143.355 144.741 142.556 141.316 141.563 139.279C139.921 135.935 138.574 133.134 137.49 130.887L137.152 130.188C137.152 130.188 137.136 130.155 137.131 130.139C135.73 127.204 134.963 125.58 134.963 125.58C134.818 125.268 134.947 124.898 135.258 124.752C135.569 124.607 135.94 124.736 136.085 125.048C136.085 125.048 136.857 126.688 138.268 129.645C138.274 129.661 138.279 129.672 138.285 129.688L138.601 130.349C139.685 132.596 141.032 135.392 142.674 138.736C143.747 140.929 144.557 144.375 145.233 149.579C145.807 154.014 146.204 159.073 146.623 164.423C147.272 172.739 147.943 181.347 149.354 187.674C149.365 187.717 149.37 187.766 149.37 187.809C149.37 188.153 149.091 188.432 148.748 188.432V188.438Z" fill="#050914"/>
<path d="M235.237 229.678H162.806C162.462 229.678 162.178 229.398 162.178 229.054C162.178 228.71 162.451 228.43 162.795 228.43H235.237C235.58 228.43 235.859 228.71 235.859 229.054C235.859 229.398 235.58 229.678 235.237 229.678Z" fill="#050914"/>
<path d="M60.3909 229.678H29.5489C29.2055 229.678 28.9265 229.398 28.9265 229.054C28.9265 228.71 29.2055 228.43 29.5489 228.43H60.3909C60.7343 228.43 61.0133 228.71 61.0133 229.054C61.0133 229.398 60.7343 229.678 60.3909 229.678Z" fill="#050914"/>
<path d="M184.682 28.5632C184.682 28.5632 184.671 28.5632 184.665 28.5632C184.327 28.5525 184.059 28.2783 184.059 27.945C184.354 22.085 184.553 18.1981 184.553 18.1981C184.563 18.0099 184.655 17.8379 184.805 17.7304C184.955 17.6175 185.143 17.5798 185.325 17.6282C188.051 18.311 191.12 18.9508 194.436 19.526C194.774 19.5851 195 19.9077 194.941 20.2464C194.882 20.5851 194.56 20.8109 194.222 20.7517C191.169 20.2249 188.325 19.6389 185.755 19.0153C185.685 20.4131 185.519 23.6602 185.299 27.9718C185.282 28.3052 185.009 28.5632 184.676 28.5632H184.682Z" fill="#050914"/>
<path d="M236.401 24.3752C227.103 24.1494 213.324 23.4989 200.387 21.7033C200.049 21.6549 199.807 21.3431 199.856 20.999C199.904 20.6603 200.221 20.4184 200.559 20.4668C213.431 22.257 227.162 22.9022 236.412 23.128C236.75 23.1387 237.024 23.4183 237.019 23.757C237.019 24.0957 236.739 24.3698 236.401 24.3698V24.3752Z" fill="#050914"/>
<path d="M249.005 78.7491C249.005 78.7491 249 78.7491 248.995 78.7491C248.651 78.7437 248.378 78.4588 248.383 78.1147C248.437 75.0933 248.394 72.1687 248.254 69.4162C247.637 57.5081 248.174 48.444 248.64 40.4444L248.753 38.5251C248.775 38.1811 249.064 37.9176 249.408 37.9391C249.751 37.9606 250.014 38.2509 249.993 38.595L249.88 40.5197C249.413 48.487 248.882 57.5135 249.494 69.3517C249.639 72.1311 249.681 75.0826 249.628 78.1362C249.622 78.4749 249.343 78.7491 249.005 78.7491Z" fill="#050914"/>
<path d="M245.239 111.866C245.212 111.866 245.185 111.866 245.158 111.86C245.062 111.85 235.323 110.576 218.915 109.576C202.463 108.576 177.787 105.99 177.54 105.963C177.347 105.941 177.17 105.828 177.068 105.662C176.966 105.49 176.955 105.286 177.03 105.103C180.518 96.802 181.822 76.6739 182.637 58.078C182.943 51.0138 183.313 43.3367 183.641 36.5628L183.753 34.2027C183.769 33.8587 184.059 33.5952 184.403 33.6114C184.746 33.6275 185.009 33.9178 184.993 34.2619L184.88 36.622C184.553 43.3959 184.188 51.0676 183.882 58.1317C183.088 76.2922 181.822 95.9204 178.49 104.812C182.905 105.269 204.261 107.441 218.995 108.334C233.209 109.205 242.438 110.275 244.756 110.554C245.244 108.189 247.117 98.5546 247.975 86.9638C248.002 86.6197 248.297 86.3616 248.641 86.3885C248.984 86.4154 249.241 86.7111 249.215 87.0552C248.222 100.458 245.877 111.264 245.85 111.371C245.786 111.662 245.534 111.86 245.244 111.86L245.239 111.866Z" fill="#050914"/>
<path d="M249.376 39.1864C249.204 39.1864 249.032 39.1165 248.909 38.9767L235.929 24.1709C235.704 23.9129 235.731 23.5204 235.988 23.2946C236.246 23.0688 236.637 23.0957 236.863 23.3538L249.842 38.1595C250.068 38.4176 250.041 38.8101 249.783 39.0359C249.665 39.138 249.52 39.1918 249.376 39.1918V39.1864Z" fill="#050914"/>
<path d="M227.73 63.024C223.771 63.024 220.556 61.4596 218.019 57.4544C216.076 54.39 212.304 55.8738 207.572 58.1264C204.996 59.3521 202.962 60.3252 201.718 59.6209C201.192 59.3253 200.886 58.7769 200.811 58.0027C200.73 57.1748 200.419 56.6211 199.856 56.3146C198.015 55.3093 193.943 56.9705 192.532 57.6909C192.226 57.8468 191.85 57.7286 191.694 57.4221C191.539 57.1157 191.657 56.7394 191.963 56.5834C192.542 56.2878 197.699 53.718 200.446 55.2179C201.385 55.7286 201.921 56.6211 202.045 57.8737C202.077 58.2232 202.174 58.4436 202.329 58.535C203.011 58.9221 205.152 57.9006 207.04 56.9974C210.984 55.1158 216.382 52.546 219.07 56.7824C223.25 63.3681 229.378 62.6531 238.548 59.1909C238.87 59.0672 239.229 59.2339 239.347 59.5564C239.471 59.879 239.304 60.2392 238.982 60.3575C234.7 61.9703 230.966 63.0186 227.73 63.0186V63.024Z" fill="#050914"/>
<path d="M223.196 70.7387C221.973 70.7387 220.97 70.3247 220.379 69.1581C219.36 67.1475 216.441 67.7281 213.866 68.2442C211.864 68.642 210.287 68.9592 209.439 68.142C209.026 67.7442 208.875 67.1475 209.004 66.3679C209.154 65.4432 209.058 64.825 208.72 64.5293C207.647 63.5885 203.794 64.7766 199.33 66.1475C195.735 67.2496 193.208 67.427 191.813 66.669C191.12 66.2927 190.949 65.8034 190.922 65.7067L192.118 65.3626C192.118 65.3626 192.118 65.3465 192.102 65.3196C192.108 65.3357 193.009 66.7873 198.965 64.9594C204.368 63.2982 207.936 62.2015 209.535 63.5939C210.228 64.2014 210.458 65.1744 210.233 66.5668C210.201 66.7658 210.169 67.1152 210.303 67.2442C210.684 67.6098 212.315 67.2872 213.624 67.0238C216.484 66.4539 220.036 65.7443 221.49 68.5936C222.284 70.1581 224.533 69.4968 228.133 68.2281C232.018 66.8572 236.423 65.3035 238.483 68.9538C238.65 69.2549 238.548 69.6312 238.247 69.8033C237.947 69.9699 237.571 69.8678 237.399 69.5667C235.854 66.8249 232.136 68.1367 228.546 69.4C226.668 70.0613 224.753 70.7387 223.196 70.7387Z" fill="#050914"/>
<path d="M198.664 75.3998C198.407 75.3998 198.165 75.2385 198.08 74.9804C197.924 74.5288 197.623 74.2063 197.167 73.9966C195.472 73.2171 192.14 74.217 191.002 74.6686C190.68 74.7923 190.321 74.6364 190.197 74.3192C190.074 74.002 190.23 73.6364 190.546 73.5128C190.734 73.4375 195.161 71.7118 197.682 72.8676C198.45 73.2224 198.981 73.7977 199.249 74.5772C199.362 74.8998 199.19 75.2546 198.868 75.3675C198.799 75.389 198.734 75.3998 198.664 75.3998Z" fill="#050914"/>
<path d="M234.019 101.313C233.858 101.313 233.702 101.291 233.552 101.248C232.656 100.985 232.146 100.038 232.028 98.4417C231.975 97.6891 231.803 97.173 231.561 97.0225C231.218 96.8128 230.386 97.173 229.721 97.4579C228.728 97.8826 227.602 98.3719 226.748 97.7375C225.954 97.1515 225.718 95.8182 225.97 93.4097C226.131 91.8883 225.901 91.2378 225.659 91.1356C224.5 90.6679 220.186 94.8989 216.881 99.146C216.672 99.4148 216.28 99.4632 216.012 99.2535C215.743 99.0439 215.695 98.6514 215.904 98.3826C217.643 96.1461 223.529 88.9314 226.126 89.9851C227.521 90.5496 227.285 92.8022 227.21 93.5441C226.942 96.1139 227.355 96.6407 227.489 96.7375C227.773 96.9472 228.583 96.5977 229.238 96.3182C230.215 95.8988 231.325 95.4204 232.216 95.9634C232.838 96.3397 233.182 97.1246 233.273 98.3503C233.343 99.3234 233.584 99.9578 233.906 100.055C234.77 100.307 236.954 98.2805 238.478 96.2483C238.682 95.9741 239.073 95.9204 239.347 96.1246C239.621 96.3289 239.674 96.7214 239.47 96.9956C238.902 97.759 236.117 101.313 234.024 101.313H234.019Z" fill="#050914"/>
<path d="M28.9157 125.086C28.8137 125.086 28.7118 125.059 28.6152 125.01C28.4435 124.914 28.3254 124.747 28.2986 124.548C27.3704 117.898 20.5559 104.517 14.0152 92.3076C7.79097 80.6845 0.15023 66.1421 0.0697445 65.997C-0.0161065 65.8303 -0.0268378 65.6368 0.0482818 65.4648C0.118036 65.2927 0.262909 65.1637 0.439977 65.1099C11.8903 61.6746 25.6963 54.5298 35.2633 49.1375C35.5638 48.9709 35.9394 49.073 36.1111 49.3741C36.2774 49.6752 36.1754 50.0515 35.875 50.2235C26.4528 55.5297 12.9313 62.5348 1.51848 66.083C3.09063 69.0721 9.64213 81.5232 15.1098 91.7216C21.452 103.554 28.0464 116.495 29.3932 123.559C32.7629 121.994 46.9175 115.393 56.5221 110.43C65.7243 105.683 71.9699 102.866 73.7621 102.076C73.1128 100.216 70.7841 93.7592 67.1837 86.4315C67.0335 86.1251 67.1569 85.7488 67.4681 85.5982C67.774 85.4477 68.1496 85.5714 68.2998 85.8832C72.5977 94.6247 75.1035 102.146 75.1249 102.221C75.2269 102.528 75.0767 102.861 74.7815 102.99C74.7171 103.017 67.994 105.915 57.0909 111.538C46.1556 117.183 29.3449 124.951 29.1786 125.032C29.0981 125.07 29.0069 125.091 28.921 125.091L28.9157 125.086Z" fill="#050914"/>
<path d="M64.3561 80.3673C64.1414 80.3673 63.9322 80.2544 63.8141 80.0555C62.6981 78.0986 61.5605 76.2385 60.423 74.5289C60.2352 74.2439 60.3103 73.8569 60.5947 73.6633C60.8791 73.4698 61.2654 73.5504 61.4586 73.8354C62.6122 75.5665 63.7712 77.4535 64.898 79.4372C65.0697 79.7383 64.9624 80.1146 64.6673 80.2867C64.5707 80.3404 64.4634 80.3673 64.3614 80.3673H64.3561Z" fill="#050914"/>
<path d="M56.05 66.9593C55.8354 66.9593 55.6261 66.8464 55.5135 66.6529C53.1686 62.6262 51.355 59.1102 49.5951 55.7071L48.978 54.5136C48.8224 54.2072 48.9405 53.8309 49.241 53.675C49.5468 53.5191 49.9224 53.6373 50.078 53.9438L50.6951 55.1426C52.4443 58.5296 54.2525 62.0348 56.5812 66.0346C56.7529 66.3303 56.6563 66.712 56.3559 66.884C56.2593 66.9432 56.152 66.9701 56.0447 66.9701L56.05 66.9593Z" fill="#050914"/>
<path d="M49.5307 54.8416C49.4663 54.8416 49.4019 54.8308 49.3375 54.8093L35.3975 50.2773C35.1399 50.202 34.9521 49.9601 34.9521 49.6805C34.9521 49.3365 35.2258 49.0569 35.5692 49.0569C35.6336 49.0569 35.698 49.0677 35.7624 49.0892L49.7185 53.6266C50.0458 53.7341 50.2229 54.0836 50.1156 54.4115C50.0297 54.6749 49.7883 54.8416 49.5254 54.8416H49.5307Z" fill="#050914"/>
<path d="M22.4393 93.7215C22.3052 93.7215 22.1657 93.6785 22.053 93.5871C21.7847 93.3721 21.7418 92.9796 21.9564 92.7108C26.7479 86.7057 30.8849 83.5768 36.7013 86.5283C38.9978 87.6895 40.8114 85.3456 42.9416 82.1575C44.1542 80.3458 45.1093 78.9211 46.2522 78.8942C46.762 78.8835 47.2019 79.1362 47.5829 79.6523C48.0283 80.2598 48.436 80.3135 48.7043 80.3028C50.035 80.2544 51.8916 78.0663 52.7501 76.6954C52.9325 76.4051 53.3188 76.3191 53.6086 76.5019C53.8983 76.6847 53.9842 77.0664 53.8017 77.362C53.5388 77.7814 51.1618 81.4586 48.7473 81.55C48.1624 81.5715 47.3093 81.3887 46.5795 80.3942C46.4615 80.2383 46.3649 80.1415 46.279 80.1469C45.78 80.1576 44.7337 81.7221 43.9718 82.8618C42.126 85.6197 39.5988 89.4045 36.1379 87.6519C31.5878 85.3455 28.2557 86.824 22.9222 93.5011C22.7988 93.657 22.6164 93.7323 22.4393 93.7323V93.7215Z" fill="#050914"/>
<path d="M20.733 87.7272C20.1911 87.7272 19.6331 87.582 19.0536 87.2541C18.7585 87.082 18.6511 86.7057 18.8229 86.4047C18.9946 86.109 19.3701 86.0014 19.6706 86.1735C21.4574 87.2003 23.0295 85.5552 25.2187 82.9317C26.9626 80.8404 28.7655 78.6792 30.7508 79.9372C31.9741 80.7114 33.38 79.5931 35.0862 78.0556C36.2506 77.0072 37.1681 76.1739 38.1071 76.3944C38.5793 76.5073 38.9388 76.8621 39.1749 77.4642C39.3359 77.8728 39.5988 78.3728 39.9368 78.4373C40.8919 78.6147 42.9845 76.303 45.1952 73.8622C47.1107 71.7494 48.699 70.6527 49.9277 70.6043C50.5609 70.5774 50.8936 70.8408 50.9794 70.9215C51.2316 71.158 51.2423 71.5505 51.0062 71.8032C50.7862 72.0397 50.4267 72.0666 50.1746 71.8731C50.078 71.8408 48.9565 71.5612 46.1127 74.7009C43.2421 77.8728 41.348 79.9641 39.7115 79.6684C38.9764 79.534 38.4237 78.9641 38.0159 77.9265C37.9193 77.6846 37.8335 77.6147 37.8227 77.6147C37.5223 77.5448 36.5189 78.448 35.9179 78.991C34.3511 80.4049 32.2049 82.3457 30.0854 81.0017C29.0928 80.3727 27.8909 81.6791 26.1685 83.7435C24.65 85.566 22.831 87.7433 20.7277 87.7433L20.733 87.7272Z" fill="#050914"/>
<path d="M25.4708 100.012C25.3367 100.012 25.2025 99.9685 25.0899 99.8825C24.8162 99.6729 24.7679 99.2804 24.9772 99.0116C25.2133 98.7052 27.3273 96.0386 29.4146 95.8128C30.0799 95.7429 30.6916 95.9257 31.1906 96.3451C31.4536 96.5655 31.4858 96.9579 31.2658 97.2214C31.0458 97.4848 30.6541 97.517 30.3912 97.2966C30.1497 97.0923 29.8814 97.0117 29.5487 97.0493C28.2181 97.1945 26.5064 99.0654 25.9645 99.775C25.8411 99.9363 25.6586 100.017 25.4708 100.017V100.012Z" fill="#050914"/>
<path d="M51.2853 106.054C51.2853 106.054 51.2317 106.054 51.2048 106.054C50.8668 106.011 50.6253 105.699 50.6683 105.361C51.0117 102.635 52.0473 96.2591 54.1613 95.9311C55.3901 95.7429 56.1305 97.3558 56.3774 97.888C57.1983 99.6729 57.6276 99.7374 57.6437 99.7374C57.8315 99.7589 58.25 99.1514 58.4592 98.8665C58.9475 98.1944 59.5002 97.4364 60.348 97.4364H60.3587C60.9543 97.4418 61.5177 97.8343 62.0757 98.6299C62.5533 99.3127 62.8645 99.4417 62.9611 99.4148C63.4601 99.2858 64.1093 97.3558 64.3239 95.3666C64.3615 95.0225 64.6673 94.7806 65.0108 94.8129C65.3542 94.8505 65.5956 95.1569 65.5634 95.501C65.4454 96.5924 64.9303 100.194 63.2723 100.624C62.5264 100.813 61.786 100.383 61.0562 99.3449C60.6002 98.689 60.3748 98.6837 60.3426 98.6783C60.1226 98.6783 59.7041 99.2535 59.4573 99.5976C58.9583 100.286 58.3895 101.065 57.5149 100.974C56.71 100.893 56.034 100.124 55.2452 98.4041C54.6979 97.2106 54.3545 97.1569 54.3491 97.1569C53.6033 97.2698 52.439 101.253 51.897 105.511C51.8595 105.823 51.5912 106.054 51.28 106.054H51.2853Z" fill="#050914"/>
<path d="M126.609 83.4639C124.403 83.4639 122.541 82.2758 122.423 82.2006C122.134 82.0124 122.053 81.6253 122.241 81.3404C122.429 81.0501 122.81 80.9694 123.099 81.1576C123.25 81.2544 126.748 83.4693 129.367 81.1952C129.624 80.9694 130.016 80.9963 130.241 81.2597C130.467 81.5178 130.44 81.9102 130.177 82.136C129.029 83.136 127.768 83.4639 126.603 83.4639H126.609Z" fill="#050914"/>
<path d="M106.144 71.9C106.074 71.9 105.999 71.8892 105.929 71.8623C105.242 71.6097 104.556 71.4215 103.901 71.3086C103.563 71.2495 103.332 70.9323 103.391 70.5936C103.45 70.2549 103.767 70.0237 104.105 70.0828C104.84 70.2065 105.597 70.4108 106.359 70.6957C106.68 70.814 106.847 71.1742 106.729 71.4968C106.638 71.7494 106.401 71.9053 106.144 71.9053V71.9Z" fill="#050914"/>
<path d="M106.842 90.4206C106.369 90.4206 105.903 90.3937 105.441 90.3454C99.571 89.7271 95.1712 85.2811 94.0122 81.4103C93.1 78.3835 93.8029 75.0665 95.8472 72.7494C97.8486 70.4861 100.859 69.513 104.11 70.0775C104.448 70.1366 104.674 70.4592 104.615 70.7979C104.556 71.1366 104.234 71.3624 103.896 71.3032C101.036 70.8032 98.5086 71.6097 96.7755 73.5719C95.0102 75.5665 94.4092 78.4319 95.198 81.0501C96.2604 84.5822 100.43 88.5605 105.57 89.1035C106.552 89.211 107.555 89.1949 108.559 89.0497C108.929 88.996 109.272 89.2916 109.272 89.668C109.272 89.9905 109.031 90.254 108.714 90.2862C108.086 90.3776 107.464 90.4206 106.842 90.4206Z" fill="#050914"/>
<path d="M108.054 81.5877C107.995 81.5877 107.936 81.5769 107.872 81.5608L99.8286 79.1254C99.5013 79.0287 99.3135 78.6792 99.4155 78.3513C99.5174 78.0233 99.8608 77.8352 100.188 77.9373L108.231 80.3727C108.559 80.4695 108.746 80.8189 108.644 81.1469C108.564 81.4157 108.317 81.5877 108.049 81.5877H108.054Z" fill="#050914"/>
<path d="M100.349 83.3618C100.258 83.3618 100.167 83.3403 100.075 83.2973C99.7696 83.1467 99.6409 82.7758 99.7911 82.464L101.54 78.8889C101.691 78.5824 102.061 78.4534 102.372 78.6039C102.678 78.7545 102.807 79.1254 102.656 79.4372L100.907 83.0123C100.8 83.2328 100.58 83.3618 100.349 83.3618Z" fill="#050914"/>
<path d="M132.769 97.259C132.457 97.259 132.189 97.0224 132.152 96.7053C132.114 96.3612 132.355 96.0548 132.699 96.0171C133.192 95.9634 133.638 95.8935 134.056 95.8075C135.618 95.4956 137.061 94.9795 138.344 94.2645C138.644 94.0978 139.02 94.2054 139.186 94.5064C139.352 94.8075 139.245 95.1838 138.945 95.3505C137.549 96.1246 135.988 96.6891 134.298 97.0224C133.842 97.1138 133.364 97.1891 132.833 97.2482C132.812 97.2482 132.785 97.2482 132.763 97.2482L132.769 97.259Z" fill="#050914"/>
<path d="M144.509 88.7271C144.434 88.7271 144.358 88.711 144.283 88.6841C143.961 88.5605 143.806 88.2003 143.929 87.8777C146.075 82.3457 144.863 74.5665 140.109 63.3896C138.338 59.2285 136.267 55.0244 134.292 51.0998L134.142 50.8041C134.008 50.5299 133.874 50.2611 133.734 49.9977C128.691 40.0197 121.957 38.4445 117.203 38.8799C116.838 38.9122 116.521 38.6219 116.521 38.2617C116.521 37.9284 116.779 37.6596 117.106 37.6381C122.241 37.1757 129.485 38.8477 134.84 49.4332C134.979 49.702 135.113 49.9762 135.247 50.2504L135.392 50.5461C137.378 54.4868 139.46 58.7124 141.241 62.9057C146.129 74.3998 147.347 82.4801 145.077 88.3293C144.981 88.5766 144.745 88.7271 144.498 88.7271H144.509Z" fill="#050914"/>
<path d="M104.003 71.3193C103.66 71.3193 103.381 71.0451 103.381 70.7011C103.381 70.5613 103.429 70.4215 103.515 70.3086C105.902 67.3088 108.006 64.2551 109.766 61.2284C116.038 50.4493 116.698 42.2292 116.532 38.2886C116.451 36.3639 116.172 35.3048 116.167 35.2941C116.076 34.9608 116.274 34.6221 116.607 34.5307C116.94 34.4393 117.278 34.6382 117.369 34.9661C117.38 35.0145 117.686 36.1543 117.777 38.2348C117.948 42.3153 117.278 50.8041 110.844 61.8574C109.058 64.9271 106.922 68.0238 104.507 71.0667C104.395 71.2226 104.212 71.3247 104.008 71.3247L104.003 71.3193Z" fill="#050914"/>
<path d="M111.917 93.3506C111.07 93.3506 110.216 93.0764 109.497 92.5119C108.634 91.8292 108.102 90.8077 108.027 89.7056C107.963 88.7325 108.258 87.7809 108.859 87.0175C109.508 86.2004 110.436 85.6789 111.477 85.5606C112.513 85.4423 113.532 85.7327 114.343 86.3832C115.158 87.0337 115.673 87.9584 115.797 88.9959C115.915 90.0335 115.625 91.055 114.976 91.8722C114.209 92.8452 113.066 93.3506 111.912 93.3506H111.917ZM111.928 86.781C111.826 86.781 111.724 86.7864 111.622 86.7971C110.914 86.8778 110.281 87.2326 109.835 87.7917C109.422 88.3078 109.224 88.9583 109.267 89.625C109.315 90.3776 109.68 91.0711 110.265 91.5335C111.413 92.442 113.092 92.2485 113.999 91.098C114.439 90.5389 114.638 89.8454 114.557 89.1357C114.477 88.4315 114.123 87.7971 113.565 87.3509C113.092 86.9745 112.518 86.7756 111.923 86.7756L111.928 86.781Z" fill="#050914"/>
<path d="M132.13 73.0558C132.033 73.0558 131.937 73.0343 131.84 72.9859C131.534 72.8246 131.416 72.4483 131.577 72.1472C132.312 70.7387 133.106 68.4109 132.586 67.6421C132.43 67.4109 132.076 67.3249 131.545 67.3894C127.199 67.8948 125.847 61.895 125.793 61.6424C125.718 61.309 125.933 60.9757 126.271 60.9058C126.603 60.8306 126.936 61.0456 127.011 61.3843C127.022 61.4381 128.17 66.5346 131.406 66.1583C132.683 66.0131 133.31 66.5023 133.611 66.9432C134.738 68.5883 133.037 72.0505 132.683 72.7279C132.57 72.9429 132.355 73.0612 132.13 73.0612V73.0558Z" fill="#050914"/>
<path d="M126.657 52.46C126.442 52.46 126.233 52.3471 126.12 52.1481C125.949 51.8525 126.051 51.4708 126.346 51.2987C131.073 48.5515 134.732 50.0837 135.092 50.245C135.317 50.3418 135.473 50.5622 135.473 50.8203C135.473 51.1643 135.199 51.4439 134.856 51.4439C134.764 51.4439 134.673 51.4224 134.587 51.3847C134.555 51.3686 131.266 49.8848 126.973 52.3793C126.877 52.4385 126.77 52.4653 126.662 52.4653L126.657 52.46Z" fill="#050914"/>
<path d="M110.302 62.1638C110.184 62.1638 110.066 62.1316 109.964 62.0617C109.68 61.8735 109.594 61.4864 109.782 61.2015C113.87 54.9384 118.244 54.5943 118.426 54.5835C118.764 54.562 119.064 54.8255 119.086 55.1642C119.107 55.5082 118.85 55.7985 118.506 55.8254C118.453 55.8254 114.53 56.1964 110.823 61.8789C110.705 62.0617 110.506 62.1585 110.302 62.1585V62.1638Z" fill="#050914"/>
<path d="M75.9298 115.484C75.6347 115.484 75.3718 115.274 75.3182 114.973C75.2591 114.635 75.4791 114.312 75.8172 114.247C77.7488 113.898 79.7985 113.672 81.9126 113.586C83.5438 113.516 85.2661 113.527 87.0261 113.613C95.9331 114.054 101.057 112.952 103.644 110.043C106.852 106.436 106.493 99.6621 104.878 89.9045C104.824 89.5658 105.049 89.2432 105.387 89.1895C105.726 89.1357 106.047 89.3615 106.101 89.7002C107.775 99.8234 108.102 106.898 104.567 110.871C101.664 114.129 96.3999 115.323 86.9617 114.855C85.2393 114.769 83.5545 114.764 81.9555 114.828C79.9005 114.914 77.9098 115.129 76.0318 115.468C75.9942 115.473 75.9567 115.479 75.9191 115.479L75.9298 115.484Z" fill="#050914"/>
<path d="M60.922 123.14C60.7664 123.14 60.6108 123.08 60.4874 122.962C60.2566 122.736 60.2352 122.376 60.4337 122.129C60.7878 121.64 64.8872 116.258 75.6776 114.274C76.0157 114.21 76.3376 114.436 76.402 114.774C76.4664 115.113 76.241 115.436 75.903 115.5C65.3326 117.441 61.4693 122.817 61.4317 122.871C61.4103 122.898 61.3888 122.924 61.3673 122.946C61.2439 123.07 61.083 123.134 60.922 123.134V123.14Z" fill="#050914"/>
<path d="M135.94 107.5C135.87 107.5 135.795 107.49 135.725 107.463C132.543 106.296 133.445 97.4095 133.563 96.3558C133.595 96.0386 133.858 95.7913 134.18 95.7913C134.523 95.7913 134.802 96.0655 134.802 96.4096C134.802 96.4365 134.802 96.458 134.802 96.4848C134.486 99.2858 134.384 105.64 136.154 106.291C136.476 106.409 136.643 106.769 136.525 107.092C136.433 107.345 136.192 107.5 135.94 107.5Z" fill="#050914"/>
<path d="M183.227 161.831C182.884 161.831 182.605 161.552 182.61 161.208C182.675 138.047 178.092 126.994 174.234 121.796C170.124 116.258 165.961 116.081 165.918 116.081C165.574 116.07 165.306 115.785 165.311 115.446C165.317 115.102 165.606 114.833 165.939 114.839C166.127 114.839 170.65 114.984 175.125 120.914C180.968 128.661 183.909 142.219 183.855 161.213C183.855 161.557 183.576 161.831 183.233 161.831H183.227Z" fill="#050914"/>
<path d="M294.383 150.633L270.522 229.108H171.713L195.574 150.633H294.383Z" fill="#FF5635"/>
<path d="M294.383 150.633H195.574L191.206 146.617H290.021L294.383 150.633Z" fill="#FC937E"/>
<path d="M181.548 178.395L191.206 146.617L195.574 150.633L171.713 229.108H95.1228V224.135H143.049H157.896H167.656L181.548 178.395Z" fill="#ED3510"/>
<path d="M171.713 229.726H95.1229C94.7795 229.726 94.5005 229.447 94.5005 229.102V224.13C94.5005 223.785 94.7795 223.506 95.1229 223.506H167.195L180.952 178.207L190.611 146.429C190.713 146.101 191.056 145.913 191.383 146.015C191.711 146.117 191.898 146.461 191.796 146.789L182.138 178.567L168.246 224.307C168.166 224.57 167.925 224.748 167.651 224.748H95.74V228.473H171.707C172.051 228.473 172.33 228.753 172.33 229.097C172.33 229.441 172.051 229.721 171.707 229.721L171.713 229.726Z" fill="#050914"/>
<path d="M270.522 229.726H171.713C171.369 229.726 171.09 229.447 171.09 229.102C171.09 228.758 171.369 228.479 171.713 228.479H270.06L293.675 150.821L289.779 147.235H191.206C190.863 147.235 190.584 146.956 190.584 146.612C190.584 146.268 190.863 145.988 191.206 145.988H290.021C290.176 145.988 290.327 146.047 290.439 146.155L294.802 150.171C294.979 150.332 295.043 150.579 294.973 150.81L271.112 229.28C271.032 229.543 270.79 229.721 270.516 229.721L270.522 229.726Z" fill="#050914"/>
<path d="M90.8196 190.524C105.361 191.438 125.074 192.497 132.2 192.04C141.032 191.47 143.033 189.959 148.748 187.814C150.679 187.083 153.04 186.287 156.227 185.422C165.692 182.863 170.162 181.879 172.34 183.303C173.821 184.277 174.261 186.309 173.424 187.868C171.101 192.212 159.694 196.367 159.694 196.367L159.677 196.394C160.965 197.276 164.109 198.609 170.827 197.824C180.48 196.695 185.079 194.093 187.203 196.459C187.203 196.459 187.214 196.47 187.219 196.475C188.797 198.249 189.081 201.335 185.132 203.991C185.197 204.05 185.256 204.109 185.309 204.173C186.983 206.034 187.225 209.356 182.584 212.109C183.404 213.974 182.884 216.522 179.316 218.727C179.316 220.99 177.615 224.307 171.707 226.49C168.563 227.651 165.703 228.43 162.806 229.059H162.795C161.507 229.339 160.214 229.586 158.883 229.823C154.006 230.688 149.086 231.269 144.144 231.624C135.296 232.264 119.016 234.134 102.399 235.081C48.876 238.129 49.6809 218.028 47.6634 199.007C44.6801 170.944 47.2449 135.935 60.922 122.527C61.8556 121.607 62.8375 120.79 63.8785 120.086C68.6057 116.876 74.7601 116.376 79.9433 118.785C100.306 128.241 92.3542 175.04 90.8142 190.534L90.8196 190.524Z" fill="white"/>
<path d="M164.753 209.485C163.857 209.485 163.053 209.453 162.334 209.404C161.99 209.383 161.733 209.087 161.754 208.743C161.776 208.399 162.071 208.141 162.414 208.163C165.977 208.399 171.836 208.195 179.482 205.84C181.645 205.173 183.431 204.378 184.778 203.469C186.484 202.319 187.477 201.002 187.649 199.647C187.772 198.668 187.456 197.695 186.764 196.905C186.747 196.889 186.731 196.873 186.721 196.857C185.572 195.647 183.319 196.131 179.622 196.916C177.315 197.41 174.439 198.023 170.886 198.437C163.949 199.249 160.659 197.824 159.318 196.9C158.696 196.47 158.433 196.12 158.39 196.056C158.191 195.776 158.256 195.389 158.54 195.19C158.819 194.991 159.2 195.056 159.399 195.33C159.409 195.346 159.592 195.572 160.026 195.873C161.223 196.695 164.212 197.964 170.747 197.201C174.24 196.792 177.084 196.185 179.364 195.701C183.533 194.808 186.055 194.271 187.649 196.029C187.66 196.039 187.67 196.05 187.681 196.061C188.631 197.125 189.06 198.459 188.888 199.808C188.738 201.007 188.024 202.792 185.476 204.507C184.022 205.48 182.133 206.329 179.847 207.034C173.548 208.969 168.424 209.485 164.753 209.485Z" fill="#050914"/>
<path d="M162.816 217.2C162.232 217.2 161.695 217.189 161.196 217.168C160.853 217.151 160.59 216.861 160.6 216.517C160.617 216.173 160.906 215.91 161.25 215.92C164.7 216.071 170.334 215.786 177.588 213.555C179.45 212.98 181.022 212.313 182.256 211.571C184.311 210.351 185.513 208.926 185.739 207.442C185.894 206.421 185.572 205.405 184.837 204.587C184.784 204.523 184.751 204.491 184.714 204.458C184.703 204.448 184.692 204.437 184.676 204.426C184.435 204.179 184.44 203.786 184.687 203.544C184.928 203.308 185.304 203.308 185.545 203.539C185.637 203.62 185.712 203.7 185.782 203.786C186.737 204.846 187.177 206.259 186.967 207.636C186.769 208.937 185.9 210.861 182.889 212.646C181.575 213.437 179.906 214.146 177.948 214.754C171.563 216.716 166.39 217.205 162.811 217.205L162.816 217.2Z" fill="#050914"/>
<path d="M159.549 223.941C159.205 223.941 158.926 223.662 158.926 223.323C158.926 222.979 159.2 222.7 159.543 222.7C164.034 222.683 169.067 221.85 174.106 220.302C176.059 219.7 177.701 218.99 178.983 218.194C181.779 216.469 182.884 214.34 182.009 212.356C181.87 212.039 182.009 211.673 182.326 211.533C182.637 211.394 183.007 211.533 183.147 211.851C183.571 212.818 184.569 216.205 179.638 219.248C178.27 220.103 176.531 220.856 174.471 221.49C169.32 223.076 164.158 223.92 159.549 223.941Z" fill="#050914"/>
<path d="M162.806 229.678C162.521 229.678 162.264 229.479 162.199 229.188C162.13 228.855 162.339 228.522 162.677 228.447C165.859 227.758 168.66 226.952 171.498 225.904C178.189 223.431 178.699 219.786 178.699 218.727C178.699 218.383 178.978 218.103 179.321 218.103C179.665 218.103 179.944 218.383 179.944 218.727C179.944 219.99 179.375 224.323 171.933 227.076C169.041 228.146 166.186 228.968 162.945 229.667C162.902 229.678 162.859 229.683 162.811 229.683L162.806 229.678Z" fill="#050914"/>
<path d="M92.2843 236C50.6949 236 48.9886 218.673 47.3306 201.878C47.2394 200.937 47.1482 200.002 47.0462 199.066C45.3614 183.207 45.5814 167.068 47.6633 153.611C47.7169 153.273 48.0335 153.041 48.3716 153.09C48.7096 153.144 48.9403 153.461 48.892 153.799C46.8262 167.154 46.6062 183.18 48.2803 198.932C48.3823 199.873 48.4735 200.813 48.5647 201.754C49.4715 210.942 50.3247 219.619 57.1766 225.871C64.9247 232.936 79.7018 235.742 102.361 234.452C113.012 233.844 123.556 232.855 132.028 232.059C136.798 231.613 140.919 231.226 144.095 230.995C149.295 230.618 154.097 230.033 158.771 229.205C160.192 228.952 161.459 228.705 162.655 228.447C162.993 228.377 163.321 228.586 163.396 228.925C163.466 229.258 163.256 229.592 162.918 229.667C161.706 229.93 160.423 230.178 158.985 230.436C154.269 231.274 149.429 231.866 144.181 232.242C141.015 232.473 136.9 232.855 132.141 233.307C123.657 234.102 113.098 235.091 102.425 235.699C98.8036 235.903 95.4233 236.005 92.2736 236.005L92.2843 236Z" fill="#050914"/>
<path d="M90.8195 191.147C90.8195 191.147 90.7766 191.147 90.7551 191.147C90.4117 191.115 90.1649 190.808 90.1971 190.464C90.358 188.873 90.578 186.975 90.8356 184.777C93.014 166.229 97.548 127.634 79.6803 119.339C74.701 117.027 68.7772 117.505 64.2271 120.591C63.2291 121.269 62.2633 122.064 61.3565 122.957C61.1097 123.199 60.718 123.193 60.4765 122.951C60.2351 122.704 60.2404 122.312 60.4819 122.07C61.4424 121.129 62.4618 120.285 63.5242 119.564C68.4338 116.237 74.8244 115.715 80.1954 118.21C98.8787 126.887 94.275 166.084 92.059 184.922C91.8014 187.11 91.5814 189.002 91.4204 190.583C91.3882 190.905 91.12 191.142 90.8034 191.142L90.8195 191.147Z" fill="#050914"/>
<path d="M127.725 192.776C118.786 192.776 103.263 191.932 90.7767 191.147C83.914 190.717 78.2586 190.325 75.5006 190.126C75.1572 190.099 74.8997 189.803 74.9265 189.459C74.9533 189.115 75.2431 188.857 75.5918 188.884C78.3498 189.077 83.9999 189.475 90.8572 189.905C105.817 190.846 125.128 191.873 132.162 191.421C139.223 190.964 141.761 189.938 145.603 188.384C146.51 188.018 147.444 187.637 148.533 187.228C148.855 187.11 149.214 187.271 149.332 187.594C149.45 187.916 149.29 188.276 148.968 188.395C147.894 188.798 146.966 189.174 146.065 189.54C142.255 191.083 139.503 192.196 132.237 192.663C131.052 192.739 129.522 192.771 127.725 192.771V192.776Z" fill="#050914"/>
<path d="M159.694 196.991C159.441 196.991 159.2 196.835 159.109 196.582C158.991 196.26 159.157 195.9 159.479 195.787C159.592 195.744 170.693 191.663 172.877 187.583C173.569 186.287 173.177 184.605 171.997 183.836C170.022 182.545 165.51 183.567 156.388 186.035C153.657 186.771 151.302 187.524 148.968 188.4C148.646 188.518 148.291 188.357 148.168 188.034C148.05 187.712 148.211 187.352 148.533 187.233C150.905 186.341 153.298 185.578 156.066 184.83C165.773 182.207 170.275 181.218 172.678 182.787C174.412 183.922 174.98 186.287 173.972 188.169C171.562 192.669 160.38 196.781 159.903 196.959C159.833 196.986 159.763 196.996 159.688 196.996L159.694 196.991Z" fill="#050914"/>
</g>
<defs>
<clipPath id="clip0_181_1585">
<rect width="295" height="236" fill="white"/>
</clipPath>
</defs>
</svg>
