<svg width="282" height="236" viewBox="0 0 282 236" fill="none" xmlns="http://www.w3.org/2000/svg">
<g clip-path="url(#clip0_181_1679)">
<path d="M200.004 71.9476C199.849 71.9476 199.699 71.8906 199.58 71.7716L197.114 69.3089C196.881 69.0761 196.881 68.6984 197.114 68.4604C197.347 68.2276 197.731 68.2276 197.964 68.4604L200.429 70.9231C200.662 71.156 200.662 71.5336 200.429 71.7716C200.31 71.8906 200.16 71.9476 200.004 71.9476Z" fill="#050914"/>
<path d="M205.997 77.9337C205.842 77.9337 205.691 77.8768 205.572 77.7578L203.107 75.295C202.874 75.0622 202.874 74.6845 203.107 74.4465C203.34 74.2137 203.723 74.2137 203.956 74.4465L206.422 76.9093C206.655 77.1421 206.655 77.525 206.422 77.7578C206.303 77.8768 206.152 77.9337 205.997 77.9337Z" fill="#050914"/>
<path d="M203.532 71.9476C203.376 71.9476 203.226 71.8906 203.107 71.7716C202.874 71.5388 202.874 71.1611 203.107 70.9231L205.572 68.4604C205.805 68.2276 206.189 68.2276 206.422 68.4604C206.655 68.6932 206.655 69.0761 206.422 69.3089L203.956 71.7716C203.837 71.8906 203.687 71.9476 203.532 71.9476Z" fill="#050914"/>
<path d="M197.544 77.9337C197.388 77.9337 197.238 77.8768 197.119 77.7578C196.886 77.525 196.886 77.1473 197.119 76.9093L199.585 74.4465C199.818 74.2137 200.201 74.2137 200.434 74.4465C200.667 74.6794 200.667 75.057 200.434 75.295L197.969 77.7578C197.849 77.8768 197.699 77.9337 197.544 77.9337Z" fill="#050914"/>
<path d="M196.493 217.317C196.493 217.317 261.5 245.163 273.63 222.32C273.63 222.32 288.143 209.412 274.624 153.001C274.624 153.001 261.702 110.498 227.699 96.1974C227.699 96.1974 198.637 85.4772 183.741 86.7655C183.741 86.7655 166.747 121.327 155.368 108.227C155.368 108.227 153.135 107.823 152.555 108.221C142.409 115.149 113.394 186.595 113.394 186.595L126.803 230.614H136.225L196.498 217.317H196.493Z" fill="#F7F7F5"/>
<path d="M176.355 74.8915C174.806 76.4385 182.653 86.4757 183.746 86.7655C183.746 86.7655 182.927 91.1167 182.181 92.3636C174.588 105.06 166.172 110.089 166.172 110.089L159.407 111.077L158.444 107.166C157.89 105.831 155.735 103.684 154.528 102.892L151.1 101.071C151.1 101.071 147.997 101.697 144.465 100.062C141.129 98.5205 137.426 94.7746 134.929 93.0465C127.725 88.0589 120.106 89.8905 122.856 83.7284C125.891 77.9078 124.798 74.4051 122.131 68.507C121.307 66.6909 120.334 64.6421 119.287 62.2259C119.085 61.7809 118.92 61.336 118.77 60.9014C122.706 59.1009 125.477 57.3625 127.367 55.7741C127.896 56.6019 128.626 57.3004 129.543 57.766C133.111 59.5976 137.369 57.2176 139.948 55.2929C139.948 55.2929 146.003 66.9962 157.097 63.4055C158.864 56.2604 166.581 54.8014 171.31 58.6301C175.702 62.1793 177.815 67.7464 175.08 72.6253C175.08 72.6253 180.736 70.5144 176.365 74.8863L176.355 74.8915Z" fill="white"/>
<path d="M196.492 173.603C195.519 173.603 194.628 174.855 193.861 177.028C195.622 177.065 197.404 177.137 199.196 177.235C198.471 175.083 197.611 173.774 196.684 173.619C196.56 173.609 196.498 173.603 196.498 173.603H196.492Z" fill="#050914"/>
<path d="M4.47461 159.877L27.5076 235.4H122.887L99.8541 159.877H4.47461Z" fill="#FF5635"/>
<path d="M4.47461 159.877H99.8541L104.07 156.012H8.6855L4.47461 159.877Z" fill="#FC937E"/>
<path d="M113.388 186.595L104.071 156.012L99.8545 159.877L122.887 235.4H196.819V230.614H150.556H136.225H126.803L113.388 186.595Z" fill="#ED3510"/>
<path d="M185.289 204.295C186.62 204.553 189.065 205.868 192.463 207.792C194.54 208.967 196.974 210.369 199.724 211.895C200.745 207.89 201.382 202.008 201.382 195.463C201.382 187.857 200.517 181.157 199.201 177.241C197.409 177.142 195.633 177.07 193.866 177.034C180.131 176.754 167.379 178.539 160.102 184.515C155.119 188.618 151.545 193.931 148.562 199.509C147.547 201.408 146.594 203.332 145.687 205.257C143.341 210.203 141.015 216.536 141.844 219.439C142.067 220.225 142.605 220.887 143.294 221.311C144.139 221.834 145.211 222.005 146.21 221.617C147.738 221.032 149.049 219.62 150.23 217.917C151.846 215.589 153.218 212.713 154.539 210.627C154.487 211.755 154.715 212.909 155.482 213.887C155.818 214.316 156.269 214.673 156.802 214.932C160.06 216.541 163.867 214.394 163.867 214.394L163.893 214.384C164.043 214.834 164.271 215.268 164.587 215.677C164.924 216.107 165.374 216.464 165.903 216.727C169.16 218.336 172.967 216.189 172.967 216.189L173.05 216.127C173.071 216.153 173.092 216.179 173.112 216.205C173.454 216.634 173.905 216.991 174.433 217.25C177.691 218.859 179.96 217.529 181.498 216.712C184.518 215.103 191.562 209.112 185.294 204.3L185.289 204.295Z" fill="white"/>
<path d="M150.556 230.614H196.819V235.4H266.747V228.71C266.747 228.71 266.747 228.71 266.736 228.71C254.808 235.467 228.512 228.544 211.694 222.921C202.755 219.935 196.498 217.312 196.498 217.312C194.82 217.312 193.338 213.535 192.463 207.787C189.065 205.862 186.621 204.548 185.289 204.289C191.551 209.096 184.513 215.092 181.493 216.702C179.955 217.519 177.686 218.849 174.428 217.24C173.9 216.981 173.449 216.619 173.107 216.195C173.087 216.169 173.066 216.143 173.045 216.117L172.962 216.179C172.962 216.179 169.155 218.326 165.898 216.717C165.369 216.453 164.919 216.096 164.582 215.667C164.261 215.258 164.033 214.823 163.888 214.373L163.862 214.384C163.862 214.384 160.055 216.531 156.797 214.922C156.264 214.663 155.813 214.301 155.477 213.877C154.71 212.904 154.482 211.75 154.534 210.617C153.213 212.707 151.841 215.579 150.225 217.907C150.53 222.693 150.665 227.044 150.556 230.614Z" fill="#F7F7F5"/>
<path d="M192.463 207.792C193.333 213.54 194.82 217.317 196.498 217.317C197.73 217.317 198.865 215.268 199.724 211.895C196.979 210.364 194.54 208.967 192.463 207.792Z" fill="#050914"/>
<path d="M145.071 222.419C145.526 222.419 145.987 222.336 146.422 222.17C147.893 221.612 149.256 220.365 150.716 218.249C151.674 216.862 152.534 215.32 153.368 213.82C153.948 212.78 154.497 211.792 155.036 210.943C155.196 210.705 155.171 210.379 154.958 210.177C154.72 209.944 154.342 209.95 154.109 210.188C154.083 210.214 154.057 210.245 154.036 210.281C154.036 210.286 154.031 210.291 154.026 210.296C153.466 211.176 152.912 212.18 152.322 213.24C151.503 214.71 150.659 216.231 149.732 217.566C148.432 219.444 147.21 220.587 145.993 221.048C145.221 221.342 144.351 221.249 143.61 220.789C143.025 220.432 142.595 219.873 142.419 219.263C141.787 217.059 143.247 211.781 146.226 205.5C147.241 203.348 148.178 201.48 149.085 199.778C152.633 193.15 156.253 188.442 160.479 184.965C166.809 179.771 178.038 177.303 193.851 177.623C195.524 177.66 197.31 177.727 199.16 177.83C199.486 177.851 199.771 177.598 199.791 177.266C199.812 176.935 199.558 176.656 199.227 176.635C197.362 176.532 195.565 176.459 193.871 176.428C177.763 176.102 166.27 178.663 159.713 184.044C155.362 187.63 151.649 192.447 148.023 199.219C147.106 200.937 146.158 202.825 145.133 204.993C143.62 208.18 140.223 215.977 141.259 219.599C141.518 220.509 142.124 221.296 142.973 221.818C143.62 222.222 144.345 222.424 145.065 222.424L145.071 222.419Z" fill="#050914"/>
<path d="M159.501 216.122C161.961 216.122 164.038 214.973 164.157 214.906C164.447 214.746 164.546 214.378 164.385 214.089C164.224 213.799 163.857 213.701 163.567 213.861C163.53 213.882 159.993 215.832 157.066 214.384C156.616 214.166 156.233 213.861 155.953 213.504C155.357 212.749 155.083 211.786 155.135 210.643C155.243 208.247 156.745 205.909 156.761 205.888C156.942 205.609 156.859 205.241 156.585 205.06C156.305 204.879 155.937 204.962 155.756 205.236C155.689 205.345 154.062 207.875 153.938 210.591C153.871 212.03 154.233 213.261 155.01 214.249C155.399 214.746 155.927 215.165 156.538 215.465C157.522 215.951 158.543 216.127 159.506 216.127L159.501 216.122Z" fill="#050914"/>
<path d="M168.601 217.917C171.061 217.917 173.138 216.769 173.257 216.702C173.548 216.541 173.646 216.174 173.485 215.884C173.325 215.594 172.957 215.496 172.667 215.656C172.631 215.677 169.088 217.628 166.162 216.179C165.706 215.951 165.333 215.651 165.053 215.299C164.784 214.958 164.587 214.585 164.452 214.187C163.51 211.378 165.835 207.715 165.861 207.678C166.043 207.399 165.96 207.032 165.68 206.851C165.4 206.669 165.033 206.752 164.851 207.026C164.742 207.197 162.184 211.207 163.313 214.56C163.484 215.087 163.753 215.584 164.105 216.034C164.494 216.531 165.001 216.94 165.623 217.25C166.607 217.736 167.633 217.912 168.596 217.912L168.601 217.917Z" fill="#050914"/>
<path d="M177.442 218.605C179.208 218.605 180.586 217.871 181.617 217.317L181.772 217.234C183.502 216.313 188.055 213.059 188.386 209.08C188.552 207.109 187.635 205.34 185.662 203.824C185.429 203.638 185.087 203.648 184.869 203.86C184.631 204.093 184.626 204.471 184.859 204.703C184.88 204.724 184.906 204.745 184.926 204.765C186.558 206.018 187.319 207.435 187.195 208.977C186.931 212.143 183.052 215.191 181.213 216.169L181.057 216.251C179.586 217.038 177.566 218.114 174.697 216.696C174.252 216.479 173.868 216.174 173.584 215.817L173.558 215.786C173.558 215.786 173.537 215.755 173.532 215.755C171.408 212.914 174.366 208.247 174.397 208.201C174.578 207.922 174.495 207.554 174.215 207.373C173.936 207.192 173.568 207.275 173.387 207.549C173.247 207.766 169.942 212.961 172.568 216.469L172.605 216.515C172.605 216.515 172.636 216.557 172.641 216.562C173.034 217.059 173.563 217.478 174.164 217.773C175.381 218.373 176.474 218.595 177.442 218.595V218.605Z" fill="#050914"/>
<path d="M199.719 212.49C199.932 212.49 200.134 212.381 200.243 212.18C200.403 211.89 200.299 211.528 200.009 211.367C198.062 210.286 196.249 209.256 194.649 208.346C193.986 207.968 193.354 207.611 192.753 207.27C189.034 205.164 186.76 203.969 185.403 203.705C185.207 203.663 184.999 203.731 184.86 203.876C182.586 206.225 181.322 207.523 181.322 207.523C181.089 207.761 181.094 208.139 181.332 208.372C181.571 208.604 181.949 208.599 182.182 208.361C182.182 208.361 183.363 207.156 185.486 204.957C186.89 205.355 189.449 206.773 192.168 208.315C192.769 208.656 193.4 209.013 194.058 209.391C195.659 210.302 197.477 211.336 199.429 212.418C199.523 212.469 199.621 212.495 199.719 212.495V212.49Z" fill="#050914"/>
<path d="M229.123 179.072C229.175 179.072 229.221 179.067 229.273 179.051C229.594 178.969 229.786 178.643 229.703 178.322C228.061 171.999 220.437 147.046 220.359 146.792C220.261 146.477 219.929 146.296 219.608 146.394C219.292 146.492 219.111 146.824 219.209 147.144C219.287 147.398 226.901 172.331 228.543 178.627C228.615 178.896 228.854 179.077 229.123 179.077V179.072Z" fill="#050914"/>
<path d="M122.887 236H196.818C197.15 236 197.419 235.731 197.419 235.4V230.614C197.419 230.283 197.15 230.014 196.818 230.014H127.248L113.968 186.419L104.645 155.836C104.547 155.521 104.215 155.34 103.899 155.438C103.583 155.536 103.402 155.867 103.5 156.183L112.823 186.766L126.233 230.785C126.311 231.038 126.544 231.209 126.808 231.209H196.223V234.794H122.892C122.561 234.794 122.291 235.064 122.291 235.395C122.291 235.726 122.561 235.995 122.892 235.995L122.887 236Z" fill="#050914"/>
<path d="M27.5078 236H122.887C123.219 236 123.488 235.731 123.488 235.4C123.488 235.069 123.219 234.8 122.887 234.8H27.9532L5.15848 160.063L8.91876 156.612H104.07C104.402 156.612 104.671 156.343 104.671 156.012C104.671 155.681 104.402 155.412 104.07 155.412H8.68568C8.53548 155.412 8.39045 155.469 8.28168 155.572L4.0708 159.437C3.89987 159.593 3.83772 159.831 3.90505 160.053L26.938 235.571C27.0157 235.824 27.2488 235.995 27.513 235.995L27.5078 236Z" fill="#050914"/>
<path d="M196.819 236H281.404C281.736 236 282.005 235.731 282.005 235.4C282.005 235.069 281.736 234.8 281.404 234.8H196.819C196.487 234.8 196.218 235.069 196.218 235.4C196.218 235.731 196.487 236 196.819 236Z" fill="#050914"/>
<path d="M4.47484 236H25.7986C26.1301 236 26.3994 235.731 26.3994 235.4C26.3994 235.069 26.1301 234.8 25.7986 234.8H4.47484C4.14335 234.8 3.87402 235.069 3.87402 235.4C3.87402 235.731 4.14335 236 4.47484 236Z" fill="#050914"/>
<path d="M196.492 217.917C198.026 217.917 199.305 215.941 200.299 212.045C200.299 212.035 200.305 212.024 200.305 212.009C201.366 207.823 201.972 201.796 201.972 195.458C201.972 188.044 201.144 181.157 199.761 177.044C198.911 174.535 197.938 173.22 196.777 173.029C196.451 172.972 196.14 173.195 196.088 173.521C196.031 173.847 196.254 174.157 196.581 174.209C196.819 174.25 197.668 174.597 198.626 177.427C199.973 181.426 200.776 188.168 200.776 195.458C200.776 201.713 200.18 207.647 199.134 211.74C199.134 211.75 199.129 211.761 199.129 211.771C198.196 215.418 197.124 216.712 196.492 216.712C195.493 216.712 193.991 213.892 193.053 207.694C193.002 207.368 192.701 207.14 192.37 207.192C192.043 207.244 191.815 207.549 191.867 207.875C192.437 211.621 193.794 217.912 196.492 217.912V217.917Z" fill="#050914"/>
<path d="M193.867 177.629C194.115 177.629 194.348 177.473 194.431 177.23C195.42 174.421 196.259 174.204 196.498 174.204C196.829 174.204 197.099 173.935 197.099 173.603C197.099 173.272 196.829 173.003 196.498 173.003C195.255 173.003 194.208 174.255 193.302 176.832C193.193 177.142 193.359 177.484 193.67 177.598C193.737 177.618 193.804 177.634 193.867 177.634V177.629Z" fill="#050914"/>
<path d="M253.01 232.125C258.557 232.125 263.416 231.281 267.031 229.233C267.321 229.067 267.419 228.705 267.259 228.415C267.098 228.125 266.731 228.027 266.441 228.188C254.46 234.976 227.118 227.442 211.885 222.351C203.075 219.408 196.793 216.784 196.73 216.758C196.425 216.629 196.073 216.774 195.948 217.079C195.819 217.385 195.964 217.736 196.269 217.866C196.332 217.892 202.65 220.53 211.507 223.49C224.554 227.851 240.523 232.125 253.015 232.125H253.01Z" fill="#050914"/>
<path d="M254.321 185.115C254.585 185.115 254.823 184.939 254.896 184.675C254.984 184.355 254.797 184.029 254.476 183.936C246.132 181.618 237.643 179.579 229.242 177.882C224.41 176.899 219.541 176.02 214.781 175.264C204.163 173.583 197.456 173.076 196.725 173.024C196.601 173.014 196.534 173.008 196.534 173.008C196.207 172.988 195.917 173.241 195.897 173.567C195.876 173.898 196.125 174.183 196.456 174.204C196.461 174.204 196.518 174.204 196.622 174.219C197.362 174.271 204.023 174.778 214.589 176.449C219.339 177.204 224.187 178.084 229.004 179.062C237.379 180.759 245.842 182.787 254.155 185.1C254.207 185.115 254.264 185.12 254.316 185.12L254.321 185.115Z" fill="#050914"/>
<path d="M159.05 110.477C159.382 110.477 159.651 110.208 159.646 109.877C159.641 107.342 158.076 104.869 155.005 102.525C154.591 102.204 154.13 101.873 153.601 101.526C153.026 101.154 152.415 100.838 151.778 100.595C151.467 100.476 151.12 100.631 151.006 100.942C150.887 101.252 151.043 101.599 151.353 101.713C151.908 101.925 152.446 102.199 152.949 102.525C153.446 102.851 153.886 103.161 154.28 103.472C157.046 105.583 158.449 107.735 158.454 109.877C158.454 110.208 158.724 110.472 159.055 110.472L159.05 110.477Z" fill="#050914"/>
<path d="M159.604 111.512C160.687 111.771 161.826 111.791 163.012 111.579C171.377 110.079 179.954 97.0407 182.389 93.0776C182.793 92.4153 183.015 92.0325 183.015 92.0325C183.181 91.7479 183.083 91.3805 182.793 91.215C182.508 91.0494 182.14 91.1477 181.974 91.4375C181.974 91.4375 181.757 91.8151 181.368 92.4567C179.006 96.306 170.683 108.992 162.805 110.4C160.681 110.782 158.812 110.306 157.087 108.956C156.616 108.589 156.144 108.144 155.683 107.621C155.466 107.373 155.088 107.347 154.839 107.57C154.59 107.787 154.565 108.165 154.787 108.413C155.295 108.992 155.823 109.489 156.351 109.898C157.372 110.695 158.46 111.233 159.609 111.507L159.604 111.512Z" fill="#050914"/>
<path d="M264.799 132.057C264.897 132.057 265.001 132.031 265.094 131.98C265.384 131.819 265.482 131.452 265.322 131.162C255.491 113.701 242.672 101.821 226.129 94.847C211.73 88.7729 196.943 87.3605 183.891 86.1136C183.564 86.0825 183.269 86.3257 183.238 86.6516C183.207 86.9828 183.45 87.2725 183.777 87.3036C209.897 89.7974 242.403 92.9017 264.27 131.747C264.379 131.944 264.586 132.052 264.794 132.052L264.799 132.057Z" fill="#050914"/>
<path d="M275.438 156.612C275.5 156.612 275.562 156.602 275.624 156.581C275.94 156.478 276.111 156.136 276.007 155.826C274.469 151.175 272.775 146.715 270.968 142.565C270.838 142.26 270.481 142.121 270.18 142.255C269.875 142.384 269.735 142.741 269.87 143.041C271.662 147.16 273.345 151.589 274.868 156.204C274.951 156.457 275.184 156.612 275.438 156.612Z" fill="#050914"/>
<path d="M266.736 229.315C266.803 229.315 266.876 229.305 266.943 229.279C266.985 229.264 267.026 229.243 267.062 229.222C287.936 216.298 280.037 173.039 278.24 164.497C278.172 164.171 277.856 163.965 277.53 164.032C277.204 164.099 276.997 164.42 277.069 164.741C278.835 173.138 286.615 215.641 266.472 228.177C266.27 228.275 266.135 228.477 266.135 228.715C266.135 229.046 266.405 229.315 266.736 229.315Z" fill="#050914"/>
<path d="M113.388 187.205C113.621 187.205 113.823 187.071 113.922 186.874C114.201 186.372 122.416 171.342 135.484 138.918C142.937 120.406 145.237 117.741 150.266 111.895C151.084 110.948 152.006 109.872 153.027 108.646C153.239 108.392 153.203 108.014 152.949 107.802C152.695 107.59 152.317 107.626 152.105 107.88C151.089 109.101 150.167 110.172 149.354 111.114C144.232 117.064 141.896 119.78 134.365 138.473C121.163 171.229 112.943 186.16 112.86 186.305C112.808 186.398 112.782 186.502 112.782 186.605C112.782 186.936 113.052 187.205 113.383 187.205H113.388Z" fill="#050914"/>
<path d="M266.746 236C267.078 236 267.347 235.731 267.347 235.4V228.71C267.347 228.379 267.078 228.11 266.746 228.11C266.415 228.11 266.146 228.379 266.146 228.71V235.4C266.146 235.731 266.415 236 266.746 236Z" fill="#050914"/>
<path d="M148.557 200.099C148.557 200.099 148.603 200.099 148.624 200.099C148.956 200.062 149.189 199.768 149.152 199.436C147.019 180.195 143.916 161.026 143.885 160.834C143.833 160.508 143.522 160.286 143.196 160.338C142.87 160.389 142.647 160.7 142.699 161.026C142.73 161.217 145.827 180.355 147.961 199.566C147.997 199.871 148.256 200.099 148.557 200.099Z" fill="#050914"/>
<path d="M150.556 230.619H151.157C151.26 227.256 151.146 222.962 150.825 217.871C150.804 217.54 150.52 217.291 150.188 217.312C149.857 217.333 149.608 217.617 149.629 217.948C149.95 223.003 150.059 227.256 149.96 230.599L150.561 230.619H150.556Z" fill="#050914"/>
<path d="M136.224 231.214C136.406 231.214 136.587 231.131 136.701 230.976L143.771 221.663C143.973 221.399 143.921 221.022 143.657 220.825C143.393 220.623 143.015 220.675 142.818 220.939L135.748 230.252C135.546 230.516 135.598 230.893 135.862 231.09C135.971 231.173 136.1 231.214 136.224 231.214Z" fill="#050914"/>
<path d="M219.789 132.057C220.074 132.057 220.328 131.856 220.38 131.566C222.037 122.325 225.559 116.029 230.842 112.852C239.492 107.637 250.115 112.583 250.224 112.635C250.524 112.78 250.881 112.65 251.021 112.35C251.166 112.05 251.037 111.693 250.736 111.553C250.281 111.336 239.43 106.271 230.221 111.822C224.627 115.191 220.918 121.761 219.194 131.354C219.137 131.68 219.354 131.99 219.681 132.047C219.717 132.052 219.753 132.057 219.789 132.057Z" fill="#050914"/>
<path d="M233.137 115.061C233.313 115.061 233.484 114.989 233.603 114.844C233.81 114.59 233.774 114.213 233.52 114.001L227.714 109.256C227.455 109.049 227.082 109.085 226.87 109.339C226.662 109.593 226.699 109.97 226.953 110.182L232.759 114.927C232.867 115.02 233.002 115.061 233.137 115.061Z" fill="#050914"/>
<path d="M130.967 74.6535C131.827 76.4126 133.407 77.4111 134.505 76.8782C135.603 76.3453 135.795 74.4827 134.94 72.7236C134.08 70.9645 132.495 69.9711 131.402 70.5041C130.304 71.037 130.108 72.8944 130.967 74.6535Z" fill="#050914"/>
<path d="M139.938 55.2981C139.938 55.2981 145.993 67.0014 157.087 63.4107C158.853 56.2656 166.571 54.8066 171.299 58.6353C175.692 62.1845 177.805 67.7516 175.07 72.6305C175.07 72.6305 175.935 73.36 177.67 74.1258C184.895 66.5719 190.624 52.6802 180.192 43.7967C176.8 40.9097 173.77 40.1491 171.33 40.5113C171.786 45.5816 168.715 50.2019 165.654 48.1065C163.727 46.7871 166.27 41.246 171.33 40.5113C171.03 37.1948 169.217 33.6766 164.898 31.7364C160.132 29.5996 156.491 30.8413 154.176 32.3935C153.834 32.1658 140.533 23.4117 133.36 25.9934C132.044 26.4694 131.257 27.1783 130.879 28.0061C136.416 29.4134 140.451 33.3558 138.384 35.2753C135.639 37.826 129.159 31.7312 130.879 28.0061C127.429 27.1265 123.39 27.2352 119.893 29.4341C110.783 35.1615 115.807 42.9171 115.807 42.9171C115.807 42.9171 104.06 44.7383 103.842 53.4459C103.656 60.8652 112.388 69.2882 122.136 68.5121C121.313 66.6961 120.339 64.6473 119.293 62.2311C119.091 61.7861 118.925 61.3412 118.775 60.9066C122.711 59.1061 125.482 57.3677 127.372 55.7793C126.58 54.5324 126.249 52.9854 126.451 51.4488C127.31 44.9556 135.566 48.9136 127.372 55.7793C127.901 56.6071 128.631 57.3056 129.548 57.7712C133.116 59.6028 137.374 57.2228 139.953 55.2981H139.938Z" fill="#050914"/>
<path d="M126.435 51.454C126.233 52.9854 126.565 54.5376 127.357 55.7845C135.551 48.9239 127.295 44.9659 126.435 51.454Z" fill="#050914"/>
<path d="M130.874 28.0112C129.154 31.7364 135.634 37.8312 138.379 35.2805C140.446 33.361 136.411 29.4185 130.874 28.0112Z" fill="#050914"/>
<path d="M165.649 48.1116C168.71 50.2019 171.781 45.5816 171.326 40.5164C166.265 41.2511 163.722 46.7975 165.649 48.1116Z" fill="#050914"/>
<path d="M151.612 101.382C151.685 101.263 151.716 101.113 151.685 100.963C151.623 100.637 151.307 100.424 150.986 100.487C145.915 101.454 142.569 98.5929 139.026 95.561C137.825 94.5314 136.587 93.4708 135.271 92.5602C132.464 90.62 129.615 89.6887 127.326 88.9437C125.177 88.2452 123.483 87.6916 123.022 86.6568C122.747 86.0411 122.872 85.1667 123.405 83.9768C126.482 78.0837 125.498 74.4983 122.68 68.2638C122.431 67.7154 122.173 67.1514 121.898 66.5616C121.276 65.2112 120.572 63.6798 119.842 61.9931C119.666 61.5999 119.5 61.1808 119.339 60.7151C119.293 60.5806 119.2 60.4668 119.075 60.3944C118.79 60.2236 118.423 60.3167 118.252 60.6013C118.148 60.772 118.143 60.979 118.221 61.1497C118.392 61.6361 118.562 62.0707 118.744 62.4794C119.474 64.1661 120.184 65.7079 120.81 67.0634C121.08 67.6533 121.344 68.2172 121.587 68.7605C124.301 74.7621 125.192 77.9699 122.328 83.4542C121.629 85.0219 121.504 86.186 121.929 87.138C122.602 88.6591 124.524 89.2851 126.958 90.0767C129.175 90.8011 131.931 91.6962 134.593 93.5432C135.857 94.4176 137.074 95.4627 138.25 96.4664C141.849 99.5501 145.573 102.737 151.214 101.661C151.39 101.63 151.535 101.521 151.618 101.376L151.612 101.382Z" fill="#050914"/>
<path d="M175.459 73.1531C175.505 73.0703 175.552 72.9927 175.599 72.9099C178.266 68.1551 176.691 62.2259 171.673 58.1696C169.098 56.0845 165.587 55.4275 162.51 56.4571C159.511 57.4608 157.325 59.9442 156.502 63.2658C156.29 64.1402 156.16 65.0819 156.124 66.0597C156.113 66.3908 156.372 66.6702 156.699 66.6806C157.03 66.6909 157.31 66.4322 157.32 66.1063C157.351 65.206 157.47 64.3472 157.662 63.5504C158.392 60.591 160.247 58.4749 162.888 57.5901C165.576 56.6899 168.653 57.2642 170.916 59.0957C174.697 62.1535 177.287 67.436 174.542 72.3304C174.501 72.408 174.464 72.4701 174.423 72.5374C173.926 73.3755 173.314 74.1258 172.61 74.7621C172.361 74.9846 172.346 75.3623 172.569 75.6106C172.791 75.8538 173.169 75.8745 173.418 75.652C174.21 74.938 174.899 74.0947 175.459 73.1479V73.1531Z" fill="#050914"/>
<path d="M162.956 70.83L167.56 63.0692C167.731 62.7847 167.633 62.4173 167.348 62.2466C167.063 62.0759 166.695 62.1742 166.524 62.4587L161.92 70.2195C161.749 70.5041 161.847 70.8714 162.132 71.0421C162.417 71.2129 162.785 71.1146 162.956 70.83Z" fill="#050914"/>
<path d="M170.342 66.634C170.357 66.6081 170.373 66.5771 170.383 66.5461C170.502 66.2356 170.352 65.889 170.041 65.77L166.063 64.2178C165.753 64.0988 165.406 64.2489 165.286 64.5593C165.167 64.8697 165.317 65.2164 165.628 65.3354L169.606 66.8875C169.886 66.9962 170.191 66.8875 170.342 66.634Z" fill="#050914"/>
<path d="M142.647 92.0376C142.647 92.0376 142.657 92.079 142.667 92.0997C142.781 92.4102 143.128 92.5654 143.439 92.4515C143.636 92.3791 148.194 90.6252 147.862 86.3723C147.837 86.0411 147.547 85.798 147.22 85.8238C146.889 85.8497 146.645 86.1394 146.671 86.4654C146.935 89.8129 143.185 91.2667 143.025 91.3288C142.735 91.4375 142.579 91.7479 142.657 92.0376H142.647Z" fill="#050914"/>
<path d="M136.292 67.7619C136.458 67.4774 136.37 67.11 136.085 66.9444C129.6 63.0641 126.228 66.3081 126.088 66.4478C125.855 66.6806 125.855 67.0583 126.088 67.2963C126.321 67.5291 126.7 67.5291 126.933 67.2963C127.057 67.1773 129.833 64.6007 135.468 67.9689C135.753 68.1396 136.121 68.0465 136.292 67.7619Z" fill="#050914"/>
<path d="M157.605 63.716C157.688 63.5711 157.714 63.3952 157.662 63.2245C157.558 62.9089 157.222 62.7381 156.906 62.8416C146.417 66.2356 140.528 55.1377 140.471 55.0239C140.321 54.729 139.959 54.6152 139.663 54.7652C139.368 54.9153 139.254 55.2774 139.404 55.5723C139.467 55.6913 145.827 67.6843 157.274 63.9798C157.419 63.9333 157.533 63.835 157.605 63.716Z" fill="#050914"/>
<path d="M127.875 56.0846C128 55.8724 127.984 55.593 127.818 55.3964C127.606 55.1429 127.228 55.1119 126.974 55.324C124.939 57.0314 122.095 58.7284 118.516 60.3633C117.195 60.9687 115.75 61.574 114.217 62.169C113.906 62.288 113.756 62.6346 113.875 62.9451C113.994 63.2555 114.341 63.4055 114.652 63.2865C116.206 62.6864 117.677 62.0707 119.018 61.455C122.696 59.7735 125.633 58.0247 127.751 56.2449C127.803 56.1984 127.849 56.1466 127.88 56.0897L127.875 56.0846Z" fill="#050914"/>
<path d="M127.74 56.2397C127.606 56.3484 127.435 56.4001 127.264 56.3743C127.093 56.3484 126.943 56.2501 126.849 56.1052C125.974 54.7342 125.617 53.0578 125.839 51.3763C126.176 48.8411 127.554 47.7546 128.73 47.5839C129.812 47.4287 130.838 47.9978 131.293 49.0067C131.516 49.5034 131.915 50.9003 130.698 52.9544C130.128 53.9167 129.206 55.0187 127.74 56.2449V56.2397ZM127.031 51.5315C126.881 52.6853 127.051 53.8391 127.523 54.8428C130.175 52.4421 130.662 50.5226 130.201 49.4931C129.962 48.9653 129.465 48.6859 128.906 48.7687C128.46 48.836 127.963 49.1412 127.585 49.7828C127.331 50.2122 127.129 50.7865 127.031 51.5367V51.5315Z" fill="#050914"/>
<path d="M142.792 53.6114C142.932 53.3786 142.896 53.0785 142.699 52.8819C142.461 52.6491 142.082 52.6543 141.849 52.8871C141.839 52.8974 140.948 53.7977 139.576 54.8221C137.374 56.4674 133.174 58.9715 129.807 57.2435C129.02 56.8399 128.352 56.2242 127.865 55.4585C127.689 55.1791 127.316 55.0963 127.036 55.2722C126.757 55.4482 126.674 55.8207 126.85 56.1001C127.451 57.0469 128.284 57.8074 129.258 58.3041C133.008 60.2288 137.328 57.9885 140.296 55.7741C141.741 54.6928 142.663 53.7615 142.704 53.7201C142.74 53.6839 142.766 53.6477 142.792 53.6063V53.6114Z" fill="#050914"/>
<path d="M122.644 68.8174C122.706 68.7139 122.737 68.5949 122.727 68.4656C122.701 68.1344 122.411 67.8913 122.08 67.9171C117.454 68.2897 112.715 66.5305 109.084 63.0899C106.096 60.2598 104.355 56.664 104.438 53.4614C104.64 45.3643 115.781 43.5276 115.895 43.5121C116.097 43.481 116.268 43.3517 116.351 43.1654C116.434 42.9792 116.418 42.7671 116.31 42.5963C116.294 42.5704 114.445 39.642 115.212 36.2118C115.75 33.8008 117.434 31.695 120.215 29.9463C124.188 27.4473 128.512 28.0268 130.734 28.5907C131.055 28.6735 131.382 28.4821 131.465 28.1561C131.548 27.8353 131.351 27.5094 131.03 27.4266C126.87 26.3659 122.799 26.904 119.578 28.9322C116.512 30.862 114.647 33.2265 114.041 35.9686C113.409 38.8246 114.321 41.3029 114.896 42.498C112.145 43.1292 103.434 45.7368 103.247 53.4355C103.154 57.021 104.987 60.86 108.271 63.9591C112.151 67.6274 117.226 69.5055 122.188 69.1071C122.39 69.0916 122.561 68.9778 122.654 68.8174H122.644Z" fill="#050914"/>
<path d="M138.788 35.7151C137.54 36.874 135.525 36.6981 133.521 35.2494C131.071 33.48 129.206 30.1894 130.33 27.7577C130.449 27.4938 130.745 27.3541 131.024 27.4266C135.23 28.4924 138.845 31.0638 139.446 33.3972C139.612 34.0491 139.534 34.6596 139.223 35.1822C139.109 35.3736 138.964 35.5547 138.788 35.7151ZM134.225 34.2819C135.406 35.1356 137.012 35.7306 137.97 34.8407C138.301 34.5303 138.4 34.1681 138.281 33.6973C137.882 32.1296 135.111 29.8479 131.257 28.7356C130.838 30.5516 132.376 32.9471 134.225 34.2819Z" fill="#050914"/>
<path d="M154.176 32.4038L154.477 31.8864C153.078 30.9655 140.409 22.827 133.153 25.4347C131.76 25.9365 130.807 26.7178 130.33 27.7629C130.19 28.063 130.325 28.42 130.626 28.5545C130.926 28.6942 131.283 28.5597 131.418 28.2596C131.755 27.5197 132.475 26.9506 133.557 26.5626C140.378 24.1102 153.291 32.5384 153.84 32.9005L154.176 32.4038Z" fill="#050914"/>
<path d="M182.653 68.5173C185.02 64.5283 186.713 59.7683 186.47 54.9773C186.237 50.383 184.253 46.4664 180.581 43.3413C176.598 39.9576 173.304 39.611 171.237 39.9214C170.911 39.968 170.683 40.2733 170.735 40.6044C170.787 40.9355 171.087 41.158 171.419 41.1062C174.024 40.7182 176.924 41.8047 179.804 44.2519C183.217 47.1545 185.056 50.7865 185.274 55.0394C185.641 62.2259 181.363 69.3969 177.24 73.7118C177.012 73.9498 177.018 74.3327 177.261 74.5604C177.499 74.788 177.883 74.7828 178.11 74.5397C179.69 72.8892 181.291 70.8352 182.663 68.5173H182.653Z" fill="#050914"/>
<path d="M168.793 48.7687C167.669 49.431 166.431 49.3689 165.307 48.6032C164.509 48.0547 164.219 47.0096 164.514 45.7265C165.079 43.3 167.622 40.444 171.237 39.9163C171.403 39.8904 171.564 39.937 171.693 40.0404C171.823 40.1439 171.905 40.2939 171.921 40.4595C172.133 42.824 171.626 45.1625 170.636 46.8285C170.134 47.6719 169.513 48.3496 168.793 48.7687ZM165.685 46.0007C165.602 46.3681 165.457 47.258 165.985 47.6149C166.721 48.1168 167.461 48.1582 168.187 47.7339C169.575 46.9217 170.849 44.3192 170.766 41.2304C168.026 41.8978 166.125 44.1071 165.685 46.0007Z" fill="#050914"/>
<path d="M171.844 40.8217C171.906 40.7182 171.937 40.5941 171.926 40.4647C171.709 38.0433 170.538 33.6197 165.141 31.1983C160.066 28.9218 156.196 30.3291 153.84 31.9072C151.866 33.2368 150.815 34.7735 150.774 34.8356C150.592 35.1046 150.66 35.4823 150.934 35.6685C151.209 35.8548 151.582 35.7824 151.768 35.5082C151.789 35.4771 152.752 34.0854 154.513 32.9005C156.616 31.4933 160.081 30.2412 164.649 32.29C169.487 34.463 170.538 38.4107 170.73 40.5734C170.761 40.9045 171.051 41.1477 171.383 41.1166C171.585 41.1011 171.75 40.9873 171.844 40.8269V40.8217Z" fill="#050914"/>
<path d="M183.388 87.1276C183.637 87.2984 183.979 87.2518 184.181 87.019C184.393 86.7655 184.362 86.3878 184.108 86.1756C181.803 84.2303 179.99 82.1193 178.716 79.8998C177.012 76.9351 176.872 74.7983 176.872 74.7777C176.852 74.4465 176.572 74.193 176.241 74.2137C175.909 74.2292 175.655 74.5138 175.676 74.8397C175.676 74.938 175.821 77.2559 177.68 80.4948C179.022 82.8333 180.928 85.0529 183.336 87.0862C183.352 87.1018 183.373 87.1121 183.388 87.1276Z" fill="#050914"/>
<path d="M25.0376 132.927C25.6229 134.484 24.8356 136.222 23.2714 136.807C21.7124 137.392 19.9721 136.605 19.3868 135.043C18.8015 133.485 19.5888 131.752 21.1478 131.162C22.7068 130.578 24.4471 131.364 25.0324 132.927H25.0376Z" fill="#F7F7F5"/>
<path d="M94.6284 90.7028C94.6284 89.9112 95.2707 89.2696 96.0631 89.2696C96.8556 89.2696 97.4978 89.9112 97.4978 90.7028C97.4978 91.4943 96.8556 92.1359 96.0631 92.1359C95.2707 92.1359 94.6284 91.4943 94.6284 90.7028Z" fill="#050914"/>
<path d="M105.992 90.7028C105.992 89.9112 106.634 89.2696 107.427 89.2696C108.219 89.2696 108.862 89.9112 108.862 90.7028C108.862 91.4943 108.219 92.1359 107.427 92.1359C106.634 92.1359 105.992 91.4943 105.992 90.7028Z" fill="#050914"/>
<path d="M100.31 90.7028C100.31 89.9112 100.952 89.2696 101.745 89.2696C102.537 89.2696 103.179 89.9112 103.179 90.7028C103.179 91.4943 102.537 92.1359 101.745 92.1359C100.952 92.1359 100.31 91.4943 100.31 90.7028Z" fill="#050914"/>
<path d="M96.0685 100.673C96.8609 100.673 97.5032 101.314 97.5032 102.106C97.5032 102.898 96.8609 103.539 96.0685 103.539C95.276 103.539 94.6338 102.898 94.6338 102.106C94.6338 101.314 95.276 100.673 96.0685 100.673Z" fill="#050914"/>
<path d="M96.0685 95.0022C96.8609 95.0022 97.5032 95.6438 97.5032 96.4354C97.5032 97.227 96.8609 97.8685 96.0685 97.8685C95.276 97.8685 94.6338 97.227 94.6338 96.4354C94.6338 95.6438 95.276 95.0022 96.0685 95.0022Z" fill="#050914"/>
<path d="M101.75 100.673C102.543 100.673 103.185 101.314 103.185 102.106C103.185 102.898 102.543 103.539 101.75 103.539C100.958 103.539 100.315 102.898 100.315 102.106C100.315 101.314 100.958 100.673 101.75 100.673Z" fill="#050914"/>
<path d="M101.75 95.0022C102.543 95.0022 103.185 95.6438 103.185 96.4354C103.185 97.227 102.543 97.8685 101.75 97.8685C100.958 97.8685 100.315 97.227 100.315 96.4354C100.315 95.6438 100.958 95.0022 101.75 95.0022Z" fill="#050914"/>
<path d="M107.427 100.673C108.219 100.673 108.862 101.314 108.862 102.106C108.862 102.898 108.219 103.539 107.427 103.539C106.634 103.539 105.992 102.898 105.992 102.106C105.992 101.314 106.634 100.673 107.427 100.673Z" fill="#050914"/>
<path d="M107.427 95.0022C108.219 95.0022 108.862 95.6438 108.862 96.4354C108.862 97.227 108.219 97.8685 107.427 97.8685C106.634 97.8685 105.992 97.227 105.992 96.4354C105.992 95.6438 106.634 95.0022 107.427 95.0022Z" fill="#050914"/>
<path d="M25.0373 133.527C24.7059 133.527 24.4365 133.258 24.4365 132.927C24.4365 132.658 24.6178 132.425 24.8664 132.352L83.0316 110.55C83.3423 110.436 83.6894 110.591 83.8033 110.901C83.9173 111.212 83.7619 111.559 83.4511 111.672L25.2497 133.491C25.1824 133.516 25.1099 133.527 25.0373 133.527Z" fill="#050914"/>
<path d="M21.1477 131.762C20.9043 131.762 20.6764 131.612 20.5883 131.374L1.75069 81.2243C1.63675 80.9138 1.79213 80.5672 2.1029 80.4534C2.41366 80.3395 2.76069 80.4947 2.87463 80.8052L21.7123 130.955C21.8262 131.266 21.6708 131.612 21.3601 131.726C21.2927 131.752 21.2202 131.762 21.1477 131.762Z" fill="#050914"/>
<path d="M22.2095 137.604C21.7019 137.604 21.1943 137.495 20.7178 137.278C19.8373 136.879 19.164 136.16 18.8273 135.255C18.1281 133.397 19.0759 131.312 20.9405 130.603C20.9561 130.598 20.9716 130.593 20.9872 130.588C22.8414 129.915 24.908 130.867 25.6072 132.714C25.9439 133.62 25.9128 134.598 25.514 135.477C25.1152 136.357 24.3952 137.029 23.4888 137.366C23.0745 137.521 22.6446 137.599 22.2147 137.599L22.2095 137.604ZM21.329 131.737C20.1015 132.223 19.4799 133.604 19.9461 134.836C20.174 135.441 20.6194 135.922 21.2099 136.191C21.8003 136.46 22.4529 136.481 23.0589 136.253C23.6649 136.026 24.1466 135.581 24.4108 134.991C24.6801 134.401 24.7008 133.749 24.4729 133.144C24.0016 131.897 22.6083 131.261 21.3601 131.731C21.3497 131.731 21.3394 131.742 21.329 131.742V131.737Z" fill="#050914"/>
<path d="M0.600896 90.0095C0.559461 90.0095 0.523205 90.0095 0.481769 89.9991C0.155464 89.9319 -0.0517137 89.6163 0.0156191 89.2903L1.72484 80.8931C1.76627 80.6914 1.90612 80.5258 2.10293 80.4534C2.29457 80.3809 2.51211 80.412 2.67785 80.5362L9.49918 85.7359C9.76333 85.9377 9.81513 86.3102 9.61313 86.574C9.41113 86.8379 9.03821 86.8896 8.77406 86.6879L2.71411 82.0676L1.19653 89.5283C1.13956 89.8129 0.890945 90.0095 0.611255 90.0095H0.600896Z" fill="#050914"/>
<path d="M78.0335 118.523C77.9092 118.523 77.7797 118.481 77.671 118.398C77.4068 118.197 77.355 117.824 77.557 117.56L82.1823 111.507L74.7083 109.986C74.382 109.918 74.1748 109.603 74.2422 109.277C74.3095 108.951 74.6255 108.744 74.9518 108.811L83.3528 110.519C83.5341 110.555 83.6947 110.674 83.7775 110.839C83.8811 111.041 83.8552 111.29 83.7206 111.471L78.51 118.285C78.3909 118.44 78.2148 118.517 78.0335 118.517V118.523Z" fill="#050914"/>
<path d="M22.831 123.277C22.831 123.277 22.8103 123.277 22.7947 123.277C22.4633 123.257 22.2095 122.977 22.2302 122.646C22.2975 121.513 23.9446 94.8418 34.3708 93.864C37.898 93.5329 42.1244 96.2853 46.6047 99.1982C51.8773 102.628 57.3313 106.173 61.48 104.476C64.365 103.291 66.4316 99.6846 67.7989 93.4449C67.8714 93.1241 68.1874 92.9172 68.5137 92.9896C68.8348 93.062 69.042 93.3776 68.9695 93.7036C67.5141 100.357 65.2144 104.243 61.9358 105.588C57.2018 107.528 51.4837 103.808 45.952 100.207C41.6531 97.4132 37.5924 94.7694 34.4848 95.0591C25.0789 95.9439 23.4474 122.45 23.4318 122.719C23.4111 123.039 23.147 123.282 22.8362 123.282L22.831 123.277Z" fill="#050914"/>
<path d="M269.564 80.3861C262.852 80.3861 253.068 78.3321 243.968 75.3571C238.918 73.7067 234.013 71.7561 229.771 69.7125C219.805 64.9267 214.476 60.1822 215.512 57.0262C215.667 56.5554 215.952 56.1311 216.366 55.7689C216.615 55.5465 216.993 55.5723 217.211 55.8155C217.433 56.0638 217.407 56.4415 217.164 56.6588C216.91 56.8865 216.739 57.1297 216.651 57.3987C215.993 59.4113 219.956 63.6642 230.294 68.6311C234.484 70.6489 239.342 72.5788 244.34 74.2137C262.013 79.9981 275.541 80.3344 276.624 77.0179C276.681 76.8369 276.707 76.6351 276.691 76.423C276.691 76.3609 276.686 76.3091 276.676 76.2574C276.608 75.9314 276.821 75.6158 277.147 75.5537C277.473 75.4865 277.789 75.6986 277.851 76.0246C277.872 76.1332 277.883 76.247 277.888 76.3557C277.914 76.7075 277.872 77.0645 277.763 77.3956C277.075 79.4962 273.982 80.3861 269.564 80.3861Z" fill="#050914"/>
<path d="M277.261 76.7437C276.976 76.7437 276.722 76.5368 276.67 76.2419C276.059 72.6253 265.529 65.6458 248.965 60.2236C248.955 60.2236 248.939 60.2184 248.929 60.2133C232.018 54.6824 219.945 54.253 217.169 56.6588C216.92 56.8761 216.542 56.8503 216.324 56.5967C216.107 56.3484 216.133 55.9707 216.387 55.7534C220.002 52.6232 233.826 54.015 249.271 59.0647C249.281 59.0647 249.297 59.0699 249.307 59.075C265.058 64.2282 277.064 71.3629 277.851 76.0452C277.908 76.3712 277.685 76.6816 277.359 76.7334C277.323 76.7385 277.292 76.7437 277.261 76.7437Z" fill="#050914"/>
<path d="M277.292 76.9869C276.991 76.9869 276.732 76.7592 276.696 76.454L276.67 76.2108C276.67 76.2108 276.67 76.1953 276.67 76.1901L268.031 1.96088L217.221 56.6174C217.221 56.6174 217.169 56.664 217.143 56.6899C216.941 56.8503 216.651 56.8761 216.428 56.7261C216.154 56.545 216.076 56.1777 216.257 55.9034L216.268 55.8931C216.299 55.8465 216.335 55.8103 216.371 55.7741L268.036 0.191418C268.197 0.0206812 268.44 -0.041405 268.663 0.0310289C268.886 0.103463 269.046 0.300069 269.072 0.532892L277.856 76.0763C277.856 76.0763 277.856 76.0918 277.856 76.1021L277.882 76.3246C277.918 76.6558 277.685 76.9507 277.354 76.9869C277.333 76.9869 277.307 76.9869 277.287 76.9869H277.292Z" fill="#050914"/>
<path d="M230.03 69.7745C229.729 69.7745 229.47 69.5521 229.434 69.2468C229.398 68.9209 229.631 68.6208 229.957 68.5794L246.179 66.6651L267.907 0.413907C268.01 0.0983025 268.347 -0.0724345 268.663 0.0310425C268.979 0.134519 269.15 0.47082 269.046 0.786425L247.205 67.3997C247.132 67.6222 246.935 67.7826 246.707 67.8085L230.102 69.7694C230.102 69.7694 230.055 69.7694 230.03 69.7694V69.7745Z" fill="#050914"/>
<path d="M77.6503 62.9037C80.8356 62.9037 83.4202 65.4854 83.4202 68.6673C83.4202 71.8492 80.8356 74.431 77.6503 74.431C74.4649 74.431 71.8804 71.8492 71.8804 68.6673C71.8804 65.4854 74.4649 62.9037 77.6503 62.9037Z" fill="#FF5635"/>
<path d="M79.7427 16.189C83.2025 19.8003 84.891 24.6327 84.3731 29.4237C83.9691 33.1075 82.0941 38.4417 75.4282 42.9171C72.8488 44.6452 69.736 47.3614 69.5444 50.4709C69.3631 53.4304 71.8855 55.7482 71.9165 55.7741C73.1544 56.8503 73.2891 58.7232 72.2169 59.9649C71.6317 60.6427 70.7978 60.9893 69.9639 60.9893C69.2698 60.9893 68.581 60.7514 68.0164 60.265C67.8196 60.0943 63.241 56.0587 63.6035 50.1036C63.8729 45.6592 66.7371 41.5771 72.1082 37.9761C75.884 35.446 78.0749 32.2641 78.453 28.7821C78.7845 25.7347 77.6916 22.6408 75.4437 20.297C72.5277 17.2548 67.7626 16.5977 64.0956 18.7397C59.3978 21.487 60.3767 26.8626 60.3923 26.9195C60.703 28.5338 59.6464 30.0911 58.0356 30.4015C56.4196 30.712 54.8606 29.6565 54.5499 28.0474C54.4722 27.6542 52.8044 18.4603 61.0915 13.6124C67.11 10.0994 74.9517 11.1807 79.7479 16.1942L79.7427 16.189Z" fill="#FF5635"/>
</g>
<defs>
<clipPath id="clip0_181_1679">
<rect width="282" height="236" fill="white"/>
</clipPath>
</defs>
</svg>
