<svg width="267" height="120" viewBox="0 0 267 120" fill="none" xmlns="http://www.w3.org/2000/svg">
<g clip-path="url(#clip0_253_3025)">
<path d="M157.907 119.757H103.338C97.805 119.757 93.3164 115.274 93.3164 109.741V62.8406C93.3164 42.9296 167.925 42.9296 167.925 62.8406V109.741C167.925 115.271 163.439 119.757 157.904 119.757H157.907Z" fill="#232E3D"/>
<path d="M137.096 120H124.146C124.01 120 123.9 119.89 123.9 119.754C123.9 119.618 124.01 119.508 124.146 119.508H137.096C137.232 119.508 137.342 119.618 137.342 119.754C137.342 119.89 137.232 120 137.096 120Z" fill="#465C7A"/>
<path d="M46.832 114.301H21.998C21.998 113.426 22.354 112.637 22.9236 112.062C23.4992 111.487 24.2913 111.137 25.1635 111.137H43.6666C45.4169 111.137 46.832 112.551 46.832 114.301Z" fill="#727EA3"/>
<path d="M26.3408 74.0459C26.5455 74.3513 26.6642 74.722 26.6642 75.1163C26.6642 75.5848 26.4951 76.0237 26.2133 76.3587C25.8573 76.7857 25.3233 77.0615 24.721 77.0615C24.3057 77.0615 23.92 76.931 23.6085 76.7086C23.1072 76.3587 22.7749 75.7746 22.7749 75.1163C22.7749 74.3988 23.1635 73.7731 23.745 73.441C24.0328 73.272 24.365 73.1771 24.721 73.1771C25.4004 73.1771 25.9937 73.524 26.3408 74.0489V74.0459Z" fill="#727EA3"/>
<path d="M38.2612 41.9332L40.8926 44.7798C40.5871 45.0318 40.2162 45.1741 39.8424 45.2068C39.2877 45.2601 38.7151 45.0704 38.2909 44.6464C37.9853 44.3409 37.8043 43.9614 37.745 43.567C37.653 42.9888 37.8281 42.3839 38.2612 41.9332Z" fill="#727EA3"/>
<path d="M61.6267 43.1994C61.8581 43.4306 60.6299 44.9873 58.746 47.0719C55.4352 44.1423 51.1899 42.3869 46.7785 42.2742C46.5501 42.2683 46.3276 42.1823 46.1614 42.0252C44.9125 40.8658 41.75 37.9273 40.4565 36.7294C41.2931 35.9881 41.9962 35.4959 42.1594 35.659L47.8406 40.9103C52.3262 38.7042 57.8976 39.4692 61.6267 43.1964V43.1994Z" fill="#727EA3"/>
<path d="M38.2611 41.9333L37.119 40.6968C36.8994 40.4803 37.8577 39.2943 38.9909 38.123L44.8976 43.4959C45.0607 43.6471 45.2862 43.742 45.5206 43.7539C49.6591 44.1127 53.7382 46.4314 56.5358 49.4351C51.715 54.4789 45.1527 60.6523 44.6543 60.1571C40.9252 56.4299 40.1628 50.8614 42.367 46.378L40.8896 44.7798L38.2582 41.9333H38.2611Z" fill="#727EA3"/>
<path d="M58.7457 47.0719C58.0842 47.8073 57.3366 48.6049 56.5385 49.4381C53.741 46.4344 49.6618 44.1157 45.5233 43.7569C45.2889 43.745 45.0635 43.6501 44.9003 43.4989L38.9937 38.126C39.4743 37.6338 39.9845 37.1446 40.4562 36.7324C41.7497 37.9303 44.9122 40.8688 46.1611 42.0282C46.3273 42.1854 46.5498 42.2684 46.7782 42.2773C51.1896 42.3929 55.4379 44.1453 58.7457 47.0749V47.0719Z" fill="#ADB5CC"/>
<path d="M38.2907 44.6464C38.7149 45.0704 39.2875 45.2602 39.8423 45.2098L26.3439 74.043C25.9968 73.5181 25.4035 73.1712 24.7241 73.1712C24.3681 73.1712 24.0359 73.2661 23.7481 73.4351H23.7451L37.6528 43.7301C37.6795 43.6708 37.7092 43.6145 37.7448 43.5641H37.7478C37.8071 43.9585 37.9851 44.338 38.2936 44.6434L38.2907 44.6464Z" fill="#ADB5CC"/>
<path d="M26.2166 76.3588L35.0721 111.137H32.3753L23.6118 76.7116C23.9263 76.931 24.309 77.0615 24.7243 77.0615C25.3236 77.0615 25.8606 76.7887 26.2166 76.3588Z" fill="#ADB5CC"/>
<path d="M191.071 105.708L193.124 108.053L191.656 108.374C189.333 107.529 187.105 106.835 184.969 106.36C186.25 105.776 187.707 105.296 189.662 105.133C190.196 105.088 190.718 105.305 191.071 105.708Z" fill="#E8A376"/>
<path d="M200.606 108.896C201.018 109.483 200.825 110.295 200.191 110.63C200.016 110.725 199.823 110.769 199.633 110.769C199.247 110.769 198.873 110.583 198.645 110.245L197.055 107.873C196.669 107.3 196.123 106.864 195.485 106.615L193.361 103.487L195.85 103.95C196.782 104.122 197.607 104.652 198.152 105.423L200.606 108.89V108.896Z" fill="#FFC9A6"/>
<path d="M127.97 112.887C128.109 113.616 127.543 114.298 126.795 114.298H118.856C119.604 114.298 120.174 113.616 120.031 112.887C120.025 112.848 120.019 112.812 120.008 112.771L120.034 112.744L120.337 113.029C120.577 113.254 120.886 113.367 121.191 113.367C121.497 113.367 121.79 113.26 122.031 113.047C122.559 112.572 122.589 111.751 122.096 111.244L123.594 112.735C123.897 113.038 124.3 113.195 124.701 113.195C125.045 113.195 125.383 113.085 125.671 112.86C126.27 112.386 126.359 111.511 125.867 110.927L122.055 106.434L122.087 106.405L124.161 106.636L126.054 109.317C126.282 109.643 126.608 109.868 126.97 109.975L126.961 110.01C127.424 110.864 127.762 111.822 127.97 112.884V112.887Z" fill="#727EA3"/>
<path d="M120.034 112.887C120.177 113.616 119.607 114.298 118.859 114.298H111.618C111.039 114.298 110.585 113.782 110.683 113.213C110.74 112.887 110.814 112.575 110.912 112.276C111.223 111.303 111.745 110.461 112.419 109.717L117.213 113.598C117.447 113.791 117.735 113.886 118.02 113.886C118.349 113.886 118.675 113.758 118.925 113.509C119.435 112.999 119.42 112.166 118.892 111.674L120.037 112.744L120.01 112.771C120.019 112.809 120.028 112.845 120.034 112.887Z" fill="#ADB5CC"/>
<path d="M144.186 12.1749C143.61 12.3588 143.005 12.4685 142.382 12.5011C138.95 12.676 135.019 12.4003 130.886 11.9377C130.516 14.7665 129.068 16.9073 126.496 18.3247C126.146 19.2943 125.929 20.7353 125.793 22.4611C125.748 23.0126 125.196 23.3743 124.671 23.2053L124.627 23.1935C124.268 23.0748 124.039 22.7309 124.048 22.3513C124.09 20.9874 123.624 19.914 122.66 19.1253C121.618 18.2713 120.126 18.6034 119.453 19.6412C117.198 12.6731 117.1 7.573 121.497 6.36024C121.725 3.41584 123.191 1.26907 126.552 0.349867C128.961 -0.308399 131.524 -0.00891764 133.8 1.0111C138.439 3.08671 143.287 4.29353 148.559 3.71532C149.019 3.66491 149.413 4.04446 149.386 4.50109C149.33 5.39953 149.191 6.27425 148.971 7.13415C148.345 9.56855 146.503 11.4396 144.183 12.1749H144.186Z" fill="#232E3D"/>
<path d="M136.271 37.4589C136.099 38.0015 135.947 38.6331 135.817 39.3388C135.689 39.9911 135.585 40.7028 135.488 41.4559C129.694 39.2469 126.276 35.6916 125.244 30.7843C125.87 32.0534 126.771 33.1742 127.902 34.0489C128.999 34.897 130.153 35.6501 131.37 36.3143C132.85 37.1208 134.526 37.5093 136.211 37.4618C136.232 37.4618 136.253 37.4618 136.274 37.4589H136.271Z" fill="#E8A376"/>
<path d="M186.787 110.381C185.971 110.686 185.132 110.936 184.271 111.128C183.589 111.282 182.898 111.357 182.21 111.357C179.857 111.357 177.549 110.476 175.748 108.887C172.598 107.923 169.646 106.858 167.062 105.604C162.911 103.057 159.915 98.9504 157.913 93.5093C155.741 87.6145 159.304 81.1238 165.448 79.8073C165.483 79.8014 165.522 79.7895 165.558 79.7836C166.744 85.112 168.139 89.2839 169.833 91.7302C170.298 92.0208 170.726 92.3736 171.108 92.7799C174.532 96.4507 178.003 100.047 182.023 103.787L184.102 102.829C184.856 102.482 185.666 102.271 186.493 102.2L190.656 101.85C191.581 101.773 192.483 102.2 193.005 102.968L193.358 103.487L195.482 106.615L196.651 108.338C197.049 108.922 196.877 109.72 196.272 110.09C196.07 110.212 195.847 110.271 195.625 110.271C195.278 110.271 194.937 110.129 194.69 109.85L193.118 108.053L191.065 105.708C190.712 105.308 190.19 105.088 189.656 105.133C187.701 105.296 186.244 105.776 184.963 106.36C187.102 106.835 189.327 107.529 191.649 108.374C192.344 108.629 192.732 109.373 192.539 110.082C192.37 110.71 191.798 111.134 191.166 111.134C191.095 111.134 191.023 111.128 190.949 111.116C189.513 110.9 188.113 110.66 186.781 110.378L186.787 110.381Z" fill="#FFC9A6"/>
<path d="M150.772 82.8525C149.449 95.0571 149.039 105.545 150.374 112.027C150.701 113.595 149.891 115.182 148.449 115.878H148.443C135.271 117.053 121.977 117.082 108.553 115.881C108.547 115.878 108.535 115.875 108.526 115.875C107.1 115.448 106.15 114.108 106.156 112.623C107.728 112.949 109.372 112.827 110.885 112.267L110.912 112.276C110.814 112.575 110.74 112.887 110.683 113.213C110.585 113.785 111.039 114.298 111.618 114.298H126.798C127.546 114.298 128.112 113.616 127.973 112.887C127.765 111.822 127.427 110.867 126.964 110.013L126.973 109.978C127.136 110.031 127.308 110.055 127.483 110.055C127.724 110.055 127.97 110.001 128.201 109.898C128.786 109.634 128.979 108.898 128.599 108.385L125.484 104.13C125.14 103.662 124.606 103.362 124.024 103.321L118.147 102.891C117.142 102.817 116.139 103.039 115.261 103.529L111.392 105.681C109.574 104.302 107.85 102.924 106.251 101.554C106.224 94.6894 106.034 87.828 105.673 80.9607C105.236 80.8658 104.8 80.7739 104.37 80.6879C99.671 79.7035 95.1676 78.8881 90.9223 78.2921C90.5188 78.2328 90.1153 78.1764 89.7148 78.126C90.8125 66.8762 93.4321 57.2068 98.1224 49.6724C98.9234 48.3914 100.066 47.3595 101.406 46.6686C106.5 44.0504 111.624 41.6872 116.774 39.6531C117.958 51.9318 138.128 52.0534 136.953 39.7776C143.658 42.3454 150.244 45.0912 156.661 48.086C161.078 55.0838 164.282 65.8918 167.077 77.9867C166.465 78.126 165.863 78.2683 165.261 78.4136C160.826 79.487 156.655 80.7176 152.768 82.1142C152.095 82.3543 151.43 82.6034 150.775 82.8554H150.772V82.8525Z" fill="white"/>
<path d="M165.561 79.7865C165.525 79.7924 165.487 79.8043 165.451 79.8102C159.304 81.1238 155.744 87.6175 157.916 93.5122C159.915 98.9533 162.912 103.06 167.065 105.607C165.457 104.827 163.988 103.973 162.704 103.027C160.509 101.402 158.829 99.1757 157.776 96.6553C155.548 91.3269 153.756 86.3721 152.771 82.1112C156.658 80.7146 160.829 79.484 165.264 78.4106C165.362 78.8762 165.46 79.3328 165.561 79.7835V79.7865Z" fill="#E8A376"/>
<path d="M144.186 12.175C144.565 17.0942 143.726 27.4426 141.24 33.9392C140.842 34.983 140.142 35.8488 139.264 36.4596C138.398 37.0645 137.365 37.4174 136.271 37.4589C136.25 37.4618 136.229 37.4618 136.208 37.4618C134.523 37.5063 132.85 37.1179 131.367 36.3143C130.15 35.6531 128.993 34.8999 127.899 34.0489C126.768 33.1742 125.87 32.0534 125.241 30.7843C124.908 30.1112 124.653 29.3966 124.481 28.6612L124.081 26.9296C123.437 26.9533 122.835 26.8614 122.283 26.6687C119.963 25.8621 118.548 23.321 119.141 20.4033C119.2 20.1186 119.307 19.8607 119.456 19.6412C120.132 18.6034 121.624 18.2713 122.663 19.1253C123.627 19.914 124.092 20.9874 124.051 22.3514C124.042 22.7309 124.27 23.0749 124.629 23.1935L124.674 23.2054C125.199 23.3744 125.751 23.0126 125.795 22.4611C125.929 20.7354 126.148 19.2943 126.498 18.3247C129.071 16.9044 130.515 14.7665 130.889 11.9377C135.022 12.4003 138.95 12.679 142.385 12.5011C143.008 12.4685 143.616 12.3588 144.189 12.175H144.186Z" fill="#FFC9A6"/>
<path d="M120.456 38.2595C121.301 34.135 121.945 30.2358 122.283 26.6687C122.835 26.8614 123.437 26.9534 124.081 26.9296L124.481 28.6613C124.653 29.3996 124.909 30.1142 125.241 30.7843C126.276 35.6917 129.694 39.2469 135.485 41.4559C135.583 40.7028 135.686 39.9912 135.814 39.3388C136.194 39.4812 136.573 39.6294 136.953 39.7747C138.128 52.0505 117.958 51.9289 116.774 39.6502C117.999 39.1668 119.224 38.7043 120.453 38.2565L120.456 38.2595Z" fill="#FFC9A6"/>
<path d="M122.099 111.247C122.591 111.757 122.562 112.578 122.034 113.05C121.796 113.263 121.494 113.37 121.194 113.37C120.894 113.37 120.58 113.254 120.34 113.032L120.037 112.747L118.892 111.677C119.42 112.169 119.435 113.005 118.925 113.512C118.675 113.761 118.349 113.889 118.02 113.889C117.735 113.889 117.447 113.794 117.213 113.601L112.419 109.72C111.742 110.464 111.22 111.306 110.912 112.279L110.885 112.27C109.372 112.83 107.728 112.952 106.156 112.626C105.972 112.59 105.794 112.543 105.61 112.495C97.9443 110.378 91.8952 107.312 88.8396 102.497C88.0297 101.222 87.7093 99.6946 87.8843 98.1942C88.6349 91.7153 89.5842 85.4203 90.7323 79.3091H90.7353C95.1645 80.0444 99.6056 81.1416 104.067 82.6093L101.7 97.6249C102.287 98.0074 102.842 98.4433 103.353 98.9325C104.26 99.8043 105.23 100.679 106.251 101.551C107.85 102.924 109.574 104.299 111.392 105.681L115.261 103.528C116.139 103.039 117.142 102.817 118.147 102.891L124.024 103.321C124.606 103.362 125.14 103.659 125.484 104.13L128.599 108.385C128.979 108.901 128.786 109.634 128.201 109.898C127.97 110.001 127.724 110.055 127.483 110.055C127.311 110.055 127.136 110.028 126.973 109.978C126.611 109.871 126.285 109.646 126.056 109.319L124.164 106.639L122.09 106.408L122.057 106.437L125.87 110.93C126.362 111.514 126.273 112.391 125.674 112.863C125.386 113.088 125.048 113.198 124.704 113.198C124.303 113.198 123.9 113.041 123.597 112.738L122.099 111.247Z" fill="#FFC9A6"/>
<path d="M104.373 80.6879L104.07 82.6094C99.6086 81.1416 95.1675 80.0415 90.7383 79.3091C90.7976 78.9711 90.8629 78.6301 90.9282 78.295C95.1705 78.8881 99.6739 79.7035 104.376 80.6909L104.373 80.6879Z" fill="#E8A376"/>
<path d="M119.58 42.5411C119.562 42.5411 119.545 42.5411 119.527 42.5352C119.396 42.5055 119.313 42.375 119.343 42.2416C119.654 40.8687 119.942 39.5344 120.203 38.2742C120.23 38.1408 120.36 38.0578 120.491 38.0844C120.625 38.1111 120.708 38.2416 120.681 38.3721C120.42 39.6352 120.132 40.9725 119.821 42.3483C119.794 42.461 119.693 42.5381 119.583 42.5381L119.58 42.5411Z" fill="#E8A376"/>
<path d="M106.942 81.4796C106.925 81.4796 106.907 81.4796 106.889 81.4736C106.465 81.3817 106.044 81.2898 105.622 81.2009C105.489 81.1712 105.406 81.0437 105.435 80.9103C105.465 80.7768 105.596 80.6938 105.726 80.7235C106.049 80.7917 106.376 80.8628 106.702 80.934C106.901 70.3247 105.186 60.0326 101.599 50.3365C101.552 50.209 101.617 50.0696 101.745 50.0222C101.869 49.9748 102.012 50.04 102.059 50.1675C105.699 60.0118 107.423 70.467 107.186 81.2424C107.186 81.3165 107.15 81.3847 107.094 81.4292C107.049 81.4648 106.996 81.4825 106.942 81.4825V81.4796Z" fill="#C2CBD4"/>
<path d="M150.781 83.0333C150.781 83.0333 150.763 83.0333 150.754 83.0333C150.621 83.0185 150.523 82.8969 150.538 82.7635C151.392 74.9088 152.697 65.6427 154.531 54.4344C154.552 54.3009 154.676 54.209 154.813 54.2327C154.946 54.2535 155.035 54.381 155.014 54.5144C153.181 65.7168 151.876 74.974 151.024 82.8169C151.009 82.9414 150.905 83.0363 150.781 83.0363V83.0333Z" fill="#C2CBD4"/>
<path d="M107.918 107.858C107.832 107.858 107.749 107.813 107.705 107.733C107.639 107.614 107.681 107.466 107.8 107.401L111.407 105.394C111.526 105.328 111.674 105.37 111.739 105.488C111.805 105.607 111.763 105.755 111.644 105.821L108.037 107.828C107.998 107.849 107.96 107.858 107.918 107.858Z" fill="#E8A376"/>
<path d="M122.185 111.591C122.123 111.591 122.061 111.567 122.013 111.52L116.875 106.387C116.187 105.702 115.116 105.557 114.27 106.037L112.339 107.131C112.22 107.196 112.072 107.158 112.006 107.039C111.938 106.921 111.98 106.772 112.098 106.707L114.03 105.613C115.065 105.026 116.379 105.204 117.222 106.043L122.36 111.176C122.455 111.271 122.455 111.425 122.36 111.523C122.313 111.57 122.25 111.594 122.188 111.594L122.185 111.591Z" fill="#E8A376"/>
<path d="M121.992 106.606C121.924 106.606 121.853 106.577 121.805 106.52L121.55 106.221C121.111 105.705 120.542 105.322 119.898 105.115L117.062 104.205C116.934 104.163 116.863 104.027 116.904 103.896C116.946 103.769 117.082 103.698 117.213 103.739L120.049 104.649C120.782 104.884 121.429 105.316 121.927 105.904L122.182 106.203C122.268 106.307 122.256 106.461 122.152 106.547C122.108 106.586 122.052 106.606 121.995 106.606H121.992Z" fill="#E8A376"/>
<path d="M118.984 112.018C118.925 112.018 118.863 111.997 118.818 111.953L114.226 107.65C114.128 107.558 114.122 107.404 114.214 107.303C114.306 107.202 114.46 107.199 114.561 107.291L119.153 111.594C119.251 111.686 119.257 111.84 119.165 111.941C119.118 111.991 119.052 112.018 118.987 112.018H118.984Z" fill="#E8A376"/>
<path d="M101.703 97.8681C101.659 97.8681 101.612 97.8563 101.57 97.8296C99.6921 96.6168 97.5709 96.0594 95.4319 96.2225C95.0908 96.2491 94.7318 96.2847 94.3639 96.3322C94.2275 96.35 94.1058 96.2551 94.091 96.1216C94.0732 95.9882 94.1681 95.8637 94.3016 95.8488C94.6784 95.8014 95.0463 95.7629 95.3963 95.7362C97.6421 95.5671 99.8701 96.1483 101.837 97.4204C101.95 97.4945 101.982 97.6457 101.908 97.7584C101.861 97.8296 101.784 97.8711 101.703 97.8711V97.8681Z" fill="#E8A376"/>
<path d="M146.539 19.9111C144.729 19.5819 142.884 19.579 141.053 19.8992C140.409 20.0119 139.893 20.4507 139.647 21.0141C139.279 20.9548 138.888 20.9429 138.475 20.9755C138.265 20.3973 137.778 19.9229 137.137 19.7658C135.292 19.3062 133.405 19.1727 131.527 19.3714C130.522 19.4781 129.747 20.3084 129.729 21.3017C129.649 25.5152 131.619 27.2469 133.331 27.4485C133.453 27.4633 133.574 27.4692 133.699 27.4692C135.571 27.4692 137.704 25.8265 138.546 21.9926C138.561 21.9244 138.57 21.8532 138.579 21.785C138.902 21.7613 139.211 21.7702 139.496 21.8147C139.496 21.871 139.502 21.9274 139.511 21.9837C140.056 25.957 142.154 27.7094 144.035 27.7094C144.073 27.7094 144.112 27.7094 144.15 27.7094C145.975 27.6383 147.918 25.8265 148.146 21.9392C148.203 20.9607 147.512 20.089 146.536 19.9111H146.539ZM137.751 21.8147C136.968 25.3847 134.963 26.8169 133.429 26.6331C131.948 26.4581 130.483 24.7443 130.548 21.3106C130.56 20.7265 131.02 20.2402 131.616 20.1779C132.15 20.1216 132.684 20.0919 133.221 20.0919C134.47 20.0919 135.716 20.2461 136.941 20.5515C137.508 20.6939 137.87 21.2572 137.748 21.8117L137.751 21.8147ZM144.121 26.891C142.628 26.9533 140.804 25.4025 140.317 21.871C140.243 21.3225 140.635 20.7976 141.193 20.6998C142.928 20.3973 144.675 20.4003 146.39 20.7116C146.96 20.8154 147.366 21.3195 147.331 21.8888C147.132 25.2661 145.571 26.8377 144.118 26.891H144.121Z" fill="#232E3D"/>
<path d="M128.038 50.6212C122.618 50.6212 116.661 47.6294 114.997 41.5241C114.961 41.3936 115.038 41.2602 115.169 41.2246C115.3 41.189 115.433 41.2661 115.469 41.3966C117.18 47.6709 123.63 50.5204 129.118 50.0934C133.313 49.7672 138.012 47.4396 138.629 41.8918C138.644 41.7583 138.766 41.6635 138.899 41.6753C139.033 41.6902 139.131 41.8117 139.116 41.9452C138.466 47.7895 133.548 50.2387 129.157 50.5797C128.789 50.6094 128.415 50.6242 128.038 50.6242V50.6212Z" fill="#C2CBD4"/>
<path d="M186.44 110.559C186.423 110.559 186.405 110.559 186.387 110.553C185.254 110.31 184.201 110.043 183.257 109.761C183.127 109.723 183.055 109.586 183.094 109.456C183.133 109.325 183.266 109.251 183.4 109.293C184.331 109.572 185.372 109.835 186.494 110.076C186.624 110.105 186.71 110.236 186.681 110.366C186.657 110.482 186.553 110.559 186.44 110.559Z" fill="#E8A376"/>
<path d="M195.486 106.861C195.408 106.861 195.331 106.823 195.284 106.755L193.16 103.626C193.083 103.514 193.112 103.362 193.225 103.285C193.338 103.208 193.489 103.238 193.566 103.351L195.69 106.479C195.767 106.592 195.738 106.743 195.625 106.82C195.583 106.85 195.536 106.861 195.489 106.861H195.486Z" fill="#E8A376"/>
<path d="M177.828 105.966C177.736 105.966 177.647 105.913 177.605 105.824C177.549 105.702 177.605 105.557 177.727 105.5L181.969 103.546C182.091 103.49 182.236 103.543 182.293 103.665C182.349 103.787 182.293 103.932 182.171 103.988L177.929 105.942C177.896 105.957 177.861 105.966 177.828 105.966Z" fill="#E8A376"/>
<path d="M169.839 91.9762C169.794 91.9762 169.75 91.9644 169.708 91.9407C168.664 91.2913 167.468 90.9829 166.258 91.0541C165.288 91.1104 164.383 91.2587 163.564 91.4959C163.434 91.5344 163.3 91.4573 163.261 91.3298C163.223 91.1994 163.3 91.063 163.428 91.0274C164.282 90.7813 165.225 90.6271 166.231 90.5678C167.548 90.4937 168.836 90.8258 169.966 91.5285C170.082 91.5997 170.114 91.7509 170.043 91.8665C169.996 91.9407 169.916 91.9822 169.836 91.9822L169.839 91.9762Z" fill="#E8A376"/>
<path d="M265 115.191V118.812C265 119.468 264.517 120 263.921 120H1.08241C0.486342 120 0 119.468 0 118.812V115.191C0 114.535 0.486342 114 1.08241 114H263.918C264.514 114 264.997 114.535 264.997 115.191H265Z" fill="white"/>
<path d="M136.381 114.544H106.587C106.45 114.544 106.34 114.434 106.34 114.298C106.34 114.162 106.45 114.052 106.587 114.052H136.381C136.517 114.052 136.627 114.162 136.627 114.298C136.627 114.434 136.517 114.544 136.381 114.544Z" fill="#DCDCD3"/>
<path d="M152.457 112.718H205.332C205.332 113.592 204.62 114.301 203.748 114.301H150.873C151.745 114.301 152.457 113.592 152.457 112.718Z" fill="#727EA3"/>
<path d="M205.329 112.718H152.454C152.454 112.282 152.279 111.884 151.991 111.6C151.704 111.315 151.306 111.137 150.873 111.137H203.748C204.181 111.137 204.582 111.312 204.866 111.6C205.151 111.887 205.329 112.282 205.329 112.718Z" fill="#ADB5CC"/>
<path d="M151.991 111.6C152.279 111.887 152.454 112.282 152.454 112.718C152.454 113.592 151.742 114.301 150.87 114.301H136.576C136.14 114.301 135.743 114.126 135.458 113.838C135.173 113.551 134.995 113.156 134.995 112.72C134.995 111.846 135.704 111.137 136.579 111.137H150.873C151.306 111.137 151.706 111.312 151.991 111.6Z" fill="#ADB5CC"/>
<path d="M222.907 89.6871C223.197 91.5492 222.186 93.1148 220.542 93.5863C218.756 93.1178 217.249 91.5463 216.958 89.6871C216.668 87.8309 217.679 86.2624 219.323 85.7909H219.326C221.115 86.2653 222.616 87.828 222.907 89.6871Z" fill="#727EA3"/>
<path d="M225.042 89.6872C225.393 91.92 223.865 93.7287 221.634 93.7287C221.263 93.7287 220.895 93.6783 220.539 93.5864C222.18 93.1179 223.191 91.5493 222.904 89.6872C222.613 87.8281 221.112 86.2654 219.323 85.791C219.646 85.6961 219.999 85.6487 220.367 85.6487C222.601 85.6487 224.692 87.4604 225.04 89.6872H225.042Z" fill="#ADB5CC"/>
<path d="M214.632 105.782C215.145 110.322 211.591 114.301 207.017 114.301H188.834C187.965 114.301 187.262 113.595 187.262 112.729V112.709C187.262 111.84 187.968 111.137 188.834 111.137H207.572C209.969 111.137 211.835 109.053 211.562 106.672L210.084 93.5864L207.04 66.6568C206.937 65.7257 207.666 64.9073 208.604 64.9073C209.004 64.9073 209.372 65.0586 209.651 65.3076C209.933 65.5567 210.12 65.9036 210.167 66.3039L214.632 105.782Z" fill="#ADB5CC"/>
<path d="M232.358 105.782C233.429 110.322 230.362 114.301 225.787 114.301H207.017C211.589 114.301 215.143 110.325 214.633 105.782L210.168 66.3039C210.123 65.9066 209.933 65.5567 209.651 65.3076C209.37 65.0556 209.005 64.9073 208.604 64.9073H221.331C222.132 64.9073 222.877 65.5063 223.064 66.3039L229.487 93.5864L232.358 105.785V105.782ZM221.637 93.7287C223.865 93.7287 225.393 91.917 225.046 89.6872C224.695 87.4604 222.604 85.6486 220.373 85.6486C220.005 85.6486 219.652 85.699 219.329 85.791H219.326C217.685 86.2595 216.674 87.831 216.961 89.6872C217.252 91.5463 218.759 93.1149 220.545 93.5864C220.901 93.6813 221.266 93.7287 221.64 93.7287H221.637Z" fill="#727EA3"/>
<path d="M264.048 32.0948C265.867 32.0948 267.252 33.7227 266.958 35.5166L257.919 91.1104C257.687 92.5396 256.453 93.5863 255.009 93.5863H229.486L223.064 66.3039C222.877 65.5092 222.129 64.9073 221.331 64.9073H208.604C207.667 64.9073 206.937 65.7257 207.041 66.6567L210.084 93.5863H166.596C164.777 93.5863 163.392 91.9585 163.683 90.1645L172.722 34.5708C172.957 33.1415 174.188 32.0948 175.635 32.0948H264.045H264.048Z" fill="#727EA3"/>
<path d="M171.328 32.0948H175.638C174.191 32.0948 172.959 33.1415 172.725 34.5708L163.686 90.1645C163.395 91.9585 164.783 93.5863 166.599 93.5863H162.288C160.47 93.5863 159.087 91.9585 159.378 90.1645L168.418 34.5708C168.649 33.1415 169.883 32.0948 171.328 32.0948Z" fill="#ADB5CC"/>
<path d="M188.834 114.547C187.831 114.547 187.016 113.732 187.016 112.729C187.016 111.727 187.831 110.894 188.834 110.894C188.971 110.894 189.08 111.004 189.08 111.14C189.08 111.277 188.971 111.386 188.834 111.386C188.101 111.386 187.505 111.982 187.505 112.715C187.505 113.447 188.101 114.061 188.834 114.061C188.971 114.061 189.08 114.171 189.08 114.307C189.08 114.443 188.971 114.553 188.834 114.553V114.547Z" fill="#727EA3"/>
<path d="M229.486 93.8294C229.377 93.8294 229.276 93.7523 229.249 93.6397L222.823 66.3572C222.66 65.6693 222.019 65.1504 221.328 65.1504H208.604C208.468 65.1504 208.358 65.0407 208.358 64.9043C208.358 64.7679 208.468 64.6582 208.604 64.6582H221.328C222.239 64.6582 223.087 65.3402 223.301 66.2416L229.727 93.524C229.756 93.6545 229.676 93.7879 229.546 93.8176C229.528 93.8235 229.507 93.8235 229.489 93.8235L229.486 93.8294Z" fill="#ADB5CC"/>
<path d="M220.243 93.7405C220.216 93.7405 220.189 93.7375 220.165 93.7287C218.385 93.1297 217 91.5196 216.718 89.7286C216.424 87.8458 217.418 86.1467 219.136 85.5952C219.263 85.5537 219.403 85.6249 219.444 85.7524C219.486 85.8799 219.415 86.0192 219.287 86.0607C217.78 86.5441 216.941 87.9881 217.202 89.6545C217.454 91.2735 218.709 92.7235 220.32 93.2661C220.447 93.3106 220.515 93.447 220.474 93.5774C220.438 93.6782 220.343 93.7435 220.243 93.7435V93.7405Z" fill="#ADB5CC"/>
<path d="M188.834 114.547C187.831 114.547 187.016 113.732 187.016 112.729C187.016 111.727 187.831 110.894 188.834 110.894C188.971 110.894 189.08 111.004 189.08 111.14C189.08 111.277 188.971 111.386 188.834 111.386C188.101 111.386 187.505 111.982 187.505 112.715C187.505 113.447 188.101 114.061 188.834 114.061C188.971 114.061 189.08 114.171 189.08 114.307C189.08 114.443 188.971 114.553 188.834 114.553V114.547Z" fill="#727EA3"/>
<path d="M229.486 93.8294C229.377 93.8294 229.276 93.7523 229.249 93.6397L222.823 66.3572C222.66 65.6693 222.019 65.1504 221.328 65.1504H208.604C208.468 65.1504 208.358 65.0407 208.358 64.9043C208.358 64.7679 208.468 64.6582 208.604 64.6582H221.328C222.239 64.6582 223.087 65.3402 223.301 66.2416L229.727 93.524C229.756 93.6545 229.676 93.7879 229.546 93.8176C229.528 93.8235 229.507 93.8235 229.489 93.8235L229.486 93.8294Z" fill="#ADB5CC"/>
<path d="M220.243 93.7405C220.216 93.7405 220.189 93.7375 220.165 93.7287C218.385 93.1297 217 91.5196 216.718 89.7286C216.424 87.8458 217.418 86.1467 219.136 85.5952C219.263 85.5537 219.403 85.6249 219.444 85.7524C219.486 85.8799 219.415 86.0192 219.287 86.0607C217.78 86.5441 216.941 87.9881 217.202 89.6545C217.454 91.2735 218.709 92.7235 220.32 93.2661C220.447 93.3106 220.515 93.447 220.474 93.5774C220.438 93.6782 220.343 93.7435 220.243 93.7435V93.7405Z" fill="#ADB5CC"/>
<path d="M67.7022 101.554H60.4487V114.298H67.7022V101.554Z" fill="white"/>
<path d="M71.5351 101.554H67.7021V114.298H71.5351V101.554Z" fill="#DCDCD3"/>
<path d="M71.6302 99.5018H60.3539C59.8394 99.5018 59.4224 99.9187 59.4224 100.433V100.623C59.4224 101.137 59.8394 101.554 60.3539 101.554H71.6302C72.1447 101.554 72.5617 101.137 72.5617 100.623V100.433C72.5617 99.9187 72.1447 99.5018 71.6302 99.5018Z" fill="white"/>
<path d="M60.4519 112.308C57.7167 112.308 55.4946 110.084 55.4946 107.354C55.4946 104.623 57.7196 102.399 60.4519 102.399V103.703C58.4376 103.703 56.8 105.34 56.8 107.354C56.8 109.367 58.4376 111.004 60.4519 111.004V112.308Z" fill="white"/>
<path d="M67.7024 101.8H60.4489C60.3124 101.8 60.2026 101.69 60.2026 101.554C60.2026 101.417 60.3124 101.308 60.4489 101.308H67.7024C67.8388 101.308 67.9486 101.417 67.9486 101.554C67.9486 101.69 67.8388 101.8 67.7024 101.8Z" fill="#DCDCD3"/>
<path d="M67.7024 114.544H60.4489C60.3124 114.544 60.2026 114.434 60.2026 114.298C60.2026 114.162 60.3124 114.052 60.4489 114.052H67.7024C67.8388 114.052 67.9486 114.162 67.9486 114.298C67.9486 114.434 67.8388 114.544 67.7024 114.544Z" fill="#DCDCD3"/>
</g>
<defs>
<clipPath id="clip0_253_3025">
<rect width="267" height="120" fill="white"/>
</clipPath>
</defs>
</svg>
