<svg width="38" height="38" viewBox="0 0 38 38" fill="none" xmlns="http://www.w3.org/2000/svg">
<g filter="url(#filter0_d_315_645)">
<path d="M15.475 4L22.495 4C23.95 4 25.345 4.54 26.425 5.53L32.095 10.705C33.31 11.815 34 13.375 34 15.01L34 28.18C33.985 31.39 31.375 34 28.165 34L9.82 34C6.61 34 4 31.39 4 28.18L4.00001 15.01C4.00001 13.375 4.69001 11.815 5.90501 10.705L11.575 5.53C12.655 4.555 14.05 4 15.505 4L15.475 4Z" fill="#94C740"/>
<path d="M28.165 33.75L9.82031 33.75C6.74838 33.75 4.25 31.2516 4.25 28.1797L4.25 15.0098C4.25006 13.5433 4.83016 12.1393 5.86133 11.0937L6.07324 10.8896L11.7422 5.71582C12.7778 4.78087 14.114 4.25003 15.5049 4.25L22.4951 4.25C23.8875 4.25003 25.2221 4.7664 26.2559 5.71387L26.2568 5.71484L31.9268 10.8896C33.0901 11.9525 33.7499 13.4457 33.75 15.0098L33.75 28.1787C33.7356 31.2518 31.2367 33.75 28.165 33.75Z" stroke="url(#paint0_linear_315_645)" stroke-width="0.5"/>
</g>
<defs>
<filter id="filter0_d_315_645" x="0" y="0" width="38" height="38" filterUnits="userSpaceOnUse" color-interpolation-filters="sRGB">
<feFlood flood-opacity="0" result="BackgroundImageFix"/>
<feColorMatrix in="SourceAlpha" type="matrix" values="0 0 0 0 0 0 0 0 0 0 0 0 0 0 0 0 0 0 127 0" result="hardAlpha"/>
<feOffset/>
<feGaussianBlur stdDeviation="2"/>
<feComposite in2="hardAlpha" operator="out"/>
<feColorMatrix type="matrix" values="0 0 0 0 0 0 0 0 0 0 0 0 0 0 0 0 0 0 0.1 0"/>
<feBlend mode="normal" in2="BackgroundImageFix" result="effect1_dropShadow_315_645"/>
<feBlend mode="normal" in="SourceGraphic" in2="effect1_dropShadow_315_645" result="shape"/>
</filter>
<linearGradient id="paint0_linear_315_645" x1="19" y1="34" x2="19" y2="4" gradientUnits="userSpaceOnUse">
<stop stop-color="#C8DCFE"/>
<stop offset="1" stop-color="#F0F9FF"/>
</linearGradient>
</defs>
</svg>
