<svg width="100" height="16" viewBox="0 0 100 16" fill="none" xmlns="http://www.w3.org/2000/svg">
<g clip-path="url(#clip0_315_568)">
<path d="M5.40779 11.5204L5.31704 11.2196C5.28447 11.0964 5.19604 10.9898 5.05177 10.8997C4.9075 10.8074 4.74229 10.7363 4.55614 10.6865C4.21408 10.6865 3.94415 10.5799 3.75102 10.3667C3.55788 10.1512 3.46015 9.8195 3.46015 9.3694V5.94861H4.09773C4.28389 5.94861 4.43514 5.87517 4.55381 5.73066C4.67016 5.58616 4.72833 5.40375 4.72833 5.18106V4.98207C4.72833 4.75939 4.65852 4.57698 4.51658 4.43247C4.37464 4.28796 4.19314 4.21452 3.97673 4.21452H3.46015V2.55862C3.46015 2.31461 3.37871 2.11562 3.21117 1.96164C3.04596 1.81002 2.84119 1.74369 2.60151 1.76738L1.92205 1.84082C1.73124 1.86451 1.57533 1.94269 1.45201 2.08009C1.32868 2.21512 1.26818 2.38094 1.26818 2.5752V4.21452H0.63758C0.453752 4.21452 0.300175 4.28796 0.181501 4.43247C0.0605003 4.57698 0 4.75939 0 4.98207V5.18106C0 5.40375 0.072135 5.58616 0.214078 5.73066C0.353694 5.87517 0.535195 5.94861 0.753927 5.94861H1.26818V9.70342C1.26818 10.5302 1.54043 11.203 2.08726 11.7194C2.63642 12.2358 3.37638 12.4941 4.3025 12.4941C4.51658 12.4941 4.72368 12.468 4.92612 12.4183C5.089 12.3804 5.21466 12.2951 5.30541 12.1648C5.39616 12.0345 5.44037 11.8923 5.44037 11.736C5.44037 11.6578 5.42874 11.5867 5.40779 11.5204Z" fill="white"/>
<path d="M13.6222 5.16435C13.0824 4.53657 12.2935 4.22387 11.2581 4.22387C10.8974 4.22387 10.5553 4.28783 10.2342 4.41575C9.91309 4.54368 9.5594 4.7711 9.1708 5.09802V0.767545C9.1708 0.544862 9.10099 0.362452 8.95905 0.217945C8.81711 0.073438 8.63561 0 8.4192 0H7.74672C7.53031 0 7.34881 0.073438 7.20687 0.217945C7.06493 0.362452 6.99512 0.544862 6.99512 0.767545V11.7264C6.99512 11.9491 7.06493 12.1315 7.20687 12.276C7.34881 12.4205 7.53031 12.4939 7.74672 12.4939H8.4192C8.63561 12.4939 8.81711 12.4205 8.95905 12.276C9.10099 12.1315 9.1708 11.9491 9.1708 11.7264V6.84631C9.54311 6.35357 9.9829 6.08824 10.4972 6.05508C11.0789 6.07166 11.521 6.24223 11.8165 6.56677C12.1144 6.89369 12.2633 7.34853 12.2633 7.93841V11.7264C12.2633 11.9491 12.3331 12.1315 12.475 12.276C12.617 12.4205 12.7985 12.4939 13.0172 12.4939H13.6874C13.9038 12.4939 14.0853 12.4205 14.2272 12.276C14.3692 12.1315 14.439 11.9491 14.439 11.7264V7.33906C14.439 6.51703 14.1667 5.79212 13.6222 5.16435Z" fill="white"/>
<path d="M22.5134 5.33008C21.7991 4.55306 20.8473 4.16455 19.6583 4.16455C18.4692 4.16455 17.4686 4.55306 16.7054 5.33008C15.9422 6.10947 15.5605 7.10681 15.5605 8.32919C15.5605 9.55158 15.9422 10.5513 16.7054 11.3283C17.4686 12.1053 18.4529 12.4938 19.6583 12.4938C20.8636 12.4938 21.7013 12.2806 22.3505 11.8518C22.4483 11.7855 22.5227 11.705 22.5716 11.6102C22.6205 11.5155 22.6437 11.416 22.6437 11.3117C22.6437 11.0938 22.56 10.8995 22.3901 10.729L22.1039 10.4352C21.9736 10.3025 21.8153 10.2362 21.6292 10.2362C21.5152 10.2362 21.3988 10.267 21.2778 10.3286C20.7706 10.5844 20.2307 10.71 19.6583 10.71C19.1836 10.71 18.7764 10.5773 18.432 10.312C18.2621 10.1888 18.1295 10.0325 18.0317 9.84059C17.9317 9.64871 17.8572 9.3976 17.8014 9.08726H22.8252C23.0416 9.08726 23.2231 9.01619 23.3651 8.87169C23.507 8.72718 23.5768 8.54477 23.5768 8.32919C23.5768 7.10207 23.2231 6.10237 22.5134 5.33008ZM17.8991 7.57112C17.9107 7.26553 17.9596 7.01679 18.048 6.8249C18.1341 6.63538 18.2621 6.47429 18.432 6.34637C18.7764 6.08104 19.1836 5.94838 19.6583 5.94838C20.133 5.94838 20.5262 6.08104 20.8706 6.34637C21.0451 6.47429 21.1754 6.63538 21.2615 6.8249C21.35 7.01679 21.3988 7.26553 21.4105 7.57112H17.8991Z" fill="white"/>
<path d="M32.4209 5.38958C31.6949 4.56755 30.699 4.15771 29.4332 4.15771C29.1609 4.15771 28.877 4.21457 28.5792 4.33302C28.2813 4.4491 27.9253 4.64572 27.5111 4.92289V4.53912C27.5111 4.45147 27.4506 4.3804 27.3273 4.32828C27.2039 4.27616 27.048 4.24774 26.8572 4.24774C26.7688 4.24774 26.7013 4.25247 26.6525 4.25721L25.9986 4.33302C25.8078 4.35434 25.6496 4.43252 25.5286 4.56992C25.4052 4.70495 25.3447 4.87077 25.3447 5.06503V15.2326C25.3447 15.4553 25.4122 15.6401 25.5518 15.7846C25.6914 15.9267 25.8706 16.0002 26.087 16.0002H26.7595C26.9759 16.0002 27.1574 15.9267 27.2994 15.7846C27.4413 15.6401 27.5111 15.4553 27.5111 15.2326V11.6105C27.8508 11.9161 28.1766 12.1293 28.4884 12.2525C28.8026 12.3733 29.1609 12.4349 29.5658 12.4349C30.7316 12.4349 31.6833 12.0227 32.4209 11.1935C33.1562 10.3668 33.5239 9.40024 33.5239 8.2963C33.5239 7.19236 33.1562 6.22345 32.4209 5.38958ZM29.3447 10.6605C28.2371 10.4829 27.6251 9.90009 27.5111 8.91223V7.53112C27.6321 6.64276 28.2441 6.10501 29.3517 5.9226C30.8456 5.98893 31.6274 6.83938 31.6926 8.4716C31.5227 9.80296 30.7409 10.5326 29.3447 10.6605Z" fill="#FF5635"/>
<path d="M39.8647 4.54832C39.7553 4.40382 39.625 4.27589 39.4715 4.16455C39.0689 4.16455 38.6873 4.2451 38.3313 4.40619C37.9729 4.56728 37.5843 4.84681 37.1655 5.24717V4.70704C37.1655 4.57201 37.098 4.46304 36.9653 4.37776C36.8304 4.29247 36.6605 4.24746 36.4534 4.24746C36.3883 4.24746 36.3394 4.2522 36.3045 4.25694L35.6274 4.33275C35.4365 4.35407 35.2806 4.43461 35.1596 4.57201C35.041 4.71178 34.9805 4.87761 34.9805 5.07186V11.7263C34.9805 11.949 35.0503 12.1314 35.1922 12.2759C35.3342 12.4204 35.5157 12.4938 35.7321 12.4938H36.4115C36.6303 12.4938 36.8094 12.4204 36.9514 12.2759C37.0933 12.1314 37.1655 11.949 37.1655 11.7263V7.33897C37.5727 6.50035 38.0846 6.05262 38.6943 5.99813C38.906 6.00761 39.1015 6.0384 39.276 6.08815C39.3295 6.1 39.3714 6.10473 39.397 6.10473C39.5343 6.10473 39.6553 6.04077 39.7577 5.91285C39.8624 5.78729 39.9322 5.61436 39.9717 5.39878L40.0206 5.05528C40.0253 5.0387 40.0276 5.01501 40.0276 4.98184C40.0276 4.83734 39.9741 4.69283 39.8647 4.54832Z" fill="#FF5635"/>
<path d="M48.1935 5.33008C47.4791 4.55306 46.5274 4.16455 45.3383 4.16455C44.1493 4.16455 43.1487 4.55306 42.3855 5.33008C41.6199 6.10947 41.2383 7.10681 41.2383 8.32919C41.2383 9.55158 41.6199 10.5513 42.3855 11.3283C43.1487 12.1053 44.133 12.4938 45.3383 12.4938C46.5437 12.4938 47.3791 12.2806 48.0283 11.8518C48.1283 11.7855 48.2005 11.705 48.2493 11.6102C48.2982 11.5155 48.3238 11.416 48.3238 11.3117C48.3238 11.0938 48.24 10.8995 48.0702 10.729L47.7839 10.4352C47.6536 10.3025 47.4954 10.2362 47.3093 10.2362C47.1952 10.2362 47.0766 10.267 46.9579 10.3286C46.4506 10.5844 45.9108 10.71 45.3383 10.71C44.8636 10.71 44.4541 10.5773 44.1097 10.312C43.9422 10.1888 43.8072 10.0325 43.7095 9.84059C43.6118 9.64871 43.535 9.3976 43.4814 9.08726H48.503C48.7217 9.08726 48.9009 9.01619 49.0428 8.87169C49.1848 8.72718 49.2569 8.54477 49.2569 8.32919C49.2569 7.10207 48.9009 6.10237 48.1935 5.33008ZM43.5792 7.57112C43.5908 7.26553 43.6397 7.01679 43.7258 6.8249C43.8142 6.63538 43.9422 6.47429 44.1097 6.34637C44.4541 6.08104 44.8636 5.94838 45.3383 5.94838C45.813 5.94838 46.204 6.08104 46.5483 6.34637C46.7229 6.47429 46.8532 6.63538 46.9416 6.8249C47.0277 7.01679 47.0766 7.26553 47.0882 7.57112H43.5792Z" fill="#FF5635"/>
<path d="M58.0987 5.38958C57.3727 4.56755 56.3791 4.15771 55.1132 4.15771C54.841 4.15771 54.5547 4.21457 54.2592 4.33302C53.9614 4.4491 53.6054 4.64572 53.1912 4.92289V4.53912C53.1912 4.45147 53.1283 4.3804 53.0073 4.32828C52.884 4.27616 52.7281 4.24774 52.5373 4.24774C52.4489 4.24774 52.3814 4.25247 52.3325 4.25721L51.6763 4.33302C51.4855 4.35434 51.3296 4.43252 51.2063 4.56992C51.083 4.70495 51.0225 4.87077 51.0225 5.06503V15.2326C51.0225 15.4553 51.0923 15.6401 51.2319 15.7846C51.3715 15.9267 51.5483 16.0002 51.7671 16.0002H52.4372C52.656 16.0002 52.8351 15.9267 52.9771 15.7846C53.119 15.6401 53.1912 15.4553 53.1912 15.2326V11.6105C53.5286 11.9161 53.8543 12.1293 54.1685 12.2525C54.4826 12.3733 54.841 12.4349 55.2435 12.4349C56.4116 12.4349 57.3634 12.0227 58.0987 11.1935C58.8363 10.3668 59.204 9.40024 59.204 8.2963C59.204 7.19236 58.8363 6.22345 58.0987 5.38958ZM55.0225 10.6605C53.9148 10.4829 53.3052 9.90009 53.1912 8.91223V7.53112C53.3098 6.64276 53.9241 6.10501 55.0318 5.9226C56.5257 5.98893 57.3052 6.83938 57.3703 8.4716C57.2028 9.80296 56.4186 10.5326 55.0225 10.6605Z" fill="#FF5635"/>
<path d="M65.543 4.54832C65.4337 4.40382 65.3034 4.27589 65.1521 4.16455C64.7472 4.16455 64.3679 4.2451 64.0096 4.40619C63.6536 4.56728 63.265 4.84681 62.8438 5.24717V4.70704C62.8438 4.57201 62.7763 4.46304 62.6437 4.37776C62.511 4.29247 62.3389 4.24746 62.1318 4.24746C62.0666 4.24746 62.0177 4.2522 61.9852 4.25694L61.3057 4.33275C61.1149 4.35407 60.959 4.43461 60.8403 4.57201C60.7193 4.71178 60.6611 4.87761 60.6611 5.07186V11.7263C60.6611 11.949 60.7309 12.1314 60.8729 12.2759C61.0148 12.4204 61.194 12.4938 61.4127 12.4938H62.0922C62.3086 12.4938 62.4901 12.4204 62.632 12.2759C62.774 12.1314 62.8438 11.949 62.8438 11.7263V7.33897C63.2533 6.50035 63.7629 6.05262 64.3749 5.99813C64.5867 6.00761 64.7798 6.0384 64.9543 6.08815C65.0102 6.1 65.0497 6.10473 65.0777 6.10473C65.2126 6.10473 65.3336 6.04077 65.4383 5.91285C65.5407 5.78729 65.6128 5.61436 65.6501 5.39878L65.6989 5.05528C65.7036 5.0387 65.7083 5.01501 65.7083 4.98184C65.7083 4.83734 65.6524 4.69283 65.543 4.54832Z" fill="white"/>
<path d="M74.0266 5.29682C73.2308 4.48664 72.2372 4.08154 71.0482 4.08154C69.8591 4.08154 68.8678 4.48664 68.072 5.29682C67.2739 6.10938 66.876 7.11856 66.876 8.3291C66.876 9.53964 67.2739 10.5393 68.072 11.3614C68.8678 12.1716 69.8591 12.5767 71.0482 12.5767C72.2372 12.5767 73.2308 12.1716 74.0266 11.3614C74.8225 10.5512 75.2204 9.53964 75.2204 8.3291C75.2204 7.11856 74.8225 6.10938 74.0266 5.29682ZM72.6444 10.0205C72.2465 10.4754 71.7113 10.7028 71.0412 10.7028C70.371 10.7028 69.8358 10.4754 69.4379 10.0205C69.0237 9.5657 68.8166 9.00426 68.8166 8.33858C68.8166 7.6729 69.0237 7.09961 69.4379 6.65424C69.8358 6.1994 70.3664 5.97198 71.0319 5.97198C71.6974 5.97198 72.2465 6.1994 72.6444 6.65424C73.0586 7.09961 73.2657 7.66105 73.2657 8.33858C73.2657 9.0161 73.0586 9.5657 72.6444 10.0205Z" fill="white"/>
<path d="M83.7858 4.37329C83.6439 4.22878 83.4647 4.15771 83.246 4.15771H82.5758C82.3571 4.15771 82.1779 4.22878 82.036 4.37329C81.894 4.5178 81.8219 4.70021 81.8219 4.92289V9.58739C81.4635 10.2483 81.0191 10.6037 80.4886 10.6534C79.9115 10.6321 79.474 10.4568 79.1762 10.1275C78.8783 9.80059 78.7317 9.34101 78.7317 8.7464V4.92289C78.7317 4.70021 78.6596 4.5178 78.5176 4.37329C78.3757 4.22878 78.1965 4.15771 77.9778 4.15771H77.3076C77.0889 4.15771 76.9097 4.22878 76.7678 4.37329C76.6258 4.5178 76.5537 4.70021 76.5537 4.92289V9.33628C76.5537 10.1654 76.8283 10.8974 77.3728 11.537C77.9126 12.1696 78.7015 12.4846 79.737 12.4846C80.0976 12.4846 80.4374 12.4207 80.7585 12.2904C81.0819 12.1601 81.4356 11.9303 81.8219 11.6034V12.044C81.8219 12.1719 81.894 12.2785 82.036 12.3638C82.1779 12.4515 82.3571 12.4941 82.5758 12.4941H83.246C83.4647 12.4941 83.6439 12.4207 83.7858 12.2762C83.9278 12.1317 83.9999 11.9492 83.9999 11.7266V4.92289C83.9999 4.70021 83.9278 4.5178 83.7858 4.37329Z" fill="white"/>
<path d="M90.8297 11.5204L90.7389 11.2196C90.7063 11.0964 90.6179 10.9898 90.4736 10.8997C90.3294 10.8074 90.1642 10.7363 89.9803 10.6865C89.636 10.6865 89.366 10.5799 89.1729 10.3667C88.9798 10.1512 88.882 9.8195 88.882 9.3694V5.94861H89.5219C89.7058 5.94861 89.857 5.87517 89.9757 5.73066C90.092 5.58616 90.1502 5.40375 90.1502 5.18106V4.98207C90.1502 4.75939 90.0804 4.57698 89.9385 4.43247C89.7965 4.28796 89.6173 4.21452 89.3986 4.21452H88.882V2.55862C88.882 2.31461 88.8006 2.11562 88.633 1.96164C88.4678 1.81002 88.2631 1.74369 88.0234 1.76738L87.3439 1.84082C87.1531 1.86451 86.9972 1.94269 86.8739 2.08009C86.7529 2.21512 86.69 2.38094 86.69 2.5752V4.21452H86.0618C85.8756 4.21452 85.722 4.28796 85.6034 4.43247C85.4824 4.57698 85.4219 4.75939 85.4219 4.98207V5.18106C85.4219 5.40375 85.494 5.58616 85.6359 5.73066C85.7779 5.87517 85.9571 5.94861 86.1758 5.94861H86.69V9.70342C86.69 10.5302 86.9623 11.203 87.5091 11.7194C88.0606 12.2358 88.7983 12.4941 89.7267 12.4941C89.9385 12.4941 90.1455 12.468 90.348 12.4183C90.5109 12.3804 90.6389 12.2951 90.7273 12.1648C90.818 12.0345 90.8622 11.8923 90.8622 11.736C90.8622 11.6578 90.8529 11.5867 90.8297 11.5204Z" fill="white"/>
<path d="M98.9363 5.33008C98.2219 4.55306 97.2702 4.16455 96.0811 4.16455C94.8921 4.16455 93.8915 4.55306 93.1283 5.33008C92.365 6.10947 91.9834 7.10681 91.9834 8.32919C91.9834 9.55158 92.365 10.5513 93.1283 11.3283C93.8915 12.1053 94.8758 12.4938 96.0811 12.4938C97.2865 12.4938 98.1242 12.2806 98.7734 11.8518C98.8711 11.7855 98.9456 11.705 98.9945 11.6102C99.0433 11.5155 99.0666 11.416 99.0666 11.3117C99.0666 11.0938 98.9828 10.8995 98.813 10.729L98.5267 10.4352C98.3964 10.3025 98.2382 10.2362 98.052 10.2362C97.938 10.2362 97.8217 10.267 97.7007 10.3286C97.1934 10.5844 96.6536 10.71 96.0811 10.71C95.6064 10.71 95.1969 10.5773 94.8548 10.312C94.685 10.1888 94.5523 10.0325 94.4546 9.84059C94.3546 9.64871 94.2801 9.3976 94.2242 9.08726H99.2481C99.4645 9.08726 99.646 9.01619 99.7879 8.87169C99.9299 8.72718 99.9997 8.54477 99.9997 8.32919C99.9997 7.10207 99.646 6.10237 98.9363 5.33008ZM94.322 7.57112C94.3336 7.26553 94.3825 7.01679 94.4709 6.8249C94.557 6.63538 94.685 6.47429 94.8548 6.34637C95.1969 6.08104 95.6064 5.94838 96.0811 5.94838C96.5558 5.94838 96.9491 6.08104 97.2911 6.34637C97.4657 6.47429 97.5983 6.63538 97.6844 6.8249C97.7728 7.01679 97.8217 7.26553 97.8333 7.57112H94.322Z" fill="white"/>
</g>
<defs>
<clipPath id="clip0_315_568">
<rect width="100" height="16" fill="white"/>
</clipPath>
</defs>
</svg>
