<svg width="127" height="220" viewBox="0 0 127 220" fill="none" xmlns="http://www.w3.org/2000/svg">
<g clip-path="url(#clip0_338_926)">
<path d="M40.0174 219.659C61.9293 219.659 79.6925 214.93 79.6925 209.096C79.6925 203.262 61.9293 198.533 40.0174 198.533C18.1054 198.533 0.342285 203.262 0.342285 209.096C0.342285 214.93 18.1054 219.659 40.0174 219.659Z" fill="#8F97AA"/>
<path d="M40.0174 220C17.5766 220 0 215.209 0 209.096C0 202.982 17.5791 198.191 40.0174 198.191C62.4557 198.191 80.0348 202.982 80.0348 209.096C80.0348 215.209 62.4557 220 40.0174 220ZM40.0174 198.876C18.6978 198.876 0.68709 203.556 0.68709 209.096C0.68709 214.635 18.6978 219.315 40.0174 219.315C61.337 219.315 79.3477 214.635 79.3477 209.096C79.3477 203.556 61.337 198.876 40.0174 198.876Z" fill="#ACB5CC"/>
<path d="M39.6825 215.696C26.6179 215.696 17.269 213.996 11.7177 212.567C5.66286 211.007 2.76319 209.464 2.64165 209.398C2.47546 209.309 2.41345 209.101 2.50274 208.933C2.59204 208.767 2.8004 208.705 2.96907 208.794C3.08565 208.856 14.8158 215.012 39.68 215.012H39.8264C53.9973 214.999 63.4578 213.303 68.8974 211.884C74.7662 210.354 77.3112 208.822 77.336 208.804C77.4972 208.705 77.7105 208.755 77.8098 208.918C77.909 209.079 77.8594 209.289 77.6957 209.388C77.589 209.452 75.0366 210.99 69.0711 212.547C63.5917 213.976 54.0692 215.684 39.8264 215.696H39.68H39.6825Z" fill="#ACB5CC"/>
<path d="M2.02918 113.432C2.02918 113.432 -2.87223 141.517 25.1347 154.602C25.1347 154.602 -2.50016 169.291 2.80804 207.108C2.80804 207.108 34.4191 221.347 77.2643 207.108C77.2643 207.108 83.4555 173.703 57.5743 154.775C57.5743 154.775 79.1618 142.39 78.0952 113.432C78.0952 113.432 40.1887 102.617 2.02918 113.432Z" fill="#ACB5CC"/>
<path d="M39.866 213.971C34.1807 213.971 29.0983 213.543 24.8194 212.962C11.3703 211.138 2.75568 207.459 2.67134 207.422C2.5622 207.375 2.48531 207.274 2.46794 207.155C-0.290339 187.505 5.96788 174.183 11.7052 166.468C16.8894 159.494 22.6044 155.717 24.4002 154.629C10.2517 147.799 4.81447 137.056 2.74823 129.194C0.481086 120.564 1.67915 113.443 1.69156 113.371C1.71388 113.242 1.80814 113.136 1.93712 113.101C21.699 107.5 41.3791 107.799 54.4065 109.035C68.5228 110.375 78.0974 113.074 78.1917 113.101C78.3356 113.141 78.4348 113.269 78.4397 113.418C78.9954 128.48 73.3449 138.999 68.5079 145.171C64.125 150.763 59.5907 153.9 58.1867 154.797C71.3382 164.621 75.932 178.24 77.4649 187.982C79.1417 198.634 77.6187 207.081 77.6038 207.165C77.5815 207.284 77.4972 207.383 77.3831 207.425C63.6462 212.418 50.6709 213.966 39.866 213.966V213.971ZM3.12031 206.866C4.40767 207.395 12.6304 210.619 24.936 212.285C37.2243 213.949 56.2098 214.352 76.9589 206.854C77.1722 205.546 78.3058 197.727 76.7828 188.069C75.2499 178.361 70.6411 164.752 57.3731 155.05C57.2789 154.98 57.2268 154.869 57.2342 154.755C57.2417 154.642 57.3061 154.535 57.4054 154.479C57.4599 154.449 62.8227 151.324 67.9846 144.729C72.7173 138.682 78.2388 128.403 77.7626 113.697C74.4735 112.815 38.3206 103.582 2.33648 113.702C2.16036 114.933 1.39886 121.385 3.42044 129.051C5.48171 136.87 10.9462 147.594 25.2808 154.291C25.3974 154.345 25.4743 154.461 25.4792 154.592C25.4817 154.721 25.4123 154.842 25.2982 154.904C25.2287 154.941 18.3653 158.651 12.2385 166.903C6.60784 174.487 0.466204 187.569 3.12279 206.869H3.12031V206.866Z" fill="#ACB5CC"/>
<path d="M40.0174 121.726C61.9293 121.726 79.6925 116.997 79.6925 111.163C79.6925 105.329 61.9293 100.6 40.0174 100.6C18.1054 100.6 0.342285 105.329 0.342285 111.163C0.342285 116.997 18.1054 121.726 40.0174 121.726Z" fill="#8F97AA"/>
<path d="M40.0174 122.067C17.5766 122.067 0 117.276 0 111.163C0 105.05 17.5791 100.259 40.0174 100.259C62.4557 100.259 80.0348 105.05 80.0348 111.163C80.0348 117.276 62.4557 122.067 40.0174 122.067ZM40.0174 100.944C18.6978 100.944 0.68709 105.623 0.68709 111.163C0.68709 116.703 18.6978 121.382 40.0174 121.382C61.337 121.382 79.3477 116.703 79.3477 111.163C79.3477 105.623 61.337 100.944 40.0174 100.944Z" fill="#ACB5CC"/>
<path d="M39.6825 117.763C26.6179 117.763 17.269 116.063 11.7177 114.634C5.66286 113.074 2.76319 111.531 2.64165 111.465C2.47546 111.376 2.41345 111.168 2.50274 111C2.59204 110.832 2.8004 110.773 2.96907 110.861C3.08565 110.923 14.8158 117.079 39.68 117.079H39.8264C53.9973 117.066 63.4578 115.371 68.8974 113.952C74.7662 112.421 77.3112 110.889 77.336 110.871C77.4972 110.773 77.7105 110.822 77.8098 110.985C77.909 111.146 77.8594 111.356 77.6957 111.455C77.589 111.519 75.0366 113.057 69.0711 114.614C63.5917 116.043 54.0692 117.751 39.8264 117.763H39.68H39.6825Z" fill="#ACB5CC"/>
<path d="M4.44023 206.184C4.44023 206.184 33.3799 219.093 75.8554 206.184C75.8554 206.184 77.7902 194.209 73.7544 180.25C68.8282 163.21 44.9463 169.59 42.9793 169.869C42.9793 169.869 41.7539 163.531 43.8549 160.043C45.9558 156.555 51.0284 156.555 57.1849 152.921C61.0024 150.669 68.7365 142.803 70.8374 137.105C72.9384 131.407 62.1657 128.675 42.9197 130.272C35.2179 130.912 25.5317 134.749 14.0967 135.273C7.9625 135.555 7.76654 137.755 13.3079 143.851C16.1381 146.961 21.2206 150.466 27.4069 153.611C32.3976 156.15 36.5623 158.824 37.1452 163.126C37.7232 167.39 37.175 171.063 37.175 171.063C37.175 171.063 22.9048 174.645 13.8933 180.017C7.2134 184 4.72053 188.697 4.32365 191.646C3.24465 199.67 4.44023 206.184 4.44023 206.184Z" fill="white"/>
<path d="M38.3554 212.25C32.9034 212.25 28.1334 211.874 24.1746 211.365C11.7251 209.763 4.373 206.53 4.29858 206.498C4.1944 206.451 4.11999 206.357 4.10014 206.248C4.08774 206.181 2.90704 199.591 3.98108 191.604C4.18944 190.054 5.50905 184.618 13.7144 179.725C22.0463 174.757 34.9919 171.278 36.8622 170.791C36.9664 169.939 37.2888 166.747 36.8026 163.173C36.2718 159.252 32.5982 156.636 27.2504 153.917C20.95 150.713 15.9072 147.22 13.0522 144.081C9.69856 140.393 8.52282 138.21 9.11813 136.778C9.59438 135.636 11.1248 135.065 14.0766 134.932C20.6374 134.633 26.6749 133.221 32.0029 131.978C35.9097 131.066 39.6006 130.205 42.8872 129.931C57.8221 128.69 67.9548 130.027 70.6858 133.599C71.4945 134.657 71.6532 135.876 71.1571 137.221C69.0487 142.941 61.332 150.867 57.3558 153.213C54.791 154.728 52.442 155.606 50.3708 156.379C47.548 157.435 45.3181 158.268 44.1473 160.216C42.4085 163.103 43.0485 168.131 43.2593 169.469C43.3883 169.444 43.5446 169.412 43.7232 169.375C46.1168 168.885 52.4718 167.583 58.8664 168.376C66.9974 169.385 72.1171 173.347 74.0841 180.153C78.095 194.024 76.2123 206.115 76.1925 206.236C76.1726 206.364 76.0784 206.47 75.9544 206.508C61.5404 210.888 48.7139 212.245 38.3529 212.245V212.25H38.3554ZM4.74755 205.944C5.90345 206.428 12.9653 209.237 24.2936 210.69C35.6641 212.149 53.769 212.502 75.5451 205.922C75.7733 204.265 77.1003 193.067 73.4243 180.346C70.5048 170.248 60.2828 166.688 43.8621 170.05C43.4701 170.129 43.1874 170.188 43.0286 170.21C42.8475 170.238 42.6764 170.117 42.6417 169.936C42.5896 169.672 41.4163 163.43 43.5594 159.867C44.8542 157.714 47.1834 156.844 50.1327 155.742C52.1791 154.978 54.4958 154.11 57.011 152.627C60.9178 150.32 68.5229 142.395 70.5172 136.986C70.9339 135.859 70.8099 134.887 70.1451 134.015C67.5977 130.682 57.4302 129.409 42.9492 130.613C39.7122 130.883 36.0461 131.738 32.1642 132.645C26.8088 133.896 20.7366 135.313 14.1138 135.617C11.5341 135.735 10.1078 136.202 9.75561 137.043C9.28929 138.163 10.4998 140.252 13.5631 143.621C16.3636 146.699 21.3344 150.14 27.5629 153.307C32.0302 155.578 36.8498 158.394 37.4848 163.081C38.0627 167.343 37.5195 171.078 37.5121 171.115C37.4922 171.251 37.3905 171.362 37.2566 171.397C37.1152 171.432 22.9319 175.028 14.0667 180.314C12.0575 181.51 5.44456 185.871 4.66073 191.695C3.70079 198.839 4.56647 204.846 4.74507 205.946L4.74755 205.944Z" fill="#ACB5CC"/>
<path d="M40.4764 142.828C25.3703 142.828 14.3992 138.608 14.2355 138.543C14.0594 138.474 13.9726 138.274 14.042 138.099C14.1115 137.923 14.3124 137.836 14.4885 137.906C14.7316 138.002 39.184 147.396 65.3555 137.903C65.5341 137.839 65.73 137.93 65.7945 138.108C65.859 138.286 65.7672 138.482 65.5886 138.546C56.7408 141.757 48.0815 142.828 40.4764 142.828Z" fill="#ACB5CC"/>
<path d="M23.0682 195.055C20.9598 195.055 19.1193 194.879 17.574 194.632C11.8838 193.72 8.8601 191.698 8.7336 191.611C8.57733 191.505 8.53764 191.292 8.6443 191.136C8.75096 190.981 8.96428 190.941 9.12055 191.045C9.23961 191.127 21.3145 199.04 42.153 190.088C59.6502 182.573 67.2776 177.241 67.352 177.187C67.5058 177.078 67.7216 177.113 67.8308 177.268C67.9399 177.422 67.9052 177.637 67.7489 177.745C67.6745 177.8 59.9974 183.169 42.4233 190.716C34.6297 194.063 28.0837 195.052 23.0657 195.052H23.0682V195.055Z" fill="#ACB5CC"/>
<path d="M52.6875 46.3212C51.1298 46.2842 49.4331 47.362 48.689 48.4991C47.6125 50.1455 45.8935 54.3529 46.913 59.4453C48.6791 68.273 52.6032 79.5332 57.7129 82.3612C65.5587 86.7071 67.615 70.6858 61.1285 54.4741C57.8419 46.2619 56.2792 46.4053 52.69 46.3212H52.6875Z" fill="#F3F4F6"/>
<path d="M60.1464 83.4266C59.4097 83.4266 58.5465 83.2165 57.5469 82.6627C52.2858 79.7482 48.3493 68.3718 46.5782 59.5144C45.3281 53.2626 48.0839 48.8031 48.4039 48.3161C49.1505 47.174 50.867 45.98 52.6082 45.98H52.6975L52.9233 45.9849C56.4009 46.064 58.1471 46.1011 61.4486 54.3479C66.1268 66.0357 66.6378 78.9274 62.5648 82.4971C62.0092 82.9841 61.213 83.4266 60.1464 83.4266ZM52.6082 46.6623C51.1621 46.6623 49.6342 47.6807 48.9768 48.6869C47.878 50.3703 46.2781 54.516 47.2504 59.3785C49.1306 68.7822 53.1465 79.4416 57.8792 82.062C59.5635 82.994 60.9848 82.9668 62.1084 81.9829C65.5613 78.9546 65.8614 67.2297 60.8087 54.6025C57.6758 46.776 56.2793 46.7438 52.9059 46.6697L52.6802 46.6647H52.6082V46.6623Z" fill="#ACB5CC"/>
<path d="M50.3384 41.2362C40.1363 42.3215 47.7488 68.3571 47.7488 68.3571C47.7488 68.3571 55.1233 67.9813 65.1444 63.7393C65.1444 63.7393 61.317 40.0694 50.3384 41.2387V41.2362Z" fill="#ACB5CC"/>
<path d="M47.4962 68.713L47.4193 68.4534C47.4069 68.4065 46.0551 63.7615 45.2589 58.3823C44.1823 51.1046 44.5792 46.0122 46.4396 43.2459C47.3697 41.8616 48.6695 41.073 50.3016 40.9C54.96 40.4031 59.0676 44.2175 62.1781 51.9253C64.4949 57.6654 65.4747 63.628 65.4846 63.6873L65.5268 63.9518L65.2787 64.0556C55.3172 68.273 47.841 68.6982 47.7666 68.7006L47.4962 68.7155V68.713ZM50.3736 41.5773C48.9324 41.7306 47.8336 42.4005 47.0101 43.6242C43.0636 49.4953 47.3697 65.7169 48.0023 67.9936C49.4087 67.8774 56.0985 67.1531 64.7578 63.5266C64.294 60.9483 60.2855 40.5316 50.3736 41.5748V41.5773Z" fill="#ACB5CC"/>
<path d="M47.7492 68.6981C47.5954 68.6981 47.459 68.5943 47.4169 68.446C47.3945 68.3644 45.2068 60.3129 45.1001 53.1514C45.1001 52.9635 45.2489 52.8078 45.4374 52.8028C45.621 52.8028 45.7822 52.9512 45.7872 53.139C45.8814 59.4749 47.6302 66.5301 48.0072 67.9911C49.4236 67.8724 56.1084 67.1457 64.7553 63.5266C64.3312 61.3042 61.1239 45.8638 53.1839 41.0606C53.0227 40.9617 52.9706 40.7516 53.0674 40.5909C53.1666 40.4302 53.3774 40.3783 53.5386 40.4747C57.2395 42.7144 60.3748 47.305 62.8578 54.1204C64.6983 59.1708 65.4747 63.6329 65.4821 63.6774C65.5094 63.8331 65.4251 63.9889 65.2787 64.0507C55.3172 68.268 47.841 68.6932 47.7666 68.6956H47.7492V68.6981Z" fill="#ACB5CC"/>
<path d="M60.3201 26.6782C60.2928 26.6782 60.263 26.6758 60.2332 26.6683C60.0497 26.6214 59.9405 26.436 59.9852 26.253C60.005 26.1715 60.4714 24.2161 58.6904 22.3571C56.5398 20.1125 54.3124 20.152 54.29 20.1545C54.0941 20.1594 53.9428 20.0111 53.9353 19.8232C53.9279 19.6354 54.0767 19.4772 54.2652 19.4697C54.3719 19.4673 56.8127 19.4079 59.1865 21.8849C61.2403 24.0282 60.6748 26.3272 60.65 26.4236C60.6103 26.5769 60.4714 26.6807 60.3176 26.6807H60.3201V26.6782Z" fill="#F3F4F6"/>
<path d="M68.3247 38.4279L4.52457 39.2462C4.52457 39.2462 3.90941 36.5739 8.34945 34.0499C8.34945 34.0499 10.6265 32.5964 10.7034 29.5632C10.7803 26.5299 13.3352 25.3928 13.9131 24.9726C14.4911 24.5523 16.3068 22.9578 16.2671 20.7478C16.2101 17.4847 17.0931 16.5083 19.1941 15.3143C19.7125 15.0201 21.047 14.1005 21.7241 12.024C22.3715 10.0389 22.3914 9.82631 23.0561 8.02913C24.8942 3.05537 35.0294 -3.65624 44.7007 2.80075C44.7007 2.80075 47.6649 4.70176 49.6393 8.40983C49.9543 9.00065 51.5443 12.7952 51.9164 13.1067C53.3873 14.3304 54.253 14.674 55.4015 18.8963C56.1605 21.6922 57.8869 22.7996 58.3805 23.2347C58.894 23.6896 61.2752 25.1456 61.7589 28.2431C62.0194 29.9142 62.6568 31.9833 64.5246 32.7842C65.6582 33.2688 68.5207 33.956 68.3247 38.423V38.4279Z" fill="#ACB5CC"/>
<path d="M52.271 58.9979C52.271 58.9979 49.5003 69.9243 51.7129 84.2202C51.7129 84.2202 45.3554 89.2582 16.4406 85.0409C16.4406 85.0409 19.8884 69.5782 15.8626 58.3106C11.9361 47.3199 12.8191 42.2473 17.0706 39.9804C21.0071 37.8816 30.8521 37.5257 40.3498 37.9508C71.058 39.3303 52.2734 58.9979 52.2734 58.9979H52.271Z" fill="#ACB5CC"/>
<path d="M36.629 87.0727C31.5812 87.0727 24.9782 86.6302 16.3908 85.3769C16.2966 85.3621 16.2122 85.3102 16.1577 85.2335C16.1031 85.1544 16.0857 85.058 16.1056 84.9641C16.1403 84.8108 19.4865 69.4643 15.54 58.4242C11.7499 47.8166 12.1592 42.21 16.9093 39.6786C21.6073 37.172 33.6226 37.3055 40.3646 37.6095C49.8846 38.0372 54.0146 39.2188 58.2363 45.0034C58.348 45.1567 58.3132 45.3693 58.1594 45.4805C58.0057 45.5918 57.7923 45.5572 57.6807 45.4064C53.6227 39.8467 49.6093 38.7096 40.3323 38.2918C28.9767 37.7826 20.558 38.5069 17.2317 40.2818C12.8462 42.6204 12.5337 47.9773 16.1874 58.1943C19.8585 68.4681 17.3334 82.3487 16.8522 84.7515C42.6019 88.4645 50.1897 84.7515 51.3382 84.0568C49.0784 70.9575 52.0054 58.612 52.0352 58.4884C52.0798 58.3055 52.2659 58.1918 52.4494 58.2363C52.633 58.2808 52.7471 58.4662 52.7024 58.6491C52.6726 58.7727 49.7482 71.1231 52.0525 84.1582C52.0749 84.2818 52.0277 84.4079 51.9285 84.4845C51.7425 84.6304 48.4707 87.0703 36.6315 87.0703H36.629V87.0727Z" fill="#ACB5CC"/>
<path d="M37.8792 38.3142C37.8792 38.3142 45.4421 38.6825 45.4273 39.8147C45.4049 41.5105 44.0754 47.572 40.0918 47.5077C35.1482 47.4286 25.209 40.8332 26.278 39.5378C27.3471 38.2425 36.4455 38.3018 37.8792 38.3142Z" fill="#F3F4F6"/>
<path d="M40.1539 47.8512H40.0845C35.6171 47.7795 27.0248 42.519 25.9706 40.2472C25.7548 39.7825 25.8739 39.4858 26.0103 39.3202C27.0446 38.0669 33.8883 37.9383 37.8793 37.9704H37.8942C41.4959 38.146 45.7846 38.6082 45.7697 39.8171C45.7548 40.9468 45.0851 44.6549 43.0635 46.6127C42.2152 47.4334 41.2379 47.8487 40.1539 47.8487V47.8512ZM36.8276 38.6503C31.0953 38.6503 27.1042 39.073 26.5436 39.7528C26.5436 39.7528 26.5138 39.869 26.7296 40.1879C28.1137 42.2248 35.9371 47.0972 40.0969 47.164C41.0146 47.1813 41.8555 46.8278 42.5848 46.1208C44.4526 44.3137 45.0702 40.8603 45.0826 39.8072C44.8395 39.3746 41.5331 38.8332 37.8669 38.6527C37.5147 38.6527 37.1674 38.6478 36.8251 38.6478L36.8276 38.6503Z" fill="#ACB5CC"/>
<path d="M42.5873 77.7311C42.4013 77.7311 42.2475 77.5828 42.245 77.3949C41.863 56.2861 40.3896 47.6092 40.3747 47.5227C40.3425 47.3373 40.4665 47.1593 40.655 47.1271C40.8411 47.095 41.0196 47.2186 41.0519 47.4065C41.0668 47.493 42.5501 56.2095 42.9321 77.3826C42.9321 77.5704 42.7833 77.7286 42.5947 77.7311H42.5873Z" fill="#ACB5CC"/>
<path d="M68.9594 112.913C68.9594 112.913 38.1445 115.16 25.6082 111.071C8.41115 105.462 16.4379 83.958 16.4379 83.958C16.4379 83.958 23.9463 85.9085 34.0369 85.5945C44.8765 85.2558 52.3675 86.8627 52.3675 86.8627L69.9987 84.0248C84.2366 85.5105 88.4509 105.198 77.8618 108.253C77.5914 108.332 77.3161 108.399 77.0358 108.456C76.7555 108.513 69.2694 112.896 68.9619 112.911H68.9594V112.913Z" fill="white"/>
<path d="M50.723 113.86C41.699 113.86 31.4894 113.351 25.4991 111.396C21.0318 109.94 17.8419 107.287 16.0187 103.515C11.9731 95.1517 15.9418 84.2945 16.113 83.8371C16.18 83.6592 16.3759 83.5702 16.5545 83.6369C16.7331 83.7037 16.8224 83.8989 16.7579 84.0769C16.748 84.1041 15.7285 86.8679 15.2101 90.6031C14.7339 94.0294 14.5974 99.0007 16.6389 103.22C18.3801 106.817 21.4336 109.349 25.7149 110.745C37.8593 114.708 67.7167 112.656 68.9023 112.572C69.267 112.431 71.6631 111.069 73.4193 110.071C76.2792 108.444 76.8101 108.152 76.9663 108.12C77.1499 108.081 77.3334 108.202 77.3707 108.387C77.4079 108.563 77.3012 108.736 77.13 108.785C76.8994 108.879 75.23 109.828 73.7566 110.666C69.7606 112.938 69.1777 113.245 68.9767 113.255C68.8205 113.267 60.4638 113.86 50.723 113.86Z" fill="#ACB5CC"/>
<path d="M106.794 132.64C106.794 132.64 100.112 119.662 96.0213 113.119C92.1518 106.929 77.2616 111.984 84.1746 120.873C89.582 127.827 97.1103 138.981 97.1103 138.981L106.794 132.64Z" fill="#F3F4F6"/>
<path d="M97.1101 139.322C96.9985 139.322 96.8919 139.27 96.8249 139.172C96.7505 139.06 89.2396 127.949 83.9016 121.084C81.5551 118.065 81.8305 115.729 82.4754 114.298C83.5172 111.984 86.3945 110.281 89.634 110.063C92.5709 109.865 95.0638 110.941 96.3114 112.938C100.362 119.42 107.032 132.356 107.099 132.485C107.178 132.64 107.129 132.831 106.982 132.927L97.2987 139.268C97.2416 139.305 97.1746 139.325 97.1101 139.325V139.322ZM90.3161 110.723C90.1078 110.723 89.8945 110.731 89.6787 110.746C86.6847 110.948 84.0406 112.488 83.1005 114.58C82.2869 116.384 82.7507 118.488 84.4449 120.663C89.3215 126.935 95.9989 136.732 97.2044 138.509L106.347 132.524C105.36 130.618 99.4393 119.235 95.7285 113.299C94.7066 111.663 92.7098 110.723 90.3161 110.723Z" fill="#ACB5CC"/>
<path d="M66.8808 85.2907C71.0281 82.8385 76.9688 83.9089 80.3051 87.3771C82.0736 89.2163 87.1115 96.1801 89.9293 100.083C92.9852 104.318 97.775 112.56 97.775 112.56C97.775 112.56 89.0934 119.516 83.3312 122.896C83.3312 122.896 74.8381 115.274 69.8548 106.948C67.806 103.525 59.9305 89.3943 66.8783 85.2883H66.8808V85.2907Z" fill="white"/>
<path d="M102.379 123.724C102.379 123.724 104.554 128.655 110.123 127.649C114.92 126.784 122.339 123.308 123.21 125.622C124.879 130.064 115.406 133.661 108.754 138.492C102.101 143.325 101.595 145.903 97.9637 143.527C96.1182 142.321 94.3273 136.215 91.2466 131.033L102.381 123.724H102.379Z" fill="#ACB5CC"/>
<path d="M100.313 144.768C99.5759 144.768 98.7797 144.472 97.7751 143.814C96.639 143.07 95.6047 140.788 94.295 137.896C93.3425 135.795 92.2635 133.414 90.9513 131.206C90.8571 131.048 90.9042 130.846 91.058 130.747L102.193 123.437C102.277 123.38 102.381 123.365 102.478 123.395C102.575 123.424 102.654 123.494 102.696 123.585C102.781 123.776 104.837 128.257 110.066 127.313C111.596 127.036 113.422 126.485 115.188 125.948C119.291 124.707 122.833 123.635 123.535 125.501C124.837 128.967 120.221 131.75 114.873 134.974C112.874 136.178 110.807 137.424 108.957 138.768C107.094 140.123 105.718 141.295 104.611 142.239C102.786 143.797 101.647 144.768 100.315 144.768H100.313ZM91.7054 131.14C92.963 133.298 93.9998 135.587 94.9176 137.614C96.1305 140.294 97.1798 142.605 98.1497 143.24C100.543 144.805 101.382 144.088 104.16 141.718C105.276 140.766 106.663 139.584 108.548 138.215C110.421 136.855 112.499 135.602 114.511 134.388C119.596 131.323 123.989 128.675 122.885 125.741C122.409 124.475 118.676 125.605 115.381 126.604C113.596 127.145 111.75 127.704 110.182 127.985C109.652 128.082 109.148 128.124 108.672 128.124C104.812 128.124 102.83 125.241 102.247 124.216L91.7029 131.14H91.7054Z" fill="#ACB5CC"/>
<path d="M94.6545 138.635C94.6545 138.635 95.4656 140.447 96.7108 142.528C97.6881 144.165 99.6055 146.748 99.6055 146.748L105.906 142.017L105.323 141.085C107.528 140.477 109.016 139.861 113.561 136.509C116.269 134.509 125.065 127.864 126.657 126.428C126.657 126.428 125.154 121.911 118.569 123.911C111.983 125.909 112.73 127.518 105.569 127.041C105.569 127.041 103.393 128.22 100.528 132.692C98.9531 135.152 94.1757 136.786 94.6569 138.635H94.6545Z" fill="#8F97AA"/>
<path d="M99.6032 147.089C99.5858 147.089 99.5709 147.089 99.5536 147.087C99.4618 147.074 99.3799 147.025 99.3278 146.951C99.2485 146.845 97.3906 144.335 96.4158 142.704C95.1755 140.627 94.3495 138.793 94.3421 138.776C94.3347 138.759 94.3272 138.741 94.3223 138.721C93.9924 137.458 95.436 136.442 97.1078 135.27C98.3232 134.418 99.5808 133.535 100.236 132.509C103.116 128.013 105.311 126.791 105.403 126.742C105.46 126.71 105.524 126.697 105.589 126.702C110.212 127.009 111.428 126.455 113.63 125.447C114.771 124.925 116.193 124.275 118.467 123.585C125.293 121.513 126.965 126.272 126.983 126.322C127.025 126.45 126.988 126.591 126.886 126.683C125.269 128.141 116.312 134.902 113.762 136.786C109.523 139.915 107.883 140.697 105.851 141.292L106.191 141.836C106.286 141.987 106.248 142.185 106.107 142.291L99.8066 147.023C99.747 147.067 99.6751 147.092 99.6007 147.092L99.6032 147.089ZM94.9796 138.524C95.0862 138.761 95.8676 140.452 97.0036 142.353C97.7751 143.643 99.1542 145.554 99.6751 146.264L105.445 141.93L105.028 141.265C104.971 141.174 104.961 141.06 105.001 140.959C105.04 140.857 105.125 140.781 105.229 140.753C107.446 140.143 108.885 139.53 113.355 136.232C115.816 134.418 124.252 128.05 126.246 126.329C125.866 125.501 124.105 122.586 118.666 124.235C116.436 124.913 115.039 125.55 113.915 126.065C111.703 127.076 110.361 127.689 105.651 127.387C105.241 127.647 103.284 129.019 100.814 132.875C100.084 134.015 98.7127 134.979 97.5022 135.827C96.1156 136.801 94.8035 137.723 94.9796 138.521V138.524Z" fill="#ACB5CC"/>
<path d="M83.3338 123.242C83.2519 123.242 83.1676 123.212 83.1031 123.153C83.0187 123.076 74.5132 115.4 69.5622 107.126C69.4655 106.963 69.5175 106.753 69.6813 106.657C69.845 106.56 70.0558 106.612 70.1525 106.775C74.6447 114.28 82.1084 121.304 83.3784 122.473C88.5254 119.412 95.9345 113.583 97.331 112.478C96.4976 111.057 92.3651 104.039 89.654 100.284C89.2224 99.6855 88.7313 98.9933 88.2004 98.2467C85.395 94.3013 81.1534 88.3412 78.8739 86.6355C75.7063 84.2673 72.5139 84.3365 70.9785 84.3686C70.8223 84.3711 70.6834 84.3761 70.5643 84.3761C70.3733 84.3761 70.222 84.2228 70.222 84.0349C70.222 83.847 70.3758 83.6938 70.5643 83.6938C70.6784 83.6938 70.8123 83.6913 70.9637 83.6888C72.576 83.6542 75.9296 83.5825 79.2856 86.0917C81.652 87.8592 85.7597 93.6363 88.761 97.8537C89.2918 98.5978 89.7805 99.2875 90.2121 99.8857C93.2432 104.083 98.0281 112.308 98.0752 112.392C98.1595 112.538 98.1248 112.723 97.9933 112.829C97.9065 112.899 89.2249 119.84 83.5099 123.195C83.4553 123.227 83.3958 123.242 83.3362 123.242H83.3338Z" fill="#ACB5CC"/>
<path d="M61.0594 150.397C61.0594 150.397 67.6425 137.369 70.5372 130.218C73.2757 123.454 60.4045 114.443 57.2692 125.249C54.8185 133.701 51.1499 144.526 51.1499 144.526L61.0594 150.397Z" fill="#F3F4F6"/>
<path d="M61.0594 150.741C60.9973 150.741 60.9378 150.723 60.8832 150.694L50.9738 144.823C50.8349 144.741 50.7729 144.573 50.8249 144.42C50.8622 144.311 54.5184 133.506 56.9393 125.157C58.0034 121.491 60.0597 120.334 61.5976 120.011C64.0905 119.487 67.1638 120.799 69.2499 123.279C71.1375 125.523 71.7378 128.166 70.8547 130.351C67.9873 137.434 61.4314 150.424 61.3645 150.555C61.3223 150.639 61.2454 150.704 61.1536 150.731C61.1214 150.741 61.0891 150.746 61.0569 150.746V150.741H61.0594ZM51.5641 144.375L60.918 149.915C61.9573 147.846 67.6177 136.517 70.2197 130.092C71.006 128.146 70.4479 125.763 68.7265 123.716C66.7992 121.425 63.9913 120.203 61.7415 120.678C59.7993 121.086 58.3656 122.7 57.5991 125.345C55.384 132.981 52.1396 142.667 51.5641 144.375Z" fill="#ACB5CC"/>
<path d="M74.1237 100.57C78.4794 102.629 81.2873 106.923 79.9825 112.322C79.794 113.099 79.2955 114.738 77.6236 119.247C75.8079 124.139 71.6209 132.702 71.6209 132.702C71.6209 132.702 60.8904 129.276 54.8604 126.403C54.8604 126.403 57.7972 116.419 60.9797 109.526C62.6515 105.905 66.8261 97.1193 74.1237 100.568V100.57Z" fill="white"/>
<path d="M65.4745 142.768C65.4745 142.768 63.5992 147.841 67.5209 148.968C72.204 150.313 80.6326 152.323 79.9406 154.696C78.616 159.252 68.8628 156.493 60.6326 156.407C52.3999 156.32 50.4503 158.085 48.962 154.019C48.2054 151.952 49.5077 145.448 52.328 139.396L65.4745 142.768Z" fill="#ACB5CC"/>
<path d="M73.9897 157.66C72.1045 157.66 69.9341 157.45 67.6471 157.23C65.3229 157.005 62.9193 156.775 60.6299 156.75C58.3255 156.725 56.5173 156.846 55.0637 156.945C51.338 157.195 49.7977 157.299 48.6393 154.137C47.791 151.818 49.3363 145.003 52.0152 139.253C52.0847 139.102 52.2509 139.023 52.4121 139.065L65.5586 142.437C65.6528 142.462 65.7322 142.523 65.7768 142.61C65.8215 142.696 65.8289 142.795 65.7942 142.887C65.7843 142.911 64.869 145.453 65.752 147.193C66.1142 147.902 66.7393 148.389 67.6149 148.642C68.1531 148.795 68.7385 148.961 69.3562 149.131C73.6871 150.335 79.0771 151.833 80.1264 153.709C80.3273 154.068 80.3744 154.434 80.2702 154.792C79.6154 157.039 77.2267 157.66 73.9872 157.66H73.9897ZM60.0321 156.06C60.2305 156.06 60.4314 156.06 60.6373 156.063C62.9541 156.087 65.3725 156.32 67.7141 156.545C73.63 157.116 78.7398 157.608 79.6129 154.597C79.6675 154.414 79.6402 154.236 79.5286 154.036C78.6182 152.407 72.9355 150.827 69.1751 149.784C68.555 149.611 67.9671 149.448 67.4264 149.292C66.3622 148.985 65.5933 148.38 65.1418 147.492C64.3283 145.888 64.7946 143.826 65.0352 143.003L52.5187 139.794C49.7629 145.816 48.5996 152.028 49.2842 153.897C50.264 156.577 51.3678 156.503 55.0166 156.256C56.3511 156.167 57.9857 156.055 60.0296 156.055V156.06H60.0321Z" fill="#ACB5CC"/>
<path d="M48.5206 148.803C48.5206 148.803 48.2378 150.192 48.1064 152.743C48.0071 154.644 48.0195 158.053 48.0195 158.053L55.9074 157.981L55.9942 156.889C58.1299 157.707 59.6951 158.095 65.3481 158.09C68.7191 158.088 79.7299 158.115 81.8655 157.905C81.8655 157.905 83.3761 153.223 76.8897 150.926C70.4033 148.632 70.0436 150.365 64.5692 145.74C64.5692 145.74 62.116 145.399 57.1452 147.297C54.4117 148.34 49.2375 147.03 48.5206 148.803Z" fill="#8F97AA"/>
<path d="M67.6969 158.431H65.2586C60.0545 158.431 58.2785 158.09 56.3016 157.368L56.252 158.008C56.2371 158.186 56.0908 158.322 55.9122 158.325L48.0243 158.396C47.9226 158.396 47.8457 158.362 47.7812 158.298C47.7167 158.233 47.6795 158.147 47.6795 158.055C47.6795 158.021 47.6696 154.617 47.7663 152.728C47.9002 150.179 48.1756 148.795 48.188 148.736C48.1929 148.716 48.1979 148.696 48.2053 148.676C48.699 147.458 50.594 147.445 52.7893 147.43C54.3197 147.421 55.9022 147.408 57.0259 146.98C62.024 145.072 64.5169 145.388 64.6211 145.403C64.6856 145.413 64.7451 145.44 64.7947 145.482C68.3319 148.469 69.6366 148.743 72.0079 149.237C73.2382 149.495 74.7662 149.813 77.0085 150.607C83.7331 152.985 82.2126 157.961 82.1977 158.011C82.1555 158.139 82.0414 158.233 81.905 158.246C80.1215 158.421 72.2634 158.434 67.6993 158.434H67.6969V158.431ZM66.7047 157.746C70.8421 157.746 79.2906 157.749 81.5949 157.583C81.7884 156.668 82.1481 153.151 76.7754 151.25C74.5777 150.474 73.0745 150.16 71.8641 149.905C69.4828 149.408 68.0367 149.106 64.4301 146.071C63.9464 146.036 61.5527 145.982 57.269 147.618C56.0287 148.093 54.3817 148.103 52.7917 148.113C51.0281 148.125 49.205 148.137 48.8527 148.904C48.8106 149.129 48.57 150.483 48.4509 152.763C48.3715 154.28 48.3641 156.795 48.3641 157.709L55.5922 157.642L55.6542 156.861C55.6641 156.752 55.7212 156.656 55.8129 156.599C55.9047 156.542 56.0188 156.53 56.1205 156.57C58.2661 157.393 59.7817 157.751 65.3503 157.749H66.7047V157.746Z" fill="#ACB5CC"/>
<path d="M71.6213 133.046C71.5865 133.046 71.5518 133.041 71.5171 133.029C71.4104 132.994 60.6948 129.563 54.7144 126.712C54.5631 126.641 54.4862 126.468 54.5333 126.307C54.5631 126.206 57.5124 116.219 60.67 109.383C60.7494 109.213 60.9528 109.136 61.1264 109.215C61.3 109.294 61.3745 109.497 61.2951 109.67C58.4549 115.818 55.7785 124.554 55.2775 126.221C60.7072 128.764 69.7361 131.731 71.4452 132.287C72.167 130.799 75.6942 123.467 77.304 119.131L77.9514 117.393C79.0354 114.483 79.2611 113.878 79.653 112.244C80.804 107.43 78.6311 103.077 73.9802 100.88C71.4576 99.688 68.0196 100.262 63.4729 102.635C63.3043 102.721 63.0984 102.657 63.0091 102.491C62.9198 102.323 62.9868 102.118 63.153 102.029C66.1841 100.447 70.6316 98.541 74.2729 100.262C79.2313 102.605 81.5481 107.257 80.3178 112.404C79.9184 114.078 79.6902 114.691 78.5914 117.633L77.944 119.37C76.1432 124.223 71.971 132.771 71.9289 132.856C71.8693 132.977 71.7478 133.048 71.6188 133.048L71.6213 133.046Z" fill="#ACB5CC"/>
<path d="M31.9063 112.617C31.4201 112.617 30.9414 112.602 30.475 112.57C30.2865 112.557 30.1426 112.394 30.155 112.206C30.1674 112.018 30.3336 111.87 30.5197 111.887C42.8327 112.701 62.9493 102.135 63.1527 102.029C63.3189 101.94 63.5273 102.004 63.6166 102.17C63.7059 102.338 63.6414 102.543 63.4752 102.632C63.2792 102.736 44.4673 112.614 31.9087 112.614L31.9063 112.617Z" fill="#ACB5CC"/>
<path d="M69.8302 149.672C68.6643 149.672 65.601 149.574 63.7084 148.6C62.2498 147.848 61.3594 145.984 61.7637 144.528C62.0638 143.443 63.0113 142.864 64.3607 142.948C67.8309 143.161 70.4875 148.938 70.5991 149.183C70.6462 149.287 70.6388 149.408 70.5768 149.504C70.5172 149.601 70.4106 149.663 70.2965 149.665C70.2642 149.665 70.0956 149.672 69.8302 149.672ZM64.1003 143.626C63.1999 143.626 62.6219 143.999 62.426 144.711C62.1432 145.73 62.731 147.326 64.0234 147.994C65.7151 148.864 68.5577 148.98 69.7359 148.988C69.0314 147.621 66.8412 143.789 64.3186 143.633C64.2441 143.628 64.1722 143.626 64.1003 143.626Z" fill="#ACB5CC"/>
<path d="M70.3537 149.658C70.2594 149.658 70.1701 149.621 70.1031 149.552C70.0238 149.468 69.9915 149.351 70.0188 149.24C70.0783 148.978 71.5245 142.788 74.8805 141.888C76.1853 141.537 77.2295 141.913 77.7405 142.917C78.4276 144.264 77.929 146.269 76.6516 147.295C74.6151 148.931 70.5819 149.623 70.4107 149.653C70.3909 149.656 70.3735 149.658 70.3537 149.658ZM75.7933 142.442C75.5701 142.442 75.3245 142.477 75.0566 142.548C72.6159 143.203 71.2392 147.394 70.8225 148.874C71.9759 148.632 74.7367 147.952 76.22 146.761C77.3536 145.851 77.6066 144.168 77.1278 143.226C76.8624 142.707 76.4085 142.442 75.7933 142.442Z" fill="#ACB5CC"/>
<path d="M104.453 130.947C103.111 130.947 101.739 130.235 101.176 129.145C100.658 128.143 100.963 127.081 102.012 126.23C104.708 124.045 110.589 126.497 110.837 126.603C110.944 126.648 111.019 126.742 111.041 126.856C111.063 126.967 111.026 127.083 110.944 127.162C110.82 127.283 107.896 130.136 105.373 130.828C105.073 130.91 104.763 130.949 104.448 130.949H104.453V130.947ZM105.113 126.008C104.091 126.008 103.131 126.205 102.446 126.762C101.65 127.407 101.422 128.124 101.786 128.831C102.272 129.77 103.79 130.549 105.194 130.166C107.03 129.664 109.2 127.83 110.071 127.038C109.128 126.695 107.015 126.008 105.113 126.008Z" fill="#ACB5CC"/>
<path d="M110.748 127.207H110.726C110.612 127.199 110.507 127.135 110.45 127.036C110.316 126.801 107.169 121.276 109.027 118.347C109.748 117.207 110.77 116.78 111.832 117.17C113.253 117.697 114.25 119.509 114.007 121.125C113.62 123.704 111.128 126.94 111.021 127.076C110.956 127.16 110.855 127.209 110.748 127.209V127.207ZM111.068 117.714C110.522 117.714 110.024 118.053 109.607 118.713C108.258 120.841 110.093 124.856 110.795 126.225C111.477 125.266 113.047 122.903 113.328 121.027C113.544 119.593 112.586 118.184 111.591 117.815C111.413 117.749 111.239 117.716 111.071 117.716L111.068 117.714Z" fill="#ACB5CC"/>
<path d="M38.9137 1.47073C31.5021 1.4114 25.4448 7.35174 25.3853 14.7382L26.4097 22.7477C28.404 37.0781 39.8365 36.1313 39.8365 36.1313C47.4143 36.1931 51.4227 30.2874 51.4823 22.8985L51.5468 14.9459C51.6063 7.55939 46.3279 1.52759 38.9162 1.46826L38.9137 1.47073Z" fill="#F3F4F6"/>
<path d="M51.5071 9.88566C52.1793 11.5048 51.4749 13.3885 49.8675 14.098C49.8477 14.1079 49.8254 14.1153 49.8055 14.1252C48.5554 14.6567 47.1886 14.6221 45.998 14.0857C45.7103 13.9571 45.2291 13.8385 44.6983 13.6432C42.7089 12.909 39.9705 12.8546 39.0056 15.4329C37.6091 19.1633 35.7785 22.0061 33.6354 21.2423C32.6705 20.8986 25.0033 8.60019 27.8286 4.29388C27.8286 4.29388 31.8569 -2.20514 41.558 0.786044C41.558 0.786044 48.5901 2.84526 51.5096 9.88566H51.5071Z" fill="#ACB5CC"/>
<path d="M26.077 30.2577C26.077 30.2577 38.9556 21.4053 36.8943 10.7705C35.5251 3.70295 30.7899 4.37288 27.9373 6.25164C24.9137 8.24658 23.2096 11.6283 23.2517 15.151C23.3138 20.1816 23.1649 29.4048 26.077 30.2577Z" fill="#ACB5CC"/>
<path d="M30.3409 19.3241C29.1677 19.1832 26.3672 20.1943 26.9104 23.9641C27.4561 27.734 32.2906 27.0987 32.2906 27.0987L34.8107 21.9272C32.1914 19.5837 31.5142 19.4675 30.3409 19.3241Z" fill="#F3F4F6"/>
<path d="M30.8248 27.4519H30.7951C28.3592 27.2418 26.8586 26.0206 26.5683 24.0158C26.2682 21.9293 26.9603 20.7205 27.5953 20.0728C28.451 19.2002 29.6392 18.8986 30.3783 18.9876C31.5987 19.1335 32.3453 19.3065 34.7092 21.383C34.8506 21.5091 34.8655 21.7242 34.739 21.8651C34.615 22.0085 34.3967 22.0208 34.2553 21.8947C31.941 19.8627 31.3234 19.7886 30.2965 19.665C29.8153 19.6081 28.828 19.796 28.0864 20.5499C27.3298 21.3212 27.0396 22.4856 27.248 23.9169C27.5556 26.0428 29.3787 26.6411 30.8521 26.7696C31.0406 26.7869 31.182 26.9526 31.1646 27.1404C31.1498 27.3184 30.9985 27.4544 30.8223 27.4544L30.8248 27.4519Z" fill="#ACB5CC"/>
<path d="M32.2487 23.7934C32.0924 23.7934 31.9535 23.6871 31.9138 23.5313C31.5591 22.0605 30.2494 21.9146 30.1948 21.9097C30.0063 21.8924 29.8674 21.7243 29.8848 21.5364C29.9021 21.3485 30.0708 21.2051 30.2568 21.2274C30.8968 21.2818 32.2065 21.8034 32.5835 23.3706C32.6282 23.5536 32.5141 23.739 32.328 23.7835C32.3007 23.7909 32.2735 23.7934 32.2487 23.7934Z" fill="#ACB5CC"/>
<path d="M49.7573 23.468C50.275 23.4139 50.6464 22.911 50.5868 22.3448C50.5272 21.7786 50.0592 21.3635 49.5414 21.4176C49.0237 21.4717 48.6523 21.9746 48.7119 22.5408C48.7716 23.1071 49.2396 23.5222 49.7573 23.468Z" fill="#ACB5CC"/>
<path d="M42.7969 23.3865C43.3146 23.3323 43.686 22.8295 43.6264 22.2632C43.5667 21.697 43.0987 21.2819 42.581 21.3361C42.0633 21.3902 41.6919 21.8931 41.7515 22.4593C41.8111 23.0255 42.2791 23.4406 42.7969 23.3865Z" fill="#ACB5CC"/>
<path d="M47.4787 25.6353C47.3051 25.6353 47.1563 25.5043 47.1364 25.3288C47.1265 25.2398 47.0471 24.78 46.6106 24.78C46.1938 24.78 45.9929 25.3362 45.9904 25.3411C45.9284 25.5191 45.735 25.6155 45.5539 25.5513C45.3753 25.4895 45.2786 25.2966 45.3406 25.1186C45.4695 24.7404 45.8813 24.0977 46.6081 24.0952H46.613C47.4713 24.0952 47.7789 24.8541 47.8235 25.2571C47.8434 25.445 47.7069 25.6131 47.5184 25.6328H47.4787V25.6353Z" fill="#ACB5CC"/>
<path d="M44.7999 29.6968C44.0161 29.6968 43.1331 29.415 42.2748 28.5473C42.1409 28.4138 42.1434 28.1962 42.2748 28.0628C42.4112 27.9293 42.6271 27.9317 42.761 28.0652C44.7528 30.0799 46.8389 28.2828 46.9282 28.2061C47.0696 28.0801 47.2879 28.0949 47.4119 28.2358C47.5384 28.3767 47.5235 28.5942 47.3821 28.7179C47.3647 28.7327 46.2485 29.6943 44.7975 29.6943L44.7999 29.6968Z" fill="#ACB5CC"/>
<path d="M43.284 33.3034C43.284 33.3034 43.346 37.0436 43.346 39.2462C43.346 39.2462 42.8301 41.8444 35.4036 42.0891C30.2814 42.2572 28.4831 39.7629 28.4831 39.7629C28.4831 39.7629 28.3268 31.4741 28.3342 28.6387L43.2865 33.3059L43.284 33.3034Z" fill="#F3F4F6"/>
<path d="M41.0569 36.4381C38.5987 36.4381 35.1608 35.8745 32.1743 33.3332C32.0304 33.2096 32.0131 32.9945 32.1371 32.8511C32.2611 32.7078 32.4769 32.6905 32.6208 32.8141C37.676 37.113 44.1029 35.4418 44.1649 35.4221C44.3484 35.3726 44.537 35.4789 44.5866 35.6619C44.6362 35.8448 44.5295 36.0327 44.346 36.0821C44.3162 36.0895 42.9891 36.4381 41.0569 36.4381Z" fill="#ACB5CC"/>
<path d="M8.62709 31.1921C8.45097 31.1921 8.30215 31.0586 8.28478 30.8806C7.99457 27.7535 9.14054 27.1256 11.6483 25.7561C12.2089 25.4496 12.8464 25.101 13.5607 24.6758C16.7209 22.7946 16.2645 20.2385 16.2446 20.1322C16.2074 19.9468 16.3289 19.7663 16.515 19.7292C16.701 19.6946 16.8821 19.8108 16.9193 19.9962C16.9441 20.1223 17.5096 23.1234 13.9154 25.2617C13.1887 25.6943 12.5462 26.0453 11.9807 26.3543C9.47789 27.7238 8.72135 28.1367 8.96939 30.8164C8.98676 31.0042 8.84785 31.1723 8.65933 31.1896H8.62709V31.1921Z" fill="#ACB5CC"/>
<path d="M13.5556 31.1751C13.3696 31.1751 13.2158 31.0268 13.2133 30.8414C13.1588 28.4534 14.2898 27.7019 15.5995 26.8317L15.9865 26.5746C17.1548 25.8033 18.9209 24.639 18.7696 21.6824C18.6009 18.3748 20.1189 17.6505 21.7238 16.8817C21.8503 16.8224 21.9793 16.7606 22.1058 16.6963C23.6809 15.9226 24.2613 13.8609 24.2688 13.8411C24.3184 13.6606 24.5069 13.5519 24.6905 13.6013C24.874 13.6507 24.9807 13.8386 24.9311 14.0215C24.9038 14.118 24.2663 16.4021 22.4109 17.3118C22.2794 17.3761 22.1504 17.4379 22.0215 17.4997C20.4464 18.2537 19.3103 18.7975 19.4567 21.6503C19.6278 24.995 17.5864 26.3422 16.366 27.1481L15.9815 27.4027C14.7016 28.2531 13.8558 28.8168 13.9029 30.829C13.9079 31.0169 13.7565 31.1751 13.568 31.18H13.5606L13.5556 31.1751Z" fill="#F3F4F6"/>
<path d="M13.0325 36.3291C12.8861 36.3291 12.7522 36.2377 12.7051 36.0918C12.648 35.9113 12.7472 35.7185 12.9283 35.6617C15.1533 34.9497 15.895 34.1438 16.1058 32.2107L16.138 31.9042C16.3117 30.2207 16.5076 29.3481 19.0898 27.8772C21.7042 26.3865 21.3073 24.4435 21.29 24.3619C21.2503 24.179 21.3644 23.9961 21.5479 23.954C21.729 23.912 21.915 24.0257 21.9572 24.2087C21.982 24.31 22.5079 26.7203 19.4296 28.4729C17.0409 29.835 16.9715 30.505 16.8202 31.9758L16.7879 32.2873C16.5448 34.5023 15.6246 35.5183 13.1367 36.3143C13.1019 36.3266 13.0672 36.3316 13.0325 36.3316V36.3291Z" fill="#F3F4F6"/>
<path d="M62.5227 35.3357C62.5004 35.3357 62.4781 35.3357 62.4557 35.3283C62.4185 35.3208 61.5528 35.1429 60.6227 34.4729C59.7644 33.8549 58.6879 32.6832 58.4225 30.6091C57.8942 26.461 55.5675 25.7293 55.4683 25.7021C55.2872 25.6477 55.183 25.4598 55.2351 25.2794C55.2872 25.0989 55.4757 24.9951 55.6568 25.0445C55.7734 25.0767 58.5143 25.8999 59.1046 30.5251C59.5486 34.0008 62.4681 34.6336 62.5922 34.6583C62.7782 34.6954 62.8973 34.8759 62.8601 35.0613C62.8278 35.2244 62.6839 35.3357 62.5227 35.3357Z" fill="#F3F4F6"/>
<path d="M34.8111 23.1114C34.6424 23.1114 34.4936 22.9853 34.4713 22.8147C34.4465 22.6268 34.5779 22.4563 34.7664 22.4315C36.2274 22.2387 38.2292 21.9742 38.7352 18.7037C39.1718 15.8856 40.0498 13.9994 41.3446 13.0946C42.317 12.4148 43.1678 12.573 43.2025 12.578C43.3885 12.615 43.5101 12.7955 43.4729 12.9809C43.4357 13.1663 43.2571 13.285 43.0735 13.2503C43.0413 13.2454 42.441 13.1515 41.7142 13.6706C40.9428 14.2219 39.9184 15.5617 39.4148 18.805C38.8294 22.5799 36.3415 22.9086 34.8557 23.1064C34.8409 23.1064 34.826 23.1089 34.8111 23.1089V23.1114Z" fill="#ACB5CC"/>
<path d="M58.6753 36.2503C58.648 36.2503 58.6207 36.2503 58.5959 36.2404C58.5662 36.233 55.6417 35.4939 55.5474 32.0033C55.473 29.2495 53.9847 28.629 53.9699 28.6241C53.7937 28.5548 53.7069 28.3546 53.7764 28.1791C53.8458 28.0036 54.0468 27.917 54.2229 27.9863C54.3022 28.0184 56.1502 28.7823 56.2345 31.9836C56.3139 34.9377 58.6579 35.5507 58.7572 35.5755C58.9407 35.62 59.0548 35.8054 59.0077 35.9883C58.9705 36.144 58.8291 36.2503 58.6753 36.2503Z" fill="#ACB5CC"/>
<path d="M28.3096 40.9471C28.1186 40.9471 27.9673 40.7938 27.9673 40.6059V28.0282C27.9673 27.8403 28.1211 27.687 28.3096 27.687C28.4981 27.687 28.6519 27.8403 28.6519 28.0282V40.6059C28.6519 40.7938 28.4981 40.9471 28.3096 40.9471Z" fill="#ACB5CC"/>
<path d="M43.3462 40.9473C43.1552 40.9473 43.0039 40.794 43.0039 40.6061V35.971C43.0039 35.7831 43.1577 35.6299 43.3462 35.6299C43.5347 35.6299 43.6885 35.7831 43.6885 35.971V40.6061C43.6885 40.794 43.5347 40.9473 43.3462 40.9473Z" fill="#ACB5CC"/>
<path d="M52.5487 88.5959C52.5487 88.5959 50.9959 79.9091 50.8123 77.0415C50.8123 77.0415 31.3654 78.196 17.5716 77.0415C17.5716 77.0415 17.1226 81.155 16.438 85.0386C16.438 85.0386 32.6255 93.1049 52.5487 88.5959Z" fill="white"/>
<path d="M52.3674 87.2064C52.2062 87.2064 52.0623 87.0927 52.0301 86.9296C51.9755 86.6552 50.7526 80.4182 50.4972 77.3998C47.8679 77.5432 30.512 78.4232 17.8715 77.4072C17.7202 78.5048 17.1845 82.1709 16.413 85.1225C16.3659 85.3054 16.1774 85.4142 15.9938 85.3672C15.8103 85.3202 15.7011 85.1324 15.7483 84.9494C16.6512 81.4935 17.2266 77.0389 17.2341 76.9944C17.2564 76.8115 17.4201 76.678 17.6037 76.6977C31.214 77.8374 50.6013 76.7076 50.7948 76.6977C50.9784 76.6854 51.147 76.8288 51.157 77.0166C51.3356 79.8298 52.6899 86.7268 52.7048 86.7961C52.742 86.9815 52.6204 87.1619 52.4344 87.199C52.4121 87.2039 52.3898 87.2064 52.3674 87.2064Z" fill="#ACB5CC"/>
<path d="M40.9104 88.9393C40.8831 88.9393 40.8559 88.9369 40.8286 88.9295C40.7864 88.9196 36.5795 87.8887 34.0966 87.3078C33.913 87.2658 33.7964 87.0804 33.8411 86.8974C33.8857 86.7145 34.0668 86.5983 34.2528 86.6428C36.5721 87.1842 40.392 88.1186 40.9303 88.2496C44.4922 87.7701 70.2469 83.7381 70.5074 83.6986C70.6959 83.6689 70.8695 83.7975 70.8993 83.9829C70.9291 84.1708 70.8001 84.3438 70.614 84.3735C70.3511 84.4155 44.2665 88.4968 40.9551 88.9369C40.9402 88.9369 40.9253 88.9393 40.9104 88.9393Z" fill="#ACB5CC"/>
<path d="M17.8024 45.9281C19.3254 45.5969 21.1957 46.3335 22.1432 47.31C23.5149 48.724 26.0028 52.5285 25.9755 57.7198C25.9259 66.7205 24.2218 78.5196 19.7471 82.2648C12.8737 88.0172 7.79618 72.6782 11.0729 55.532C12.7323 46.8477 14.295 46.6895 17.8024 45.9281Z" fill="#F3F4F6"/>
<path d="M16.8696 83.8344C16.1279 83.8344 15.5003 83.5996 15.0092 83.3128C10.3286 80.5787 8.37146 67.8254 10.7354 55.4652C12.4022 46.7438 14.1088 46.373 17.507 45.6388L17.7278 45.5918C19.4567 45.216 21.4212 46.0714 22.3886 47.0701C22.7954 47.4879 26.3524 51.3418 26.3177 57.7197C26.268 66.7501 24.5739 78.6678 19.9652 82.5242C18.7994 83.5007 17.7526 83.8344 16.8671 83.8344H16.8696ZM17.8766 46.2617L17.6559 46.3087C14.3593 47.0231 12.9951 47.3173 11.4125 55.5937C8.86012 68.9502 11.3927 80.4032 15.3589 82.722C16.6488 83.476 18.0527 83.2337 19.5261 82.0001C23.671 78.5294 25.581 67.3038 25.633 57.7147C25.6603 52.7558 23.2964 48.9884 21.8975 47.5447C21.0467 46.6671 19.3103 45.9478 17.8766 46.2593V46.2617Z" fill="#ACB5CC"/>
<path d="M19.1417 40.4897C29.3662 39.622 26.8584 66.6242 26.8584 66.6242C26.8584 66.6242 19.5485 67.6526 8.89983 65.3857C8.89983 65.3857 8.1408 41.4241 19.1442 40.4897H19.1417Z" fill="#ACB5CC"/>
<path d="M22.3342 67.1929C19.1245 67.1929 14.4166 66.9111 8.82559 65.7195C8.66932 65.6874 8.5577 65.5514 8.55274 65.3932C8.55274 65.3487 8.46096 60.8199 9.30432 55.5149C10.4429 48.3509 12.6455 43.2511 15.8503 40.3514C15.9917 40.2253 16.2075 40.2352 16.3364 40.3761C16.463 40.517 16.453 40.7321 16.3141 40.8606C9.43578 47.0827 9.23239 62.8495 9.23983 65.1114C18.4225 67.0272 25.1223 66.4735 26.5337 66.3202C26.5981 65.2746 26.7991 61.4478 26.5411 57.1415C26.5287 56.9536 26.675 56.7905 26.8636 56.7806C27.0496 56.7658 27.2158 56.9116 27.2257 57.102C27.5308 62.187 27.2034 66.6095 27.1984 66.654C27.186 66.8146 27.0645 66.9457 26.9032 66.9679C26.8685 66.9729 25.1992 67.1978 22.3317 67.1978V67.1929H22.3342Z" fill="#ACB5CC"/>
<path d="M27.1163 85.0953C27.1163 85.0953 14.652 86.8258 13.2753 80.6234C12.2435 75.9784 15.9666 73.3333 23.3436 72.8117C30.718 72.2901 47.1189 71.373 48.9172 73.0737C50.7155 74.7745 53.3671 77.38 47.29 80.5566C41.823 83.4168 31.7647 84.418 27.1188 85.0928L27.1163 85.0953Z" fill="#F3F4F6"/>
<path d="M44.3183 79.3602C42.8846 76.3518 39.3103 72.4509 42.6415 72.1987C44.8789 72.0281 57.0357 72.6461 58.9308 73.944C62.3067 76.2578 63.5296 80.401 63.4948 80.8534C63.3262 82.9768 58.4545 76.2924 58.4545 76.2924C58.4545 76.2924 61.0565 80.3416 61.4038 81.4194C61.7511 82.4973 61.8801 84.4255 60.9871 84.0423C60.0941 83.6567 58.6406 80.0994 57.1523 78.6928C57.1523 78.6928 61.8379 85.8148 58.7944 85.3747C58.7944 85.3747 58.39 87.2461 56.9142 85.4909C55.4383 83.7358 53.6771 81.4639 53.4837 81.103C53.4837 81.103 51.0131 82.5294 47.0865 81.6419C45.7769 81.3453 44.8442 80.4702 44.3159 79.3652V79.3602H44.3183Z" fill="#F3F4F6"/>
<path d="M58.7995 85.7133C58.668 85.7133 58.544 85.6391 58.4869 85.513C58.4721 85.4809 57.0507 82.3859 54.9151 80.0795C54.7861 79.941 54.796 79.7235 54.9349 79.5949C55.0738 79.4664 55.2921 79.4763 55.4211 79.6147C57.6361 82.0052 59.055 85.1002 59.1145 85.2312C59.1939 85.4042 59.1145 85.607 58.9433 85.6836C58.8962 85.7034 58.8491 85.7133 58.802 85.7133H58.7995Z" fill="#ACB5CC"/>
<path d="M23.3411 73.1553C23.1625 73.1553 23.0112 73.0169 22.9988 72.8364C22.9864 72.6486 23.1278 72.4829 23.3163 72.4706C27.7588 72.1566 36.5744 71.7364 42.6491 71.855C42.8401 71.86 42.9889 72.0157 42.9864 72.2036C42.9815 72.3915 42.8376 72.5398 42.6367 72.5398C36.5843 72.4187 27.796 72.8414 23.3659 73.1529H23.3411V73.1553Z" fill="#ACB5CC"/>
<path d="M23.4183 85.775C19.6951 85.775 14.2232 84.7738 11.9387 79.3353C11.8668 79.1597 11.9486 78.9595 12.1222 78.8878C12.2984 78.8161 12.4993 78.8977 12.5712 79.0707C15.9521 87.1173 26.9306 84.7861 27.0398 84.7589L27.7368 84.6502C32.5638 83.8937 38.574 82.9519 45.7003 80.9001C45.8839 80.8482 46.0724 80.952 46.1245 81.1349C46.1766 81.3154 46.0724 81.5057 45.8889 81.5576C38.7203 83.6243 32.6878 84.5686 27.841 85.3275L27.1663 85.4338C27.1316 85.4412 25.5639 85.775 23.4158 85.775H23.4183Z" fill="#ACB5CC"/>
<path d="M58.0183 86.5808C57.5941 86.5808 57.1451 86.2916 56.6515 85.7057C55.4063 84.225 53.866 82.2671 53.3426 81.5107C52.2933 81.8543 48.3767 82.8901 44.0706 80.8828C43.8994 80.8037 43.825 80.5985 43.9044 80.4279C43.9838 80.2574 44.1896 80.1832 44.3608 80.2623C49.0142 82.4328 53.3153 80.7938 53.3575 80.779C53.5187 80.7147 53.7047 80.7839 53.7866 80.9372C53.9503 81.2437 55.6544 83.4562 57.1774 85.2657C57.7206 85.9134 58.0009 85.9085 58.0728 85.8887C58.2737 85.8392 58.4226 85.461 58.4598 85.2954C58.4995 85.1199 58.6657 85.0062 58.8443 85.0309C59.137 85.0729 59.323 85.0333 59.3999 84.9122C59.8861 84.1508 58.2093 80.9248 56.8624 78.8755C56.7656 78.7296 56.7954 78.5368 56.9293 78.4256C57.0633 78.3143 57.2592 78.3193 57.3857 78.4404C58.1596 79.1746 58.9137 80.4403 59.576 81.5577C60.1366 82.5044 60.7741 83.5748 61.1188 83.7232C61.1734 83.7479 61.1982 83.7454 61.1982 83.7454C61.3719 83.6144 61.3942 82.5143 61.0717 81.5206C60.7964 80.6727 58.8765 77.59 58.1596 76.4726C58.0604 76.3169 58.1026 76.1093 58.2564 76.0054C58.4102 75.9016 58.6185 75.9362 58.7277 76.087C60.3945 78.3761 62.5203 80.8086 63.1305 80.9199C63.1355 80.8976 63.1429 80.8655 63.1454 80.821C63.1504 80.3192 61.8928 76.3886 58.7302 74.2206C56.9988 73.034 45.0553 72.3542 42.6617 72.5347C42.4657 72.5495 42.307 72.4086 42.2921 72.2183C42.2772 72.0304 42.4186 71.8647 42.6096 71.8499C44.78 71.6843 57.1079 72.2751 59.1196 73.6545C62.6245 76.0573 63.8722 80.3538 63.83 80.8729C63.7903 81.3846 63.5125 81.5354 63.3538 81.5824C62.875 81.7159 62.0813 81.1127 61.2181 80.2227C61.4612 80.6751 61.6472 81.0608 61.7266 81.308C61.9622 82.0348 62.2499 83.7083 61.6497 84.2522C61.5256 84.3634 61.2578 84.5241 60.846 84.3486C60.5682 84.2299 60.2929 83.9358 59.9704 83.4809C60.1837 84.225 60.2333 84.8751 59.9753 85.2756C59.8364 85.4907 59.5661 85.7255 59.0402 85.7255H59.0353C58.9212 86.0172 58.6805 86.4375 58.2341 86.5462C58.1596 86.5635 58.0852 86.5734 58.0108 86.5734L58.0183 86.5808Z" fill="#ACB5CC"/>
<path d="M69.2026 63.2524C69.2026 63.2524 92.9705 63.3537 95.8255 63.2524C95.8255 63.2524 98.2737 63.0497 97.1526 65.7936C96.0314 68.5376 86.8512 88.6675 86.8512 88.6675C86.8512 88.6675 86.3303 90.3955 83.3264 90.6995C80.3226 91.0036 53.6997 90.6995 53.6997 90.6995L65.023 66.1991C65.023 66.1991 65.9408 63.2376 69.2051 63.2499H69.2026V63.2524Z" fill="#ACB5CC"/>
<path d="M76.7063 79.1452C76.1283 79.1452 75.6099 78.9079 75.2453 78.4753C74.774 77.9166 74.6003 77.0959 74.7715 76.2208C75.0815 74.6337 76.3813 73.368 77.7332 73.3408C78.3235 73.3384 78.8643 73.5658 79.2388 74.0108C79.7101 74.5695 79.8837 75.3902 79.7126 76.2653C79.4025 77.8523 78.1028 79.118 76.7509 79.1452H76.7063ZM77.7778 74.0256H77.7481C76.7236 74.0479 75.6917 75.091 75.4462 76.3518C75.3147 77.0217 75.4338 77.6348 75.7711 78.0328C76.0142 78.3196 76.3565 78.4753 76.7385 78.458C77.7629 78.4357 78.7948 77.3925 79.0404 76.1318C79.1694 75.4619 79.0528 74.8488 78.7154 74.4508C78.4798 74.1715 78.1573 74.0256 77.7803 74.0256H77.7778Z" fill="#ACB5CC"/>
<path d="M44.1449 85.7529H59.3452V90.6946H38.7598C37.5146 90.6946 37.4302 88.6798 38.2761 87.916C38.2761 87.916 40.3845 85.7554 44.1449 85.7554V85.7529Z" fill="#ACB5CC"/>
<path d="M26.8116 54.7532C26.633 54.7532 26.4817 54.6148 26.4693 54.4343C26.4644 54.3404 25.7599 45.085 18.192 41.8862C18.0184 41.812 17.9365 41.6118 18.0109 41.4363C18.0853 41.2607 18.2862 41.1816 18.4624 41.2558C26.4247 44.6227 27.1514 54.2934 27.1564 54.3898C27.1688 54.5777 27.0249 54.7408 26.8364 54.7532H26.8116Z" fill="#ACB5CC"/>
</g>
<defs>
<clipPath id="clip0_338_926">
<rect width="127" height="220" fill="white"/>
</clipPath>
</defs>
</svg>
