<svg width="60" height="60" viewBox="0 0 60 60" fill="none" xmlns="http://www.w3.org/2000/svg">
<path fill-rule="evenodd" clip-rule="evenodd" d="M55.2024 25.2024C57.8503 25.2024 60 27.3521 60 30C60 32.6479 57.8503 34.7976 55.2024 34.7976C52.5545 34.7976 50.4049 32.6479 50.4049 30C50.4049 27.3521 52.5545 25.2024 55.2024 25.2024ZM55.2024 26.9028C53.493 26.9028 52.1053 28.2906 52.1053 30C52.1053 31.7094 53.493 33.0972 55.2024 33.0972C56.9118 33.0972 58.2996 31.7094 58.2996 30C58.2996 28.2906 56.9118 26.9028 55.2024 26.9028ZM30 50.4049C32.6479 50.4049 34.7976 52.5545 34.7976 55.2024C34.7976 57.8503 32.6479 60 30 60C27.3521 60 25.2024 57.8503 25.2024 55.2024C25.2024 52.5545 27.3521 50.4049 30 50.4049ZM30 52.1053C28.2906 52.1053 26.9028 53.493 26.9028 55.2024C26.9028 56.9118 28.2906 58.2996 30 58.2996C31.7094 58.2996 33.0972 56.9118 33.0972 55.2024C33.0972 53.493 31.7094 52.1053 30 52.1053ZM6.08976 23.2564C5.96247 23.7081 5.49243 23.9715 5.04073 23.8442C4.58915 23.7169 4.32583 23.2468 4.45312 22.7951C6.95065 13.9338 13.9393 6.94676 22.8015 4.4513C23.2532 4.32413 23.7231 4.58757 23.8504 5.03927C23.9775 5.49085 23.7141 5.96089 23.2624 6.08806C14.9681 8.42356 8.42733 14.963 6.08976 23.2564ZM36.7376 6.08806C36.2859 5.96089 36.0225 5.49085 36.1496 5.03927C36.2769 4.58757 36.7468 4.32413 37.1985 4.4513C46.0629 6.94737 53.0526 13.9371 55.5487 22.8015C55.6759 23.2532 55.4124 23.7231 54.9607 23.8504C54.5092 23.9775 54.0391 23.7141 53.9119 23.2624C51.5758 14.9661 45.0339 8.42417 36.7376 6.08806ZM53.9119 36.7376C54.0391 36.2859 54.5092 36.0225 54.9607 36.1496C55.4124 36.2769 55.6759 36.7468 55.5487 37.1985C53.0526 46.0629 46.0629 53.0526 37.1985 55.5487C36.7468 55.6759 36.2769 55.4124 36.1496 54.9607C36.0225 54.5092 36.2859 54.0391 36.7376 53.9119C45.0339 51.5758 51.5758 45.0339 53.9119 36.7376ZM23.2624 53.9119C23.7141 54.0391 23.9775 54.5092 23.8504 54.9607C23.7231 55.4124 23.2532 55.6759 22.8015 55.5487C13.9393 53.0532 6.95065 46.0662 4.45312 37.2049C4.32583 36.7532 4.58915 36.2831 5.04073 36.1558C5.49243 36.0285 5.96247 36.2919 6.08976 36.7436C8.42733 45.037 14.9681 51.5764 23.2624 53.9119ZM30 17.1255C37.1056 17.1255 42.8745 22.8944 42.8745 30C42.8745 37.1056 37.1056 42.8745 30 42.8745C22.8944 42.8745 17.1255 37.1056 17.1255 30C17.1255 22.8944 22.8944 17.1255 30 17.1255ZM30 18.8259C23.8329 18.8259 18.8259 23.8329 18.8259 30C18.8259 36.1671 23.8329 41.1741 30 41.1741C36.1671 41.1741 41.1741 36.1671 41.1741 30C41.1741 23.8329 36.1671 18.8259 30 18.8259ZM30.1142 28.4378C34.0526 28.4985 37.2262 31.7109 37.2262 35.6637C37.2262 36.6562 36.5909 37.5135 35.4407 38.1089C34.1208 38.7923 32.0623 39.1549 30 39.1549C27.9377 39.1549 25.8792 38.7923 24.5593 38.1089C23.4091 37.5135 22.7738 36.6562 22.7738 35.6637C22.7738 31.7109 25.9484 28.4985 29.8868 28.4378C27.8416 28.3777 26.2029 26.7017 26.2029 24.6418C26.2029 22.5452 27.9025 20.8451 30.0005 20.8451C32.0972 20.8451 33.7971 22.5451 33.7971 24.6418C33.7971 26.7017 32.1583 28.3777 30.1142 28.4378ZM35.5258 35.6637C35.5258 32.6119 33.0522 30.1374 30.0005 30.1374C26.9487 30.1374 24.4742 32.6119 24.4742 35.6637C24.4742 36.0817 24.8566 36.3481 25.3411 36.5989C26.4696 37.1832 28.2367 37.4545 30 37.4545C31.7633 37.4545 33.5304 37.1832 34.6589 36.5989C35.1434 36.3481 35.5258 36.0817 35.5258 35.6637ZM27.9033 24.6418C27.9033 25.8004 28.8419 26.7391 30.0005 26.7391C31.1582 26.7391 32.0967 25.8004 32.0967 24.6418C32.0967 23.4842 31.1582 22.5455 30.0005 22.5455C28.842 22.5455 27.9033 23.484 27.9033 24.6418ZM4.79757 25.2024C7.44547 25.2024 9.59514 27.3521 9.59514 30C9.59514 32.6479 7.44547 34.7976 4.79757 34.7976C2.14968 34.7976 0 32.6479 0 30C0 27.3521 2.14968 25.2024 4.79757 25.2024ZM4.79757 26.9028C3.08818 26.9028 1.7004 28.2906 1.7004 30C1.7004 31.7094 3.08818 33.0972 4.79757 33.0972C6.50696 33.0972 7.89474 31.7094 7.89474 30C7.89474 28.2906 6.50696 26.9028 4.79757 26.9028ZM30 0C32.6479 0 34.7976 2.14968 34.7976 4.79757C34.7976 7.44547 32.6479 9.59514 30 9.59514C27.3521 9.59514 25.2024 7.44547 25.2024 4.79757C25.2024 2.14968 27.3521 0 30 0ZM30 1.7004C28.2906 1.7004 26.9028 3.08818 26.9028 4.79757C26.9028 6.50696 28.2906 7.89474 30 7.89474C31.7094 7.89474 33.0972 6.50696 33.0972 4.79757C33.0972 3.08818 31.7094 1.7004 30 1.7004Z" fill="#1878FC"/>
</svg>
