<svg width="60" height="60" viewBox="0 0 60 60" fill="none" xmlns="http://www.w3.org/2000/svg">
<g clip-path="url(#clip0_1183_5467)">
<path d="M22.8527 31.0345C22.3673 31.0345 21.9738 31.428 21.9738 31.9134V34.07H15.7629V27.8591H18.6914C19.1768 27.8591 19.5703 27.4656 19.5703 26.9802C19.5703 26.4948 19.1768 26.1013 18.6914 26.1013H15.7043C14.7674 26.1013 14.0051 26.8636 14.0051 27.8005V34.1286C14.0051 35.0655 14.7674 35.8279 15.7043 35.8279H22.0324C22.9693 35.8279 23.7316 35.0655 23.7316 34.1286V31.9134C23.7316 31.428 23.3381 31.0345 22.8527 31.0345ZM19.2785 4.39453C19.2785 3.90914 18.885 3.51562 18.3996 3.51562C17.9142 3.51562 17.5207 3.90914 17.5207 4.39453C17.5207 4.87992 17.9142 5.27344 18.3996 5.27344C18.885 5.27344 19.2785 4.87992 19.2785 4.39453ZM14.884 3.51562C14.3986 3.51562 14.0051 3.90914 14.0051 4.39453C14.0051 4.87992 14.3986 5.27344 14.884 5.27344C15.3694 5.27344 15.7629 4.87992 15.7629 4.39453C15.7629 3.90914 15.3694 3.51562 14.884 3.51562ZM18.2885 29.3003C17.9453 28.957 17.3888 28.957 17.0456 29.3003C16.7024 29.6435 16.7024 30.2 17.0456 30.5432L18.3323 31.8299C18.5722 32.0696 18.8872 32.1895 19.2023 32.1895C19.5175 32.1895 19.8326 32.0695 20.0723 31.8298L23.2695 28.6327C23.6127 28.2894 23.6127 27.7329 23.2695 27.3898C22.9262 27.0465 22.3697 27.0465 22.0266 27.3898L19.2023 30.214L18.2885 29.3003ZM59.1211 32.5828C59.6066 32.5828 60 32.1893 60 31.7039V9.43828C60 7.01508 58.0287 5.04375 55.6055 5.04375H49.5105V2.28516C49.5105 1.02516 48.4854 0 47.2254 0H12.7746C11.5146 0 10.4895 1.02516 10.4895 2.28516V5.04375H4.39453C1.97133 5.04375 0 7.01508 0 9.43828V42.5344C0 44.9576 1.97133 46.9289 4.39453 46.9289H24.9472L24.2779 51.9041H23.2985C22.4854 51.9041 21.7656 52.4514 21.5482 53.235L20.3104 57.6981C20.1573 58.2497 20.2684 58.8274 20.6148 59.2829C20.9613 59.7386 21.4883 59.9999 22.0607 59.9999H37.9392C38.5117 59.9999 39.0388 59.7386 39.3852 59.2829C39.7316 58.8273 39.8426 58.2496 39.6896 57.6981L38.4518 53.2351C38.2345 52.4514 37.5149 51.904 36.7014 51.904H35.722L35.0527 46.9288H55.6055C58.0287 46.9288 60 44.9575 60 42.5343V35.8054C60 35.32 59.6066 34.9264 59.1211 34.9264C58.6356 34.9264 58.2422 35.32 58.2422 35.8054V42.5343C58.2422 43.9882 57.0593 45.171 55.6055 45.171H4.39453C2.94059 45.171 1.75781 43.9882 1.75781 42.5343V9.43828C1.75781 7.98434 2.94059 6.80156 4.39453 6.80156H10.4895V8.55937H4.86328C4.1202 8.55937 3.51562 9.16395 3.51562 9.90703V40.3078C3.51562 41.0509 4.1202 41.6555 4.86328 41.6555H55.1367C55.8798 41.6555 56.4844 41.0509 56.4844 40.3078V9.90703C56.4844 9.16395 55.8798 8.55937 55.1367 8.55937H49.5105V6.80156H55.6055C57.0593 6.80156 58.2422 7.98434 58.2422 9.43828V31.7039C58.2422 32.1893 58.6356 32.5828 59.1211 32.5828ZM36.7015 53.6619C36.7277 53.6619 36.7509 53.6795 36.7579 53.7047V53.7048L37.9957 58.168C38.0068 58.1964 37.9697 58.2455 37.9392 58.2422H22.0607C22.0304 58.2455 21.9928 58.1966 22.0042 58.1679L23.242 53.7048C23.2491 53.6795 23.2723 53.6618 23.2985 53.6618H36.7015V53.6619ZM26.721 46.9289H33.2791L33.9485 51.9041H26.0515L26.721 46.9289ZM10.4895 39.8977H5.27344V10.3172H10.4895V39.8977ZM47.7527 7.03125H22.0274C21.542 7.03125 21.1485 7.42477 21.1485 7.91016C21.1485 8.39555 21.542 8.78906 22.0274 8.78906H47.7527V39.8977H12.2473V8.78906H17.9258C18.4112 8.78906 18.8047 8.39555 18.8047 7.91016C18.8047 7.42477 18.4112 7.03125 17.9258 7.03125H12.2473V2.28516C12.2473 1.99441 12.4839 1.75781 12.7746 1.75781H47.2254C47.5161 1.75781 47.7527 1.99441 47.7527 2.28516V7.03125ZM54.7266 10.3172V39.8977H49.5105V10.3172H54.7266ZM18.2885 16.0581C17.9453 15.7148 17.3888 15.7148 17.0456 16.0581C16.7024 16.4013 16.7024 16.9579 17.0456 17.301L18.3323 18.5877C18.5722 18.8275 18.8872 18.9473 19.2023 18.9473C19.5175 18.9473 19.8326 18.8273 20.0723 18.5876L23.2695 15.3905C23.6127 15.0472 23.6127 14.4907 23.2695 14.1476C22.9262 13.8043 22.3697 13.8043 22.0266 14.1476L19.2023 16.9718L18.2885 16.0581ZM21.9152 3.51562C21.4298 3.51562 21.0363 3.90914 21.0363 4.39453C21.0363 4.87992 21.4298 5.27344 21.9152 5.27344C22.4006 5.27344 22.7941 4.87992 22.7941 4.39453C22.7941 3.90914 22.4006 3.51562 21.9152 3.51562ZM22.8527 17.7923C22.3673 17.7923 21.9738 18.1859 21.9738 18.6712V20.8279H15.7629V14.6169H18.6914C19.1768 14.6169 19.5703 14.2234 19.5703 13.738C19.5703 13.2526 19.1768 12.8591 18.6914 12.8591H15.7043C14.7674 12.8591 14.0051 13.6214 14.0051 14.5583V20.8864C14.0051 21.8234 14.7674 22.5857 15.7043 22.5857H22.0324C22.9693 22.5857 23.7316 21.8234 23.7316 20.8864V18.6712C23.7316 18.1859 23.3381 17.7923 22.8527 17.7923ZM26.3684 27.8591H45.116C45.6015 27.8591 45.9949 27.4656 45.9949 26.9802C45.9949 26.4948 45.6015 26.1013 45.116 26.1013H26.3684C25.883 26.1013 25.4895 26.4948 25.4895 26.9802C25.4895 27.4656 25.883 27.8591 26.3684 27.8591ZM26.3684 18.1325H45.116C45.6015 18.1325 45.9949 17.739 45.9949 17.2536C45.9949 16.7682 45.6015 16.3747 45.116 16.3747H26.3684C25.883 16.3747 25.4895 16.7682 25.4895 17.2536C25.4895 17.739 25.883 18.1325 26.3684 18.1325ZM26.3684 14.6169H45.116C45.6015 14.6169 45.9949 14.2234 45.9949 13.738C45.9949 13.2526 45.6015 12.8591 45.116 12.8591H26.3684C25.883 12.8591 25.4895 13.2526 25.4895 13.738C25.4895 14.2234 25.883 14.6169 26.3684 14.6169ZM26.3684 31.3747H45.116C45.6015 31.3747 45.9949 30.9812 45.9949 30.4958C45.9949 30.0104 45.6015 29.6169 45.116 29.6169H26.3684C25.883 29.6169 25.4895 30.0104 25.4895 30.4958C25.4895 30.9812 25.883 31.3747 26.3684 31.3747Z" fill="#1878FC"/>
</g>
<defs>
<clipPath id="clip0_1183_5467">
<rect width="60" height="60" fill="white"/>
</clipPath>
</defs>
</svg>
