<svg width="64" height="60" viewBox="0 0 64 60" fill="none" xmlns="http://www.w3.org/2000/svg">
<path d="M63.3975 32.7836C63.1792 32.3753 62.7538 32.1204 62.2909 32.1206H60.9786V30.0535C60.9741 25.023 57.9663 20.4812 53.3366 18.5139C57.2839 15.8135 58.295 10.4245 55.5948 6.47698C52.8945 2.52959 47.5055 1.51854 43.5579 4.21873C39.6105 6.91908 38.5995 12.3081 41.2997 16.2556C41.9059 17.1418 42.6717 17.9075 43.5579 18.5139C38.9281 20.4813 35.9204 25.023 35.9159 30.0535V32.1184H33.6818C32.9891 32.1184 32.4276 32.68 32.4276 33.3727C32.4276 34.0654 32.9891 34.627 33.6818 34.627H59.9443L44.6638 57.4914H36.1345V54.4201C36.1271 47.7473 31.9736 41.7816 25.718 39.4593C30.9085 36.4043 32.6399 29.7199 29.5848 24.5294C26.5298 19.3388 19.8454 17.6075 14.6549 20.6625C9.4643 23.7175 7.73298 30.4019 10.788 35.5925C11.7276 37.1889 13.0584 38.5197 14.6549 39.4593C8.39814 41.781 4.2434 47.7466 4.2354 54.4201V57.4914H1.25427C0.561559 57.4914 0 58.053 0 58.7457C0 59.4384 0.561559 60 1.25427 60H45.3347C45.7535 59.9998 46.1448 59.7906 46.3776 59.4424L63.3338 34.0694C63.5901 33.6852 63.6146 33.1912 63.3975 32.7836ZM42.2963 11.3985C42.2809 8.00125 45.0223 5.23487 48.4194 5.21947C51.8166 5.20408 54.583 7.94553 54.5984 11.3426C54.6138 14.7397 51.8723 17.5062 48.4753 17.5216C48.466 17.5216 48.4566 17.5216 48.4474 17.5216C45.0596 17.5257 42.3078 14.7864 42.2963 11.3985ZM58.4699 32.1184H38.4245V30.0535C38.3775 24.5181 42.8269 19.9927 48.3623 19.9458C53.8977 19.8988 58.4231 24.3482 58.47 29.8836C58.4705 29.9402 58.4705 29.9969 58.47 30.0535L58.4699 32.1184ZM11.7898 30.1116C11.7681 25.4742 15.5097 21.6973 20.147 21.6754C24.7843 21.6535 28.5613 25.3953 28.5832 30.0326C28.6049 34.6699 24.8633 38.4469 20.226 38.4688C20.2117 38.4688 20.1973 38.4689 20.183 38.4689C15.56 38.4728 11.8057 34.7346 11.7898 30.1116ZM33.6286 57.4914H6.74394V54.4201C6.68991 46.996 12.6643 40.9339 20.0884 40.8797C27.5124 40.8255 33.5746 46.8001 33.6287 54.2241C33.6292 54.2894 33.6292 54.3548 33.6287 54.4201V57.4914H33.6286Z" fill="#1878FC"/>
<path d="M27.3149 11.7318L32.153 14.2254C32.7698 14.5417 33.5261 14.298 33.8424 13.6814C33.9331 13.5047 33.9805 13.3089 33.9806 13.1101V5.01724C33.9806 2.24624 31.7344 0 28.9634 0H18.0329C15.2619 0 13.0156 2.24624 13.0156 5.01724V6.7167C13.0176 9.48678 15.2628 11.7319 18.0329 11.7339L27.3149 11.7318ZM15.5243 6.7167V5.01724C15.5243 3.63181 16.6474 2.50854 18.033 2.50854H28.9657C30.3511 2.50854 31.4744 3.63166 31.4744 5.01724V11.0523L28.1967 9.36224C28.0192 9.27127 27.8227 9.22355 27.6232 9.22324H18.033C16.6484 9.22324 15.5256 8.10135 15.5243 6.7167Z" fill="#1878FC"/>
</svg>
