<svg width="72" height="60" viewBox="0 0 72 60" fill="none" xmlns="http://www.w3.org/2000/svg">
<path d="M53.4592 13.2625C53.4901 13.9466 52.9648 14.5219 52.285 14.553C51.6052 14.5841 51.0335 14.0555 51.0026 13.3713C50.7863 8.4426 56.1167 5.2086 60.3502 7.75849C62.297 8.92459 63.4403 11.0547 63.3631 13.3247C63.3631 19.2796 57.3064 18.3778 57.3064 21.503C57.3064 22.1871 56.7502 22.7468 56.0704 22.7468C55.3906 22.7468 54.8343 22.1871 54.8343 21.503C54.8343 16.2788 60.891 17.5693 60.891 13.3247C60.9837 9.08007 55.6841 7.99171 53.8918 11.3345C53.5983 11.9098 53.4283 12.5784 53.4592 13.2625ZM54.7725 25.7321C54.7725 25.0479 55.3288 24.4882 56.0086 24.4882C56.6884 24.4882 57.2446 25.0479 57.2446 25.7321V26.3384C57.2446 27.0225 56.6884 27.5823 56.0086 27.5823C55.3288 27.5823 54.7725 27.0225 54.7725 26.3384V25.7321ZM57.1828 2.30111C65.3717 2.30111 72 8.98678 72 17.2273C72 26.9604 62.8841 34.0658 53.5365 31.687C52.5322 31.4382 51.5588 31.065 50.6472 30.6141L46.6146 32.2311C45.9811 32.4799 45.2704 32.169 45.0232 31.5315C44.8996 31.2361 44.915 30.9096 45.0077 30.6297L46.2592 27.3024C40.8979 21.4252 41.0524 12.3296 46.6764 6.65457C49.3803 3.9803 53.0884 2.30111 57.1828 2.30111ZM65.9125 8.4426C61.0919 3.5916 53.2738 3.5916 48.4532 8.4426C44.9305 11.9876 43.8335 17.3983 45.7957 22.0627C46.4446 23.5864 47.3717 24.9702 48.5459 26.1208C48.9167 26.4628 49.0558 26.9914 48.8704 27.4734L48.3296 28.9039L50.2146 28.1576C50.5545 28.0021 50.9717 28.0021 51.327 28.1886C56.1322 30.8007 62.0652 29.9145 65.9279 26.0275C70.7485 21.1609 70.7485 13.2936 65.9125 8.4426ZM33.9605 26.4784C30.0361 26.4784 26.8532 29.6813 26.8532 33.6305C26.8532 37.5797 30.0361 40.7826 33.9605 40.7826C37.885 40.7826 41.0678 37.5797 41.0678 33.6305C41.0678 29.6813 37.885 26.4784 33.9605 26.4784ZM27.1931 26.8204C30.9322 23.0578 36.9888 23.0578 40.7279 26.8204C44.3588 30.4742 44.4824 36.3514 41.006 40.1451C47.279 41.2801 51.976 46.8152 51.976 53.3454V58.7562C51.976 59.4403 51.4197 60 50.7399 60H17.1657C16.4858 60 15.9296 59.4403 15.9296 58.7562V53.3454C15.9296 46.8152 20.6421 41.2801 26.915 40.1451C23.4386 36.3514 23.5622 30.4742 27.1931 26.8204ZM37.885 42.4307C36.6953 42.9749 35.3665 43.2703 33.9605 43.2703C32.57 43.2703 31.2412 42.9593 30.0361 42.4307H29.2481C23.2841 42.4307 18.3863 47.3439 18.3863 53.3454V57.5123H49.5039V53.3454C49.5039 47.3439 44.6215 42.4307 38.6575 42.4307H37.885ZM11.6961 18.9997V1.25939C11.6961 0.575278 12.2524 0.0155478 12.9322 0.0155478H17.382C18.2318 0.0155478 18.9116 0.886239 18.479 1.81912C18.2472 2.33221 18.1391 3.06297 18.1391 3.63825C18.1391 7.18321 21.5382 9.04897 23.5931 6.59238C24.4584 5.56621 24.7828 4.07359 24.5202 2.65872C24.4584 2.33221 24.3657 2.02125 24.2421 1.74138C23.9794 1.10391 24.273 0.388701 24.891 0.108836C25.0455 0.0466437 25.2155 0 25.37 0H30.5459C31.2258 0 31.782 0.55973 31.782 1.24385V4.4001C35.382 4.05804 38.9665 6.51464 38.9665 10.1218C38.9665 13.7134 35.382 16.17 31.782 15.8279V18.9997C31.782 19.6839 31.2258 20.2436 30.5459 20.2436H12.9322C12.2524 20.2436 11.6961 19.6839 11.6961 18.9997ZM14.1682 2.50324V17.7559H29.3253V14.3353C29.3253 13.4957 30.1288 12.8893 30.9322 13.1537C33.4661 13.9933 36.4944 12.5317 36.4944 10.1373C36.4944 7.92951 33.9451 6.57683 31.6738 6.93444C31.2258 7.01218 30.8549 7.18321 30.5459 7.18321C29.8661 7.18321 29.3099 6.62348 29.3099 5.93936V2.51879H26.9768C27.5794 6.32806 25.0764 10.2151 21.3528 10.2151C17.6292 10.2151 15.1416 6.32806 15.7288 2.51879H14.1682V2.50324ZM1.23605 22.0938H18.8652C19.5451 22.0938 20.1013 22.6535 20.1013 23.3376V27.8155C20.1013 28.6706 19.2515 29.3548 18.309 28.9194C17.83 28.7017 17.0575 28.5774 16.5013 28.5774C12.9785 28.5774 11.1245 31.9979 13.5657 34.0658C14.8326 35.1542 16.8103 35.3874 18.3863 34.7188C19.0197 34.4545 19.7305 34.7499 20.0086 35.3719C20.0704 35.5273 20.1167 35.6984 20.1167 35.8538V41.078C20.1167 41.7621 19.5605 42.3218 18.8807 42.3218H15.7442C16.0841 45.9445 13.6429 49.5361 10.0738 49.5361C6.48927 49.5361 4.04807 45.929 4.38798 42.3218H1.23605C0.556223 42.3218 0 41.7621 0 41.078V23.3376C0.0154506 22.6535 0.556223 22.0938 1.23605 22.0938ZM17.6446 24.5815H2.4721V39.8342H5.87124C6.70558 39.8342 7.30815 40.6426 7.04549 41.4511C6.21116 44.001 7.66352 47.0485 10.0429 47.0485C12.2369 47.0485 13.5811 44.483 13.2258 42.1975C13.1485 41.7466 12.9785 41.3734 12.9785 41.0624C12.9785 40.3783 13.5348 39.8186 14.2146 39.8186H17.6137V37.4864C13.8283 38.0772 9.96567 35.574 9.96567 31.8269C9.96567 28.0798 13.8283 25.5766 17.6137 26.1674V24.5815H17.6446Z" fill="#1878FC"/>
</svg>
