<svg width="22" height="22" viewBox="0 0 22 22" fill="none" xmlns="http://www.w3.org/2000/svg">
<path d="M15.5467 5.65582C17.38 6.92999 18.645 8.95582 18.9017 11.2933" stroke="#1A1D1F" stroke-width="1.5" stroke-linecap="round" stroke-linejoin="round"/>
<path d="M3.19917 11.3392C3.43751 9.01083 4.68417 6.98499 6.49917 5.70166" stroke="#1A1D1F" stroke-width="1.5" stroke-linecap="round" stroke-linejoin="round"/>
<path d="M7.50751 19.195C8.57084 19.7358 9.78084 20.0383 11.055 20.0383C12.2833 20.0383 13.4383 19.7633 14.4742 19.2592" stroke="#1A1D1F" stroke-width="1.5" stroke-linecap="round" stroke-linejoin="round"/>
<path d="M11.055 7.05834C12.4624 7.05834 13.6033 5.91741 13.6033 4.51C13.6033 3.1026 12.4624 1.96167 11.055 1.96167C9.6476 1.96167 8.50667 3.1026 8.50667 4.51C8.50667 5.91741 9.6476 7.05834 11.055 7.05834Z" stroke="#1A1D1F" stroke-width="1.5" stroke-linecap="round" stroke-linejoin="round"/>
<path d="M4.4275 18.26C5.8349 18.26 6.97583 17.1191 6.97583 15.7117C6.97583 14.3043 5.8349 13.1633 4.4275 13.1633C3.02009 13.1633 1.87917 14.3043 1.87917 15.7117C1.87917 17.1191 3.02009 18.26 4.4275 18.26Z" stroke="#1A1D1F" stroke-width="1.5" stroke-linecap="round" stroke-linejoin="round"/>
<path d="M17.5725 18.26C18.9799 18.26 20.1208 17.1191 20.1208 15.7117C20.1208 14.3043 18.9799 13.1633 17.5725 13.1633C16.1651 13.1633 15.0242 14.3043 15.0242 15.7117C15.0242 17.1191 16.1651 18.26 17.5725 18.26Z" stroke="#1A1D1F" stroke-width="1.5" stroke-linecap="round" stroke-linejoin="round"/>
</svg>
