<svg width="23" height="23" viewBox="0 0 23 23" fill="none" xmlns="http://www.w3.org/2000/svg">
<path d="M11.6437 15.8125V17.825" stroke="#005EB6" stroke-width="1.5" stroke-linecap="round" stroke-linejoin="round"/>
<path d="M6.85211 21.0833H16.4354V20.125C16.4354 19.0708 15.5729 18.2083 14.5188 18.2083H8.76878C7.71461 18.2083 6.85211 19.0708 6.85211 20.125V21.0833V21.0833Z" stroke="#005EB6" stroke-width="1.5" stroke-miterlimit="10"/>
<path d="M5.89374 21.0833H17.3937" stroke="#005EB6" stroke-width="1.5" stroke-linecap="round" stroke-linejoin="round"/>
<path d="M11.5 15.3333C7.79127 15.3333 4.79169 12.3338 4.79169 8.62501V5.75001C4.79169 3.63209 6.5071 1.91667 8.62502 1.91667H14.375C16.4929 1.91667 18.2084 3.63209 18.2084 5.75001V8.62501C18.2084 12.3338 15.2088 15.3333 11.5 15.3333Z" stroke="#005EB6" stroke-width="1.5" stroke-linecap="round" stroke-linejoin="round"/>
<path d="M5.2421 11.1646C4.52335 10.9346 3.89085 10.5129 3.39252 10.0146C2.53002 9.05625 1.95502 7.90625 1.95502 6.56458C1.95502 5.22291 3.00918 4.16875 4.35085 4.16875H4.97377C4.7821 4.60958 4.68627 5.09833 4.68627 5.60625V8.48125C4.68627 9.43958 4.88752 10.3404 5.2421 11.1646Z" stroke="#005EB6" stroke-width="1.5" stroke-linecap="round" stroke-linejoin="round"/>
<path d="M17.7579 11.1646C18.4767 10.9346 19.1092 10.5129 19.6075 10.0146C20.47 9.05625 21.045 7.90625 21.045 6.56458C21.045 5.22291 19.9908 4.16875 18.6492 4.16875H18.0263C18.2179 4.60958 18.3138 5.09833 18.3138 5.60625V8.48125C18.3138 9.43958 18.1125 10.3404 17.7579 11.1646Z" stroke="#005EB6" stroke-width="1.5" stroke-linecap="round" stroke-linejoin="round"/>
</svg>
