<svg width="24" height="24" viewBox="0 0 24 24" fill="none" xmlns="http://www.w3.org/2000/svg">
<g clip-path="url(#clip0_406_36)">
<path d="M22.4042 12.3108C22.3076 12.1133 22.3076 11.8867 22.4042 11.6891L23.2993 9.85799C23.7977 8.83841 23.4028 7.62319 22.4003 7.0913L20.5999 6.13599C20.4056 6.03296 20.2724 5.84959 20.2344 5.63307L19.8823 3.62548C19.6862 2.5077 18.6523 1.75658 17.5288 1.91553L15.5107 2.201C15.2929 2.23175 15.0775 2.16172 14.9195 2.00886L13.4546 0.591743C12.6389 -0.197346 11.3611 -0.197393 10.5455 0.591743L9.08059 2.009C8.92253 2.16191 8.70714 2.2318 8.48936 2.20114L6.47126 1.91567C5.34744 1.75663 4.31385 2.50784 4.11778 3.62562L3.76565 5.63312C3.72764 5.84968 3.59447 6.03301 3.40027 6.13609L1.59981 7.09139C0.597345 7.62323 0.202473 8.83855 0.700845 9.85813L1.59592 11.6892C1.69248 11.8868 1.69248 12.1134 1.59592 12.3109L0.700798 14.1421C0.202426 15.1616 0.597298 16.3769 1.59976 16.9087L3.40022 17.864C3.59447 17.9671 3.72764 18.1505 3.76565 18.367L4.11778 20.3746C4.29628 21.3921 5.1688 22.1057 6.17159 22.1056C6.27036 22.1056 6.37058 22.0987 6.47131 22.0845L8.48941 21.799C8.70705 21.7681 8.92258 21.8383 9.08064 21.9911L10.5455 23.4083C10.9534 23.8028 11.4766 24.0001 12 24C12.5233 24 13.0469 23.8027 13.4546 23.4083L14.9195 21.9911C15.0776 21.8383 15.293 21.7684 15.5107 21.799L17.5288 22.0845C18.6528 22.2435 19.6862 21.4923 19.8823 20.3745L20.2345 18.367C20.2725 18.1505 20.4057 17.9671 20.5999 17.864L22.4003 16.9087C23.4028 16.3769 23.7977 15.1616 23.2993 14.142L22.4042 12.3108ZM21.7515 15.6859L19.9511 16.6412C19.377 16.9459 18.9833 17.4876 18.8711 18.1278L18.519 20.1353C18.4526 20.5135 18.103 20.7675 17.7227 20.7138L15.7046 20.4284C15.061 20.3372 14.4242 20.5443 13.9571 20.9962L12.4921 22.4132C12.2162 22.6801 11.7839 22.6801 11.5079 22.4132L10.043 20.9961C9.64824 20.6142 9.13215 20.4073 8.59338 20.4073C8.49466 20.4073 8.39514 20.4142 8.29549 20.4283L6.27739 20.7138C5.89742 20.7675 5.5475 20.5135 5.48113 20.1353L5.12896 18.1277C5.01665 17.4876 4.62299 16.9457 4.04892 16.6412L2.24846 15.6859C1.90928 15.5059 1.77568 15.0948 1.94429 14.7498L2.83941 12.9187C3.12478 12.3348 3.12478 11.6651 2.83941 11.0813L1.94429 9.25011C1.77568 8.90516 1.90928 8.49403 2.24846 8.31407L4.04892 7.35877C4.62295 7.05413 5.01665 6.51235 5.12891 5.87223L5.48104 3.86468C5.54741 3.48649 5.897 3.23243 6.2773 3.28615L8.29539 3.57162C8.93875 3.66269 9.57582 3.45565 10.0429 3.00382L11.5079 1.58671C11.7838 1.3198 12.2161 1.3198 12.4921 1.58671L13.957 3.00382C14.4241 3.4557 15.0611 3.66269 15.7045 3.57162L17.7226 3.28615C18.1026 3.23238 18.4525 3.48649 18.5189 3.86468L18.871 5.87227C18.9833 6.5124 19.377 7.05422 19.951 7.35877L21.7515 8.31407C22.0907 8.49403 22.2243 8.90516 22.0557 9.25011L21.1605 11.0812C20.8752 11.6651 20.8752 12.3348 21.1605 12.9186L22.0557 14.7497C22.2243 15.0948 22.0907 15.506 21.7515 15.6859Z" fill="#005EB6"/>
<path d="M17.057 6.9429C16.7868 6.67262 16.3485 6.67262 16.0783 6.9429L6.94288 16.0783C6.6726 16.3486 6.6726 16.7868 6.94288 17.0571C7.07802 17.1922 7.25516 17.2598 7.43226 17.2598C7.60935 17.2598 7.78653 17.1923 7.92163 17.0571L17.057 7.92174C17.3274 7.65141 17.3274 7.21322 17.057 6.9429Z" fill="#005EB6"/>
<path d="M9.23154 5.77103C7.83223 5.77103 6.69379 6.90947 6.69379 8.30878C6.69379 9.70808 7.83223 10.8465 9.23154 10.8465C10.6308 10.8465 11.7693 9.70808 11.7693 8.30878C11.7693 6.90947 10.6308 5.77103 9.23154 5.77103ZM9.23154 9.46227C8.59549 9.46227 8.07804 8.94482 8.07804 8.30873C8.07804 7.67269 8.59549 7.15524 9.23154 7.15524C9.86758 7.15524 10.3851 7.67269 10.3851 8.30873C10.385 8.94482 9.86758 9.46227 9.23154 9.46227Z" fill="#005EB6"/>
<path d="M14.7684 13.1535C13.3691 13.1535 12.2307 14.292 12.2307 15.6913C12.2307 17.0906 13.3691 18.229 14.7684 18.229C16.1677 18.229 17.3062 17.0906 17.3062 15.6913C17.3062 14.292 16.1677 13.1535 14.7684 13.1535ZM14.7684 16.8447C14.1324 16.8447 13.6149 16.3273 13.6149 15.6913C13.6149 15.0552 14.1323 14.5378 14.7684 14.5378C15.4044 14.5378 15.9219 15.0552 15.9219 15.6913C15.9219 16.3273 15.4044 16.8447 14.7684 16.8447Z" fill="#005EB6"/>
</g>
<defs>
<clipPath id="clip0_406_36">
<rect width="24" height="24" fill="white"/>
</clipPath>
</defs>
</svg>
