<svg width="24" height="24" viewBox="0 0 24 24" fill="none" xmlns="http://www.w3.org/2000/svg">
<g clip-path="url(#clip0_406_50)">
<path d="M20.7755 4.21771C18.6966 2.1388 15.9313 0.993179 12.9932 0.993179C10.0007 0.993179 7.20086 2.17337 5.11208 4.31647C4.88493 4.54855 4.88987 4.92384 5.12196 5.15593C5.35405 5.38308 5.72933 5.37814 5.96142 5.14605C7.82799 3.23504 10.3217 2.18324 12.9932 2.18324C18.4102 2.1783 22.8149 6.58301 22.8149 12C22.8149 17.417 18.4102 21.8217 12.9932 21.8217C7.57615 21.8217 3.17144 17.417 3.17144 12V11.8766L4.14917 12.8543C4.26274 12.9679 4.41582 13.0271 4.5689 13.0271C4.72198 13.0271 4.87012 12.9679 4.98863 12.8543C5.22072 12.6222 5.22072 12.2469 4.98863 12.0148L3.00355 10.0248C2.77146 9.79273 2.39617 9.79273 2.16409 10.0248L0.174065 12.0148C-0.0580217 12.2469 -0.0580217 12.6222 0.174065 12.8543C0.406152 13.0864 0.781441 13.0864 1.01353 12.8543L1.99126 11.8766V12C1.99126 14.9381 3.13688 17.7034 5.21578 19.7823C7.29469 21.8612 10.06 23.0069 12.9981 23.0069C15.9362 23.0069 18.7015 21.8612 20.7804 19.7823C22.8593 17.7034 24 14.9381 24 12C24 9.0619 22.8544 6.29661 20.7755 4.21771Z" fill="#005EB6"/>
<path d="M16.1436 7.99529L8.86498 15.269C8.6329 15.5011 8.6329 15.8764 8.86498 16.1085C8.97856 16.222 9.13164 16.2813 9.28471 16.2813C9.43779 16.2813 9.58593 16.222 9.70445 16.1085L16.9831 8.82982C17.2152 8.59773 17.2152 8.22244 16.9831 7.99035C16.751 7.7632 16.3757 7.7632 16.1436 7.99529Z" fill="#005EB6"/>
<path d="M14.2375 12.8938C13.4129 13.7184 13.4129 15.0665 14.2375 15.8912C14.6375 16.2912 15.1708 16.5134 15.7387 16.5134C16.3065 16.5134 16.8398 16.2912 17.2398 15.8912C18.0645 15.0665 18.0645 13.7184 17.2398 12.8938C16.8398 12.4938 16.3065 12.2716 15.7387 12.2716C15.1708 12.2716 14.6424 12.4938 14.2375 12.8938ZM16.4004 15.0566C16.2226 15.2344 15.9905 15.3282 15.7387 15.3282C15.4868 15.3282 15.2547 15.2295 15.077 15.0566C14.7116 14.6912 14.7116 14.0987 15.077 13.7333C15.2547 13.5555 15.4868 13.4617 15.7387 13.4617C15.9905 13.4617 16.2226 13.5604 16.4004 13.7333C16.7658 14.0987 16.7658 14.6912 16.4004 15.0566Z" fill="#005EB6"/>
<path d="M10.2674 7.46692C9.69952 7.46692 9.16621 7.68913 8.76623 8.08911C8.36625 8.48909 8.14404 9.02239 8.14404 9.59027C8.14404 10.1581 8.36625 10.6914 8.76623 11.0914C9.16621 11.4914 9.69952 11.7136 10.2674 11.7136C10.8353 11.7136 11.3686 11.4914 11.7685 11.0914C12.1685 10.6914 12.3907 10.1581 12.3907 9.59027C12.3907 9.02239 12.1685 8.48909 11.7685 8.08911C11.3636 7.68913 10.8353 7.46692 10.2674 7.46692ZM10.9291 10.252C10.7513 10.4297 10.5192 10.5236 10.2674 10.5236C10.0156 10.5236 9.78346 10.4248 9.6057 10.252C9.42793 10.0742 9.3341 9.84211 9.3341 9.59027C9.3341 9.33843 9.43287 9.10634 9.6057 8.92857C9.78346 8.7508 10.0156 8.65698 10.2674 8.65698C10.5192 8.65698 10.7513 8.75574 10.9291 8.92857C11.1069 9.10634 11.2007 9.33843 11.2007 9.59027C11.2007 9.83717 11.1069 10.0742 10.9291 10.252Z" fill="#005EB6"/>
</g>
<defs>
<clipPath id="clip0_406_50">
<rect width="24" height="24" fill="white"/>
</clipPath>
</defs>
</svg>
