<svg width="24" height="24" viewBox="0 0 24 24" fill="none" xmlns="http://www.w3.org/2000/svg">
<g clip-path="url(#clip0_406_31)">
<path fill-rule="evenodd" clip-rule="evenodd" d="M15.3649 11.9064C15.3121 11.5969 15.0193 11.3856 14.7073 11.4384C14.3977 11.4912 14.1889 11.7841 14.2417 12.096C14.2656 12.2497 14.2801 12.408 14.2801 12.5712C14.2801 14.1432 13.0032 15.42 11.4289 15.42C9.85689 15.42 8.58007 14.1432 8.58007 12.5712C8.58007 10.9969 9.85689 9.72005 11.4289 9.72005C11.5921 9.72005 11.7505 9.73446 11.9041 9.75843C12.2161 9.81122 12.5089 9.60245 12.5617 9.29284C12.6145 8.98083 12.4032 8.68804 12.0937 8.63525C11.8777 8.59927 11.6569 8.58005 11.4289 8.58005C9.22806 8.58005 7.44008 10.368 7.44008 12.5712C7.44008 14.772 9.22806 16.56 11.4289 16.56C13.6321 16.56 15.4201 14.772 15.4201 12.5712C15.4201 12.3432 15.4008 12.1224 15.3649 11.9064ZM17.8464 8.86324C17.6904 8.59206 17.34 8.50083 17.0688 8.65687C16.7952 8.81525 16.7017 9.16323 16.86 9.43687C17.3928 10.3584 17.7 11.4289 17.7 12.5712C17.7 16.032 14.8897 18.84 11.4289 18.84C7.96806 18.84 5.16008 16.032 5.16008 12.5712C5.16008 9.11044 7.96806 6.30006 11.4289 6.30006C12.5713 6.30006 13.6417 6.60727 14.5632 7.14006C14.8369 7.29844 15.1849 7.20486 15.3432 6.93123C15.4993 6.66006 15.408 6.30967 15.1369 6.15369C14.0449 5.52247 12.7801 5.16006 11.4289 5.16006C7.3393 5.16006 4.02009 8.48162 4.02009 12.5712C4.02009 16.6608 7.3393 19.98 11.4289 19.98C15.5184 19.98 18.84 16.6608 18.84 12.5712C18.84 11.22 18.4776 9.95524 17.8464 8.86324ZM21.1393 7.76888C20.9976 7.48564 20.6569 7.37285 20.3736 7.51207C20.0928 7.65123 19.9776 7.99447 20.1169 8.27525C20.76 9.57122 21.12 11.028 21.12 12.5712C21.12 17.9208 16.7784 22.2624 11.4289 22.2624C6.0793 22.2624 1.73769 17.9208 1.73769 12.5712C1.73769 7.22162 6.0793 2.88007 11.4289 2.88007C12.9745 2.88007 14.4384 3.24487 15.7369 3.88806C16.0176 4.02968 16.3584 3.91448 16.5 3.63124C16.6393 3.35046 16.5264 3.00968 16.2432 2.86806C14.7937 2.14566 13.1593 1.74248 11.4289 1.74248C5.45288 1.74248 0.600098 6.59285 0.600098 12.5712C0.600097 18.5472 5.45288 23.4 11.4289 23.4C17.4073 23.4 22.2576 18.5472 22.2576 12.5712C22.2576 10.848 21.8544 9.21843 21.1393 7.76888Z" fill="#005EB6"/>
<path fill-rule="evenodd" clip-rule="evenodd" d="M23.232 3.99124L20.8152 6.41045C20.6808 6.54486 20.4864 6.60486 20.2992 6.56643L18.5832 6.22324L11.8321 12.9745C11.6112 13.1952 11.2488 13.1952 11.0256 12.9745C10.8049 12.7512 10.8049 12.3889 11.0256 12.168L17.7768 5.41688L17.4336 3.70085C17.3952 3.5137 17.4552 3.31929 17.5896 3.18488L20.0088 0.768066C20.1192 0.655273 20.2704 0.597676 20.424 0.600078C20.4744 0.602481 20.5272 0.609688 20.5776 0.624102C20.7768 0.686445 20.9304 0.852089 20.9712 1.05846L21.3 2.70247L22.9416 3.0289C23.148 3.06968 23.3136 3.22325 23.376 3.42247C23.436 3.62409 23.3808 3.84247 23.232 3.99124Z" fill="#005EB6"/>
</g>
<defs>
<clipPath id="clip0_406_31">
<rect width="24" height="24" fill="white"/>
</clipPath>
</defs>
</svg>
