<svg width="30" height="30" viewBox="0 0 30 30" fill="none" xmlns="http://www.w3.org/2000/svg">
<g clip-path="url(#clip0_307_298)">
<g filter="url(#filter0_d_307_298)">
<path d="M11.4899 2.19519e-06L18.5099 2.8089e-06C19.9649 2.9361e-06 21.3599 0.540004 22.4399 1.53L28.1099 6.705C29.3249 7.815 30.0149 9.375 30.0149 11.01L30.0149 24.18C29.9999 27.39 27.3899 30 24.1799 30L5.8349 30C2.6249 30 0.0148966 27.39 0.0148969 24.18L0.0148981 11.01C0.0148982 9.375 0.704901 7.815 1.9199 6.705L7.5899 1.53C8.6699 0.555004 10.0649 2.07061e-06 11.5199 2.19781e-06L11.4899 2.19519e-06Z" fill="#94C740"/>
<path d="M24.1799 29.75L5.83521 29.75C2.76328 29.75 0.264893 27.2516 0.264893 24.1797L0.264894 11.0098C0.264957 9.54331 0.845056 8.13931 1.87622 7.09375L2.08814 6.88965L7.75708 1.71582C8.79272 0.780867 10.1288 0.250029 11.5198 0.249998L18.51 0.249999C19.9024 0.250028 21.237 0.766401 22.2708 1.71387L22.2717 1.71484L27.9417 6.88965C29.1049 7.95254 29.7648 9.44566 29.7649 11.0098L29.7649 24.1787C29.7505 27.2518 27.2516 29.75 24.1799 29.75Z" stroke="url(#paint0_linear_307_298)" stroke-width="0.5"/>
</g>
</g>
<path d="M11.8174 15.0759C11.8174 13.6274 12.0532 12.499 12.5248 11.6906C12.9963 10.8738 13.8216 10.4653 15.0005 10.4653C16.1711 10.4653 16.9921 10.8738 17.4637 11.6906C17.9353 12.499 18.1711 13.6274 18.1711 15.0759C18.1711 16.5495 17.9353 17.6948 17.4637 18.5116C16.9921 19.3285 16.1711 19.7369 15.0005 19.7369C13.8216 19.7369 12.9963 19.3285 12.5248 18.5116C12.0532 17.6948 11.8174 16.5495 11.8174 15.0759ZM17.0342 15.0759C17.0342 14.3432 16.9837 13.7243 16.8826 13.219C16.79 12.7053 16.5921 12.2927 16.289 11.9811C15.9942 11.6695 15.5648 11.5138 15.0005 11.5138C14.4279 11.5138 13.99 11.6695 13.6869 11.9811C13.3921 12.2927 13.1942 12.7053 13.0932 13.219C13.0005 13.7243 12.9542 14.3432 12.9542 15.0759C12.9542 15.8338 13.0005 16.4695 13.0932 16.9832C13.1942 17.4969 13.3921 17.9095 13.6869 18.2211C13.99 18.5327 14.4279 18.6885 15.0005 18.6885C15.5648 18.6885 15.9942 18.5327 16.289 18.2211C16.5921 17.9095 16.79 17.4969 16.8826 16.9832C16.9837 16.4695 17.0342 15.8338 17.0342 15.0759Z" fill="white"/>
<defs>
<filter id="filter0_d_307_298" x="-3.98511" y="-4" width="38" height="38" filterUnits="userSpaceOnUse" color-interpolation-filters="sRGB">
<feFlood flood-opacity="0" result="BackgroundImageFix"/>
<feColorMatrix in="SourceAlpha" type="matrix" values="0 0 0 0 0 0 0 0 0 0 0 0 0 0 0 0 0 0 127 0" result="hardAlpha"/>
<feOffset/>
<feGaussianBlur stdDeviation="2"/>
<feComposite in2="hardAlpha" operator="out"/>
<feColorMatrix type="matrix" values="0 0 0 0 0 0 0 0 0 0 0 0 0 0 0 0 0 0 0.1 0"/>
<feBlend mode="normal" in2="BackgroundImageFix" result="effect1_dropShadow_307_298"/>
<feBlend mode="normal" in="SourceGraphic" in2="effect1_dropShadow_307_298" result="shape"/>
</filter>
<linearGradient id="paint0_linear_307_298" x1="15.0149" y1="30" x2="15.0149" y2="2.50336e-06" gradientUnits="userSpaceOnUse">
<stop stop-color="#C8DCFE"/>
<stop offset="1" stop-color="#F0F9FF"/>
</linearGradient>
<clipPath id="clip0_307_298">
<rect width="30" height="30" fill="white" transform="translate(30 30) rotate(-180)"/>
</clipPath>
</defs>
</svg>
