<svg width="30" height="30" viewBox="0 0 30 30" fill="none" xmlns="http://www.w3.org/2000/svg">
<g clip-path="url(#clip0_307_307)">
<g filter="url(#filter0_d_307_307)">
<path d="M18.5101 30H11.4901C10.0351 30 8.64011 29.46 7.56011 28.47L1.89011 23.295C0.675107 22.185 -0.0148926 20.625 -0.0148926 18.99V5.82C0.000107422 2.61 2.61011 0 5.82011 0H24.1651C27.3751 0 29.9851 2.61 29.9851 5.82V18.99C29.9851 20.625 29.2951 22.185 28.0801 23.295L22.4101 28.47C21.3301 29.445 19.9351 30 18.4801 30H18.5101Z" fill="#ED3324"/>
<path d="M5.82007 0.25H24.1648C27.2367 0.25 29.7351 2.74838 29.7351 5.82031V18.9902C29.735 20.4567 29.1549 21.8607 28.1238 22.9062L27.9119 23.1104L22.2429 28.2842C21.2073 29.2191 19.8712 29.75 18.4802 29.75H11.49C10.0976 29.75 8.76301 29.2336 7.72925 28.2861L7.72827 28.2852L2.05835 23.1104C0.895055 22.0475 0.235173 20.5543 0.235107 18.9902V5.82129C0.249467 2.74823 2.74838 0.250021 5.82007 0.25Z" stroke="url(#paint0_linear_307_307)" stroke-width="0.5"/>
</g>
<path d="M11.8174 15.0759C11.8174 13.6274 12.0532 12.499 12.5248 11.6906C12.9963 10.8738 13.8216 10.4653 15.0005 10.4653C16.1711 10.4653 16.9921 10.8738 17.4637 11.6906C17.9353 12.499 18.1711 13.6274 18.1711 15.0759C18.1711 16.5495 17.9353 17.6948 17.4637 18.5116C16.9921 19.3285 16.1711 19.7369 15.0005 19.7369C13.8216 19.7369 12.9963 19.3285 12.5248 18.5116C12.0532 17.6948 11.8174 16.5495 11.8174 15.0759ZM17.0342 15.0759C17.0342 14.3432 16.9837 13.7243 16.8826 13.219C16.79 12.7053 16.5921 12.2927 16.289 11.9811C15.9942 11.6695 15.5648 11.5138 15.0005 11.5138C14.4279 11.5138 13.99 11.6695 13.6869 11.9811C13.3921 12.2927 13.1942 12.7053 13.0932 13.219C13.0005 13.7243 12.9542 14.3432 12.9542 15.0759C12.9542 15.8338 13.0005 16.4695 13.0932 16.9832C13.1942 17.4969 13.3921 17.9095 13.6869 18.2211C13.99 18.5327 14.4279 18.6885 15.0005 18.6885C15.5648 18.6885 15.9942 18.5327 16.289 18.2211C16.5921 17.9095 16.79 17.4969 16.8826 16.9832C16.9837 16.4695 17.0342 15.8338 17.0342 15.0759Z" fill="white"/>
</g>
<defs>
<filter id="filter0_d_307_307" x="-4.01489" y="-4" width="38" height="38" filterUnits="userSpaceOnUse" color-interpolation-filters="sRGB">
<feFlood flood-opacity="0" result="BackgroundImageFix"/>
<feColorMatrix in="SourceAlpha" type="matrix" values="0 0 0 0 0 0 0 0 0 0 0 0 0 0 0 0 0 0 127 0" result="hardAlpha"/>
<feOffset/>
<feGaussianBlur stdDeviation="2"/>
<feComposite in2="hardAlpha" operator="out"/>
<feColorMatrix type="matrix" values="0 0 0 0 0 0 0 0 0 0 0 0 0 0 0 0 0 0 0.1 0"/>
<feBlend mode="normal" in2="BackgroundImageFix" result="effect1_dropShadow_307_307"/>
<feBlend mode="normal" in="SourceGraphic" in2="effect1_dropShadow_307_307" result="shape"/>
</filter>
<linearGradient id="paint0_linear_307_307" x1="14.9851" y1="0" x2="14.9851" y2="30" gradientUnits="userSpaceOnUse">
<stop stop-color="#C8DCFE"/>
<stop offset="1" stop-color="#F0F9FF"/>
</linearGradient>
<clipPath id="clip0_307_307">
<rect width="30" height="30" fill="white"/>
</clipPath>
</defs>
</svg>
