<svg width="38" height="38" viewBox="0 0 38 38" fill="none" xmlns="http://www.w3.org/2000/svg">
<g filter="url(#filter0_d_307_288)">
<circle cx="19" cy="19" r="15" fill="#AD5691"/>
<circle cx="19" cy="19" r="14.75" stroke="url(#paint0_linear_307_288)" stroke-width="0.5"/>
</g>
<path d="M15.8171 19.0759C15.8171 17.6274 16.0529 16.499 16.5245 15.6906C16.9961 14.8738 17.8213 14.4653 19.0003 14.4653C20.1708 14.4653 20.9919 14.8738 21.4635 15.6906C21.935 16.499 22.1708 17.6274 22.1708 19.0759C22.1708 20.5495 21.935 21.6948 21.4635 22.5116C20.9919 23.3285 20.1708 23.7369 19.0003 23.7369C17.8213 23.7369 16.9961 23.3285 16.5245 22.5116C16.0529 21.6948 15.8171 20.5495 15.8171 19.0759ZM21.034 19.0759C21.034 18.3432 20.9835 17.7243 20.8824 17.219C20.7898 16.7053 20.5919 16.2927 20.2887 15.9811C19.994 15.6695 19.5645 15.5138 19.0003 15.5138C18.4277 15.5138 17.9898 15.6695 17.6866 15.9811C17.3919 16.2927 17.194 16.7053 17.0929 17.219C17.0003 17.7243 16.954 18.3432 16.954 19.0759C16.954 19.8338 17.0003 20.4695 17.0929 20.9832C17.194 21.4969 17.3919 21.9095 17.6866 22.2211C17.9898 22.5327 18.4277 22.6885 19.0003 22.6885C19.5645 22.6885 19.994 22.5327 20.2887 22.2211C20.5919 21.9095 20.7898 21.4969 20.8824 20.9832C20.9835 20.4695 21.034 19.8338 21.034 19.0759Z" fill="white"/>
<defs>
<filter id="filter0_d_307_288" x="0" y="0" width="38" height="38" filterUnits="userSpaceOnUse" color-interpolation-filters="sRGB">
<feFlood flood-opacity="0" result="BackgroundImageFix"/>
<feColorMatrix in="SourceAlpha" type="matrix" values="0 0 0 0 0 0 0 0 0 0 0 0 0 0 0 0 0 0 127 0" result="hardAlpha"/>
<feOffset/>
<feGaussianBlur stdDeviation="2"/>
<feComposite in2="hardAlpha" operator="out"/>
<feColorMatrix type="matrix" values="0 0 0 0 0 0 0 0 0 0 0 0 0 0 0 0 0 0 0.1 0"/>
<feBlend mode="normal" in2="BackgroundImageFix" result="effect1_dropShadow_307_288"/>
<feBlend mode="normal" in="SourceGraphic" in2="effect1_dropShadow_307_288" result="shape"/>
</filter>
<linearGradient id="paint0_linear_307_288" x1="19" y1="4" x2="19" y2="34" gradientUnits="userSpaceOnUse">
<stop stop-color="#C8DCFE"/>
<stop offset="1" stop-color="#F0F9FF"/>
</linearGradient>
</defs>
</svg>
