<svg width="50" height="50" viewBox="0 0 50 50" fill="none" xmlns="http://www.w3.org/2000/svg">
<path d="M28.8028 29.5373C27.0725 20.6269 18.9097 16.5775 10.5791 18.1554C11.5342 13.156 16.2147 9.06831 19.2561 5.26838C19.6874 4.72954 19.9097 3.78189 19.2561 3.27412C17.6527 2.02855 16.1564 1.64074 14.7779 1.83737C14.6823 1.57571 14.4292 1.38064 14.1005 1.48401C9.20758 3.02465 6.039 8.25122 3.91909 12.5827C1.12174 18.2997 -0.281598 24.918 0.0471515 31.2707C0.565535 41.286 9.50758 50.8361 20.1558 48.0556C27.9295 46.0258 30.1359 36.403 28.8028 29.5373ZM8.87935 37.5517C8.88013 37.5483 8.8822 37.5462 8.88298 37.5431C8.93168 37.3553 8.97339 37.1657 9.01769 36.9763C9.16173 37.1623 9.29256 37.3688 9.4081 37.5934C9.22546 37.6172 9.04774 37.6325 8.8778 37.6361C8.87676 37.6066 8.88039 37.5802 8.87935 37.5517ZM6.62707 14.048C6.75556 14.1029 6.89183 14.1376 7.03379 14.1508C6.61774 14.985 6.23407 15.8337 5.88848 16.7013C5.75299 16.6622 5.61103 16.6394 5.46621 16.6397C5.81802 15.7614 6.21179 14.9001 6.62707 14.048ZM5.55896 39.4708C5.89366 39.8166 6.25272 40.148 6.62655 40.4671C6.57059 40.5394 6.52318 40.6171 6.48303 40.6987C6.14988 40.3089 5.83537 39.9037 5.55896 39.4708ZM15.1629 39.4363C14.7339 38.8762 14.4098 38.2579 14.2062 37.5825C14.2013 37.5327 14.1849 37.483 14.158 37.4333C14.0953 37.2009 14.0458 36.9623 14.0142 36.7157C14.7178 37.6721 15.2834 38.7374 15.808 39.814C15.5818 39.7107 15.3673 39.5837 15.1629 39.4363Z" fill="#FFD930"/>
<path d="M30.4253 16.544C31.367 12.7405 33.9353 10.1149 35.8011 6.68465C36.1044 6.12689 35.9853 5.25955 35.35 4.96448C34.1887 4.42485 33.1449 3.82616 31.9838 3.38187C31.6323 2.6324 30.5711 2.14044 29.7587 2.87255C28.3222 4.16708 26.7539 5.82741 25.5008 7.6823C23.8391 9.7206 22.6459 12.1946 22.2495 14.5744C22.2027 14.8562 22.2514 15.142 22.3617 15.4026C22.3019 15.5065 22.2418 15.6091 22.1817 15.7132C21.8783 16.2389 22.0511 16.9453 22.5845 17.2497C28.9093 20.8559 31.5255 26.7278 31.3393 32.9147C31.0191 33.8172 30.9377 34.7921 31.0597 35.7721C30.5478 38.8855 29.3756 42.0031 27.6443 44.8823C27.2551 45.5292 27.4002 46.1346 27.78 46.545C27.8795 46.8688 28.1409 47.1426 28.6108 47.2488C38.694 49.5265 48.8381 44.701 49.9321 33.6996C50.9502 23.4625 40.2862 14.8353 30.4253 16.544ZM34.2612 44.9916C34.2967 44.9582 34.3283 44.9214 34.3633 44.8872C35.2889 44.8155 36.135 44.5554 36.8539 44.137C36.8622 44.1727 36.8676 44.2056 36.8762 44.2416C36.8995 44.3403 36.9498 44.4152 36.9899 44.4997C36.1003 44.7258 35.1876 44.894 34.2612 44.9916ZM41.4131 25.7451C41.3175 25.9205 41.2336 26.0967 41.1492 26.2731C41.1424 26.2239 41.1414 26.1731 41.1339 26.1239C41.1466 25.7596 41.2108 25.3843 41.3098 25.0016C41.3204 25.0089 41.3323 25.0151 41.3429 25.0224C41.3937 25.2332 41.4352 25.4483 41.4675 25.6672C41.4507 25.6941 41.4289 25.7166 41.4131 25.7451ZM46.2304 36.7848C46.2343 36.5444 46.2304 36.3022 46.2218 36.0584C46.3799 35.79 46.5255 35.5146 46.6493 35.2297C46.5477 35.7739 46.3998 36.2869 46.2304 36.7848Z" fill="#FFD930"/>
</svg>
