<svg width="50" height="50" viewBox="0 0 50 50" fill="none" xmlns="http://www.w3.org/2000/svg">
<path d="M21.1973 20.4627C22.9276 29.3731 31.0903 33.4225 39.421 31.8446C38.4658 36.844 33.7854 40.9317 30.744 44.7316C30.3126 45.2705 30.0904 46.2181 30.744 46.7259C32.3473 47.9714 33.8437 48.3593 35.2221 48.1626C35.3177 48.4243 35.5708 48.6194 35.8996 48.516C40.7925 46.9754 43.9611 41.7488 46.081 37.4173C48.8783 31.7003 50.2817 25.082 49.9529 18.7293C49.4345 8.71397 40.4925 -0.83609 29.8443 1.94442C22.0706 3.97417 19.8642 13.597 21.1973 20.4627ZM41.1207 12.4483C41.1199 12.4517 41.1179 12.4538 41.1171 12.4569C41.0684 12.6447 41.0267 12.8344 40.9824 13.0237C40.8383 12.8377 40.7075 12.6312 40.592 12.4066C40.7746 12.3828 40.9523 12.3675 41.1223 12.3639C41.1233 12.3934 41.1197 12.4199 41.1207 12.4483ZM43.373 35.952C43.2445 35.8971 43.1082 35.8624 42.9663 35.8492C43.3823 35.015 43.766 34.1663 44.1116 33.2987C44.2471 33.3378 44.389 33.3606 44.5339 33.3604C44.182 34.2386 43.7883 35.1 43.373 35.952ZM44.4411 10.5292C44.1064 10.1834 43.7473 9.85203 43.3735 9.53287C43.4295 9.46059 43.4769 9.38287 43.517 9.30126C43.8502 9.69115 44.1647 10.0963 44.4411 10.5292ZM34.8372 10.5637C35.2662 11.1238 35.5903 11.7421 35.7939 12.4175C35.7988 12.4673 35.8151 12.517 35.8421 12.5667C35.9048 12.7991 35.9542 13.0377 35.9858 13.2843C35.2822 12.3279 34.7167 11.2626 34.1921 10.186C34.4183 10.2893 34.6328 10.4163 34.8372 10.5637Z" fill="#FFD930"/>
<path d="M19.5747 33.456C18.6331 37.2595 16.0647 39.8851 14.199 43.3154C13.8956 43.8731 14.0148 44.7405 14.65 45.0355C15.8114 45.5752 16.8551 46.1738 18.0162 46.6181C18.3678 47.3676 19.4289 47.8596 20.2413 47.1275C21.6778 45.8329 23.2462 44.1726 24.4993 42.3177C26.1609 40.2794 27.3541 37.8054 27.7505 35.4256C27.7974 35.1438 27.7487 34.858 27.6383 34.5974C27.6982 34.4935 27.7583 34.3909 27.8184 34.2868C28.1217 33.7611 27.9489 33.0547 27.4155 32.7503C21.0908 29.1441 18.4745 23.2722 18.6608 17.0853C18.981 16.1828 19.0623 15.2079 18.9403 14.2279C19.4522 11.1145 20.6245 7.99692 22.3558 5.1177C22.7449 4.47083 22.5998 3.86539 22.22 3.45504C22.1206 3.13121 21.8592 2.85738 21.3892 2.75117C11.306 0.473495 1.16192 5.29904 0.0679005 16.3004C-0.950213 26.5375 9.71381 35.1647 19.5747 33.456ZM15.7388 5.00837C15.7033 5.04179 15.6717 5.07858 15.6368 5.11277C14.7111 5.18454 13.865 5.44464 13.1461 5.86302C13.1378 5.82727 13.1324 5.79437 13.1238 5.75836C13.1005 5.65966 13.0503 5.58478 13.0101 5.50033C13.8997 5.27417 14.8124 5.10604 15.7388 5.00837ZM8.5869 24.2549C8.68249 24.0795 8.76642 23.9033 8.85088 23.7269C8.85761 23.7761 8.85865 23.8269 8.86617 23.8761C8.85347 24.2404 8.78922 24.6157 8.69026 24.9984C8.67964 24.9911 8.66772 24.9849 8.6571 24.9777C8.60633 24.7668 8.56488 24.5518 8.5325 24.3328C8.54933 24.3059 8.57109 24.2834 8.5869 24.2549ZM3.76964 13.2152C3.76575 13.4556 3.76964 13.6978 3.77819 13.9416C3.62016 14.21 3.47457 14.4854 3.35073 14.7703C3.45229 14.2261 3.60021 13.7131 3.76964 13.2152Z" fill="#FFD930"/>
</svg>
