<svg width="250" height="39" viewBox="0 0 250 39" fill="none" xmlns="http://www.w3.org/2000/svg">
<g clip-path="url(#clip0_181_1550)">
<path d="M13.5195 28.0807L13.2926 27.3474C13.2112 27.0471 12.9901 26.7872 12.6294 26.5678C12.2688 26.3426 11.8557 26.1694 11.3903 26.0481C10.5352 26.0481 9.86038 25.7883 9.37755 25.2686C8.89471 24.7431 8.65038 23.9347 8.65038 22.8376V14.4994H10.2443C10.7097 14.4994 11.0878 14.3204 11.3845 13.9682C11.6754 13.6159 11.8208 13.1713 11.8208 12.6285V12.1435C11.8208 11.6007 11.6463 11.1561 11.2914 10.8038C10.9366 10.4516 10.4828 10.2726 9.94183 10.2726H8.65038V6.23631C8.65038 5.64155 8.44677 5.1565 8.02792 4.78117C7.61489 4.41161 7.10297 4.24993 6.50378 4.30767L4.80512 4.48668C4.3281 4.54442 3.93834 4.73497 3.63002 5.06989C3.3217 5.39903 3.17045 5.80323 3.17045 6.27673V10.2726H1.59395C1.13438 10.2726 0.750436 10.4516 0.453752 10.8038C0.151251 11.1561 0 11.6007 0 12.1435V12.6285C0 13.1713 0.180337 13.6159 0.535195 13.9682C0.884235 14.3204 1.33799 14.4994 1.88482 14.4994H3.17045V23.6518C3.17045 25.667 3.85108 27.3069 5.21815 28.5657C6.59104 29.8246 8.44095 30.454 10.7563 30.454C11.2914 30.454 11.8092 30.3904 12.3153 30.2692C12.7225 30.1768 13.0366 29.9689 13.2635 29.6513C13.4904 29.3337 13.6009 28.9873 13.6009 28.6062C13.6009 28.4156 13.5718 28.2424 13.5195 28.0807Z" fill="black"/>
<path d="M34.0546 12.5881C32.705 11.0579 30.7329 10.2957 28.1442 10.2957C27.2425 10.2957 26.3873 10.4516 25.5845 10.7634C24.7818 11.0752 23.8975 11.6296 22.926 12.4264V1.87089C22.926 1.3281 22.7515 0.883476 22.3966 0.531241C22.0418 0.179005 21.588 0 21.047 0H19.3658C18.8248 0 18.3711 0.179005 18.0162 0.531241C17.6613 0.883476 17.4868 1.3281 17.4868 1.87089V28.5831C17.4868 29.1258 17.6613 29.5705 18.0162 29.9227C18.3711 30.2749 18.8248 30.454 19.3658 30.454H21.047C21.588 30.454 22.0418 30.2749 22.3966 29.9227C22.7515 29.5705 22.926 29.1258 22.926 28.5831V16.6879C23.8568 15.4868 24.9563 14.8401 26.2419 14.7593C27.6962 14.7997 28.8015 15.2154 29.5403 16.0065C30.285 16.8034 30.6573 17.9121 30.6573 19.3499V28.5831C30.6573 29.1258 30.8318 29.5705 31.1866 29.9227C31.5415 30.2749 31.9952 30.454 32.5421 30.454H34.2175C34.7585 30.454 35.2122 30.2749 35.5671 29.9227C35.922 29.5705 36.0965 29.1258 36.0965 28.5831V17.889C36.0965 15.8853 35.4158 14.1183 34.0546 12.5881Z" fill="black"/>
<path d="M56.2828 12.9923C54.4969 11.0983 52.1176 10.1513 49.145 10.1513C46.1723 10.1513 43.6708 11.0983 41.7628 12.9923C39.8547 14.8921 38.9006 17.3231 38.9006 20.3026C38.9006 23.2822 39.8547 25.719 41.7628 27.613C43.6708 29.507 46.1316 30.454 49.145 30.454C52.1583 30.454 54.2526 29.9343 55.8756 28.8891C56.1199 28.7274 56.3061 28.5311 56.4283 28.3001C56.5504 28.0691 56.6086 27.8266 56.6086 27.5726C56.6086 27.0413 56.3992 26.5678 55.9745 26.1521L55.259 25.436C54.9332 25.1127 54.5376 24.951 54.0722 24.951C53.7872 24.951 53.4963 25.0261 53.1938 25.1762C51.9256 25.7998 50.576 26.1059 49.145 26.1059C47.9582 26.1059 46.9402 25.7825 46.0792 25.1358C45.6546 24.8355 45.323 24.4544 45.0786 23.9867C44.8285 23.519 44.6423 22.9069 44.5027 22.1504H57.0624C57.6034 22.1504 58.0571 21.9772 58.412 21.625C58.7668 21.2727 58.9414 20.8281 58.9414 20.3026C58.9414 17.3115 58.0571 14.8747 56.2828 12.9923ZM44.7471 18.4548C44.7761 17.71 44.8983 17.1036 45.1194 16.6359C45.3346 16.174 45.6546 15.7813 46.0792 15.4695C46.9402 14.8228 47.9582 14.4994 49.145 14.4994C50.3317 14.4994 51.3148 14.8228 52.1758 15.4695C52.6121 15.7813 52.9379 16.174 53.1531 16.6359C53.3742 17.1036 53.4963 17.71 53.5254 18.4548H44.7471Z" fill="black"/>
<path d="M81.0528 13.1367C79.2378 11.133 76.748 10.134 73.5834 10.134C72.9027 10.134 72.193 10.2726 71.4484 10.5613C70.7038 10.8442 69.8137 11.3235 68.7782 11.9991V11.0637C68.7782 10.85 68.627 10.6768 68.3187 10.5497C68.0104 10.4227 67.6206 10.3534 67.1436 10.3534C66.9225 10.3534 66.7538 10.365 66.6316 10.3765L64.997 10.5613C64.52 10.6133 64.1244 10.8038 63.8219 11.1387C63.5136 11.4679 63.3623 11.8721 63.3623 12.3456V37.1291C63.3623 37.6719 63.531 38.1223 63.88 38.4745C64.2291 38.821 64.677 39 65.218 39H66.8992C67.4403 39 67.894 38.821 68.2489 38.4745C68.6037 38.1223 68.7782 37.6719 68.7782 37.1291V28.3001C69.6276 29.045 70.442 29.5647 71.2215 29.865C72.0069 30.1595 72.9027 30.3096 73.915 30.3096C76.8294 30.3096 79.2087 29.3049 81.0528 27.2838C82.8911 25.2686 83.8102 22.9126 83.8102 20.2218C83.8102 17.5309 82.8911 15.1692 81.0528 13.1367ZM73.3623 25.9846C70.5933 25.5515 69.0633 24.131 68.7782 21.7231V18.3567C69.0807 16.1913 70.6107 14.8805 73.3798 14.4359C77.1145 14.5976 79.0691 16.6706 79.232 20.6491C78.8073 23.8943 76.8527 25.6728 73.3623 25.9846Z" fill="#FF5635"/>
<path d="M99.6625 11.0868C99.3891 10.7345 99.0633 10.4227 98.6794 10.1513C97.673 10.1513 96.7189 10.3476 95.8289 10.7403C94.933 11.133 93.9615 11.8143 92.9144 12.7902V11.4736C92.9144 11.1445 92.7457 10.8789 92.4141 10.671C92.0767 10.4631 91.652 10.3534 91.1343 10.3534C90.9714 10.3534 90.8492 10.365 90.762 10.3765L89.0691 10.5613C88.5921 10.6133 88.2023 10.8096 87.8998 11.1445C87.6032 11.4852 87.4519 11.8894 87.4519 12.3629V28.5831C87.4519 29.1259 87.6264 29.5705 87.9813 29.9227C88.3361 30.275 88.7899 30.454 89.3309 30.454H91.0296C91.5764 30.454 92.0243 30.275 92.3792 29.9227C92.734 29.5705 92.9144 29.1259 92.9144 28.5831V17.889C93.9324 15.8448 95.2122 14.7535 96.7364 14.6207C97.2657 14.6438 97.7544 14.7188 98.1907 14.8401C98.3245 14.869 98.4292 14.8805 98.4932 14.8805C98.8364 14.8805 99.1389 14.7246 99.3949 14.4128C99.6567 14.1068 99.8312 13.6852 99.9301 13.1598L100.052 12.3225C100.064 12.2821 100.07 12.2243 100.07 12.1435C100.07 11.7912 99.9359 11.439 99.6625 11.0868Z" fill="#FF5635"/>
<path d="M120.483 12.9923C118.697 11.0983 116.318 10.1513 113.345 10.1513C110.372 10.1513 107.871 11.0983 105.963 12.9923C104.049 14.8921 103.095 17.3231 103.095 20.3026C103.095 23.2822 104.049 25.719 105.963 27.613C107.871 29.507 110.331 30.454 113.345 30.454C116.358 30.454 118.447 29.9343 120.07 28.8891C120.32 28.7274 120.5 28.5311 120.622 28.3001C120.745 28.0691 120.809 27.8266 120.809 27.5726C120.809 27.0413 120.599 26.5678 120.174 26.1521L119.459 25.436C119.133 25.1127 118.738 24.951 118.272 24.951C117.987 24.951 117.69 25.0261 117.394 25.1762C116.126 25.7998 114.776 26.1059 113.345 26.1059C112.158 26.1059 111.134 25.7825 110.273 25.1358C109.854 24.8355 109.517 24.4544 109.273 23.9867C109.028 23.519 108.836 22.9069 108.703 22.1504H121.256C121.803 22.1504 122.251 21.9772 122.606 21.625C122.961 21.2727 123.141 20.8281 123.141 20.3026C123.141 17.3115 122.251 14.8747 120.483 12.9923ZM108.947 18.4548C108.976 17.71 109.098 17.1036 109.313 16.6359C109.535 16.174 109.854 15.7813 110.273 15.4695C111.134 14.8228 112.158 14.4994 113.345 14.4994C114.532 14.4994 115.509 14.8228 116.37 15.4695C116.806 15.7813 117.132 16.174 117.353 16.6359C117.568 17.1036 117.69 17.71 117.72 18.4548H108.947Z" fill="#FF5635"/>
<path d="M145.247 13.1367C143.432 11.133 140.948 10.134 137.784 10.134C137.103 10.134 136.387 10.2726 135.649 10.5613C134.904 10.8442 134.014 11.3235 132.978 11.9991V11.0637C132.978 10.85 132.821 10.6768 132.519 10.5497C132.211 10.4227 131.821 10.3534 131.344 10.3534C131.123 10.3534 130.954 10.365 130.832 10.3765L129.191 10.5613C128.714 10.6133 128.325 10.8038 128.016 11.1387C127.708 11.4679 127.557 11.8721 127.557 12.3456V37.1291C127.557 37.6719 127.731 38.1223 128.08 38.4745C128.429 38.821 128.871 39 129.418 39H131.094C131.64 39 132.088 38.821 132.443 38.4745C132.798 38.1223 132.978 37.6719 132.978 37.1291V28.3001C133.822 29.045 134.636 29.5647 135.422 29.865C136.207 30.1595 137.103 30.3096 138.109 30.3096C141.03 30.3096 143.409 29.3049 145.247 27.2838C147.091 25.2686 148.01 22.9126 148.01 20.2218C148.01 17.5309 147.091 15.1692 145.247 13.1367ZM137.557 25.9846C134.788 25.5515 133.263 24.131 132.978 21.7231V18.3567C133.275 16.1913 134.811 14.8805 137.58 14.4359C141.315 14.5976 143.263 16.6706 143.426 20.6491C143.007 23.8943 141.047 25.6728 137.557 25.9846Z" fill="#FF5635"/>
<path d="M163.857 11.0868C163.583 10.7345 163.258 10.4227 162.88 10.1513C161.867 10.1513 160.919 10.3476 160.023 10.7403C159.133 11.133 158.162 11.8143 157.109 12.7902V11.4736C157.109 11.1445 156.94 10.8789 156.608 10.671C156.277 10.4631 155.846 10.3534 155.329 10.3534C155.166 10.3534 155.044 10.365 154.962 10.3765L153.263 10.5613C152.786 10.6133 152.397 10.8096 152.1 11.1445C151.798 11.4852 151.652 11.8894 151.652 12.3629V28.5831C151.652 29.1259 151.827 29.5705 152.181 29.9227C152.536 30.275 152.984 30.454 153.531 30.454H155.23C155.771 30.454 156.225 30.275 156.579 29.9227C156.934 29.5705 157.109 29.1259 157.109 28.5831V17.889C158.133 15.8448 159.407 14.7535 160.937 14.6207C161.466 14.6438 161.949 14.7188 162.385 14.8401C162.525 14.869 162.624 14.8805 162.693 14.8805C163.031 14.8805 163.333 14.7246 163.595 14.4128C163.851 14.1068 164.031 13.6852 164.124 13.1598L164.247 12.3225C164.258 12.2821 164.27 12.2243 164.27 12.1435C164.27 11.7912 164.13 11.439 163.857 11.0868Z" fill="black"/>
<path d="M185.067 12.9115C183.077 10.9366 180.593 9.94922 177.621 9.94922C174.648 9.94922 172.17 10.9366 170.18 12.9115C168.185 14.8921 167.19 17.3519 167.19 20.3026C167.19 23.2533 168.185 25.6901 170.18 27.6938C172.17 29.6686 174.648 30.6561 177.621 30.6561C180.593 30.6561 183.077 29.6686 185.067 27.6938C187.056 25.719 188.051 23.2533 188.051 20.3026C188.051 17.3519 187.056 14.8921 185.067 12.9115ZM181.611 24.4255C180.617 25.5342 179.279 26.0885 177.603 26.0885C175.928 26.0885 174.59 25.5342 173.595 24.4255C172.56 23.3169 172.042 21.9483 172.042 20.3257C172.042 18.7031 172.56 17.3057 173.595 16.2202C174.59 15.1115 175.916 14.5572 177.58 14.5572C179.244 14.5572 180.617 15.1115 181.611 16.2202C182.647 17.3057 183.165 18.6743 183.165 20.3257C183.165 21.9772 182.647 23.3169 181.611 24.4255Z" fill="black"/>
<path d="M209.465 10.6595C209.11 10.3072 208.662 10.134 208.115 10.134H206.44C205.893 10.134 205.445 10.3072 205.09 10.6595C204.735 11.0117 204.555 11.4563 204.555 11.9991V23.3688C203.659 24.9799 202.548 25.846 201.222 25.9673C199.779 25.9153 198.685 25.488 197.941 24.6854C197.196 23.8885 196.83 22.7683 196.83 21.3189V11.9991C196.83 11.4563 196.649 11.0117 196.294 10.6595C195.939 10.3072 195.492 10.134 194.945 10.134H193.269C192.723 10.134 192.275 10.3072 191.92 10.6595C191.565 11.0117 191.385 11.4563 191.385 11.9991V22.7567C191.385 24.7778 192.071 26.562 193.432 28.1211C194.782 29.6629 196.754 30.4309 199.343 30.4309C200.244 30.4309 201.094 30.275 201.896 29.9574C202.705 29.6398 203.589 29.0797 204.555 28.2828V29.3568C204.555 29.6686 204.735 29.9285 205.09 30.1364C205.445 30.35 205.893 30.454 206.44 30.454H208.115C208.662 30.454 209.11 30.275 209.465 29.9227C209.82 29.5705 210 29.1259 210 28.5831V11.9991C210 11.4563 209.82 11.0117 209.465 10.6595Z" fill="black"/>
<path d="M227.074 28.0807L226.847 27.3474C226.766 27.0471 226.545 26.7872 226.184 26.5678C225.823 26.3426 225.41 26.1694 224.951 26.0481C224.09 26.0481 223.415 25.7883 222.932 25.2686C222.449 24.7431 222.205 23.9347 222.205 22.8376V14.4994H223.805C224.264 14.4994 224.642 14.3204 224.939 13.9682C225.23 13.6159 225.375 13.1713 225.375 12.6285V12.1435C225.375 11.6007 225.201 11.1561 224.846 10.8038C224.491 10.4516 224.043 10.2726 223.496 10.2726H222.205V6.23631C222.205 5.64155 222.001 5.1565 221.582 4.78117C221.169 4.41161 220.657 4.24993 220.058 4.30767L218.36 4.48668C217.883 4.54442 217.493 4.73497 217.184 5.06989C216.882 5.39903 216.725 5.80323 216.725 6.27673V10.2726H215.154C214.689 10.2726 214.305 10.4516 214.008 10.8038C213.706 11.1561 213.554 11.6007 213.554 12.1435V12.6285C213.554 13.1713 213.735 13.6159 214.09 13.9682C214.444 14.3204 214.892 14.4994 215.439 14.4994H216.725V23.6518C216.725 25.667 217.406 27.3069 218.773 28.5657C220.151 29.8246 221.995 30.454 224.317 30.454C224.846 30.454 225.364 30.3904 225.87 30.2692C226.277 30.1768 226.597 29.9689 226.818 29.6513C227.045 29.3337 227.155 28.9873 227.155 28.6062C227.155 28.4156 227.132 28.2424 227.074 28.0807Z" fill="black"/>
<path d="M247.342 12.9923C245.556 11.0983 243.176 10.1513 240.204 10.1513C237.231 10.1513 234.73 11.0983 232.822 12.9923C230.914 14.8921 229.959 17.3231 229.959 20.3026C229.959 23.2822 230.914 25.719 232.822 27.613C234.73 29.507 237.19 30.454 240.204 30.454C243.217 30.454 245.311 29.9343 246.934 28.8891C247.179 28.7274 247.365 28.5311 247.487 28.3001C247.609 28.0691 247.667 27.8266 247.667 27.5726C247.667 27.0413 247.458 26.5678 247.033 26.1521L246.318 25.436C245.992 25.1127 245.596 24.951 245.131 24.951C244.846 24.951 244.555 25.0261 244.253 25.1762C242.984 25.7998 241.635 26.1059 240.204 26.1059C239.017 26.1059 237.993 25.7825 237.138 25.1358C236.713 24.8355 236.382 24.4544 236.137 23.9867C235.887 23.519 235.701 22.9069 235.562 22.1504H248.121C248.662 22.1504 249.116 21.9772 249.471 21.625C249.826 21.2727 250 20.8281 250 20.3026C250 17.3115 249.116 14.8747 247.342 12.9923ZM235.806 18.4548C235.835 17.71 235.957 17.1036 236.178 16.6359C236.393 16.174 236.713 15.7813 237.138 15.4695C237.993 14.8228 239.017 14.4994 240.204 14.4994C241.391 14.4994 242.374 14.8228 243.229 15.4695C243.665 15.7813 243.997 16.174 244.212 16.6359C244.433 17.1036 244.555 17.71 244.584 18.4548H235.806Z" fill="black"/>
</g>
<defs>
<clipPath id="clip0_181_1550">
<rect width="250" height="39" fill="white"/>
</clipPath>
</defs>
</svg>
