<svg width="161" height="156" viewBox="0 0 161 156" fill="none" xmlns="http://www.w3.org/2000/svg">
<g clip-path="url(#clip0_1183_5247)">
<path d="M83.0996 123.36C84.6196 123.36 85.8496 124.11 85.8496 125.04C85.8496 125.97 84.6196 126.72 83.0996 126.72C81.5796 126.72 80.3496 125.97 80.3496 125.04C80.3496 124.11 81.5796 123.36 83.0996 123.36Z" fill="#4D1111"/>
<path d="M142.2 6.09994C142.08 3.91994 143.41 0.799941 145.74 0.429941C145.78 0.429941 145.81 0.419941 145.84 0.409941C147.35 0.199941 148.73 0.909941 149.48 2.08994C146.76 3.60994 145.98 9.08994 148.28 9.52994C148.77 9.61994 149.21 9.54994 149.61 9.35994C149.5 10.4199 149.78 11.3099 150.58 11.6099C151.21 11.8499 151.81 11.7699 152.35 11.5199C152.67 9.36994 154.49 6.66994 156.79 6.69994C156.82 6.69994 156.86 6.69994 156.9 6.69994C157.13 6.69994 157.35 6.72994 157.56 6.77994C159.51 7.18994 160.84 9.13994 160.43 11.1799C160.07 12.9999 159.22 16.8699 157.34 24.4799C154.76 34.8899 151.99 51.6299 147.93 59.2799C143.87 66.9399 139.7 71.3599 136.95 73.7099C135 75.3699 133.76 75.9999 133.76 75.9999C131.6 73.9299 128.8 70.3399 126.1 66.0199C123.91 62.5099 122.18 59.1599 121.12 56.4899L121.2 56.4599C121.2 56.4599 122.84 55.2899 124.69 53.6599C126.54 52.0299 128.59 49.9499 129.4 48.1299C131.01 44.4999 137.32 27.4399 136.92 21.3899C136.52 15.3399 133.56 13.0599 135.31 9.69994C137.06 6.33994 138.13 3.91994 141.89 5.93994C142 5.99994 142.1 6.04994 142.21 6.10994L142.2 6.09994Z" fill="#EFBC83"/>
<path d="M157.56 6.78006C157.35 6.74006 157.13 6.71006 156.9 6.70006C156.87 6.70006 156.83 6.70006 156.79 6.70006C154.49 6.67006 152.67 9.38006 152.35 11.5201C151.81 11.7701 151.21 11.8501 150.58 11.6101C149.78 11.3101 149.5 10.4201 149.61 9.36006C149.83 7.18006 151.7 4.29006 154.08 4.32006H154.19C154.3 4.32006 154.41 4.33006 154.52 4.34006C155.96 4.51006 157.1 5.50006 157.57 6.78006H157.56Z" fill="#EFBC83"/>
<path d="M154.51 4.32004V4.34004C154.4 4.33004 154.29 4.32004 154.18 4.32004H154.07C151.69 4.29004 149.83 7.18004 149.6 9.36004C149.21 9.54004 148.76 9.62004 148.27 9.53004C145.97 9.09004 146.75 3.61004 149.47 2.09004C149.77 1.92004 150.11 1.80004 150.46 1.74004C150.49 1.74004 150.53 1.74004 150.56 1.72004C152.14 1.49004 153.56 2.04004 154.49 4.32004H154.51Z" fill="#EFBC83"/>
<path d="M136.95 73.7C137.69 75.9 137.82 77.41 137.18 77.81C136.56 78.2 135.33 77.49 133.77 75.99C133.77 75.99 135.01 75.37 136.96 73.7H136.95Z" fill="#4D1111"/>
<path d="M52.8302 98.26L47.3502 101.44C46.0202 89.55 46.6602 81.87 45.6902 73.6C45.6902 73.6 45.2502 73.64 44.4902 73.7V73.6C52.4102 67.24 71.8202 65.18 71.8202 65.18H71.8402C71.9902 66.19 72.0602 67.32 71.9402 68.49C75.4802 70.34 82.8602 72.89 87.4502 65.11C86.4702 64.1 85.7902 62.99 85.3202 61.93C87.9002 61.71 109.35 59.61 120.24 50.96C119.6 51.56 119.97 53.63 121.11 56.48C122.17 59.15 123.9 62.5 126.09 66.01C128.79 70.33 131.59 73.92 133.75 75.99C135.32 77.49 136.55 78.2 137.16 77.81C137.16 77.81 131.32 84.95 119.37 92.56C119.08 103.83 117.42 120.54 110.23 122.34V120.73C110.23 120.73 91.5302 123.59 78.0102 120.9C76.4602 120.59 74.9902 120.21 73.6102 119.75C69.4402 121.4 66.9102 122.94 66.9102 122.94V125.36C56.5202 123.73 53.6202 106.48 52.8302 98.25V98.26ZM109.48 98.23C109.48 95.45 107.23 93.2 104.45 93.2C101.67 93.2 99.4202 95.45 99.4202 98.23C99.4202 101.01 101.67 103.26 104.45 103.26C107.23 103.26 109.48 101.01 109.48 98.23ZM98.0402 88.3C101.22 86.12 102.99 84.25 102.54 83.24C102.1 82.26 99.6702 82.28 96.1202 83.11C92.6302 77.54 85.4802 75.24 79.3002 77.99C73.1202 80.73 70.0302 87.58 71.8202 93.9C68.8202 95.99 67.1802 97.78 67.6102 98.76C68.0602 99.77 70.6402 99.72 74.3802 98.81C78.1202 103.35 84.5602 105.04 90.2002 102.54C95.8402 100.03 98.9002 94.12 98.0402 88.3ZM69.0702 83.28C69.0702 82.09 68.1102 81.13 66.9202 81.13C65.7302 81.13 64.7702 82.09 64.7702 83.28C64.7702 84.47 65.7302 85.43 66.9202 85.43C68.1102 85.43 69.0702 84.47 69.0702 83.28Z" fill="white"/>
<path d="M124.69 53.65C122.84 55.28 121.2 56.45 121.2 56.45L121.12 56.48C119.98 53.62 119.6 51.56 120.25 50.96C120.28 50.93 120.31 50.91 120.35 50.88C121.08 50.42 122.69 51.51 124.69 53.65Z" fill="#4D1111"/>
<path d="M115.09 144.98C115.51 148.11 115.75 151.51 115.69 155.07H89.3598C89.3498 153.95 89.3299 152.78 89.2999 151.58C89.0999 141.35 88.5898 128.87 88.5898 128.87C92.3298 128.89 96.3598 128.74 100.54 128.29C100.54 128.29 107.91 147.93 115.1 144.98H115.09Z" fill="#F1BD1B"/>
<path d="M115.09 144.98C107.9 147.93 100.53 128.29 100.53 128.29C103.71 127.95 106.97 127.45 110.25 126.72C110.25 126.72 113.67 134.28 115.09 144.98Z" fill="#FFCB00"/>
<path d="M82.4095 128.67C80.8595 128.58 79.3895 128.46 78.0195 128.34V120.92C91.5395 123.61 110.24 120.75 110.24 120.75V126.73C106.96 127.45 103.7 127.96 100.52 128.3C96.3395 128.75 92.3095 128.9 88.5695 128.88C86.3995 128.87 84.3395 128.8 82.3995 128.68L82.4095 128.67ZM85.8495 125.04C85.8495 124.11 84.6195 123.36 83.0995 123.36C81.5795 123.36 80.3495 124.11 80.3495 125.04C80.3495 125.97 81.5795 126.72 83.0995 126.72C84.6195 126.72 85.8495 125.97 85.8495 125.04Z" fill="#FEE0AA"/>
<path d="M104.45 93.2C107.23 93.2 109.48 95.45 109.48 98.23C109.48 101.01 107.23 103.26 104.45 103.26C101.67 103.26 99.4199 101.01 99.4199 98.23C99.4199 95.45 101.67 93.2 104.45 93.2Z" fill="#FFCB00"/>
<path d="M102.54 83.24C102.99 84.25 101.22 86.13 98.0404 88.3C97.8704 87.12 97.5303 85.95 97.0203 84.8C96.7603 84.2 96.4504 83.63 96.1104 83.1C99.6704 82.27 102.1 82.25 102.53 83.23L102.54 83.24Z" fill="white"/>
<path d="M98.0301 88.3C98.8901 94.12 95.8301 100.03 90.1901 102.54C84.5501 105.04 78.1101 103.35 74.3701 98.81C77.7401 98 82.0501 96.5 86.6101 94.47C91.1701 92.44 95.1701 90.25 98.0301 88.3Z" fill="#FF5635"/>
<path d="M97.0197 84.8099C97.5297 85.9499 97.8597 87.1299 98.0397 88.3099C95.1797 90.2599 91.1797 92.4499 86.6197 94.4799C82.0597 96.5099 77.7497 98.0099 74.3797 98.8199C73.6197 97.8999 72.9797 96.8699 72.4697 95.7199C72.2097 95.1199 71.9897 94.5099 71.8097 93.8999C70.0197 87.5699 73.1097 80.7299 79.2897 77.9899C85.4697 75.2399 92.6197 77.5399 96.1097 83.1099C96.4497 83.6499 96.7497 84.2199 97.0197 84.8099Z" fill="#FF5635"/>
<path d="M49.5297 31.98C42.8397 30.24 43.8897 21.05 48.8697 17.16C51.0997 15.42 53.5597 14.94 55.5697 15.13C55.6197 17.75 58.1897 19.77 59.3297 18.7C60.7597 17.35 58.6897 15.43 55.5697 15.13C55.5397 13.68 56.2897 12.05 58.4797 10.67C63.9397 7.23003 69.2297 12.3 69.2297 12.3C70.4197 10.13 73.4097 8.53003 77.8597 9.08003C85.3597 10 85.7097 16.85 85.7097 16.85C86.7497 16.55 88.1497 16.45 89.7097 17.08C91.4897 17.8 92.7397 19.67 93.0397 21.45C88.3097 20.56 87.6697 26.01 91.0097 25.18C92.7697 24.74 93.3397 23.14 93.0397 21.45C93.4397 21.52 93.8697 21.64 94.3297 21.82C99.7297 23.86 99.9597 34.02 92.2297 35.64C92.2297 35.64 92.8797 37.88 90.8997 39.13C90.4297 38.38 89.7697 37.87 88.9797 37.74C88.4197 37.65 87.8697 37.74 87.3497 38.02C87.1797 36.62 86.9897 35.64 86.9197 35.29C85.7797 34.81 84.8297 33.68 84.1897 32.73C80.6897 35.92 77.1597 31.74 75.5297 29.26C73.4997 30.44 69.6197 32.45 66.6597 32.46C67.8697 29.08 63.5997 26.63 63.0697 29.17C62.9397 29.77 63.0997 30.4 63.4297 30.92C64.1197 32.05 65.2897 32.47 66.6697 32.46C66.2797 33.55 65.3297 34.72 63.5097 35.86C62.1297 36.73 60.5897 37.34 58.9897 37.6C58.4897 37.68 57.9897 37.73 57.4797 37.74C55.0897 37.79 53.3697 37.07 52.1397 36.05C50.7097 34.86 49.9397 33.27 49.5297 31.99V31.98Z" fill="black"/>
<path d="M93.0299 21.4601C93.3199 23.1501 92.7599 24.7501 90.9999 25.1901C87.6699 26.0201 88.3099 20.5701 93.0299 21.4601Z" fill="black"/>
<path d="M90.8996 39.13C91.5496 40.17 91.8296 41.66 91.5696 43.25C91.1296 45.87 89.3596 47.77 87.5596 47.64C87.7396 45.83 87.7696 44.03 87.7096 42.39C87.6796 41.52 87.6296 40.7 87.5596 39.94C87.4996 39.24 87.4296 38.59 87.3496 38.01C87.8696 37.74 88.4296 37.64 88.9796 37.73C89.7696 37.86 90.4296 38.37 90.8996 39.12V39.13Z" fill="#EFBC83"/>
<path d="M89.3498 155.06H64.8998C64.4098 151.81 64.2798 148.47 64.3598 145.27C69.8198 144.05 71.4798 127.53 71.4798 127.53C73.2398 127.8 75.4598 128.09 78.0198 128.33C79.3898 128.46 80.8598 128.57 82.4098 128.66C82.4098 128.95 82.8298 153.43 89.2898 151.56C89.3098 152.76 89.3298 153.94 89.3498 155.05V155.06Z" fill="#F1BD1B"/>
<path d="M88.5802 128.86C88.5802 128.86 89.0902 141.34 89.2902 151.57C82.8202 153.44 82.4102 128.96 82.4102 128.67C84.3502 128.78 86.4102 128.85 88.5802 128.87V128.86Z" fill="#F1BD1B"/>
<path d="M70.8303 49.47C70.2003 48.82 69.8903 48.06 71.0303 47.52C73.1203 46.54 73.0303 43.83 72.9903 43.26L73.4603 43.21C73.4603 43.28 73.4703 43.35 73.4803 43.42C73.9403 47.32 77.4703 50.11 81.3703 49.65C85.0603 49.21 87.7503 46.03 87.6503 42.39H87.7003C87.7603 44.03 87.7303 45.82 87.5503 47.64C87.2003 51.13 86.2703 54.7 84.2403 57.38C82.5703 59.58 80.1503 61.18 76.6903 61.65C74.4103 61.96 72.4203 61.7 70.6903 61.03C66.3303 59.35 63.5703 55.07 61.8403 50.62C61.7503 50.38 61.6603 50.14 61.5703 49.9C63.0003 51.02 64.8503 51.6 66.7903 51.37C68.3703 51.18 69.7603 50.49 70.8403 49.48L70.8303 49.47Z" fill="#EFBC83"/>
<path d="M87.5505 39.94C87.6105 40.7 87.6705 41.52 87.7005 42.39H87.6505C87.6505 42.18 87.6305 41.97 87.6005 41.76C87.1405 37.86 83.6105 35.07 79.7105 35.53C75.8805 35.98 73.1205 39.4 73.4605 43.22L72.9905 43.27C72.4305 39.49 68.9505 36.81 65.1305 37.26C62.6105 37.56 60.5505 39.14 59.5305 41.27C59.4905 41.26 59.4505 41.25 59.4005 41.24C59.0605 39.05 58.9805 37.61 58.9805 37.61C60.5805 37.35 62.1205 36.74 63.5005 35.87C65.3105 34.73 66.2705 33.55 66.6605 32.47C69.6205 32.46 73.5005 30.45 75.5305 29.27C77.1705 31.75 80.6905 35.94 84.1905 32.74C84.8305 33.69 85.7705 34.83 86.9205 35.3C86.9905 35.65 87.1705 36.63 87.3505 38.03C87.4205 38.61 87.4905 39.26 87.5605 39.96L87.5505 39.94Z" fill="#EFBC83"/>
<path d="M87.65 42.39C87.76 46.03 85.06 49.21 81.37 49.65C77.47 50.11 73.94 47.32 73.48 43.42C73.48 43.35 73.47 43.28 73.46 43.21C73.12 39.39 75.88 35.97 79.71 35.52C83.61 35.06 87.14 37.85 87.6 41.75C87.62 41.96 87.64 42.17 87.65 42.38V42.39Z" fill="white"/>
<path d="M85.3297 61.93C85.7997 62.99 86.4797 64.1 87.4597 65.11C82.8697 72.89 75.4897 70.35 71.9497 68.49C72.0597 67.32 71.9997 66.19 71.8497 65.17C71.5097 62.83 70.7297 61.12 70.6797 61.01C72.4097 61.68 74.3997 61.93 76.6797 61.63C80.1397 61.16 82.5597 59.56 84.2297 57.36C84.2297 57.46 84.2497 59.55 85.3197 61.91L85.3297 61.93Z" fill="#EFBC83"/>
<path d="M81.6204 42.1C81.7204 43.38 81.1504 44.47 80.3504 44.53C79.5504 44.59 78.8204 43.6 78.7204 42.32C78.6204 41.04 79.1904 39.95 79.9904 39.89C80.7904 39.83 81.5204 40.82 81.6204 42.1Z" fill="#4D1111"/>
<path d="M78.0201 120.91V128.33C75.4601 128.09 73.2402 127.8 71.4802 127.53C68.5902 127.09 66.9102 126.71 66.9102 126.71V122.95C66.9102 122.95 69.4402 121.41 73.6102 119.76C74.9802 120.22 76.4602 120.61 78.0102 120.91H78.0201Z" fill="#FEE0AA"/>
<path d="M72.9797 43.26C73.0197 43.84 73.1097 46.55 71.0197 47.52C69.8797 48.05 70.1897 48.82 70.8197 49.47C69.7497 50.49 68.3497 51.18 66.7697 51.36C64.8297 51.59 62.9697 51.01 61.5497 49.89C60.1097 48.76 59.1097 47.09 58.8797 45.13C58.7197 43.75 58.9597 42.42 59.5197 41.25C60.5397 39.12 62.5897 37.54 65.1197 37.24C68.9497 36.79 72.4197 39.47 72.9797 43.25V43.26Z" fill="white"/>
<path d="M72.4597 95.72C72.9697 96.86 73.6097 97.9 74.3697 98.82C70.6197 99.72 68.0497 99.77 67.5997 98.77C67.1597 97.79 68.8097 96 71.8097 93.91C71.9797 94.52 72.1997 95.13 72.4697 95.73L72.4597 95.72Z" fill="white"/>
<path d="M71.4804 127.53C71.4804 127.53 69.8204 144.04 64.3604 145.27C64.6004 135.28 66.9203 126.71 66.9203 126.71C66.9203 126.71 68.5903 127.09 71.4903 127.53H71.4804Z" fill="#FFCB00"/>
<path d="M66.9195 81.12C68.1095 81.12 69.0695 82.08 69.0695 83.27C69.0695 84.46 68.1095 85.42 66.9195 85.42C65.7295 85.42 64.7695 84.46 64.7695 83.27C64.7695 82.08 65.7295 81.12 66.9195 81.12Z" fill="#F05751"/>
<path d="M67.4804 43.86C67.6504 45.14 67.1504 46.26 66.3604 46.36C65.5704 46.47 64.7804 45.52 64.6104 44.25C64.4304 42.97 64.9404 41.85 65.7304 41.75C66.5204 41.64 67.3104 42.59 67.4804 43.86Z" fill="#4D1111"/>
<path d="M63.0598 29.15C63.5898 26.62 67.8598 29.06 66.6498 32.44C65.2798 32.44 64.1098 32.03 63.4098 30.9C63.0798 30.38 62.9298 29.75 63.0498 29.15H63.0598Z" fill="black"/>
<path d="M61.5598 49.89C61.6498 50.13 61.7398 50.37 61.8298 50.61C60.0798 51.31 57.8098 49.86 56.7398 47.33C56.2798 46.24 56.1098 45.13 56.2198 44.15C56.3498 42.85 56.9698 41.8 57.9698 41.37C58.4198 41.18 58.9098 41.13 59.3998 41.21C59.4398 41.21 59.4798 41.22 59.5298 41.24C58.9698 42.41 58.7298 43.74 58.8898 45.12C59.1198 47.08 60.1298 48.75 61.5598 49.88V49.89Z" fill="#EFBC83"/>
<path d="M55.5596 15.13C58.6896 15.43 60.7596 17.35 59.3196 18.7C58.1696 19.78 55.5996 17.75 55.5596 15.13Z" fill="black"/>
<path d="M59.4003 41.22C58.9103 41.14 58.4203 41.19 57.9703 41.38C56.9703 41.81 56.3503 42.86 56.2203 44.16C53.8303 43.54 50.8403 41.67 52.1403 36.04C53.3703 37.06 55.0803 37.78 57.4803 37.73C57.9903 37.73 58.4903 37.67 58.9903 37.59C58.9903 37.59 59.0703 39.04 59.4103 41.22H59.4003Z" fill="black"/>
<path d="M47.8401 105.31C49.8101 119.46 47.8401 134.63 47.8401 134.63C47.8401 134.63 41.0301 134.32 29.3901 134.63C17.7501 134.93 0.370117 134.63 0.370117 134.63C2.34012 128.49 1.98012 113.9 1.44012 101.44C0.900117 88.98 0.370117 73.6 0.370117 73.6C4.40012 74.25 8.92012 74.6 13.4901 74.76L13.7601 74.73C13.7801 74.93 13.8101 75.14 13.8501 75.35C13.9801 76.06 14.2101 76.79 14.5301 77.5C15.4501 79.53 17.5701 79.49 18.6501 78.4C19.6801 79.28 21.2001 79.04 22.0101 78.03C23.1001 79.42 25.0901 79.14 25.9201 77.76C27.2701 79.97 30.5801 78.91 30.3901 76.1C30.3501 75.58 30.3501 75.13 30.3601 74.75C33.0501 74.61 35.9201 74.41 38.4401 74.22C41.0001 74.03 43.2001 73.84 44.4901 73.73C45.2501 73.67 45.6901 73.63 45.6901 73.63C46.6601 81.9 46.0201 89.59 47.3501 101.47C47.4901 102.71 47.6501 104 47.8301 105.34L47.8401 105.31ZM46.2601 115.83C46.2601 108.89 40.6301 103.26 33.6901 103.26C26.7501 103.26 21.1201 108.89 21.1201 115.83C21.1201 122.77 26.7501 128.4 33.6901 128.4C40.6301 128.4 46.2601 122.77 46.2601 115.83Z" fill="white"/>
<path d="M37.7501 118.67C37.4401 113.15 36.7301 106.17 35.1201 105.85C33.4601 105.52 31.6601 112.3 30.5301 117.52L37.7501 118.67ZM33.6901 103.26C40.6301 103.26 46.2601 108.89 46.2601 115.83C46.2601 122.77 40.6301 128.4 33.6901 128.4C26.7501 128.4 21.1201 122.77 21.1201 115.83C21.1201 108.89 26.7501 103.26 33.6901 103.26Z" fill="white"/>
<path d="M30.3705 74.7199C30.3605 75.1099 30.3705 75.5499 30.4005 76.0699C30.6005 78.8799 27.2805 79.95 25.9305 77.7299C25.7505 77.4399 25.6105 77.0799 25.5105 76.6699C24.8105 73.6599 25.3605 70.6199 27.2205 69.3299C27.4405 69.1699 27.6705 69.0499 27.9305 68.9499C28.5405 68.7099 29.2205 68.6799 29.8605 68.7899C32.9605 69.3299 33.4205 72.5599 33.4205 72.5599C33.4205 72.5599 34.8505 71.1999 36.0505 69.5799C37.0605 68.2299 38.2105 67.5399 39.3705 68.1899C39.8905 68.4799 40.2605 68.9999 40.3905 69.5799C40.7705 71.3799 39.8705 73.3899 38.4605 74.1999C35.9405 74.3899 33.0705 74.59 30.3805 74.7299L30.3705 74.7199Z" fill="#EFBC83"/>
<path d="M37.7503 118.67L30.5303 117.52C31.6603 112.3 33.4603 105.52 35.1203 105.85C36.7303 106.17 37.4403 113.15 37.7503 118.67Z" fill="white"/>
<path d="M27.2196 69.34C25.3696 70.63 24.8196 73.67 25.5096 76.68C25.6096 77.09 25.7496 77.45 25.9296 77.74C25.0996 79.12 23.1096 79.41 22.0196 78.01C21.7496 77.67 21.5396 77.23 21.4096 76.68C21.3096 76.26 21.2396 75.84 21.1896 75.42C21.0396 74.16 21.1196 72.94 21.4296 71.89C21.7696 70.72 22.3896 69.77 23.2996 69.22C23.4696 69.12 23.6496 69.03 23.8296 68.96C24.4396 68.72 25.1096 68.69 25.7596 68.8C26.3296 68.9 26.8096 69.09 27.2196 69.34Z" fill="#EFBC83"/>
<path d="M23.3003 69.22C22.3903 69.77 21.7703 70.72 21.4303 71.89C21.1203 72.94 21.0503 74.16 21.1903 75.42C21.2403 75.84 21.3103 76.26 21.4103 76.68C21.5403 77.23 21.7503 77.67 22.0203 78.01C21.2103 79.02 19.6903 79.26 18.6603 78.38C18.2303 78.01 17.8803 77.45 17.7003 76.68C17.6003 76.26 17.5303 75.84 17.4803 75.42C17.2203 73.14 17.6803 70.99 18.9003 69.76C19.2403 69.41 19.6503 69.14 20.1103 68.96C20.7203 68.72 21.3903 68.69 22.0403 68.8C22.5203 68.88 22.9303 69.03 23.2903 69.22H23.3003Z" fill="#EFBC83"/>
<path d="M17.7001 76.6799C17.8801 77.4599 18.2301 78.0199 18.6601 78.3799C17.5701 79.4799 15.4601 79.5199 14.5401 77.4799C14.2201 76.7699 13.9901 76.0399 13.8601 75.3299C13.8201 75.1199 13.7901 74.9199 13.7701 74.7099C13.5501 72.7299 14.1401 70.9299 15.6601 70.0499C16.2201 69.7199 16.8801 69.5799 17.5301 69.5699C18.0401 69.5699 18.5001 69.6299 18.9001 69.7499C17.6801 70.9799 17.2101 73.13 17.4801 75.41C17.5301 75.83 17.6001 76.2499 17.7001 76.6699V76.6799Z" fill="#EFBC83"/>
<path d="M105.27 35.79C105.27 35.3 105.67 34.9 106.16 34.9C106.65 34.9 107.05 35.3 107.05 35.79C107.05 36.28 106.65 36.68 106.16 36.68C105.67 36.68 105.27 36.28 105.27 35.79Z" fill="#4D1111"/>
<path d="M112.29 35.79C112.29 35.3 112.69 34.9 113.18 34.9C113.67 34.9 114.07 35.3 114.07 35.79C114.07 36.28 113.67 36.68 113.18 36.68C112.69 36.68 112.29 36.28 112.29 35.79Z" fill="#4D1111"/>
<path d="M108.779 35.79C108.779 35.3 109.179 34.9 109.669 34.9C110.159 34.9 110.559 35.3 110.559 35.79C110.559 36.28 110.159 36.68 109.669 36.68C109.179 36.68 108.779 36.28 108.779 35.79Z" fill="#4D1111"/>
<path d="M106.15 41.96C106.64 41.96 107.04 42.36 107.04 42.85C107.04 43.34 106.64 43.74 106.15 43.74C105.66 43.74 105.26 43.34 105.26 42.85C105.26 42.36 105.66 41.96 106.15 41.96Z" fill="#4D1111"/>
<path d="M106.15 38.4501C106.64 38.4501 107.04 38.8501 107.04 39.3401C107.04 39.8301 106.64 40.2301 106.15 40.2301C105.66 40.2301 105.26 39.8301 105.26 39.3401C105.26 38.8501 105.66 38.4501 106.15 38.4501Z" fill="#4D1111"/>
<path d="M109.669 41.96C110.159 41.96 110.559 42.36 110.559 42.85C110.559 43.34 110.159 43.74 109.669 43.74C109.179 43.74 108.779 43.34 108.779 42.85C108.779 42.36 109.179 41.96 109.669 41.96Z" fill="#4D1111"/>
<path d="M109.669 38.4501C110.159 38.4501 110.559 38.8501 110.559 39.3401C110.559 39.8301 110.159 40.2301 109.669 40.2301C109.179 40.2301 108.779 39.8301 108.779 39.3401C108.779 38.8501 109.179 38.4501 109.669 38.4501Z" fill="#4D1111"/>
<path d="M113.18 41.96C113.67 41.96 114.07 42.36 114.07 42.85C114.07 43.34 113.67 43.74 113.18 43.74C112.69 43.74 112.29 43.34 112.29 42.85C112.29 42.36 112.69 41.96 113.18 41.96Z" fill="#4D1111"/>
<path d="M113.18 38.4501C113.67 38.4501 114.07 38.8501 114.07 39.3401C114.07 39.8301 113.67 40.2301 113.18 40.2301C112.69 40.2301 112.29 39.8301 112.29 39.3401C112.29 38.8501 112.69 38.4501 113.18 38.4501Z" fill="#4D1111"/>
<path d="M46.26 57.9401C46.17 57.9401 46.07 57.9001 46 57.8301L44.48 56.3101C44.34 56.1701 44.34 55.9301 44.48 55.7901C44.62 55.6501 44.86 55.6501 45 55.7901L46.52 57.3101C46.66 57.4501 46.66 57.6901 46.52 57.8301C46.45 57.9001 46.35 57.9401 46.26 57.9401Z" fill="#4D1111"/>
<path d="M49.97 61.65C49.88 61.65 49.78 61.61 49.71 61.54L48.19 60.02C48.05 59.88 48.05 59.64 48.19 59.5C48.33 59.36 48.57 59.36 48.71 59.5L50.23 61.02C50.37 61.16 50.37 61.4 50.23 61.54C50.16 61.61 50.06 61.65 49.97 61.65Z" fill="#4D1111"/>
<path d="M48.45 57.9401C48.36 57.9401 48.26 57.9001 48.19 57.8301C48.05 57.6901 48.05 57.4501 48.19 57.3101L49.71 55.7901C49.85 55.6501 50.09 55.6501 50.23 55.7901C50.37 55.9301 50.37 56.1701 50.23 56.3101L48.71 57.8301C48.64 57.9001 48.54 57.9401 48.45 57.9401Z" fill="#4D1111"/>
<path d="M44.74 61.65C44.65 61.65 44.55 61.61 44.48 61.54C44.34 61.4 44.34 61.16 44.48 61.02L46 59.5C46.14 59.36 46.38 59.36 46.52 59.5C46.66 59.64 46.66 59.88 46.52 60.02L45 61.54C44.93 61.61 44.83 61.65 44.74 61.65Z" fill="#4D1111"/>
<path d="M16.7201 135.14C8.18013 135.14 0.480133 135.01 0.360133 135.01C0.240133 135.01 0.130133 134.95 0.0601328 134.86C-0.00986719 134.76 -0.0298672 134.64 0.0101328 134.53C1.94013 128.51 1.63013 114.44 1.07013 101.47C0.540133 89.14 0.000132814 73.77 0.000132814 73.61C0.000132814 73.5 0.0401328 73.39 0.130133 73.32C0.210133 73.25 0.320133 73.21 0.430133 73.23C4.13013 73.82 8.53013 74.21 13.5101 74.39C13.7101 74.39 13.8701 74.57 13.8701 74.77C13.8701 74.97 13.6901 75.14 13.4901 75.13C8.68013 74.96 4.40013 74.59 0.770133 74.04C0.860133 76.67 1.35013 90.29 1.83013 101.43C2.38013 114.14 2.69013 127.91 0.880133 134.27C3.79013 134.32 18.9801 134.53 29.3901 134.27C39.4701 134 46.0001 134.2 47.5201 134.26C47.7901 131.95 49.2601 118.16 47.4801 105.37C47.3001 104.06 47.1401 102.76 46.9901 101.49C46.2701 95.09 46.1201 89.84 45.9901 85.2C45.8801 81.35 45.7801 77.7 45.3601 74.01C45.1601 74.03 44.8701 74.05 44.5201 74.08C43.1401 74.2 40.9801 74.38 38.4701 74.57C35.3901 74.8 32.6701 74.98 30.3801 75.1C30.1801 75.11 30.0001 74.95 29.9901 74.75C29.9801 74.55 30.1401 74.37 30.3401 74.36C32.6201 74.24 35.3401 74.06 38.4101 73.83C40.9101 73.64 43.0801 73.46 44.4501 73.34C45.2101 73.28 45.6501 73.24 45.6501 73.24C45.8501 73.22 46.0301 73.37 46.0501 73.57C46.5001 77.42 46.6101 81.19 46.7201 85.19C46.8501 89.81 47.0001 95.05 47.7101 101.42C47.8501 102.68 48.0101 103.98 48.1901 105.28C50.1401 119.32 48.2101 134.55 48.1901 134.7C48.1701 134.89 47.9901 135.03 47.8101 135.02C47.7401 135.02 40.8801 134.72 29.3901 135.02C25.5301 135.12 21.0201 135.15 16.7201 135.15V135.14Z" fill="#4D1111"/>
<path d="M121.2 56.82C121.08 56.82 120.97 56.77 120.9 56.66C120.78 56.49 120.82 56.26 120.99 56.14C121.01 56.13 122.64 54.96 124.45 53.36C126.83 51.26 128.42 49.4 129.06 47.96C130.94 43.74 136.94 27.21 136.55 21.4C136.38 18.85 135.76 17.01 135.21 15.39C134.49 13.25 133.91 11.57 134.98 9.51L135.17 9.15C136.25 7.06 137.11 5.41 138.63 4.94C139.58 4.65 140.7 4.86 142.07 5.59L142.18 5.65C142.25 5.69 142.31 5.72 142.38 5.75C143.44 6.3 144.25 6.63 144.84 6.87C145.95 7.32 146.56 7.57 146.69 8.51C146.77 9.13 146.62 9.77 146.25 10.3C145.61 11.22 144.53 11.77 143.27 11.81C142.34 11.84 141.34 11.59 140.38 11.08C140.2 10.98 140.13 10.76 140.22 10.58C140.31 10.4 140.54 10.33 140.72 10.42C141.57 10.87 142.45 11.09 143.25 11.07C144.27 11.04 145.14 10.61 145.64 9.88C145.9 9.5 146.01 9.04 145.95 8.6C145.89 8.13 145.7 8.02 144.56 7.55C143.95 7.3 143.13 6.96 142.04 6.4C141.97 6.37 141.9 6.33 141.83 6.29L141.72 6.23C140.54 5.6 139.6 5.4 138.85 5.63C137.62 6.01 136.83 7.54 135.83 9.47L135.64 9.83C134.72 11.6 135.22 13.08 135.91 15.13C136.45 16.71 137.11 18.68 137.29 21.33C137.71 27.61 131.12 45.14 129.74 48.24C129.05 49.8 127.43 51.7 124.94 53.9C123.1 55.52 121.44 56.71 121.42 56.72C121.35 56.77 121.28 56.79 121.2 56.79V56.82Z" fill="#4D1111"/>
<path d="M145.11 17.32C145.11 17.32 145.08 17.32 145.06 17.32C144.86 17.29 144.71 17.11 144.74 16.91C145.11 13.91 143.01 11.75 142.99 11.73C142.85 11.58 142.85 11.35 142.99 11.21C143.13 11.07 143.37 11.07 143.51 11.21C143.61 11.31 145.9 13.64 145.47 17.01C145.45 17.2 145.29 17.33 145.1 17.33L145.11 17.32Z" fill="#4D1111"/>
<path d="M133.76 76.36C133.62 76.36 133.49 76.29 133.43 76.16C133.34 75.98 133.41 75.75 133.59 75.66C133.6 75.66 134.82 75.03 136.7 73.42C139.45 71.08 143.57 66.69 147.6 59.1C150.55 53.55 152.82 43.07 154.83 33.83C155.57 30.41 156.28 27.18 156.97 24.39C158.83 16.88 159.68 13.02 160.06 11.11C160.42 9.29999 159.26 7.51999 157.48 7.14999C157.29 7.10999 157.09 7.08999 156.89 7.07999H156.8C154.61 7.05999 153 9.72999 152.73 11.59C152.65 12.1 152.57 13.34 153.44 13.66C155.48 14.43 157.31 11.09 157.33 11.05C157.43 10.87 157.65 10.8 157.83 10.9C158.01 11 158.08 11.22 157.98 11.4C157.89 11.56 155.83 15.35 153.18 14.35C152.23 13.99 151.78 12.92 152 11.47C152.32 9.28999 154.17 6.28999 156.81 6.32999H156.91C157.16 6.33999 157.41 6.36999 157.64 6.41999C159.82 6.87999 161.24 9.04999 160.8 11.25C160.42 13.17 159.57 17.04 157.7 24.57C157.01 27.35 156.31 30.58 155.57 33.99C153.55 43.28 151.26 53.81 148.27 59.45C144.19 67.15 140 71.6 137.2 73.99C135.24 75.66 133.99 76.3 133.94 76.33C133.89 76.36 133.83 76.37 133.77 76.37L133.76 76.36Z" fill="#4D1111"/>
<path d="M151.35 12.1299C151.05 12.1299 150.75 12.0699 150.46 11.9599C149.55 11.6199 149.11 10.6599 149.25 9.31994C149.48 7.05994 151.41 3.93994 154.05 3.93994C154.06 3.93994 154.08 3.93994 154.09 3.93994H154.19C154.31 3.93994 154.42 3.94994 154.56 3.96994C156.1 4.14994 157.38 5.17994 157.91 6.64994C157.98 6.83994 157.88 7.05994 157.69 7.12994C157.5 7.19994 157.28 7.09994 157.21 6.90994C156.77 5.69994 155.72 4.85994 154.47 4.70994C154.38 4.69994 154.28 4.68994 154.18 4.68994H154.08C151.87 4.66994 150.18 7.45994 149.98 9.39994C149.92 9.96994 149.94 10.9799 150.71 11.2699C151.19 11.4499 151.68 11.4199 152.2 11.1899C152.39 11.0999 152.61 11.1899 152.69 11.3699C152.78 11.5599 152.69 11.7799 152.51 11.8599C152.12 12.0399 151.73 12.1299 151.35 12.1299Z" fill="#4D1111"/>
<path d="M148.7 9.92999C148.54 9.92999 148.38 9.90999 148.22 9.87999C147.37 9.71999 146.8 9.00999 146.62 7.88999C146.29 5.86999 147.32 2.85999 149.3 1.74999C149.64 1.55999 150.02 1.41999 150.41 1.35999C150.41 1.35999 150.45 1.35999 150.47 1.34999H150.5H150.52C152.5 1.05999 153.96 2.00999 154.85 4.16999C154.93 4.35999 154.84 4.57999 154.65 4.64999C154.46 4.72999 154.24 4.63999 154.17 4.44999C153.41 2.59999 152.28 1.83999 150.64 2.07999C150.62 2.07999 150.6 2.07999 150.58 2.08999H150.55C150.22 2.14999 149.93 2.24999 149.66 2.39999C147.99 3.32999 147.06 6.00999 147.34 7.77999C147.43 8.33999 147.68 9.02999 148.34 9.15999C148.72 9.22999 149.09 9.17999 149.44 9.01999C149.63 8.92999 149.85 9.01999 149.93 9.19999C150.02 9.38999 149.93 9.60999 149.75 9.68999C149.41 9.84999 149.05 9.92999 148.68 9.92999H148.7Z" fill="#4D1111"/>
<path d="M142.2 6.48005C142 6.48005 141.83 6.31005 141.83 6.11005C141.71 3.92005 143 0.500054 145.68 0.0700542C145.71 0.0700542 145.73 0.0700542 145.75 0.0600542C145.76 0.0600542 145.78 0.0600542 145.79 0.0600542C147.38 -0.159946 148.92 0.540054 149.8 1.90005C149.91 2.07005 149.86 2.30005 149.69 2.41005C149.52 2.52005 149.29 2.47005 149.18 2.30005C148.46 1.19005 147.21 0.610054 145.92 0.790054C145.88 0.790054 145.84 0.810054 145.8 0.810054C143.68 1.15005 142.47 4.17005 142.58 6.09005C142.58 6.09005 142.58 6.11005 142.58 6.12005C142.58 6.32005 142.41 6.49005 142.21 6.49005L142.2 6.48005Z" fill="#4D1111"/>
<path d="M136.78 78.29C136 78.29 134.92 77.62 133.5 76.26C131.22 74.08 128.41 70.41 125.78 66.21C123.66 62.81 121.88 59.41 120.77 56.62C119.48 53.4 119.22 51.41 119.99 50.69C120.04 50.64 120.09 50.61 120.14 50.57C121.05 50 122.67 50.96 124.96 53.4C125.1 53.55 125.09 53.78 124.94 53.92C124.79 54.06 124.56 54.05 124.42 53.9C122.03 51.35 120.86 51 120.54 51.19C120.53 51.19 120.51 51.21 120.5 51.22C120.14 51.56 120.17 53.1 121.47 56.33C122.56 59.07 124.32 62.44 126.42 65.8C129.01 69.95 131.78 73.56 134.02 75.71C135.71 77.33 136.67 77.68 136.98 77.49C137.31 77.29 137.4 76.2 136.6 73.81C136.59 73.77 136.58 73.73 136.58 73.69C136.58 73.49 136.75 73.32 136.95 73.32C137.12 73.32 137.27 73.44 137.31 73.6C138.16 76.14 138.18 77.62 137.37 78.12C137.2 78.23 137 78.28 136.78 78.28V78.29Z" fill="#4D1111"/>
<path d="M44.4798 73.97C44.3698 73.97 44.2598 73.92 44.1898 73.83C44.0598 73.67 44.0898 73.44 44.2498 73.31C52.1698 66.96 70.9898 64.89 71.7898 64.81C71.9898 64.79 72.1798 64.94 72.1998 65.14C72.2198 65.34 72.0698 65.53 71.8698 65.55C71.6798 65.57 52.4698 67.67 44.7198 73.89C44.6498 73.94 44.5698 73.97 44.4898 73.97H44.4798Z" fill="#4D1111"/>
<path d="M85.3298 62.3C85.1398 62.3 84.9798 62.15 84.9598 61.96C84.9398 61.76 85.0898 61.58 85.2998 61.56C87.7098 61.35 109.18 59.28 120.02 50.67L120.04 50.65C120.06 50.63 120.09 50.61 120.11 50.59C120.27 50.46 120.5 50.48 120.63 50.63C120.76 50.79 120.74 51.02 120.59 51.15C120.56 51.18 120.53 51.2 120.5 51.22C109.47 59.98 87.7998 62.07 85.3698 62.28C85.3598 62.28 85.3498 62.28 85.3398 62.28L85.3298 62.3Z" fill="#4D1111"/>
<path d="M119.33 92.97C119.2 92.97 119.08 92.9 119.01 92.78C118.91 92.6 118.97 92.38 119.14 92.28C119.16 92.27 119.18 92.25 119.2 92.24C130.94 84.76 136.83 77.65 136.89 77.58C137.02 77.42 137.25 77.4 137.41 77.53C137.57 77.66 137.59 77.89 137.46 78.05C137.4 78.12 131.45 85.32 119.58 92.88C119.55 92.9 119.53 92.91 119.51 92.92C119.45 92.95 119.39 92.97 119.33 92.97Z" fill="#4D1111"/>
<path d="M110.25 122.72C110.08 122.72 109.93 122.61 109.89 122.44C109.84 122.24 109.96 122.04 110.16 121.99C113.05 121.26 115.29 117.85 116.82 111.85C116.87 111.65 117.07 111.53 117.27 111.58C117.47 111.63 117.59 111.83 117.54 112.03C115.94 118.31 113.52 121.9 110.35 122.7C110.32 122.7 110.29 122.71 110.26 122.71L110.25 122.72Z" fill="#4D1111"/>
<path d="M118.12 107.72C118.12 107.72 118.08 107.72 118.06 107.72C117.86 107.69 117.72 107.5 117.75 107.29C118.05 105.46 118.31 103.45 118.51 101.31C118.53 101.11 118.71 100.96 118.91 100.98C119.11 101 119.26 101.18 119.24 101.38C119.04 103.53 118.78 105.56 118.48 107.41C118.45 107.59 118.29 107.72 118.11 107.72H118.12Z" fill="#4D1111"/>
<path d="M119.11 98.77C119.11 98.77 119.09 98.77 119.08 98.77C118.88 98.76 118.72 98.58 118.73 98.37C118.86 96.51 118.95 94.56 119 92.55C119.15 86.73 118.93 82.3 118.93 82.26C118.92 82.06 119.08 81.88 119.28 81.87C119.48 81.87 119.66 82.02 119.67 82.22C119.67 82.26 119.89 86.72 119.74 92.57C119.69 94.58 119.6 96.55 119.47 98.42C119.46 98.62 119.29 98.77 119.1 98.77H119.11Z" fill="#4D1111"/>
<path d="M66.9197 125.74C66.9197 125.74 66.8797 125.74 66.8597 125.74C62.1997 125.01 58.5197 121.2 55.9297 114.43C53.8197 108.92 52.8797 102.62 52.4697 98.3001C52.2197 95.7001 52.1797 93.9601 52.1797 93.9401C52.1797 93.7401 52.3397 93.5701 52.5397 93.5601C52.7497 93.5601 52.9097 93.7201 52.9197 93.9201C52.9197 93.9401 52.9597 95.6501 53.2097 98.2201C53.9297 105.74 56.7297 123.39 66.9797 125C67.1797 125.03 67.3197 125.22 67.2897 125.42C67.2597 125.6 67.0997 125.73 66.9197 125.73V125.74Z" fill="#4D1111"/>
<path d="M89.2598 129.24C89.0298 129.24 88.7998 129.24 88.5798 129.24C86.5298 129.23 84.4498 129.16 82.3898 129.04C80.8998 128.95 79.4098 128.84 77.9898 128.71C75.7798 128.5 73.5698 128.23 71.4298 127.91C68.5598 127.47 66.8498 127.09 66.8398 127.09C66.6698 127.05 66.5498 126.9 66.5498 126.73V122.97C66.5498 122.84 66.6198 122.72 66.7298 122.65C66.7598 122.63 69.3298 121.07 73.4898 119.43C73.6798 119.35 73.8998 119.45 73.9698 119.64C74.0498 119.83 73.9498 120.05 73.7598 120.12C70.2798 121.5 67.9298 122.81 67.2898 123.18V126.43C67.8898 126.55 69.3798 126.85 71.5398 127.18C73.6598 127.5 75.8598 127.77 78.0598 127.98C79.4798 128.11 80.9498 128.23 82.4398 128.31C84.4898 128.43 86.5498 128.49 88.5898 128.5C92.6798 128.52 96.6798 128.33 100.5 127.92C103.74 127.57 106.9 127.07 109.89 126.42V120.74C109.89 120.54 110.06 120.37 110.26 120.37C110.46 120.37 110.63 120.54 110.63 120.74V126.72C110.63 126.89 110.51 127.04 110.34 127.08C107.24 127.76 103.95 128.29 100.58 128.65C96.9498 129.04 93.1498 129.24 89.2798 129.24H89.2598Z" fill="#4D1111"/>
<path d="M73.6197 120.13C73.4697 120.13 73.3297 120.04 73.2797 119.9C73.1997 119.71 73.2997 119.49 73.4897 119.42C77.7397 117.74 84.3897 115.68 91.8997 115.47C92.0997 115.47 92.2797 115.63 92.2797 115.83C92.2797 116.03 92.1197 116.21 91.9197 116.21C84.5197 116.42 77.9597 118.45 73.7597 120.11C73.7197 120.13 73.6697 120.14 73.6197 120.14V120.13Z" fill="#4D1111"/>
<path d="M91.75 122.43C87.13 122.43 82.26 122.14 77.95 121.28C76.35 120.96 74.85 120.57 73.51 120.12C73.36 120.07 73.25 119.93 73.25 119.77C73.25 119.57 73.41 119.4 73.62 119.4C73.66 119.4 73.7 119.4 73.74 119.42C75.05 119.86 76.52 120.25 78.09 120.56C91.39 123.21 110 120.41 110.19 120.38C110.39 120.35 110.58 120.49 110.61 120.69C110.64 120.89 110.5 121.08 110.3 121.11C110.17 121.13 101.5 122.43 91.75 122.43Z" fill="#4D1111"/>
<path d="M115.69 73.9699C115.55 73.9699 115.42 73.89 115.35 73.76C113.83 70.5 112.12 67.67 110.27 65.33C106.32 60.35 103.01 59.2999 102.97 59.2899C102.77 59.2299 102.66 59.02 102.72 58.83C102.78 58.63 102.98 58.52 103.18 58.58C103.32 58.62 106.73 59.68 110.84 64.87C112.73 67.25 114.47 70.1399 116.02 73.4499C116.11 73.6399 116.02 73.86 115.84 73.94C115.79 73.96 115.74 73.9699 115.68 73.9699H115.69Z" fill="#4D1111"/>
<path d="M108.83 66.64C108.71 66.64 108.59 66.58 108.52 66.48C108.4 66.31 108.45 66.08 108.62 65.96L111.44 64.04C111.61 63.92 111.84 63.97 111.96 64.14C112.08 64.31 112.03 64.54 111.86 64.66L109.04 66.58C108.98 66.62 108.9 66.64 108.83 66.64Z" fill="#4D1111"/>
<path d="M47.35 101.81C47.22 101.81 47.1 101.74 47.03 101.63C46.93 101.45 46.99 101.23 47.16 101.12L52.69 97.91C52.87 97.81 53.09 97.87 53.2 98.05C53.3 98.23 53.24 98.45 53.06 98.56L53.01 98.59L47.53 101.77C47.47 101.8 47.41 101.82 47.34 101.82L47.35 101.81Z" fill="#4D1111"/>
<path d="M64.9003 155.43C64.7203 155.43 64.5603 155.3 64.5303 155.11C64.0803 152.11 63.9003 148.79 63.9803 145.26C64.2203 135.34 66.5303 126.7 66.5503 126.62C66.6003 126.42 66.8103 126.31 67.0003 126.36C67.2003 126.41 67.3103 126.62 67.2603 126.81C67.2403 126.9 64.9503 135.45 64.7203 145.28C64.6303 148.77 64.8103 152.04 65.2603 155C65.2903 155.2 65.1503 155.39 64.9503 155.42C64.9303 155.42 64.9103 155.42 64.8903 155.42L64.9003 155.43Z" fill="#4D1111"/>
<path d="M115.69 155.43C115.49 155.43 115.32 155.26 115.33 155.05C115.39 151.79 115.19 148.41 114.73 145.02C113.33 134.5 109.95 126.94 109.92 126.86C109.84 126.67 109.92 126.45 110.11 126.37C110.3 126.29 110.52 126.37 110.6 126.56C110.63 126.64 114.06 134.29 115.47 144.92C115.93 148.35 116.13 151.76 116.07 155.06C116.07 155.26 115.9 155.42 115.7 155.42L115.69 155.43Z" fill="#4D1111"/>
<path d="M119.33 155.43H61.9403C61.7403 155.43 61.5703 155.26 61.5703 155.06C61.5703 154.86 61.7403 154.69 61.9403 154.69H119.33C119.53 154.69 119.7 154.86 119.7 155.06C119.7 155.26 119.53 155.43 119.33 155.43Z" fill="#4D1111"/>
<path d="M89.35 155.43C89.15 155.43 88.98 155.27 88.98 155.06C88.97 153.94 88.95 152.77 88.92 151.57C88.72 141.47 88.21 129 88.21 128.87C88.21 128.67 88.36 128.49 88.57 128.48C88.78 128.48 88.95 128.63 88.96 128.84C88.96 128.96 89.47 141.44 89.67 151.55C89.69 152.76 89.71 153.93 89.73 155.05C89.73 155.25 89.57 155.42 89.36 155.43H89.35Z" fill="#4D1111"/>
<path d="M88.61 152.04C88.04 152.04 87.5 151.85 86.99 151.48C82.43 148.11 82.06 129.47 82.04 128.68H82.78C82.89 135.26 84.01 148.37 87.42 150.9C87.97 151.31 88.55 151.41 89.19 151.23C89.39 151.17 89.59 151.29 89.65 151.48C89.71 151.68 89.59 151.88 89.4 151.94C89.13 152.02 88.87 152.06 88.61 152.06V152.04Z" fill="#4D1111"/>
<path d="M78.0204 128.7C77.8204 128.7 77.6504 128.53 77.6504 128.33V120.91C77.6504 120.71 77.8204 120.54 78.0204 120.54C78.2204 120.54 78.3904 120.71 78.3904 120.91V128.33C78.3904 128.53 78.2204 128.7 78.0204 128.7Z" fill="#4D1111"/>
<path d="M83.1005 127.09C81.3505 127.09 79.9805 126.19 79.9805 125.04C79.9805 123.89 81.3505 122.99 83.1005 122.99C84.8505 122.99 86.2205 123.89 86.2205 125.04C86.2205 126.19 84.8505 127.09 83.1005 127.09ZM83.1005 123.73C81.8105 123.73 80.7205 124.33 80.7205 125.04C80.7205 125.75 81.8105 126.35 83.1005 126.35C84.3905 126.35 85.4805 125.75 85.4805 125.04C85.4805 124.33 84.3905 123.73 83.1005 123.73Z" fill="#4D1111"/>
<path d="M84.7603 104.06C80.7203 104.06 76.7603 102.29 74.0903 99.05C73.3003 98.09 72.6403 97.02 72.1303 95.87C71.8603 95.25 71.6303 94.62 71.4603 94C69.6103 87.45 72.9103 80.41 79.1503 77.65C85.3803 74.88 92.8203 77.14 96.4403 82.91C96.7903 83.47 97.1003 84.05 97.3703 84.66C97.8803 85.81 98.2303 87.02 98.4103 88.25C99.3103 94.35 96.0003 100.37 90.3603 102.88C88.5603 103.68 86.6603 104.06 84.7803 104.06H84.7603ZM84.7003 77.21C82.9303 77.21 81.1303 77.57 79.4303 78.33C73.5303 80.95 70.4003 87.6 72.1603 93.8C72.3203 94.39 72.5403 94.98 72.8003 95.57C73.2803 96.66 73.9103 97.67 74.6603 98.58C78.3803 103.09 84.7003 104.58 90.0503 102.2C95.3903 99.82 98.5303 94.13 97.6703 88.36C97.5003 87.19 97.1703 86.05 96.6803 84.96C96.4303 84.39 96.1303 83.83 95.8003 83.3C93.3603 79.41 89.0903 77.21 84.7103 77.21H84.7003Z" fill="#4D1111"/>
<path d="M69.7695 99.88C68.3895 99.88 67.5495 99.56 67.2695 98.91C66.7495 97.75 68.2095 95.96 71.5995 93.59C71.7695 93.47 71.9995 93.51 72.1195 93.68C72.2395 93.85 72.1995 94.08 72.0295 94.2C68.6295 96.57 67.7095 98.06 67.9495 98.61C68.1995 99.18 70.0195 99.49 74.2995 98.45C77.7795 97.61 82.0995 96.08 86.4795 94.13C90.8595 92.18 94.8895 90 97.8395 87.99C97.8395 87.99 97.8495 87.99 97.8595 87.98C101.48 85.5 102.47 83.96 102.21 83.38C101.97 82.83 100.25 82.52 96.2095 83.46C96.0095 83.51 95.8095 83.38 95.7595 83.18C95.7095 82.98 95.8395 82.78 96.0395 82.73C100.07 81.8 102.37 81.91 102.89 83.07C103.42 84.27 101.86 86.13 98.2595 88.59C98.2595 88.59 98.2495 88.59 98.2395 88.6C95.2595 90.63 91.1895 92.83 86.7795 94.79C82.3695 96.75 77.9995 98.3 74.4795 99.15C72.5295 99.62 70.9595 99.86 69.7795 99.86L69.7695 99.88Z" fill="#4D1111"/>
<path d="M76.8804 54.33C76.7104 54.33 76.5204 54.32 76.3404 54.29C76.1404 54.26 76.0004 54.07 76.0304 53.86C76.0604 53.66 76.2504 53.52 76.4604 53.55C78.5104 53.88 79.6204 51.59 79.6304 51.57C79.7204 51.38 79.9404 51.31 80.1204 51.39C80.3104 51.48 80.3804 51.7 80.3004 51.88C80.2504 51.99 79.1204 54.32 76.8804 54.32V54.33Z" fill="#4D1111"/>
<path d="M72.4801 51.06C72.4201 51.06 72.3601 51.05 72.3001 51.01C72.2601 50.99 71.25 50.43 70.56 49.72C70.04 49.19 69.8301 48.68 69.9101 48.22C69.9901 47.79 70.3101 47.45 70.8701 47.18C72.7501 46.3 72.6501 43.78 72.6101 43.28C72.5901 43.08 72.75 42.9 72.95 42.88C73.16 42.87 73.33 43.02 73.35 43.22C73.4 43.8 73.5001 46.76 71.1801 47.85C70.9501 47.96 70.6801 48.13 70.6401 48.35C70.6001 48.56 70.76 48.86 71.09 49.2C71.7 49.83 72.6401 50.35 72.6501 50.36C72.8301 50.46 72.9001 50.68 72.8001 50.86C72.7301 50.98 72.6101 51.05 72.4701 51.05L72.4801 51.06Z" fill="#4D1111"/>
<path d="M72.9803 43.6199C72.7803 43.6199 72.6203 43.4599 72.6103 43.2599C72.6103 43.2199 72.6103 43.1999 72.6103 43.1999C72.5803 42.9999 72.7303 42.8199 72.9303 42.7899C73.1303 42.7599 73.3203 42.8999 73.3503 43.0999C73.3503 43.0999 73.3503 43.1499 73.3603 43.2399C73.3603 43.4399 73.2103 43.6199 73.0003 43.6299C73.0003 43.6299 73.0003 43.6299 72.9903 43.6299L72.9803 43.6199Z" fill="#4D1111"/>
<path d="M27.9398 79.3C27.0098 79.3 26.1498 78.81 25.6098 77.93C25.4098 77.59 25.2498 77.2 25.1498 76.76C24.3798 73.44 25.1298 70.34 27.0098 69.03C27.2398 68.86 27.5098 68.72 27.7998 68.61C28.4398 68.36 29.1698 68.3 29.9298 68.43C32.3398 68.85 33.2798 70.79 33.6198 71.84C34.1298 71.31 34.9898 70.39 35.7598 69.36C37.4098 67.14 38.8498 67.47 39.5498 67.86C40.1598 68.2 40.5998 68.8 40.7498 69.49C41.1498 71.4 40.2198 73.6 38.6398 74.51C38.4598 74.61 38.2398 74.55 38.1298 74.37C38.0298 74.19 38.0898 73.97 38.2698 73.86C39.5898 73.1 40.3598 71.25 40.0198 69.64C39.9198 69.16 39.6098 68.73 39.1898 68.5C38.3098 68.01 37.3498 68.44 36.3498 69.79C35.1398 71.42 33.7298 72.77 33.6698 72.82C33.5698 72.92 33.4198 72.95 33.2898 72.9C33.1598 72.85 33.0598 72.74 33.0398 72.6C33.0198 72.48 32.5698 69.64 29.7898 69.15C29.1698 69.04 28.5698 69.09 28.0598 69.29C27.8198 69.38 27.6198 69.49 27.4298 69.63C25.7898 70.76 25.1698 73.56 25.8698 76.58C25.9498 76.94 26.0798 77.26 26.2398 77.53C26.8598 78.55 27.8698 78.66 28.5498 78.44C29.2898 78.21 30.1098 77.45 30.0198 76.08C29.9898 75.59 29.9798 75.13 29.9898 74.69C30.0498 72.9 30.5398 72.36 30.6298 72.27C30.7798 72.13 31.0198 72.14 31.1498 72.29C31.2898 72.44 31.2798 72.66 31.1498 72.8C31.1298 72.83 30.7898 73.26 30.7298 74.71C30.7198 75.13 30.7298 75.56 30.7598 76.03C30.8598 77.51 30.0798 78.73 28.7798 79.15C28.4998 79.24 28.2098 79.28 27.9298 79.28L27.9398 79.3Z" fill="#4D1111"/>
<path d="M23.8501 79.3C23.0201 79.3 22.2601 78.92 21.7301 78.24C21.4201 77.84 21.1901 77.35 21.0501 76.76C20.9501 76.34 20.8801 75.91 20.8201 75.46C20.6701 74.14 20.7501 72.86 21.0701 71.78C21.4501 70.47 22.1501 69.48 23.1001 68.89C23.2901 68.77 23.4901 68.67 23.6901 68.6C24.3201 68.35 25.0501 68.29 25.8101 68.42C26.4001 68.52 26.9301 68.72 27.4001 69.01C27.5701 69.12 27.6301 69.35 27.5201 69.52C27.4101 69.69 27.1801 69.75 27.0101 69.64C26.6201 69.4 26.1801 69.24 25.6801 69.15C25.0501 69.04 24.4601 69.09 23.9501 69.29C23.7901 69.35 23.6301 69.43 23.4701 69.52C22.6801 70 22.0901 70.85 21.7701 71.98C21.4801 72.97 21.4001 74.14 21.5401 75.37C21.5901 75.79 21.6601 76.2 21.7501 76.59C21.8601 77.07 22.0401 77.47 22.2901 77.78C22.7101 78.32 23.3001 78.59 23.9501 78.55C24.6201 78.51 25.2401 78.13 25.5901 77.55C25.7001 77.37 25.9201 77.32 26.1001 77.42C26.2801 77.53 26.3301 77.75 26.2301 77.93C25.7501 78.73 24.9201 79.24 24.0001 79.29C23.9401 79.29 23.8901 79.29 23.8301 79.29L23.8501 79.3Z" fill="#4D1111"/>
<path d="M20.1299 79.3C19.4999 79.3 18.8999 79.08 18.4199 78.67C17.8999 78.22 17.5199 77.57 17.3399 76.77C17.2399 76.35 17.1699 75.92 17.1099 75.47C16.8199 72.95 17.3699 70.78 18.6399 69.5C19.0299 69.1 19.4799 68.81 19.9799 68.61C20.6099 68.36 21.3399 68.3 22.1099 68.43C22.6099 68.52 23.0599 68.67 23.4699 68.89C23.6499 68.99 23.7199 69.21 23.6199 69.39C23.5199 69.57 23.2999 69.64 23.1199 69.54C22.7799 69.36 22.3999 69.23 21.9799 69.16C21.3499 69.05 20.7599 69.1 20.2499 69.3C19.8499 69.46 19.4799 69.7 19.1599 70.02C18.0699 71.12 17.5799 73.12 17.8399 75.38C17.8899 75.8 17.9599 76.21 18.0499 76.6C18.1999 77.25 18.4799 77.76 18.8899 78.11C19.2899 78.45 19.7899 78.6 20.3099 78.55C20.8599 78.5 21.3699 78.22 21.7199 77.78C21.8499 77.62 22.0799 77.59 22.2399 77.72C22.3999 77.85 22.4299 78.08 22.2999 78.24C21.8299 78.83 21.1299 79.21 20.3799 79.28C20.2899 79.28 20.2099 79.29 20.1199 79.29L20.1299 79.3Z" fill="#4D1111"/>
<path d="M16.8598 79.5099C16.6998 79.5099 16.5298 79.4999 16.3698 79.4699C15.4198 79.2999 14.6498 78.6499 14.1998 77.6499C13.8698 76.9099 13.6298 76.1599 13.4998 75.4099C13.4598 75.2099 13.4298 74.9999 13.3998 74.7699C13.1498 72.4799 13.9098 70.6499 15.4798 69.7499C16.0598 69.4099 16.7698 69.2299 17.5298 69.2199C18.0498 69.2099 18.5498 69.2799 19.0098 69.4099C19.2098 69.4699 19.3198 69.6799 19.2598 69.8699C19.1998 70.0699 18.9898 70.1799 18.7998 70.1199C18.4098 69.9999 17.9898 69.9499 17.5398 69.9599C16.8998 69.9599 16.3098 70.1199 15.8498 70.3899C14.5498 71.1399 13.9198 72.7099 14.1398 74.6899C14.1598 74.8999 14.1898 75.0899 14.2298 75.2799C14.3498 75.9699 14.5698 76.6599 14.8798 77.3499C15.2298 78.1199 15.8098 78.6199 16.5098 78.7399C17.1898 78.8599 17.9098 78.6299 18.3998 78.1299C18.5398 77.9799 18.7798 77.9799 18.9198 78.1299C19.0698 78.2699 19.0698 78.5099 18.9198 78.6499C18.3798 79.1999 17.6198 79.5099 16.8598 79.5099Z" fill="#4D1111"/>
<path d="M65.9401 51.78C64.2701 51.78 62.6601 51.23 61.3301 50.18C59.7501 48.94 58.7501 47.16 58.5201 45.17C58.3601 43.76 58.5901 42.35 59.1901 41.08C60.3001 38.74 62.5001 37.16 65.0801 36.86C69.1101 36.39 72.7401 39.16 73.3501 43.17C73.3501 43.2 73.3501 43.22 73.3501 43.25C73.3501 43.45 73.1801 43.62 72.9801 43.62C72.8001 43.62 72.6501 43.5 72.6201 43.33C72.6201 43.32 72.6201 43.31 72.6201 43.3C72.0801 39.68 68.8101 37.18 65.1701 37.6C62.8501 37.87 60.8701 39.29 59.8701 41.4C59.3301 42.54 59.1201 43.81 59.2601 45.08C59.4701 46.87 60.3701 48.48 61.7901 49.59C63.2001 50.7 64.9601 51.19 66.7401 50.98C68.1901 50.81 69.5201 50.19 70.5801 49.19C70.7301 49.05 70.9601 49.06 71.1001 49.2C71.2401 49.35 71.2301 49.58 71.0901 49.72C69.9101 50.83 68.4401 51.52 66.8301 51.71C66.5301 51.74 66.2401 51.76 65.9401 51.76V51.78Z" fill="#4D1111"/>
<path d="M80.5296 50.07C78.8596 50.07 77.2396 49.51 75.9096 48.46C74.3396 47.22 73.3496 45.45 73.1196 43.46L73.0996 43.25C72.7396 39.18 75.6296 35.63 79.6796 35.15C83.7796 34.67 87.4996 37.61 87.9796 41.71C87.9996 41.92 88.0196 42.14 88.0296 42.37C88.1396 46.27 85.2996 49.55 81.4196 50.01C81.1196 50.04 80.8296 50.06 80.5296 50.06V50.07ZM80.5496 35.85C80.2896 35.85 80.0196 35.87 79.7496 35.9C76.0996 36.33 73.4996 39.53 73.8196 43.19L73.8396 43.39C74.0496 45.17 74.9396 46.77 76.3596 47.89C77.7696 49.01 79.5396 49.5 81.3196 49.29C84.8096 48.88 87.3696 45.92 87.2696 42.41C87.2696 42.2 87.2496 42 87.2296 41.81C87.0196 40.02 86.1296 38.42 84.7096 37.31C83.5096 36.36 82.0496 35.86 80.5496 35.86V35.85Z" fill="#4D1111"/>
<path d="M66.66 32.82C66.46 32.82 66.29 32.65 66.29 32.45C66.29 32.25 66.45 32.08 66.66 32.08C69.52 32.07 73.33 30.1 75.35 28.93C75.53 28.83 75.75 28.89 75.86 29.06C75.96 29.24 75.9 29.46 75.73 29.57C73.65 30.78 69.7 32.81 66.67 32.82H66.66Z" fill="#4D1111"/>
<path d="M66.6203 32.82C64.9903 32.82 63.8103 32.24 63.1003 31.1C62.7003 30.46 62.5603 29.74 62.7003 29.08C62.8403 28.41 63.2303 27.95 63.7903 27.8C64.5503 27.59 65.5103 27.96 66.2403 28.75C67.2003 29.79 67.4903 31.22 67.0003 32.58C66.9503 32.73 66.8103 32.83 66.6503 32.83C66.6403 32.83 66.6203 32.83 66.6103 32.83L66.6203 32.82ZM64.2303 28.48C64.1403 28.48 64.0603 28.49 63.9903 28.51C63.7003 28.59 63.5103 28.83 63.4303 29.23C63.3303 29.71 63.4303 30.23 63.7403 30.71C64.2703 31.58 65.1403 32.02 66.3903 32.07C66.6703 31.05 66.4203 30.01 65.7103 29.24C65.2703 28.76 64.7003 28.47 64.2403 28.47L64.2303 28.48Z" fill="#4D1111"/>
<path d="M57.2504 38.1C55.1204 38.1 53.3204 37.5 51.9004 36.32C50.3604 35.04 49.5704 33.32 49.1804 32.09C48.7804 30.85 48.7104 29.91 48.7104 29.87C48.7004 29.67 48.8504 29.49 49.0504 29.47C49.2504 29.46 49.4304 29.61 49.4504 29.81C49.4504 29.81 49.5204 30.71 49.8904 31.86C50.2504 32.99 50.9804 34.58 52.3804 35.75C53.7104 36.86 55.4204 37.4 57.4704 37.36C57.9504 37.36 58.4404 37.31 58.9204 37.23C60.4404 36.99 61.9104 36.42 63.3104 35.54C64.9004 34.54 65.9104 33.46 66.3204 32.32C66.3904 32.13 66.6004 32.03 66.7904 32.1C66.9804 32.17 67.0804 32.38 67.0104 32.57C66.5404 33.86 65.4304 35.07 63.7004 36.16C62.2204 37.09 60.6504 37.69 59.0404 37.95C58.5204 38.03 58.0004 38.08 57.4804 38.09C57.4004 38.09 57.3304 38.09 57.2504 38.09V38.1Z" fill="#4D1111"/>
<path d="M81.5201 34.2401C81.3601 34.2401 81.2001 34.2301 81.0401 34.2101C78.6301 33.9101 76.5501 31.4501 75.2201 29.4501C74.6101 28.5401 74.2701 27.8601 74.2501 27.8301C74.1601 27.6501 74.2301 27.4201 74.4101 27.3301C74.5901 27.2401 74.8201 27.3101 74.9101 27.4901C74.9101 27.4901 75.2601 28.1601 75.8401 29.0401C76.8601 30.5801 78.8901 33.2001 81.1301 33.4801C82.1101 33.6001 83.0501 33.2501 83.9401 32.4501C84.0901 32.3101 84.3201 32.3201 84.4601 32.4701C84.6001 32.6201 84.6001 32.8501 84.4601 32.9901C83.5401 33.8301 82.5601 34.2501 81.5301 34.2501L81.5201 34.2401Z" fill="#4D1111"/>
<path d="M74.8196 62.1399C73.3096 62.1399 71.8796 61.8799 70.5496 61.3699C66.6996 59.8899 63.6496 56.3199 61.4896 50.7499C61.3996 50.5099 61.3096 50.26 61.2196 50.02C61.1496 49.83 61.2496 49.61 61.4396 49.54C61.6296 49.47 61.8496 49.5699 61.9196 49.7599C62.0096 49.9999 62.0996 50.2399 62.1896 50.4799C64.2796 55.8499 67.1796 59.28 70.8296 60.6799C72.5896 61.36 74.5496 61.5599 76.6496 61.2699C79.7296 60.8499 82.1896 59.47 83.9596 57.15C84.0796 56.99 84.3196 56.96 84.4796 57.08C84.6396 57.2 84.6696 57.4399 84.5496 57.5999C82.6596 60.0799 80.0396 61.5599 76.7496 62.0099C76.0996 62.0999 75.4596 62.1399 74.8396 62.1399H74.8196Z" fill="#4D1111"/>
<path d="M84.2295 57.7401C84.1495 57.7401 84.0695 57.7201 84.0095 57.6601C83.8495 57.5401 83.8195 57.3001 83.9395 57.1401C85.6895 54.8401 86.7795 51.6301 87.1795 47.5901C87.3395 45.9701 87.3895 44.2201 87.3295 42.3901C87.3095 41.6201 87.2595 40.8301 87.1895 39.9601C87.1295 39.2701 87.0595 38.6301 86.9895 38.0501C86.8095 36.6101 86.6195 35.6201 86.5695 35.3501C86.5295 35.1501 86.6595 34.9501 86.8595 34.9101C87.0595 34.8701 87.2595 35.0001 87.2995 35.2001C87.3595 35.4801 87.5495 36.5001 87.7295 37.9601C87.8095 38.5501 87.8695 39.2001 87.9395 39.9001C88.0095 40.7801 88.0595 41.5801 88.0895 42.3701C88.1595 44.2301 88.1095 46.0101 87.9395 47.6701C87.5295 51.8401 86.3895 55.1801 84.5495 57.5901C84.4795 57.6901 84.3695 57.7401 84.2495 57.7401H84.2295Z" fill="#4D1111"/>
<path d="M59.4001 41.59C59.2201 41.59 59.0601 41.46 59.0301 41.28C58.6901 39.1 58.6101 37.67 58.6001 37.61C58.5901 37.41 58.7401 37.23 58.9501 37.22C59.1601 37.21 59.3301 37.36 59.3401 37.57C59.3401 37.58 59.4301 39.03 59.7601 41.17C59.7901 41.37 59.6501 41.56 59.4501 41.59C59.4301 41.59 59.4101 41.59 59.3901 41.59H59.4001Z" fill="#4D1111"/>
<path d="M88.0303 35.89C87.6103 35.89 87.1903 35.8 86.7703 35.62C85.5203 35.1 84.5103 33.86 83.8803 32.92C83.3103 32.06 82.9803 31.35 82.9703 31.32C82.8903 31.13 82.9703 30.91 83.1603 30.83C83.3503 30.75 83.5703 30.83 83.6503 31.02C83.6503 31.02 83.9603 31.71 84.5003 32.52C85.0703 33.38 85.9803 34.5 87.0603 34.95C87.9703 35.33 88.8403 35.18 89.7303 34.5C89.8903 34.37 90.1303 34.4 90.2503 34.57C90.3803 34.73 90.3403 34.97 90.1803 35.09C89.4803 35.63 88.7603 35.9 88.0303 35.9V35.89Z" fill="#4D1111"/>
<path d="M87.5497 40.3099C87.3497 40.3099 87.1797 40.1399 87.1797 39.9399C87.1797 39.7399 87.3497 39.5699 87.5497 39.5699C87.7497 39.5699 87.9197 39.7399 87.9197 39.9399C87.9197 40.1399 87.7597 40.3099 87.5497 40.3099Z" fill="#4D1111"/>
<path d="M93.0298 21.83C92.8498 21.83 92.6998 21.7 92.6598 21.52C92.3998 20.01 91.3398 18.16 89.5598 17.43C88.3198 16.93 87.0598 16.85 85.7998 17.21C84.6998 17.52 83.9998 18.07 83.9998 18.07C83.8398 18.2 83.6098 18.17 83.4798 18.01C83.3498 17.85 83.3798 17.62 83.5398 17.49C83.5698 17.46 84.3498 16.85 85.5998 16.49C87.0198 16.09 88.4498 16.17 89.8398 16.74C91.8898 17.57 93.0998 19.67 93.3898 21.39C93.4198 21.59 93.2898 21.78 93.0898 21.82C93.0698 21.82 93.0498 21.82 93.0298 21.82V21.83Z" fill="#4D1111"/>
<path d="M90.3596 25.65C89.7196 25.65 89.1996 25.41 88.8796 24.96C88.4096 24.31 88.4496 23.32 88.9696 22.5C89.7496 21.28 91.2996 20.75 93.1096 21.1C93.2596 21.13 93.3796 21.25 93.4096 21.4C93.7696 23.52 92.8896 25.11 91.0996 25.56C90.8396 25.62 90.5996 25.66 90.3696 25.66L90.3596 25.65ZM92.0496 21.73C90.9596 21.73 90.0696 22.14 89.5896 22.89C89.2296 23.46 89.1896 24.11 89.4796 24.52C89.7396 24.88 90.2496 24.99 90.9196 24.83C92.7696 24.37 92.8096 22.61 92.7196 21.78C92.4896 21.75 92.2696 21.73 92.0596 21.73H92.0496Z" fill="#4D1111"/>
<path d="M90.9002 39.5C90.7802 39.5 90.6602 39.44 90.5902 39.33C90.4802 39.16 90.5302 38.93 90.7102 38.82C92.4302 37.73 91.8902 35.77 91.8802 35.75C91.8502 35.65 91.8702 35.54 91.9202 35.46C91.9702 35.37 92.0602 35.31 92.1602 35.29C96.0402 34.48 97.6402 31.45 97.8402 28.87C98.0802 25.83 96.5802 23.08 94.2102 22.18C93.7902 22.02 93.3802 21.9 92.9902 21.83C92.7902 21.79 92.6602 21.6 92.6902 21.4C92.7302 21.2 92.9202 21.07 93.1202 21.1C93.5502 21.18 94.0102 21.31 94.4702 21.48C97.1502 22.49 98.8402 25.55 98.5802 28.92C98.3702 31.68 96.7002 34.92 92.6802 35.92C92.8202 36.89 92.6402 38.48 91.1102 39.44C91.0502 39.48 90.9802 39.5 90.9102 39.5H90.9002Z" fill="#4D1111"/>
<path d="M87.4604 65.48C87.3704 65.48 87.2703 65.45 87.2003 65.38C86.2903 64.44 85.5504 63.34 85.0004 62.12C85.0004 62.11 84.9904 62.1 84.9804 62.08C83.8704 59.61 83.8604 57.46 83.8604 57.37C83.8604 57.17 84.0304 57 84.2304 57C84.4304 57 84.6003 57.16 84.6003 57.37C84.6003 57.37 84.6104 59.43 85.6404 61.74C85.6404 61.75 85.6504 61.76 85.6604 61.78C86.1804 62.94 86.8704 63.98 87.7204 64.86C87.8604 65.01 87.8604 65.24 87.7204 65.38C87.6504 65.45 87.5503 65.49 87.4604 65.49V65.48Z" fill="#4D1111"/>
<path d="M71.9496 68.87C71.7496 68.87 71.5796 68.71 71.5796 68.5C71.5796 68.49 71.5796 68.47 71.5796 68.46C71.6796 67.44 71.6496 66.36 71.4796 65.23C71.1696 63.11 70.4796 61.49 70.3496 61.18C70.3196 61.13 70.3096 61.07 70.3096 61.01C70.3096 60.81 70.4796 60.64 70.6796 60.64C70.8296 60.64 70.9596 60.73 71.0196 60.86C71.2196 61.32 71.8996 62.95 72.2096 65.11C72.3796 66.29 72.4196 67.44 72.3096 68.51C72.2896 68.7 72.1296 68.85 71.9396 68.85L71.9496 68.87Z" fill="#4D1111"/>
<path d="M69.4203 17.48C69.3003 17.48 69.1804 17.42 69.1104 17.31C68.0604 15.68 67.9904 13.79 68.9004 12.13C70.0204 10.08 72.9704 8.11 77.9004 8.72C85.6204 9.67 86.0704 16.77 86.0804 16.84C86.0904 17.04 85.9304 17.22 85.7304 17.23C85.5304 17.24 85.3503 17.08 85.3403 16.88C85.3303 16.61 84.9103 10.33 77.8103 9.46C73.2503 8.9 70.5604 10.66 69.5504 12.49C68.7704 13.91 68.8404 15.52 69.7304 16.91C69.8404 17.08 69.7904 17.31 69.6204 17.42C69.5604 17.46 69.4903 17.48 69.4203 17.48Z" fill="#4D1111"/>
<path d="M56.2197 44.53C56.2197 44.53 56.1597 44.53 56.1297 44.52C53.8997 43.94 50.3797 42.07 51.7697 35.97C51.7997 35.8 51.9497 35.67 52.1297 35.67C52.3297 35.67 52.4997 35.83 52.4997 36.04C52.4997 36.07 52.4997 36.1 52.4997 36.13C51.2997 41.35 53.9097 43.19 56.3197 43.81C56.5197 43.86 56.6397 44.06 56.5897 44.26C56.5497 44.43 56.3997 44.54 56.2297 44.54L56.2197 44.53Z" fill="#4D1111"/>
<path d="M49.5301 32.35C49.5301 32.35 49.4701 32.35 49.4401 32.34C46.8701 31.67 45.1601 29.88 44.6301 27.29C43.8801 23.66 45.5701 19.27 48.6401 16.87C51.4001 14.72 54.1801 14.63 55.6001 14.76C55.8001 14.78 55.9501 14.96 55.9301 15.16C55.9101 15.36 55.7301 15.51 55.5301 15.49C54.2201 15.36 51.6501 15.45 49.1001 17.44C46.2801 19.64 44.6701 23.8 45.3601 27.12C45.8401 29.42 47.3501 31.01 49.6301 31.6C49.8301 31.65 49.9501 31.85 49.9001 32.05C49.8601 32.22 49.7101 32.33 49.5401 32.33L49.5301 32.35Z" fill="#4D1111"/>
<path d="M58.5504 19.37C58.2904 19.37 58.0104 19.31 57.7204 19.19C56.5204 18.68 55.2304 17.09 55.1904 15.15C55.1904 15.04 55.2304 14.94 55.3104 14.87C55.3904 14.8 55.4904 14.76 55.6004 14.77C57.8104 14.98 59.6504 15.99 60.0704 17.23C60.2804 17.86 60.1104 18.48 59.5804 18.98C59.3004 19.24 58.9504 19.38 58.5504 19.38V19.37ZM55.9604 15.56C56.1504 16.95 57.1004 18.12 58.0004 18.5C58.3104 18.63 58.7504 18.73 59.0604 18.43C59.3804 18.13 59.4804 17.81 59.3604 17.46C59.1104 16.72 57.8404 15.84 55.9604 15.55V15.56Z" fill="#4D1111"/>
<path d="M55.56 15.51C55.36 15.51 55.19 15.35 55.19 15.15C55.17 13.87 55.68 12.01 58.27 10.37C63.91 6.82004 69.42 11.99 69.47 12.04C69.62 12.18 69.62 12.42 69.48 12.56C69.34 12.71 69.1 12.71 68.96 12.57C68.75 12.37 63.81 7.75004 58.66 10.99C56.36 12.44 55.9 14.04 55.92 15.13C55.92 15.33 55.76 15.5 55.56 15.51Z" fill="#4D1111"/>
<path d="M87.7304 48.0099C87.6604 48.0099 87.5904 48.0099 87.5304 48.0099C87.3304 47.9899 87.1704 47.8199 87.1904 47.6099C87.2104 47.4099 87.3804 47.2499 87.5904 47.2699C89.2104 47.3899 90.8004 45.5999 91.2104 43.1899C91.4504 41.7399 91.2304 40.3399 90.6004 39.3299C90.1704 38.6399 89.5904 38.2199 88.9304 38.0999C88.4604 38.0199 87.9904 38.0999 87.5304 38.3399C87.3504 38.4299 87.1204 38.3599 87.0304 38.1799C86.9404 37.9999 87.0104 37.7699 87.1904 37.6799C87.8004 37.3699 88.4204 37.2599 89.0504 37.3699C89.9204 37.5199 90.6904 38.0699 91.2204 38.9299C91.9504 40.0899 92.2104 41.6799 91.9404 43.2999C91.4904 45.9899 89.6604 48.0099 87.7404 48.0099H87.7304Z" fill="#4D1111"/>
<path d="M60.8796 51.17C59.1696 51.17 57.3496 49.74 56.3996 47.49C55.9196 46.37 55.7396 45.21 55.8496 44.12C55.9996 42.63 56.7196 41.51 57.8196 41.04C58.3296 40.83 58.8796 40.76 59.4496 40.86H59.5096C59.5096 40.86 59.5796 40.89 59.6196 40.9C59.8196 40.96 59.9296 41.16 59.8796 41.36C59.8296 41.56 59.6196 41.67 59.4196 41.62C59.3996 41.62 59.3896 41.62 59.3696 41.61H59.3096C58.8896 41.53 58.4796 41.58 58.1096 41.74C57.2696 42.1 56.7096 43 56.5796 44.21C56.4796 45.17 56.6496 46.21 57.0696 47.21C58.0496 49.53 60.1196 50.91 61.6796 50.29C61.7196 50.27 61.7696 50.26 61.8196 50.26C62.0196 50.26 62.1896 50.43 62.1896 50.63C62.1896 50.8 62.0796 50.94 61.9296 50.98C61.5896 51.11 61.2296 51.18 60.8696 51.18L60.8796 51.17Z" fill="#4D1111"/>
<path d="M37.9899 126.11C37.5799 126.11 37.2499 125.78 37.2499 125.38C37.2499 125.35 37.2199 122.32 37.0199 118.71C36.4399 108.28 35.2299 106.78 34.9999 106.59C34.7499 106.74 33.3599 107.97 31.2599 117.67C30.5699 120.83 30.1299 123.45 30.1299 123.48C30.0599 123.88 29.6799 124.16 29.2799 124.09C28.8799 124.02 28.5999 123.64 28.6699 123.24C28.6699 123.21 29.1199 120.56 29.8199 117.36C30.5399 114.03 31.2499 111.34 31.9399 109.36C33.0499 106.14 34.0499 104.88 35.2799 105.12C36.3899 105.34 37.1099 106.86 37.6699 110.19C38.0299 112.33 38.3099 115.17 38.5099 118.63C38.7199 122.28 38.7499 125.34 38.7499 125.37C38.7499 125.78 38.4199 126.11 38.0099 126.12L37.9899 126.11Z" fill="#E11F27"/>
<path d="M40.4697 119.84C40.4697 119.84 40.3897 119.84 40.3497 119.84L28.0197 117.87C27.6197 117.81 27.3397 117.43 27.3997 117.02C27.4597 116.62 27.8497 116.34 28.2497 116.4L40.5797 118.37C40.9797 118.43 41.2597 118.82 41.1997 119.22C41.1397 119.58 40.8297 119.84 40.4697 119.84Z" fill="#E11F27"/>
<path d="M33.6899 129.14C26.3499 129.14 20.3799 123.17 20.3799 115.83C20.3799 108.49 26.3499 102.52 33.6899 102.52C41.0299 102.52 46.9999 108.49 46.9999 115.83C46.9999 123.17 41.0299 129.14 33.6899 129.14ZM33.6899 104.01C27.1699 104.01 21.8599 109.32 21.8599 115.84C21.8599 122.36 27.1699 127.67 33.6899 127.67C40.2099 127.67 45.5199 122.36 45.5199 115.84C45.5199 109.32 40.2099 104.01 33.6899 104.01Z" fill="#E11F27"/>
<path d="M26.81 87.2199C26.55 87.2199 26.3 87.1799 26.07 87.0999C25.54 86.9099 25.14 86.4999 24.87 85.8899C24.11 84.1399 22.15 84.7399 19.46 85.7799C17.8 86.4199 16.36 86.9799 15.51 86.3999C15.1 86.1199 14.89 85.5999 14.89 84.8699C14.89 83.8999 14.51 83.7099 14.39 83.6499C13.21 83.0799 9.99003 85.0499 8.24003 86.4299C8.08003 86.5599 7.85003 86.5299 7.72003 86.3699C7.59003 86.2099 7.62003 85.9799 7.78003 85.8499C8.28003 85.4599 12.74 82.0199 14.72 82.9799C15.33 83.2799 15.64 83.9099 15.64 84.8599C15.64 85.3299 15.74 85.6399 15.94 85.7799C16.47 86.1399 17.86 85.5999 19.2 85.0799C21.54 84.1699 24.46 83.0399 25.56 85.5799C25.74 86.0099 26 86.2699 26.33 86.3899C27.29 86.7299 28.88 85.8999 30.56 85.0299C33.21 83.6599 36.51 81.9499 38.31 84.8599C38.42 85.0299 38.36 85.2599 38.19 85.3699C38.02 85.4799 37.79 85.4199 37.68 85.2499C36.24 82.9199 33.53 84.3299 30.91 85.6899C29.41 86.4699 27.98 87.2099 26.82 87.2099L26.81 87.2199Z" fill="#4D1111"/>
<path d="M28.4502 92.4C26.7402 92.4 25.0702 91.53 23.0602 89.79C21.2602 88.23 19.3802 89.39 17.5702 90.5C16.3902 91.23 15.3702 91.85 14.4602 91.63C14.0302 91.52 13.6802 91.23 13.4002 90.77C13.0902 90.24 12.6902 89.95 12.1902 89.89C10.5202 89.69 8.2902 91.96 8.2702 91.98C8.1302 92.13 7.8902 92.13 7.7502 91.98C7.6002 91.84 7.6002 91.6 7.7502 91.46C7.8502 91.36 10.2502 88.91 12.2902 89.15C13.0302 89.24 13.6202 89.65 14.0502 90.39C14.2202 90.68 14.4202 90.85 14.6502 90.91C15.2602 91.06 16.2002 90.48 17.1902 89.87C19.0402 88.73 21.3502 87.31 23.5602 89.23C27.2702 92.45 29.5002 92.47 33.4802 89.35C33.6402 89.22 33.8702 89.25 34.0002 89.41C34.1302 89.57 34.1002 89.8 33.9402 89.93C31.8402 91.58 30.1402 92.4 28.4702 92.4H28.4502Z" fill="#4D1111"/>
<path d="M15.6502 98.39C15.1902 98.39 14.7702 98.32 14.4002 98.15C13.7102 97.84 13.2502 97.24 13.0202 96.37C12.8902 95.84 12.6502 95.54 12.3002 95.43C11.2402 95.11 9.31023 96.57 8.65023 97.16C8.50023 97.3 8.26023 97.29 8.13023 97.13C7.99023 96.98 8.00023 96.74 8.16023 96.61C8.43023 96.36 10.8602 94.22 12.5202 94.72C13.1302 94.9 13.5402 95.4 13.7402 96.19C13.9102 96.84 14.2202 97.26 14.7002 97.47C16.3402 98.2 19.8002 96.4 21.2702 95.62C21.4502 95.53 21.6802 95.6 21.7702 95.78C21.8702 95.96 21.7902 96.19 21.6102 96.28C19.4702 97.4 17.3102 98.39 15.6502 98.39Z" fill="#4D1111"/>
<path d="M78.9203 70.77C76.0103 70.77 73.3303 69.64 71.7703 68.82C70.5103 68.16 69.7403 67.59 69.7103 67.57C69.5503 67.45 69.5103 67.22 69.6303 67.05C69.7503 66.89 69.9803 66.85 70.1503 66.97C70.1503 66.97 70.9103 67.53 72.1203 68.16C75.8603 70.12 82.7803 72.3 87.1403 64.92C87.4003 64.48 87.6303 64.04 87.8503 63.59C87.9403 63.4 88.1603 63.33 88.3403 63.41C88.5303 63.5 88.6003 63.72 88.5203 63.9C88.3003 64.37 88.0503 64.83 87.7803 65.29C85.2903 69.5 81.9903 70.76 78.9303 70.76L78.9203 70.77Z" fill="#4D1111"/>
</g>
<defs>
<clipPath id="clip0_1183_5247">
<rect width="160.87" height="155.43" fill="white"/>
</clipPath>
</defs>
</svg>
