<svg width="175" height="140" viewBox="0 0 175 140" fill="none" xmlns="http://www.w3.org/2000/svg">
<g clip-path="url(#clip0_1183_5045)">
<path d="M64.4533 53.1929C64.4215 52.7241 64.5552 52.2457 64.8671 51.8502C65.5355 51.0051 66.761 50.8648 67.6013 51.5313C68.4448 52.201 68.5849 53.4257 67.9196 54.2708C67.2512 55.116 66.0289 55.2563 65.1854 54.5897C64.7398 54.2357 64.4883 53.7223 64.4533 53.1929Z" fill="#F1BD1B"/>
<path d="M15.9505 40.0886L7.89502 43.9834L9.6339 47.5939L17.6894 43.6991L15.9505 40.0886Z" fill="#F69282"/>
<path d="M126.806 25.5583L126.58 28.1416L114.634 27.1019L114.86 24.5154L126.806 25.5583Z" fill="#F69282"/>
<path d="M115.28 11.9436C115.07 12.6388 114.745 13.2862 114.309 13.8699C113.252 15.2763 111.626 16.1948 109.557 16.5711C109.732 13.114 109.849 10.8082 109.849 10.8082C111.565 11.2388 113.392 11.6119 115.28 11.9404V11.9436Z" fill="white"/>
<path d="M140.235 14.0931L147.935 22.8794L139.436 23.2813L140.235 14.0931Z" fill="#F8D6CD"/>
<path d="M29.3823 32.1632L24.0858 35.6681L21.1001 29.4715H21.1033L29.3823 32.1632Z" fill="#F8D6CD"/>
<path d="M36.1496 44.0047C41.1661 51.544 44.2154 60.7545 44.2154 60.7545C44.2154 60.7545 40.2526 62.4543 33.6987 65.8381C27.1448 69.2218 17.1533 73.8334 17.1533 73.8334C16.5867 69.7831 12.3724 61.5518 8.63866 54.5833C4.90178 47.6117 0.369141 38.9785 0.369141 38.9785C7.32089 36.8928 15.8005 32.4598 21.1034 29.4715L24.0891 35.6681L29.3857 32.1632C31.1236 35.5214 33.008 39.2751 36.1528 44.0047H36.1496ZM17.6912 43.6986L15.9533 40.0884L7.89702 43.9824L9.63495 47.5926L17.6912 43.6986Z" fill="white"/>
<path d="M139.436 23.2812L147.935 22.8762C147.642 27.9375 147.244 33.5505 147.639 41.1599C148.266 53.2885 145.481 65.9911 145.481 65.9911C145.481 65.9911 139.748 65.2353 129.887 64.6325C120.023 64.033 105.358 62.4926 105.358 62.4926C107.481 57.4409 108.249 45.0603 108.71 34.469C108.914 29.784 109.165 24.6175 109.372 20.3089C113.602 19.7922 115.971 17.7575 117.234 16.0736C118.036 15.0052 118.603 13.7933 118.921 12.5081C126.462 13.5573 134.502 13.9496 140.232 14.0899L139.433 23.2812H139.436ZM126.58 28.1416L126.802 25.5583L114.86 24.5154L114.634 27.1019L126.58 28.1416Z" fill="white"/>
<path d="M88.24 111.415C86.1774 112.193 84.9297 112.828 83.0899 113.284C81.9058 113.577 80.4766 113.794 78.4235 113.925C77.475 113.986 76.154 114.002 74.5721 113.982C71.7996 113.947 68.241 113.813 64.5328 113.628C60.9232 113.453 57.1768 113.233 53.876 113.026C53.9651 112.13 54.0892 111.058 54.2325 109.849C54.5731 106.963 55.006 103.295 55.2829 99.344C56.0755 87.9393 55.5248 74.2225 47.4303 70.4625C44.3587 69.0337 40.7078 69.3335 37.9003 71.2343C37.2828 71.652 36.7003 72.1336 36.1465 72.679C36.2324 72.5546 38.5624 69.3303 44.9667 68.1567C44.9921 68.1503 45.0176 68.1471 45.0462 68.1407C46.329 67.9589 52.7906 67.4614 58.3131 74.8157C59.9301 76.9685 61.4643 79.7909 62.763 83.4904C63.3837 85.2572 63.9535 87.225 64.45 89.4128C66.7927 89.8879 70.3896 90.4748 74.2601 90.5704C77.6596 90.6565 81.2724 90.3695 84.4236 89.3043C84.8915 89.148 85.3498 88.9758 85.7954 88.7813C86.483 94.0913 86.7567 101.159 87.4952 106.937C87.7021 108.554 87.944 110.069 88.2432 111.418L88.24 111.415Z" fill="#FFCB00"/>
<path d="M58.6854 17.4386C58.6854 17.4386 58.6058 14.09 60.1751 14.0931C61.7443 14.0931 61.7125 19.231 61.7125 19.231C61.7125 19.231 85.7157 11.4014 83.4526 37.4605C82.4085 35.0048 81.1894 32.5268 79.9926 30.1476C79.8812 29.9276 79.773 29.7075 79.6648 29.4907C76.5581 23.3482 72.382 22.4329 69.4982 22.6944C69.6032 25.2012 69.1608 30.103 65.4366 36.5037C64.4403 38.2131 63.2148 40.0278 61.6965 41.935C57.5681 41.2142 55.1363 44.9264 56.1199 48.1858C56.7724 50.3545 59.2838 52.874 62.5878 53.2248L62.5814 53.2726C64.453 64.5911 63.2976 68.3448 51.6095 67.7676C50.5432 67.7165 49.5437 67.7134 48.6079 67.7516C48.6079 67.7516 50.1803 63.6854 48.748 43.3542C47.3188 23.0229 57.3358 21.8589 57.3358 21.8589C57.3358 21.8589 54.226 16.4819 55.9002 15.6463C56.6864 15.254 57.7655 16.2586 58.6854 17.4354V17.4386Z" fill="black"/>
<path d="M80.6389 63.4175V63.4015C80.6389 63.4015 80.2537 60.8884 81.8802 59.5553C82.1444 59.3385 82.4468 59.1854 82.7651 59.1089C83.4908 58.9334 84.1975 59.0897 84.8277 59.3895C84.1147 58.4359 83.1153 57.3548 82.2495 56.2449C81.2341 54.9437 80.3938 53.6043 80.3938 52.3988C80.3938 51.2793 81.4824 50.4661 82.5901 50.6192C83.4336 50.734 84.5444 51.375 85.7253 52.268C87.1004 53.3077 88.571 54.6982 89.8092 55.993C93.3232 59.6765 96.1975 63.9182 98.4352 68.4947C101.701 75.1729 105.396 84.0198 108.697 95.6317C112.969 110.65 111.078 116.54 111.078 116.54L111.062 116.553C111.062 116.553 111.056 116.547 111.053 116.543C109.792 115.14 107.064 116.684 101.338 117.353C97.353 117.819 95.4877 117.028 94.7238 116.505L94.7333 116.489C94.7333 116.489 101.5 114.024 102.879 111.447C103.375 110.522 103.114 109.317 102.236 108.739C100.943 107.894 98.292 108.478 92.6771 109.996C90.7864 110.509 89.389 110.981 88.2399 111.412C86.8681 105.254 86.6739 95.5743 85.7922 88.7781C85.442 86.0864 84.9869 83.8476 84.3089 82.4603C83.2298 80.2597 82.3481 78.4291 81.6924 77.0705C77.5927 79.2264 75.7274 74.1013 75.476 72.1304C75.3455 71.129 75.0876 69.6205 76.7142 68.2842C76.9784 68.0674 77.2808 67.9111 77.5959 67.8377C77.6118 67.8314 77.6341 67.8314 77.65 67.825L77.6373 67.7644C77.6373 67.7644 77.2489 65.2513 78.8755 63.9182C79.1396 63.7013 79.442 63.5482 79.7572 63.4717C80.0564 63.4015 80.3524 63.3824 80.642 63.4111L80.6389 63.4175Z" fill="#EFBC83"/>
<path d="M98.4321 68.4947C98.4321 68.4947 108.771 68.6669 108.694 95.6317C105.393 84.0198 101.698 75.1697 98.4321 68.4947Z" fill="#EFBC83"/>
<path d="M64.4531 53.1928C64.4881 53.7222 64.7396 54.2357 65.1852 54.5897C66.0287 55.2563 67.251 55.1159 67.9195 54.2708C68.5879 53.4257 68.4447 52.201 67.6011 51.5313C66.7608 50.8615 65.5354 51.005 64.8669 51.8502C64.555 52.2425 64.4213 52.724 64.4531 53.1928ZM65.4335 36.5069C69.1608 30.1061 69.6033 25.2043 69.4951 22.6976C72.3821 22.4329 76.5582 23.3514 79.6617 29.4938C79.7731 29.7107 79.8813 29.9307 79.9895 30.1508C81.1895 32.5299 82.4054 35.008 83.4495 37.4636C85.7795 42.9459 87.25 48.3229 85.719 52.268C84.5412 51.3782 83.4272 50.7371 82.5837 50.6223C81.476 50.4693 80.3874 51.2825 80.3874 52.4019C80.3874 53.6042 81.2277 54.9437 82.2431 56.2481C81.4219 56.7042 80.5243 57.0167 79.5948 57.2017C79.5789 57.3548 79.0155 62.8115 80.6357 63.4079V63.4238C80.3428 63.3951 80.05 63.4111 79.7476 63.4844C79.4293 63.561 79.1301 63.7141 78.8659 63.9309C77.2394 65.264 77.6277 67.7771 77.6277 67.7771L77.6404 67.8377C77.6245 67.8441 77.6022 67.8441 77.5863 67.8505C77.268 67.9238 76.9688 68.0801 76.7046 68.2969C75.0781 69.63 75.3359 71.1385 75.4664 72.1431C75.7179 74.1141 77.5831 79.2391 81.6829 77.0832C82.3386 78.4418 83.2203 80.2724 84.2993 82.473C84.9773 83.8603 85.4357 86.0991 85.7826 88.7908C78.92 91.7727 69.1481 90.379 64.4404 89.4223C59.3316 66.9798 46.87 67.8887 45.0366 68.1502C46.1061 67.9557 47.2934 67.8186 48.6016 67.7643C49.5374 67.7261 50.5369 67.7261 51.6032 67.7803C63.2913 68.3575 64.4499 64.6038 62.5751 53.2853L62.5815 53.2375C59.2775 52.8867 56.7629 50.3672 56.1136 48.1985C55.13 44.936 57.5619 41.2269 61.6903 41.9477C63.2054 40.0437 64.434 38.2259 65.4303 36.5165L65.4335 36.5069Z" fill="#EFBC83"/>
<path d="M80.0214 34.1023C80.5943 35.2217 80.4956 36.4176 79.8017 36.778C79.1078 37.1352 78.0765 36.5197 77.5036 35.4003C76.9306 34.2809 77.0293 33.0849 77.7232 32.7277C78.4203 32.3673 79.4484 32.986 80.0246 34.1023H80.0214Z" fill="#4D1111"/>
<path d="M71.5355 38.009C72.1085 39.1284 72.0098 40.3244 71.3159 40.6816C70.622 41.0388 69.5907 40.4232 69.0178 39.307C68.4448 38.1876 68.5435 36.9917 69.2374 36.6313C69.9345 36.2741 70.9626 36.8896 71.5387 38.009H71.5355Z" fill="#4D1111"/>
<path d="M60.0924 104.6C60.0924 107.518 57.7306 109.881 54.8213 109.881C54.6207 109.881 54.4266 109.868 54.2324 109.846C54.573 106.96 55.0059 103.292 55.2828 99.3408C57.9788 99.5736 60.0956 101.838 60.0956 104.597L60.0924 104.6Z" fill="white"/>
<path d="M62.7596 83.4903C62.6164 83.5063 62.4732 83.5095 62.3299 83.5095C59.4175 83.5095 57.062 81.1431 57.062 78.2281C57.062 76.9269 57.5299 75.7342 58.3098 74.8157C59.9267 76.9684 61.461 79.7908 62.7596 83.4903Z" fill="white"/>
<path d="M84.7644 91.1796C84.7644 94.0977 82.4026 96.4609 79.4933 96.4609C76.584 96.4609 74.2222 94.0945 74.2222 91.1796C74.2222 90.9723 74.2349 90.7714 74.2604 90.5704C77.6598 90.6565 81.2726 90.3695 84.4238 89.3043C84.6466 89.8879 84.7676 90.5194 84.7676 91.1796H84.7644Z" fill="white"/>
<path d="M88.2399 111.415C86.1772 112.193 84.9295 112.828 83.0897 113.284C83.0101 112.924 82.9688 112.547 82.9688 112.165C82.9688 109.505 84.9327 107.301 87.4918 106.937C87.6987 108.554 87.9406 110.069 88.2399 111.418V111.415Z" fill="white"/>
<path d="M74.572 113.982C71.7996 113.947 68.2409 113.813 64.5327 113.628C65.2616 111.587 67.2096 110.127 69.4982 110.127C71.9142 110.127 73.9545 111.76 74.572 113.982Z" fill="white"/>
<path d="M75.6924 4.41387C75.6924 3.92592 76.0871 3.53046 76.5741 3.53046C77.0611 3.53046 77.4558 3.92592 77.4558 4.41387C77.4558 4.90182 77.0611 5.29728 76.5741 5.29728C76.0871 5.29728 75.6924 4.90182 75.6924 4.41387Z" fill="#4D1111"/>
<path d="M82.6758 4.41387C82.6758 3.92592 83.0705 3.53046 83.5575 3.53046C84.0445 3.53046 84.4392 3.92592 84.4392 4.41387C84.4392 4.90182 84.0445 5.29728 83.5575 5.29728C83.0705 5.29728 82.6758 4.90182 82.6758 4.41387Z" fill="#4D1111"/>
<path d="M79.1841 4.41387C79.1841 3.92592 79.5788 3.53046 80.0658 3.53046C80.5528 3.53046 80.9475 3.92592 80.9475 4.41387C80.9475 4.90182 80.5528 5.29728 80.0658 5.29728C79.5788 5.29728 79.1841 4.90182 79.1841 4.41387Z" fill="#4D1111"/>
<path d="M76.5741 10.5627C77.0611 10.5627 77.4558 10.9581 77.4558 11.4461C77.4558 11.934 77.0611 12.3295 76.5741 12.3295C76.0871 12.3295 75.6924 11.934 75.6924 11.4461C75.6924 10.9581 76.0871 10.5627 76.5741 10.5627Z" fill="#4D1111"/>
<path d="M76.5741 7.06409C77.0611 7.06409 77.4558 7.45955 77.4558 7.9475C77.4558 8.43545 77.0611 8.83091 76.5741 8.83091C76.0871 8.83091 75.6924 8.43545 75.6924 7.9475C75.6924 7.45955 76.0871 7.06409 76.5741 7.06409Z" fill="#4D1111"/>
<path d="M80.0658 10.5627C80.5528 10.5627 80.9475 10.9581 80.9475 11.4461C80.9475 11.934 80.5528 12.3295 80.0658 12.3295C79.5788 12.3295 79.1841 11.934 79.1841 11.4461C79.1841 10.9581 79.5788 10.5627 80.0658 10.5627Z" fill="#4D1111"/>
<path d="M80.0658 7.06409C80.5528 7.06409 80.9475 7.45955 80.9475 7.9475C80.9475 8.43545 80.5528 8.83091 80.0658 8.83091C79.5788 8.83091 79.1841 8.43545 79.1841 7.9475C79.1841 7.45955 79.5788 7.06409 80.0658 7.06409Z" fill="#4D1111"/>
<path d="M83.5575 10.5627C84.0445 10.5627 84.4392 10.9581 84.4392 11.4461C84.4392 11.934 84.0445 12.3295 83.5575 12.3295C83.0705 12.3295 82.6758 11.934 82.6758 11.4461C82.6758 10.9581 83.0705 10.5627 83.5575 10.5627Z" fill="#4D1111"/>
<path d="M83.5575 7.06409C84.0445 7.06409 84.4392 7.45955 84.4392 7.9475C84.4392 8.43545 84.0445 8.83091 83.5575 8.83091C83.0705 8.83091 82.6758 8.43545 82.6758 7.9475C82.6758 7.45955 83.0705 7.06409 83.5575 7.06409Z" fill="#4D1111"/>
<path d="M122.235 91.0201C122.139 91.0201 122.047 90.985 121.974 90.9117L120.459 89.3936C120.315 89.2501 120.315 89.0141 120.459 88.8706C120.602 88.7271 120.834 88.7271 120.981 88.8706L122.496 90.3886C122.639 90.5322 122.639 90.7682 122.496 90.9117C122.422 90.985 122.33 91.0201 122.235 91.0201Z" fill="#4D1111"/>
<path d="M125.917 94.71C125.822 94.71 125.729 94.675 125.656 94.6016L124.141 93.0835C123.998 92.94 123.998 92.704 124.141 92.5605C124.284 92.417 124.517 92.417 124.663 92.5605L126.178 94.0786C126.321 94.2221 126.321 94.4581 126.178 94.6016C126.105 94.675 126.013 94.71 125.917 94.71Z" fill="#4D1111"/>
<path d="M124.402 91.0201C124.307 91.0201 124.214 90.985 124.141 90.9117C123.998 90.7682 123.998 90.5322 124.141 90.3886L125.656 88.8706C125.799 88.7271 126.032 88.7271 126.178 88.8706C126.321 89.0141 126.321 89.2501 126.178 89.3936L124.663 90.9117C124.59 90.985 124.498 91.0201 124.402 91.0201Z" fill="#4D1111"/>
<path d="M120.72 94.71C120.624 94.71 120.532 94.675 120.459 94.6016C120.315 94.4581 120.315 94.2221 120.459 94.0786L121.974 92.5605C122.117 92.417 122.349 92.417 122.496 92.5605C122.639 92.704 122.639 92.94 122.496 93.0835L120.981 94.6016C120.907 94.675 120.815 94.71 120.72 94.71Z" fill="#4D1111"/>
<path d="M29.707 86.1566C29.6784 86.1566 29.6465 86.1534 29.6179 86.147C29.4205 86.0992 29.2996 85.8982 29.3473 85.7005C30.8306 79.6825 33.0301 75.2144 35.8821 72.4174C36.0285 72.2739 36.2609 72.2771 36.4041 72.4238C36.5474 72.5705 36.5442 72.8033 36.3977 72.9468C33.6444 75.6481 31.5118 79.9982 30.0635 85.8791C30.0221 86.0481 29.8725 86.1598 29.707 86.1598V86.1566Z" fill="#4D1111"/>
<path d="M111.075 116.91C111.037 116.91 110.999 116.904 110.964 116.891C110.77 116.827 110.665 116.62 110.725 116.425C110.744 116.368 112.52 110.417 108.341 95.7306C105.533 85.8536 102.182 76.9971 98.1011 68.6542C95.8221 63.9883 92.9414 59.8137 89.5419 56.2449C88.1414 54.7779 86.7058 53.4703 85.5026 52.5614C84.2676 51.627 83.2427 51.0816 82.5392 50.9827C82.0777 50.919 81.5939 51.0625 81.2438 51.3686C80.9318 51.6397 80.7631 52.0033 80.7631 52.3956C80.7631 53.5819 81.7117 54.9501 82.5392 56.0121C82.9403 56.5256 83.3732 57.0359 83.7902 57.5302C84.2772 58.1042 84.7355 58.6496 85.1239 59.1631C85.2448 59.3257 85.213 59.5585 85.0507 59.6797C84.8883 59.8009 84.656 59.769 84.535 59.6064C84.1626 59.1088 83.7106 58.5731 83.23 58.0086C82.8066 57.5079 82.3705 56.9944 81.9599 56.4682C81.0591 55.3137 80.0278 53.8052 80.0278 52.3956C80.0278 51.7896 80.2888 51.2251 80.7631 50.8105C81.2788 50.3608 81.9663 50.1535 82.6443 50.2492C83.4846 50.364 84.5955 50.9445 85.9515 51.9682C87.1833 52.8995 88.6507 54.2357 90.0767 55.7315C93.5303 59.3544 96.4523 63.5897 98.7664 68.3257C102.869 76.7101 106.234 85.6048 109.054 95.5265C113.306 110.477 111.508 116.406 111.432 116.649C111.381 116.805 111.237 116.904 111.082 116.904L111.075 116.91Z" fill="#4D1111"/>
<path d="M80.6423 63.7715C80.4641 63.7715 80.3081 63.6407 80.2795 63.4589C80.2635 63.3473 79.8784 60.7194 81.6482 59.2683C81.9569 59.0163 82.3134 58.8377 82.6795 58.7485C83.4116 58.573 84.1882 58.6751 84.9872 59.0546C86.4896 59.7626 87.5686 61.2073 87.6132 61.2679C87.7341 61.4306 87.6991 61.6634 87.5368 61.7846C87.3744 61.9058 87.1421 61.8707 87.0211 61.708C87.0116 61.6953 86.0057 60.3494 84.672 59.7212C84.0291 59.415 83.4179 59.3289 82.8514 59.466C82.5903 59.5298 82.3357 59.6574 82.1129 59.8392C80.6678 61.0255 81.002 63.3218 81.0052 63.3441C81.037 63.545 80.897 63.7332 80.6964 63.7651C80.6773 63.7651 80.6582 63.7683 80.6391 63.7683L80.6423 63.7715Z" fill="#4D1111"/>
<path d="M77.634 68.1375C77.4558 68.1375 77.2998 68.0067 77.2712 67.8249C77.2552 67.7133 76.8701 65.0854 78.6399 63.6343C78.9423 63.3856 79.2988 63.2038 79.668 63.1145C79.999 63.0348 80.3396 63.0124 80.677 63.0475C82.8192 63.2452 84.5317 65.5351 84.6049 65.6308C84.7258 65.7934 84.6908 66.0262 84.5285 66.1474C84.3661 66.2686 84.1338 66.2335 84.0128 66.0709C83.9969 66.0486 82.4213 63.9501 80.607 63.781C80.3492 63.7555 80.0913 63.7715 79.8399 63.8321C79.5789 63.8958 79.3242 64.0234 79.1078 64.202C77.6595 65.3884 77.9969 67.6846 78.0001 67.707C78.0319 67.9079 77.8919 68.096 77.6913 68.1279C77.6722 68.1279 77.6531 68.1311 77.634 68.1311V68.1375Z" fill="#4D1111"/>
<path d="M79.8051 77.9635C79.2672 77.9635 78.7484 77.8359 78.2582 77.5807C76.0969 76.455 75.2502 73.3008 75.107 72.1814L75.0942 72.0857C74.9637 71.0907 74.7441 69.4259 76.4757 68.0035C76.7844 67.7484 77.1409 67.5698 77.507 67.4837C77.507 67.4837 77.5261 67.4805 77.5452 67.4741C80.1203 66.9096 82.3452 69.8724 82.4375 70C82.5585 70.1626 82.5234 70.3955 82.3611 70.5166C82.1988 70.6378 81.9664 70.6028 81.8455 70.4401C81.8264 70.4114 79.8115 67.7325 77.7234 68.1917C77.7266 68.1917 77.7107 68.1949 77.6916 68.1981C77.4179 68.2619 77.1664 68.3894 76.9436 68.5744C75.5271 69.7353 75.6927 70.9855 75.8232 71.9901L75.8359 72.0889C76.0173 73.4986 76.9277 76.0563 78.5956 76.927C79.455 77.3766 80.4386 77.316 81.5144 76.7484C81.5144 76.7484 81.5208 76.7484 81.524 76.7452C81.5749 76.7197 81.6322 76.7037 81.6927 76.7037C81.8964 76.7037 82.0619 76.8696 82.0619 77.0737C82.0619 77.2204 81.976 77.3447 81.855 77.4053C81.142 77.7785 80.4577 77.9666 79.8051 77.9666V77.9635Z" fill="#4D1111"/>
<path d="M88.2402 111.785C88.0556 111.785 87.906 111.651 87.8774 111.476C87.0339 107.671 86.6328 102.549 86.2477 97.5963C85.9994 94.4294 85.767 91.4411 85.4264 88.8259C85.0413 85.8631 84.567 83.8316 83.9782 82.6229C83.0042 80.6392 82.2052 78.9776 81.5622 77.6446L81.3617 77.23C81.3617 77.23 81.3522 77.2108 81.349 77.2013C80.5182 75.4599 80.063 74.4968 80.063 74.4968C79.9771 74.3118 80.0535 74.0918 80.2381 74.0057C80.4227 73.9196 80.6423 73.9961 80.7283 74.1811C80.7283 74.1811 81.1866 75.1538 82.0238 76.9078C82.027 76.9174 82.0301 76.9238 82.0333 76.9334L82.2211 77.3256C82.8641 78.6587 83.663 80.3171 84.6371 82.3008C85.2737 83.602 85.7543 85.6463 86.1554 88.7334C86.4959 91.3645 86.7315 94.3656 86.9798 97.5389C87.3649 102.473 87.7628 107.578 88.5999 111.332C88.6063 111.358 88.6095 111.386 88.6095 111.412C88.6095 111.616 88.444 111.782 88.2402 111.782V111.785Z" fill="#4D1111"/>
<path d="M139.547 136.249H96.5795C96.3757 136.249 96.207 136.084 96.207 135.88C96.207 135.675 96.3694 135.51 96.5731 135.51H139.547C139.751 135.51 139.916 135.675 139.916 135.88C139.916 136.084 139.751 136.249 139.547 136.249Z" fill="#4D1111"/>
<path d="M35.825 136.249H17.5289C17.3252 136.249 17.1597 136.084 17.1597 135.88C17.1597 135.675 17.3252 135.51 17.5289 135.51H35.825C36.0287 135.51 36.1942 135.675 36.1942 135.88C36.1942 136.084 36.0287 136.249 35.825 136.249Z" fill="#4D1111"/>
<path d="M109.557 16.9443C109.557 16.9443 109.55 16.9443 109.547 16.9443C109.347 16.9379 109.188 16.7753 109.188 16.5775C109.363 13.1013 109.48 10.7955 109.48 10.7955C109.487 10.6839 109.541 10.5818 109.63 10.518C109.719 10.4511 109.83 10.4287 109.939 10.4574C111.556 10.8625 113.376 11.242 115.343 11.5832C115.544 11.6183 115.678 11.8097 115.643 12.0106C115.608 12.2115 115.417 12.3455 115.216 12.3104C113.405 11.9978 111.718 11.6502 110.193 11.2803C110.152 12.1095 110.053 14.0357 109.923 16.5935C109.913 16.7912 109.751 16.9443 109.554 16.9443H109.557Z" fill="#4D1111"/>
<path d="M140.238 14.4599C134.722 14.326 126.548 13.9401 118.873 12.8749C118.673 12.8462 118.53 12.6612 118.558 12.4571C118.587 12.2562 118.775 12.1126 118.975 12.1414C126.611 13.2034 134.757 13.5861 140.244 13.72C140.445 13.7264 140.607 13.8922 140.604 14.0931C140.604 14.2941 140.439 14.4567 140.238 14.4567V14.4599Z" fill="#4D1111"/>
<path d="M147.715 46.7156C147.715 46.7156 147.712 46.7156 147.709 46.7156C147.505 46.7124 147.343 46.5434 147.346 46.3393C147.378 44.5469 147.352 42.812 147.269 41.1791C146.903 34.115 147.222 28.738 147.499 23.9925L147.565 22.8539C147.578 22.6498 147.75 22.4935 147.954 22.5063C148.158 22.519 148.313 22.6913 148.301 22.8954L148.234 24.0371C147.957 28.7635 147.642 34.1182 148.005 41.1408C148.091 42.7897 148.116 44.5405 148.084 46.352C148.081 46.5529 147.916 46.7156 147.715 46.7156Z" fill="#4D1111"/>
<path d="M145.48 66.3611C145.465 66.3611 145.449 66.3611 145.433 66.3579C145.375 66.3516 139.598 65.5957 129.865 65.0025C120.105 64.4093 105.467 62.8753 105.32 62.8594C105.206 62.8466 105.101 62.7796 105.04 62.6808C104.98 62.5787 104.973 62.4575 105.018 62.3491C107.087 57.4249 107.86 45.4845 108.344 34.4531C108.525 30.2624 108.745 25.7082 108.939 21.6898L109.006 20.2898C109.016 20.0857 109.188 19.9294 109.391 19.939C109.595 19.9485 109.751 20.1207 109.741 20.3248L109.675 21.7249C109.48 25.7433 109.264 30.2943 109.082 34.4849C108.611 45.2581 107.86 56.9019 105.884 62.1769C108.503 62.448 121.172 63.7364 129.912 64.2658C138.344 64.7825 143.819 65.4171 145.194 65.583C145.484 64.1797 146.595 58.4646 147.104 51.5887C147.12 51.3846 147.295 51.2315 147.499 51.2474C147.702 51.2634 147.855 51.4388 147.839 51.6429C147.25 59.5936 145.859 66.0039 145.843 66.0677C145.805 66.2399 145.656 66.3579 145.484 66.3579L145.48 66.3611Z" fill="#4D1111"/>
<path d="M147.935 23.2462C147.833 23.2462 147.731 23.2047 147.658 23.1218L139.958 14.3387C139.824 14.1856 139.84 13.9528 139.993 13.8189C140.146 13.6849 140.378 13.7008 140.512 13.8539L148.212 22.637C148.345 22.7901 148.329 23.0229 148.177 23.1569C148.107 23.2175 148.021 23.2493 147.935 23.2493V23.2462Z" fill="#4D1111"/>
<path d="M135.094 37.3871C132.745 37.3871 130.838 36.4591 129.333 34.0831C128.181 32.2652 125.943 33.1455 123.135 34.4817C121.608 35.2089 120.401 35.7861 119.663 35.3683C119.351 35.1929 119.169 34.8676 119.125 34.4084C119.077 33.9173 118.893 33.5888 118.558 33.407C117.467 32.8106 115.051 33.7961 114.213 34.2234C114.032 34.3159 113.809 34.2457 113.717 34.064C113.625 33.8822 113.695 33.6589 113.876 33.5664C114.22 33.391 117.279 31.8666 118.908 32.7564C119.465 33.0594 119.784 33.5888 119.857 34.3319C119.876 34.5392 119.933 34.6699 120.026 34.7241C120.43 34.9537 121.7 34.3478 122.82 33.812C125.16 32.6958 128.362 31.1713 129.957 33.6844C132.436 37.5912 136.071 37.1671 141.511 35.1132C141.702 35.0399 141.915 35.1387 141.985 35.3301C142.059 35.5214 141.96 35.7351 141.769 35.8053C139.229 36.762 137.014 37.3839 135.094 37.3839V37.3871Z" fill="#4D1111"/>
<path d="M132.405 41.9636C131.679 41.9636 131.084 41.718 130.734 41.026C130.129 39.8332 128.397 40.1777 126.869 40.4838C125.682 40.7198 124.746 40.908 124.243 40.4232C123.998 40.1872 123.909 39.8332 123.986 39.3708C124.075 38.8222 124.017 38.4555 123.817 38.2801C123.18 37.722 120.895 38.4268 118.247 39.24C116.114 39.8938 114.615 39.9991 113.787 39.5494C113.377 39.3261 113.275 39.0359 113.259 38.9785L113.969 38.7744C113.969 38.7744 113.969 38.7648 113.959 38.7489C113.962 38.7585 114.497 39.6195 118.03 38.5352C121.235 37.5498 123.352 36.8992 124.301 37.7252C124.711 38.0855 124.848 38.6628 124.715 39.4888C124.695 39.6068 124.676 39.8141 124.756 39.8906C124.982 40.1075 125.95 39.9161 126.726 39.7599C128.423 39.4218 130.53 39.0008 131.393 40.6911C131.864 41.6192 133.197 41.2269 135.333 40.4743C137.638 39.661 140.251 38.7393 141.473 40.9048C141.572 41.0834 141.511 41.3066 141.333 41.4087C141.155 41.5076 140.932 41.447 140.83 41.2684C139.914 39.6419 137.708 40.42 135.578 41.1695C134.464 41.5618 133.328 41.9636 132.405 41.9636Z" fill="#4D1111"/>
<path d="M117.852 44.7287C117.699 44.7287 117.556 44.633 117.505 44.48C117.412 44.2121 117.234 44.0207 116.964 43.8963C115.958 43.4339 113.981 44.0271 113.306 44.295C113.115 44.3683 112.902 44.2759 112.829 44.0877C112.756 43.8995 112.848 43.6827 113.036 43.6093C113.147 43.5647 115.773 42.5409 117.269 43.2266C117.724 43.4371 118.039 43.7783 118.199 44.2408C118.265 44.4321 118.164 44.6426 117.973 44.7096C117.931 44.7223 117.893 44.7287 117.852 44.7287Z" fill="#4D1111"/>
<path d="M138.825 60.1007C138.729 60.1007 138.637 60.088 138.548 60.0624C138.016 59.9062 137.714 59.3449 137.644 58.3977C137.612 57.9512 137.51 57.645 137.367 57.5557C137.163 57.4313 136.67 57.645 136.275 57.814C135.686 58.066 135.018 58.3562 134.512 57.9799C134.04 57.6323 133.9 56.8413 134.05 55.4126C134.146 54.51 134.009 54.1241 133.865 54.0635C133.178 53.7861 130.619 56.296 128.658 58.8155C128.534 58.9749 128.301 59.0036 128.142 58.8792C127.983 58.7549 127.955 58.5221 128.079 58.3626C129.11 57.0359 132.602 52.756 134.142 53.381C134.97 53.7159 134.83 55.0522 134.785 55.4923C134.626 57.0167 134.871 57.3293 134.951 57.3867C135.12 57.5111 135.6 57.3038 135.989 57.1379C136.568 56.8892 137.227 56.6053 137.755 56.9274C138.124 57.1507 138.328 57.6163 138.382 58.3435C138.424 58.9207 138.567 59.297 138.758 59.3544C139.27 59.5043 140.566 58.302 141.47 57.0965C141.591 56.9338 141.823 56.9019 141.985 57.0231C142.148 57.1443 142.18 57.3771 142.059 57.5398C141.721 57.9926 140.069 60.1007 138.828 60.1007H138.825Z" fill="#4D1111"/>
<path d="M17.1535 74.2034C17.0931 74.2034 17.0326 74.1874 16.9753 74.1587C16.8734 74.1013 16.8034 74.0025 16.7875 73.8845C16.2368 69.9394 12.1944 62.0015 8.31426 54.7588C4.62194 47.8637 0.0893014 39.2369 0.0415559 39.1508C-0.00937261 39.0519 -0.0157387 38.9371 0.0288238 38.835C0.0702032 38.733 0.156145 38.6564 0.261185 38.6245C7.05378 36.5866 15.2437 32.3482 20.9191 29.1494C21.0973 29.0505 21.3201 29.1111 21.422 29.2897C21.5207 29.4683 21.4602 29.6916 21.2819 29.7936C15.6925 32.9414 7.67129 37.0969 0.900975 39.2018C1.8336 40.975 5.72009 48.3612 8.9636 54.4111C12.7259 61.4306 16.6379 69.107 17.4368 73.2976C19.4358 72.3696 27.8326 68.4532 33.5303 65.5096C38.9892 62.6935 42.6942 61.0224 43.7573 60.5536C43.3722 59.4501 41.9908 55.6199 39.8549 51.273C39.7658 51.0912 39.839 50.8679 40.0236 50.7786C40.2051 50.6893 40.4279 50.7627 40.517 50.9477C43.0666 56.1333 44.5531 60.595 44.5658 60.6397C44.6263 60.8215 44.5372 61.0192 44.3621 61.0957C44.3239 61.1117 40.3356 62.8307 33.8677 66.1666C27.3806 69.5152 17.4082 74.1237 17.3095 74.1715C17.2618 74.1938 17.2077 74.2066 17.1567 74.2066L17.1535 74.2034Z" fill="#4D1111"/>
<path d="M38.1771 47.6755C38.0498 47.6755 37.9256 47.6085 37.8556 47.4905C37.1935 46.3296 36.5187 45.2262 35.8439 44.212C35.7325 44.043 35.7771 43.8134 35.9458 43.6985C36.1145 43.5837 36.3437 43.6316 36.4583 43.8006C37.1426 44.8275 37.8301 45.9469 38.4986 47.1238C38.6004 47.3024 38.5368 47.5256 38.3617 47.6277C38.3044 47.6595 38.2408 47.6755 38.1803 47.6755H38.1771Z" fill="#4D1111"/>
<path d="M33.2501 39.7216C33.1228 39.7216 32.9986 39.6546 32.9318 39.5398C31.5408 37.1511 30.465 35.0654 29.4209 33.0466L29.0549 32.3386C28.9626 32.1568 29.0326 31.9335 29.2108 31.8411C29.3923 31.7486 29.6151 31.8187 29.7074 32.0005L30.0734 32.7117C31.1111 34.7209 32.1838 36.8003 33.5652 39.1731C33.6671 39.3485 33.6098 39.5749 33.4315 39.677C33.3742 39.712 33.3106 39.728 33.2469 39.728L33.2501 39.7216Z" fill="#4D1111"/>
<path d="M29.3827 32.5332C29.3445 32.5332 29.3063 32.5268 29.2681 32.514L20.9986 29.8255C20.8458 29.7809 20.7344 29.6374 20.7344 29.4715C20.7344 29.2674 20.8967 29.1016 21.1004 29.1016C21.1386 29.1016 21.1768 29.1079 21.215 29.1207L29.4941 31.8124C29.6882 31.8762 29.7933 32.0835 29.7296 32.278C29.6787 32.4343 29.5355 32.5332 29.3795 32.5332H29.3827Z" fill="#4D1111"/>
<path d="M13.3113 55.5975C13.2318 55.5975 13.149 55.572 13.0822 55.5178C12.923 55.3902 12.8975 55.1574 13.0249 54.9979C15.8673 51.4356 18.3214 49.5795 21.7718 51.3303C23.1342 52.0192 24.21 50.6287 25.4737 48.7375C26.1931 47.6628 26.7597 46.8176 27.4376 46.8017C27.74 46.7953 28.001 46.9452 28.227 47.2513C28.4912 47.6117 28.7331 47.6436 28.8923 47.6372C29.6817 47.6085 30.783 46.3105 31.2923 45.4973C31.4005 45.3251 31.6297 45.274 31.8016 45.3825C31.9735 45.4909 32.0244 45.7173 31.9162 45.8927C31.7602 46.1415 30.3501 48.3229 28.9177 48.3771C28.5708 48.3899 28.0647 48.2815 27.6318 47.6915C27.5618 47.599 27.5045 47.5416 27.4536 47.5448C27.1575 47.5511 26.5368 48.4792 26.0848 49.1553C24.9899 50.7914 23.4907 53.0366 21.4376 51.9969C18.7384 50.6287 16.7617 51.5058 13.5978 55.4668C13.5246 55.5592 13.4164 55.6039 13.3113 55.6039V55.5975Z" fill="#4D1111"/>
<path d="M12.2991 52.0415C11.9776 52.0415 11.6465 51.9554 11.3028 51.7609C11.1277 51.6588 11.0641 51.4356 11.1659 51.257C11.2678 51.0816 11.4906 51.0178 11.6688 51.1198C12.7288 51.729 13.6614 50.7531 14.9601 49.1967C15.9946 47.9561 17.0641 46.6741 18.2418 47.4204C18.9675 47.8796 19.8015 47.2162 20.8137 46.3041C21.5044 45.6822 22.0487 45.1879 22.6057 45.3187C22.8858 45.3856 23.0991 45.5961 23.2392 45.9533C23.3346 46.1957 23.4906 46.4923 23.6911 46.5306C24.2577 46.6358 25.4991 45.2645 26.8105 43.8165C27.9469 42.5632 28.889 41.9126 29.618 41.8839C29.9936 41.8679 30.1909 42.0242 30.2418 42.0721C30.3914 42.2124 30.3978 42.4452 30.2577 42.5951C30.1272 42.7354 29.914 42.7514 29.7644 42.6365C29.7071 42.6174 29.0418 42.4516 27.3548 44.3141C25.6519 46.1957 24.5283 47.4363 23.5575 47.2609C23.1214 47.1812 22.7935 46.8431 22.5516 46.2276C22.4943 46.0841 22.4434 46.0426 22.437 46.0426C22.2588 46.0012 21.6636 46.5369 21.3071 46.8591C20.3776 47.6978 19.1044 48.8491 17.8471 48.0518C17.2582 47.6787 16.5452 48.4537 15.5235 49.6783C14.6227 50.7595 13.5436 52.0511 12.2959 52.0511L12.2991 52.0415Z" fill="#4D1111"/>
<path d="M15.1101 59.3289C15.0305 59.3289 14.9509 59.3034 14.8841 59.2523C14.7217 59.1279 14.6931 58.8951 14.8172 58.7357C14.9573 58.5539 16.2114 56.972 17.4496 56.8381C17.8443 56.7966 18.2071 56.9051 18.5032 57.1538C18.6591 57.2846 18.6782 57.5174 18.5477 57.6737C18.4172 57.8299 18.1849 57.8491 18.0289 57.7183C17.8857 57.5971 17.7265 57.5493 17.5292 57.5716C16.7398 57.6577 15.7244 58.7676 15.4029 59.1885C15.3297 59.2842 15.2215 59.3321 15.1101 59.3321V59.3289Z" fill="#4D1111"/>
<path d="M30.4237 62.9136C30.4237 62.9136 30.3918 62.9136 30.3759 62.9136C30.1754 62.8881 30.0322 62.7031 30.0576 62.5022C30.2613 60.8852 30.8757 57.1028 32.1298 56.9083C32.8587 56.7967 33.2979 57.7534 33.4444 58.0692C33.9314 59.128 34.186 59.1663 34.1956 59.1663C34.307 59.179 34.5552 58.8186 34.6794 58.6496C34.969 58.2509 35.2969 57.8013 35.7998 57.8013H35.8062C36.1595 57.8045 36.4937 58.0373 36.8248 58.5093C37.108 58.9143 37.2927 58.9908 37.3499 58.9749C37.646 58.8984 38.0311 57.7534 38.1584 56.5734C38.1807 56.3693 38.3622 56.2258 38.5659 56.2449C38.7696 56.2673 38.9128 56.449 38.8937 56.6532C38.8237 57.3006 38.5181 59.4373 37.5346 59.6925C37.0921 59.8041 36.6529 59.549 36.22 58.9334C35.9494 58.5444 35.8157 58.5412 35.7966 58.538C35.6661 58.538 35.4178 58.8792 35.2714 59.0833C34.9754 59.4915 34.638 59.954 34.1192 59.8998C33.6417 59.8519 33.2407 59.3959 32.7727 58.3753C32.4481 57.6673 32.2444 57.6354 32.2412 57.6354C31.7987 57.7024 31.108 60.0656 30.7865 62.5915C30.7643 62.7764 30.6051 62.9136 30.4205 62.9136H30.4237Z" fill="#4D1111"/>
<path d="M75.1066 49.5125C73.7984 49.5125 72.6939 48.8077 72.6239 48.763C72.452 48.6514 72.4042 48.4218 72.5157 48.2527C72.6271 48.0805 72.853 48.0327 73.0249 48.1443C73.1141 48.2017 75.1894 49.5157 76.7427 48.1666C76.8955 48.0327 77.1279 48.0486 77.2615 48.2049C77.3952 48.358 77.3793 48.5908 77.2234 48.7247C76.5422 49.3179 75.7942 49.5125 75.1035 49.5125H75.1066Z" fill="#4D1111"/>
<path d="M62.967 42.6525C62.9256 42.6525 62.881 42.6461 62.8397 42.6302C62.4322 42.4803 62.0248 42.3687 61.6365 42.3017C61.4359 42.2666 61.2991 42.0785 61.3341 41.8775C61.3691 41.6766 61.5569 41.5395 61.7574 41.5746C62.1935 41.6479 62.6423 41.7691 63.0943 41.9381C63.2853 42.0083 63.384 42.222 63.3139 42.4133C63.2598 42.5632 63.1198 42.6557 62.967 42.6557V42.6525Z" fill="#4D1111"/>
<path d="M63.3807 53.6393C63.1006 53.6393 62.8237 53.6234 62.55 53.5947C59.0677 53.2279 56.4576 50.5904 55.7701 48.2942C55.229 46.4987 55.646 44.5309 56.8587 43.1564C58.046 41.8137 59.8317 41.2365 61.7606 41.5713C61.9611 41.6064 62.0948 41.7978 62.0598 41.9987C62.0248 42.1996 61.8338 42.3336 61.6333 42.2985C59.9367 42.0019 58.4375 42.4803 57.4094 43.6443C56.3622 44.8275 56.0057 46.5274 56.4736 48.0805C57.1038 50.1758 59.577 52.5359 62.6264 52.858C63.2089 52.9217 63.8041 52.9122 64.3993 52.8261C64.6189 52.7942 64.8227 52.9696 64.8227 53.1928C64.8227 53.3842 64.6794 53.5405 64.4916 53.5596C64.1192 53.6138 63.75 53.6393 63.3807 53.6393Z" fill="#4D1111"/>
<path d="M64.1002 48.3995C64.0651 48.3995 64.0301 48.3931 63.9919 48.3835L59.2206 46.9388C59.0264 46.8814 58.915 46.6741 58.9755 46.4796C59.0359 46.285 59.2397 46.1734 59.4338 46.234L64.2052 47.6787C64.3994 47.7361 64.5108 47.9434 64.4503 48.1379C64.4025 48.2974 64.2561 48.3995 64.097 48.3995H64.1002Z" fill="#4D1111"/>
<path d="M59.529 49.4519C59.4748 49.4519 59.4207 49.4391 59.3666 49.4136C59.1852 49.3243 59.1088 49.1043 59.1979 48.9193L60.2356 46.7985C60.3247 46.6167 60.5443 46.5401 60.729 46.6294C60.9104 46.7187 60.9868 46.9388 60.8977 47.1238L59.86 49.2446C59.7963 49.3754 59.6658 49.4519 59.529 49.4519Z" fill="#4D1111"/>
<path d="M78.7609 57.696C78.5763 57.696 78.4171 57.5557 78.3949 57.3675C78.3726 57.1634 78.5158 56.9816 78.7195 56.9593C79.0124 56.9274 79.2766 56.886 79.5248 56.8349C80.4511 56.65 81.3073 56.3438 82.0681 55.9196C82.2463 55.8208 82.4691 55.8845 82.5678 56.0631C82.6665 56.2417 82.6028 56.465 82.4246 56.5638C81.597 57.0231 80.6707 57.358 79.6681 57.5557C79.3975 57.6099 79.1142 57.6546 78.7991 57.6896C78.7864 57.6896 78.7705 57.6896 78.7577 57.6896L78.7609 57.696Z" fill="#4D1111"/>
<path d="M85.7253 52.6347C85.6807 52.6347 85.6361 52.6252 85.5916 52.6092C85.4006 52.5359 85.3083 52.3222 85.3815 52.1309C86.6547 48.8492 85.9353 44.2344 83.1152 37.604C82.0648 35.1355 80.8361 32.6416 79.6648 30.3135L79.5756 30.1381C79.4961 29.9754 79.4165 29.8159 79.3337 29.6597C76.3417 23.7405 72.347 22.8061 69.5268 23.0644C69.3104 23.0835 69.1226 22.9113 69.1226 22.6976C69.1226 22.4999 69.2753 22.3404 69.4695 22.3277C72.5157 22.0534 76.8128 23.0452 79.9894 29.3248C80.0722 29.4843 80.1518 29.6469 80.2313 29.8096L80.3173 29.985C81.495 32.3227 82.73 34.8294 83.7868 37.317C86.6865 44.1355 87.4091 48.9289 86.0627 52.3987C86.0054 52.5455 85.8653 52.6347 85.7189 52.6347H85.7253Z" fill="#4D1111"/>
<path d="M61.6969 42.3081C61.4932 42.3081 61.3276 42.1455 61.3276 41.9413C61.3276 41.8584 61.3563 41.7755 61.4072 41.7085C62.8237 39.929 64.0714 38.1175 65.1154 36.322C68.8364 29.9276 69.2279 25.0513 69.1293 22.7136C69.0815 21.5719 68.916 20.9436 68.9128 20.9372C68.8587 20.7395 68.9765 20.5385 69.1738 20.4843C69.3712 20.4301 69.5717 20.5481 69.6258 20.7427C69.6322 20.7714 69.8136 21.4475 69.8677 22.6817C69.9696 25.1023 69.5717 30.1381 65.7552 36.6951C64.6953 38.5161 63.4284 40.3531 61.9961 42.1582C61.9292 42.2507 61.821 42.3113 61.7001 42.3113L61.6969 42.3081Z" fill="#4D1111"/>
<path d="M66.392 55.3775C65.889 55.3775 65.3829 55.2148 64.9564 54.8799C64.4439 54.4749 64.1288 53.869 64.0843 53.2152C64.0461 52.6379 64.2211 52.0734 64.5776 51.6206C64.9628 51.1358 65.5134 50.8265 66.1309 50.7563C66.7453 50.6861 67.35 50.8583 67.8307 51.2442C68.3145 51.6301 68.6201 52.1787 68.6933 52.7942C68.7633 53.4097 68.5914 54.0157 68.2063 54.5004C67.7511 55.0777 67.0731 55.3775 66.3888 55.3775H66.392ZM66.3983 51.4802C66.3378 51.4802 66.2774 51.4834 66.2169 51.4898C65.7967 51.5376 65.4211 51.7481 65.1569 52.0798C64.9118 52.386 64.7941 52.7719 64.8195 53.1673C64.8482 53.6138 65.0646 54.0252 65.4116 54.2995C66.0927 54.8385 67.089 54.7237 67.627 54.0412C67.888 53.7095 68.0058 53.2981 67.958 52.8771C67.9103 52.4593 67.7002 52.083 67.3691 51.8183C67.089 51.5951 66.7485 51.4771 66.3951 51.4771L66.3983 51.4802Z" fill="#4D1111"/>
<path d="M78.3823 43.3382C78.325 43.3382 78.2677 43.3254 78.2104 43.2967C78.029 43.201 77.959 42.9778 78.0545 42.7992C78.4905 41.9636 78.9616 40.5827 78.6529 40.1266C78.5606 39.9895 78.3505 39.9385 78.0354 39.9767C75.4571 40.2765 74.655 36.7174 74.6232 36.5675C74.5786 36.3697 74.7059 36.172 74.9064 36.1306C75.1038 36.0859 75.3011 36.2135 75.3457 36.4144C75.3521 36.4463 76.0332 39.4697 77.9526 39.2464C78.7102 39.1603 79.0826 39.4505 79.2608 39.712C79.9293 40.6879 78.9202 42.7418 78.7102 43.1436C78.6433 43.2712 78.516 43.3414 78.3823 43.3414V43.3382Z" fill="#4D1111"/>
<path d="M75.1354 31.1203C75.0081 31.1203 74.8839 31.0533 74.8171 30.9353C74.7152 30.7599 74.7757 30.5335 74.9508 30.4314C77.755 28.8017 79.9259 29.7107 80.1391 29.8063C80.2728 29.8638 80.3651 29.9945 80.3651 30.1476C80.3651 30.3517 80.2028 30.5175 79.9991 30.5175C79.945 30.5175 79.8909 30.5048 79.8399 30.4825C79.8208 30.4729 77.8696 29.5927 75.3232 31.0725C75.2659 31.1075 75.2022 31.1235 75.1386 31.1235L75.1354 31.1203Z" fill="#4D1111"/>
<path d="M65.4335 36.8769C65.3634 36.8769 65.2934 36.8577 65.2329 36.8163C65.0642 36.7046 65.0133 36.475 65.1247 36.306C67.5502 32.5905 70.1444 32.3864 70.2526 32.3801C70.4531 32.3673 70.6314 32.5236 70.6441 32.7245C70.6568 32.9286 70.504 33.1008 70.3003 33.1168C70.2685 33.1168 67.9417 33.3368 65.7422 36.7078C65.6722 36.8163 65.5544 36.8737 65.4335 36.8737V36.8769Z" fill="#4D1111"/>
<path d="M45.0433 68.5074C44.8683 68.5074 44.7123 68.383 44.6805 68.2044C44.6455 68.0035 44.776 67.8122 44.9765 67.7739C46.1224 67.5666 47.3383 67.4327 48.5924 67.3816C49.5601 67.3402 50.5818 67.3465 51.6259 67.3976C56.9097 67.6591 59.9495 67.0053 61.4837 65.2799C63.3872 63.14 63.1739 59.1216 62.2158 53.3332C62.184 53.1322 62.3177 52.9409 62.5182 52.909C62.7187 52.8771 62.9097 53.011 62.9415 53.212C63.9347 59.2173 64.1288 63.4143 62.0312 65.7711C60.3092 67.7037 57.1866 68.4117 51.5877 68.1343C50.5659 68.0833 49.5664 68.0801 48.6179 68.1183C47.3988 68.1694 46.2179 68.2969 45.1038 68.4979C45.0815 68.501 45.0593 68.5042 45.037 68.5042L45.0433 68.5074Z" fill="#4D1111"/>
<path d="M36.14 73.0489C36.0477 73.0489 35.9554 73.0138 35.8822 72.9436C35.7453 72.8097 35.7326 72.596 35.8503 72.4493C36.0604 72.1591 38.4922 68.9667 44.8933 67.7899C45.0939 67.7516 45.2848 67.8855 45.323 68.0865C45.3612 68.2874 45.2275 68.4787 45.027 68.517C38.7564 69.6683 36.4647 72.8575 36.4424 72.8894C36.4296 72.9054 36.4169 72.9213 36.4042 72.9341C36.331 73.0074 36.2355 73.0457 36.14 73.0457V73.0489Z" fill="#4D1111"/>
<path d="M80.6422 63.7715C80.6009 63.7715 80.5563 63.7651 80.5149 63.7492C78.6274 63.0571 79.1621 57.7853 79.2322 57.1602C79.2513 56.9721 79.4072 56.8254 79.5982 56.8254C79.8019 56.8254 79.9674 56.988 79.9674 57.1921C79.9674 57.2081 79.9674 57.2208 79.9674 57.2368C79.7796 58.8984 79.7192 62.668 80.7696 63.0539C80.9605 63.1241 81.0592 63.3377 80.9892 63.5291C80.9351 63.679 80.7918 63.7715 80.6422 63.7715Z" fill="#4D1111"/>
<path d="M108.694 96.0016C108.49 96.0016 108.325 95.8358 108.328 95.6317C108.366 81.8926 105.648 75.3355 103.359 72.2516C100.921 68.9667 98.4511 68.8614 98.4256 68.8614C98.2219 68.8551 98.0628 68.686 98.066 68.4851C98.0691 68.281 98.241 68.1216 98.4384 68.1247C98.5498 68.1247 101.233 68.2109 103.888 71.7286C107.354 76.3242 109.098 84.3674 109.067 95.6349C109.067 95.839 108.901 96.0016 108.697 96.0016H108.694Z" fill="#4D1111"/>
<path d="M174.634 89.3585L160.479 135.911H101.863L116.018 89.3585H174.634Z" fill="#FF5635"/>
<path d="M174.634 89.3585H116.018L113.427 86.9762H172.046L174.634 89.3585Z" fill="#937F7F"/>
<path d="M107.698 105.828L113.427 86.9762L116.018 89.3585L101.863 135.911H56.4287V132.961H84.8596H93.667H99.457L107.698 105.828Z" fill="#6D4949"/>
<path d="M101.863 136.278H56.4288C56.2251 136.278 56.0596 136.112 56.0596 135.908V132.958C56.0596 132.754 56.2251 132.588 56.4288 132.588H99.1833L107.345 105.716L113.074 86.8646C113.135 86.67 113.338 86.5584 113.532 86.619C113.727 86.6796 113.838 86.8837 113.778 87.0782L108.048 105.93L99.8072 133.063C99.7594 133.22 99.6162 133.325 99.4539 133.325H56.7949V135.535H101.86C102.064 135.535 102.229 135.701 102.229 135.905C102.229 136.109 102.064 136.275 101.86 136.275L101.863 136.278Z" fill="#4D1111"/>
<path d="M160.479 136.278H101.863C101.66 136.278 101.494 136.112 101.494 135.908C101.494 135.704 101.66 135.538 101.863 135.538H160.205L174.214 89.4701L171.903 87.3429H113.427C113.224 87.3429 113.058 87.1771 113.058 86.973C113.058 86.7689 113.224 86.603 113.427 86.603H172.046C172.138 86.603 172.228 86.6381 172.294 86.7019L174.882 89.0842C174.987 89.1799 175.025 89.3266 174.984 89.4638L160.829 136.013C160.781 136.17 160.638 136.275 160.476 136.275L160.479 136.278Z" fill="#4D1111"/>
<path d="M53.8762 113.022C62.5023 113.565 74.1967 114.193 78.4238 113.922C83.6631 113.584 84.8503 112.688 88.2403 111.415C89.3862 110.981 90.7867 110.509 92.6774 109.996C98.2923 108.478 100.944 107.894 102.236 108.739C103.115 109.317 103.376 110.522 102.879 111.447C101.501 114.024 94.7337 116.489 94.7337 116.489L94.7241 116.505C95.488 117.028 97.3533 117.819 101.338 117.353C107.065 116.684 109.793 115.14 111.053 116.543C111.053 116.543 111.059 116.55 111.063 116.553C111.998 117.605 112.167 119.436 109.824 121.011C109.863 121.047 109.898 121.082 109.929 121.12C110.923 122.223 111.066 124.194 108.312 125.827C108.799 126.934 108.491 128.445 106.374 129.753C106.374 131.096 105.365 133.063 101.86 134.358C99.9952 135.047 98.2987 135.51 96.5798 135.883H96.5735C95.8095 136.049 95.0424 136.195 94.253 136.336C91.3596 136.849 88.4408 137.193 85.5092 137.404C80.2604 137.783 70.6031 138.893 60.7452 139.455C28.9945 141.263 29.4719 129.338 28.2751 118.055C26.5053 101.407 28.0268 80.6392 36.1404 72.6853C36.6942 72.14 37.2767 71.6552 37.8942 71.2374C40.6985 69.3335 44.3494 69.0369 47.4242 70.4656C59.5039 76.0755 54.7866 103.838 53.8731 113.029L53.8762 113.022Z" fill="#EFBC83"/>
<path d="M97.7348 124.271C97.2032 124.271 96.7258 124.252 96.2993 124.223C96.0956 124.21 95.9428 124.035 95.9555 123.831C95.9682 123.627 96.1433 123.473 96.347 123.486C98.4605 123.627 101.936 123.505 106.472 122.109C107.755 121.713 108.815 121.241 109.614 120.702C110.626 120.02 111.215 119.238 111.317 118.435C111.39 117.854 111.202 117.277 110.792 116.808C110.782 116.798 110.773 116.789 110.766 116.779C110.085 116.062 108.748 116.349 106.555 116.814C105.186 117.108 103.48 117.471 101.373 117.717C97.2574 118.199 95.3062 117.353 94.5104 116.805C94.1412 116.55 93.9852 116.342 93.9597 116.304C93.842 116.138 93.8802 115.909 94.0489 115.791C94.2144 115.673 94.4404 115.711 94.5581 115.874C94.5645 115.883 94.6727 116.017 94.9306 116.196C95.6404 116.684 97.4133 117.436 101.29 116.983C103.362 116.741 105.049 116.381 106.402 116.094C108.875 115.564 110.371 115.245 111.317 116.288C111.323 116.295 111.33 116.301 111.336 116.307C111.899 116.939 112.154 117.73 112.052 118.53C111.963 119.241 111.54 120.3 110.028 121.318C109.165 121.895 108.045 122.399 106.689 122.817C102.952 123.965 99.912 124.271 97.7348 124.271Z" fill="#4D1111"/>
<path d="M96.5858 128.847C96.2388 128.847 95.9205 128.841 95.6245 128.828C95.4208 128.819 95.2648 128.646 95.2712 128.442C95.2807 128.238 95.4526 128.082 95.6563 128.088C97.703 128.178 101.045 128.009 105.349 126.685C106.453 126.344 107.386 125.948 108.118 125.508C109.337 124.784 110.05 123.939 110.184 123.059C110.276 122.453 110.085 121.85 109.649 121.365C109.617 121.327 109.598 121.308 109.576 121.289C109.569 121.282 109.563 121.276 109.553 121.27C109.41 121.123 109.413 120.89 109.56 120.747C109.703 120.606 109.926 120.606 110.069 120.744C110.123 120.791 110.168 120.839 110.209 120.89C110.776 121.518 111.037 122.357 110.913 123.174C110.795 123.945 110.279 125.087 108.494 126.146C107.714 126.615 106.724 127.036 105.562 127.396C101.774 128.56 98.7057 128.85 96.5826 128.85L96.5858 128.847Z" fill="#4D1111"/>
<path d="M94.6476 132.847C94.4438 132.847 94.2783 132.681 94.2783 132.48C94.2783 132.276 94.4407 132.11 94.6444 132.11C97.3086 132.1 100.294 131.606 103.283 130.688C104.442 130.33 105.416 129.909 106.177 129.437C107.835 128.414 108.491 127.151 107.972 125.974C107.889 125.786 107.972 125.569 108.16 125.486C108.344 125.403 108.564 125.486 108.647 125.674C108.898 126.248 109.49 128.257 106.565 130.062C105.753 130.57 104.722 131.016 103.5 131.392C100.444 132.333 97.3818 132.834 94.6476 132.847Z" fill="#4D1111"/>
<path d="M96.5795 136.249C96.4108 136.249 96.2581 136.131 96.2199 135.959C96.1785 135.762 96.3026 135.564 96.5031 135.519C98.3907 135.111 100.052 134.633 101.736 134.011C105.705 132.544 106.008 130.381 106.008 129.753C106.008 129.549 106.173 129.383 106.377 129.383C106.581 129.383 106.746 129.549 106.746 129.753C106.746 130.503 106.409 133.073 101.994 134.706C100.278 135.341 98.5848 135.829 96.6623 136.243C96.6368 136.249 96.6114 136.253 96.5827 136.253L96.5795 136.249Z" fill="#4D1111"/>
<path d="M54.7451 140C30.0734 140 29.0612 129.721 28.0776 119.758C28.0235 119.2 27.9694 118.645 27.9089 118.09C26.9094 108.682 27.0399 99.1079 28.275 91.1253C28.3068 90.9244 28.4946 90.7873 28.6951 90.816C28.8956 90.8479 29.0325 91.036 29.0039 91.237C27.7784 99.159 27.6479 108.666 28.641 118.01C28.7015 118.569 28.7556 119.127 28.8097 119.685C29.3476 125.135 29.8537 130.282 33.9185 133.992C38.5148 138.182 47.2808 139.847 60.7228 139.082C67.0411 138.721 73.2958 138.134 78.3218 137.662C81.1515 137.398 83.5961 137.168 85.4804 137.031C88.5648 136.808 91.4136 136.46 94.186 135.969C95.0295 135.819 95.7807 135.672 96.4906 135.519C96.6911 135.478 96.8852 135.602 96.9298 135.803C96.9712 136.001 96.847 136.198 96.6465 136.243C95.9272 136.399 95.1664 136.546 94.3133 136.699C91.5155 137.197 88.6444 137.547 85.5314 137.771C83.6534 137.908 81.212 138.134 78.3886 138.402C73.3563 138.874 67.092 139.461 60.761 139.821C58.6124 139.943 56.6071 140.003 54.7387 140.003L54.7451 140Z" fill="#4D1111"/>
<path d="M53.8759 113.392C53.8759 113.392 53.8505 113.392 53.8377 113.392C53.634 113.373 53.4876 113.191 53.5067 112.987C53.6022 112.043 53.7327 110.918 53.8855 109.613C55.1778 98.6104 57.8674 75.7151 47.2679 70.7941C44.3141 69.4228 40.8 69.7066 38.1008 71.5372C37.5088 71.939 36.9358 72.4111 36.3979 72.9405C36.2515 73.084 36.0191 73.0808 35.8759 72.9373C35.7326 72.7906 35.7358 72.5578 35.8791 72.4142C36.4488 71.8561 37.0536 71.3554 37.6838 70.9281C40.5963 68.9539 44.3873 68.6446 47.5735 70.1244C58.6568 75.2718 55.9258 98.5243 54.6112 109.699C54.4584 110.997 54.3279 112.12 54.2324 113.058C54.2133 113.249 54.0542 113.389 53.8664 113.389L53.8759 113.392Z" fill="#4D1111"/>
<path d="M75.769 114.359C70.466 114.359 61.2575 113.858 53.8506 113.392C49.7795 113.137 46.4246 112.904 44.7885 112.786C44.5848 112.771 44.432 112.595 44.4479 112.391C44.4638 112.187 44.6357 112.034 44.8426 112.05C46.4787 112.165 49.8304 112.401 53.8983 112.656C62.7726 113.214 74.2284 113.823 78.4013 113.555C82.5902 113.284 84.0958 112.675 86.3748 111.753C86.9128 111.536 87.4666 111.31 88.1128 111.067C88.3038 110.997 88.517 111.093 88.587 111.284C88.6571 111.476 88.5616 111.689 88.3706 111.76C87.734 111.999 87.1833 112.222 86.6486 112.439C84.3886 113.354 82.7557 114.014 78.4459 114.292C77.7424 114.336 76.8353 114.356 75.769 114.356V114.359Z" fill="#4D1111"/>
<path d="M94.7336 116.859C94.584 116.859 94.4408 116.767 94.3867 116.617C94.3166 116.425 94.4153 116.212 94.6063 116.145C94.6731 116.119 101.259 113.699 102.554 111.278C102.965 110.509 102.733 109.511 102.032 109.055C100.861 108.29 98.184 108.896 92.7729 110.359C91.1527 110.796 89.7554 111.243 88.3707 111.763C88.1798 111.833 87.9697 111.737 87.8965 111.546C87.8264 111.355 87.9219 111.141 88.1129 111.071C89.5198 110.541 90.9394 110.088 92.5819 109.645C98.34 108.089 101.011 107.502 102.437 108.433C103.465 109.106 103.802 110.509 103.204 111.626C101.774 114.295 95.1411 116.735 94.8578 116.84C94.8164 116.856 94.775 116.862 94.7304 116.862L94.7336 116.859Z" fill="#4D1111"/>
</g>
<defs>
<clipPath id="clip0_1183_5045">
<rect width="175" height="140" fill="white"/>
</clipPath>
</defs>
</svg>
